<?xml version="1.0" encoding="UTF-8"?>
<svg id="_Слой_2" data-name="Слой_2" xmlns="http://www.w3.org/2000/svg" viewBox="0 0 539.31 539.31">
  <defs>
    <style>
      .cls-1 {
        fill: #fff;
      }
    </style>
  </defs>
  <g id="_Слой_1-2" data-name="Слой_1">
    <g>
      <path d="M0,204.06v-14.58c4.63-.23,9.27-.45,13.62-.67.87-5.32,1.53-9.4,2.11-12.95,5.07-.91,9.08-1.64,13.94-2.52v-55.96h42.3c.74,4.93,1.36,9.07,2.01,13.39,5.03.24,9.34.44,13.65.65l-.41-.41c.27,4.54.53,9.09.85,14.51,10.12,0,19.43,0,28.74,0,0,4.56,0,9.13,0,14.58,15.43,0,29.58,0,43.73,0,.01,4.99.03,9.97.04,14.96-4.63,0-9.25,0-14.78,0,.31,5.59.53,9.64.8,14.52,5.11-.39,9.16-.7,13.57-1.03v-13.91h14.55v-14.55h13.79c.81-5.59,1.39-9.65,2.1-14.55h28.26c-.3,4.62-.61,9.25-.92,13.94-4.99.65-9.07,1.18-13.9,1.8.32,4.88.59,8.91.84,12.71,5.13.8,9.21,1.43,13.98,2.17,0,4.96,0,9.23,0,13.5-4.61,0-9.22,0-13.91,0v28.06c4.96.76,9.02,1.39,13.91,2.14,0,9.91,0,19.01,0,28.1-14.73,0-29.45,0-44.18,0v-13.78c-5.58-.82-9.68-1.43-13.96-2.06-.23-5.07-.43-9.37-.63-13.66,9.53,0,19.06,0,28.8,0v-28.23h-13.33c-.51,4.67-.95,8.8-1.4,12.88-5.01.74-9.14,1.34-13.67,2.01v13.75c-4.64-.33-9.27-.65-13.86-.98-.71-5.04-1.29-9.13-1.89-13.35h-12.52c-.79,4.79-1.53,9.2-2.36,14.27h-42.65c.3-4.62.6-9.24.99-15.22h27.47v-28.48c-5.23,0-9.54,0-13.86,0,0-4.64,0-9.28,0-14.85-5.64.36-9.71.63-14.18.92v13.93c-4.98,0-9.95,0-14.93,0,0-9.53,0-19.06,0-28.36-5.61-.86-9.73-1.49-13.57-2.08-.8-4.96-1.46-9.04-2.08-12.86h-12.59v27.66c4.83.64,8.95,1.18,12.91,1.7.76,4.95,1.39,9.06,2.08,13.52h13.68v28.77h-13.66c-.95-4.89-1.82-9.35-2.75-14.11-4.57.21-8.26.38-12.14.57v43.03c5.21,0,9.56,0,13.92,0-.28,4.62-.55,9.24-.84,13.99-4.99.62-9.07,1.13-13.9,1.73.29,4.87.52,8.89.75,12.73,5.09.77,9.16,1.39,12.97,1.96.76,4.94,1.38,9.02,2.05,13.33h13.57v15.18h43.7v14.39h-57.42c-.88-5.94-1.49-10.03-2.23-15h-28.2l.41.41v-29.49c-6,.44-10.03.73-14.98,1.1v28.39l.41-.41c-4.93.07-9.85.14-14.78.2v-58.3h13.63c.61-4.89,1.12-9.03,1.75-14.04,4.38-.36,8.51-.69,12.9-1.05v-14.07H0Z"/>
      <path class="cls-1" d="M87.63,131.44c-4.31-.2-8.62-.41-13.65-.65-.65-4.32-1.27-8.46-2.01-13.39H29.67v55.96c-4.86.88-8.87,1.6-13.94,2.52-.58,3.54-1.24,7.63-2.11,12.95-4.36.21-8.99.44-13.62.67v-29.15c4.59-.2,9.17-.4,13.74-.6v-28.55H0v-29.15h102.03V0h14.58v43.82h42.49c1,5.31,1.84,9.77,2.75,14.55,4.49-.21,8.19-.38,13.2-.61V15.53c5.49-.76,9.63-1.34,14.44-2.01V0h29.15c-.22,4.61-.45,9.22-.66,13.63-5.23.8-9.32,1.43-13.69,2.1,0,5.06,0,9.34,0,13.62-4.62,0-9.24,0-13.91,0v28.73c5.22,0,9.55,0,13.88,0,0,4.64,0,9.28,0,14.85,5.64-.36,9.71-.63,14.18-.92v-13.93h13.77c.84-5.59,1.45-9.7,2.09-13.96,5.08-.23,9.38-.42,13.68-.61,0,9.86.02,19.72.03,29.57-4.6,0-9.2,0-13.97,0v42.64c4.88.7,8.95,1.28,12.83,1.84v28.01h-13.86s.41.41.41.41c-.23-4.51-.46-9.02-.73-14.25-5.23-.27-9.74-.5-14.25-.73l.41.41v-44.14c-6.03.47-10.13.79-13.86,1.08-.87,5.21-1.56,9.31-2.17,12.98h-13.55v-28.48c-5.54.38-9.57.66-14.55,1v57.56l.41-.41c-14.35,0-28.7,0-44.17,0,0-20.56,0-39.41,0-58.26,4.63,0,9.25,0,14.78,0-.31-5.59-.53-9.64-.8-14.52-5.11.39-9.16.7-13.57,1.03v13.91h-14.95v72.83l.4-.43h-28.74c-.32-5.42-.58-9.97-.85-14.51,4.63,0,9.25,0,14.78,0-.31-5.59-.53-9.64-.8-14.52-5.12.39-9.17.7-13.57,1.03v13.91ZM159.74,84.99c-6.19,2.89-10.79,3.91-13.5,6.75-1.53,1.6.04,6.18.27,10.29,5.08-.32,9.15-.58,13.23-.84v-16.19Z"/>
      <path class="cls-1" d="M131.18,539.31h-29.15v-102.03H0v-14.58h14.99v-58.41c5.39.41,9.4.71,14.66,1.1v42.51c5.65,0,9.97,0,14.28,0,0,4.61,0,9.21,0,13.95h28.09c.75-4.98,1.38-9.1,2.02-13.36,5.03-.22,9.32-.41,13.61-.6,0,4.54,0,9.09,0,14.6h29.18v13.9c5.43.68,9.5,1.2,13.49,1.7.69,4.94,1.25,9,1.78,12.85,4.95.75,9.02,1.36,12.83,1.93.76,4.95,1.38,9.02,2.04,13.31,5.03,0,9.3,0,13.56,0,.01,4.98.02,9.97.04,14.96-9.53,0-19.07,0-28.3,0-.92-5.93-1.56-10.04-2.32-14.94-4.82.48-8.82.87-12.68,1.26v41.88h13.28c.48-4.78.89-8.86,1.43-14.21h28.18v-14.41c9.84.01,19.69.02,29.53.04,0,4.51,0,9.01,0,14.6h14.6v13.77c5.59.84,9.7,1.45,13.96,2.09.23,5.09.42,9.39.61,13.68-29.01,0-58.03,0-87.68,0v14.38Z"/>
      <path d="M539.31,262.37v43.73h-29.27c.42,5.81.71,9.82,1.06,14.58h28.21v43.73h-43.85c.43,5.79.72,9.8,1.07,14.58h42.78v14.58h-58.72v-28.93c-5.7,0-10.03,0-14.36,0,.15-4.99.3-9.98.45-14.97,0,0-.41.41-.41.41h58.73c-.55-6.11-.91-10.16-1.35-15.15h-28.22v-27.91h-25.82c-3.44,5.72-5.3,10.16-8.43,13.36-1.35,1.39-5.31.23-8.65.23-.52-5.35-.92-9.46-1.33-13.66-5.02-.65-9.11-1.17-14.14-1.82,0-10.06,0-19.21,0-28.37,4.99-.01,9.98-.03,14.96-.04,0,4.63,0,9.25,0,14.78,5.6-.31,9.64-.53,14.52-.8-.39-5.11-.7-9.16-1.03-13.57h-13.91c.31-4.61.62-9.22.92-13.82h29.01v27.17h28.82v-28.3l-.41.41c9.79-.07,19.57-.14,29.36-.2Z"/>
      <path class="cls-1" d="M466.23,364.62h14.36v28.93h58.72v43.73h-29.27c.42,5.81.71,9.82,1.06,14.58h28.21v14.58c-4.6.22-9.19.44-14.6.7.32,5.16.58,9.2.87,13.88h13.73v14.58c-4.6.22-9.2.44-15.2.73v28.19h-43.3l.4.43c-.32-4.66-.63-9.31-.94-13.85-5.08-.77-9.19-1.39-14.04-2.12v-13.61h14.84v-42.26c5.35-1.02,9.81-1.86,13.49-2.56,4.96-13.98-4.96-13.46-13.61-14.1.37-5.03.67-9.04,1.03-14.01h41.94v-14.68h-57.3v-43.56l-.4.43ZM496.12,510.55c5.53-.63,9.57-1.1,13.28-1.52v-41.68h-13.28v43.2Z"/>
      <path class="cls-1" d="M422.7,0h14.58v102.03h102.03v14.58h-42.77c-.91,5.87-1.55,9.99-2.12,13.63-5,.88-9.04,1.6-12.7,2.24v27h12.95c.73-4.92,1.34-9.04,1.98-13.32,5.09-.23,9.39-.43,13.7-.62v13.8c5.61.84,9.71,1.45,14.15,2.11v13.67s.43-.4.43-.4h-28.29c-.91,5.97-1.54,10.1-2.22,14.58h-13.62l.41.41c-.23-4.51-.47-9.03-.75-14.58h-14.25v-25.92c-6.27-3.67-10.77-5.5-14.05-8.61-1.39-1.32-.23-5.32-.23-8.79,5.29-.47,9.42-.84,13.54-1.2v-13.78h-42.99c.07-38.93.15-77.87.22-116.8Z"/>
      <path d="M102.03,0v102.03H0V0C34.01,0,68.02,0,102.03,0ZM15.21,86.41h71.07V15.36H15.21v71.05Z"/>
      <path d="M0,437.28h102.03v102.03H0v-102.03ZM14.85,523.82h71.56v-70.79H14.85v70.79Z"/>
      <path d="M539.31,102.03h-102.03V0h102.03v102.03ZM452.53,86.64h71.26V15.64h-71.26v71Z"/>
      <path d="M43.92,407.9h-14.28v-42.51c-5.26-.4-9.27-.7-14.66-1.1v58.41H0c0-24.29,0-48.59,0-72.88,4.6-.22,9.19-.44,14.6-.7-.32-5.16-.58-9.2-.87-13.87H0v-14.58c4.61-.24,9.22-.48,14.78-.78v-28.58s-.41.41-.41.41h14.98l-.41-.41c.31,4.65.63,9.31.94,13.85,5.08.76,9.19,1.37,13.46,2.01.23,5.09.42,9.39.61,13.69-4.64,0-9.28,0-14.85,0,.36,5.64.63,9.71.92,14.18h13.93v15.17h28.06v27.95c-4.99.74-9.1,1.35-13.93,2.06v13.51l.43-.4c-4.51.23-9.02.46-14.25.73-.27,5.21-.5,9.73-.73,14.25,0,0,.4-.43.4-.43Z"/>
      <path d="M422.7,0c-.07,38.93-.15,77.87-.22,116.8,0,0,.43-.4.43-.4h-15.18v-28.52c-5.69-.27-10.02-.47-14.35-.67,0,0,.41.41.41.41-.16-4.97-.32-9.94-.49-14.9,4.63,0,9.25,0,14.78,0-.31-5.59-.53-9.64-.8-14.52-5.12.39-9.17.7-13.57,1.03v13.91c-4.64-.34-9.29-.67-13.84-1-.73-5.07-1.32-9.13-2.03-14.03h-28.24l.43.4c-.15-9.85-.3-19.7-.45-29.55,4.62.28,9.24.55,14,.84.62,5,1.12,9.07,1.72,13.9,4.86-.28,8.89-.52,12.74-.74.76-5.09,1.38-9.15,1.95-12.96,4.95-.76,9.02-1.38,13.77-2.11v-13.49l-.43.4c4.68-.31,9.36-.63,14.78-.99V0h14.58Z"/>
      <path d="M218.86,524.93c-.19-4.3-.38-8.6-.61-13.68-4.27-.64-8.38-1.25-13.96-2.09v-13.77l-.43.4c4.51-.23,9.03-.47,14.58-.75v-14.25h13.77c.84-5.59,1.45-9.7,2.09-13.96,5.08-.23,9.38-.42,13.68-.61,0,4.51,0,9.01,0,14.6h14.6v28.39c5.45.77,9.56,1.35,13.44,1.9.77,4.94,1.4,9.04,2.09,13.44h13.62c-.08,4.92-.15,9.85-.23,14.77h-58.3c-.22-4.64-.44-9.28-.69-14.78h-14.09s.43.4.43.4ZM247.19,495.56c-5.24.34-9.31.61-13.37.88v12.98h13.37v-13.86Z"/>
      <path class="cls-1" d="M291.52,539.31c.08-4.92.15-9.85.23-14.77l-.43.4c4.63-.29,9.26-.58,15.17-.95v-27.98c5.69-.26,10.01-.46,14.34-.66,0,4.63,0,9.25,0,14.78,5.59-.31,9.64-.53,14.52-.8-.39-5.12-.7-9.17-1.03-13.57h-13.91c.15-4.98.3-9.97.46-14.95l-.41.41c9.86-.13,19.72-.27,29.58-.4v13.76c5.6.85,9.7,1.47,14.55,2.2v13.61h-14.77v28.93h-14.58c-.22-4.6-.44-9.19-.7-14.6-5.16.32-9.2.58-13.87.87v13.73h-29.15Z"/>
      <path class="cls-1" d="M349.6,28.95c.15,9.85.3,19.7.45,29.55-4.65-.3-9.29-.6-13.95-.9-.66-5.07-1.18-9.15-1.86-14.35h-57.09v-14.31l-.41.41c4.51-.23,9.02-.46,14.25-.73.27-5.23.5-9.74.73-14.25l-.41.41h13.86c.73,5.5,1.28,9.57,1.92,14.41,4.88-.35,8.87-.64,13.57-.97V0h29.15c-.07,4.93-.14,9.85-.2,14.78l.41-.41c-4.65.31-9.31.63-14.79,1,.33,5.05.59,9.11.9,13.98h13.89l-.43-.4Z"/>
      <path d="M189.49,0v13.52c-4.81.67-8.96,1.24-14.44,2.01v42.24c-5.01.23-8.71.4-13.2.61-.9-4.79-1.74-9.24-2.75-14.55h-42.49V0h14.58v28.18h29.15V0h29.15Z"/>
      <path d="M539.31,204.06v43.73h-29.36v14.78l.41-.41h-13.88v-28.07c4.97-.76,9.03-1.38,13.48-2.06v-28.19c9.78.07,19.57.15,29.35.22Z"/>
      <path d="M204.29,29.35v-13.62c4.37-.67,8.46-1.3,13.69-2.1.21-4.41.44-9.02.66-13.63h29.15c.07,4.92.15,9.85.22,14.77-4.64,0-9.28,0-14.84,0,.36,5.64.61,9.7.9,14.15,5.33,0,9.62,0,13.92,0-.13,5-.27,10-.4,15l.4-.43c-4.3.19-8.6.38-13.68.61-.64,4.27-1.25,8.38-2.09,13.96h-13.77l.4.43v-29.56h-14.98l.43.4Z"/>
      <path d="M131.18,539.31v-14.38c29.65,0,58.66,0,87.68,0,0,0-.43-.4-.43-.4.07,4.93.14,9.85.2,14.78h-87.46Z"/>
      <path d="M480.81,524.51h43.3v-28.19c6.01-.29,10.6-.51,15.2-.73v43.73h-58.3c-.07-4.93-.13-9.87-.2-14.8Z"/>
      <path d="M510.35,145.53c-4.31.2-8.61.39-13.7.62-.64,4.29-1.25,8.41-1.98,13.32h-12.95v-27c3.66-.65,7.7-1.36,12.7-2.24.57-3.64,1.21-7.77,2.12-13.63h42.77v14.58h-29.36v14.78l.4-.43Z"/>
      <path class="cls-1" d="M393.77,14.38v13.49c-4.75.73-8.82,1.35-13.77,2.11-.57,3.81-1.18,7.87-1.95,12.96-3.86.22-7.88.46-12.74.74-.6-4.83-1.1-8.9-1.72-13.9-4.76-.28-9.38-.56-14-.84,0,0,.43.4.43.4v-14.98s-.41.41-.41.41c4.68-.31,9.36-.63,14.78-.99V0C369.26,0,374.11,0,378.97,0c.22,4.64.44,9.29.68,14.38h14.12Z"/>
      <path class="cls-1" d="M248.01,14.77c-.07-4.92-.15-9.85-.22-14.77h43.73c-.07,4.93-.14,9.85-.2,14.78,0,0,.41-.41.41-.41-4.51.23-9.02.46-14.25.73-.27,5.23-.5,9.74-.73,14.25l.41-.41c-4.99,0-9.98-.01-14.98-.02l.4.43c-.23-4.51-.46-9.02-.73-14.25-5.21-.27-9.73-.5-14.25-.73l.43.4Z"/>
      <path class="cls-1" d="M160.33,0v28.18h-29.15V0h29.15Z"/>
      <path d="M291.31,14.78c.07-4.93.14-9.85.2-14.78h29.15v28.22c-4.7.34-8.7.62-13.57.97-.65-4.84-1.19-8.91-1.92-14.41h-13.86Z"/>
      <path class="cls-1" d="M539.31,378.97h-42.78c-.35-4.78-.65-8.79-1.07-14.58h43.85v14.58Z"/>
      <path class="cls-1" d="M0,204.06h28.28v14.07c-4.39.36-8.52.69-12.9,1.05-.62,5.01-1.14,9.15-1.75,14.04H0v-29.15Z"/>
      <path d="M524.51,175.11v-13.67c-4.44-.66-8.55-1.27-14.15-2.11v-13.8s-.4.43-.4.43c9.79-.07,19.57-.14,29.36-.2v29.15c-4.93.07-9.87.13-14.8.2Z"/>
      <path d="M349.82,539.31v-28.93h14.77l-.4-.43c.23,4.51.46,9.02.73,14.25,5.23.27,9.74.5,14.25.73,0,0-.43-.4-.43-.4.07,4.92.15,9.85.22,14.77h-29.15Z"/>
      <path class="cls-1" d="M378.97,539.31c-.07-4.92-.15-9.85-.22-14.77,14.73,0,29.45,0,44.18,0-.08,4.92-.15,9.85-.23,14.77h-43.73Z"/>
      <path class="cls-1" d="M480.81,524.51c.07,4.93.13,9.87.2,14.8h-43.73c-.07-4.92-.15-9.85-.22-14.77,14.72.13,29.44.27,44.16.4l-.4-.43Z"/>
      <path class="cls-1" d="M524.51,175.11c4.93-.07,9.87-.13,14.8-.2v29.15c-9.78-.07-19.57-.15-29.35-.22l.4.43v-13.77c5.61-.84,9.72-1.46,14.58-2.18v-13.6s-.43.4-.43.4Z"/>
      <path class="cls-1" d="M539.31,145.76c-9.79.07-19.57.14-29.36.2v-14.78h29.36v14.58Z"/>
      <path class="cls-1" d="M14.78,291.31v28.58c-5.56.29-10.17.53-14.78.78v-29.15c4.93-.07,9.85-.14,14.78-.2Z"/>
      <path d="M0,131.18h13.74v28.55c-4.57.2-9.15.4-13.74.6v-29.15Z"/>
      <path class="cls-1" d="M509.95,262.57v-14.78h29.36v14.58c-9.79.07-19.57.14-29.36.2Z"/>
      <path d="M539.31,451.85h-28.21c-.35-4.76-.64-8.77-1.06-14.58h29.27v14.58Z"/>
      <path class="cls-1" d="M539.31,320.67h-28.21c-.35-4.76-.64-8.77-1.06-14.58h29.27v14.58Z"/>
      <path class="cls-1" d="M0,335.25h13.73c.29,4.67.55,8.72.87,13.87-5.41.26-10,.48-14.6.7,0-4.86,0-9.72,0-14.58Z"/>
      <path d="M364.4,0v13.79c-5.42.36-10.1.68-14.78.99.07-4.93.14-9.85.2-14.78h14.58Z"/>
      <path d="M393.77,14.38h-14.12c-.24-5.09-.46-9.73-.68-14.38,4.86,0,9.72,0,14.58,0-.07,4.93-.14,9.85-.2,14.78l.43-.4Z"/>
      <path class="cls-1" d="M393.35,14.78c.07-4.93.14-9.85.2-14.78h14.58v13.79c-5.42.36-10.1.68-14.78.99Z"/>
      <path d="M539.31,481h-13.73c-.29-4.68-.55-8.72-.87-13.88,5.41-.26,10-.48,14.6-.7v14.58Z"/>
      <path class="cls-1" d="M218.64,539.31c-.07-4.93-.14-9.85-.2-14.78h14.09c.26,5.5.48,10.14.69,14.78h-14.58Z"/>
      <path d="M320.67,539.31v-13.73c4.67-.29,8.72-.55,13.87-.87.26,5.41.48,10,.7,14.6h-14.58Z"/>
      <path d="M437.05,524.54c.07,4.92.15,9.85.22,14.77h-14.58c.08-4.92.15-9.85.23-14.77,0,0-.43.4-.43.4,4.99,0,9.99,0,14.98,0l-.43-.4Z"/>
      <path class="cls-1" d="M43.95,320.87c-.19-4.3-.38-8.6-.61-13.69-4.27-.64-8.38-1.25-13.46-2.01-.31-4.54-.62-9.2-.94-13.85h28.2c.74,4.97,1.35,9.06,2.23,15h57.42l-.4-.43v29.6c-6.1,0-10.32,0-14.54,0,0-4.63,0-9.25,0-14.78-5.59.31-9.64.53-14.52.8.39,5.11.7,9.16,1.03,13.57h13.91c0,4.97,0,9.94-.01,14.91-4.63,0-9.25,0-14.78,0,.31,5.6.53,9.64.8,14.52,5.11-.39,9.16-.7,13.57-1.03v-13.91c4.62.31,9.23.62,13.8.93v28.95h-27.98c0,5.66,0,9.98,0,14.29-9.87,0-19.73,0-29.6,0v-13.51c4.83-.71,8.95-1.32,13.93-2.06v-27.95h-28.06v-15.17l-.43.4c4.65-.31,9.31-.63,14.79-1-.33-5.05-.59-9.11-.9-13.98h-13.89l.43.4Z"/>
      <path class="cls-1" d="M218.86,189.68v-13.5c-4.77-.74-8.85-1.37-13.98-2.17-.25-3.8-.52-7.83-.84-12.71,4.84-.63,8.91-1.16,13.9-1.8.31-4.69.61-9.32.92-13.94l-.43.4c4.99,0,9.99,0,14.98,0l-.41-.41v28.37h29.82v-42.33c5.66-.25,9.98-.44,14.3-.64,0,4.63,0,9.25,0,14.83h28.32c.42,4.96.77,9.05,1.13,13.29,5.07,1.03,9.49,1.93,13.2,2.69v28.08h-42.64v14.44c-14.71-.14-29.42-.29-44.13-.43l.41.41c-.23-4.51-.46-9.02-.73-14.25-5.21-.27-9.73-.5-14.25-.73l.43.4ZM277.55,174.93c5.23-.34,9.3-.61,13.37-.88v-12.98h-13.37v13.86Z"/>
      <path class="cls-1" d="M72.73,175.14c4.98,0,9.95,0,14.93,0l-.4-.43c.31,4.65.63,9.31,1,14.79,5.05-.33,9.11-.59,13.98-.9v-13.89l-.4.43h13.86v28.48h-27.47c-.39,5.98-.69,10.6-.99,15.22l.43-.4h-29.56v14.98l.4-.43h-13.92v-43.03c3.88-.18,7.57-.35,12.14-.57.93,4.76,1.8,9.22,2.75,14.11h13.66v-28.77l-.41.41Z"/>
      <path class="cls-1" d="M87.23,218.83h42.65c.84-5.06,1.57-9.48,2.36-14.27h12.52c.6,4.23,1.17,8.31,1.89,13.35,4.59.32,9.23.65,13.86.98l-.41-.41c.2,4.29.39,8.58.63,13.66,4.28.63,8.38,1.24,13.96,2.06v13.78l.43-.4c-9.85.14-19.7.28-29.55.43,0-4.64,0-9.28,0-14.85-5.64.36-9.71.63-14.18.92v13.93c-4.65-.32-9.3-.64-13.87-.96-.73-5.07-1.31-9.14-2.01-14.05h-28.25l.41.41c0-4.99,0-9.99,0-14.98l-.43.4Z"/>
      <path class="cls-1" d="M116.8,306.32v-14.39h-43.7v-15.18l-.43.4h29.56v-14.98l-.41.41c9.85-.14,19.7-.28,29.55-.43,0,4.5,0,9.01,0,14.25,5.55.29,10.07.52,14.58.75,0,0-.41-.41-.41-.41.13,5,.27,10,.4,15h-13.77c-.84,5.59-1.45,9.7-2.12,14.15h-13.66l.4.43Z"/>
      <path class="cls-1" d="M218.86,247.99v-28.1c-4.89-.75-8.95-1.38-13.91-2.14v-28.06c4.69,0,9.3,0,13.91,0,0,0-.43-.4-.43-.4.23,4.51.46,9.02.73,14.25,5.23.27,9.74.5,14.25.73l-.41-.41v28.27c5.98.9,10.05,1.52,15,2.27,0,9.93,0,19.05,0,28.17-4.66-.31-9.32-.62-13.87-.92-.76-5.08-1.37-9.19-2.1-14.05h-13.61l.43.4Z"/>
      <path class="cls-1" d="M73.1,276.74h-13.57c-.66-4.32-1.29-8.39-2.05-13.33-3.81-.58-7.88-1.19-12.97-1.96-.23-3.84-.46-7.86-.75-12.73,4.83-.6,8.91-1.11,13.9-1.73.28-4.75.56-9.37.84-13.99,0,0-.4.43-.4.43,9.85,0,19.71,0,29.56,0l-.41-.41c.31,4.65.63,9.31.94,13.85,5.08.76,9.19,1.38,13.64,2.04v13.66s.41-.41.41-.41h-29.56v14.98l.43-.4Z"/>
      <path class="cls-1" d="M174.69,247.99c14.73,0,29.45,0,44.18,0,0,0-.43-.4-.43-.4v15.2h-28.75v14.38c-14.71-.14-29.42-.28-44.13-.43l.41.41c-.13-5-.27-10-.4-15h29.55v-14.56l-.43.4Z"/>
      <path class="cls-1" d="M73.14,174.73h-13.68c-.68-4.46-1.32-8.57-2.08-13.52-3.96-.52-8.08-1.07-12.91-1.7v-27.66h12.59c.62,3.82,1.28,7.9,2.08,12.86,3.84.59,7.96,1.22,13.57,2.08,0,9.3,0,18.83,0,28.36,0,0,.42-.41.42-.41Z"/>
      <path class="cls-1" d="M218.86,145.56h-28.26c-.71,4.9-1.29,8.96-2.1,14.55-4.53,0-9.16,0-13.79,0,0,0,.4.43.4.43,0-9.85,0-19.71,0-29.56,0,0-.41.41-.41.41,14.71,0,29.42,0,44.13,0l-.41-.41c0,4.99,0,9.99,0,14.98l.43-.4Z"/>
      <path class="cls-1" d="M160.53,160.11h-43.73c0-5.45,0-10.01,0-14.58,0,0-.4.43-.4.43,14.5,0,29,0,43.73,0v14.58l.4-.43Z"/>
      <path class="cls-1" d="M160.51,218.9v-13.75c4.53-.67,8.66-1.27,13.67-2.01.44-4.08.89-8.21,1.4-12.88h13.33v28.23c-9.75,0-19.28,0-28.8,0,0,0,.41.42.41.42Z"/>
      <path class="cls-1" d="M29.35,291.72h-14.98c0-9.12,0-18.24,0-28.39,4.95-.36,8.98-.66,14.98-1.1v29.49Z"/>
      <path class="cls-1" d="M87.65,175.13v-13.93c4.47-.29,8.54-.55,14.18-.92,0,5.57,0,10.21,0,14.85,0,0,.4-.43.4-.43h-14.98l.4.43Z"/>
      <path class="cls-1" d="M160.57,175.07c-.01-4.99-.03-9.97-.04-14.96,0,0-.4.43-.4.43h14.98s-.4-.43-.4-.43c0,4.52,0,9.03,0,14.55h-14.55l.41.41Z"/>
      <path class="cls-1" d="M160.16,174.66v13.91c-4.41.33-8.46.64-13.57,1.03-.27-4.89-.49-8.93-.8-14.52,5.53,0,10.16,0,14.78,0,0,0-.41-.42-.41-.42Z"/>
      <path d="M262.17,28.93c4.99,0,9.98.01,14.98.02v14.31h57.09c.67,5.2,1.2,9.28,1.86,14.35,4.66.3,9.3.6,13.95.9,0,0-.43-.4-.43-.4.14,9.85.28,19.7.43,29.55-4.64,0-9.28,0-14.85,0,.36,5.64.63,9.71.92,14.18h13.93c-.15,4.99-.3,9.98-.45,14.97,0,0,.43-.4.43-.4-9.85,0-19.71,0-29.56,0l.41.41v-28.52h-13.96c-.64,4.85-1.17,8.92-1.81,13.76-4.86-.32-8.89-.58-12.69-.83-.8-5.13-1.43-9.21-2.1-13.53-5.03,0-9.3,0-13.57,0,0-9.49,0-18.98,0-29.35-5.49.3-9.55.52-13.45.74-.79,5.1-1.42,9.2-2.1,13.61h-13.62l.43.4c0-9.86-.02-19.72-.03-29.57,0,0-.4.43-.4.43,4.51-.23,9.03-.47,14.58-.75v-14.25ZM306.12,72.27c-.34-5.24-.61-9.31-.88-13.37h-12.98v13.37h13.86Z"/>
      <path d="M277.14,130.96c-4.32.19-8.65.39-14.3.64v42.33h-29.82v-28.37h13.86v-28.01c-3.88-.56-7.95-1.14-12.83-1.84v-42.64c4.77,0,9.37,0,13.97,0,0,0-.43-.4-.43-.4v29.16h15v13.77c5.59.84,9.7,1.45,14.15,2.12v13.66l.4-.43Z"/>
      <path d="M218.84,131.39c-14.71,0-29.42,0-44.13,0,0-18.83,0-37.67,0-57.56,4.99-.34,9.01-.62,14.55-1v28.48h13.55c.61-3.67,1.3-7.77,2.17-12.98,3.73-.29,7.83-.61,13.86-1.08v44.14Z"/>
      <path d="M175.11,160.54h-14.98c0-4.25,0-8.51,0-14.58-14.73,0-29.23,0-43.73,0,0-23.83,0-47.65,0-72.83h14.95l-.41-.41v58.26c15.47,0,29.82,0,44.17,0,0,9.85,0,19.71,0,29.56Z"/>
      <path d="M204.26,58.08h-13.88v-28.73c4.67,0,9.29,0,13.91,0,0,0-.43-.4-.43-.4,0,9.85,0,19.71,0,29.56l.4-.43Z"/>
      <path d="M87.63,131.44v-13.91c4.4-.33,8.45-.64,13.57-1.03.27,4.89.49,8.93.8,14.52-5.53,0-10.16,0-14.78,0,0,0,.41.42.41.42Z"/>
      <path d="M218.43,145.96c0-4.99,0-9.99,0-14.98,4.51.23,9.02.46,14.25.73.27,5.23.5,9.74.73,14.25-4.99,0-9.99,0-14.98,0Z"/>
      <path d="M131.36,73.13v-13.91c4.41-.33,8.46-.64,13.57-1.03.27,4.89.49,8.93.8,14.52-5.53,0-10.16,0-14.78,0,0,0,.41.42.41.42Z"/>
      <path d="M218.44,58.08v13.93c-4.47.29-8.54.55-14.18.92,0-5.57,0-10.21,0-14.85,0,0-.4.43-.4.43,4.99,0,9.99,0,14.98,0l-.4-.43Z"/>
      <path d="M159.74,84.99v16.19c-4.08.26-8.16.52-13.23.84-.22-4.11-1.8-8.68-.27-10.29,2.71-2.83,7.31-3.86,13.5-6.75Z"/>
      <path d="M116.4,305.89h13.66c.67-4.45,1.28-8.56,2.12-14.15,4.5,0,9.14,0,13.77,0,0,0-.4-.43-.4-.43.31,4.65.63,9.31.94,13.85,5.08.76,9.19,1.37,13.46,2.01.23,5.09.42,9.39.61,13.69-4.5,0-9.01,0-14.58,0,0,5.57,0,10.07,0,14.58-4.64,0-9.28,0-14.84,0,.36,5.64.62,9.7.9,14.16,5.33,0,9.62,0,13.92,0,0,5,.02,9.99.02,14.99-4.64,0-9.28,0-14.85,0,.37,5.65.63,9.71.92,14.18h13.93v29.15h29.15v29.59c-6.53,0-10.75,0-14.96,0,0-4.63,0-9.25,0-14.78-5.59.31-9.64.53-14.52.8.39,5.11.7,9.16,1.03,13.57h13.91c-.15,9.84-.3,19.69-.46,29.53l.4-.43h-13.56c-.66-4.3-1.28-8.37-2.04-13.31-3.81-.57-7.87-1.19-12.83-1.93-.53-3.85-1.1-7.92-1.78-12.85-3.99-.5-8.06-1.02-13.49-1.7v-13.9l-.43.4c4.63-.29,9.27-.58,13.75-.86v-28.7h-42.9l.43.4v-14.29h27.98v-28.95c-4.56-.31-9.18-.62-13.8-.93l.41.41c0-4.97,0-9.94.01-14.91l-.41.41h14.53v-29.6Z"/>
      <path d="M160.57,481.16c-.01-4.98-.02-9.97-.04-14.95,0,0-.4.43-.4.43,4.62-.29,9.25-.57,13.95-.86.65-5.02,1.18-9.1,1.69-13.03,4.96-.72,9.03-1.32,12.84-1.87.77-4.96,1.41-9.01,2.16-13.82,4.83.48,8.8.88,13.53,1.36,0,10.12,0,19.17,0,28.22-4.5,0-9.01,0-14.25,0-.29,5.55-.52,10.07-.75,14.58,0,0,.4-.43.4-.43-9.84-.01-19.69-.02-29.53-.04,0,0,.41.41.41.41Z"/>
      <path d="M160.16,480.74v14.41h-28.18c-.54,5.35-.95,9.43-1.43,14.21h-13.28v-41.88c3.87-.38,7.86-.78,12.68-1.26.76,4.9,1.4,9.01,2.32,14.94,9.23,0,18.77,0,28.3,0,0,0-.41-.42-.41-.42Z"/>
      <path d="M58.08,393.75c9.87,0,19.73,0,29.6,0,0,0-.43-.4-.43-.4v14.98s.4-.43.4-.43c-4.29.19-8.59.38-13.61.6-.64,4.26-1.27,8.38-2.02,13.36h-28.09c0-4.74,0-9.34,0-13.95,0,0-.4.43-.4.43,4.51-.23,9.02-.46,14.25-.73.27-5.21.5-9.73.73-14.25l-.43.4Z"/>
      <path d="M116.83,422.5h-29.18c0-5.52,0-10.06,0-14.6,0,0-.4.43-.4.43h29.15v14.58l.43-.4Z"/>
      <path d="M204.29,495.38h-14.6c0-5.59,0-10.1,0-14.6,0,0-.4.43-.4.43,5-.13,10-.27,15-.4-.14,4.99-.29,9.98-.43,14.98l.43-.4Z"/>
      <path class="cls-1" d="M437.05,276.74v28.37c5.03.65,9.12,1.17,14.14,1.82.41,4.2.81,8.32,1.33,13.66,3.35,0,7.3,1.15,8.65-.23,3.12-3.21,4.98-7.65,8.43-13.36h25.82v27.91h28.22c.45,4.99.81,9.04,1.35,15.15-20.24,0-39.49,0-58.73,0,0-4.63,0-9.25,0-14.78-5.59.31-9.64.53-14.52.8.39,5.12.7,9.17,1.03,13.57h13.91c-.15,4.99-.3,9.98-.45,14.97,0,0,.4-.43.4-.43-9.85.14-19.7.29-29.55.43,0-4.64,0-9.28,0-13.8-5.6-.83-9.7-1.44-13.82-2.05v-12.38c4.89-.93,9.35-1.78,14.12-2.69-.22-4.53-.4-8.22-.64-13.21h-56.84v-14.81h28.01c0-5.71,0-10.04,0-14.37,4.51,0,9.01,0,14.6,0v-14.6c4.99.14,9.98.29,14.98.43l-.43-.4Z"/>
      <path class="cls-1" d="M509.96,203.84v28.19c-4.45.68-8.52,1.3-13.48,2.06v28.07h13.88v28.3h-28.82v-27.17h-29.01c-.31,4.59-.62,9.21-.92,13.82l.41-.41c-4.99.01-9.98.03-14.96.04,0,0,.43.4.43.4v-28.38c5.48-.79,9.58-1.38,14.46-2.08-.38-4.82-.7-8.82-1.06-13.25-10.18,0-19.28,0-28.38,0,0-5-.02-10-.03-15,4.54,0,9.08,0,15,0v-29.16l-.4.43c4.99-.15,9.98-.3,14.97-.45,0,9.52,0,19.03,0,29.48,5.61-.41,9.64-.71,14.18-1.04v-28.44c4.99.14,9.98.29,14.98.43l-.41-.41v29.36c5.9-.33,9.96-.55,13.85-.77.79-5.1,1.42-9.2,2.1-13.61h13.61l-.4-.43ZM467.03,250.25c6.19-2.89,10.79-3.91,13.5-6.75,1.53-1.6-.04-6.18-.27-10.29-5.07.32-9.15.58-13.23.84v16.19Z"/>
      <path class="cls-1" d="M451.6,277.12h13.91c.33,4.41.64,8.46,1.03,13.57-4.88.27-8.92.49-14.52.8,0-5.53,0-10.16,0-14.78,0,0-.42.41-.42.41Z"/>
      <path d="M437.08,364.62c9.85-.14,19.7-.29,29.55-.43v43.56h57.3v14.68h-41.94c-.37,4.97-.66,8.98-1.03,14.01,8.64.64,18.57.12,13.61,14.1-3.69.7-8.14,1.55-13.49,2.56v42.26c-5.6,0-10.22,0-14.84,0,0,0,.4.43.4.43-.31-4.65-.63-9.31-1-14.79-5.05.33-9.11.59-13.98.9v13.89l.41-.41h-13.79c-.81-5.57-1.4-9.66-2.11-14.52-4.87.43-8.86.79-13.66,1.22v42.86s.43-.4.43-.4c-14.73,0-29.45,0-44.18,0,0,0,.43.4.43.4v-14.98l-.41.41h28.5v-28.51c-4.98-.75-9.1-1.37-13.92-2.1v-13.55h13.87v-42.91h-12.51c-.95,4.9-1.81,9.35-2.51,12.96-14.25,5.06-13.24-5.29-14.07-12.6-5.06-.81-9.16-1.47-13.11-2.1v-12.18c4.94-1.01,9.38-1.92,14.57-2.99v-26.46c5.11-.77,9.25-1.4,13.73-2.07,0-5.03,0-9.34,0-13.64,5,.13,10,.27,15,.4l-.41-.41c.31,4.65.63,9.3.93,13.86,5.07.75,9.17,1.36,13.3,1.97v12.38c-4.88.92-9.34,1.77-14.11,2.67.21,4.52.39,8.21.58,12.22h42.4v-27.43c-4.96-.76-9.09-1.39-13.54-2.06v-13.61l-.4.43ZM465.61,465.74v-42.1h-41.84v42.1h41.84Z"/>
      <path d="M481.21,524.93c-14.72-.13-29.44-.27-44.16-.4,0,0,.43.4.43.4v-13.77c5.61-.84,9.72-1.46,14.58-2.18v-13.6l-.41.41c4.99,0,9.99,0,14.98,0,0,0-.4-.43-.4-.43v13.61c4.85.73,8.96,1.35,14.04,2.12.31,4.53.62,9.19.94,13.85Z"/>
      <path d="M496.12,510.55v-43.2h13.28v41.68c-3.71.42-7.75.89-13.28,1.52Z"/>
      <path d="M452.05,189.26c-4.99.15-9.98.3-14.97.45,0-19.35,0-38.7,0-58.11-6.01-.28-10.28-.48-14.56-.68l.41.41c0-4.98-.02-9.96-.03-14.93,0,0-.43.4-.43.4,14.03,0,28.05,0,42.99,0v13.78c-4.13.37-8.25.73-13.54,1.2,0,3.47-1.16,7.48.23,8.79,3.28,3.11,7.77,4.93,14.05,8.61,0,6.79,0,16.35,0,25.92,0,0,.43-.4.43-.4-4.51.23-9.02.46-14.25.73-.27,5.23-.5,9.74-.73,14.25l.4-.43Z"/>
      <path d="M510.36,204.27h-13.61c-.68,4.41-1.31,8.5-2.1,13.61-3.89.22-7.95.44-13.85.77v-29.36h13.62c.68-4.47,1.31-8.6,2.22-14.58h28.29v13.6c-4.86.73-8.97,1.34-14.58,2.18v13.77Z"/>
      <path d="M481.21,189.69c-4.99-.14-9.98-.29-14.98-.43l.4.43c0-4.99,0-9.99,0-14.98,0,0-.43.4-.43.4,4.52,0,9.04,0,14.25,0,.29,5.55.52,10.07.75,14.58Z"/>
      <path class="cls-1" d="M15.21,86.41V15.36h71.07v71.05H15.21ZM30.35,29.71v42.36h41.58V29.71H30.35Z"/>
      <path class="cls-1" d="M14.85,523.82v-70.79h71.56v70.79H14.85ZM30.35,466.99v42.36h41.58v-42.36H30.35Z"/>
      <path class="cls-1" d="M452.53,86.64V15.64h71.26v71h-71.26ZM467.46,29.8v41.93h41.92V29.8h-41.92Z"/>
      <path class="cls-1" d="M58.51,393.35c-.23,4.52-.46,9.04-.73,14.25-5.23.27-9.74.5-14.25.73.23-4.52.46-9.04.73-14.25,5.23-.27,9.74-.5,14.25-.73Z"/>
      <path class="cls-1" d="M43.95,335.05h-13.93c-.29-4.47-.55-8.54-.92-14.18,5.57,0,10.21,0,14.85,0,0,0-.43-.4-.43-.4v14.98l.43-.4Z"/>
      <path class="cls-1" d="M422.52,130.92c4.28.2,8.55.4,14.56.68,0,19.41,0,38.76,0,58.11,0,0,.4-.43.4-.43h-29.16v15h-15.29v29.15c-10.6,0-19.72,0-28.84,0,0-5-.02-9.99-.02-14.99,4.64,0,9.28,0,14.85,0-.36-5.65-.63-9.71-.92-14.18h-13.93c0-4.99,0-9.98,0-14.97,9.52,0,19.03,0,29.48,0-.41-5.6-.71-9.63-1.04-14.18h-28.44v-58.3h-14.58c.15-4.99.3-9.98.45-14.97l-.43.4c4.65-.31,9.31-.63,14.79-1-.33-5.05-.59-9.11-.9-13.98h-13.89l.43.4c-.14-9.85-.28-19.7-.43-29.55h28.24c.71,4.9,1.29,8.97,2.03,14.03,4.55.33,9.2.66,13.84,1,0,0-.41-.41-.41-.41.16,4.97.32,9.94.48,14.9-4.61,0-9.23,0-13.92,0v29.15c5-.44,9.02-.79,13.51-1.18v-28.38c4.33.2,8.66.41,14.35.67v28.52h15.18c0,4.98.02,9.96.03,14.93-14.38,0-28.75,0-43.38,0v28.22h13.48c.39-4.64.73-8.74,1.19-14.15h28.31v-14.48ZM425.16,174.31c-2.89-6.19-3.91-10.79-6.75-13.5-1.6-1.53-6.18.04-10.29.27.32,5.07.58,9.15.84,13.23h16.19Z"/>
      <path class="cls-1" d="M393.72,73.13v-13.91c4.4-.33,8.45-.64,13.57-1.03.27,4.89.49,8.93.8,14.52-5.53,0-10.16,0-14.78,0,0,0,.41.42.41.42Z"/>
      <path class="cls-1" d="M204.29,466.63v-28.22c-4.73-.47-8.7-.87-13.53-1.36-.75,4.81-1.38,8.86-2.16,13.82-3.8.55-7.87,1.15-12.84,1.87-.51,3.93-1.04,8.01-1.69,13.03-4.7.29-9.32.58-13.95.86.15-9.84.3-19.69.46-29.53l-.41.41h14.96v-29.59l-.43.4c4.51-.23,9.03-.47,14.58-.75v-14.25c19.57.14,39.14.28,58.71.43l-.41-.41v28.38c-5.48.79-9.58,1.38-14.46,2.08.39,4.83.7,8.82,1.06,13.25,10.18,0,19.28,0,28.37,0-.31,4.66-.62,9.32-.92,13.87-5.08.76-9.19,1.37-14.05,2.1v13.61l.4-.43c-4.3.19-8.6.38-13.68.61-.64,4.27-1.25,8.38-2.09,13.96-4.5,0-9.14,0-13.77,0,0,0,.4.43.4.43-.23-4.51-.46-9.02-.73-14.25-5.23-.27-9.74-.5-14.25-.73l.43.4Z"/>
      <path class="cls-1" d="M291.74,524.53h-13.62c-.68-4.4-1.32-8.5-2.09-13.44-3.89-.55-8-1.13-13.44-1.9v-28.39l-.43.4c4.63-.29,9.27-.58,15.19-.95v-28.2h14.37l-.41-.41c.27,4.55.53,9.1.88,14.98h28.68l-.43-.4c0,4.99.01,9.98.02,14.98l.41-.41h-29.56v44.13l.43-.4Z"/>
      <path class="cls-1" d="M262.59,480.81h-14.6c0-5.59,0-10.1,0-14.6,0,0-.4.43-.4.43h14.58v14.58l.43-.4Z"/>
      <path class="cls-1" d="M203.86,495.78c.14-4.99.29-9.98.43-14.98l-.43.4c4.99,0,9.99,0,14.98,0,0,0-.4-.43-.4-.43,0,4.5,0,9.01,0,14.25-5.55.29-10.07.52-14.58.75Z"/>
      <path class="cls-1" d="M247.19,495.56v13.86h-13.37v-12.98c4.06-.27,8.13-.54,13.37-.88Z"/>
      <path d="M291.31,524.94v-44.13h29.56c-.15,4.98-.3,9.97-.46,14.95l.41-.41c-4.33.2-8.66.4-14.34.66v27.98c-5.91.37-10.54.66-15.17.95Z"/>
      <path d="M364.59,510.38v-13.61c-4.84-.73-8.95-1.35-14.55-2.2,0-4.49,0-9.13,0-13.76,0,0-.43.4-.43.4,4.65-.31,9.31-.63,13.85-.94.76-5.08,1.37-9.19,2.01-13.46,5.09-.23,9.39-.42,13.69-.61-.13,14.72-.27,29.44-.4,44.16,0,0,.41-.41.41-.41-4.99,0-9.99,0-14.98,0l.4.43Z"/>
      <path d="M320.47,481.21c0-4.99-.01-9.98-.02-14.98,9.65,0,19.3,0,29.17,0v14.98s.43-.4.43-.4c-9.86.13-19.72.27-29.58.4Z"/>
      <path d="M320.42,495.75h13.91c.33,4.4.64,8.45,1.03,13.57-4.89.27-8.93.49-14.52.8,0-5.53,0-10.16,0-14.78,0,0-.42.41-.42.41Z"/>
      <path d="M276.74,29.36c.23-4.51.46-9.02.73-14.25,5.23-.27,9.74-.5,14.25-.73-.23,4.51-.46,9.02-.73,14.25-5.23.27-9.74.5-14.25.73Z"/>
      <path d="M350.03,14.37v14.98h-13.89c-.31-4.87-.58-8.93-.9-13.98,5.48-.37,10.14-.68,14.79-1Z"/>
      <path class="cls-1" d="M218.84,58.51c-4.99,0-9.99,0-14.98,0,0-9.85,0-19.71,0-29.56h14.98v29.56Z"/>
      <path class="cls-1" d="M247.99,28.93h-13.92c-.28-4.45-.54-8.51-.9-14.15,5.56,0,10.2,0,14.84,0,0,0-.43-.4-.43-.4,0,4.99,0,9.99,0,14.98l.4-.43Z"/>
      <path class="cls-1" d="M262.17,28.93v14.25c-5.55.29-10.07.52-14.58.75.13-5,.27-10,.4-15,0,0-.4.43-.4.43,4.99,0,9.99,0,14.98,0l-.4-.43Z"/>
      <path d="M262.57,29.36c-4.99,0-9.99,0-14.98,0,0-4.99,0-9.99,0-14.98,4.52.23,9.04.46,14.25.73.27,5.23.5,9.74.73,14.25Z"/>
      <path class="cls-1" d="M364.19,509.95c4.99,0,9.99,0,14.98,0v14.98c-4.51-.23-9.02-.46-14.25-.73-.27-5.23-.5-9.74-.73-14.25Z"/>
      <path class="cls-1" d="M452.06,495.38v13.6c-4.86.73-8.97,1.34-14.58,2.18v13.77c-4.99,0-9.99,0-14.98,0v-42.86c4.8-.43,8.78-.78,13.66-1.22.71,4.86,1.3,8.95,2.11,14.52h13.79Z"/>
      <path d="M43.52,335.45v-14.98h13.89c.31,4.87.58,8.94.9,13.98-5.48.37-10.14.68-14.79,1Z"/>
      <path d="M102.28,335.07h-13.91c-.33-4.41-.64-8.46-1.03-13.57,4.89-.27,8.93-.49,14.52-.8,0,5.53,0,10.16,0,14.78,0,0,.42-.41.42-.41Z"/>
      <path d="M101.86,349.57v13.91c-4.4.33-8.46.64-13.57,1.03-.27-4.88-.49-8.92-.8-14.52,5.53,0,10.16,0,14.78,0,0,0-.41-.42-.41-.42Z"/>
      <path d="M248.02,262.56v-28.17c-4.95-.75-9.03-1.37-15-2.27v-28.27c14.71.14,29.42.29,44.13.43,0,0-.4-.43-.4-.43v13.76c-5.62.85-9.72,1.48-13.8,2.09v12.92c4.56.38,8.67.72,13.48,1.11.4,4.82.73,8.92,1.08,13.15h14.43v-28.05h14.37l-.41-.41v43.03h29.16v-13.9c4.63.31,9.27.61,13.93.92.65,5.05,1.17,9.11,1.84,14.37h27.95v14.29l.41-.41h-44.32v29.15h-14.39l.41.41v-28.53h-43.08c-.74,4.96-1.36,9.09-2,13.37-5.02.22-9.32.41-13.62.6,0-9.65,0-19.29,0-29.58h-14.58l.43.4Z"/>
      <path d="M364.17,189.29c0,4.99,0,9.98,0,14.97l.43-.4h-43.71c0,6.47,0,10.72,0,14.98-5-.13-10-.27-15-.4l.41.41c-.27-4.55-.53-9.1-.88-14.98h-28.68s.4.43.4.43c0-4.34,0-8.69,0-14.44h42.64v-28.08c-3.71-.76-8.13-1.66-13.2-2.69-.36-4.23-.71-8.32-1.13-13.29h-28.32c0-5.58,0-10.21,0-14.83,0,0-.4.43-.4.43h28.29c.91-5.97,1.54-10.1,2.22-14.58h13.62l-.41-.41v29.27c5.83-.27,9.87-.45,13.88-.63.72-5.05,1.3-9.13,1.84-12.96,4.97-.77,9.06-1.41,13.83-2.15v-13.53s-.43.4-.43.4c4.27,0,8.55,0,14.58,0v58.3l.43-.4h-29.49c.44,6,.74,10.03,1.1,14.98h28.39l-.43-.4Z"/>
      <path d="M277.55,174.93v-13.86h13.37v12.98c-4.06.27-8.14.54-13.37.88Z"/>
      <path d="M233.42,204.27c-4.51-.23-9.02-.46-14.25-.73-.27-5.23-.5-9.74-.73-14.25,4.52.23,9.04.46,14.25.73.27,5.23.5,9.74.73,14.25Z"/>
      <path d="M87.66,233.42c-9.85,0-19.71,0-29.56,0,0-4.22,0-8.44,0-14.98h29.56c0,4.99,0,9.99,0,14.98Z"/>
      <path d="M87.25,174.71h14.98v13.89c-4.87.31-8.93.58-13.98.9-.37-5.48-.68-10.14-1-14.79Z"/>
      <path d="M101.83,262.57v-13.66c-4.45-.67-8.56-1.28-13.64-2.04-.31-4.54-.62-9.2-.94-13.85h28.25c.7,4.91,1.29,8.97,2.01,14.05,4.57.31,9.22.64,13.87.96,0,0-.4-.43-.4-.43,0,4.99,0,9.99,0,14.98l.4-.43c-9.85.14-19.7.28-29.55.43Z"/>
      <path d="M175.11,247.59v14.56h-29.55l.4.43c0-4.99,0-9.99,0-14.98l-.4.43c9.85-.14,19.7-.28,29.55-.43Z"/>
      <path d="M131.38,248.01v-13.93c4.47-.29,8.54-.55,14.18-.92,0,5.57,0,10.21,0,14.85,0,0,.4-.43.4-.43-4.99,0-9.99,0-14.98,0l.4.43Z"/>
      <path d="M145.55,276.74c14.71.14,29.42.28,44.13.43l-.4-.43v14.98l.41-.41c-14.71,0-29.42,0-44.14,0,0,0,.4.43.4.43-.13-5-.27-10-.4-15Z"/>
      <path d="M72.68,277.15v-14.98h29.56v14.98h-29.56Z"/>
      <path d="M145.56,262.14c.13,5,.27,10,.4,15-4.51-.23-9.03-.47-14.58-.75,0-5.24,0-9.75,0-14.25,0,0-.4.43-.4.43,4.99,0,9.99,0,14.98,0,0,0-.4-.43-.4-.43Z"/>
      <path d="M189.68,277.17v-14.38h28.75v-15.2h13.61c.73,4.87,1.34,8.98,2.1,14.05,4.56.3,9.22.61,13.87.92,0,0-.43-.4-.43-.4.14,9.85.29,19.7.43,29.55-4.64-.29-9.27-.58-13.94-.87-.68-5.03-1.23-9.11-1.88-13.95-4.88.36-8.87.66-14.23,1.06v28.35h-28.71c.14-4.99.29-9.98.43-14.97,0,0-.41.41-.41.41,4.65-.31,9.31-.63,14.79-1-.33-5.05-.59-9.11-.9-13.98h-13.89l.4.43Z"/>
      <path class="cls-1" d="M320.87,116.81h-13.62c-.68,4.47-1.31,8.6-2.22,14.58h-28.29v-13.66c-4.45-.67-8.56-1.28-14.15-2.12v-13.77l-.43.4c4.51-.23,9.02-.46,14.25-.73.27-5.23.5-9.74.73-14.25l-.4.43h13.57c.67,4.33,1.3,8.4,2.1,13.53,3.8.25,7.83.51,12.69.83.63-4.83,1.17-8.91,1.81-13.76h13.96v28.52Z"/>
      <path class="cls-1" d="M262.59,101.83h-15v-29.16h13.62c.68-4.41,1.31-8.51,2.1-13.61,3.9-.21,7.96-.44,13.45-.74,0,10.37,0,19.86,0,29.35,0,0,.4-.43.4-.43-4.51.23-9.02.46-14.25.73-.27,5.21-.5,9.73-.73,14.25l.43-.4Z"/>
      <path class="cls-1" d="M350.03,116.4v13.53c-4.78.74-8.86,1.38-13.83,2.15-.55,3.83-1.13,7.92-1.84,12.96-4.01.18-8.06.37-13.88.63v-29.27c9.85,0,19.71,0,29.56,0Z"/>
      <path class="cls-1" d="M350.05,101.83h-13.93c-.29-4.47-.55-8.54-.92-14.18,5.57,0,10.21,0,14.85,0,0,0-.43-.4-.43-.4v14.98l.43-.4Z"/>
      <path class="cls-1" d="M306.12,72.27h-13.86v-13.37h12.98c.27,4.06.54,8.13.88,13.37Z"/>
      <path class="cls-1" d="M189.69,291.32c-.14,4.99-.29,9.98-.43,14.97,0,0,.43-.4.43-.4-4.65.31-9.31.63-13.85.94-.76,5.08-1.38,9.19-2.04,13.64h-13.66s.43.4.43.4c-.19-4.3-.38-8.6-.61-13.69-4.27-.64-8.38-1.25-13.46-2.01-.31-4.54-.62-9.2-.94-13.85,14.71,0,29.42,0,44.14,0Z"/>
      <path class="cls-1" d="M116.4,422.9v-14.58h-29.15v-14.98h42.9v28.7c-4.48.28-9.12.57-13.75.86Z"/>
      <path class="cls-1" d="M175.13,407.93h-29.15v-29.15l-.43.4h13.77c.84,5.61,1.46,9.72,2.18,14.58h13.6l-.43-.4c0,4.99.01,9.98.02,14.98l.43-.4Z"/>
      <path class="cls-1" d="M145.98,335.44v-14.58c5.57,0,10.07,0,14.58,0,0,0-.43-.4-.43-.4v14.58h-14.58l.43.4Z"/>
      <path class="cls-1" d="M145.96,349.6h-13.92c-.28-4.46-.54-8.52-.9-14.16,5.56,0,10.2,0,14.84,0,0,0-.43-.4-.43-.4,0,4.99,0,9.99,0,14.98l.4-.42Z"/>
      <path class="cls-1" d="M145.98,364.59c0-5-.02-9.99-.02-14.99,0,0-.4.42-.4.42h14.83c-.36,5.64-.63,9.7-.91,14.17h-13.92l.43.4Z"/>
      <path class="cls-1" d="M145.98,378.78h-13.93c-.29-4.47-.55-8.53-.92-14.18,5.57,0,10.21,0,14.85,0,0,0-.43-.4-.43-.4v14.98l.43-.4Z"/>
      <path class="cls-1" d="M160.59,437.1h-13.91c-.33-4.41-.64-8.46-1.03-13.57,4.89-.27,8.93-.49,14.52-.8,0,5.53,0,10.16,0,14.78,0,0,.42-.41.42-.41Z"/>
      <path class="cls-1" d="M204.29,480.81c-5,.13-10,.27-15,.4.23-4.51.47-9.03.75-14.58,5.24,0,9.75,0,14.25,0,0,0-.43-.4-.43-.4,0,4.99,0,9.99,0,14.98l.43-.4Z"/>
      <path d="M407.9,291.32v14.37h-28.01v14.81h56.84c.24,4.99.42,8.68.64,13.21-4.77.91-9.23,1.76-14.12,2.69v12.38c4.12.61,8.22,1.22,13.82,2.05,0,4.52,0,9.16,0,13.8,0,0,.4-.43.4-.43-9.85,0-19.71,0-29.56,0l.41.41v-28.45h-29.16v13.9h-13.8c-.8,5.58-1.38,9.64-1.97,13.78h-27.58c-.37-4.53-.71-8.65-1.11-13.46-4.82-.41-8.92-.76-13.27-1.13-.6-4.98-1.09-9.08-1.68-13.97-4.92.32-8.93.57-13.93.89v28.41l.41-.41c-4.97,0-9.94,0-14.91-.01l.41.41c-.31-4.62-.62-9.24-.94-13.9-5-.66-9.08-1.19-13.91-1.83.33-4.87.6-8.9.86-12.7,5.13-.79,9.21-1.43,13.52-2.09,0-5.03,0-9.3,0-13.57,4.51,0,9.01,0,14.6,0v-14.6c4.99.14,9.98.29,14.98.43l-.41-.41c.28,4.61.56,9.23.84,13.86h29.02v-28.75h28.85v-14.26l-.41.41c4.99-.14,9.98-.29,14.98-.43,0,4.5,0,9.01,0,14.25,5.55.29,10.07.52,14.58.75l-.43-.4Z"/>
      <path d="M422.5,233.44h28.37c.35,4.43.67,8.43,1.06,13.25-4.88.7-8.98,1.29-14.46,2.08v28.38c-4.99-.14-9.98-.29-14.98-.43l.4.43c-.23-4.51-.47-9.03-.75-14.58h-14.25c.14-4.99.29-9.98.43-14.98l-.41.41c4.51-.23,9.02-.46,14.25-.73.27-5.23.5-9.74.73-14.25l-.4.43Z"/>
      <path d="M466.68,349.65h-13.91c-.33-4.4-.64-8.45-1.03-13.57,4.89-.27,8.93-.49,14.52-.8,0,5.53,0,10.16,0,14.78,0,0,.42-.41.42-.41Z"/>
      <path d="M422.5,276.72v14.6c-5.59,0-10.1,0-14.6,0,0,0,.43.4.43.4-.14-4.99-.29-9.98-.43-14.98,5,.13,10,.27,15,.4l-.4-.43Z"/>
      <path d="M364.2,233.43h28.84v-29.15h15.29l-.4-.43c.23,4.51.46,9.02.73,14.25,5.23.27,9.74.5,14.25.73l-.43-.4c0,5,.02,10,.03,15,0,0,.4-.43.4-.43-4.51.23-9.02.46-14.25.73-.27,5.23-.5,9.74-.73,14.25l.41-.41c-14.5,0-29,0-43.73,0v-14.58l-.4.42Z"/>
      <path d="M408.32,204.29v-15h29.16v29.16c-5.92,0-10.46,0-15,0,0,0,.43.4.43.4-.23-4.51-.46-9.02-.73-14.25-5.21-.27-9.73-.5-14.25-.73l.4.43Z"/>
      <path d="M466.23,189.26v28.44c-4.55.33-8.57.63-14.18,1.04,0-10.44,0-19.96,0-29.48,0,0-.4.43-.4.43,4.99,0,9.99,0,14.98,0l-.4-.43Z"/>
      <path d="M467.03,250.25v-16.19c4.09-.26,8.16-.52,13.23-.84.22,4.11,1.8,8.68.27,10.29-2.71,2.83-7.31,3.86-13.5,6.75Z"/>
      <path class="cls-1" d="M291.34,364.14c4.97,0,9.94,0,14.91.01,0,4.63,0,9.25,0,14.78,5.59-.31,9.64-.53,14.52-.8-.39-5.12-.7-9.17-1.03-13.57h-13.91v-28.41c5-.32,9.01-.58,13.93-.89.59,4.89,1.08,9,1.68,13.97,4.35.37,8.45.72,13.27,1.13.4,4.81.74,8.93,1.11,13.46h27.58c.59-4.13,1.17-8.2,1.97-13.78h13.8l-.4-.43c.23,4.51.46,9.02.73,14.25,5.23.27,9.74.5,14.25.73,0,0-.43-.4-.43-.4v13.64c-4.48.68-8.62,1.3-13.73,2.07v26.46c-5.2,1.07-9.63,1.98-14.57,2.99v12.18c3.94.63,8.05,1.29,13.11,2.1.83,7.31-.18,17.66,14.07,12.6.7-3.61,1.56-8.05,2.51-12.96h12.51v42.91c-4.64,0-9.25,0-13.87,0,0,0,.4.43.4.43-.31-4.65-.63-9.31-1-14.79-5.05.33-9.11.59-13.98.9v13.89s.4-.43.4-.43c-4.3.19-8.6.38-13.69.61-.64,4.27-1.25,8.38-2.01,13.46-4.55.31-9.2.62-13.85.94v-14.98c-9.87,0-19.52,0-29.17,0,0,0,.43.4.43.4-.15-4.98-.3-9.96-.44-14.94,4.66,0,9.32,0,13.74,0,.92-5.71,1.58-9.81,2.16-13.47,5.04-.89,9.08-1.6,13.96-2.45v-41.29c5.13-.72,9.26-1.31,14.2-2-.41-4.85-.74-8.88-1.07-12.82h-27.54c-.49,4.72-.91,8.83-1.35,13.07-4.96.64-9.06,1.16-14.02,1.8v26.91c-5.37,1.06-9.8,1.94-13.39,2.64-5.21,14.51,5.67,12.99,13.71,14.35v13.68c-9.84-.15-19.69-.3-29.53-.46l.41.41c0-9.64,0-19.29,0-29.16h-15c.32-4.65.64-9.29.95-13.86,5.05-.74,9.14-1.33,14-2.04-.44-4.87-.79-8.86-1.22-13.65h-42.86l.41.41c0-4.99.01-9.98.02-14.97,0,0-.43.4-.43.4,4.65-.29,9.3-.58,14.23-.88v-27.31c-4.87-.94-9.34-1.8-13-2.51-5.02-14.06,5.06-13.4,13.75-14.01v-43.15l-.4.43c4.3-.19,8.6-.38,13.62-.6.64-4.28,1.26-8.41,2-13.37h43.08v28.53c-4.99-.14-9.98-.29-14.98-.43l.4.43c-.31-4.65-.63-9.31-1-14.79-5.05.33-9.11.59-13.98.9v13.89l.41-.41c-4.65.31-9.31.63-14.79,1,.33,5.05.59,9.11.9,13.98h13.89l-.43-.4v13.57c-4.32.67-8.39,1.3-13.52,2.09-.26,3.8-.53,7.83-.86,12.7,4.83.63,8.91,1.17,13.91,1.83.31,4.66.63,9.28.94,13.9-4.63,0-9.25,0-14.78,0,.31,5.59.53,9.64.8,14.52,5.12-.39,9.17-.7,13.57-1.03v-13.91Z"/>
      <path class="cls-1" d="M465.61,465.74h-41.84v-42.1h41.84v42.1ZM451.24,438.02h-13.1v13.84c4.97-.33,9.05-.6,13.1-.87v-12.97Z"/>
      <path class="cls-1" d="M407.92,364.19c9.85,0,19.71,0,29.56,0v13.61c4.45.68,8.58,1.31,13.54,2.06v27.43h-42.4c-.19-4.01-.37-7.7-.58-12.22,4.77-.9,9.23-1.75,14.11-2.67v-12.38c-4.13-.61-8.23-1.22-13.3-1.97-.31-4.56-.62-9.21-.93-13.86Z"/>
      <path class="cls-1" d="M378.77,510.36c.13-14.72.27-29.44.4-44.16,0,0-.4.43-.4.43,4.99,0,9.99,0,14.98,0,0,0-.4-.43-.4-.43,0,4.3,0,8.59,0,13.55,4.82.73,8.94,1.35,13.92,2.1v28.51h-28.5Z"/>
      <path class="cls-1" d="M379.17,350.05v-13.9h29.16v28.45c-5-.13-10-.27-15-.4,0,0,.43.4.43.4-.23-4.51-.46-9.02-.73-14.25-5.23-.27-9.74-.5-14.25-.73l.4.43Z"/>
      <path class="cls-1" d="M466.63,495.78c-4.99,0-9.99,0-14.98,0v-13.89c4.87-.31,8.93-.58,13.98-.9.37,5.48.68,10.14,1,14.79Z"/>
      <path class="cls-1" d="M466.63,189.69c-4.99,0-9.99,0-14.98,0,.23-4.51.46-9.02.73-14.25,5.23-.27,9.74-.5,14.25-.73,0,4.99,0,9.99,0,14.98Z"/>
      <path d="M30.35,29.71h41.58v42.36H30.35V29.71Z"/>
      <path d="M30.35,466.99h41.58v42.36H30.35v-42.36Z"/>
      <path d="M467.46,29.8h41.92v41.93h-41.92V29.8Z"/>
      <path d="M422.52,130.92v14.48h-28.31c-.45,5.42-.8,9.52-1.19,14.15h-13.48v-28.22c14.63,0,29.01,0,43.38,0,0,0-.41-.42-.41-.42Z"/>
      <path d="M393.38,87.21v28.38c-4.49.39-8.52.74-13.51,1.18v-29.15c4.7,0,9.31,0,13.92,0,0,0-.41-.41-.41-.41Z"/>
      <path d="M364.17,175.11h28.44c.33,4.55.63,8.58,1.04,14.18-10.44,0-19.96,0-29.48,0,0,0,.43.4.43.4v-14.98l-.43.4Z"/>
      <path d="M349.62,102.23v-14.98h13.89c.31,4.87.58,8.93.9,13.98-5.48.37-10.14.68-14.79,1Z"/>
      <path d="M364.17,218.44c0,5,.02,9.99.02,14.99,0,0,.4-.42.4-.42h-14.83c.36-5.64.63-9.7.91-14.17h13.92l-.43-.4Z"/>
      <path d="M364.17,204.26h13.93c.29,4.47.55,8.53.92,14.18-5.57,0-10.21,0-14.85,0,0,0,.43.4.43.4,0-4.99,0-9.99,0-14.98l-.43.4Z"/>
      <path d="M425.16,174.31h-16.19c-.26-4.09-.52-8.16-.84-13.23,4.11-.22,8.68-1.8,10.29-.27,2.83,2.71,3.86,7.31,6.75,13.5Z"/>
      <path d="M247.59,393.35h42.86c.43,4.79.79,8.78,1.22,13.65-4.86.71-8.95,1.3-14,2.04-.31,4.57-.63,9.21-.95,13.86l.43-.4c-4.51.23-9.02.46-14.25.73-.27,5.23-.5,9.74-.73,14.25,0,0,.4-.43.4-.43h-28.37c-.35-4.43-.67-8.42-1.06-13.25,4.88-.7,8.98-1.29,14.46-2.08v-28.38Z"/>
      <path d="M276.72,422.9h15c0,9.87,0,19.51,0,29.16h-14.37v28.2c-5.92.37-10.56.66-15.19.95v-14.58h-14.58v-13.61c4.87-.73,8.98-1.34,14.05-2.1.3-4.56.61-9.22.92-13.87,0,0-.4.43-.4.43,4.51-.23,9.02-.46,14.25-.73.27-5.21.5-9.73.73-14.25l-.43.4Z"/>
      <path d="M248.01,378.78l-.02,14.97c-19.57-.14-39.14-.28-58.71-.43,0,0,.4.43.4.43v-14.98h58.32Z"/>
      <path d="M174.71,408.33c0-4.99-.01-9.98-.02-14.98,5,.13,10,.27,15,.4,0,0-.4-.43-.4-.43,0,4.5,0,9.01,0,14.25-5.55.29-10.07.52-14.58.75Z"/>
      <path d="M203.86,481.21c0-4.99,0-9.99,0-14.98,4.51.23,9.02.46,14.25.73.27,5.23.5,9.74.73,14.25-4.99,0-9.99,0-14.98,0Z"/>
      <path d="M320.43,451.69l.44,14.94h-28.68c-.34-5.88-.61-10.43-.88-14.98,9.84.15,19.69.3,29.53.46l-.41-.41Z"/>
      <path class="cls-1" d="M364.6,203.86c0,4.99,0,9.99,0,14.98h-13.92c-.29,4.47-.55,8.53-.91,14.17h14.83v14.58c14.73,0,29.23,0,43.73,0-.14,4.99-.29,9.98-.43,14.98,0,0,.43-.4.43-.4-4.51.23-9.02.46-14.25.73-.27,5.21-.5,9.73-.73,14.25l.4-.43c-4.99.14-9.98.29-14.98.43v-14.29h-27.95c-.67-5.26-1.19-9.32-1.84-14.37-4.67-.31-9.3-.61-13.93-.92,0,0,.4.43.4.43v-29.56h-14.98l.43.4v-14.98h43.71Z"/>
      <path class="cls-1" d="M379.18,276.74v14.26h-28.85v28.75h-29.02c-.28-4.63-.56-9.24-.84-13.86h14.39v-29.15h44.32Z"/>
      <path class="cls-1" d="M276.74,203.86h28.68c.34,5.88.61,10.43.88,14.98h-14.37v28.05h-14.43c-.35-4.22-.68-8.32-1.08-13.15-4.8-.4-8.91-.74-13.48-1.11v-12.92c4.08-.62,8.18-1.24,13.8-2.09v-13.76Z"/>
      <path class="cls-1" d="M305.89,218.43c5,.13,10,.27,15,.4,0,0-.43-.4-.43-.4v29.56h14.98s-.4-.43-.4-.43c0,4.34,0,8.67,0,13.9h-29.16v-43.03Z"/>
      <path class="cls-1" d="M248.02,291.71l-.43-29.55h14.58c0,10.29,0,19.93,0,29.58,0,0,.4-.43.4-.43-4.99,0-9.99,0-14.98,0l.43.4Z"/>
      <path class="cls-1" d="M364.6,174.71v14.98h-28.39c-.36-4.95-.66-8.98-1.1-14.98h29.49Z"/>
      <path class="cls-1" d="M145.96,262.57c-4.99,0-9.99,0-14.98,0,0-4.99,0-9.99,0-14.98,4.99,0,9.99,0,14.98,0,0,4.99,0,9.99,0,14.98Z"/>
      <path class="cls-1" d="M189.28,276.74h13.89c.31,4.87.58,8.94.9,13.98-5.48.37-10.14.68-14.79,1v-14.98Z"/>
      <path class="cls-1" d="M189.69,393.75c-5-.13-10-.27-15-.4,0,0,.43.4.43.4v-28.35c5.64-.89,9.76-1.53,13.76-2.16v-12.91c-4.57-.35-8.71-.66-13.11-.99v-13.23c4.87-.66,8.95-1.21,13.92-1.88v-28.33s-.43.4-.43.4c9.09,0,18.17,0,28.71,0v-28.35c5.36-.4,9.35-.69,14.23-1.06.65,4.85,1.2,8.92,1.88,13.95,4.66.29,9.3.58,13.94.87,0,0-.43-.4-.43-.4v28.52c-5.45.65-9.51,1.14-13.53,1.63v42.14c4.97.73,9.1,1.34,13.53,1.99v13.59s.43-.4.43-.4c-18.99,0-37.98,0-58.32,0v14.98ZM217.78,334.51v-13.84c-4.96.32-9.04.59-13.97.91.5,5.21.88,9.29,1.23,12.93h12.74ZM204.04,350.43c.34,5.23.61,9.3.88,13.37h12.98v-13.37h-13.86Z"/>
      <path d="M262.16,102.23c.23-4.52.46-9.04.73-14.25,5.23-.27,9.74-.5,14.25-.73-.23,4.51-.46,9.02-.73,14.25-5.23.27-9.74.5-14.25.73Z"/>
      <path d="M189.69,305.89v28.33c-4.97.67-9.05,1.22-13.92,1.88v13.23c4.39.33,8.53.64,13.11.99v12.91c-4,.63-8.12,1.28-13.76,2.16v28.35h-13.6c-.73-4.86-1.34-8.97-2.18-14.58h-13.77v-14.98h13.92c.29-4.47.55-8.53.91-14.17h-14.83c0-4.99,0-9.99,0-14.98h14.58v-14.58h13.66c.67-4.45,1.28-8.56,2.04-13.64,4.54-.31,9.2-.62,13.85-.94Z"/>
      <path class="cls-1" d="M407.9,276.74c.14,4.99.29,9.98.43,14.98-4.51-.23-9.03-.47-14.58-.75,0-5.24,0-9.75,0-14.25,0,0-.4.43-.4.43,4.99,0,9.99,0,14.98,0l-.43-.4Z"/>
      <path class="cls-1" d="M305.9,305.87v14.6c-5.59,0-10.1,0-14.6,0,0,0,.43.4.43.4v-14.98l-.41.41h14.98l-.4-.43Z"/>
      <path class="cls-1" d="M407.92,247.99c.23-4.51.46-9.02.73-14.25,5.23-.27,9.74-.5,14.25-.73-.23,4.51-.46,9.02-.73,14.25-5.23.27-9.74.5-14.25.73Z"/>
      <path class="cls-1" d="M422.9,277.15c-5-.13-10-.27-15-.4,0,0,.43.4.43.4,0-4.99,0-9.99,0-14.98,0,0-.43.4-.43.4,4.5,0,9.01,0,14.25,0,.29,5.55.52,10.07.75,14.58Z"/>
      <path class="cls-1" d="M407.92,203.86c4.52.23,9.04.46,14.25.73.27,5.23.5,9.74.73,14.25-4.51-.23-9.02-.46-14.25-.73-.27-5.23-.5-9.74-.73-14.25Z"/>
      <path d="M320.84,452.11v-13.68c-8.04-1.36-18.92.16-13.71-14.35,3.59-.71,8.02-1.58,13.39-2.64v-26.91c4.96-.64,9.05-1.16,14.02-1.8.44-4.24.86-8.36,1.35-13.07h27.54c.33,3.94.67,7.97,1.07,12.82-4.94.7-9.07,1.28-14.2,2v41.29c-4.88.86-8.92,1.57-13.96,2.45-.59,3.66-1.25,7.76-2.16,13.47-4.43,0-9.08,0-13.74,0,0,0,.41.42.41.42Z"/>
      <path d="M247.59,379.18v-13.59c-4.43-.65-8.56-1.26-13.53-1.99v-42.14c4.02-.48,8.08-.97,13.53-1.63v-28.52c4.99,0,9.99,0,14.98,0v43.15c-8.69.61-18.78-.05-13.75,14.01,3.66.71,8.12,1.57,13,2.51v27.31c-4.93.3-9.58.59-14.23.88Z"/>
      <path d="M378.77,349.62c4.51.23,9.02.46,14.25.73.27,5.23.5,9.74.73,14.25-4.51-.23-9.02-.46-14.25-.73-.27-5.23-.5-9.74-.73-14.25Z"/>
      <path d="M291.34,364.14v13.91c-4.4.33-8.45.64-13.57,1.03-.27-4.89-.49-8.93-.8-14.52,5.53,0,10.16,0,14.78,0,0,0-.41-.42-.41-.42Z"/>
      <path d="M305.84,364.57h13.91c.33,4.4.64,8.45,1.03,13.57-4.89.27-8.93.49-14.52.8,0-5.53,0-10.16,0-14.78,0,0-.42.41-.42.41Z"/>
      <path d="M306.3,306.3h-14.98v-13.89c4.87-.31,8.93-.58,13.98-.9.37,5.48.68,10.14,1,14.79Z"/>
      <path d="M393.75,466.63c-4.99,0-9.99,0-14.98,0v-13.89c4.87-.31,8.94-.58,13.98-.9.37,5.48.68,10.14,1,14.79Z"/>
      <path d="M291.72,305.89v14.98h-13.89c-.31-4.87-.58-8.93-.9-13.98,5.48-.37,10.14-.68,14.79-1Z"/>
      <path d="M451.24,438.02v12.97c-4.05.27-8.13.54-13.1.87v-13.84h13.1Z"/>
      <path class="cls-1" d="M277.15,422.5c-.23,4.52-.46,9.04-.73,14.25-5.23.27-9.74.5-14.25.73.23-4.51.46-9.02.73-14.25,5.23-.27,9.74-.5,14.25-.73Z"/>
      <path d="M335.45,247.99h-14.98v-29.56h14.98v29.56Z"/>
      <path d="M408.33,262.16c0,4.99,0,9.99,0,14.98-4.99,0-9.99,0-14.98,0,.23-4.52.46-9.04.73-14.25,5.23-.27,9.74-.5,14.25-.73Z"/>
      <path d="M217.78,334.51h-12.74c-.35-3.64-.73-7.72-1.23-12.93,4.93-.32,9-.58,13.97-.91v13.84Z"/>
      <path d="M204.04,350.43h13.86v13.37h-12.98c-.27-4.06-.54-8.14-.88-13.37Z"/>
    </g>
  </g>
</svg>