<?xml version="1.0" encoding="UTF-8"?><svg id="_Слой_2" xmlns="http://www.w3.org/2000/svg" width="160.18" height="200" viewBox="0 0 160.18 200"><g id="_Слой_1-2"><path d="m9.85,54.27c1.8-.78,3.5-1.74,5.2-2.79-.13-.27-.23-.49-.33-.7-1.97-4.04-2.71-8.3-2.33-12.78.41-4.8,1.96-9.24,4.12-13.51C21.9,13.77,30.31,6.25,41.1,1.25c.86-.4,1.78-.66,2.67-1,.16-.06.3-.17.45-.25.55,0,1.09,0,1.64,0,.05.07.08.18.15.22.58.33.84.86.84,1.5,0,.76-.01,1.54-.16,2.28-.58,2.92-.15,5.75.57,8.58.72,2.83,1.69,5.58,2.81,8.28,1.17,2.83,2.11,5.73,2.84,8.69.05.21.12.41.19.66,1.02.1,2.02.3,3.02.27,2.51-.07,4.86.55,7.14,1.53.29.13.58.25,1.06.45-.69-1.54-1.51-2.8-2.47-4.18.76.16,1.37.25,1.97.41,3.96,1.07,6.58,3.51,7.63,7.52.12.45.33.75.74,1,3.18,1.97,6.21,4.16,8.91,6.78.78.76,1.52,1.56,2.33,2.39.21-.15.42-.29.63-.45,3.71-2.75,7.82-4.51,12.41-5.14,3.43-.47,6.86-.98,10.29-1.43,3.76-.49,7.37-1.45,10.72-3.3.78-.43,1.62-.79,2.47-1.08,1.68-.58,2.48-.04,2.45,1.75-.02,1.33-.19,2.67-.4,3.98-.77,4.88-1.84,9.69-3.24,14.43-2.61,8.77-6.97,16.55-13.09,23.35-2.18,2.42-4.6,4.59-7.42,6.25-3.11,1.84-6.44,2.78-10.08,2.43-.19-.02-.37,0-.61,0-.14.38-.28.76-.42,1.14-.12-.09-.23-.18-.35-.27.07-.18.15-.35.21-.53,2.06-6.21,3.1-12.58,3.15-19.12.02-3.42-.27-6.81-1.1-10.13-1.29-5.16-3.87-9.59-7.6-13.35-2.78-2.8-5.93-5.14-9.28-7.22-.1-.06-.23-.07-.39-.12,0,.5,0,.93,0,1.37,0,.4-.03.8-.05,1.2-.22-2.63-.64-5.15-2.24-7.34-1.48-2.02-4.79-3.93-6.53-3.7.76,1.34,1.59,2.64,2.27,4.23-.66-.28-1.12-.5-1.6-.68-1.07-.41-2.12-.87-3.22-1.19-2.47-.72-4.95-.75-7.39.17-1.28.48-2.45,1.14-3.58,2.13,2.38.5,4.63,1.02,6.82,1.83-2.83.41-5.23,1.66-7.4,3.43-2.17,1.77-3.73,3.97-4.72,6.79,1.49-.77,2.78-1.48,4.11-2.11,1.3-.62,2.6-1.26,4.01-1.6-2.91,1.51-5.83,3.02-8.87,4.59,1.76-5.76,5.57-9.31,11.07-11.34-1.96-.45-3.92-.9-5.95-1.36.79-.81,1.65-1.44,2.59-1.93.92-.47,1.87-.87,2.97-1.38-2.16-.03-4.12-.11-6.08.12-2.26.27-4.46.75-6.58,1.57-2.77,1.06-5.32,2.51-7.76,4.18-3.84,2.63-7.31,5.71-10.59,8.99-2.97,2.98-6.23,5.55-9.91,7.58-.91.5-1.82.98-2.74,1.46-.23,0-.51.1-.55-.28Zm111.69-18.91c-.46-.33-.95-.19-1.4-.03-.74.27-1.47.59-2.19.92-1.29.58-2.55,1.25-3.86,1.78-2.81,1.12-5.79,1.51-8.76,1.93-3.07.44-6.15.87-9.22,1.3-4.37.61-8.25,2.37-11.79,4.96-.21.15-.38.34-.55.49.84,1.24,1.68,2.35,2.38,3.55.72,1.22,1.36,2.49,1.92,3.79.54,1.25.92,2.56,1.4,3.94.13-.25.21-.4.28-.54,1.94-3.97,4.9-6.89,8.84-8.89,2.85-1.45,5.8-2.66,8.82-3.69,2.71-.93,5.44-1.79,8.02-3.06,1.15-.57,1.62-.23,1.67,1.03.1,2.22-.15,4.41-.54,6.59-1.1,6.17-3.16,12.01-6.29,17.45-3.44,5.99-8.05,10.84-13.98,14.41-1.9,1.14-3.9,2.09-6.1,2.49-.55.1-1.12.13-1.71.19-.14.54-.27,1.04-.4,1.54-.11.35-.22.7-.35,1.11.34.07.57.15.81.17,1.9.12,3.75-.1,5.56-.67,3.24-1.03,5.97-2.89,8.45-5.15,2.79-2.55,5.19-5.44,7.36-8.53,2.27-3.22,4.25-6.6,5.79-10.23,1.77-4.17,3.16-8.48,4.15-12.9.68-3.02,1.23-6.08,1.79-9.13.21-1.15.26-2.32.35-3.49.03-.49-.02-.99-.46-1.33Zm-4.97,6.49c-.45.15-.75.21-1,.34-2.39,1.21-4.94,2.01-7.47,2.87-3.38,1.15-6.7,2.47-9.86,4.15-3.83,2.04-6.58,5.07-8.4,8.98-.18.39-.24.73-.14,1.17.51,2.35.78,4.73.86,7.14.17,5.46-.46,10.83-1.75,16.14-.07.28-.12.56-.19.91.42-.03.75-.04,1.07-.08,1.94-.29,3.73-1.03,5.43-1.97,5.31-2.93,9.6-6.98,13-11.97,3.78-5.55,6.22-11.67,7.65-18.2.56-2.56.93-5.15.95-7.78,0-.51-.09-1.02-.16-1.68ZM40.9,5.42c-.05,0-.14-.02-.2,0-.33.13-.66.26-.98.42-11.33,5.58-18.56,14.5-21.72,26.71-1.08,4.17-1.24,8.41-.31,12.65.26,1.19.59,2.37,1.19,3.58.84-.75,1.64-1.44,2.41-2.15,2.59-2.38,5.12-4.84,7.78-7.14,3.19-2.76,6.67-5.11,10.54-6.83.7-.31,1.04-.72,1.24-1.44.91-3.21,1.65-6.45,1.56-9.82-.06-2.41-.54-4.77-.89-7.14-.29-1.97-.58-3.94-.75-5.92-.09-.96.08-1.94.13-2.92Zm.17,26.59c3.79-1.46,7.58-1.95,11.51-1.86-.05-.27-.07-.46-.11-.64-.67-2.82-1.57-5.56-2.67-8.24-1.4-3.41-2.64-6.87-3.36-10.5-.4-2.02-.61-4.04-.25-6.09.13-.72.25-1.45.29-2.19.11-1.73-.61-2.35-2.28-1.91-.94.25-1.87.59-2.77.97-3.36,1.42-6.46,3.3-9.41,5.43-3.82,2.77-7.25,5.95-10.15,9.69-2.7,3.5-4.89,7.3-6.57,11.38-1.53,3.7-2.51,7.54-2.59,11.58-.08,3.81.67,7.42,2.31,10.86.11.23.25.45.43.75,1.08-.78,2.06-1.49,3.06-2.2-1.1-2.54-1.62-5.13-1.78-7.78-.18-3.04.16-6.05.9-9,1.4-5.55,3.83-10.6,7.35-15.12,3.94-5.06,8.83-8.96,14.63-11.7.65-.31,1.34-.55,2.1-.86-.17.67-.32,1.21-.44,1.76-.31,1.39-.12,2.78.07,4.15.35,2.51.84,5,1.18,7.51.2,1.48.35,2.99.32,4.48-.04,2.29-.44,4.55-1.03,6.77-.23.86-.46,1.72-.74,2.76Z" style="fill:#662a0f; stroke-width:0px;"/><path d="m9.85,54.27c.04.38.32.27.55.28.73.27,1.48.51,2.19.81,1.11.48,2.2,1.01,3.3,1.52.76.5,1.51,1,2.27,1.48.11.07.28.04.42.05l-.06.03c-.1.29.09.34.31.35.78.54,1.55,1.07,2.33,1.61-.21.12-.43.23-.64.35-.12-.14-.21-.31-.35-.42-.45-.35-.92-.68-1.39-1.02-2.42-1.7-4.92-3.25-7.78-4.09-1.75-.52-3.34-1.32-4.84-2.33-.17-.11-.36-.2-.72-.4.3,1.05.55,1.92.83,2.88-1.2-.4-2.12-1.04-3.01-1.7-.9-.66-1.76-1.39-2.63-2.08.44,3.9,2.43,6.85,5.3,9.36-1.25-.34-2.51-.67-3.87-1.04.13.33.19.51.27.68,2.39,5.08,4.72,10.19,7.18,15.24,2.78,5.73,6.8,10.51,11.6,14.65.59.51,1.24.96,1.92,1.48.09-.3.18-.48.18-.65.01-.87,0-1.74,0-2.61.06-.08.13-.16.19-.24.11.53.3,1.05.3,1.58,0,.76-.09,1.52-.19,2.28-.25,1.86.07,3.65.79,5.36,1.16,2.75,3.34,4.38,6.06,5.37,2.55.93,5.18,1.06,7.83.62,3.06-.51,5.99-1.44,8.59-3.21.85-.58,1.8-.88,2.82-.97,0,.08,0,.16,0,.24-1.57.34-2.86,1.21-4.26,2.21.56.18.97.31,1.38.43,3.97,1.12,8,1.92,12.08,2.51,3.19.46,6.38.74,9.62.5,3.87-.29,7.59-1.14,11.19-2.56.89-.35,1.76-.75,2.66-1.04,2.04-.65,4.14-.65,6.24-.5.28.02.56.07.84.11-.23-.51-.51-.9-.84-1.26-.33-.36-.71-.7-1.16-1.14,3.48.18,6.73,0,9.88-1.38-.11-.1-.12-.12-.14-.13-.32-.06-.64-.12-.96-.19-2.45-.51-4.77-1.37-6.85-2.77-.3-.2-.55-.47-.89-.77.91-.16,1.66-.27,2.4-.44.72-.16,1.44-.32,2.13-.68-.1-.09-.14-.14-.18-.16-3.74-1.94-7.03-4.48-10.06-7.38-2.28-2.18-4.89-3.83-7.8-5.01-4.06-1.65-8.33-2.36-12.66-2.76-2.44-.23-4.88-.5-7.27-1.06-3.54-.83-6.84-2.2-9.9-4.17-.25-.16-.57-.23-.85-.34h0c0-.08,0-.16,0-.25-.3-.18-.32.19-.5.25-.13-.17-.27-.34-.39-.52-1.28-1.98-2.81-3.74-4.62-5.26-2.41-2.03-5.14-3.35-8.3-3.67-.22-.02-.46.06-.69.1-.14-.16-.28-.33-.42-.49,2.74-.1,5.2.77,7.5,2.18,2.38,1.45,4.3,3.41,5.98,5.61.45.59.94,1.13,1.63,1.43,1.7,1.19,3.49,2.22,5.4,3.03,4.16,1.76,8.52,2.55,13.02,2.72.15.04.31.1.46.13,2.28.39,4.58.68,6.83,1.17,3.38.73,6.56,2.01,9.47,3.91,1.4.91,2.62,2.05,3.86,3.15,1.08.96,2.2,1.86,3.31,2.79.12.09.23.18.35.27,1.87,1.56,3.92,2.85,6.1,3.93.19.09.38.19.7.34-1.38.99-2.95,1.09-4.57,1.52,2.82,1.86,5.8,2.81,9.13,3.12-.44.47-.89.71-1.35.92-1.4.64-2.89.98-4.41,1.14-1.32.14-2.66.18-4.06.28.59.78,1.19,1.57,1.89,2.49-.95-.13-1.71-.26-2.47-.34-2.43-.26-4.79.03-7.04,1.02-5.78,2.54-11.84,3.52-18.12,3.09-1.49-.1-2.98-.35-4.47-.53-.24-.03-.49-.03-.73-.04-.14-.06-.28-.11-.42-.17-.78-.12-1.56-.23-2.33-.37-2.92-.54-5.83-1.12-8.65-2.03-1.04-.33-1.95-.47-2.96.05-.64.33-1.36.5-2.05.74,0,.17-.02.28,0,.38.47,2.44.69,4.91.74,7.38.07,3.35-.07,6.7-.14,10.05-.01.68-.08,1.36-.17,2.03-.25,1.89-.49,3.77-.79,5.65-.3,1.88-.72,3.74-1.42,5.52-.44,1.11-.86,2.23-1.29,3.35-.02.05-.05.1-.07.15,0,0,0-.02,0-.02-.09.06-.17.13-.26.19-.02.01-.05.03-.07.03-.02,0-.04,0-.06-.01.12-.46.19-.94.37-1.38.78-1.89,1.55-3.78,2-5.79,1.09-4.9,1.46-9.87,1.58-14.86.05-1.88-.03-3.76-.12-5.64-.07-1.5-.21-2.99-.36-4.48-.08-.77-.24-1.54-.38-2.39-2.48.54-4.89.98-7.38.62-.11.22-.22.41-.3.6-.37.85-.71,1.72-1.09,2.56-1.09,2.39-2.29,4.71-4.01,6.73-1.04,1.22-2.15,2.39-3.21,3.61-1.33,1.53-2.6,3.09-3.47,4.94-.12.26-.21.53-.31.8l.15.12c.24-.15.48-.31.72-.46.93-.57,1.85-1.13,2.78-1.7,0,0,0,0,0,0-.13.2-.24.41-.38.61-.76,1.1-1.62,2.14-2.27,3.29-1.97,3.47-2.54,7.15-1.44,11.04.06.21.17.41.32.77.63-1.55,1.24-2.89,2.06-4.14.08.25.07.49.08.72.01.6,0,1.2.06,1.8.24,2.29.81,4.5,1.61,6.66,1.76,4.72,4.33,8.92,8.06,12.35.64.59,1.36,1.08,2.04,1.62,0,.17,0,.34,0,.52-.2-.13-.42-.26-.61-.4-2.32-1.76-4.25-3.89-5.91-6.27-1.14-1.64-2.07-3.38-2.97-5.15-.22-.55-.44-1.1-.66-1.65-.12-.22-.02-.6-.45-.59-.06-.35-.07-.7-.18-1.03-.67-2.11-1.24-4.24-1.37-6.46,0-.1-.05-.2-.1-.4-.49.54-.67,1.16-.91,1.73-.25.6-.45,1.23-.72,1.97-.14-.28-.26-.47-.34-.68-1.5-3.91-1.27-7.75.5-11.51.38-.81.87-1.57,1.32-2.35.1-.18.21-.36.27-.58-.92.35-1.64.99-2.52,1.62.17-.93.47-1.68.82-2.41.82-1.75,2.01-3.24,3.25-4.69.8-.93,1.59-1.88,2.44-2.76,2.03-2.08,3.47-4.54,4.69-7.15.54-1.16,1.03-2.34,1.57-3.59-.26-.08-.45-.16-.65-.2-1.65-.33-3.2-.91-4.62-1.8-2.82-1.76-4.25-4.37-4.61-7.62-.06-.54-.09-1.09-.06-1.63.02-.38-.13-.59-.41-.8-5.4-4.02-9.72-9.01-12.87-14.95-2.02-3.8-3.8-7.73-5.65-11.62-.84-1.77-1.61-3.58-2.41-5.37-.12-.27-.23-.55-.41-.96,1.03.28,1.96.52,2.88.77.02-.04.04-.08.06-.12-.13-.16-.26-.33-.4-.49-1.69-1.9-2.99-4.02-3.55-6.54-.04-.16-.19-.3-.28-.46,0-.6,0-1.2,0-1.8.37.26.76.51,1.12.78,1.19.91,2.37,1.83,3.56,2.73.23.18.51.3.91.53-.28-1.13-.53-2.12-.81-3.26.3.2.46.32.63.43,1.17.74,2.34,1.48,3.53,2.19.26.16.61.17.92.25Z" style="fill:#8f776a; stroke-width:0px;"/><path d="m32.27,199.86s0,.09,0,.14h-3.11s0-.1,0-.15c1.04,0,2.08,0,3.12.01Z" style="fill:#d9c4b7; stroke-width:0px;"/><path d="m160.18,141.69v2.78s-.09,0-.14.02c0-.94,0-1.88,0-2.82.05,0,.09.01.14.02Z" style="fill:#907b70; stroke-width:0px;"/><path d="m160.18,141.69s-.09-.01-.14-.02c0-.43,0-.87,0-1.3.05,0,.09,0,.14,0v1.31Z" style="fill:#d9c4b7; stroke-width:0px;"/><path d="m160.04,144.49s.09-.02.14-.02v1.15h-.07s-.07,0-.07,0c0-.38,0-.76,0-1.14Z" style="fill:#d9c4b7; stroke-width:0px;"/><path d="m160.04,144.49c0,.38,0,.76,0,1.14-.46,7.42-2.34,14.46-5.87,21.02-5.24,9.73-13.18,16.33-23.52,20.09-5.8,2.11-11.78,3.19-17.95,3.08-4.14-.07-8.21-.66-12.07-2.26-1.08-.45-2.11-1.01-3.26-1.57-2,2.26-4.61,3.72-7.59,4.51,0,.25,0,.44,0,.63.12,2.09-1.14,3.62-2.83,4.26-1.01.38-2.08.69-3.15.83-2.97.4-5.95.77-8.94,1.01-3.91.32-7.84.51-11.76.77-.4.03-.8.14-1.18.28-3.54,1.3-7.18,1.8-10.93,1.24-.83-.12-1.65-.36-2.43-.68-.47-.19-.92-.28-1.41-.27-1.06.02-2.07-.11-2.9-.87-.11-.1-.28-.15-.44-.21-2.17-.76-3.09-2.51-2.45-4.9.7-2.61,2.35-4.51,4.64-5.89.16-.1.33-.19.5-.28.38-.13.77-.27,1.15-.4,1.13-.2,2.26-.33,3.41-.14,1.23.2,2.46.43,3.7.61,1.06.16,2.11.31,3.29.18-.7-.57-1.29-1.09-1.92-1.56-.19-.14-.5-.2-.75-.19-1.6.06-3.21.16-4.81.23-1.01.05-2,.2-2.92.64-.39.12-.77.24-1.16.36-1.17.25-2.33.5-3.48.75-.53,1.48-1,2.99-1.61,4.44-.56,1.32-1.27,2.58-1.94,3.86-.21.41-.51.77-.78,1.14-1.5,2.09-3.54,3.25-6.1,3.49-.11.01-.22.03-.32.04-1.04,0-2.08,0-3.12-.01-1.13-.2-2.24-.45-3.17-1.22-.13-.11-.4-.11-.59-.08-1.77.33-3.27-.2-4.61-1.35-.14-.12-.3-.27-.46-.28-.87-.05-1.29-.61-1.58-1.34-.05-.13-.1-.25-.12-.29-.79-.4-1.52-.76-2.32-1.16-1.8.44-3.5.06-4.98-1.27-.11-.1-.27-.2-.42-.2-.91-.05-1.38-.62-1.6-1.4-.16-.57-.27-1.18-.26-1.77.03-1.86.49-3.62,1.44-5.22.27-.47.62-.9.99-1.3,1.14-1.22,2.53-1.65,4.16-1.17.68.2,1.36.39,2.05.56,1.27.31,2.31-.08,3.13-1.08.72-.87,1.2-1.88,1.61-2.93.89-2.27,1.42-4.64,1.78-7.04.69-4.6,1-9.22.8-13.87-.11-2.69-.39-5.38-.66-8.07-.24-2.29-.32-4.57-.08-6.86.43-.01.33.37.45.59-.05.15-.12.3-.13.46-.09,2.02-.1,4.04.2,6.04.49,3.27.7,6.56.67,9.86-.02,2.69-.21,5.39-.4,8.08-.2,2.77-.63,5.52-1.35,8.21-.5,1.87-1.12,3.71-2.22,5.33-1.1,1.61-2.33,2.07-4.24,1.59-.66-.16-1.32-.35-1.97-.54-1.29-.38-2.35.08-3.3.91-.1.09-.13.27-.2.4,0,0,0,0,0,0-.14.11-.28.22-.42.34-.11.12-.24.23-.32.36-.88,1.4-1.41,2.94-1.53,4.58-.06.8.04,1.62.19,2.41.1.52.39,1.04,1.08,1.02.03.02.06.04.09.06-.02-.03-.04-.06-.06-.09,0-.08,0-.17-.01-.24-.49-2.05.47-3.58,1.79-4.98.03-.03.1-.02.15-.03,0,0,.02.02.02.02-.18.3-.38.59-.54.9-.35.7-.73,1.4-1,2.13-.24.65-.22,1.34.06,2,.62,1.5,3.25,2.45,4.78,1.69-.49-1.39-.18-2.66.67-3.83.24-.33.51-.63.77-.95.02.12.03.23.05.35-.62.84-1.12,1.74-1.3,2.79-.23,1.29.85,2.55,2.22,2.54,0-.27-.01-.54,0-.81.1-2.12.7-4.08,1.96-5.8,1.33-1.82,2.95-2.35,5.08-1.68.65.2,1.3.42,1.96.57,1,.24,1.9,0,2.62-.76.35-.37.69-.77.97-1.21,1.16-1.82,1.79-3.85,2.3-5.92,1.22-4.94,1.64-10,1.77-15.07.06-2.12-.08-4.25-.15-6.38,0-.3-.1-.59-.15-.88,0-.17,0-.34,0-.52-.01-.27-.02-.54-.04-.81-.1-1.74-.28-3.47-.28-5.21,0-3.39.67-6.64,2.14-9.71.27-.57.64-1.09.96-1.63-.06.25-.1.51-.19.75-.25.65-.53,1.29-.79,1.93-.05.15-.11.31-.16.46,0,0,0-.02,0-.02-.24.68-.52,1.36-.71,2.06-.93,3.39-1.06,6.83-.72,10.31.18,1.82.36,3.64.43,5.46.17,4.56-.04,9.11-.66,13.64-.37,2.7-.85,5.39-1.72,7.98-.5,1.5-1.08,2.98-2.02,4.28-1.13,1.57-2.33,2.02-4.19,1.53-.69-.18-1.35-.44-2.04-.61-1.35-.33-2.53-.06-3.45,1.06h0c-.06.05-.11.11-.17.17,0,0,0,0,0,0-.07.06-.15.11-.22.17-.12.15-.25.28-.36.44-1.35,1.96-1.94,4.13-1.71,6.49.07.71.25,1.42,1.11,1.62.04.01.08.03.12.04-.01-.04-.02-.08-.04-.13,0-.05,0-.11,0-.16-.41-2.2.66-3.8,2.12-5.24.07-.07.19-.07.29-.11,0,0-.01-.01-.01-.01-.13.2-.25.41-.4.6-.74.99-1.41,2.01-1.64,3.25-.2,1.06.18,2.14,1.12,2.68.63.36,1.33.63,2.04.8.55.13,1.17.21,1.71-.15-.39-1.99.4-4.12,1.78-4.7-.14.21-.25.35-.33.51-.34.62-.75,1.21-1,1.86-.55,1.45-.04,2.59,1.38,3.19.5.21,1.03.35,1.56.46,1.46.29,2.93.22,4.39-.02,1.66-.28,3.14-.93,4.25-2.24.63-.75,1.27-1.5,1.78-2.33,1.66-2.66,2.68-5.6,3.5-8.6,1.51-5.49,3.02-10.98,4.52-16.47,1.48-5.41,2.93-10.83,4.41-16.24.44-1.61.36-3.18-.27-4.72-.4-.97-.98-1.82-1.66-2.61-.17-.2-.29-.44-.43-.66h-.01c.35.3.73.55,1.03.88.45.5.83,1.06,1.24,1.59.14.38.38.76.4,1.14.07,1.41,1.02,2.02,2.13,2.54,1.4.65,2.79,1.34,4.19,2,.26.12.52.23.84.04.93-.56,1.88-1.08,2.82-1.62.31-.11.62-.22.92-.34,2.63-1.08,5.36-1.61,8.2-1.63,2.08-.01,4.13.28,6.14.81,5.01,1.33,9.43,3.65,12.89,7.61,1.37,1.57,2.49,3.31,3.27,5.25.27.67.5,1.35.5,2.09-.12-.14-.19-.3-.25-.47-.64-1.84-1.52-3.56-2.68-5.12-1.09-1.47-2.26-2.87-3.77-3.93-.06-.07-.13-.13-.19-.2h0c-.11-.05-.22-.11-.33-.17h.01c-.06-.05-.12-.1-.17-.16h0c-.25-.2-.48-.43-.74-.61-2.47-1.71-5.17-2.91-8.05-3.72-4.02-1.13-8.05-1.31-12.11-.23-3.49.93-6.54,2.68-9.25,5.04-4.72,4.11-7.02,9.27-6.68,15.55.05.91.3,1.81.46,2.72.1.42.18.85.3,1.27,1.15,3.78,3.42,6.78,6.39,9.31,1.24,1.06,2.61,1.86,4.22,2.21.45.1.89.21,1.34.31-.97.12-1.88-.19-2.8-.39-.39-.08-.8-.14-1.2-.16-1.14-.07-2.29-.05-3.42-.17-1.16-.13-2.31-.41-3.47-.57-1.19-.16-2.39-.21-3.58.06-2.9.67-5.93,4.05-6.29,7.01-.1.8,0,1.58.43,2.29.42.68.96,1.06,1.67,1.11-.53-1.56-.47-3.07.4-4.48.86-1.41,2.13-2.25,3.71-2.61-.7.5-1.48.91-2.15,1.44-1.45,1.17-2.08,2.72-1.79,4.57.14.91.48,1.76,1.42,2.15.71.29,1.46.4,2.27.27-.42-1-.36-1.96.09-2.88.66-1.37,1.66-2.43,3.02-3.12.58-.3,1.18-.58,1.87-.48h0c-.56.27-1.13.51-1.67.82-1.36.79-2.49,1.83-2.96,3.36-.55,1.82.11,2.43,1.4,2.86.21.07.42.13.63.18,1.87.44,3.76.54,5.68.36,1.88-.18,3.72-.54,5.51-1.13,1.25-.41,2.2-1.18,2.87-2.3.08-.13.17-.26.35-.52-.12.98-.74,1.53-1.12,2.24.38,0,.68.02.97,0,2.23-.14,4.46-.31,6.69-.43,3.76-.2,7.51-.47,11.23-1.03,1.5-.23,3-.55,4.46-1,1.51-.46,2.49-1.56,2.75-3.16.09-.55.01-1.12.01-1.73.33-.1.67-.2,1.01-.3,1.18-.34,2.33-.76,3.39-1.42,3.33-2.06,5.47-5.03,6.64-8.73.95-3.01,1.17-6.08.86-9.22-.36-3.54-1.3-6.9-2.92-10.07-1.65-3.24-3.89-6.05-6.35-8.7-3.14-3.39-6.56-6.48-9.95-9.61-2.93-2.7-5.89-5.36-8.83-8.05-3-2.75-5.81-5.69-8.27-8.94-1.81-2.4-3.45-4.91-4.67-7.67-1.74-3.96-2.57-8.14-2.98-12.43.14.06.28.11.42.17.29,2.94.81,5.83,1.65,8.66,1.1,3.71,2.99,7.01,5.23,10.12,2.75,3.83,6.04,7.18,9.49,10.36,4.49,4.14,9.02,8.24,13.5,12.41,3,2.79,5.85,5.72,8.31,9.01,2.97,3.96,4.89,8.36,5.6,13.27.4,2.74.44,5.49-.07,8.23-.02.11-.02.21-.03.34.08.04.14.09.21.1,5.61.36,10.57-1.19,14.7-5.07,3.26-3.06,5.37-6.84,6.67-11.09,1.34-4.35,1.7-8.81,1.37-13.35-.33-4.66-1.36-9.15-2.91-13.55-1.5-4.27-2.77-8.61-3.62-13.06-.51-2.68-.83-5.39-1-8.11-.03-.41.01-.82.02-1.23.4-.48.49-1.07.58-1.66,1.04-3.78,2.59-7.41,3.51-8.14-.22,1.94-.23,3.81.42,5.81.09-.27.12-.33.13-.4.79-4.12,2.76-7.61,5.68-10.58.4-.4.87-.75,1.35-1.06.24-.16.58-.18,1.01-.31-.68,1.68-1,3.24-1.01,4.87,0,1.57.16,3.1.84,4.54.11.23.25.43.38.65.13-.27.14-.49.16-.7.18-3,1.03-5.79,2.76-8.27.72-1.04,1.56-1.97,2.6-2.7.39-.28.8-.53,1.41-.57-.53,2.41-.54,4.76-.08,7.11.46,2.32,1.21,4.53,2.53,6.53.06-.36.04-.71.07-1.05.11-1.05.16-2.12.37-3.16.26-1.32.77-2.56,1.58-3.65.3-.4.6-.84,1.22-.92-.21,3.76,1.06,7.01,3.17,10-.31-2.15-.05-4.22.64-6.33.07.18.12.27.15.38.47,1.81,1.3,3.47,2.13,5.12.1.2.28.36.42.53h0c0,.1.01.2.02.31.36.56.73,1.11,1.09,1.67,1.95,4.61,3.92,9.21,5.86,13.83,1.55,3.69,2.89,7.46,3.6,11.42.29,1.6.41,3.24.61,4.86,0,.43,0,.87,0,1.3,0,.94,0,1.88,0,2.82Zm-109.45,38.49c.05.03.11.06.16.09-.33.55-.66,1.1-1.03,1.73,1.88-.11,3.71-.21,5.53-.32,0-.15,0-.19-.01-.2-.18-.2-.37-.4-.56-.6-1.36-1.39-2.5-2.95-3.41-4.68-1.32-2.53-1.99-5.23-2.09-8.08-.03-.94-.66-1.44-1.24-2.19-.52,1.93-1,3.67-1.49,5.5.84.23,1.58.43,2.32.63,0,.03-.01.07-.02.1-.77-.12-1.54-.23-2.36-.36-.1.29-.21.56-.29.85-.93,3.39-1.86,6.77-2.78,10.16-.06.22-.06.45-.11.84,1.38-.33,2.62-.61,3.85-.92,1.52-.38,2.73-1.21,3.54-2.57Zm69.63-78.67c-.07.12-.14.23-.19.35-1.18,2.5-2.07,5.1-2.6,7.82-.13.69-.15,1.41-.12,2.11.03.81.17,1.62.26,2.44.41,3.8,1.18,7.54,2.28,11.2.85,2.85,1.82,5.66,2.71,8.49,1.57,5.03,2.43,10.16,2.28,15.45-.06,2.16-.26,4.29-.69,6.41-.91,4.54-2.69,8.69-5.64,12.29-4.16,5.07-9.56,7.42-16.07,7.32-.37,0-.74-.05-1.15-.08-.65,2.78-1.76,5.27-3.59,7.55.86.45,1.64.89,2.45,1.26,3.29,1.5,6.79,2.18,10.37,2.42,3.85.25,7.69.05,11.49-.66,5.37-1,10.49-2.72,15.28-5.38,2.71-1.5,5.22-3.27,7.52-5.34,4.44-4,7.89-8.73,10.34-14.18,2.8-6.22,4.32-12.73,4.57-19.54.11-3.09-.16-6.15-.79-9.18-.88-4.21-2.37-8.22-4.06-12.16-1.39-3.23-2.79-6.46-4.19-9.68-.3-.7-.6-1.4-.93-2.08-1.09-2.23-2.19-4.45-3.29-6.67-.08-.16-.17-.31-.3-.54-.52,2.23-.29,4.33.19,6.44-2.67-3.14-4.38-6.66-4.44-10.88-.9.56-1.65,2.18-2.14,4.57-.35,1.72-.29,3.43.14,5.15-1.79-2.02-2.79-4.41-3.45-6.96-.67-2.57-.86-5.17-.35-7.93-1.17.61-1.92,1.43-2.6,2.31-2.11,2.72-3.13,5.83-3.17,9.27,0,.39,0,.79,0,1.31-.72-.45-1.05-1.02-1.31-1.6-1.32-2.9-1.13-5.87-.27-8.9-.61.25-1.29.78-1.9,1.48-2.91,3.29-4.79,7.04-5.23,11.48-1.1-1.62-1.17-3.46-1.4-5.31Zm-71.23,65.27c.06-.02.13-.04.19-.06.03-.18.07-.36.08-.54.2-2.56.92-4.97,2.11-7.25,1.5-2.87,3.71-5.1,6.25-7.04.23-.17.45-.35.68-.54-2-.99-3.92-1.95-5.88-2.92-.04.37-.04.72-.12,1.05-.31,1.3-.61,2.6-.96,3.88-1.02,3.81-2.07,7.62-3.09,11.44-.07.27-.13.62-.02.86.19.41.51.75.77,1.12Z" style="fill:#662a0f; stroke-width:0px;"/><path d="m117.44,110.58c-.09.59-.18,1.18-.58,1.66-.02-1.22-.1-2.45-.05-3.67.18-4.27.97-8.44,2.31-12.51,1.42-4.33,3.97-7.87,7.41-10.79,5.4-4.57,11.67-7.29,18.63-8.41,2.16-.35,4.34-.45,6.52-.04.13.03.27.06.39.1.05.02.09.06.2.15-.32.14-.6.26-.89.38-2.19.87-4.28,1.94-6.11,3.44-.54.44-1,.99-1.5,1.49-.04.04-.07.07-.11.11.07,0,.13-.01.2-.02.68-.28,1.35-.59,2.04-.82,2.01-.68,4.05-1.1,6.18-.73.49.09.97.25,1.66.43-4.95,2.25-8.53,5.4-9.28,10.93,1.72-1.65,3.62-2.87,6.13-2.89-.01.11,0,.2-.03.24-1.33,1.69-1.89,3.67-2.19,5.74-.68,4.82-.05,9.51,1.4,14.12.08.26.13.52.19.78-.36-.56-.73-1.11-1.09-1.67.22-.12.2-.23-.02-.32,0,0,0,.01,0,.01-.02-.24-.02-.49-.08-.72-.84-3.24-1.21-6.54-1.05-9.89.13-2.58.54-5.1,1.86-7.39.05-.09.06-.2.13-.41-.34.06-.6.09-.85.16-1.83.52-3.26,1.61-4.41,3.09-.1.13-.24.24-.46.46-.09-1.77.24-3.3.88-4.75,1.53-3.42,4.22-5.69,7.58-7.37-.94-.36-1.82-.29-2.67-.22-2.71.21-5.19,1.09-7.43,2.68.06-.28.16-.53.29-.75.57-1.02,1.38-1.83,2.27-2.55,1.51-1.23,3.19-2.18,4.96-2.99.26-.12.51-.25.76-.37-.33-.19-.62-.25-.91-.26-1.5-.06-3,.05-4.48.28-6.19.95-11.8,3.28-16.82,7-3.22,2.39-5.88,5.28-7.68,8.91-.91,1.84-1.51,3.8-2.05,5.77-.98,3.6-1.46,7.26-1.49,10.99,0,.22-.11.51.22.62Z" style="fill:#907b70; stroke-width:0px;"/><path d="m46.51,186.14c.39-.12.77-.24,1.16-.36,0,.07,0,.14,0,.22-.38.13-.77.27-1.15.4,0-.09,0-.17,0-.26Z" style="fill:#d9c4b7; stroke-width:0px;"/><path d="m15.89,56.89c-1.1-.51-2.19-1.04-3.3-1.52-.71-.31-1.46-.55-2.19-.81.91-.49,1.83-.97,2.74-1.46,3.69-2.02,6.95-4.6,9.91-7.58,3.28-3.29,6.75-6.36,10.59-8.99,2.44-1.67,5-3.12,7.76-4.18,2.12-.82,4.32-1.3,6.58-1.57,1.96-.23,3.92-.15,6.08-.12-1.11.51-2.06.9-2.97,1.38-.95.49-1.8,1.12-2.59,1.93,2.02.46,3.98.91,5.95,1.36-5.5,2.03-9.31,5.57-11.07,11.34,3.05-1.58,5.96-3.08,8.87-4.59-1.41.34-2.71.97-4.01,1.6-1.33.64-2.62,1.34-4.11,2.11.99-2.82,2.55-5.02,4.72-6.79,2.16-1.77,4.57-3.02,7.4-3.43-2.19-.81-4.45-1.33-6.82-1.83,1.12-.99,2.3-1.64,3.58-2.13,2.44-.92,4.92-.88,7.39-.17,1.1.32,2.15.78,3.22,1.19.48.18.94.4,1.6.68-.67-1.59-1.5-2.89-2.27-4.23,1.73-.23,5.05,1.69,6.53,3.7,1.6,2.19,2.03,4.71,2.24,7.34.02-.4.04-.8.05-1.2,0-.44,0-.87,0-1.37.15.05.28.06.39.12,3.35,2.07,6.5,4.41,9.28,7.22,3.73,3.76,6.31,8.19,7.6,13.35.83,3.33,1.13,6.71,1.1,10.13-.05,6.54-1.09,12.91-3.15,19.12-.06.18-.14.35-.21.53-1.1-.93-2.23-1.83-3.31-2.79-1.24-1.1-2.46-2.24-3.86-3.15-2.91-1.9-6.09-3.18-9.47-3.91-2.26-.49-4.55-.78-6.83-1.17-.16-.03-.31-.08-.46-.13,1-.52,1.57-1.41,2.01-2.39,2.97-6.52,4.75-13.3,4.55-20.52.05-.09.13-.18.16-.28.71-3.25.23-6.29-1.69-9.04-.32-.46-.75-.87-1.2-1.21-1.28-.95-3.54-.61-3.97.87-1.5-.27-2.86.15-4.13.91-1.63.98-2.95,2.31-4.17,3.75-2.26,2.68-4.08,5.65-5.68,8.75-1.68,3.25-3.15,6.58-4.07,10.13-.28,1.07-.59,2.16-.23,3.29-.69-.31-1.18-.84-1.63-1.43-1.68-2.2-3.6-4.16-5.98-5.61-2.3-1.4-4.76-2.27-7.5-2.18-.27-.2-.55-.4-.82-.59.46-.39.94-.75,1.38-1.16,3.71-3.43,6.79-7.38,9.44-11.66,1.22-1.97,2.32-4.02,3-6.25.3-.97.53-1.95.38-2.97.67-.76.75-1.51.25-2.38-.46-.8-1.19-1.19-2.06-1.32-2.95-.42-5.48.51-7.64,2.51-.03.03-.02.1-.03.18.21,0,.41-.02.62-.03-.57.32-1.13.64-1.7.96-3.12,1.78-5.88,4.04-8.5,6.47-2.63,2.45-5.11,5.06-7.33,7.9-.62.79-.76,1.66-.58,2.62.05.24.11.47.16.71Zm55.58-16.03c.04-.1.05-.12.05-.14,0-.03-.02-.07-.03-.1,0,.05-.01.11-.02.24Z" style="fill:#fe6f0d; stroke-width:0px;"/><path d="m116.57,41.85c.07.67.16,1.17.16,1.68-.02,2.63-.39,5.22-.95,7.78-1.43,6.54-3.87,12.66-7.65,18.2-3.4,4.99-7.7,9.04-13,11.97-1.7.94-3.49,1.68-5.43,1.97-.32.05-.65.05-1.07.08.07-.35.12-.63.19-.91,1.29-5.3,1.92-10.68,1.75-16.14-.08-2.4-.35-4.79-.86-7.14-.09-.44-.04-.78.14-1.17,1.82-3.91,4.57-6.93,8.4-8.98,3.16-1.69,6.47-3,9.86-4.15,2.53-.86,5.08-1.66,7.47-2.87.26-.13.55-.19,1-.34Z" style="fill:#f3e8e0; stroke-width:0px;"/><path d="m40.9,5.42c-.05.98-.21,1.96-.13,2.92.18,1.98.46,3.95.75,5.92.35,2.37.83,4.73.89,7.14.09,3.37-.65,6.6-1.56,9.82-.2.72-.54,1.13-1.24,1.44-3.87,1.72-7.35,4.07-10.54,6.83-2.66,2.3-5.19,4.76-7.78,7.14-.78.71-1.57,1.4-2.41,2.15-.6-1.21-.93-2.39-1.19-3.58-.93-4.24-.77-8.47.31-12.65,3.16-12.2,10.39-21.13,21.72-26.71.32-.16.65-.29.98-.42.07-.03.15,0,.2,0Z" style="fill:#f3e8e0; stroke-width:0px;"/><path d="m41.07,32.01c.28-1.04.51-1.9.74-2.76.59-2.22.98-4.48,1.03-6.77.03-1.49-.12-3-.32-4.48-.34-2.51-.84-5-1.18-7.51-.19-1.37-.37-2.76-.07-4.15.12-.55.27-1.09.44-1.76-.76.31-1.44.56-2.1.86-5.8,2.75-10.68,6.64-14.63,11.7-3.52,4.52-5.95,9.57-7.35,15.12-.74,2.95-1.08,5.96-.9,9,.16,2.65.68,5.24,1.78,7.78-.99.72-1.98,1.43-3.06,2.2-.18-.3-.32-.52-.43-.75-1.63-3.43-2.38-7.05-2.31-10.86.08-4.04,1.06-7.88,2.59-11.58,1.68-4.08,3.87-7.89,6.57-11.38,2.89-3.74,6.32-6.92,10.15-9.69,2.95-2.13,6.05-4.01,9.41-5.43.9-.38,1.83-.72,2.77-.97,1.66-.44,2.38.18,2.28,1.91-.05.73-.17,1.46-.29,2.19-.36,2.05-.15,4.08.25,6.09.72,3.63,1.96,7.09,3.36,10.5,1.1,2.68,2,5.42,2.67,8.24.04.18.06.37.11.64-3.92-.08-7.71.4-11.51,1.86Z" style="fill:#fd6e0d; stroke-width:0px;"/><path d="m88.09,85.51c.13-.5.26-1,.4-1.54.59-.06,1.15-.09,1.71-.19,2.2-.41,4.2-1.35,6.1-2.49,5.93-3.57,10.54-8.42,13.98-14.41,3.13-5.45,5.19-11.28,6.29-17.45.39-2.17.64-4.37.54-6.59-.05-1.27-.53-1.6-1.67-1.03-2.58,1.28-5.31,2.14-8.02,3.06-3.02,1.03-5.97,2.24-8.82,3.69-3.93,2-6.9,4.92-8.84,8.89-.07.15-.15.29-.28.54-.48-1.38-.87-2.7-1.4-3.94-.56-1.3-1.2-2.57-1.92-3.79-.7-1.2-1.54-2.31-2.38-3.55.16-.15.34-.34.55-.49,3.54-2.59,7.42-4.35,11.79-4.96,3.07-.43,6.15-.86,9.22-1.3,2.97-.42,5.95-.81,8.76-1.93,1.31-.53,2.57-1.19,3.86-1.78.72-.33,1.44-.64,2.19-.92.45-.17.94-.3,1.4.03-.11.67-.22,1.34-.33,2-.38,2.16-.74,4.32-1.15,6.48-.53,2.83-1.29,5.61-2.14,8.36-1.08,3.46-2.31,6.86-3.9,10.12-.91,1.86-1.9,3.68-2.96,5.45-2.22,3.7-4.79,7.11-8.04,10-1.55,1.38-3.18,2.62-4.91,3.76-2.46,1.62-5.13,2.74-7.93,3.58-.67.2-1.38.27-2.07.4Z" style="fill:#fd6e0d; stroke-width:0px;"/><path d="m88.09,85.51c.69-.13,1.4-.2,2.07-.4,2.8-.85,5.47-1.97,7.93-3.58,1.73-1.14,3.36-2.38,4.91-3.76,3.25-2.89,5.82-6.3,8.04-10,1.06-1.77,2.06-3.6,2.96-5.45,1.59-3.26,2.82-6.66,3.9-10.12.86-2.75,1.61-5.53,2.14-8.36.41-2.16.77-4.32,1.15-6.48.12-.67.22-1.34.33-2,.44.34.5.84.46,1.33-.08,1.17-.14,2.34-.35,3.49-.55,3.05-1.11,6.1-1.79,9.13-.99,4.42-2.38,8.72-4.15,12.9-1.54,3.63-3.53,7.01-5.79,10.23-2.17,3.09-4.57,5.98-7.36,8.53-2.48,2.27-5.21,4.13-8.45,5.15-1.81.58-3.67.79-5.56.67-.24-.01-.47-.09-.81-.17.13-.41.24-.76.35-1.11Z" style="fill:#de4c03; stroke-width:0px;"/><path d="m87.15,156.3c1.51,1.06,2.68,2.46,3.77,3.93,1.16,1.56,2.04,3.28,2.68,5.12.06.16.13.32.25.47,0-.74-.23-1.42-.5-2.09-.78-1.94-1.9-3.67-3.27-5.25-3.46-3.96-7.88-6.29-12.89-7.61-2.01-.53-4.06-.82-6.14-.81-2.84.01-5.57.55-8.2,1.63-.3.12-.61.23-.92.34-.32-.06-.64-.11-.95-.19-1.23-.3-2.49-.54-3.69-.94-1.84-.61-3.54-1.51-5.07-2.72-.18-.14-.44-.17-.67-.26-.41-.53-.79-1.09-1.24-1.59-.3-.33-.68-.58-1.03-.87-.01-.02-.02-.05-.03-.07,0,0-.04,0-.06,0,.03.02.07.04.1.06.14.22.26.46.43.66.68.79,1.27,1.64,1.66,2.61.63,1.54.71,3.11.27,4.72-1.48,5.41-2.93,10.83-4.41,16.24-1.5,5.49-3.01,10.98-4.52,16.47-.83,3.01-1.84,5.94-3.5,8.6-.52.83-1.15,1.58-1.78,2.33-1.11,1.31-2.59,1.96-4.25,2.24-1.46.24-2.93.31-4.39.02-.53-.1-1.07-.25-1.56-.46-1.43-.6-1.93-1.74-1.38-3.19.25-.65.66-1.25,1-1.86.09-.16.2-.3.33-.51-1.38.57-2.17,2.7-1.78,4.7-.53.36-1.16.28-1.71.15-.7-.17-1.41-.44-2.04-.8-.94-.54-1.32-1.62-1.12-2.68.24-1.24.9-2.27,1.64-3.25.15-.19.27-.4.4-.6.06-.06.11-.11.17-.17.02,0,.04-.02.05-.03,0,0,0-.02.01-.04-.02.03-.04.05-.06.08-.05.06-.11.11-.16.17-.1.03-.23.04-.29.11-1.46,1.44-2.53,3.05-2.12,5.24,0,.05,0,.11,0,.16-.03.03-.06.06-.08.08-.86-.2-1.04-.91-1.11-1.62-.23-2.37.35-4.54,1.71-6.49.11-.16.24-.29.36-.44.07-.06.15-.11.22-.17,0,0,0,0,0,0,.06-.06.11-.11.17-.17,0,0,0,0,0,0,.25-.07.54-.1.76-.23.86-.5,1.75-.55,2.68-.29.92.25,1.83.53,2.75.75,1.33.32,2.57.13,3.49-.98.54-.64,1.04-1.33,1.46-2.06,1.57-2.75,2.42-5.76,2.94-8.86.27-1.6.5-3.22.69-4.83.19-1.64.38-3.29.45-4.94.09-2.39,0-4.78-.28-7.17-.17-1.48-.25-2.98-.37-4.47-.11-1.35-.26-2.71-.29-4.06-.03-1.25.03-2.5.15-3.75.13-1.35.37-2.68.56-4.02.04-.27.05-.54.08-.81,0,0,0,.02,0,.02.05-.15.11-.31.16-.46.27-.64.54-1.28.79-1.93.09-.24.13-.5.19-.75,0,0,0,.02,0,.02.11-.17.23-.33.34-.5,0,0-.01.02-.01.02.06-.11.12-.22.19-.34,0,0,0,.02,0,.02.02-.05.05-.1.07-.15.43-1.12.85-2.24,1.29-3.35.7-1.78,1.12-3.64,1.42-5.52.3-1.88.54-3.76.79-5.65.09-.67.16-1.35.17-2.03.07-3.35.21-6.7.14-10.05-.05-2.47-.27-4.94-.74-7.38-.02-.1,0-.21,0-.38.69-.24,1.41-.41,2.05-.74,1.01-.52,1.92-.38,2.96-.05,2.82.91,5.73,1.49,8.65,2.03.77.14,1.56.25,2.33.37.4,4.28,1.24,8.47,2.98,12.43,1.21,2.76,2.85,5.27,4.67,7.67,2.46,3.25,5.27,6.19,8.27,8.94,2.94,2.69,5.9,5.35,8.83,8.05,3.39,3.12,6.81,6.22,9.95,9.61,2.45,2.65,4.69,5.46,6.35,8.7,1.62,3.17,2.56,6.53,2.92,10.07.32,3.14.09,6.21-.86,9.22-1.17,3.7-3.3,6.67-6.64,8.73-1.05.65-2.2,1.07-3.39,1.42-.34.1-.68.2-1.01.3,0,.61.07,1.19-.01,1.73-.26,1.6-1.23,2.7-2.75,3.16-1.45.45-2.95.77-4.46,1-3.72.56-7.47.83-11.23,1.03-2.23.12-4.46.29-6.69.43-.3.02-.6,0-.97,0,.37-.72,1-1.26,1.12-2.24-.18.27-.27.39-.35.52-.67,1.13-1.62,1.89-2.87,2.3-1.79.59-3.63.95-5.51,1.13-1.92.18-3.81.08-5.68-.36-.21-.05-.42-.11-.63-.18-1.29-.43-1.95-1.03-1.4-2.86.47-1.54,1.6-2.57,2.96-3.36.54-.31,1.11-.56,1.67-.83.11-.01.22-.02.33-.03,0-.03-.02-.06-.03-.09-.1.05-.19.09-.29.14-.69-.1-1.29.18-1.87.48-1.36.69-2.36,1.75-3.02,3.12-.45.93-.51,1.88-.09,2.88-.82.13-1.56.02-2.27-.27-.95-.39-1.28-1.24-1.42-2.15-.29-1.85.34-3.4,1.79-4.57.67-.54,1.44-.94,2.15-1.44-1.59.36-2.85,1.2-3.71,2.61-.87,1.42-.93,2.92-.4,4.48-.71-.05-1.25-.43-1.67-1.11-.43-.71-.53-1.49-.43-2.29.35-2.95,3.38-6.34,6.29-7.01,1.18-.27,2.39-.23,3.58-.06,1.16.16,2.3.44,3.47.57,1.13.12,2.28.11,3.42.17.4.02.8.08,1.2.16.92.2,1.82.51,2.8.39-.45-.1-.89-.21-1.34-.31-1.61-.35-2.98-1.15-4.22-2.21-2.97-2.53-5.25-5.53-6.39-9.31-.13-.42-.2-.85-.3-1.27,0-.98-.03-1.96,0-2.94.03-.79.06-1.58.2-2.35.38-2.15,1.07-4.21,2.1-6.15,1.51-2.85,3.61-5.17,6.21-7.03,3.14-2.25,6.65-3.64,10.48-3.99,3.12-.28,6.25-.09,9.32.69,2.56.65,5.06,1.49,7.36,2.83.2.12.46.13.69.2,0,0,0,0,0,0,.06.06.12.11.17.17,0,0-.01,0-.01,0,.11.06.22.12.33.18,0,0,0,0,0,0,.06.07.13.13.19.2Zm-59.81,36.65c.05-.05.11-.11.16-.16.05-.05.11-.11.16-.16.05-.05.11-.11.16-.16.02-.02.03-.03.05-.05-.01.02-.03.04-.04.06-.05.06-.11.11-.16.17-.05.05-.11.11-.16.16-.06.05-.11.11-.17.16-.01.04-.03.08-.04.12,0-.04.02-.09.03-.13Zm.99-.82h.02s-.02,0-.02,0l-.02.02.02-.02Zm20.47-47.01s.04.02.07.03c-.02,0-.05-.02-.07-.03-.02-.02-.03-.03-.05-.05.02.01.04.03.06.04Zm-.54,44.45s0,.03,0,.04h.21s0-.02,0-.03c-.07,0-.14,0-.21-.01Z" style="fill:#ff6f0d; stroke-width:0px;"/><path d="m49.62,99.48c-1.02.1-1.97.4-2.82.97-2.6,1.77-5.53,2.7-8.59,3.21-2.65.44-5.28.31-7.83-.62-2.73-.99-4.9-2.62-6.06-5.37-.72-1.71-1.04-3.49-.79-5.36.1-.76.2-1.52.19-2.28,0-.53-.2-1.05-.3-1.58-.16-.62-.46-1.16-.94-1.62.25.62.5,1.24.75,1.86,0,.87,0,1.74,0,2.61,0,.18-.09.35-.18.65-.69-.53-1.33-.97-1.92-1.48-4.8-4.14-8.82-8.92-11.6-14.65-2.46-5.05-4.79-10.16-7.18-15.24-.08-.17-.14-.35-.27-.68,1.37.37,2.62.7,3.87,1.04-2.87-2.51-4.86-5.46-5.3-9.36.88.7,1.73,1.42,2.63,2.08.89.66,1.81,1.3,3.01,1.7-.28-.96-.53-1.83-.83-2.88.36.2.55.29.72.4,1.5,1.01,3.09,1.82,4.84,2.33,2.86.84,5.37,2.39,7.78,4.09.47.33.93.66,1.39,1.02.14.11.24.28.35.42-1.18.74-1.68,1.87-1.87,3.18-.18,1.26,0,2.49.25,3.71-.57,1.56-.57,3.16-.23,4.76.89,4.23,3.2,7.3,7.37,8.75,1.1.38,2.26.57,3.47.87.03.16.09.4.13.64.23,1.2.1,2.4-.11,3.58-.29,1.58-.64,3.15-.95,4.73-.27,1.36-.66,2.7-.58,4.12.11,2.11,1.12,3.61,3.08,4.42,1.05.43,2.16.57,3.29.51,2.01-.12,3.91-.67,5.74-1.5,2.89-1.32,5.38-3.21,7.65-5.4,2.3-2.23,4.29-4.72,6.03-7.41.17-.26.36-.52.59-.84.18.3.3.5.41.7,0-.48-.06-.95-.26-1.35-.62-1.23-1.44-2.25-2.9-2.51-.26-.05-.51-.1-.77-.15,0,.04-.01.08-.02.12l.61.15c.36.2.72.4,1.14.64-.17.12-.23.18-.3.21-2.58,1-5.25,1.63-8,1.8-4.24.27-8.34-.43-12.32-1.93-1.9-.71-3.56-1.75-4.9-3.28-.11-.12-.23-.23-.35-.34-.47-.67-.93-1.35-1.4-2.02.18.87.59,1.61,1.19,2.24.61.68,1.21,1.35,1.87,2.09-.26,0-.44.03-.61,0-1.92-.42-3.67-1.21-5.17-2.5-1.86-1.59-2.85-3.69-3.43-6-.31-1.22-.45-2.46-.19-3.72.04-.21.01-.46.34-.45.49,1.31,1.31,2.38,2.42,3.22,1.25.94,2.6,1.17,4.08.54,1.58-.67,2.98-1.61,4.16-2.84.54-.57,1.02-1.21,1.45-1.87.55-.84.53-1.75.14-2.66-.42-1-1.03-1.85-1.83-2.58.23-.04.46-.12.69-.1,3.17.32,5.89,1.63,8.3,3.67,1.8,1.52,3.33,3.28,4.62,5.26.12.18.26.35.39.52.49.8.98,1.6,1.47,2.41.1.19.2.38.31.57.04.02.08.04.12.06l-.05-.12c-.08-.2-.16-.39-.25-.59-.21-.41-.43-.82-.63-1.23-.17-.36-.32-.73-.48-1.1.29.11.6.17.85.34,3.06,1.97,6.36,3.34,9.9,4.17,2.39.56,4.83.84,7.27,1.06,4.33.4,8.6,1.12,12.66,2.76,2.91,1.18,5.53,2.82,7.8,5.01,3.03,2.9,6.32,5.45,10.06,7.38.05.02.08.07.18.16-.69.37-1.42.52-2.13.68-.74.17-1.5.28-2.4.44.35.3.6.57.89.77,2.09,1.41,4.4,2.27,6.85,2.77.32.07.64.12.96.19.02,0,.03.03.14.13-3.15,1.37-6.4,1.56-9.88,1.38.46.44.83.78,1.16,1.14.32.35.61.74.84,1.26-.28-.04-.56-.09-.84-.11-2.11-.15-4.21-.15-6.24.5-.91.29-1.78.69-2.66,1.04-3.6,1.42-7.32,2.27-11.19,2.56-3.23.24-6.42-.04-9.62-.5-4.08-.59-8.11-1.39-12.08-2.51-.41-.12-.82-.25-1.38-.43,1.4-1,2.69-1.87,4.26-2.21.62-.07,1.25-.14,1.87-.21,0,0,0-.02,0-.03h-1.87Zm5.31-13.51v.06s.02-.05.02-.05h-.02Z" style="fill:#f3e8e0; stroke-width:0px;"/><path d="m37.65,138.71c-.32.54-.69,1.07-.96,1.63-1.47,3.07-2.14,6.33-2.14,9.71,0,1.74.18,3.47.28,5.21.02.27.03.54.04.81-.68-.54-1.41-1.03-2.04-1.62-3.74-3.43-6.3-7.63-8.06-12.35-.8-2.15-1.37-4.37-1.61-6.66-.06-.59-.04-1.2-.06-1.8,0-.23,0-.47-.08-.72-.83,1.25-1.44,2.59-2.06,4.14-.15-.36-.26-.56-.32-.77-1.1-3.88-.53-7.57,1.44-11.04.66-1.16,1.51-2.2,2.27-3.29.14-.2.25-.41.38-.61.01-.01.03-.03.04-.04-.01.02-.02.03-.03.05-.93.57-1.86,1.13-2.78,1.7-.24.15-.48.31-.72.46l-.15-.12c.1-.27.19-.54.31-.8.87-1.85,2.14-3.41,3.47-4.94,1.06-1.21,2.17-2.38,3.21-3.61,1.72-2.01,2.92-4.34,4.01-6.73.38-.84.72-1.71,1.09-2.56.08-.2.19-.38.3-.6,2.49.36,4.89-.07,7.38-.62.14.85.3,1.61.38,2.39.15,1.49.3,2.99.36,4.48.09,1.88.17,3.76.12,5.64-.13,4.99-.5,9.96-1.58,14.86-.45,2.01-1.22,3.9-2,5.79-.18.44-.25.92-.37,1.38.02,0,.04.02.06.01.03,0,.05-.02.07-.03.03.05.05.1.08.15,0,0,.01-.02.01-.02-.31-.01-.41.13-.34.5v-.02Z" style="fill:#f3e8e0; stroke-width:0px;"/><path d="m34.87,156.59c.05.29.14.59.15.88.06,2.13.2,4.25.15,6.38-.14,5.07-.55,10.12-1.77,15.07-.51,2.07-1.14,4.1-2.3,5.92-.28.43-.61.83-.97,1.21-.72.76-1.62.99-2.62.76-.66-.16-1.31-.37-1.96-.57-2.13-.66-3.75-.14-5.08,1.68-1.26,1.72-1.86,3.68-1.96,5.8-.01.27,0,.54,0,.81-1.37,0-2.45-1.25-2.22-2.54.18-1.05.68-1.95,1.3-2.79.16-.21.31-.42.47-.63.02-.04.03-.08.05-.13-.04.02-.08.04-.12.06-.15.12-.3.23-.45.35-.26.32-.53.62-.77.95-.85,1.17-1.16,2.44-.67,3.83-1.53.75-4.16-.19-4.78-1.69-.27-.65-.29-1.35-.06-2,.27-.73.65-1.43,1-2.13.16-.31.36-.6.54-.9.01-.05.03-.09.04-.14-.02.04-.04.08-.07.12-.05,0-.13,0-.15.03-1.33,1.4-2.28,2.92-1.79,4.98.02.08,0,.16.01.24l-.03.03c-.69.02-.98-.5-1.08-1.02-.15-.79-.25-1.61-.19-2.41.12-1.64.65-3.18,1.53-4.58.08-.13.21-.24.32-.36.14-.11.28-.22.42-.34,0,0,0,0,0,0,.28-.15.57-.3.86-.45.66-.33,1.32-.61,2.1-.41,1.08.28,2.16.52,3.25.77,1.11.25,2.21.19,3.08-.61.56-.51,1.03-1.12,1.44-1.76.44-.69.77-1.44,1.11-2.18.99-2.14,1.58-4.4,1.94-6.72.2-1.31.39-2.63.54-3.95.17-1.4.33-2.81.42-4.21.07-1.06,0-2.13.04-3.19.07-2.27-.18-4.51-.37-6.76-.12-1.35-.32-2.7-.48-4.04-.08-.65-.16-1.29-.21-1.94-.08-1.03-.14-2.05-.2-3.08,0-.04.05-.09.08-.14.9,1.77,1.84,3.52,2.97,5.15,1.66,2.39,3.58,4.52,5.91,6.27.19.15.41.27.61.4Zm-21.77,29.8c.05-.05.11-.11.16-.16.02-.02.03-.04.05-.06-.01.02-.03.04-.04.06-.05.05-.11.11-.16.16-.02.01-.05.02-.07.04,0,0,0,.03,0,.05.02-.03.04-.07.06-.1Z" style="fill:#fe6f0d; stroke-width:0px;"/><path d="m69.41,53.96c.2,7.22-1.58,14-4.55,20.52-.45.98-1.02,1.87-2.01,2.39-4.49-.17-8.86-.95-13.02-2.71-1.91-.81-3.7-1.84-5.4-3.03-.37-1.12-.05-2.21.23-3.29.92-3.55,2.4-6.88,4.07-10.13,1.6-3.1,3.42-6.08,5.68-8.75,1.22-1.44,2.54-2.77,4.17-3.75,1.27-.77,2.62-1.19,4.13-.91-.03.32.14.47.44.57.85.27,1.58.77,2.13,1.44.72.87,1.42,1.78,2.02,2.74.95,1.52,1.58,3.2,2.11,4.92Zm-13.39-1.13c.37-.08.74-.18,1.12-.22.4-.04.82-.05,1.22-.03.38.02.76.07,1.12.18.39.11.77.27,1.12.47.33.18.63.43.92.68.28.24.53.52.79.79l.14-.13c-.21-.3-.41-.62-.65-.9-1.35-1.62-4.42-1.89-6.11-.93l-.44.2c.02.06.05.12.07.18.23-.09.46-.18.69-.28Zm-7.22,18.1c.62.94,1.55,1.52,2.49,2.08.04.02.15-.09.23-.14.48-.06.81.22,1.15.49-.23.23-.04.33.14.41,1.74.73,3.52,1.29,5.44,1.25.05,0,.09,0,.14,0,2.14.06,3.1-.54,3.95-2.48.02-.05.05-.1.07-.15,1.42-3.9,1.91-7.88,1.13-11.98-.26-1.35-.76-2.62-1.63-3.71-1.59-1.99-4.16-2.61-6.48-1.57-1.25.56-2.25,1.44-3.12,2.47-1.61,1.9-2.72,4.08-3.49,6.43-.49,1.48-.84,2.99-.81,4.57.02.86.17,1.68.8,2.33Zm13.7-15.94s.04-.03.04-.05c0-.02-.02-.03-.03-.05-.01.02-.04.03-.04.05,0,.02.02.03.03.05Z" style="fill:#f2e7de; stroke-width:0px;"/><path d="m15.89,56.89c-.05-.24-.11-.47-.16-.71-.19-.95-.04-1.82.58-2.62,2.22-2.84,4.69-5.45,7.33-7.9,2.62-2.44,5.38-4.69,8.5-6.47.57-.32,1.13-.64,1.7-.96,1.14-.4,2.34-.44,3.53-.45,1.86-.01,3.69.16,5.18,1.48.03.03.11,0,.16,0,.15,1.03-.09,2.01-.38,2.97-.68,2.23-1.78,4.28-3,6.25-2.65,4.29-5.73,8.24-9.44,11.66-.44.41-.92.77-1.37,1.16-.5-.29-1-.57-1.5-.86.11-.2.55-.13.43-.52.19-.08.38-.15.57-.23.24-.13.58-.22.25-.59,0,0,0,0,0,0,.02.08.04.17.06.25l.25-.1s.1-.05.14-.08c2.36-2.21,3.86-4.91,4.52-8.07.26-1.24.28-2.49-.15-3.72-.57-1.63-1.8-2.53-3.53-2.52-.67,0-1.37.09-2.01.27-2.82.77-5.1,2.42-7.06,4.53-.9.96-1.68,2.01-2.23,3.21-.79,1.72-.81,3.42.19,5.08.08.13.1.29.15.44-.14-.01-.31.02-.42-.05-.77-.48-1.52-.98-2.27-1.48Zm13.74-13.18c2.46-.42,4.09.55,4.85,2.95.06-2.82-3.06-4.12-4.85-2.95Z" style="fill:#f2e7de; stroke-width:0px;"/><path d="m25.37,144.76s-.09.09-.08.14c.06,1.03.12,2.06.2,3.08.05.65.13,1.3.21,1.94.16,1.35.36,2.69.48,4.04.2,2.25.45,4.5.37,6.76-.03,1.06.03,2.13-.04,3.19-.09,1.41-.26,2.81-.42,4.21-.16,1.32-.34,2.64-.54,3.95-.36,2.32-.95,4.58-1.94,6.72-.34.74-.67,1.5-1.11,2.18-.4.64-.88,1.25-1.44,1.76-.87.8-1.97.86-3.08.61-1.09-.25-2.17-.49-3.25-.77-.78-.2-1.44.08-2.1.41-.29.14-.57.3-.86.45.06-.14.09-.31.2-.4.95-.84,2.01-1.3,3.3-.91.65.19,1.31.38,1.97.54,1.9.47,3.14.02,4.24-1.59,1.1-1.62,1.72-3.46,2.22-5.33.72-2.69,1.16-5.43,1.35-8.21.19-2.69.38-5.38.4-8.08.02-3.3-.19-6.59-.67-9.86-.3-2-.29-4.02-.2-6.04,0-.15.09-.3.13-.46.22.55.44,1.1.66,1.65Z" style="fill:#f0a062; stroke-width:0px;"/><path d="m18.59,58.42c-.05-.15-.08-.31-.15-.44-.99-1.66-.98-3.36-.19-5.08.55-1.2,1.34-2.25,2.23-3.21,1.97-2.11,4.24-3.77,7.06-4.53.65-.18,1.34-.26,2.01-.27,1.73-.02,2.96.89,3.53,2.52.43,1.22.4,2.48.15,3.72-.66,3.16-2.16,5.86-4.52,8.07-.04.04-.09.06-.14.08-.03-.05-.05-.1-.08-.15,0-.07,0-.14-.01-.21,1.52-1.55,2.73-3.32,3.52-5.35.56-1.44.89-2.91.76-4.47-.14-1.81-1.29-3.2-2.88-3.37-.67-.07-1.37-.05-2.03.08-2.82.59-5.08,2.15-7.06,4.18-.88.9-1.63,1.9-2.17,3.05-1.07,2.28-.55,4.58,1.42,6.14.49.39,1.06.66,1.59.99-.15.08-.31.16-.46.24-.78-.54-1.55-1.07-2.33-1.61,0-.21,0-.41-.31-.35l.06-.03Z" style="fill:#171716; stroke-width:0px;"/><path d="m21.17,60.42c.15-.08.31-.16.46-.24,1.24-.22,2.48-.29,3.73-.07.37.07.75.11,1.13.16.17.06.33.12.5.18.5.28,1,.57,1.5.85.27.2.55.4.82.59.14.16.28.33.42.49.8.73,1.41,1.58,1.83,2.58.38.91.4,1.82-.14,2.66-.43.66-.9,1.3-1.45,1.87-1.18,1.23-2.57,2.17-4.16,2.84-1.48.62-2.82.4-4.08-.54-1.12-.84-1.93-1.91-2.42-3.22-.13-.31-.27-.61-.4-.92-.25-1.23-.43-2.46-.25-3.71.19-1.32.69-2.45,1.87-3.18.21-.12.43-.23.64-.35Zm2.61.03c-.33,0-.66-.02-.98,0-1.87.16-3.35,1.32-3.66,3.25-.17,1.01-.18,2,.03,3,.35,1.66,1.03,3.15,2.29,4.33,1.34,1.25,2.84,1.66,4.55.76.36-.19.74-.35,1.09-.56,1.48-.86,2.73-1.98,3.72-3.37.7-.98.78-2.01.17-3.06-1.62-2.76-3.91-4.4-7.22-4.35Z" style="fill:#b24846; stroke-width:0px;"/><path d="m44.22,71.74c.16.37.3.74.48,1.1.2.42.42.82.63,1.23-.04.03-.08.05-.12.08-.49-.8-.98-1.6-1.47-2.41.18-.06.2-.43.5-.25-.15.08-.23.17,0,.26h0Z" style="fill:#907b70; stroke-width:0px;"/><path d="m23.22,88.7c-.25-.62-.5-1.24-.75-1.86.48.45.78.99.94,1.62-.06.08-.13.16-.19.24Z" style="fill:#907b70; stroke-width:0px;"/><path d="m49.62,99.48h1.87s0,.02,0,.03c-.62.07-1.25.14-1.87.21,0-.08,0-.16,0-.24Z" style="fill:#907b70; stroke-width:0px;"/><path d="m18.53,58.45c.31-.06.32.14.31.35-.22-.02-.4-.06-.31-.35Z" style="fill:#f2e7de; stroke-width:0px;"/><path d="m37.98,138.25s-.05-.1-.08-.15c.09-.06.17-.13.26-.19-.06.11-.12.22-.19.34Z" style="fill:#662a0f; stroke-width:0px;"/><path d="m44.23,71.75c-.23-.09-.15-.17,0-.26,0,.09,0,.17,0,.26Z" style="fill:#f3e8e0; stroke-width:0px;"/><path d="m38.23,137.78s-.05.1-.07.15c.02-.05.05-.1.07-.15Z" style="fill:#662a0f; stroke-width:0px;"/><path d="m120.23,104.31c.23,1.85.3,3.69,1.4,5.31.44-4.44,2.32-8.19,5.23-11.48.61-.69,1.28-1.23,1.9-1.48-.86,3.02-1.05,5.99.27,8.9.27.59.59,1.15,1.31,1.6,0-.52,0-.91,0-1.31.04-3.44,1.06-6.55,3.17-9.27.68-.88,1.44-1.7,2.6-2.31-.51,2.76-.32,5.36.35,7.93.67,2.55,1.66,4.94,3.45,6.96-.43-1.72-.49-3.43-.14-5.15.49-2.4,1.24-4.01,2.14-4.57.06,4.22,1.77,7.73,4.44,10.88-.49-2.11-.71-4.21-.19-6.44.13.23.22.38.3.54,1.1,2.22,2.2,4.45,3.29,6.67.33.68.63,1.39.93,2.08,1.4,3.23,2.8,6.45,4.19,9.68,1.69,3.94,3.17,7.95,4.06,12.16.63,3.03.9,6.09.79,9.18-.24,6.81-1.77,13.32-4.57,19.54-2.45,5.45-5.9,10.18-10.34,14.18-2.3,2.07-4.82,3.84-7.52,5.34-4.79,2.66-9.91,4.38-15.28,5.38-3.8.71-7.64.91-11.49.66-3.58-.23-7.08-.92-10.37-2.42-.81-.37-1.58-.81-2.45-1.26,1.83-2.27,2.94-4.76,3.59-7.55.41.03.78.07,1.15.08,6.52.11,11.91-2.25,16.07-7.32,2.96-3.6,4.73-7.74,5.64-12.29.42-2.12.63-4.25.69-6.41.14-5.29-.71-10.42-2.28-15.45-.89-2.84-1.85-5.65-2.71-8.49-1.1-3.66-1.87-7.39-2.28-11.2-.09-.81-.22-1.62-.26-2.44-.03-.7-.01-1.42.12-2.11.53-2.71,1.42-5.32,2.6-7.82.06-.12.13-.24.19-.35Z" style="fill:#ff6f0d; stroke-width:0px;"/><path d="m117.44,110.58c-.33-.11-.23-.4-.22-.62.03-3.73.5-7.39,1.49-10.99.54-1.97,1.14-3.93,2.05-5.77,1.8-3.63,4.46-6.52,7.68-8.91,5.02-3.72,10.64-6.06,16.82-7,1.49-.23,2.98-.34,4.48-.28.29.01.58.06.91.26-.25.12-.5.25-.76.37-1.77.81-3.45,1.76-4.96,2.99-.89.73-1.7,1.54-2.27,2.55-.13.23-.22.47-.29.75,2.24-1.59,4.73-2.47,7.43-2.68.85-.07,1.73-.13,2.67.22-3.36,1.69-6.05,3.95-7.58,7.37-.65,1.45-.98,2.98-.88,4.75.22-.22.36-.33.46-.46,1.15-1.48,2.58-2.58,4.41-3.09.25-.07.51-.1.85-.16-.07.21-.08.32-.13.41-1.31,2.29-1.73,4.81-1.86,7.39-.17,3.35.21,6.64,1.05,9.89.06.23.05.48.08.72-.14-.18-.32-.33-.42-.53-.83-1.66-1.66-3.32-2.13-5.12-.03-.1-.08-.2-.15-.38-.69,2.12-.95,4.18-.64,6.33-2.11-2.99-3.38-6.24-3.17-10-.62.09-.92.52-1.22.92-.81,1.09-1.32,2.33-1.58,3.65-.21,1.04-.27,2.1-.37,3.16-.03.34,0,.69-.07,1.05-1.32-1.99-2.07-4.2-2.53-6.53-.46-2.35-.45-4.7.08-7.11-.6.04-1.01.3-1.41.57-1.04.73-1.88,1.66-2.6,2.7-1.73,2.49-2.57,5.27-2.76,8.27-.01.21-.02.42-.16.7-.13-.21-.28-.42-.38-.65-.68-1.44-.85-2.97-.84-4.54,0-1.63.33-3.19,1.01-4.87-.43.13-.76.15-1.01.31-.48.31-.95.65-1.35,1.06-2.92,2.97-4.89,6.46-5.68,10.58-.01.07-.04.13-.13.4-.65-2-.65-3.86-.42-5.81-.93.73-2.47,4.36-3.51,8.14Zm3.4-8.2s.09.03.13.04c.04-.14.09-.27.13-.41-.04-.01-.08-.03-.13-.04-.05.14-.09.27-.14.41Z" style="fill:#f3e7df; stroke-width:0px;"/><path d="m50.59,182.98c-.81,1.37-2.01,2.19-3.54,2.57-1.23.31-2.47.59-3.85.92.05-.38.05-.62.11-.84.92-3.39,1.85-6.77,2.78-10.16.08-.28.19-.56.29-.85.82.12,1.59.24,2.36.36,0-.03.01-.07.02-.1-.74-.2-1.49-.41-2.32-.63.5-1.83.97-3.58,1.49-5.5.58.75,1.21,1.25,1.24,2.19.1,2.84.77,5.55,2.09,8.08.9,1.72,2.04,3.28,3.41,4.68.19.19.37.4.56.6.01.02,0,.05.01.2-1.82.11-3.65.21-5.53.32.38-.63.7-1.18,1.03-1.73.07-.25.13-.5.2-.75.04-.11.09-.23.13-.34-.04-.01-.07-.02-.11-.03-.02.12-.04.23-.05.35-.11.23-.22.46-.32.69Z" style="fill:#fd6e0d; stroke-width:0px;"/><path d="m86.49,155.77c-.23-.06-.49-.08-.69-.2-2.3-1.34-4.8-2.18-7.36-2.83-3.06-.78-6.2-.97-9.32-.69-3.83.35-7.34,1.74-10.48,3.99-2.6,1.86-4.7,4.19-6.21,7.03-1.03,1.94-1.72,4-2.1,6.15-.14.77-.18,1.57-.2,2.35-.03.98,0,1.96,0,2.94-.16-.91-.41-1.81-.46-2.72-.34-6.28,1.97-11.43,6.68-15.55,2.71-2.36,5.76-4.11,9.25-5.04,4.05-1.08,8.09-.9,12.11.23,2.88.81,5.58,2.01,8.05,3.72.26.18.5.41.74.62Z" style="fill:#f0a062; stroke-width:0px;"/><path d="m36.52,141.84c-.03.27-.04.54-.08.81-.19,1.34-.43,2.67-.56,4.02-.12,1.24-.18,2.5-.15,3.75.03,1.36.18,2.71.29,4.06.12,1.49.19,2.98.37,4.47.28,2.38.38,4.78.28,7.17-.06,1.65-.26,3.3-.45,4.94-.19,1.62-.42,3.23-.69,4.83-.52,3.1-1.38,6.11-2.94,8.86-.41.73-.92,1.41-1.46,2.06-.92,1.11-2.16,1.3-3.49.98-.92-.22-1.84-.5-2.75-.75-.93-.26-1.82-.21-2.68.29-.22.13-.5.16-.76.23.91-1.12,2.1-1.39,3.45-1.06.69.17,1.35.43,2.04.61,1.86.48,3.06.04,4.19-1.53.94-1.3,1.51-2.77,2.02-4.28.87-2.6,1.35-5.28,1.72-7.98.61-4.53.83-9.08.66-13.64-.07-1.82-.25-3.64-.43-5.46-.34-3.48-.21-6.92.72-10.31.19-.7.47-1.37.71-2.06Z" style="fill:#f0a062; stroke-width:0px;"/><path d="m49,169.58c-.26-.37-.58-.72-.77-1.12-.11-.24-.05-.58.02-.86,1.02-3.81,2.07-7.62,3.09-11.44.35-1.29.66-2.59.96-3.88.08-.33.08-.68.12-1.05,1.96.98,3.88,1.93,5.88,2.92-.23.18-.45.37-.68.54-2.54,1.94-4.75,4.17-6.25,7.04-1.19,2.28-1.91,4.68-2.11,7.25-.01.18-.05.36-.08.54-.06.02-.13.04-.19.06Z" style="fill:#d9c4b7; stroke-width:0px;"/><path d="m51.56,147.92c.22.08.49.11.67.26,1.53,1.21,3.23,2.12,5.07,2.72,1.2.4,2.46.63,3.69.94.31.08.64.13.95.19-.94.54-1.89,1.06-2.82,1.62-.32.19-.58.08-.84-.04-1.4-.66-2.78-1.34-4.19-2-1.11-.52-2.06-1.13-2.13-2.54-.02-.39-.26-.76-.4-1.14Z" style="fill:#de4c03; stroke-width:0px;"/><path d="m47.67,186c0-.07,0-.14,0-.22.92-.45,1.91-.6,2.92-.64,1.6-.07,3.21-.17,4.81-.23.25,0,.56.04.75.19.63.46,1.22.98,1.92,1.56-1.18.14-2.24-.02-3.29-.18-1.24-.19-2.47-.41-3.7-.61-1.14-.19-2.28-.07-3.41.14Z" style="fill:#fcfcfc; stroke-width:0px;"/><path d="m17.53,188.84c.15-.12.3-.23.45-.35.02.02.04.04.07.07-.16.21-.31.42-.47.63-.02-.12-.03-.23-.05-.35Z" style="fill:#de4c03; stroke-width:0px;"/><path d="m36.67,141.39c-.05.15-.11.31-.16.46.05-.15.11-.31.16-.46Z" style="fill:#f0a062; stroke-width:0px;"/><path d="m11.79,183.45c-.14.11-.28.22-.42.34.14-.11.28-.22.42-.34Z" style="fill:#f0a062; stroke-width:0px;"/><path d="m86.97,156.11c-.11-.06-.22-.12-.33-.18.11.06.22.12.33.18Z" style="fill:#f0a062; stroke-width:0px;"/><path d="m148.86,108.27c.22.09.24.2.02.32,0-.11-.01-.21-.02-.32Z" style="fill:#f3e7df; stroke-width:0px;"/><path d="m86.65,155.94c-.06-.06-.12-.11-.17-.17.06.06.12.11.17.17Z" style="fill:#f0a062; stroke-width:0px;"/><path d="m87.15,156.3c-.06-.07-.13-.13-.19-.2.06.07.13.13.19.2Z" style="fill:#f0a062; stroke-width:0px;"/><path d="m21.45,187.54c-.06.06-.11.11-.17.17.06-.06.11-.11.17-.17Z" style="fill:#f0a062; stroke-width:0px;"/><path d="m21.29,187.71c-.07.06-.15.11-.22.17.07-.06.15-.11.22-.17Z" style="fill:#f0a062; stroke-width:0px;"/><path d="m10.82,192.13s.04.06.06.09c-.03-.02-.06-.04-.09-.06,0,0,.03-.03.03-.03Z" style="fill:#fe6f0d; stroke-width:0px;"/><path d="m20.2,196.34s.02.08.04.13c-.04-.01-.08-.03-.12-.04.03-.03.05-.06.08-.08Z" style="fill:#ff6f0d; stroke-width:0px;"/><path d="m143.87,82.47c-.07,0-.13.01-.2.02.04-.04.07-.07.11-.11.03.03.06.06.09.09Z" style="fill:#fff; stroke-width:0px;"/><path d="m69.41,53.96c-.53-1.71-1.16-3.39-2.11-4.92-.6-.96-1.3-1.87-2.02-2.74-.56-.67-1.28-1.17-2.13-1.44-.3-.09-.46-.25-.44-.57.43-1.48,2.68-1.82,3.97-.87.45.34.88.75,1.2,1.21,1.92,2.75,2.4,5.79,1.69,9.04-.02.1-.1.19-.16.28Zm-5.86-10.07c-.06.06-.11.12-.17.19-.05.39.23.51.51.64,1.07.49,1.88,1.32,2.55,2.23.96,1.3,1.84,2.68,2.41,4.22.06.17.28.29.42.43.04.05.08.1.13.15.02-.02.04-.04.04-.06-.05-.87-.03-1.74-.17-2.59-.33-2-1.1-3.8-2.65-5.19-.71-.63-2.29-.97-3.07-.02,0,0,0,0,0,0Z" style="fill:#171716; stroke-width:0px;"/><path d="m42.69,39.26c-.05,0-.13.02-.16,0-1.49-1.31-3.32-1.49-5.18-1.48-1.19,0-2.39.05-3.53.45-.2,0-.41.02-.61.03.01-.08,0-.15.03-.18,2.16-2,4.69-2.93,7.64-2.51.87.12,1.6.52,2.06,1.32.5.87.43,1.62-.25,2.38Zm-6.83-2.38c-.34.16-.69.32-1.03.49.27.11.5.14.73.11,2.29-.29,4.54-.24,6.62.96.11.06.26.05.4.07q.34-.31.26-.66c-.28-1.19-1.19-1.88-2.56-1.97-1.21-.08-2.38.11-3.51.5-.32.11-.6.33-.9.5Z" style="fill:#171716; stroke-width:0px;"/><path d="m71.47,40.86c.01-.13.02-.19.02-.24,0,.03.02.07.03.1,0,.02-.01.04-.05.14Z" style="fill:#662a0f; stroke-width:0px;"/><path d="m37.65,138.73c-.07-.38.03-.52.34-.5-.11.17-.23.33-.34.5Z" style="fill:#662a0f; stroke-width:0px;"/><path d="m48.27,189.58c.07,0,.14,0,.21.01,0,0,0,.02,0,.03h-.21s0-.03,0-.04Z" style="fill:#662a0f; stroke-width:0px;"/><path d="m52.57,191.65c.1-.05.19-.09.29-.14,0,.03.02.06.03.09-.11.01-.22.02-.33.03,0,0,0,0,0,0Z" style="fill:#662a0f; stroke-width:0px;"/><path d="m48.81,145.12s-.04-.03-.06-.04l.05.05s0,0,0,0Z" style="fill:#662a0f; stroke-width:0px;"/><path d="m48.8,145.13s.05.02.07.03c-.02-.01-.04-.02-.07-.03,0,0,0,0,0,0Z" style="fill:#662a0f; stroke-width:0px;"/><path d="m49.31,145.45s-.07-.04-.1-.06c.02,0,.05,0,.06,0,.02.02.02.05.03.07,0,0,.01-.01.01-.01Z" style="fill:#662a0f; stroke-width:0px;"/><path d="m22.77,190.67s.04-.05.06-.08c0,.01,0,.03-.01.04-.01.01-.04.02-.05.03,0,0,0,0,0,0Z" style="fill:#662a0f; stroke-width:0px;"/><path d="m22.76,190.66c-.06.06-.11.11-.17.17,0,0,.01.01.01.01.05-.06.11-.11.16-.17,0,0,0,0,0,0Z" style="fill:#662a0f; stroke-width:0px;"/><polygon points="28.34 192.14 28.35 192.12 28.33 192.13 28.34 192.14" style="fill:#662a0f; stroke-width:0px;"/><polygon points="28.33 192.13 28.31 192.16 28.34 192.14 28.33 192.13" style="fill:#662a0f; stroke-width:0px;"/><path d="m27.85,192.47s.03-.04.04-.06c-.02.02-.03.03-.05.05,0,0,0,0,0,0Z" style="fill:#662a0f; stroke-width:0px;"/><path d="m27.84,192.46c-.05.05-.11.11-.16.16h.01c.05-.05.11-.1.16-.16,0,0,0,0,0,0Z" style="fill:#662a0f; stroke-width:0px;"/><path d="m27.67,192.62c-.05.05-.11.11-.16.16,0,0,.01.01.01.01.05-.05.11-.11.16-.16,0,0-.01,0-.01,0Z" style="fill:#662a0f; stroke-width:0px;"/><path d="m27.36,192.96c.06-.05.11-.11.17-.16,0,0-.01-.01-.01-.01-.05.05-.11.11-.16.16,0,0,0,0,0,0Z" style="fill:#662a0f; stroke-width:0px;"/><path d="m27.35,192.95s-.02.09-.03.13c.01-.04.03-.08.04-.12,0,0,0,0,0,0Z" style="fill:#662a0f; stroke-width:0px;"/><path d="m18.92,67.66c.13.31.27.61.4.92-.33-.01-.29.24-.34.45-.27,1.26-.12,2.5.19,3.72.59,2.31,1.58,4.41,3.43,6,1.5,1.28,3.25,2.07,5.17,2.5.17.04.35,0,.61,0-.66-.74-1.27-1.42-1.87-2.09.07-.07.14-.14.21-.22.12.11.24.22.35.34,1.34,1.53,3,2.57,4.9,3.28,3.98,1.49,8.08,2.2,12.32,1.93,2.76-.18,5.43-.8,8-1.8.07-.03.13-.09.3-.21-.41-.23-.78-.43-1.14-.64.06-.04.12-.08.18-.13,1.46.26,2.29,1.28,2.9,2.51.2.4.26.86.26,1.35-.12-.2-.24-.4-.41-.7-.23.33-.42.58-.59.84-1.74,2.69-3.73,5.18-6.03,7.41-2.27,2.19-4.76,4.08-7.65,5.4-1.83.84-3.73,1.39-5.74,1.5-1.12.06-2.24-.07-3.29-.51-1.96-.81-2.96-2.31-3.08-4.42-.08-1.41.31-2.75.58-4.12.31-1.58.67-3.15.95-4.73.21-1.18.35-2.38.11-3.58-.05-.24-.1-.47-.13-.64-1.21-.3-2.37-.49-3.47-.87-4.18-1.45-6.49-4.52-7.37-8.75-.33-1.59-.33-3.19.23-4.76Zm9.57,27.52c.04.35.04.71.14,1.05.52,1.82,1.84,2.77,3.6,3.19,1.32.32,2.65.21,3.97-.05,2.38-.48,4.55-1.48,6.58-2.8.57-.37,1.09-.81,1.63-1.21.11-.05.21-.11.32-.16.11-.08.23-.14.34-.23,3.47-2.76,6.26-6.12,8.64-9.83.56-.87.53-1.01-.15-1.76-.16-.18-.35-.33-.53-.5-.18.06-.34.1-.49.16-3.86,1.49-7.84,2.15-11.99,1.84-2.48-.19-4.9-.64-7.26-1.43-1.03-.34-2.04-.74-3.07-1.11-.04-.02-.08-.04-.12-.06,0,.06,0,.12.01.18.02.38.03.76.05,1.14.09,2.14-.48,4.19-.89,6.26-.29,1.49-.54,2.98-.81,4.47-.12.29-.18.59.05.86Zm.13-13.85l-.06-.03v.05s.06-.02.06-.02Z" style="fill:#886f64; stroke-width:0px;"/><path d="m26.72,78.94c-.07.07-.14.14-.21.22-.6-.63-1.01-1.36-1.19-2.24.47.67.93,1.35,1.4,2.02Z" style="fill:#907b70; stroke-width:0px;"/><path d="m51.63,81.71c-.06.04-.12.08-.18.13-.2-.05-.41-.1-.61-.15,0-.04.01-.08.02-.12.26.05.51.1.77.15Z" style="fill:#907b70; stroke-width:0px;"/><path d="m45.5,74.72c-.1-.19-.2-.38-.31-.57.04-.03.08-.05.12-.08.08.2.16.39.25.59-.02.02-.04.04-.06.06Z" style="fill:#d9c4b7; stroke-width:0px;"/><polygon points="54.93 85.98 54.96 85.98 54.95 86.03 54.93 85.98" style="fill:#886f64; stroke-width:0px;"/><path d="m45.57,74.66l.05.12s-.08-.04-.12-.06c.02-.02.04-.04.06-.06Z" style="fill:#d9c4b7; stroke-width:0px;"/><path d="m24.73,121.38s.02-.03.03-.05c-.01.01-.03.03-.04.04,0,0,0,0,0,0Z" style="fill:#8f776a; stroke-width:0px;"/><path d="m13.27,186.24s.03-.04.04-.06c-.02.02-.03.04-.05.06,0,0,0,0,0,0Z" style="fill:#662a0f; stroke-width:0px;"/><path d="m13.26,186.23c-.05.05-.11.11-.16.16,0,0,.01,0,.01,0,.05-.05.11-.11.16-.16,0,0,0,0,0,0Z" style="fill:#662a0f; stroke-width:0px;"/><path d="m13.1,186.4s-.04.07-.06.1c0-.02,0-.04,0-.05.02-.02.04-.03.07-.04,0,0-.01,0-.01,0Z" style="fill:#662a0f; stroke-width:0px;"/><path d="m12.76,186.88s.04-.08.07-.12c-.01.05-.03.09-.04.14,0,0-.02-.02-.02-.02Z" style="fill:#662a0f; stroke-width:0px;"/><path d="m17.98,188.5s.08-.04.12-.06c-.02.04-.03.08-.05.13-.02-.02-.05-.04-.07-.07Z" style="fill:#de4c03; stroke-width:0px;"/><path d="m58.38,75.03s-.09,0-.14,0c.16-.24.05-.32-.19-.35-.64-.08-1.3-.1-1.92-.26-1.17-.3-2.31-.69-3.47-1.05-.34-.27-.67-.55-1.15-.49-.07-.09-.11-.22-.2-.28-.88-.5-1.63-1.16-2.31-1.9-.55-.87-.69-1.81-.57-2.82.42-3.65,1.85-6.87,4.19-9.69.67-.8,1.45-1.48,2.37-1.99,2.51-1.41,5.3-.71,6.84,1.73.63,1.01,1,2.11,1.23,3.27.55,2.83.36,5.65-.25,8.44-.27,1.23-.63,2.42-1.24,3.53-.41.74-1.02,1.2-1.85,1.34-.4.07-.81.1-1.21.16-.24.03-.23.17-.11.34Zm1.9-9.36c0-.19.01-.38,0-.57-.21-2.37-2.23-3.87-4.55-3.37-2.63.57-4.58,3.5-4.09,6.14.42,2.29,2.32,3.57,4.56,3.08,2.29-.5,4.09-2.82,4.08-5.28Z" style="fill:#fcfcfc; stroke-width:0px;"/><path d="m58.38,75.03c-.12-.17-.12-.3.11-.34.4-.06.81-.09,1.21-.16.83-.15,1.44-.6,1.85-1.34.61-1.11.97-2.31,1.24-3.53.61-2.8.8-5.61.25-8.44-.22-1.16-.59-2.27-1.23-3.27-1.54-2.44-4.32-3.15-6.84-1.73-.91.51-1.7,1.19-2.37,1.99-2.34,2.82-3.77,6.03-4.19,9.69-.12,1.01.02,1.95.57,2.82-.07.08-.14.16-.21.24-.63-.65-.78-1.48-.8-2.33-.03-1.57.32-3.09.81-4.57.78-2.35,1.88-4.53,3.49-6.43.87-1.03,1.87-1.91,3.12-2.47,2.33-1.04,4.89-.42,6.48,1.57.87,1.09,1.38,2.36,1.63,3.71.78,4.1.29,8.09-1.13,11.98-.02.05-.04.1-.07.15-.86,1.94-1.81,2.54-3.95,2.48Z" style="fill:#171716; stroke-width:0px;"/><path d="m55.69,52.73c1.69-.96,4.76-.68,6.11.93.24.28.43.6.65.9l-.14.13c-.26-.26-.51-.55-.79-.79-.29-.25-.59-.49-.92-.68-.35-.2-.74-.36-1.12-.47-.36-.11-.75-.15-1.12-.18-.41-.02-.82-.02-1.22.03-.38.04-.74.15-1.12.22-.11-.03-.22-.07-.33-.1Z" style="fill:#907b70; stroke-width:0px;"/><path d="m52.66,73.37c1.16.35,2.3.74,3.47,1.05.62.16,1.28.18,1.92.26.24.03.35.11.19.35-1.92.05-3.7-.52-5.44-1.25-.18-.07-.37-.18-.14-.41Z" style="fill:#171716; stroke-width:0px;"/><path d="m48.79,70.93c.07-.08.14-.16.21-.24.68.74,1.43,1.4,2.31,1.9.09.05.14.18.2.28-.08.05-.2.16-.23.14-.94-.56-1.87-1.14-2.49-2.08Z" style="fill:#242323; stroke-width:0px;"/><path d="m55.69,52.73c.11.03.22.07.33.1-.23.09-.46.18-.69.28-.02-.06-.05-.12-.07-.18l.44-.2Z" style="fill:#d9c4b7; stroke-width:0px;"/><path d="m62.48,54.99s-.03-.03-.03-.05c0-.02.03-.03.04-.05.01.02.03.03.03.05,0,.02-.03.03-.04.05Z" style="fill:#907b70; stroke-width:0px;"/><path d="m26.49,60.28c-.38-.05-.75-.09-1.13-.16-1.25-.23-2.49-.15-3.73.07-.53-.33-1.1-.61-1.59-.99-1.97-1.57-2.49-3.86-1.42-6.14.54-1.15,1.29-2.15,2.17-3.05,1.98-2.03,4.24-3.59,7.06-4.18.65-.14,1.36-.15,2.03-.08,1.59.17,2.74,1.56,2.88,3.37.12,1.55-.2,3.03-.76,4.47-.8,2.03-2,3.8-3.52,5.35-.06.06-.12.11-.18.17l-.04.04s0,0,0,0c-.13.09-.27.16-.37.27-.14.15-.08.28.12.33-.19.08-.38.15-.57.23-.08-.02-.19-.09-.25-.06-.24.12-.46.26-.69.39Zm-3.14-7.45c-.06.09-.13.19-.19.28-.75,1.23-1.11,2.53-.72,3.95.34,1.23,1.32,1.95,2.59,1.92.99-.02,1.84-.4,2.58-1.04,1.61-1.29,2.48-2.94,2.37-5.03-.09-1.71-1.48-2.85-3.1-2.57-.7.12-1.37.36-1.93.82-.5.5-1,1-1.5,1.5l-.11.16Z" style="fill:#fcfcfc; stroke-width:0px;"/><path d="m29.63,43.7c1.79-1.17,4.91.13,4.85,2.95-.76-2.4-2.39-3.37-4.85-2.95Z" style="fill:#907b70; stroke-width:0px;"/><path d="m26.49,60.28c.23-.13.45-.28.69-.39.06-.03.16.04.25.06.12.39-.32.32-.43.52-.17-.06-.33-.12-.5-.18Z" style="fill:#171716; stroke-width:0px;"/><path d="m28,59.71c-.2-.05-.26-.17-.12-.33.1-.11.25-.18.37-.27.33.37,0,.46-.25.59Z" style="fill:#242323; stroke-width:0px;"/><path d="m28.56,59.27l-.25.1c-.02-.08-.04-.17-.06-.25,0,0,.04-.04.04-.04.07.01.13.03.2.04.03.05.05.1.08.15Z" style="fill:#171716; stroke-width:0px;"/><path d="m28.49,59.12c-.07-.01-.13-.03-.2-.04.06-.06.12-.11.18-.17,0,.07,0,.14.01.21Z" style="fill:#242323; stroke-width:0px;"/><path d="m23.78,60.44c3.31-.05,5.61,1.59,7.22,4.35.61,1.04.53,2.08-.17,3.06-1,1.39-2.24,2.52-3.72,3.37-.35.2-.73.37-1.09.56-1.72.91-3.21.49-4.55-.76-1.26-1.18-1.95-2.67-2.29-4.33-.21-.99-.2-1.98-.03-3,.32-1.92,1.8-3.09,3.66-3.25.32-.03.65,0,.98,0Zm0,.44c-.37.07-.75.1-1.1.21-.15.05-.33.25-.34.39,0,.14.16.35.3.42.97.5,1.99.66,3.05.31.4-.13.45-.5.1-.72-.6-.39-1.27-.6-2.01-.6Z" style="fill:#fe857a; stroke-width:0px;"/><path d="m120.84,102.38c.05-.14.09-.27.14-.41.04.01.08.03.13.04-.04.14-.09.27-.13.41-.04-.01-.09-.03-.13-.04Z" style="fill:#886f64; stroke-width:0px;"/><path d="m50.95,182.32c-.07.25-.13.5-.2.75-.05-.03-.11-.06-.16-.1.11-.23.22-.46.32-.69,0,0,.03.03.03.03Z" style="fill:#de4c03; stroke-width:0px;"/><path d="m50.92,182.29c.02-.12.04-.23.05-.35.04.01.07.02.11.03-.04.11-.09.23-.13.34,0,0-.03-.03-.03-.03Z" style="fill:#de4c03; stroke-width:0px;"/><path d="m69.27,51.6c-.15-.14-.36-.26-.42-.43-.57-1.54-1.45-2.92-2.41-4.22-.67-.91-1.49-1.73-2.55-2.23-.28-.13-.55-.25-.5-.64.06-.06.11-.12.17-.19,0,0,0,0,0,0,1.21-.11,2.15.4,2.97,1.24,1.76,1.8,2.46,4.04,2.75,6.46Z" style="fill:#242323; stroke-width:0px;"/><path d="m69.27,51.6c-.29-2.42-.99-4.66-2.75-6.46-.82-.84-1.76-1.35-2.97-1.24.78-.95,2.36-.62,3.07.02,1.56,1.39,2.32,3.19,2.65,5.19.14.85.12,1.73.17,2.59,0,.02-.03.04-.04.06-.04-.05-.08-.1-.13-.15Z" style="fill:#3c3c3c; stroke-width:0px;"/><path d="m63.55,43.89c-.06.06-.11.12-.17.19.06-.06.11-.12.17-.19Z" style="fill:#3c3c3c; stroke-width:0px;"/><path d="m42.57,38.5c-.13-.02-.29,0-.4-.07-2.08-1.2-4.32-1.25-6.62-.96-.23.03-.47,0-.73-.11.34-.16.69-.32,1.03-.49.19-.02.38-.03.57-.07,1.16-.28,2.31-.49,3.52-.3.76.12,1.41.39,2,.82.38.28.66.65.62,1.18Z" style="fill:#242323; stroke-width:0px;"/><path d="m42.57,38.5c.04-.52-.23-.9-.62-1.18-.6-.43-1.25-.7-2-.82-1.22-.19-2.36.02-3.52.3-.18.04-.38.05-.57.07.3-.17.58-.39.9-.5,1.14-.39,2.31-.58,3.51-.5,1.37.09,2.28.78,2.56,1.97q.08.35-.26.66Z" style="fill:#3c3c3c; stroke-width:0px;"/><path d="m30.2,82.33c1.02.37,2.03.76,3.07,1.11,2.36.78,4.78,1.24,7.26,1.43,4.15.31,8.13-.34,11.99-1.84.15-.06.31-.1.49-.16.18.17.37.33.53.5.68.75.71.89.15,1.76-2.38,3.72-5.17,7.08-8.64,9.83-.11.08-.22.15-.34.23-1.17-2.21-3.2-3-5.51-3.27-.5-.06-.96-.1-1.38-.4-.17-.12-.39-.19-.59-.27-2.5-.96-4.75-.28-6.9,1.06-.81.5-1.33,1.28-1.89,2.01.27-1.49.52-2.99.81-4.47.41-2.07.98-4.12.89-6.26-.02-.38-.03-.76-.05-1.14.04-.04.08-.08.11-.11Z" style="fill:#350101; stroke-width:0px;"/><path d="m44.39,95.35c-.54.41-1.06.84-1.63,1.21-2.03,1.32-4.19,2.31-6.58,2.8-1.32.27-2.65.37-3.97.05-1.76-.42-3.08-1.37-3.6-3.19-.09-.33-.09-.7-.14-1.05.07-.12.13-.24.2-.36,1.55-2.71,4-3.68,6.99-3.55.62.03,1.27.18,1.87.64-.45.18-.84.29-1.19.47-.92.47-1.81.98-2.28,1.98-.02,0-.04.01-.06.03,0,0,0,.03-.01.04.02-.03.04-.05.06-.08.22-.14.45-.27.66-.44,1.43-1.15,2.97-1.84,4.87-1.54,2.03.32,3.71,1.17,4.8,2.99Z" style="fill:#fe968c; stroke-width:0px;"/><path d="m44.39,95.35c-1.09-1.82-2.76-2.66-4.8-2.99-1.9-.3-3.45.39-4.87,1.54-.2.16-.44.29-.66.44h.01c.46-.99,1.35-1.5,2.28-1.97.35-.18.73-.29,1.19-.47-.6-.47-1.24-.62-1.87-.64-2.98-.13-5.44.84-6.99,3.55-.07.12-.13.24-.2.36-.23-.27-.17-.56-.05-.86.56-.73,1.08-1.51,1.89-2.01,2.15-1.34,4.4-2.01,6.9-1.06.2.08.42.15.59.27.42.3.88.34,1.38.4,2.31.27,4.34,1.06,5.51,3.27-.11.05-.21.11-.32.16Z" style="fill:#b24846; stroke-width:0px;"/><path d="m30.08,82.44c0-.06,0-.12-.01-.18.04.02.08.04.12.06-.04.04-.07.08-.11.11Z" style="fill:#350101; stroke-width:0px;"/><polygon points="28.61 81.33 28.55 81.34 28.56 81.3 28.61 81.33" style="fill:#f3e8e0; stroke-width:0px;"/><path d="m60.28,65.66c0,2.46-1.79,4.78-4.08,5.28-2.24.49-4.13-.79-4.56-3.08-.49-2.65,1.46-5.58,4.09-6.14,2.31-.5,4.34,1,4.55,3.37.02.19,0,.38,0,.57Zm-1.33,2.95c.93-1.15,1.21-2.5.94-3.9-.42-2.17-2.55-3.3-4.45-2.58-1.34.51-2.45,1.27-2.9,2.73-.15.25-.39.48-.43.75-.11.64-.22,1.29-.17,1.93.16,2.21,2.13,3.52,3.93,3.17,1.3-.26,2.34-.98,3.08-2.1Z" style="fill:#164999; stroke-width:0px;"/><path d="m24.95,51.17c.56-.47,1.22-.7,1.93-.82,1.62-.28,3.01.86,3.1,2.57.11,2.09-.76,3.74-2.37,5.03-.04-.05-.07-.09-.11-.14.33-.38.65-.77.98-1.15.93-1.15,1.41-2.44,1.17-3.94-.26-1.61-1.64-2.46-3.2-1.97-.47.14-.9.37-1.35.56-.05-.05-.09-.1-.14-.14Z" style="fill:#164999; stroke-width:0px;"/><path d="m27.61,57.94c-.74.64-1.59,1.02-2.58,1.04-1.27.03-2.25-.69-2.59-1.92-.39-1.43-.03-2.73.72-3.95.04.04.08.09.11.13-.08.2-.15.41-.23.6-.36.81-.51,1.65-.44,2.54.1,1.2,1.05,2.34,2.4,2.27.71-.03,1.33-.23,1.93-.56.19-.1.38-.2.57-.3.04.05.07.09.11.14Z" style="fill:#164999; stroke-width:0px;"/><path d="m23.45,52.67c.5-.5,1-1,1.5-1.5.05.05.09.1.14.14-.49.49-.98.97-1.47,1.46-.05-.03-.11-.07-.16-.1Z" style="fill:#164999; stroke-width:0px;"/><path d="m23.16,53.11c.06-.09.13-.19.19-.28.03.03.06.06.09.09-.05.11-.11.22-.16.33-.04-.04-.08-.09-.11-.13Z" style="fill:#164999; stroke-width:0px;"/><path d="m23.35,52.83c.04-.05.07-.11.11-.16.05.03.11.07.16.1,0,.05-.02.09-.03.14-.05,0-.1,0-.16.01-.03-.03-.06-.06-.09-.09Z" style="fill:#164999; stroke-width:0px;"/><path d="m23.77,60.88c.74,0,1.41.21,2.01.6.35.23.3.59-.1.72-1.06.36-2.08.19-3.05-.31-.14-.07-.31-.28-.3-.42,0-.14.19-.34.34-.39.35-.11.73-.15,1.1-.21Z" style="fill:#d9c4b7; stroke-width:0px;"/><path d="m34.06,94.34s-.04.05-.06.08c0-.01,0-.04.01-.04.02-.01.04-.02.06-.03,0,0-.01,0-.01,0Z" style="fill:#b24846; stroke-width:0px;"/><path d="m52.54,64.86c.45-1.46,1.56-2.22,2.9-2.73,1.9-.72,4.02.41,4.45,2.58.27,1.4,0,2.75-.94,3.9-.29.04-.58.11-.87.12-.19,0-.39-.06-.59-.09.19-.3.4-.58.56-.89.55-1.14.59-2.71-.79-3.69.03-.16.07-.32.08-.48.03-.72-.34-1.2-.97-1.27-.62-.07-1.23.41-1.33,1.06-.03.21,0,.43,0,.65-.9.4-1.48,1.1-1.86,1.97-.11-.12-.25-.23-.32-.38-.13-.24-.22-.51-.33-.77Z" style="fill:#028ff9; stroke-width:0px;"/><path d="m57.49,68.65c.2.03.39.1.59.09.29-.01.58-.08.87-.12-.74,1.12-1.78,1.84-3.08,2.1-1.8.36-3.77-.95-3.93-3.17-.05-.64.06-1.3.17-1.93.05-.27.28-.5.43-.75.11.26.2.52.32.77.08.14.21.25.32.38-.05.56-.18,1.13-.13,1.69.1,1.18,1.03,1.94,2.2,1.97.92.02,1.59-.45,2.23-1.01Z" style="fill:#0062cb; stroke-width:0px;"/><path d="m23.59,52.91s.02-.09.03-.14c.49-.49.98-.97,1.47-1.46.45-.19.89-.42,1.35-.56,1.57-.48,2.94.36,3.2,1.97.24,1.49-.24,2.78-1.17,3.94-.23.04-.46.11-.69.12-.16,0-.31-.08-.47-.13.26-.47.6-.91.78-1.41.34-.97.34-1.92-.56-2.65.05-.18.12-.36.14-.54.05-.4-.01-.76-.4-.97-.34-.19-.75-.11-1.12.2-.41.34-.51.8-.49,1.31-.89.35-1.41,1.08-1.87,1.85-.43-.45-.15-1-.21-1.51Z" style="fill:#028ff9; stroke-width:0px;"/><path d="m27.32,56.64c.16.05.31.13.47.13.23,0,.46-.07.69-.12-.33.38-.65.77-.98,1.15-.19.1-.38.2-.57.3-.6.33-1.22.52-1.93.56-1.35.06-2.3-1.08-2.4-2.27-.08-.89.08-1.73.44-2.54.09-.2.16-.4.23-.6.05-.11.11-.22.16-.33.05,0,.1,0,.16-.01.07.5-.22,1.06.21,1.51-.1.4-.24.78-.29,1.19-.2,1.58,1.09,2.57,2.55,1.91.46-.21.84-.58,1.26-.88Z" style="fill:#0062cb; stroke-width:0px;"/><path d="m57.49,68.65c-.64.57-1.31,1.03-2.23,1.01-1.17-.03-2.1-.79-2.2-1.97-.05-.55.08-1.12.13-1.69.39-.88.96-1.58,1.86-1.97.64.78,1.21.91,1.87.39.13-.1.23-.23.34-.35,1.38.98,1.34,2.55.79,3.69-.15.31-.37.59-.56.89Z" style="fill:#010204; stroke-width:0px;"/><path d="m57.26,64.07c-.11.12-.21.25-.34.35-.65.51-1.22.39-1.87-.39,0-.22-.04-.44,0-.65.09-.65.7-1.13,1.33-1.06.63.07,1,.55.97,1.27,0,.16-.05.32-.08.48Z" style="fill:#fcfcfc; stroke-width:0px;"/><path d="m27.32,56.64c-.42.3-.8.67-1.26.88-1.46.66-2.76-.33-2.55-1.91.05-.4.19-.79.29-1.19.47-.78.99-1.5,1.87-1.85.53.75.94.81,1.63.23.08-.07.16-.14.24-.22.9.73.9,1.68.56,2.65-.18.5-.51.94-.78,1.41Z" style="fill:#010204; stroke-width:0px;"/><path d="m27.54,52.58c-.08.07-.15.15-.24.22-.7.58-1.1.52-1.63-.23-.02-.5.09-.96.49-1.31.36-.31.78-.38,1.12-.2.39.22.45.58.4.97-.02.18-.09.36-.14.54Z" style="fill:#fcfcfc; stroke-width:0px;"/></g></svg>