<?xml version="1.0" encoding="UTF-8"?><svg id="_Слой_2" xmlns="http://www.w3.org/2000/svg" width="211.4" height="202" viewBox="0 0 211.4 202"><g id="_Слой_1-2"><path d="m132.9,167.45c-.94,1.26-5.95,6.78-9.26,10.4-.9.98-1.71,2.03-2.42,3.14h12.49c1.88.77,3.82,1.37,5.81,1.78l6.28,1.31,9,1.03,5.24,1.16,9.8,1.03,6.45,1.03,6.31,1.55,5.91,1.81,3.93.7c1.22.22,2.47.2,3.69-.04l2.16-.44c.71-.14,1.36-.52,1.84-1.07l.03-.03c.84-.96,1.05-2.33.52-3.49-.31-.68-.84-1.24-1.51-1.57l-.8-.4c-1-.5-2.12-.7-3.22-.57l-1.67.19c-.8.09-1.61.1-2.41.02l-4.03-.4c-2.95-.34-5.85-1.01-8.65-1.98l-.62-.22,13.43-.26,7.39.9,5.28,1.35c.51.13,1.02.19,1.54.19h.95c1.12,0,2.2-.47,2.96-1.29.69-.74,1.08-1.72,1.08-2.74,0-1.21-.54-2.35-1.48-3.11l-1.06-.86c-.63-.51-1.34-.91-2.11-1.17l-2.6-.89-.59-.13c-2.63-.59-5.34-.66-7.99-.18-1.17.21-2.36.31-3.55.31h-6.19c-4.35,0-8.68-.35-12.98-1.03l-6.58-.9c3.58-1.29,7.05-2.84,10.4-4.65l6.66-3.6,4.27-2.86c3.04-2.03,5.74-4.54,7.99-7.43l.16-.2c1.39-1.77,2.58-3.69,3.56-5.72l1.6-3.29c1.07-2.19,1.62-4.6,1.62-7.04v-.27c0-2.14-.46-4.25-1.35-6.2l-.04-.09c-1.02-2.23-2.6-4.17-4.57-5.63-1.82-1.34-3.92-2.23-6.14-2.62l-1.32-.23c-2.83-.49-5.74-.36-8.52.37l-2.57.67c-2.36.62-4.64,1.5-6.81,2.63l-3.83,2.01c-3.32,1.73-6.37,3.93-9.07,6.52-2.38,2.29-4.47,4.87-6.21,7.67l-5.3,8.55c-3.85,4.82-11.82,14.81-12.89,16.26Z" style="fill:#93c63a; stroke:#15582a; stroke-width:2px;"/><path d="m195.89,141.26l-.2.38c-.65,1.26-1.73,2.24-3.04,2.79h0c-.7.29-1.46.44-2.22.44h-.77c-1.56,0-3.09.38-4.47,1.11l-2.88,1.52c-1.24.66-2.42,1.43-3.52,2.3l-9.89,7.85-7.93,6.45-10.48,8.39" style="fill:none; stroke:#15582a; stroke-linecap:round; stroke-width:2px;"/><path d="m205.83,175.45h0c-1.63-.52-3.41-.24-5.1.04l-2.02.34c-1.3.3-4.03.9-4.57.9h-6.45l-5.64-.26-8.86-.64-6.31-.77" style="fill:none; stroke:#15582a; stroke-linecap:round; stroke-width:2px;"/><path d="m178.16,182.55l-3.89-1.55-4.16-1.68-3.36-1.16-4.84-1.68" style="fill:none; stroke:#15582a; stroke-linecap:round; stroke-width:2px;"/><path d="m46.83,125.38l11.65,8.91,19.61,36,1.28,2.87c.22.49.33,1.02.33,1.56v.05c0,.86-.3,1.69-.85,2.35-.5.6-1.17,1.02-1.92,1.2-1.79.44-4.14,1-4.49,1-2.24,0-4.39-.87-6.01-2.42l-.58-.55c-.8-.77-1.71-1.4-2.7-1.89l-6.16-3.01-5.1-2.84-3.22-1.42-4.84-2.84-.85-.6c-2.83-2-5.47-4.26-7.88-6.75l-3.36-4.52-2.55-4.52-.94-1.68-4.03-5.55-1.54-2.53c-1.09-1.78-1.53-3.89-1.26-5.96.17-1.29.61-2.53,1.29-3.64l.18-.3c.87-1.41,2.06-2.61,3.48-3.49l.57-.35c1.49-.93,3.14-1.56,4.87-1.86l.63-.11c1.77-.31,3.57-.33,5.34-.08l3.06.44c.92.13,1.82.36,2.69.69,1.18.44,2.29,1.06,3.3,1.83Z" style="fill:#93c63a; stroke:#15582a; stroke-width:2px;"/><path d="m34.71,147.19h0c2.11,0,4.19.56,6.02,1.61l1.24.71,4.16,2.71,2.01,1.16,8.89,4.77c4,2.15,7.78,4.7,11.26,7.62h0l6.98,4.9h0c1.51,1.02,2.85,2.29,3.95,3.75l.48.64" style="fill:none; stroke:#15582a; stroke-linecap:round; stroke-width:2px;"/><path d="m136.52,86.55l-5.51-8.9-80.99,2.32c-1.36,2.13-1.71,4.75-.96,7.16l2.17,6.91c2.39,5.71,3.63,11.83,3.63,18.02v5.59l.31,2.92c.69,6.55,2.07,13.02,4.13,19.28l4.57,9.29.96,1.59c4.55,7.53,9.66,14.7,15.3,21.45l.26.31,3.74,3.72c2.5,2.49,5.41,4.54,8.59,6.07l1.03.49c3.59,1.72,7.51,2.62,11.49,2.62h2.74c2.64,0,5.27-.34,7.83-1.01,6.4-1.69,12.08-5.4,16.2-10.57l1.5-1.89c2.01-2.53,3.7-5.31,5.01-8.27l2.26-5.1c2.01-4.55,4.43-8.89,7.24-13l1.69-2.48,6.18-7.61c-1.16-7.03-3.2-13.88-6.07-20.39l-.11-.25-3.63-9.55-4.84-9.94-4.7-8.77Z" style="fill:#93c63a; stroke:#15582a; stroke-width:2px;"/><path d="m71.82,91.39l-3.83-1.01c-4.77-1.25-9.27-3.39-13.27-6.29l.97,3.45c2.28,8.08,2.59,16.59.91,24.81l-.18.87c-1.12,5.48-1.24,11.12-.35,16.64.35,2.17.86,4.31,1.52,6.41l1.41,4.5c1.17,3.75,2.72,7.37,4.61,10.81,1.5,2.74,3.22,5.36,5.14,7.82l4.24,5.45,10.61,10.45,6.09,4.66c2.55,1.95,5.42,3.43,8.49,4.36,2.54.77,5.17,1.17,7.82,1.17h2.64c2.81,0,5.61-.42,8.3-1.23l2.03-.62c4.84-1.47,9.04-4.54,11.91-8.71,2.11-3.06,3.43-6.6,3.83-10.3l1.27-11.66v-4.96c0-7.6-1.78-15.09-5.19-21.87-1.55-3.09-3.43-6-5.6-8.69l-2.23-2.76c-2.78-3.45-5.84-6.68-9.15-9.64l-.94-.84-4.38-4.28c-2.23-2.18-3.29-5.28-2.87-8.36l-1.12.25c-7.35,1.63-14.92,2.08-22.41,1.34l-.81-.08c-3.2-.32-6.36-.89-9.47-1.7Z" style="fill:#fef495; stroke:#15582a; stroke-width:2px;"/><path d="m45.72,83.11v-2.62l6.72,3.74,6.31,48.52v.92c0,3.17-.22,6.33-.67,9.47-.45,3.14-.67,6.3-.67,9.47v2.34l1.34,11.1,1.34,7.74c1.02,0,2,.44,2.67,1.21l1.76,2.01,2.6,3.65c.59.83,1.31,1.55,2.14,2.14,1.55,1.1,3.39,1.69,5.29,1.69h1.86c1,0,1.81.81,1.81,1.81,0,.57-.27,1.1-.72,1.44l-1.13.85c-.8.6-1.78.93-2.79.93h-3.42c-1.28,0-1.76-1.84-2.78-2.63l-.56-.43c-.37-.28-.77-.54-1.18-.75l-.15-.08c-1.44-.75-3.03-1.15-4.65-1.15h-.76l-1.41,1.89c-.85,1.15-1.83,2.19-2.91,3.12l-2.32,1.99c-.76.65-1.36,1.48-1.74,2.4l-.17.4c-.71,1.7-2.2,2.94-4,3.33l-.54.12c-.92.2-1.88.07-2.72-.37l-.96-.49c-.76-.39-1.24-1.18-1.24-2.04,0-.81.43-1.57,1.13-1.98l1.65-.97c.48-.28.91-.63,1.28-1.04l2.53-2.74,1.75-2.06-26.46.39-4.44,2.18c-1.24.61-2.57,1.03-3.94,1.26l-.96.16c-1.11.18-2.25.16-3.35-.08l-1.25-.27c-.47-.1-.91-.3-1.29-.59l-.86-.65c-.28-.21-.45-.54-.45-.89,0-.62-.5-1.12-1.12-1.12h-2.21c-.63,0-1.24-.19-1.76-.55-1.19-.81-1.66-2.34-1.14-3.68l.03-.09c.28-.71.79-1.31,1.47-1.67l1.38-.75c1.64-.89,3.56-1.15,5.38-.7l3.49.86,3.17.64c1.73.35,3.5.53,5.27.53,2.51,0,5.01-.35,7.42-1.05l10.2-2.95,10.88-3.23-3.29-10.13c-2.98-9.19-4.5-18.79-4.5-28.45,0-5.32.51-10.63,1.52-15.85l2.1-10.86,1.36-11.22c.34-2.81.14-5.67-.6-8.41-.51-1.87-.76-3.81-.76-5.75Z" style="fill:#93c63a; stroke:#15582a; stroke-linejoin:round; stroke-width:2px;"/><path d="m13.62,183.71v-1.44h-.15s.15,1.44.15,1.44Zm14.77-2.06l-.36-1.39h-.06s-.05.03-.05.03l.47,1.36Zm7.39-1.94l.36,1.39h.04s.04-.02.04-.02l-.44-1.37Zm5.68-.31c.76-.24,1.17-1.05.93-1.81-.24-.76-1.05-1.17-1.81-.93l.88,2.74Zm-32.24,5.15l-.73-1.24.73,1.24Zm.33,1.47l.39-.23-1.46-2.48-.39.23,1.46,2.48Zm1.49-.59l2.73-.29-.31-2.86-2.73.29.31,2.86Zm2.58-.28h4.03v-2.88h-4.03v2.88Zm13.9-1.67l1.35-.47-.95-2.72-1.35.47.95,2.72Zm1.24-.44l7.39-1.94-.73-2.78-7.39,1.94.73,2.78Zm7.46-1.96l5.24-1.68-.88-2.74-5.24,1.68.88,2.74Zm-18.57,4.07c3.36,0,6.7-.57,9.87-1.67l-.95-2.72c-2.87,1-5.89,1.51-8.93,1.51v2.88Zm-7.71.65c.34-.2.71-.32,1.1-.36l-.31-2.86c-.79.08-1.56.34-2.25.74l1.46,2.48Zm-1.22,1.41c.09-.49.4-.92.83-1.18l-1.46-2.48c-1.15.67-1.95,1.81-2.2,3.12l2.83.54Z" style="fill:#15582a; stroke-width:0px;"/><path d="m35.26,39.17l3.62-1.52-.68-2.14c-.26-.81-.46-1.64-.6-2.48-.3-1.81-.33-3.67-.06-5.49l.04-.29c.15-1.07.4-2.12.73-3.15l1.01-3.18c.34-1.06.84-2.05,1.48-2.95l.97-1.36c.66-.92,1.01-2.01,1.01-3.14,0-.73.15-1.45.44-2.13l.55-1.27c.59-1.38,1.44-2.65,2.5-3.72l.41-.42c1.59-1.62,3.53-2.87,5.67-3.65l.59-.22c1.9-.69,3.91-1.05,5.94-1.05,1.53,0,3.06.2,4.54.61l.24.06c2.45.67,4.75,1.81,6.75,3.37l1.93,1.51,4.03,4.13c2.3-1.02,4.79-1.55,7.31-1.55h14.18l4.7-3.48c2.89-1.93,6.29-2.97,9.77-2.97h3.46c2.52,0,5,.58,7.26,1.69,1.73.85,3.29,1.99,4.62,3.38l.69.72c1.42,1.47,2.63,3.15,3.59,4.95,1.17,2.2,1.97,4.59,2.35,7.05l.25,1.59c.25,1.63.38,3.27.38,4.91v4.11l4.97,6.58,3.89,6.84,2.03,3.83c1.06,1.99,1.81,4.13,2.24,6.34.55,2.82.56,5.73.03,8.56l-.02.1c-.43,2.31-1.22,4.55-2.32,6.63l-.1.19c-1.23,2.32-2.83,4.44-4.72,6.26l-1.59,1.52c-2.13,2.05-4.49,3.84-7.03,5.35l-1.12.67c-2.78,1.65-5.72,3.03-8.78,4.11l-6.69,2.37-11.15,2.84-12.36,1.42h-3.51c-5.89,0-11.76-.47-17.58-1.42l-2.2-.63c-5.14-1.47-10.08-3.55-14.72-6.21l-4.57-3.23-4.97-3.35-4.84-4.26c-2.95-2.4-5.68-5.06-8.16-7.95l-.71-.82-1.67-2.52c-.77-1.16-1.42-2.38-1.96-3.66l-.51-1.22c-.81-1.93-1.23-4-1.23-6.09v-.38c0-2.17.5-4.3,1.46-6.25.72-1.46,1.69-2.79,2.87-3.92l.31-.29c1.46-1.41,3.17-2.53,5.04-3.32Z" style="fill:#93c63a; stroke:#15582a; stroke-linejoin:round; stroke-width:2px;"/><ellipse cx="114.49" cy="29.13" rx="19.21" ry="22.45" style="fill:#1c6a35; stroke-width:0px;"/><ellipse cx="113.82" cy="31.45" rx="15.72" ry="18.32" style="fill:#fef495; stroke-width:0px;"/><ellipse cx="48.47" cy="25.1" rx="17.87" ry="9.93" transform="translate(11.25 65.03) rotate(-74.38)" style="fill:#1c6a35; stroke-width:0px;"/><ellipse cx="48.04" cy="26.36" rx="14.46" ry="8.74" transform="translate(9.62 65.43) rotate(-74.24)" style="fill:#fef495; stroke-width:0px;"/><ellipse cx="48.08" cy="29.07" rx="10.39" ry="6.28" transform="translate(7.05 67.44) rotate(-74.24)" style="fill:#d67c2e; stroke-width:0px;"/><ellipse cx="48.18" cy="29.19" rx="6.44" ry="4.4" transform="translate(6.78 67.39) rotate(-73.91)" style="fill:#1d1d1d; stroke-width:0px;"/><path d="m81.48,39.45c-.48,1.42-2.45,2.79-2.72,2.71-.27-.08-1.09-2.32-.61-3.75.48-1.42,1.62-2.34,2.53-2.06.92.29,1.27,1.67.79,3.1Z" style="fill:#15582a; stroke-width:0px;"/><path d="m71.62,38.94c-.48,1.42-2.45,2.79-2.72,2.71-.27-.08-1.09-2.32-.61-3.75.48-1.42,1.62-2.34,2.53-2.06.92.29,1.27,1.67.79,3.1Z" style="fill:#15582a; stroke-width:0px;"/><path d="m27.62,54.19l.37,2.38c.18,1.15.46,2.27.83,3.37l.15.45c.86,2.54,2.12,4.94,3.73,7.09l.73.98c1.3,1.74,2.76,3.35,4.37,4.8l4.3,3.88c4.64,4.03,9.68,7.59,15.04,10.61l.41.23,3.39,1.6c2.48,1.17,5.05,2.13,7.69,2.87,2.55.72,5.15,1.23,7.78,1.53l5.05.58h7.52l9.4-1.03,10.61-2.19,1.78-.51c6.59-1.89,12.97-4.44,19.04-7.62l4.24-2.84c2.17-1.45,4.01-3.32,5.43-5.51,1.07-1.65,1.88-3.46,2.4-5.36l.65-2.39c.38-1.39.48-2.84.29-4.26l-.09-.67c-.28-2.09-1.29-4.01-2.85-5.43-1.64-1.49-3.78-2.32-6-2.32h-2.38c-1.12,0-2.24.13-3.34.37l-3.76.85c-1.32.3-2.6.72-3.84,1.25-2.15.92-4.42,1.5-6.75,1.71l-1.1.1c-1.67.15-3.35.16-5.02.02l-1.41-.12c-2.57-.21-5.1-.72-7.55-1.5-2.1-.67-4.13-1.55-6.06-2.62l-2.47-1.36c-4.2-1.63-8.53-2.92-12.94-3.87l-1.84-.39c-1.43-.21-4.62-.7-5.91-.9-3.19-.51-6.45-.39-9.6.35l-2.35.55-5.51,1.81-4.06,1.51c-1.63.61-3.42.6-5.04-.03-.56-.22-1.09-.5-1.58-.85l-1.81-1.29c-1.07-.76-2.26-1.33-3.52-1.69l-2.38-.68c-1.05-.3-2.17-.22-3.16.23-1.39.62-2.39,1.88-2.67,3.38l-.15.81c-.13.7-.14,1.42-.03,2.12Z" style="fill:#fef495; stroke:#15582a; stroke-width:2px;"/><ellipse cx="113.96" cy="31.97" rx="11.82" ry="11.35" style="fill:#d67c2e; stroke-width:0px;"/><ellipse cx="113.82" cy="32.1" rx="7.39" ry="7.1" style="fill:#1d1d1d; stroke-width:0px;"/><path d="m118.12,97.26v.48c0,1.63.41,3.24,1.2,4.67l5.11,9.3,4.7,10.45,5.37,10.58c-1.34,3.18-2.41,6.46-3.19,9.82l-2.19,9.4-4.7,16-2.29,6.17c-1.24,3.33-3.18,6.36-5.7,8.86-2.78,2.76-6.18,4.81-9.92,5.98l-.89.28-6.15,1.48c-.55.13-1.12.2-1.69.2h-3.38c-.61,0-1.18.34-1.46.89-.41.8-.11,1.78.68,2.21l1.37.74c.2.11.41.2.63.26l.84.25c2.63.78,5.45.59,7.95-.52l1.93-.86c.96-.43,1.96-.77,2.98-1.01l3.4-.82c1-.24,2.03-.36,3.07-.36,2.91,0,5.74.97,8.04,2.75l.61.48,5.52,4.16c1.65,1.24,3.65,1.91,5.71,1.91h.9c.41,0,.82-.07,1.22-.2l1.01-.33c1.65-.54,2.47-2.4,1.75-3.99l7.25,2.97,3.42.92c1.48.4,3.06.05,4.23-.94l.06-.05c1.36-1.14,3.26-1.39,4.87-.64l.6.28c.6.28,1.27.33,1.91.16l.5-.14c1.58-.43,2.28-2.29,1.37-3.66-.2-.3-.46-.55-.77-.73l-1.94-1.17c-1.94-1.17-4.16-1.78-6.43-1.78h-.24c-1.2,0-2.4-.16-3.56-.48l-7.12-1.97c-4.96-1.36-9.62-3.81-13.57-7.1l8.09-11.93c3.63-5.36,6.53-11.17,8.63-17.3l.87-2.55c1.16-3.41,1.94-6.93,2.33-10.51l.24-2.25c.35-3.24.27-6.51-.22-9.74-.4-2.6-1.11-5.15-2.11-7.59l-4.27-10.4-6.93-13.56c-.39-.77-.86-1.49-1.39-2.17l-1.5-1.92c-2.29-2.93-6.06-4.3-9.7-3.51l-.25.06c-1.39.3-2.69.94-3.78,1.87-1.93,1.65-3.05,4.06-3.05,6.59Z" style="fill:#93c63a; stroke:#15582a; stroke-width:2px;"/><path d="m156.67,198.68h0c.96-.8.81-2.33-.29-2.92l-1.05-.56-3.63-1.42-4.3-1.03h0c-3.13-.86-6.19-1.95-9.16-3.27l-.78-.35-5.64-3.36" style="fill:none; stroke:#15582a; stroke-linecap:round; stroke-width:2px;"/><path d="m140.69,196.61l-.48-.46c-1.37-1.32-2.99-2.35-4.76-3.03h0l-3.9-1.29h0c-1.77-.51-3.4-1.4-4.79-2.62l-.99-.87" style="fill:none; stroke:#15582a; stroke-linecap:round; stroke-width:2px;"/><path d="m135.52,54.55c-1.88-1.39-4.17-2.16-6.56-2.16h-.81c-.73,0-1.45.06-2.17.19l-4.22.73c-1.27.22-2.51.53-3.74.93-2.08.68-4.25,1.1-6.43,1.26l-3.64.25-3.98-.25c-2.4-.15-4.78-.51-7.11-1.08-2.11-.51-4.17-1.2-6.17-2.04l-2.23-.94-6.15-1.82-8.24-1.34c-1.4-.16-4.5-.52-5.76-.67-3.12-.38-6.29-.29-9.38.26l-2.26.41-5.37,1.34-4.02,1.14c-1.56.44-3.22.44-4.78-.02-.59-.17-1.16-.41-1.69-.7l-1.48-.81c-1.17-.64-2.42-1.1-3.73-1.38l-2.52-.55c-.83-.18-1.7-.13-2.51.14l-.25.08c-1.36.46-2.39,1.58-2.74,2.98-.13.54-.16,1.1-.08,1.64.27-.28.59-.5.94-.68,1.58-.77,3.37-.96,5.07-.53l2.43.6c.73.18,1.44.42,2.13.71l2.73,1.16c.81.34,1.65.6,2.5.77,1.99.4,4.05.32,6-.23l1.73-.49c.96-.27,1.94-.47,2.94-.59l8.32-1.06h7.07c.94,0,4.41.83,6.02,1.25l3.71.91c2.23.55,4.42,1.26,6.55,2.13,2.4.98,4.88,1.76,7.41,2.33l2.61.59,6.16.56c2.26.2,4.53.21,6.79,0,4.19-.37,8.34-1.07,12.42-2.08l3.55-.88,4.81-1.49c.72-.22,1.46-.36,2.21-.42l2.77-.2c.39-.03.78-.01,1.16.05Z" style="fill:#748937; fill-rule:evenodd; stroke-width:0px;"/><path d="m135.52,54.55l-.11.71.54-1.29-.43.58Zm-9.54-1.97l-.12-.71h0l.12.71Zm-4.22.73l.12.71h0l-.12-.71Zm-3.74.93l-.22-.68h0l.22.68Zm-6.43,1.26l-.05-.72h0l.05.72Zm-3.64.25l-.05.72h.05s.05,0,.05,0l-.05-.72Zm-3.98-.25l.05-.72h0l-.05.72Zm-7.11-1.08l.17-.7h0l-.17.7Zm-6.17-2.04l-.28.66h0l.28-.66Zm-2.23-.94l.28-.66-.04-.02h-.04s-.2.68-.2.68Zm-6.15-1.82l.2-.69h-.04s-.05-.02-.05-.02l-.12.71Zm-8.24-1.34l.12-.71h-.02s-.02,0-.02,0l-.08.71Zm-5.76-.67l.09-.71h0l-.09.71Zm-9.38.26l-.13-.71h0l.13.71Zm-2.26.41l-.13-.71h-.02s-.02.01-.02.01l.17.7Zm-5.37,1.34l-.17-.7h-.01s-.01,0-.01,0l.2.69Zm-4.02,1.14l.2.69-.2-.69Zm-4.78-.02l-.2.69h0l.2-.69Zm-1.69-.7l.34-.63h0l-.34.63Zm-1.48-.81l.34-.63h0l-.34.63Zm-3.73-1.38l-.15.7.15-.7Zm-2.52-.55l.15-.7h0l-.15.7Zm-2.51.14l.23.68h0l-.23-.68Zm-.25.08l-.23-.68h0l.23.68Zm-2.74,2.98l.7.17h0l-.7-.17Zm-.08,1.64l-.71.11.21,1.42,1.01-1.02-.51-.51Zm.94-.68l.32.65h0l-.32-.65Zm5.07-.53l.17-.7h0l-.17.7Zm2.43.6l-.17.7h0l.17-.7Zm2.13.71l.28-.66h0l-.28.66Zm2.73,1.16l.28-.66h0l-.28.66Zm2.5.77l-.14.71h0l.14-.71Zm6-.23l.19.69h0l-.19-.69Zm1.73-.49l-.19-.69h0l.19.69Zm2.94-.59l.09.71h0l-.09-.71Zm8.32-1.06v-.72h-.09s.09.72.09.72Zm13.09,1.25l-.18.7h0s.17-.7.17-.7Zm3.71.91l.17-.7h0l-.17.7Zm6.55,2.13l.27-.67h0l-.27.67Zm7.41,2.33l-.16.7h0l.16-.7Zm2.61.59l-.16.7h.05s.05.01.05.01l.06-.72Zm6.16.56l-.06.72h0l.06-.72Zm6.79,0l.06.72h0l-.06-.72Zm12.42-2.08l.17.7h0l-.17-.7Zm3.55-.88l.17.7h.02s.02-.01.02-.01l-.21-.69Zm4.81-1.49l-.21-.69h0l.21.69Zm2.21-.42l.05.72h0l-.05-.72Zm2.77-.2l-.05-.72h0l.05.72Zm1.59-.53c-2-1.48-4.45-2.3-6.99-2.3v1.44c2.23,0,4.38.72,6.14,2.02l.85-1.16Zm-6.99-2.3h-.81v1.44h.81v-1.44Zm-.81,0c-.77,0-1.53.07-2.29.2l.25,1.42c.67-.12,1.36-.18,2.04-.18v-1.44Zm-2.29.2l-4.22.73.25,1.42,4.22-.73-.25-1.42Zm-4.22.73c-1.3.23-2.58.54-3.84.96l.45,1.37c1.19-.39,2.4-.69,3.63-.9l-.25-1.42Zm-3.84.96c-2.03.66-4.13,1.07-6.26,1.22l.1,1.44c2.25-.16,4.47-.59,6.61-1.29l-.45-1.37Zm-6.26,1.22l-3.64.25.1,1.44,3.64-.25-.1-1.44Zm-3.55.25l-3.98-.25-.09,1.44,3.98.25.09-1.44Zm-3.98-.25c-2.36-.15-4.7-.51-6.99-1.07l-.34,1.4c2.38.58,4.8.95,7.24,1.1l.09-1.44Zm-6.99-1.07c-2.07-.51-4.09-1.17-6.06-2l-.56,1.33c2.03.86,4.13,1.55,6.27,2.07l.34-1.4Zm-6.06-2l-2.23-.94-.56,1.33,2.23.94.56-1.33Zm-2.31-.97l-6.15-1.82-.41,1.38,6.15,1.82.41-1.38Zm-6.24-1.84l-8.24-1.34-.23,1.42,8.24,1.34.23-1.42Zm-8.28-1.35c-1.4-.16-4.5-.52-5.75-.67l-.17,1.43c1.26.15,4.37.51,5.76.67l.16-1.43Zm-5.75-.67c-3.19-.39-6.43-.3-9.6.27l.25,1.42c3.03-.54,6.12-.63,9.17-.26l.17-1.43Zm-9.6.27l-2.26.41.25,1.42,2.26-.41-.25-1.42Zm-2.31.42l-5.37,1.34.35,1.4,5.37-1.34-.35-1.4Zm-5.39,1.35l-4.02,1.14.39,1.38,4.02-1.14-.39-1.38Zm-4.02,1.14c-1.43.41-2.95.4-4.38-.02l-.4,1.38c1.69.5,3.49.5,5.18.02l-.39-1.38Zm-4.38-.02c-.54-.16-1.06-.37-1.55-.64l-.69,1.26c.58.32,1.2.57,1.83.76l.4-1.38Zm-1.55-.64l-1.48-.81-.69,1.26,1.48.81.69-1.26Zm-1.48-.81c-1.23-.67-2.55-1.16-3.92-1.45l-.3,1.41c1.23.27,2.42.71,3.53,1.31l.69-1.26Zm-3.92-1.45l-2.52-.55-.3,1.41,2.52.55.3-1.41Zm-2.52-.55c-.96-.21-1.96-.15-2.89.17l.46,1.36c.68-.23,1.42-.27,2.12-.12l.3-1.41Zm-2.89.17l-.25.08.46,1.36.25-.08-.46-1.36Zm-.25.08c-1.59.54-2.8,1.85-3.2,3.49l1.4.35c.29-1.16,1.14-2.09,2.27-2.47l-.46-1.36Zm-3.2,3.49c-.16.63-.19,1.28-.09,1.92l1.42-.21c-.07-.45-.05-.92.06-1.36l-1.4-.35Zm1.25.49c-.42.21-.81.48-1.14.82l1.02,1.01c.22-.22.47-.4.74-.53l-.63-1.29Zm5.56-.59c-1.87-.47-3.84-.26-5.56.59l.63,1.29c1.42-.7,3.05-.87,4.58-.48l.35-1.4Zm2.43.6l-2.43-.6-.35,1.4,2.43.6.35-1.4Zm2.23.75c-.72-.31-1.47-.56-2.23-.75l-.35,1.4c.69.17,1.36.4,2.02.67l.56-1.32Zm2.73,1.16l-2.73-1.16-.56,1.32,2.73,1.16.56-1.32Zm2.36.73c-.81-.16-1.6-.41-2.36-.73l-.56,1.32c.85.36,1.74.63,2.64.82l.28-1.41Zm5.66-.22c-1.84.52-3.78.59-5.66.22l-.28,1.41c2.1.42,4.27.34,6.33-.24l-.39-1.39Zm1.73-.49l-1.73.49.39,1.39,1.73-.49-.39-1.39Zm3.04-.62c-1.03.13-2.04.34-3.04.62l.39,1.39c.93-.26,1.88-.45,2.83-.57l-.18-1.43Zm8.32-1.06l-8.32,1.06.18,1.43,8.32-1.06-.18-1.43Zm7.16,0h-7.07v1.44h7.07v-1.44Zm6.2,1.27c-.81-.21-2.09-.52-3.29-.78-.6-.13-1.18-.25-1.68-.34-.48-.08-.93-.15-1.23-.15v1.44c.17,0,.5.04.99.13.47.08,1.03.2,1.62.33,1.17.26,2.44.57,3.24.77l.36-1.39Zm3.7.9l-3.71-.91-.34,1.4,3.71.91.34-1.4Zm6.65,2.16c-2.16-.88-4.39-1.6-6.65-2.16l-.34,1.4c2.2.54,4.36,1.24,6.45,2.09l.54-1.33Zm7.29,2.29c-2.49-.56-4.93-1.32-7.29-2.29l-.54,1.33c2.44,1,4.95,1.79,7.52,2.36l.31-1.4Zm2.61.59l-2.61-.59-.31,1.4,2.61.59.31-1.4Zm6.07.54l-6.16-.56-.13,1.43,6.16.56.13-1.43Zm6.66,0c-2.22.2-4.44.2-6.66,0l-.13,1.43c2.3.21,4.62.21,6.92,0l-.13-1.43Zm12.31-2.06c-4.04,1-8.16,1.69-12.31,2.06l.13,1.43c4.22-.38,8.41-1.08,12.53-2.09l-.35-1.4Zm3.55-.88l-3.55.88.35,1.4,3.55-.88-.35-1.4Zm4.77-1.47l-4.81,1.49.43,1.37,4.81-1.49-.43-1.37Zm2.37-.45c-.81.06-1.6.21-2.37.45l.43,1.37c.67-.21,1.36-.34,2.05-.39l-.11-1.43Zm2.77-.2l-2.77.2.11,1.43,2.77-.2-.11-1.43Zm1.33.06c-.43-.07-.88-.09-1.33-.06l.11,1.43c.34-.02.67,0,1,.04l.23-1.42Z" style="fill:#15582a; stroke-width:0px;"/><path d="m125.78,76.1c0,13.03-25.93,16.13-39.35,16.13-16.79,0-40.16-11-40.16-16.13s23.91,2.64,37.34,2.64,42.18-17.86,42.18-2.64Z" style="fill:rgba(255,249,195,.8); stroke-width:0px;"/><path d="m115.43,128.87c6.13,12.98,12.76,32.08-6.58,40.52-16.52,7.21-34.03-12.44-40.16-25.42-6.13-12.98-9.67-37.29,11.01-40.26,29.15-1.55,29.6,12.18,35.73,25.16Z" style="fill:rgba(255,249,195,.8); stroke-width:0px;"/><ellipse cx="110.6" cy="27.84" rx="2.28" ry="3.61" style="fill:#f3f3f3; stroke-width:0px;"/><ellipse cx="51.07" cy="25.86" rx="3.62" ry="2.28" transform="translate(15.55 70.75) rotate(-78.5)" style="fill:#f3f3f3; stroke-width:0px;"/><ellipse cx="116.37" cy="37.13" rx="1.88" ry="1.81" style="fill:#f5f5f5; stroke-width:0px;"/><ellipse cx="44.38" cy="33.26" rx="1.88" ry="1.81" style="fill:#f5f5f5; stroke-width:0px;"/><path d="m127.05,89.33h-.18c-.76,0-1.5.14-2.21.41-.93.36-1.76.93-2.41,1.68l-.31.35c-.91,1.04-1.42,2.37-1.42,3.75,0,.94.23,1.86.68,2.69l2.22,4.12c.55,1.01,1.25,1.93,2.07,2.73,1.61,1.54,2.71,3.54,3.16,5.72l.45,2.17c.39,1.87,1.07,3.66,2.01,5.32l2.79,4.88,2.24,3.03c2.09,2.82,3.21,6.24,3.21,9.75,0,1.16-.12,2.31-.36,3.44l-.42,1.95c-.63,2.95-1.64,5.81-3,8.5l-1.92,3.8-3.97,9.05-3.47,8.1-3.47,7.14-.95,1.89c-1.49,2.97-3.74,5.5-6.52,7.32l-.9.59c-.21.14-.42.25-.65.36l-3.47,1.58c-.5.23-.72.82-.5,1.32.2.44.68.68,1.15.57l4.11-.99c1.31-.31,2.68-.19,3.91.36l1.82.82,2.29,1.25c.76.42,1.65.54,2.5.34l.38-.09c.19-.05.37-.13.53-.24.85-.61.83-1.88-.03-2.47l-1.26-.87c-.27-.19-.44-.5-.44-.83v-.19c0-.77.89-1.19,1.49-.71l2.08,1.28c.89.55,1.96.71,2.98.44l.74-.19c.26-.07.5-.22.68-.42l.34-.4c.33-.39.27-.98-.15-1.27l-1.07-.77c-.5-.36-.16-1.15.45-1.03.6.12.94-.65.46-1.02l-3.03-2.33,2.73-4.28,7.44-10.72c2.31-3.48,4.2-7.21,5.66-11.13l1.01-2.7c1.17-3.16,2.08-6.4,2.7-9.71l.45-2.4c.39-2.07.59-4.17.59-6.28,0-2.96-.39-5.9-1.16-8.75l-.83-3.08-3.47-9.76-3.47-7.86-3.72-6.67-2.3-4.13c-.93-1.66-2.29-3.04-3.93-3.99l-.79-.46c-1.08-.62-2.3-.95-3.55-.95Z" style="fill:rgba(165,212,83,.62); stroke-width:0px;"/><path d="m51.3,102.63l-.93-3.29c-.36-1.28-2.21-1.2-2.45.12-.01.07-.02.15-.02.22v2.67c0,1.47-.11,2.95-.31,4.41l-.68,4.71-1.49,6.9-.99,7.14-.99,7.62v5.71l.99,8.57.99,6.43,1.49,6.43c.66,2.85,1.57,5.64,2.71,8.33l.51,1.19,2.23,4.76-2.23.72-4.66,1.17c-.66.17-1.23.59-1.58,1.18-.29.48-.73.86-1.25,1.07l-2.17.87-5.52,1.77c-.28.09-.51.28-.65.53-.45.78.11,1.75,1.01,1.75h11.22c.25,0,.51-.02.76-.06l3.67-.59c1-.16,1.9.61,1.9,1.62,0,.91.74,1.64,1.64,1.64h.34c.76,0,1.45-.43,1.78-1.12l.33-.67c.53-1.09,1.64-1.79,2.85-1.79h.63c.24,0,.48-.04.71-.11,1.59-.51,2.14-2.48,1.03-3.74l-.17-.2c-.14-.16-.3-.3-.48-.42l-.81-.54c-.93-.63-1.75-1.4-2.42-2.3l-.27-.36c-1.27-1.69-2.09-3.67-2.44-5.76-.55-3.33-1.29-7.21-1.73-7.77-3.14-4.02-.33-10.18-.99-15.24v-5.48c.33-3.57.99-10.86.99-11.43,0-4.11-.31-8.23-.94-12.29l-.05-.32-.95-4.74c-.35-1.76-.53-3.55-.53-5.34v-3.45c0-.19-.03-.37-.08-.55Z" style="fill:rgba(165,212,83,.62); stroke-width:0px;"/></g></svg>