<?xml version="1.0" encoding="UTF-8"?>
<svg id="_Слой_2" data-name="Слой_2" xmlns="http://www.w3.org/2000/svg" xmlns:xlink="http://www.w3.org/1999/xlink" viewBox="0 0 121.32 126.09">
  <defs>
    <style>
      .cls-1 {
        stroke: #dfa66e;
      }

      .cls-1, .cls-2 {
        stroke-linecap: round;
        stroke-linejoin: round;
        stroke-width: 4.13px;
      }

      .cls-1, .cls-2, .cls-3 {
        fill: none;
      }

      .cls-2 {
        stroke: #e16e45;
      }

      .cls-4 {
        fill: #f9eaed;
      }

      .cls-5 {
        fill: #f1cb83;
      }

      .cls-6 {
        clip-path: url(#clippath);
      }
    </style>
    <clipPath id="clippath">
      <path class="cls-3" d="M0,84.62l39.85,39.85,19.57-19.56c2.61-2.61,6.08-4.42,9.78-4.43,5.09-.02,10.08-.89,14.9-3.39l37.22-37.22c.17-7.57-1.18-13.89-13.17-11.41,4.9-5.18,11.22-9.91,4.39-18.78-1.82-3.36-6.36-3.04-11.76-1.58,4.25-5.13,7.66-10.37,2.46-16.68-5.19-4.72-10.62-2.65-16.15,2.28.77-4.59,1.43-9.15-2.81-12.11-3.46-1.91-6.87-2.3-10.19,0l-14.83,14.83c-8.8-1.21-17.19-1.84-23.79,0-13.36,10.48-12.56,26.5-10.71,42.92L0,84.62Z"/>
    </clipPath>
  </defs>
  <g id="_Слой_1-2" data-name="Слой_1">
    <g>
      <path class="cls-5" d="M0,84.62l39.85,39.85,20.61-20.61c2.31-2.31,5.47-3.38,8.74-3.39,5.09-.02,10.08-.89,14.9-3.39l37.22-37.22c.17-7.57-1.18-13.89-13.17-11.41,4.9-5.18,11.22-9.91,4.39-18.78-1.82-3.36-6.36-3.04-11.76-1.58,4.25-5.13,7.66-10.37,2.46-16.68-5.19-4.72-10.62-2.65-16.15,2.28.77-4.59,1.43-9.15-2.81-12.11-3.46-1.91-6.87-2.3-10.19,0l-14.83,14.83c-8.8-1.21-17.19-1.84-23.79,0-13.36,10.48-12.56,26.5-10.71,42.92L0,84.62Z"/>
      <g class="cls-6">
        <path class="cls-1" d="M98.96,29.13c-2.21,1.02-16.65,7.89-20.89,18.78-.57,1.47-1.86,4.77-1.23,8.95.3,1.97.9,6,4.39,8.25,3.31,2.14,9.97.24,10.83.01-.2,1.15-3.35,4.46-2.41,7.01,1.2,3.24,3.55,4.93,4.74,5.79,2.96,2.14,5.98,2.66,7.55,2.81"/>
        <path class="cls-4" d="M86.36,53.23c2.9,1,3.83,3.95,3.98,4.43.24.76.43,1.41.15,2.07-.57,1.31-2.7,1.88-3.67,1.98-1.45.15-3.41.01-4.89-1.54-1.11-1.17-1.47-2.93-1.03-4.43.1-.34.52-1.78,1.92-2.51,1.41-.74,2.87-.23,3.54,0Z"/>
        <path class="cls-4" d="M100.45,66.66c2.53,1.75,2.63,4.84,2.65,5.33.03.8.04,1.47-.41,2.03-.9,1.11-2.89.77-3.85.61-1.43-.24-3.51-.59-4.52-2.49-.76-1.43-.63-3.22.19-4.54.19-.3.98-1.58,2.52-1.9,1.56-.33,2.82.55,3.41.95Z"/>
        <path class="cls-1" d="M44.65,76.13c10.53-11.39,15.11-24.42,8.1-40.65,5.12,9.18,15.33,14.99,21.26,9.19,7.24-9.76-1.28-18.06-13.62-26.01"/>
      </g>
      <path class="cls-1" d="M85.2,16.14c-1.32,2.09-2.8,4.27-4.46,6.52-1.38,1.86-2.76,3.59-4.1,5.19"/>
      <path class="cls-2" d="M15.86,32.2c.23-6.84,1.28-13.47,6.76-18.9,5.23-4.92,12.1-7.46,20.49-7.76"/>
      <path class="cls-2" d="M100.64,92.34c-1.23,6.74-3.25,13.13-9.47,17.7-5.9,4.1-13.06,5.6-21.41,4.66"/>
      <path class="cls-2" d="M107.98,111.18c-.7,3.82-1.84,7.46-5.38,10.05-3.35,2.33-7.42,3.18-12.15,2.65"/>
    </g>
  </g>
</svg>