<?xml version="1.0" encoding="UTF-8"?>
<svg id="_Слой_2" data-name="Слой_2" xmlns="http://www.w3.org/2000/svg" viewBox="0 0 124.08 139.48">
  <defs>
    <style>
      .cls-1 {
        fill: #b3443d;
      }

      .cls-2 {
        fill: #5a2513;
      }

      .cls-3 {
        fill: #e7b365;
      }

      .cls-4 {
        fill: #ac583d;
      }

      .cls-5 {
        fill: #61aa8a;
      }
    </style>
  </defs>
  <g id="_Слой_1-2" data-name="Слой_1">
    <g>
      <g>
        <path class="cls-4" d="M45.1,71.48c-1.38.77-2.82,1.4-4.33,1.87-.03.01-.07.02-.1.03-.24.08-.49.15-.74.22-.07.02-.14.04-.21.06-.22.06-.45.11-.67.16-.08.02-.15.04-.23.05-.29.06-.59.12-.89.18-.29.05-.58.1-.88.13-.06,0-.12.01-.19.02-.24.03-.48.06-.73.08-.04,0-.09,0-.13.01-1.81.16-3.63.09-5.42-.18,1.19,3.86,3.27,11.06,4.23,17.14,1.85,11.73-4.99,27.78.55,37.4,5.71,9.92,22.43,5.48,23.69-4.16,1.43-11.01-9.3-22.58-11.55-34.24-1.2-6.22-2.03-14.52-2.41-18.79ZM42.2,81.43c1.05,0,1.04,1.62,0,1.62s-1.04-1.62,0-1.62ZM42.81,86.11c1.05,0,1.04,1.62,0,1.62s-1.04-1.62,0-1.62ZM43.64,89.62c1.05,0,1.04,1.62,0,1.62s-1.04-1.62,0-1.62ZM44.25,96.91c-.26-.87-.43-1.76-.55-2.67-.03-.21.1-.43.24-.57.15-.16.36-.23.57-.24.2,0,.43.1.57.24.16.16.21.34.23.56,0-.02,0-.04,0-.06.11.78.28,1.55.5,2.31.13.44-.16.87-.57,1-.42.14-.88-.16-1-.57ZM53.57,115.07c1.13,2.23,1.7,4.7,1.39,7.2-.58,4.64-4.2,8.56-8.99,8.86-1.05.06-1.04-1.56,0-1.62,2.22-.14,4.3-1.35,5.66-3.1,1.37-1.76,1.91-4.03,1.77-6.23-.15-2.36-1.22-4.42-2.44-6.4-1.28-2.07-2.52-4.15-3.52-6.37-1-2.22-1.83-4.51-2.46-6.87-.27-1.01,1.3-1.44,1.57-.43.75,2.81,1.78,5.54,3.09,8.14,1.18,2.35,2.75,4.47,3.93,6.81Z"/>
        <path class="cls-3" d="M57.87,18.65c-.72-1.41-1.52-2.75-2.38-4.02-5.92,3-27.42,12.56-54.18,9.02-1,2.67-1,5.15-1,5.15,8.13.23,35.12.1,57.57-10.15Z"/>
        <path class="cls-3" d="M50.04,8.3C43.17,1.98,34.15-1.19,25,.41c-9.12,1.6-16.49,7.61-20.81,15.84,10.24.24,27.39-.79,45.85-7.96Z"/>
        <path class="cls-3" d="M15.95,67.21c4.42,3.65,9.44,6.14,14.64,6.92,1.79.27,3.6.33,5.42.18.04,0,.09,0,.13-.01.24-.02.48-.05.73-.08.06,0,.12-.01.19-.02.29-.04.58-.08.88-.13.3-.05.59-.11.89-.18.08-.02.15-.04.23-.05.23-.05.45-.11.67-.16.07-.02.14-.04.21-.06.25-.07.49-.14.74-.22.03-.01.07-.02.1-.03,1.51-.47,2.95-1.1,4.33-1.87,4.28-2.39,7.91-6.1,10.72-10.61-6.59,3.85-21.07,10.26-39.87,6.34Z"/>
        <path class="cls-3" d="M60.79,49.12c1.06-4.07,1.29-7.32,1.29-7.32-5.76,4.13-28.12,18.13-57.72,10.41,1.05,2.18,2.26,4.26,3.61,6.22,4.53.83,28.45,4.28,52.82-9.3Z"/>
        <path class="cls-1" d="M62.08,41.79c.28-2.94.28-5.91-.02-8.86,0-.02,0-.03,0-.05-.05-.45-.1-.91-.16-1.36-.01-.08-.02-.15-.03-.23-.06-.45-.13-.89-.21-1.33,0,0,0,0,0,0-.1-.56-.21-1.11-.33-1.66-.04-.2-.09-.4-.14-.59-.08-.34-.16-.68-.25-1.01-.06-.25-.13-.49-.2-.74-.08-.27-.16-.54-.24-.81-.09-.28-.17-.56-.26-.83-.07-.21-.14-.43-.22-.64-.11-.31-.22-.63-.34-.94-.05-.12-.09-.24-.14-.36-.5-1.28-1.05-2.53-1.67-3.73,0,0,0,0,0,0h0C35.42,28.89,8.43,29.02.3,28.79c-.17,1.35-.27,2.73-.29,4.13,0,.1,0,.2,0,.29,0,.34,0,.68,0,1.02,0,.21,0,.43.01.65,0,.3.02.59.04.89.01.27.03.55.05.83.02.26.04.52.06.78.03.34.07.68.11,1.03.02.2.04.41.07.61.07.55.16,1.11.25,1.67.08.46.17.91.27,1.36.02.07.03.14.04.21.1.45.2.91.32,1.36,0,.03.02.06.02.09.74,2.93,1.79,5.78,3.1,8.5,29.6,7.72,51.97-6.27,57.72-10.41ZM59.44,34.41c.39.11.73.59.57,1-1.07,2.66-2.2,5.28-3.4,7.88-.19.4-.76.49-1.11.29-2.18-1.23-4.32-2.52-6.44-3.85-1.1,2.25-2.25,4.49-3.45,6.69-.2.37-.75.53-1.11.29-2.1-1.39-4.16-2.83-6.19-4.31-1.24,2.16-2.53,4.29-3.88,6.39-.21.33-.75.57-1.11.29-2.01-1.54-3.98-3.13-5.92-4.76-1.38,2.05-2.8,4.07-4.27,6.06-.32.43-.85.54-1.27.16-1.87-1.64-3.69-3.34-5.47-5.07-1.55,1.99-3.14,3.95-4.78,5.87-.29.33-.86.29-1.15,0-1.96-1.98-3.87-4.02-5.73-6.1-.69-.78.45-1.93,1.15-1.15,1.66,1.86,3.37,3.68,5.12,5.46,1.58-1.86,3.13-3.75,4.62-5.69.32-.41.86-.57,1.27-.16,1.77,1.73,3.58,3.41,5.43,5.06,1.45-1.98,2.87-3.99,4.23-6.04.31-.46.86-.52,1.27-.16,1.87,1.59,3.77,3.13,5.71,4.63,1.33-2.09,2.61-4.21,3.84-6.37.2-.35.76-.55,1.11-.29,2.02,1.49,4.07,2.92,6.15,4.32,1.19-2.2,2.33-4.42,3.41-6.67.19-.38.76-.51,1.11-.29,2.1,1.34,4.24,2.62,6.4,3.85,1.02-2.23,1.99-4.48,2.9-6.75.16-.41.54-.7,1-.57ZM10.17,41.01c.86-.15,1.68.42,1.83,1.29.15.86-.42,1.68-1.29,1.83-.86.15-1.68-.42-1.83-1.29-.15-.86.42-1.68,1.29-1.83ZM21.72,40.17c.86-.15,1.68.42,1.83,1.29.15.86-.42,1.68-1.29,1.83-.86.15-1.68-.42-1.83-1.29-.15-.86.42-1.68,1.29-1.83ZM32.43,38.37c.86-.15,1.68.42,1.83,1.29.15.86-.42,1.68-1.29,1.83-.86.15-1.68-.42-1.83-1.29-.15-.86.42-1.68,1.29-1.83ZM42.85,36.46c.86-.15,1.68.42,1.83,1.29.15.86-.42,1.68-1.29,1.83-.86.15-1.68-.42-1.83-1.29-.15-.86.42-1.68,1.29-1.83ZM53.4,33.68c.86-.15,1.68.42,1.83,1.29.15.86-.42,1.68-1.29,1.83-.86.15-1.68-.42-1.83-1.29-.15-.86.42-1.68,1.29-1.83ZM3.43,32.07c1.66,1.86,3.37,3.68,5.12,5.46,1.58-1.86,3.13-3.75,4.62-5.69.32-.41.86-.57,1.27-.16,1.77,1.73,3.58,3.41,5.43,5.06,1.45-1.98,2.87-3.99,4.23-6.04.31-.46.86-.52,1.27-.16,1.87,1.59,3.77,3.13,5.71,4.63,1.33-2.09,2.61-4.21,3.84-6.37.2-.35.76-.55,1.11-.29,2.01,1.49,4.07,2.92,6.15,4.31,1.19-2.2,2.33-4.42,3.42-6.67.19-.38.76-.51,1.11-.29,2.1,1.34,4.24,2.62,6.4,3.85,1.02-2.23,1.99-4.48,2.9-6.75.16-.41.54-.7,1-.57.39.11.73.59.57,1-1.07,2.66-2.2,5.28-3.4,7.88-.19.4-.76.49-1.11.29-2.18-1.23-4.32-2.52-6.44-3.85-1.1,2.25-2.25,4.49-3.45,6.69-.2.37-.75.53-1.11.29-2.1-1.39-4.16-2.83-6.19-4.31-1.24,2.16-2.53,4.29-3.88,6.39-.21.33-.75.57-1.11.29-2.01-1.54-3.98-3.13-5.92-4.76-1.38,2.05-2.8,4.07-4.27,6.06-.32.43-.85.54-1.27.16-1.87-1.64-3.69-3.34-5.47-5.07-1.55,1.99-3.14,3.95-4.78,5.87-.29.33-.86.29-1.15,0-1.96-1.98-3.87-4.02-5.73-6.1-.69-.78.45-1.93,1.15-1.15Z"/>
        <path class="cls-2" d="M9.16,39.31c1.64-1.92,3.23-3.88,4.78-5.87,1.79,1.73,3.61,3.42,5.47,5.07.42.37.95.27,1.27-.16,1.47-1.98,2.89-4.01,4.27-6.06,1.94,1.63,3.91,3.22,5.92,4.76.36.27.9.04,1.11-.29,1.34-2.1,2.63-4.23,3.88-6.39,2.03,1.48,4.09,2.93,6.19,4.31.36.24.91.08,1.11-.29,1.21-2.2,2.35-4.43,3.45-6.69,2.12,1.33,4.26,2.62,6.44,3.85.35.2.92.11,1.11-.29,1.2-2.6,2.33-5.22,3.4-7.88.16-.41-.18-.89-.57-1-.46-.13-.84.16-1,.57-.91,2.27-1.88,4.52-2.9,6.75-2.16-1.24-4.3-2.52-6.4-3.85-.35-.22-.92-.09-1.11.29-1.08,2.25-2.23,4.47-3.42,6.67-2.08-1.39-4.14-2.82-6.15-4.31-.35-.26-.91-.06-1.11.29-1.23,2.15-2.51,4.27-3.84,6.37-1.94-1.5-3.85-3.04-5.71-4.63-.41-.35-.97-.3-1.27.16-1.36,2.05-2.78,4.06-4.23,6.04-1.85-1.65-3.66-3.33-5.43-5.06-.41-.4-.96-.25-1.27.16-1.49,1.93-3.04,3.83-4.62,5.69-1.75-1.78-3.46-3.6-5.12-5.46-.7-.78-1.84.37-1.15,1.15,1.86,2.08,3.77,4.11,5.73,6.1.29.29.86.33,1.15,0Z"/>
        <path class="cls-2" d="M49.14,37.87c-.35-.22-.92-.09-1.11.29-1.08,2.25-2.22,4.47-3.41,6.67-2.08-1.39-4.14-2.83-6.15-4.32-.35-.26-.91-.06-1.11.29-1.23,2.15-2.51,4.27-3.84,6.37-1.94-1.5-3.85-3.04-5.71-4.63-.41-.35-.97-.3-1.27.16-1.36,2.05-2.78,4.06-4.23,6.04-1.85-1.65-3.66-3.33-5.43-5.06-.41-.4-.96-.25-1.27.16-1.49,1.93-3.04,3.83-4.62,5.69-1.75-1.78-3.46-3.6-5.12-5.46-.7-.78-1.84.37-1.15,1.15,1.86,2.08,3.77,4.11,5.73,6.1.29.29.86.33,1.15,0,1.64-1.92,3.23-3.88,4.78-5.87,1.79,1.73,3.61,3.42,5.47,5.07.42.37.95.27,1.27-.16,1.47-1.98,2.89-4.01,4.27-6.06,1.94,1.63,3.91,3.22,5.92,4.76.36.27.9.04,1.11-.29,1.34-2.1,2.63-4.23,3.88-6.39,2.03,1.48,4.09,2.93,6.19,4.31.36.24.91.08,1.11-.29,1.21-2.2,2.35-4.43,3.45-6.69,2.12,1.33,4.26,2.62,6.44,3.85.35.2.92.11,1.11-.29,1.2-2.6,2.33-5.22,3.4-7.88.16-.41-.18-.89-.57-1-.46-.13-.84.16-1,.57-.91,2.27-1.88,4.52-2.9,6.75-2.16-1.24-4.3-2.52-6.4-3.85Z"/>
        <path class="cls-3" d="M10.72,44.13c.86-.15,1.44-.97,1.29-1.83-.15-.86-.97-1.44-1.83-1.29-.86.15-1.44.97-1.29,1.83.15.86.97,1.44,1.83,1.29Z"/>
        <path class="cls-3" d="M22.27,43.29c.86-.15,1.44-.97,1.29-1.83-.15-.86-.97-1.44-1.83-1.29-.86.15-1.44.97-1.29,1.83.15.86.97,1.44,1.83,1.29Z"/>
        <path class="cls-3" d="M32.98,41.48c.86-.15,1.44-.97,1.29-1.83-.15-.86-.97-1.44-1.83-1.29-.86.15-1.44.97-1.29,1.83.15.86.97,1.44,1.83,1.29Z"/>
        <path class="cls-3" d="M43.4,39.58c.86-.15,1.44-.97,1.29-1.83-.15-.86-.97-1.44-1.83-1.29-.86.15-1.44.97-1.29,1.83.15.86.97,1.44,1.83,1.29Z"/>
        <path class="cls-3" d="M53.94,36.8c.86-.15,1.44-.97,1.29-1.83-.15-.86-.97-1.44-1.83-1.29-.86.15-1.44.97-1.29,1.83.15.86.97,1.44,1.83,1.29Z"/>
        <path class="cls-5" d="M55.48,14.62h0s0,0,0,0c-.6-.88-1.23-1.73-1.89-2.54,0,0,0,0,0,0-1.1-1.36-2.29-2.62-3.55-3.77,0,0,0,0,0,0h0C31.58,15.47,14.43,16.49,4.19,16.26h0s0,0,0,0c-.28.53-.55,1.08-.8,1.63-.04.08-.08.17-.11.25-.22.49-.43.98-.63,1.48-.03.09-.07.17-.11.26-.1.26-.2.52-.3.79-.06.17-.12.34-.18.5-.13.39-.26.78-.38,1.17-.06.2-.32,1.07-.38,1.31,26.76,3.54,48.25-6.03,54.18-9.02ZM49.28,12.36c1.05,0,1.04,1.62,0,1.62s-1.04-1.62,0-1.62ZM47.03,12.96c1.05,0,1.04,1.62,0,1.62s-1.04-1.62,0-1.62ZM44.28,15.07c1.05,0,1.04,1.62,0,1.62s-1.04-1.62,0-1.62ZM37.49,17.05c1.01-.26,2.02-.51,3.02-.77.44-.11.86.14,1,.57.13.41-.16.89-.57,1-1.01.26-2.02.51-3.02.77-.44.11-.86-.14-1-.57-.13-.41.16-.89.57-1ZM5.48,20.26c.55.06,1.1.09,1.65.12,8.85.48,17.84-.49,26.47-2.43,1.02-.23,1.45,1.34.43,1.57-3.33.75-6.7,1.33-10.09,1.77-4.42.56-8.89.86-13.35.83-1.7-.01-3.42-.04-5.11-.22-.44-.05-.81-.33-.81-.81,0-.41.37-.86.81-.81Z"/>
        <path class="cls-5" d="M60.79,49.12c-24.38,13.59-48.31,10.13-52.83,9.31,2.3,3.34,5,6.33,7.98,8.78,18.8,3.92,33.29-2.48,39.88-6.34,2.19-3.52,3.87-7.52,4.97-11.75ZM39.37,63.29c-7.11,1.6-14.4,2.49-21.69,2.59-1.05.01-1.04-1.61,0-1.62,7.15-.09,14.28-.96,21.26-2.53,1.02-.23,1.45,1.34.43,1.57ZM46.29,61.63c-1.01.26-2.02.51-3.02.77-.44.11-.86-.14-1-.57-.13-.41.16-.89.57-1,1.01-.26,2.02-.51,3.02-.77.44-.11.86.14,1,.57.13.41-.16.89-.57,1ZM49.62,60.48c-1.05,0-1.04-1.62,0-1.62s1.04,1.62,0,1.62ZM52.18,59.42c-1.05,0-1.04-1.62,0-1.62s1.04,1.62,0,1.62ZM54.42,58.82c-1.05,0-1.04-1.62,0-1.62s1.04,1.62,0,1.62Z"/>
        <path class="cls-2" d="M5.48,21.88c1.69.18,3.41.21,5.11.22,4.46.03,8.92-.26,13.35-.83,3.39-.43,6.76-1.02,10.09-1.77,1.02-.23.59-1.79-.43-1.57-8.63,1.94-17.62,2.92-26.47,2.43-.55-.03-1.1-.06-1.65-.12-.44-.05-.81.41-.81.81,0,.48.37.77.81.81Z"/>
        <path class="cls-2" d="M44.98,100.55c.63,2.35,1.45,4.65,2.46,6.87,1,2.23,2.24,4.3,3.52,6.37,1.22,1.98,2.29,4.03,2.44,6.4.14,2.2-.4,4.47-1.77,6.23-1.36,1.75-3.44,2.96-5.66,3.1-1.04.06-1.05,1.69,0,1.62,4.78-.29,8.41-4.22,8.99-8.86.31-2.5-.26-4.97-1.39-7.2-1.19-2.34-2.75-4.46-3.93-6.81-1.31-2.6-2.33-5.33-3.09-8.14-.27-1.01-1.84-.58-1.57.43Z"/>
        <path class="cls-2" d="M45.25,97.48c.41-.13.7-.56.57-1-.23-.76-.4-1.53-.5-2.31,0,.02,0,.04,0,.06-.03-.22-.07-.4-.23-.56-.14-.14-.37-.25-.57-.24-.21,0-.43.08-.57.24-.13.15-.26.37-.24.57.12.9.29,1.79.55,2.67.12.41.57.7,1,.57Z"/>
        <path class="cls-2" d="M43.64,89.62c-1.04,0-1.05,1.62,0,1.62s1.05-1.62,0-1.62Z"/>
        <path class="cls-2" d="M42.81,86.11c-1.04,0-1.05,1.62,0,1.62s1.05-1.62,0-1.62Z"/>
        <path class="cls-2" d="M42.2,81.43c-1.04,0-1.05,1.62,0,1.62s1.05-1.62,0-1.62Z"/>
        <path class="cls-2" d="M37.92,18.61c1.01-.26,2.02-.51,3.02-.77.41-.1.7-.59.57-1-.14-.43-.56-.68-1-.57-1.01.26-2.02.51-3.02.77-.41.1-.7.59-.57,1,.14.43.56.68,1,.57Z"/>
        <path class="cls-2" d="M44.28,16.69c1.04,0,1.05-1.62,0-1.62s-1.05,1.62,0,1.62Z"/>
        <path class="cls-2" d="M47.03,14.58c1.04,0,1.05-1.62,0-1.62s-1.05,1.62,0,1.62Z"/>
        <path class="cls-2" d="M49.28,13.98c1.04,0,1.05-1.62,0-1.62s-1.05,1.62,0,1.62Z"/>
        <path class="cls-2" d="M38.94,61.73c-6.98,1.57-14.11,2.44-21.26,2.53-1.04.01-1.05,1.64,0,1.62,7.29-.1,14.58-.99,21.69-2.59,1.02-.23.59-1.79-.43-1.57Z"/>
        <path class="cls-2" d="M45.86,60.06c-1.01.26-2.02.51-3.02.77-.41.1-.7.59-.57,1,.14.43.56.68,1,.57,1.01-.26,2.02-.51,3.02-.77.41-.1.7-.59.57-1-.14-.43-.56-.68-1-.57Z"/>
        <path class="cls-2" d="M49.62,58.85c-1.04,0-1.05,1.62,0,1.62s1.05-1.62,0-1.62Z"/>
        <path class="cls-2" d="M52.18,57.79c-1.04,0-1.05,1.62,0,1.62s1.05-1.62,0-1.62Z"/>
        <path class="cls-2" d="M54.42,57.2c-1.04,0-1.05,1.62,0,1.62s1.05-1.62,0-1.62Z"/>
      </g>
      <g>
        <path class="cls-4" d="M96.87,84.65c-1.41.24-2.84.35-4.28.3-.03,0-.07,0-.1,0-.23,0-.47-.02-.7-.04-.07,0-.13,0-.2-.01-.21-.02-.42-.04-.63-.06-.07,0-.14-.01-.21-.02-.27-.03-.54-.07-.81-.12-.27-.04-.53-.09-.79-.15-.06-.01-.11-.02-.17-.04-.22-.05-.43-.1-.65-.15-.04,0-.08-.02-.12-.03-1.6-.41-3.14-1.02-4.59-1.79-.14,3.67-.53,10.48-1.54,15.99-1.95,10.63-12.66,22.33-10.81,32.25,1.9,10.23,17.59,11.47,21.58,3.58,4.55-9.02-1.17-22.18.42-32.86.85-5.7,2.64-13.07,3.6-16.84ZM91.38,92.31c.9.32.41,1.71-.49,1.39-.9-.32-.41-1.71.49-1.39ZM90.5,96.51c.9.32.41,1.71-.49,1.39-.9-.32-.41-1.71.49-1.39ZM90.14,99.77c.9.32.41,1.71-.49,1.39-.9-.32-.41-1.71.49-1.39ZM88.47,106.21c.04-.83.16-1.64.33-2.45.04-.19.22-.34.38-.42.17-.09.38-.09.56-.03.18.05.34.21.42.38.09.19.07.35.03.55,0-.02,0-.03.01-.05-.14.7-.23,1.42-.27,2.13-.02.41-.4.7-.79.69-.41-.01-.7-.4-.69-.79ZM90.98,124.6c.3,2.25.04,4.55-.98,6.6-1.9,3.81-6.19,6.08-10.38,4.89-.92-.26-.42-1.65.49-1.39,1.95.55,4.1.14,5.79-.95,1.7-1.1,2.85-2.88,3.4-4.81.58-2.07.29-4.16-.16-6.23-.47-2.17-.91-4.32-1.1-6.53-.19-2.21-.21-4.42-.04-6.63.07-.95,1.55-.84,1.47.1-.2,2.64-.15,5.29.19,7.92.31,2.37,1.01,4.66,1.32,7.03Z"/>
        <path class="cls-3" d="M123.76,43.17c-.19-1.42-.47-2.82-.83-4.17-5.99.78-27.31,2.51-49.2-8.6-1.67,1.99-2.41,4.11-2.41,4.11,6.9,2.65,30.1,10.68,52.45,8.66Z"/>
        <path class="cls-3" d="M120.17,31.93c-3.99-7.49-10.77-12.94-19.11-14.32-8.3-1.38-16.44,1.56-22.63,7.32,8.71,3.29,23.74,7.58,41.74,7Z"/>
        <path class="cls-3" d="M73.14,72.19c2.69,4.46,6.25,8.11,10.48,10.35,1.45.77,2.99,1.37,4.59,1.79.04.01.08.02.12.03.21.05.43.1.65.15.06.01.11.03.17.04.26.05.53.1.79.15.27.04.54.08.81.12.07,0,.14.02.21.02.21.02.42.04.63.06.07,0,.13.01.2.01.23.02.47.03.7.04.03,0,.07,0,.1,0,1.44.05,2.87-.06,4.28-.3,4.39-.75,8.63-2.85,12.4-5.87-6.81,1.32-21.17,2.45-36.12-6.59Z"/>
        <path class="cls-3" d="M117.07,70.2c2.13-3.17,3.32-5.89,3.32-5.89-6.19,1.81-29.6,7.07-52.67-8.48.24,2.18.65,4.34,1.22,6.43,3.63,2.07,23.12,12.26,48.13,7.95Z"/>
        <path class="cls-1" d="M120.39,64.3c1.12-2.44,2.03-4.99,2.66-7.6,0-.02,0-.03.01-.04.1-.4.19-.81.27-1.22.01-.07.03-.14.04-.2.08-.4.16-.8.22-1.21,0,0,0,0,0,0,.08-.51.16-1.02.22-1.52.02-.18.04-.37.06-.55.03-.32.07-.63.09-.95.02-.23.03-.46.05-.7.02-.26.03-.51.04-.77.01-.26.02-.53.03-.79,0-.21,0-.41,0-.62,0-.3,0-.61,0-.91,0-.12,0-.23-.01-.35-.04-1.25-.14-2.49-.3-3.7,0,0,0,0,0,0h0c-22.35,2.02-45.55-6.01-52.45-8.66-.55,1.11-1.05,2.27-1.5,3.45-.03.08-.06.17-.1.25-.11.29-.21.59-.3.88-.06.19-.12.37-.18.56-.08.26-.16.51-.24.77-.07.24-.14.48-.2.72-.06.23-.12.45-.18.68-.08.3-.15.61-.21.91-.04.18-.08.36-.12.55-.1.5-.2,1-.28,1.51-.07.41-.13.83-.18,1.25,0,.07-.02.13-.03.2-.05.42-.1.84-.14,1.26,0,.03,0,.06,0,.09-.25,2.74-.21,5.5.09,8.22,23.07,15.55,46.48,10.29,52.67,8.48ZM120.36,57.17c.3.21.45.73.19,1.03-1.72,1.96-3.48,3.87-5.29,5.74-.28.29-.8.19-1.04-.09-1.5-1.71-2.95-3.46-4.36-5.24-1.63,1.6-3.28,3.17-4.98,4.7-.28.26-.8.23-1.04-.09-1.38-1.82-2.72-3.68-4.01-5.57-1.72,1.48-3.47,2.92-5.25,4.31-.28.22-.82.26-1.04-.09-1.26-1.93-2.47-3.89-3.64-5.87-1.8,1.34-3.63,2.65-5.49,3.91-.41.28-.89.21-1.14-.24-1.1-1.97-2.16-3.98-3.17-6-1.93,1.24-3.89,2.44-5.87,3.59-.35.2-.82,0-.98-.35-1.09-2.29-2.11-4.61-3.08-6.96-.36-.88.97-1.52,1.33-.64.86,2.1,1.78,4.17,2.74,6.23,1.92-1.12,3.81-2.28,5.68-3.49.39-.26.91-.23,1.14.24,1,2.02,2.05,4.01,3.13,5.97,1.85-1.26,3.67-2.56,5.45-3.91.4-.3.9-.18,1.14.24,1.12,1.93,2.29,3.83,3.5,5.7,1.77-1.4,3.51-2.83,5.21-4.31.28-.24.82-.24,1.04.09,1.28,1.89,2.61,3.74,3.98,5.56,1.68-1.53,3.33-3.09,4.94-4.69.28-.27.81-.21,1.04.09,1.4,1.78,2.85,3.52,4.33,5.24,1.54-1.6,3.05-3.24,4.52-4.92.26-.3.67-.44,1.03-.19ZM76.09,47.97c.78.13,1.31.87,1.18,1.66-.13.78-.87,1.31-1.66,1.18-.78-.13-1.31-.87-1.18-1.66.13-.78.87-1.31,1.66-1.18ZM86.25,50.73c.78.13,1.31.87,1.18,1.66-.13.78-.87,1.31-1.66,1.18-.78-.13-1.31-.87-1.18-1.66.13-.78.87-1.31,1.66-1.18ZM95.99,52.42c.78.13,1.31.87,1.18,1.66-.13.78-.87,1.31-1.66,1.18-.78-.13-1.31-.87-1.18-1.66.13-.78.87-1.31,1.66-1.18ZM105.51,53.92c.78.13,1.31.87,1.18,1.66-.13.78-.87,1.31-1.66,1.18-.78-.13-1.31-.87-1.18-1.66.13-.78.87-1.31,1.66-1.18ZM115.39,54.72c.78.13,1.31.87,1.18,1.66-.13.78-.87,1.31-1.66,1.18-.78-.13-1.31-.87-1.18-1.66.13-.78.87-1.31,1.66-1.18ZM73.01,38.27c.86,2.1,1.78,4.17,2.74,6.23,1.92-1.12,3.81-2.28,5.68-3.49.39-.26.91-.23,1.14.24,1,2.02,2.05,4.01,3.13,5.97,1.85-1.26,3.67-2.56,5.45-3.91.4-.3.9-.18,1.14.24,1.12,1.93,2.29,3.83,3.5,5.7,1.77-1.4,3.51-2.83,5.21-4.31.28-.24.82-.24,1.04.09,1.28,1.88,2.61,3.73,3.98,5.55,1.68-1.53,3.33-3.09,4.94-4.69.28-.27.81-.21,1.04.09,1.4,1.78,2.85,3.52,4.33,5.24,1.54-1.6,3.05-3.24,4.52-4.92.26-.3.67-.44,1.03-.19.3.21.45.73.19,1.03-1.72,1.96-3.48,3.87-5.29,5.74-.28.29-.8.19-1.04-.09-1.5-1.71-2.95-3.46-4.36-5.24-1.63,1.6-3.28,3.17-4.98,4.7-.28.26-.8.23-1.04-.09-1.38-1.82-2.72-3.68-4.01-5.57-1.72,1.48-3.47,2.92-5.25,4.31-.28.22-.82.26-1.04-.09-1.26-1.93-2.47-3.89-3.64-5.87-1.8,1.34-3.63,2.65-5.49,3.91-.41.28-.89.21-1.14-.24-1.1-1.97-2.16-3.98-3.17-6-1.93,1.24-3.89,2.44-5.87,3.59-.35.2-.82,0-.98-.35-1.09-2.29-2.11-4.61-3.08-6.96-.36-.88.97-1.52,1.33-.64Z"/>
        <path class="cls-2" d="M75.74,46.21c1.99-1.15,3.94-2.35,5.87-3.59,1.01,2.02,2.06,4.02,3.17,6,.25.45.73.52,1.14.24,1.86-1.26,3.69-2.56,5.49-3.91,1.17,1.98,2.38,3.94,3.64,5.87.22.34.76.31,1.04.09,1.79-1.39,3.53-2.83,5.25-4.31,1.29,1.89,2.63,3.75,4.01,5.57.24.31.76.34,1.04.09,1.7-1.52,3.36-3.09,4.98-4.7,1.42,1.78,2.87,3.53,4.36,5.24.24.28.76.38,1.04.09,1.81-1.87,3.58-3.78,5.29-5.74.26-.3.11-.82-.19-1.03-.36-.25-.77-.11-1.03.19-1.47,1.68-2.98,3.31-4.52,4.92-1.48-1.71-2.93-3.46-4.33-5.24-.23-.3-.77-.36-1.04-.09-1.61,1.6-3.26,3.16-4.94,4.69-1.37-1.82-2.7-3.67-3.98-5.55-.22-.33-.76-.32-1.04-.09-1.7,1.48-3.44,2.91-5.21,4.31-1.21-1.87-2.38-3.77-3.5-5.7-.25-.43-.74-.55-1.14-.24-1.79,1.35-3.61,2.64-5.45,3.91-1.09-1.97-2.14-3.96-3.13-5.97-.23-.47-.75-.5-1.14-.24-1.86,1.21-3.76,2.37-5.68,3.49-.96-2.06-1.88-4.13-2.74-6.23-.36-.88-1.69-.24-1.33.64.97,2.35,1.99,4.67,3.08,6.96.16.34.64.55.98.35Z"/>
        <path class="cls-2" d="M110.48,57.04c-.23-.3-.77-.36-1.04-.09-1.61,1.6-3.26,3.17-4.94,4.69-1.37-1.82-2.7-3.67-3.98-5.56-.22-.33-.76-.32-1.04-.09-1.7,1.48-3.44,2.91-5.21,4.31-1.21-1.87-2.38-3.77-3.5-5.7-.25-.43-.74-.55-1.14-.24-1.79,1.35-3.61,2.64-5.45,3.91-1.09-1.97-2.14-3.96-3.13-5.97-.23-.47-.75-.5-1.14-.24-1.86,1.21-3.76,2.37-5.68,3.49-.96-2.06-1.88-4.13-2.74-6.23-.36-.88-1.69-.24-1.33.64.97,2.35,1.99,4.67,3.08,6.96.16.34.64.55.98.35,1.99-1.15,3.94-2.35,5.87-3.59,1.01,2.02,2.06,4.02,3.17,6,.25.45.73.52,1.14.24,1.86-1.26,3.69-2.56,5.49-3.91,1.17,1.98,2.38,3.94,3.64,5.87.22.34.76.31,1.04.09,1.79-1.39,3.53-2.83,5.25-4.31,1.29,1.89,2.63,3.75,4.01,5.57.24.31.76.34,1.04.09,1.7-1.52,3.36-3.09,4.98-4.7,1.42,1.78,2.87,3.53,4.36,5.24.24.28.76.38,1.04.09,1.81-1.87,3.58-3.78,5.29-5.74.26-.3.11-.82-.19-1.03-.36-.25-.77-.11-1.03.19-1.47,1.68-2.98,3.31-4.52,4.92-1.48-1.71-2.93-3.46-4.33-5.24Z"/>
        <path class="cls-3" d="M75.62,50.81c.78.13,1.53-.4,1.66-1.18.13-.78-.4-1.53-1.18-1.66-.78-.13-1.53.4-1.66,1.18-.13.78.4,1.53,1.18,1.66Z"/>
        <path class="cls-3" d="M85.78,53.57c.78.13,1.53-.4,1.66-1.18.13-.78-.4-1.53-1.18-1.66-.78-.13-1.53.4-1.66,1.18-.13.78.4,1.53,1.18,1.66Z"/>
        <path class="cls-3" d="M95.52,55.26c.78.13,1.53-.4,1.66-1.18.13-.78-.4-1.53-1.18-1.66-.78-.13-1.53.4-1.66,1.18-.13.78.4,1.53,1.18,1.66Z"/>
        <path class="cls-3" d="M105.03,56.76c.78.13,1.53-.4,1.66-1.18.13-.78-.4-1.53-1.18-1.66-.78-.13-1.53.4-1.66,1.18-.13.78.4,1.53,1.18,1.66Z"/>
        <path class="cls-3" d="M114.92,57.56c.78.13,1.53-.4,1.66-1.18.13-.78-.4-1.53-1.18-1.66-.78-.13-1.53.4-1.66,1.18-.13.78.4,1.53,1.18,1.66Z"/>
        <path class="cls-5" d="M122.93,39h0s0,0,0,0c-.25-.94-.53-1.85-.85-2.75,0,0,0,0,0,0-.54-1.5-1.17-2.94-1.9-4.31,0,0,0,0,0,0h0c-18.01.58-33.03-3.71-41.74-7h0s0,0,0,0c-.4.37-.8.76-1.18,1.16-.06.06-.11.12-.17.18-.33.35-.66.71-.98,1.08-.06.06-.11.13-.17.19-.17.19-.33.39-.49.59-.1.13-.2.25-.3.38-.23.29-.46.59-.68.89-.11.15-.59.82-.72,1.01,21.89,11.11,43.22,9.38,49.2,8.6ZM118.29,35.19c.9.32.41,1.71-.49,1.39-.9-.32-.41-1.71.49-1.39ZM116.17,35.02c.9.32.41,1.71-.49,1.39-.9-.32-.41-1.71.49-1.39ZM113.18,36c.9.32.41,1.71-.49,1.39-.9-.32-.41-1.71.49-1.39ZM106.76,35.65c.94.08,1.88.17,2.83.25.41.04.7.38.69.79,0,.39-.4.72-.79.69-.94-.08-1.88-.17-2.83-.25-.41-.04-.7-.38-.69-.79,0-.39.4-.72.79-.69ZM78.32,28.75c.45.21.91.41,1.38.6,7.45,3.09,15.45,4.96,23.44,5.9.94.11.84,1.58-.1,1.47-3.09-.36-6.15-.88-9.19-1.53-3.96-.85-7.88-1.94-11.7-3.32-1.46-.52-2.92-1.07-4.32-1.73-.36-.17-.6-.53-.45-.94.12-.35.58-.62.94-.45Z"/>
        <path class="cls-5" d="M117.07,70.2c-25.02,4.31-44.5-5.88-48.13-7.95.97,3.56,2.39,6.94,4.2,9.94,14.95,9.04,29.31,7.91,36.12,6.59,2.94-2.36,5.59-5.28,7.81-8.58ZM94.42,75.89c-6.58-.78-13.11-2.21-19.39-4.32-.9-.3-.41-1.7.49-1.39,6.16,2.08,12.54,3.48,19,4.24.94.11.84,1.58-.1,1.47ZM100.86,76.55c-.94-.08-1.88-.17-2.83-.25-.41-.04-.7-.38-.69-.79,0-.39.4-.72.79-.69.94.08,1.88.17,2.83.25.41.04.7.38.69.79,0,.39-.4.72-.79.69ZM104.07,76.57c-.9-.32-.41-1.71.49-1.39.9.32.41,1.71-.49,1.39ZM106.58,76.44c-.9-.32-.41-1.71.49-1.39.9.32.41,1.71-.49,1.39ZM108.68,76.6c-.9-.32-.41-1.71.49-1.39.9.32.41,1.71-.49,1.39Z"/>
        <path class="cls-2" d="M77.83,30.14c1.4.66,2.86,1.21,4.32,1.73,3.82,1.37,7.73,2.47,11.7,3.32,3.04.65,6.1,1.17,9.19,1.53.94.11,1.05-1.36.1-1.47-7.99-.94-16-2.81-23.44-5.9-.46-.19-.92-.38-1.38-.6-.36-.17-.82.1-.94.45-.14.41.09.77.45.94Z"/>
        <path class="cls-2" d="M88,109.55c-.17,2.21-.15,4.43.04,6.63.19,2.21.63,4.36,1.1,6.53.45,2.07.75,4.15.16,6.23-.54,1.93-1.69,3.71-3.4,4.81-1.69,1.09-3.84,1.5-5.79.95-.91-.26-1.41,1.13-.49,1.39,4.19,1.19,8.49-1.08,10.38-4.89,1.02-2.05,1.28-4.34.98-6.6-.31-2.37-1.01-4.66-1.32-7.03-.34-2.63-.39-5.28-.19-7.92.07-.95-1.4-1.05-1.47-.1Z"/>
        <path class="cls-2" d="M89.15,107c.39,0,.77-.27.79-.69.03-.72.12-1.43.27-2.13,0,.02,0,.03-.01.05.04-.19.06-.36-.03-.55-.08-.16-.24-.32-.42-.38-.18-.06-.39-.06-.56.03-.16.09-.34.23-.38.42-.17.81-.29,1.63-.33,2.45-.02.39.28.78.69.79Z"/>
        <path class="cls-2" d="M90.14,99.77c-.9-.32-1.39,1.08-.49,1.39.9.32,1.39-1.08.49-1.39Z"/>
        <path class="cls-2" d="M90.5,96.51c-.9-.32-1.39,1.08-.49,1.39.9.32,1.39-1.08.49-1.39Z"/>
        <path class="cls-2" d="M91.38,92.31c-.9-.32-1.39,1.08-.49,1.39.9.32,1.39-1.08.49-1.39Z"/>
        <path class="cls-2" d="M106.65,37.12c.94.08,1.88.17,2.83.25.38.03.78-.29.79-.69.01-.41-.27-.75-.69-.79-.94-.08-1.88-.17-2.83-.25-.38-.03-.78.29-.79.69-.01.41.27.75.69.79Z"/>
        <path class="cls-2" d="M112.69,37.4c.9.32,1.39-1.08.49-1.39-.9-.32-1.39,1.08-.49,1.39Z"/>
        <path class="cls-2" d="M115.68,36.42c.9.32,1.39-1.08.49-1.39-.9-.32-1.39,1.08-.49,1.39Z"/>
        <path class="cls-2" d="M117.8,36.58c.9.32,1.39-1.08.49-1.39-.9-.32-1.39,1.08-.49,1.39Z"/>
        <path class="cls-2" d="M94.52,74.42c-6.46-.76-12.84-2.17-19-4.24-.9-.3-1.39,1.09-.49,1.39,6.28,2.12,12.81,3.55,19.39,4.32.94.11,1.05-1.36.1-1.47Z"/>
        <path class="cls-2" d="M100.96,75.08c-.94-.08-1.88-.17-2.83-.25-.38-.03-.78.29-.79.69-.01.41.27.75.69.79.94.08,1.88.17,2.83.25.38.03.78-.29.79-.69.01-.41-.27-.75-.69-.79Z"/>
        <path class="cls-2" d="M104.56,75.18c-.9-.32-1.39,1.08-.49,1.39.9.32,1.39-1.08.49-1.39Z"/>
        <path class="cls-2" d="M107.07,75.04c-.9-.32-1.39,1.08-.49,1.39.9.32,1.39-1.08.49-1.39Z"/>
        <path class="cls-2" d="M109.17,75.21c-.9-.32-1.39,1.08-.49,1.39.9.32,1.39-1.08.49-1.39Z"/>
      </g>
    </g>
  </g>
</svg>