<?xml version="1.0" encoding="UTF-8"?><svg id="_Слой_2" xmlns="http://www.w3.org/2000/svg" width="190.3" height="202.5" xmlns:xlink="http://www.w3.org/1999/xlink" viewBox="0 0 190.3 202.5"><defs><mask id="mask" x="1.59" y="161.46" width="12.14" height="10.02" maskUnits="userSpaceOnUse"><g id="path-15-inside-1_17_229"><ellipse cx="7.66" cy="166.47" rx="2.49" ry="3.57" transform="translate(-158.73 157.2) rotate(-84.18)" style="fill:#fff; stroke-width:0px;"/></g></mask><mask id="mask-1" x="176.57" y="161.46" width="12.14" height="10.02" maskUnits="userSpaceOnUse"><g id="path-38-inside-2_17_229"><ellipse cx="182.64" cy="166.47" rx="3.57" ry="2.49" transform="translate(-15.95 19.39) rotate(-5.82)" style="fill:#fff; stroke-width:0px;"/></g></mask></defs><g id="_Слой_1-2"><path d="m127.02,156.69c0,18.41-14.28,33.24-31.79,33.24s-31.79-14.83-31.79-33.24,14.28-33.24,31.79-33.24,31.79,14.83,31.79,33.24Z" style="fill:#c2b3a6; stroke:#7f7974; stroke-width:2.5px;"/><path d="m56.93,149.91h2.35l6.77,35.75-14.02,9.92-9.51-35.75c1.07-1.78,2.39-3.38,3.93-4.77l.39-.35c1.09-.99,2.28-1.88,3.53-2.66l.78-.48c1.74-1.08,3.74-1.65,5.79-1.65Z" style="fill:#d1c1b4; stroke:#7f7974; stroke-linecap:round; stroke-miterlimit:11.47; stroke-width:2.5px;"/><path d="m40.58,199.52l2.29,1.12c.83.4,1.74.61,2.66.61,1.77,0,3.45-.78,4.6-2.12l1.41-1.66,1.29-3.62c0-4.29-.42-8.58-1.26-12.79l-.02-.13-1.93-6.3c-1.61-4.3-3.54-8.47-5.76-12.48l-1.81-3.26-3.22-4.41-4.51-6.77-1.28-1.57c-1.28-1.56-2.85-2.87-4.62-3.85l-.71-.39c-.96-.53-1.99-.91-3.07-1.13l-.68-.14c-1.55-.31-3.16-.18-4.64.39-1.47.56-2.75,1.53-3.69,2.79l-.35.46c-.84,1.12-1.44,2.41-1.77,3.77l-.15.61h-2.45c-1.13,0-2.23.37-3.14,1.06-.98.74-1.66,1.81-1.92,3l-.21.93c-.12.56-.19,1.12-.19,1.69v1.66l-.85.3c-.92.32-1.72.9-2.31,1.67-.67.87-1.03,1.93-1.03,3.03v1.02c0,1.11.28,2.2.83,3.17l.08.14c.67,1.19,1.72,2.13,2.99,2.65.73.3,1.51.46,2.31.46h.74c1.17,0,2.33-.21,3.42-.62l1.73-.64,1.55.99c1.44.91,2.77,1.98,3.99,3.16.93.91,1.78,1.88,2.55,2.92l2.71,3.64,3.06,5.04,3.87,5.67,2.03,3.07c.79,1.2,1.72,2.32,2.75,3.33,1,.98,2.11,1.86,3.3,2.61l1.44.91Z" style="fill:#febcbe; stroke:#d06c70; stroke-linecap:round; stroke-miterlimit:11.47; stroke-width:2.5px;"/><path d="m39.11,199.59l2.2,1.07c.8.39,1.67.59,2.56.59,1.71,0,3.33-.75,4.44-2.04l1.35-1.58,1.24-3.47c0-4.12-.41-8.22-1.22-12.26l-.02-.12-1.86-6.04c-1.55-4.12-3.4-8.12-5.55-11.97l-1.75-3.13-3.1-4.23-4.34-6.49-1.23-1.5c-1.24-1.5-2.75-2.76-4.45-3.7l-.68-.37c-.92-.51-1.92-.88-2.96-1.08l-.65-.13c-1.49-.3-3.04-.17-4.46.37-1.42.54-2.65,1.47-3.56,2.68l-.33.43c-.81,1.08-1.39,2.31-1.71,3.63l-.14.58h-2.36c-1.09,0-2.14.35-3.01,1.01-.94.71-1.6,1.74-1.86,2.89l-.2.88c-.12.53-.18,1.08-.18,1.63v1.59l-.83.29c-.88.31-1.65.86-2.21,1.6-.64.84-.99,1.86-.99,2.91v.97c0,1.07.27,2.12.8,3.05l.07.12c.64,1.15,1.66,2.05,2.88,2.55.7.29,1.45.44,2.21.44h.72c1.13,0,2.24-.2,3.3-.59l1.66-.62,1.49.95c1.38.88,2.67,1.89,3.84,3.03.89.87,1.72,1.81,2.46,2.8l2.6,3.48,2.95,4.83,3.72,5.44,1.95,2.94c.77,1.16,1.65,2.22,2.65,3.19.97.94,2.03,1.78,3.17,2.5l1.39.88Z" style="fill:rgba(209,105,113,.27); stroke-width:0px;"/><path d="m55.38,178.74l.03-.16.32-3.47,16.44.32,1.61,3.94,2.26,3.94,1.77,1.26,2.61,2.01c.3.23.58.5.83.78l.72.83c.44.5.68,1.15.68,1.82,0,.83-.38,1.62-1.03,2.14-.48.39-1.09.6-1.7.6h-.75c-1.09,0-2.14-.36-3-1.03l-1.1-.86-2.1-1.89-1.74.97c-1.08.61-2.01,1.46-2.69,2.5-.27.42-.51.86-.7,1.32l-.68,1.67-1.06,2.08c-.26.5-.6.95-1.02,1.32l-.4.35c-.58.52-1.34.81-2.12.81h-.28c-.5,0-.98-.16-1.38-.45-.44-.32-.75-.78-.88-1.3l-.12-.46c-.1-.41-.14-.84-.1-1.26l.42-4.4-.04.07c-.3.58-.69,1.11-1.15,1.56-.49.48-.9,1.05-1.2,1.67l-.93,1.91c-.15.3-.34.58-.57.83l-.4.44c-.54.58-1.33.84-2.11.7-.82-.15-1.5-.73-1.77-1.53l-.06-.19c-.09-.28-.14-.56-.14-.86v-1.11c0-.75.1-1.5.3-2.22.23-.84.59-1.65,1.07-2.38l.41-.63c-1.18.84-2.26,1.8-3.22,2.88l-.81.9-1.35,1.2c-.27.24-.62.37-.98.37h-.36c-.5,0-.92-.35-1.02-.84-.1-.49-.12-.99-.06-1.49l.23-1.77.25-1.05c.26-1.08.67-2.12,1.22-3.09.63-1.12,1.43-2.13,2.38-2.99l.99-.9,2.53-2.32c.14-.13.29-.25.45-.35.77-.5,1.31-1.3,1.5-2.2Z" style="fill:#febcbe; stroke:#dc7276; stroke-linejoin:round; stroke-width:2.5px;"/><path d="m5.44,157.16l.22.57c.18.46.4.89.68,1.29h0c.37.54.81,1.01,1.33,1.41l.33.25c.34.27.7.51,1.08.72l.4.23c.64.37,1.32.65,2.04.85h0c.79.22,1.6.33,2.42.33h.18c.67,0,1.33-.06,1.98-.19l.63-.12h0c.83-.2,1.57-.69,2.08-1.38l.5-.67" style="fill:none; stroke:#dc7276; stroke-linecap:round; stroke-miterlimit:11.47; stroke-width:2.5px;"/><path d="m13.18,168.34l.84-.64c.4-.31.75-.68,1.02-1.1l.2-.3c.34-.52.52-1.12.52-1.74h0" style="fill:none; stroke:#dc7276; stroke-linecap:round; stroke-miterlimit:11.47; stroke-width:2.5px;"/><path d="m18.18,162.04l.08.07c1.02.89,1.96,1.87,2.82,2.92h0" style="fill:none; stroke:#dc7276; stroke-linecap:round; stroke-miterlimit:11.47; stroke-width:2.5px;"/><path d="m25.43,156.53h0c1.17,1.15,2.15,2.48,2.9,3.94h0" style="fill:none; stroke:#dc7276; stroke-linecap:round; stroke-miterlimit:11.47; stroke-width:2.5px;"/><path d="m20.11,167.08l.53-.78c.93-1.36,2.09-2.53,3.45-3.47h0c1.21-.84,2.54-1.47,3.96-1.87l1.74-.49" style="fill:none; stroke:#dc7276; stroke-linecap:round; stroke-miterlimit:11.47; stroke-width:2.5px;"/><path d="m13.34,148.65v1.29c0,.6.13,1.2.38,1.75h0c.18.39.41.75.7,1.07l.34.38c.24.27.5.52.77.75l.71.6,1.09.68c.45.28.93.52,1.42.72h0c.79.32,1.62.54,2.47.63l.61.07c.56.07,1.13.07,1.69,0l.83-.1c.7-.08,1.37-.34,1.94-.74h0c.59-.42,1.06-.98,1.37-1.64l.34-.73" style="fill:none; stroke:#dc7276; stroke-linecap:round; stroke-miterlimit:11.47; stroke-width:2.5px;"/><path d="m53.48,190.7h0c1.18-1.99,2.56-3.85,4.12-5.56l.39-.43" style="fill:none; stroke:#dc7276; stroke-linecap:round; stroke-linejoin:round; stroke-width:2.5px;"/><path d="m60.09,192.43l1.61-2.68,1.77-2.84" style="fill:none; stroke:#dc7276; stroke-linecap:round; stroke-linejoin:round; stroke-width:2.5px;"/><path d="m22.82,153.2c-.09.18-.34.41-.87.49-.53.09-1.24,0-1.96-.35s-1.22-.84-1.47-1.31c-.26-.47-.22-.79-.13-.98.09-.18.34-.41.87-.49.53-.09,1.24,0,1.96.35s1.22.84,1.47,1.31c.26.47.22.79.13.98Z" style="fill:#d16971; stroke:#7b2629; stroke-width:2.5px;"/><ellipse cx="7.66" cy="166.47" rx="2.49" ry="3.57" transform="translate(-158.73 157.2) rotate(-84.18)" style="fill:#d16971; stroke-width:0px;"/><g style="mask:url(#mask);"><path d="m8.72,166.59c.04-.35.25-.39.06-.28-.19.1-.58.22-1.12.16l-.56,4.98c1.43.15,2.87-.1,4.07-.75,1.19-.65,2.34-1.85,2.53-3.57l-4.98-.53Zm-1.06-.12c-.53-.06-.89-.25-1.06-.39-.17-.15.03-.06,0,.29l-4.98-.53c-.19,1.72.66,3.13,1.68,4.02,1.02.89,2.38,1.44,3.81,1.6l.56-4.98Zm-1.06-.1c-.04.35-.25.39-.06.28.19-.1.58-.22,1.12-.16l.56-4.98c-1.43-.15-2.87.1-4.07.75-1.19.65-2.34,1.85-2.53,3.57l4.98.53Zm1.06.12c.53.06.89.25,1.06.39.17.15-.03.06,0-.29l4.98.53c.19-1.72-.67-3.13-1.68-4.02-1.02-.89-2.38-1.44-3.81-1.59l-.56,4.98Z" style="fill:#7b2629; stroke-width:0px;"/></g><path d="m15.73,159.58c-.07.19-.28.44-.8.59-.52.15-1.23.14-1.99-.12-.76-.26-1.32-.7-1.63-1.13-.31-.44-.32-.76-.25-.95.07-.19.28-.44.8-.59.52-.15,1.23-.14,1.99.12.76.26,1.32.7,1.63,1.13.31.44.32.76.25.95Z" style="fill:#d16971; stroke:#7b2629; stroke-width:2.5px;"/><path d="m40.77,184.66c1.52,2.28,2.46,4.56,2.79,6.36.16.9.16,1.62.05,2.14-.11.51-.31.74-.48.85-.17.11-.46.19-.98.08-.53-.11-1.21-.4-1.99-.91-1.55-1.02-3.31-2.78-4.83-5.06-1.52-2.28-2.46-4.56-2.79-6.36-.16-.9-.16-1.62-.05-2.14.11-.51.31-.74.48-.85.17-.11.46-.19.98-.08.53.11,1.21.4,1.99.91,1.55,1.02,3.31,2.78,4.83,5.06Z" style="fill:#d16971; stroke:#7b2629; stroke-width:2.5px;"/><path d="m139.45,148.55l-.29.5c-1.44,2.45-3.27,4.66-5.4,6.53l3.22,5.2,6.29,1.57,1.61-2.68,1.77-4.1c1.72-4.72,3.08-9.56,4.09-14.47l.1-.49.32-2.77c.21-1.82.63-3.62,1.24-5.35.68-1.93,1.61-3.79,2.73-5.5,1-1.51,2.16-2.92,3.45-4.18l2.89-2.83,2.9-2.83,4.23-3.7c.1-.09.01-.25-.12-.21l-2.89.9c-2.73.85-5.31,2.14-7.64,3.81-1.31.94-2.53,2-3.65,3.16l-.52.54c-1.96,2.04-3.67,4.3-5.09,6.75l-2.06,3.56-3.39,7.87-1.69,4.34c-.59,1.51-1.3,2.98-2.12,4.38Z" style="fill:#f8a3a9; stroke:#d16971; stroke-linecap:round; stroke-miterlimit:11.47; stroke-width:2.5px;"/><path d="m143.44,144.67l-1.55,2.74c-1.25,2.21-2.83,4.22-4.68,5.97l2.13,5.39,4.85,1.96,1.33-2.95,1.45-3.46,2.36-7.24,1.51-7.4.09-1.19c.26-3.47,1.29-6.84,3.03-9.86.71-1.24,1.54-2.42,2.47-3.51l1.33-1.56,4.2-4.2,2.62-2.53,3.58-3.14c.17-.15,0-.42-.21-.33l-3.18,1.31c-1.23.5-2.42,1.1-3.55,1.78l-.11.07c-2.22,1.33-4.23,2.98-5.95,4.91-1.27,1.42-2.38,2.97-3.31,4.64l-2.51,4.49-3.32,7.67-2.58,6.46Z" style="fill:rgba(209,105,113,.27); stroke-width:0px;"/><path d="m47.19,189.76l-.91,2.21c-.04.09-.12.15-.22.15l.64-2.05.81-2.36,1.77-2.36,2.9-2.68,2.74-2.83,1.93-2.52c-.32.94-.8,1.81-1.43,2.58l-1.34,1.63c-.62.76-1.3,1.48-2.03,2.14l-.95.87c-1.63,1.48-2.96,3.25-3.91,5.23Z" style="fill:#dc7276; stroke-width:0px;"/><path d="m52.67,194.48l-.5,2.3c-.05.23-.36.27-.47.06l.48-2.05.48-2.36.97-2.05,1.93-2.52,1.29-1.73.97-1.26c.09.09.11.24.04.35l-1.17,1.86-1.02,1.49c-1.25,1.84-2.26,3.82-3.01,5.91Z" style="fill:#dc7276; stroke-width:0px;"/><path d="m65.88,119.84l1.46-1.43,8.87,2.68,5.8,22.2-2.74,11.5-3.06,10.87-.11.67c-.89,5.59-.69,11.3.59,16.81l-.67-.71c-1.69-1.82-3.05-3.92-4.01-6.21l-.32,3.46-.32,3.47-.13-.11c-2-1.66-3.38-3.96-3.9-6.5l-.81,3.94-.32,3.62c-2.01-2.06-3.44-4.62-4.15-7.41l-.04-.15c-.96,1.87-2.15,3.63-3.55,5.2v-5.2l-1.93,1.42-1.77,1.73,1.29-10.55v-16.85c0-5.96.75-11.9,2.23-17.67l.19-.75,1.55-4.66c.47-1.41,1.07-2.77,1.8-4.06,1.09-1.95,2.46-3.73,4.06-5.29Z" style="fill:#d1c1b4; stroke:#7f7974; stroke-width:2.5px;"/><path d="m59.17,133.85l.12-.34c1.9-5.31,4.6-10.29,8.01-14.78l14.71,4.25-3.06,23.62-2.3,8.66-2.57,8.18-.09.49c-.75,4.21-.58,8.53.49,12.68l-.63-.61c-1.37-1.32-2.49-2.88-3.29-4.61l-.27,2.61-.27,2.61-.27-.2c-1.57-1.17-2.68-2.87-3.12-4.78l-.68,2.96-.27,2.73-.03-.03c-1.66-1.53-2.87-3.49-3.49-5.66-.81,1.42-1.8,2.72-2.95,3.88l-.03.03v-3.91l-1.63,1.07-1.49,1.3.16-7.23v-5.2l.32-7.72v-7.25l.25-1.85c.5-3.69,1.3-7.34,2.38-10.9Z" style="fill:rgba(223,208,197,.7); stroke-width:0px;"/><path d="m133.36,149.91h-2.35l-6.77,35.75,14.02,9.92,9.51-35.75c-1.07-1.78-2.39-3.38-3.93-4.77l-.39-.35c-1.1-.99-2.28-1.88-3.53-2.66l-.78-.48c-1.74-1.08-3.74-1.65-5.79-1.65Z" style="fill:#d1c1b4; stroke:#7f7974; stroke-linecap:round; stroke-miterlimit:11.47; stroke-width:2.5px;"/><path d="m149.71,199.52l-2.29,1.12c-.83.4-1.74.61-2.66.61-1.77,0-3.46-.78-4.6-2.12l-1.41-1.66-1.29-3.62c0-4.29.42-8.58,1.26-12.79l.03-.13,1.93-6.3c1.61-4.3,3.54-8.47,5.77-12.48l1.81-3.26,3.22-4.41,4.51-6.77,1.28-1.57c1.28-1.56,2.85-2.87,4.62-3.85l.71-.39c.96-.53,1.99-.91,3.07-1.13l.68-.14c1.55-.31,3.16-.18,4.64.39,1.47.56,2.75,1.53,3.69,2.79l.35.46c.84,1.12,1.44,2.41,1.77,3.77l.15.61h2.45c1.13,0,2.23.37,3.14,1.06.98.74,1.66,1.81,1.92,3l.21.93c.12.56.19,1.12.19,1.69v1.66l.85.3c.92.32,1.72.9,2.31,1.67.67.87,1.03,1.93,1.03,3.03v1.02c0,1.11-.28,2.2-.83,3.17l-.08.14c-.67,1.19-1.72,2.13-2.99,2.65-.73.3-1.51.46-2.3.46h-.74c-1.17,0-2.33-.21-3.42-.62l-1.73-.64-1.55.99c-1.44.91-2.77,1.98-3.99,3.16-.93.91-1.78,1.88-2.55,2.92l-2.71,3.64-3.06,5.04-3.87,5.67-2.03,3.07c-.79,1.2-1.72,2.32-2.75,3.33-1.01.98-2.11,1.86-3.3,2.61l-1.44.91Z" style="fill:#febcbe; stroke:#d06c70; stroke-linecap:round; stroke-miterlimit:11.47; stroke-width:2.5px;"/><path d="m151.19,199.59l-2.2,1.07c-.8.39-1.67.59-2.56.59-1.71,0-3.33-.75-4.44-2.04l-1.35-1.58-1.24-3.47c0-4.12.41-8.22,1.22-12.26l.03-.12,1.86-6.04c1.55-4.12,3.4-8.12,5.55-11.97l1.75-3.13,3.1-4.23,4.34-6.49,1.23-1.5c1.24-1.5,2.75-2.76,4.45-3.7l.68-.37c.92-.51,1.92-.88,2.95-1.08l.65-.13c1.49-.3,3.04-.17,4.46.37,1.42.54,2.65,1.47,3.56,2.68l.33.43c.81,1.08,1.39,2.31,1.71,3.63l.14.58h2.36c1.09,0,2.14.35,3.01,1.01.94.71,1.6,1.74,1.86,2.89l.2.88c.12.53.18,1.08.18,1.63v1.59l.83.29c.88.31,1.65.86,2.21,1.6.64.84.99,1.86.99,2.91v.97c0,1.07-.27,2.12-.8,3.05l-.07.12c-.64,1.15-1.66,2.05-2.88,2.55-.7.29-1.45.44-2.21.44h-.72c-1.13,0-2.24-.2-3.3-.59l-1.66-.62-1.49.95c-1.38.88-2.67,1.89-3.84,3.03-.89.87-1.72,1.81-2.46,2.8l-2.6,3.48-2.95,4.83-3.72,5.44-1.95,2.94c-.77,1.16-1.65,2.22-2.65,3.19-.97.94-2.03,1.78-3.17,2.5l-1.39.88Z" style="fill:rgba(209,105,113,.27); stroke-width:0px;"/><path d="m134.92,178.74l-.03-.16-.32-3.47-16.44.32-1.61,3.94-2.26,3.94-1.77,1.26-2.61,2.01c-.3.23-.58.5-.83.78l-.72.83c-.44.5-.68,1.15-.68,1.82,0,.83.38,1.62,1.03,2.14.48.39,1.09.6,1.7.6h.75c1.09,0,2.14-.36,3-1.03l1.1-.86,2.1-1.89,1.74.97c1.08.61,2.01,1.46,2.69,2.5.27.42.51.86.7,1.32l.68,1.67,1.06,2.08c.26.5.6.95,1.02,1.32l.4.35c.58.52,1.34.81,2.12.81h.28c.5,0,.98-.16,1.38-.45.44-.32.75-.78.88-1.3l.12-.46c.11-.41.14-.84.1-1.26l-.42-4.4.04.07c.3.58.69,1.11,1.15,1.56.49.48.9,1.05,1.2,1.67l.93,1.91c.15.3.34.58.57.83l.41.44c.54.58,1.33.84,2.11.7.82-.15,1.5-.73,1.77-1.53l.07-.19c.09-.28.14-.56.14-.86v-1.11c0-.75-.1-1.5-.3-2.22-.23-.84-.59-1.65-1.07-2.38l-.41-.63c1.18.84,2.26,1.8,3.23,2.88l.81.9,1.35,1.2c.27.24.62.37.99.37h.36c.5,0,.93-.35,1.03-.84.1-.49.12-.99.06-1.49l-.23-1.77-.25-1.05c-.26-1.08-.67-2.12-1.22-3.09-.63-1.12-1.43-2.13-2.38-2.99l-.99-.9-2.53-2.32c-.14-.13-.29-.25-.45-.35-.77-.5-1.31-1.3-1.5-2.2Z" style="fill:#febcbe; stroke:#dc7276; stroke-linejoin:round; stroke-width:2.5px;"/><path d="m184.85,157.16l-.22.57c-.18.46-.4.89-.68,1.29h0c-.37.54-.81,1.01-1.32,1.41l-.33.25c-.34.27-.7.51-1.08.72l-.4.23c-.64.37-1.32.65-2.04.85h0c-.79.22-1.6.33-2.42.33h-.18c-.67,0-1.33-.06-1.98-.19l-.63-.12h0c-.83-.2-1.57-.69-2.08-1.38l-.5-.67" style="fill:none; stroke:#dc7276; stroke-linecap:round; stroke-miterlimit:11.47; stroke-width:2.5px;"/><path d="m177.12,168.34l-.84-.64c-.4-.31-.75-.68-1.02-1.1l-.2-.3c-.34-.52-.52-1.12-.52-1.74h0" style="fill:none; stroke:#dc7276; stroke-linecap:round; stroke-miterlimit:11.47; stroke-width:2.5px;"/><path d="m172.12,162.04l-.08.07c-1.02.89-1.96,1.87-2.82,2.92h0" style="fill:none; stroke:#dc7276; stroke-linecap:round; stroke-miterlimit:11.47; stroke-width:2.5px;"/><path d="m164.87,156.53h0c-1.17,1.15-2.15,2.48-2.9,3.94h0" style="fill:none; stroke:#dc7276; stroke-linecap:round; stroke-miterlimit:11.47; stroke-width:2.5px;"/><path d="m170.19,167.08l-.53-.78c-.93-1.36-2.09-2.53-3.45-3.47h0c-1.21-.84-2.54-1.47-3.96-1.87l-1.74-.49" style="fill:none; stroke:#dc7276; stroke-linecap:round; stroke-miterlimit:11.47; stroke-width:2.5px;"/><path d="m176.96,148.65v1.29c0,.6-.13,1.2-.38,1.75h0c-.18.39-.41.75-.7,1.07l-.34.38c-.24.27-.5.52-.77.75l-.71.6-1.09.68c-.45.28-.93.52-1.42.72h0c-.79.32-1.62.54-2.47.63l-.61.07c-.56.07-1.13.07-1.69,0l-.83-.1c-.7-.08-1.36-.34-1.94-.74h0c-.59-.42-1.06-.98-1.36-1.64l-.34-.73" style="fill:none; stroke:#dc7276; stroke-linecap:round; stroke-miterlimit:11.47; stroke-width:2.5px;"/><path d="m136.82,190.7h0c-1.18-1.99-2.56-3.85-4.12-5.56l-.39-.43" style="fill:none; stroke:#dc7276; stroke-linecap:round; stroke-linejoin:round; stroke-width:2.5px;"/><path d="m130.21,192.43l-1.61-2.68-1.77-2.84" style="fill:none; stroke:#dc7276; stroke-linecap:round; stroke-linejoin:round; stroke-width:2.5px;"/><path d="m167.48,153.2c.09.18.34.41.87.49.53.09,1.24,0,1.96-.35.72-.35,1.22-.84,1.47-1.31.26-.47.22-.79.13-.98-.09-.18-.34-.41-.87-.49-.53-.09-1.24,0-1.96.35-.72.35-1.22.84-1.47,1.31-.26.47-.22.79-.13.98Z" style="fill:#d16971; stroke:#7b2629; stroke-width:2.5px;"/><ellipse cx="182.64" cy="166.47" rx="3.57" ry="2.49" transform="translate(-15.95 19.39) rotate(-5.82)" style="fill:#d16971; stroke-width:0px;"/><g style="mask:url(#mask-1);"><path d="m181.57,166.59c-.04-.35-.26-.39-.06-.28.19.1.58.22,1.12.16l.56,4.98c-1.43.15-2.87-.1-4.07-.75-1.19-.65-2.34-1.85-2.53-3.57l4.98-.53Zm1.06-.12c.53-.06.89-.25,1.06-.39.17-.15-.03-.06,0,.29l4.98-.53c.19,1.72-.66,3.13-1.68,4.02-1.02.89-2.38,1.44-3.81,1.6l-.56-4.98Zm1.06-.1c.04.35.25.39.06.28-.19-.1-.58-.22-1.12-.16l-.56-4.98c1.43-.15,2.87.1,4.07.75,1.19.65,2.34,1.85,2.53,3.57l-4.98.53Zm-1.06.12c-.53.06-.89.25-1.06.39-.17.15.03.06,0-.29l-4.98.53c-.19-1.72.66-3.13,1.68-4.02,1.02-.89,2.38-1.44,3.81-1.59l.56,4.98Z" style="fill:#7b2629; stroke-width:0px;"/></g><path d="m174.57,159.58c.07.19.28.44.81.59.52.15,1.23.14,1.99-.12.76-.26,1.31-.7,1.63-1.13.31-.44.32-.76.25-.95-.07-.19-.28-.44-.8-.59-.52-.15-1.23-.14-1.99.12-.76.26-1.32.7-1.63,1.13-.31.44-.32.76-.25.95Z" style="fill:#d16971; stroke:#7b2629; stroke-width:2.5px;"/><path d="m149.53,184.66c-1.52,2.28-2.46,4.56-2.79,6.36-.16.9-.16,1.62-.05,2.14.11.51.31.74.47.85.17.11.46.19.98.08.53-.11,1.21-.4,1.99-.91,1.55-1.02,3.3-2.78,4.83-5.06,1.52-2.28,2.46-4.56,2.79-6.36.16-.9.16-1.62.05-2.14-.11-.51-.31-.74-.48-.85-.17-.11-.46-.19-.98-.08-.53.11-1.21.4-1.99.91-1.55,1.02-3.31,2.78-4.83,5.06Z" style="fill:#d16971; stroke:#7b2629; stroke-width:2.5px;"/><path d="m143.11,189.76l.91,2.21c.04.09.12.15.22.15l-.64-2.05-.81-2.36-1.77-2.36-2.9-2.68-2.74-2.83-1.93-2.52c.32.94.8,1.81,1.43,2.58l1.34,1.63c.62.76,1.3,1.48,2.03,2.14l.95.87c1.63,1.48,2.95,3.25,3.91,5.23Z" style="fill:#dc7276; stroke-width:0px;"/><path d="m137.62,194.48l.5,2.3c.05.23.36.27.47.06l-.48-2.05-.48-2.36-.97-2.05-1.94-2.52-1.29-1.73-.97-1.26c-.09.09-.11.24-.04.35l1.17,1.86,1.02,1.49c1.25,1.84,2.27,3.82,3.01,5.91Z" style="fill:#dc7276; stroke-width:0px;"/><path d="m124.42,119.84l-1.46-1.43-8.87,2.68-5.8,22.2,2.74,11.5,3.06,10.87.11.67c.89,5.59.69,11.3-.59,16.81l.67-.71c1.69-1.82,3.05-3.92,4.01-6.21l.32,3.46.32,3.47.13-.11c2-1.66,3.38-3.96,3.9-6.5l.81,3.94.32,3.62c2.01-2.06,3.44-4.62,4.15-7.41l.04-.15c.96,1.87,2.15,3.63,3.55,5.2v-5.2l1.93,1.42,1.77,1.73-1.29-10.55v-16.85c0-5.96-.75-11.9-2.22-17.67l-.19-.75-1.55-4.66c-.47-1.41-1.07-2.77-1.8-4.06-1.09-1.95-2.46-3.73-4.06-5.29Z" style="fill:#d1c1b4; stroke:#7f7974; stroke-width:2.5px;"/><path d="m131.12,133.85l-.12-.34c-1.9-5.31-4.6-10.29-8.01-14.78l-14.71,4.25,3.06,23.62,2.3,8.66,2.57,8.18.09.49c.75,4.21.58,8.53-.49,12.68l.63-.61c1.37-1.32,2.49-2.88,3.29-4.61l.27,2.61.27,2.61.27-.2c1.57-1.17,2.68-2.87,3.12-4.78l.68,2.96.27,2.73.03-.03c1.66-1.53,2.87-3.49,3.49-5.66.81,1.42,1.8,2.72,2.95,3.88l.03.03v-3.91l1.63,1.07,1.49,1.3-.16-7.23v-5.2l-.32-7.72v-7.25l-.25-1.85c-.5-3.69-1.3-7.34-2.38-10.9Z" style="fill:rgba(223,208,197,.7); stroke-width:0px;"/><path d="m70.89,127.08l5.48-6.3,40.78-.47c.52,1.93,1.71,3.62,3.35,4.76l5.36,3.74-2.01-.5c-3.21-.8-6.1-2.55-8.31-5.01.53,3.63,1.85,7.1,3.88,10.16l.15.23-5-4.41,1.36,3.4c.06.15.13.29.21.42,1.16,1.98,1.42,4.35.72,6.53l-.52,1.61c0-2.38-1.11-4.63-3.01-6.07l-1.34-1.02,1.13,3.92c.96,3.33,1.18,6.83.65,10.25l-.64-2.52-1.13-4.57v.43c0,4.42-.54,8.82-1.61,13.11l-.48-4.57-.81-4.41v.12c-.54,4.6-1.96,9.05-4.19,13.11l.12-1.56c.24-3.05.2-6.11-.12-9.15-1.71,3.34-2.86,6.93-3.4,10.64l-.15,1.01-2.9-11.65c-.52,4.19-2.4,8.09-5.35,11.11l-2.06,2.11c1.6-4.06,2.42-8.38,2.42-12.74v-2.22c-2.73,2.36-4.68,5.49-5.59,8.98l-.7,2.67c-1.71-4.29-2.92-8.77-3.59-13.34l-.12-.84-.97,3.78-1.61,5.04-.81-12.28-2.42,7.72-.48-4.25v-4.41l1.13-7.72-3.06,6.77c.32-3.35.96-6.67,1.9-9.9l.51-1.76-3.55,3.46,3.06-5.98-3.06,1.1-3.22,1.42Z" style="fill:#dfd0c5; stroke:#7f7974; stroke-linecap:round; stroke-miterlimit:11.47; stroke-width:2.5px;"/><path d="m45.17,80l-1.36,7.23-.46.76c-.76,1.26-1.16,2.7-1.16,4.16,0,2.23.7,4.4,2,6.21l2.91,4.03c.81,1.12,1.73,2.16,2.76,3.09l3.54,3.21c2.63,2.38,5.49,4.49,8.53,6.31,2.42,1.44,4.95,2.68,7.57,3.71l3.89,1.54c4.33,1.71,8.88,2.79,13.52,3.19l2.41.21c.93.08,1.85.24,2.75.46l1.06.27c2.53.63,5.19.54,7.66-.27.69-.23,1.4-.4,2.12-.51l4.88-.77,4.51-1.32c5.25-1.53,10.33-3.61,15.16-6.2l1.34-.72c2.86-1.54,5.6-3.31,8.18-5.29l4.46-3.44c1.53-1.18,2.88-2.56,4.02-4.12l2.18-2.98c1.14-1.55,1.75-3.43,1.75-5.36,0-2.25-.83-4.42-2.34-6.08l-.08-.09c0-2.51-.27-5.02-.8-7.47l-1.45-6.7c-2.35-7.21-5.65-14.08-9.81-20.42l-.34-.52c-4.04-4.78-9.02-8.68-14.62-11.46l-1.98-.98-9.03-3.46c4.07-.84,8.22-1.26,12.38-1.26h4.87c-2.13-1.56-4.55-2.68-7.11-3.29l-.69-.17c-1.78-.42-3.6-.64-5.42-.64h-.19c-2.54,0-5.07.39-7.49,1.15l-5.85,1.84,2.6-2.94c2.31-2.61,3.91-5.77,4.65-9.18l-1.04,1.96c-.8,1.5-1.95,2.78-3.37,3.73-2.95,1.97-6.2,3.44-9.63,4.35l-5.44,1.45c-4.3,1.15-8.47,2.75-12.44,4.78l-3.91,2c-4.87,2.49-9.19,5.92-12.72,10.1-2.55,3.01-4.65,6.37-6.24,9.98l-1.81,4.09c-2.24,5.07-3.89,10.38-4.91,15.83Z" style="fill:#d1c1b4; stroke:#7f7974; stroke-miterlimit:1.56; stroke-width:2.5px;"/><path d="m93.03,81.59c1.52-1.57,4.03-1.6,5.59-.06h0c3.14,3.11,5.52,6.89,6.97,11.06l.77,2.21h-20.96l.95-2.6c1.44-3.92,3.68-7.5,6.58-10.5l.1-.1Z" style="fill:#ebddd2; stroke-width:0px;"/><path d="m105.22,106.45c0,3.22-3.87,10.08-9.19,10.08-6.45,0-9.51-6.86-9.51-10.08s5.57-6.3,8.87-6.3,9.83,3.08,9.83,6.3Z" style="fill:#7f7974; stroke-width:0px;"/><path d="m103.93,106.98c0,2.85-3.4,8.92-8.08,8.92-5.67,0-8.36-6.07-8.36-8.92s4.9-5.57,7.8-5.57,8.65,2.73,8.65,5.57Z" style="fill:#390b0b; stroke-width:0px;"/><path d="m95.9,113l-.27-.13c-1.91-.92-4.37-1.82-6.04-.51-.03.02-.02.06,0,.09l1.26,1.39c.65.71,1.45,1.26,2.35,1.6.42.16.86.27,1.31.33l.13.02c1.44.2,2.9-.05,4.19-.71.68-.35,1.29-.8,1.83-1.35l1.24-1.27s.01-.08-.03-.09l-1.13-.27c-1.66-.4-3.41-.07-4.81.9-.01,0-.03,0-.04,0Z" style="fill:#fbb8b7; stroke:#9d4647; stroke-miterlimit:1.56; stroke-width:1.25px;"/><path d="m122.87,56.22c15.3,5.47,10.69,36.68-5.55,36.68h0c-4.03,0-10.96-4.02-10.96-15.59s6.05-21.57,13.7-21.57c.99,0,1.93.17,2.81.48Z" style="fill:#f7efe9; stroke-width:0px;"/><path d="m132.35,74.89c-1.07-9.63-5.79-17.26-13.05-17.26-3.59,0-6.86,1.87-9.41,4.93,2.52-4.16,6.09-6.82,10.09-6.82,7.22,0,11.76,8.64,12.36,19.15Z" style="fill:#303030; fill-rule:evenodd; stroke-width:0px;"/><path d="m122.96,63.72c8.02,7.36,6.31,24.7-4.33,26.99-.88.19-1.81.35-2.78.54-3.45.66-8.85-3.2-8.85-12.39s4.88-17.14,11.06-17.14c1.87,0,3.52.73,4.9,2Z" style="fill:#303030; stroke-width:0px;"/><path d="m126.34,79.8c-1.68,10.19-5.77,10.42-11.17,11.47-3.18.61-8.17-2.96-8.17-11.47s4.51-15.87,10.21-15.87,9.13,7.36,9.13,15.87Z" style="fill:#fefefe; stroke-width:0px;"/><path d="m119.61,80.94c0,3.11-.55,5.45-1.47,6.97-.88,1.45-2.1,2.17-3.72,2.17s-3.07-.96-4.27-2.7c-1.19-1.73-1.94-4.08-1.94-6.44s.67-3.98,1.57-4.97c.9-.99,2.14-1.49,3.51-1.49,1.81,0,3.38.61,4.49,1.68,1.1,1.06,1.84,2.65,1.84,4.79Z" style="fill:#0157e5; stroke:#000; stroke-width:2.5px;"/><ellipse cx="112.32" cy="84.87" rx="4.35" ry="4.88" style="fill:#171717; stroke-width:0px;"/><path d="m127.95,31.02l-1.13,13.54,5.48,4.72,4.67,5.83,2.74,5.35,9.51.63h4.78c2.5,0,5-.26,7.45-.77l1.19-.25c2.75-.58,5.41-1.56,7.87-2.92l.51-.28c2.11-1.17,4.04-2.64,5.72-4.38,2.06-2.12,3.71-4.6,4.88-7.32l.33-.77c.86-1.99,1.49-4.08,1.88-6.21l.05-.25c.65-3.55.67-7.18.08-10.73l-.12-.7c-.39-2.35-1.09-4.64-2.06-6.81-1.27-2.84-3-5.44-5.13-7.71-2.56-2.73-5.65-4.92-9.07-6.43l-1-.44c-3.88-1.72-8.11-2.49-12.35-2.26-3.3.18-6.55.97-9.56,2.33l-.21.09c-3.75,1.69-7.05,4.24-9.64,7.45-2.51,3.11-4.27,6.76-5.15,10.66l-1.72,7.62Z" style="fill:#d1c1b4; stroke:#7f7974; stroke-miterlimit:1.56; stroke-width:2.5px;"/><path d="m179.13,36.37l-.04.16v.16c0,5.02-4.35,15.01-19.28,16.39-1.07,0-2.28.05-3.59.1-3.24.12-7.05.27-10.57-.19-2.46-.31-4.59-.91-6.15-1.91-1.49-.96-2.47-2.29-2.72-4.25-.55-14.27,1.58-24.16,5.44-30.45,3.81-6.21,9.36-8.99,16.04-8.99,9.98,0,15.46,5.96,18.35,12.69,1.45,3.38,2.23,6.92,2.57,9.92.34,3.04.21,5.38-.05,6.37Z" style="fill:#febcbe; stroke:#7f7974; stroke-width:2.5px;"/><path d="m161.64,43.15c0,3.09-2.69,10.09-11.28,10.86-3.86,0-13.4-1.05-14.02-6.3-.48-16.22,5.39-21.26,13.18-21.26,11.68,0,12.84,14.03,12.13,16.7Z" style="fill:#f68f93; stroke-width:0px;"/><path d="m64.28,29.44l1.13,13.54-5.48,4.72-4.67,5.83-2.74,5.35-9.51.63h-4.78c-2.5,0-5-.26-7.45-.77l-1.19-.25c-2.75-.58-5.41-1.56-7.87-2.92l-.51-.28c-2.11-1.17-4.04-2.64-5.72-4.38-2.06-2.12-3.71-4.6-4.87-7.32l-.33-.77c-.86-1.99-1.49-4.08-1.88-6.21l-.04-.25c-.65-3.55-.67-7.18-.08-10.73l.12-.7c.39-2.35,1.09-4.64,2.06-6.81,1.27-2.84,3-5.44,5.13-7.71,2.56-2.73,5.65-4.92,9.07-6.43l1-.44c3.88-1.72,8.11-2.49,12.35-2.26,3.3.18,6.55.97,9.56,2.33l.21.09c3.75,1.69,7.05,4.24,9.63,7.45,2.51,3.11,4.27,6.76,5.15,10.66l1.72,7.62Z" style="fill:#d1c1b4; stroke:#7f7974; stroke-miterlimit:1.56; stroke-width:2.5px;"/><path d="m13.1,34.79l.04.16v.16c0,5.02,4.35,15.01,19.28,16.39,1.07,0,2.28.05,3.59.1,3.24.12,7.06.27,10.57-.19,2.45-.31,4.59-.91,6.15-1.91,1.49-.96,2.47-2.29,2.72-4.25.55-14.27-1.58-24.16-5.44-30.45-3.81-6.21-9.36-8.99-16.04-8.99-9.98,0-15.46,5.96-18.35,12.69-1.45,3.38-2.23,6.92-2.57,9.92-.34,3.04-.21,5.38.05,6.37Z" style="fill:#febcbe; stroke:#7f7974; stroke-width:2.5px;"/><path d="m30.59,41.57c0,3.09,2.69,10.09,11.28,10.86,3.86,0,13.4-1.05,14.02-6.3.48-16.22-5.39-21.26-13.18-21.26-11.69,0-12.84,14.03-12.13,16.7Z" style="fill:#f68f93; stroke-width:0px;"/><ellipse cx="109.74" cy="81.25" rx="1.77" ry="2.52" style="fill:#fcfcfc; stroke-width:0px;"/><ellipse cx="114.41" cy="88.81" rx=".97" ry=".94" style="fill:#fcfcfc; stroke-width:0px;"/><path d="m68.77,56.22c-15.3,5.47-10.69,36.68,5.55,36.68h0c4.03,0,10.96-4.02,10.96-15.59s-6.05-21.57-13.7-21.57c-.99,0-1.93.17-2.81.48Z" style="fill:#f7efe9; stroke-width:0px;"/><path d="m59.28,74.89c1.07-9.63,5.79-17.26,13.05-17.26,3.59,0,6.86,1.87,9.41,4.93-2.52-4.16-6.09-6.82-10.09-6.82-7.22,0-11.75,8.64-12.36,19.15Z" style="fill:#303030; fill-rule:evenodd; stroke-width:0px;"/><path d="m68.68,63.72c-8.02,7.36-6.31,24.7,4.33,26.99.88.19,1.81.35,2.78.54,3.45.66,8.85-3.2,8.85-12.39s-4.88-17.14-11.06-17.14c-1.87,0-3.52.73-4.9,2Z" style="fill:#303030; stroke-width:0px;"/><path d="m65.3,79.8c1.68,10.19,5.77,10.42,11.17,11.47,3.18.61,8.17-2.96,8.17-11.47s-4.51-15.87-10.21-15.87-9.13,7.36-9.13,15.87Z" style="fill:#fefefe; stroke-width:0px;"/><path d="m72.03,80.94c0,3.11.55,5.45,1.47,6.97.88,1.45,2.1,2.17,3.72,2.17s3.07-.96,4.27-2.7c1.19-1.73,1.94-4.08,1.94-6.44s-.67-3.98-1.57-4.97c-.9-.99-2.14-1.49-3.51-1.49-1.81,0-3.38.61-4.49,1.68-1.1,1.06-1.84,2.65-1.84,4.79Z" style="fill:#0157e5; stroke:#000; stroke-width:2.5px;"/><ellipse cx="79.32" cy="84.87" rx="4.35" ry="4.88" style="fill:#171717; stroke-width:0px;"/><ellipse cx="81.9" cy="81.25" rx="1.77" ry="2.52" style="fill:#fcfcfc; stroke-width:0px;"/><ellipse cx="77.22" cy="88.81" rx=".97" ry=".94" style="fill:#fcfcfc; stroke-width:0px;"/><path d="m116.67,98.7c2.58-3,6.29-5.68,10.74-7.49,3.39-1.38,6.78-2.08,9.89-2.16-3.36-1.52-7.53-1.64-11.53-.02-4.55,1.85-7.83,5.54-9.11,9.66Z" style="fill:#7f7974; fill-rule:evenodd; stroke-width:0px;"/><path d="m75.72,98.7c-2.58-3-6.29-5.68-10.74-7.49-3.39-1.38-6.78-2.08-9.89-2.16,3.36-1.52,7.53-1.64,11.53-.02,4.55,1.85,7.83,5.54,9.11,9.66Z" style="fill:#7f7974; fill-rule:evenodd; stroke-width:0px;"/><path d="m92.65,103.3h0c.81,0,1.47.66,1.47,1.47v2.74c0,.81-.66,1.47-1.47,1.47h0c-.81,0-1.47-.66-1.47-1.47v-2.74c0-.81.66-1.47,1.47-1.47Z" style="fill:#f1f1f1; stroke:#b3b3b3; stroke-width:1.25px;"/><path d="m98.78,103.3h0c.81,0,1.47.66,1.47,1.47v2.74c0,.81-.66,1.47-1.47,1.47h0c-.81,0-1.47-.66-1.47-1.47v-2.74c0-.81.66-1.47,1.47-1.47Z" style="fill:#f1f1f1; stroke:#b3b3b3; stroke-width:1.25px;"/><path d="m95.46,97.06c-1.48-2.05-4.29-3.83-7-3.83-3.92,0-9.19,4.37-9.19,7.24,0,4.41,3.98,6.93,7.9,6.93,2.86,0,6.78-1.26,8.5-3.96,1.82,2.48,5.54,3.64,8.29,3.64,3.92,0,7.9-2.52,7.9-6.93,0-2.87-5.27-7.24-9.19-7.24-2.84,0-5.8,1.97-7.21,4.15Z" style="fill:#eee4e3; fill-rule:evenodd; stroke-width:0px;"/><path d="m80.56,104.27c1.58,1.7,3.98,2.62,6.36,2.62,2.97,0,7.03-1.34,8.82-4.21,1.89,2.64,5.75,3.88,8.6,3.88,2.15,0,4.32-.75,5.88-2.15-1.44,2.02-3.99,3.12-6.51,3.12-2.67,0-6.3-1.16-8.07-3.64-1.68,2.7-5.5,3.96-8.28,3.96s-5.43-1.26-6.8-3.56Z" style="fill:#7f7974; fill-rule:evenodd; stroke-width:0px;"/><path d="m103.93,93.38c0,1.91-2.97,6.61-8.22,6.61s-8.06-5.17-8.06-7.09,2.81-3.78,8.06-3.78,8.22,2.34,8.22,4.25Z" style="fill:#211d1a; stroke-width:0px;"/><path d="m98.94,90.87c0,.5-1.12,1.73-3.09,1.73s-3.03-1.35-3.03-1.85,1.06-.99,3.03-.99,3.09.61,3.09,1.11Z" style="fill:#47423e; stroke-width:0px;"/><path d="m103.03,33.76c-2.08.14-3.56.24-3.61.24l6.14-1.87c1.49-.45,3.02-.77,4.56-.94l.8-.09c1.46-.17,2.93-.16,4.39.02l1.03.13c1.18.14,2.34.37,3.49.69.68.19,1.34.44,1.98.74l1.46.7,2.1,1.26c-7.39-1.11-14.89-1.39-22.34-.87Z" style="fill:#ebddd2; stroke-width:0px;"/><ellipse cx="129.89" cy="96.84" rx="7.07" ry="3.32" transform="translate(-25.76 51.87) rotate(-20.59)" style="fill:#dfd0c5; stroke-width:0px;"/><ellipse cx="62.61" cy="96.93" rx="3.32" ry="7.07" transform="translate(-50.15 121.45) rotate(-69.41)" style="fill:#dfd0c5; stroke-width:0px;"/><path d="m105.65,97.64c-.64.26-.95.98-.69,1.63.26.64.99.95,1.63.7l-.94-2.32Zm40.76-5.11l-.08,1.25.08-1.25Zm-.08,1.25l1.19.08.16-2.5-1.19-.08-.16,2.5Zm-39.73,6.19c12.59-5.03,26.17-7.14,39.73-6.19l.16-2.5c-13.94-.98-27.9,1.19-40.84,6.36l.94,2.32Z" style="fill:#303030; stroke-width:0px;"/><path d="m106.51,102.63c-.68.13-1.13.78-1,1.46.13.68.78,1.13,1.46,1l-.46-2.46Zm.46,2.46l1.94-.36-.46-2.46-1.94.36.46,2.46Zm1.94-.36c10.81-2.02,21.91-1.76,32.61.76l.58-2.44c-11.04-2.61-22.5-2.88-33.65-.79l.46,2.46Z" style="fill:#303030; stroke-width:0px;"/><path d="m85.11,98.58c.64.26.95.98.69,1.63-.26.64-.99.95-1.63.7l.94-2.32Zm-40.76-5.11l.08,1.25-.08-1.25Zm.08,1.25l-1.19.08-.16-2.5,1.19-.08.16,2.5Zm39.73,6.19c-12.59-5.03-26.17-7.14-39.73-6.19l-.16-2.5c13.94-.98,27.9,1.19,40.84,6.36l-.94,2.32Z" style="fill:#303030; stroke-width:0px;"/><path d="m83.99,102.93c.68.13,1.13.78,1,1.46-.13.68-.78,1.13-1.46,1l.46-2.46Zm-.46,2.46l-1.94-.36.46-2.46,1.94.36-.46,2.46Zm-1.94-.36c-10.81-2.02-21.91-1.76-32.61.76l-.58-2.44c11.04-2.61,22.5-2.88,33.65-.79l-.46,2.46Z" style="fill:#303030; stroke-width:0px;"/></g></svg>