<?xml version="1.0" encoding="UTF-8"?>
<svg id="_Слой_2" data-name="Слой_2" xmlns="http://www.w3.org/2000/svg" viewBox="0 0 192.65 185.17">
  <defs>
    <style>
      .cls-1 {
        fill: #67341d;
      }

      .cls-2 {
        fill: #9c9c9c;
      }

      .cls-3 {
        fill: #825a2d;
      }

      .cls-4 {
        fill: #9c581e;
      }

      .cls-5 {
        fill: #4e80b4;
      }

      .cls-6 {
        fill: #9c6d3c;
      }

      .cls-7 {
        fill: #fff;
        opacity: .3;
      }

      .cls-8 {
        fill: #946720;
      }

      .cls-9 {
        fill: #b67f38;
      }

      .cls-10 {
        fill: silver;
      }

      .cls-11 {
        fill: #98662f;
      }

      .cls-12 {
        opacity: .2;
      }

      .cls-13 {
        fill: #b3b3b3;
      }

      .cls-14 {
        fill: #d3a06e;
      }

      .cls-15 {
        fill: #696969;
      }

      .cls-16 {
        fill: #ab7845;
      }

      .cls-17 {
        fill: #ce9f6d;
      }

      .cls-18 {
        fill: #bd8d58;
      }

      .cls-19 {
        fill: #793e23;
      }

      .cls-20 {
        fill: #5f3623;
      }
    </style>
  </defs>
  <g id="_Слой_1-2" data-name="Слой_1">
    <g>
      <g>
        <g>
          <polygon class="cls-9" points="137.77 160.23 135.64 162.76 135.26 163.23 131.84 167.31 127.14 162.42 125.02 160.23 85.72 119.37 87.07 118.09 87.22 117.94 89.38 115.87 89.65 115.61 91.3 114.05 91.69 113.68 92.96 112.45 133.4 155.56 134.17 156.4 137.77 160.23"/>
          <polygon class="cls-3" points="131.84 167.32 137.44 166.08 143.04 159.08 137.77 160.23 131.84 167.32"/>
          <polygon class="cls-11" points="143.04 159.08 137.77 160.23 92.96 112.46 98.4 112.46 143.04 159.08"/>
          <path class="cls-18" d="M134.17,156.4c-1.23-.28-2.41-.57-3.6-1.11-2.67-1.46-5.06-3.32-6.98-5.71-1.9-2.39-3-5.22-5.04-7.2-1.05-1.01-2.23-1.86-3.38-2.85-1.16-.95-2.15-2.13-3.02-3.32-.91-1.19-1.72-2.43-2.81-3.4-1.05-1.03-2.25-1.88-3.42-2.83-1.19-.91-2.09-2.19-2.89-3.44-.4-.61-.81-1.22-1.27-1.76-.44-.52-1.03-1.01-1.56-1.52-2.13-2.04-4.25-4.17-6.19-6.39-.83-.97-1.8-1.88-2.73-2.83l.4-.38c.97.87,1.98,1.72,2.89,2.69,2.02,2.17,4.15,4.19,6.21,6.31.51.55,1.05,1.05,1.52,1.68.47.61.85,1.27,1.21,1.92.71,1.3,1.46,2.53,2.65,3.46,1.09.97,2.31,1.82,3.42,2.83,1.13,1.01,2.06,2.18,2.99,3.32.95,1.15,1.92,2.2,3.08,3.08,1.17.87,2.43,1.7,3.54,2.73,2.29,2.16,3.48,4.98,5.22,7.25,1.78,2.21,4.07,4.19,6.52,5.65.77.4,1.6.69,2.47.97l.77.83Z"/>
          <path class="cls-18" d="M135.64,162.76l-.38.47c-.73-.69-1.56-1.31-2.39-1.9-1.28-.91-2.61-1.72-3.97-2.55-1.38-.83-2.65-1.88-3.77-3.02-2.31-2.27-4.01-5.02-5.73-7.63-.87-1.27-1.96-2.37-3.08-3.5-1.15-1.11-2.17-2.33-3.16-3.58-3.68-5.14-8.92-8.92-12.57-14.21-1.68-2.61-4.19-4.59-6.33-6.94-1.36-1.58-3.14-2.75-4.86-4.03l.28-.26c1.8,1.09,3.64,2.17,5.12,3.78,2.18,2.25,4.78,4.19,6.48,7,1.62,2.67,3.66,5.1,5.83,7.37l3.3,3.42c1.09,1.15,2.14,2.35,3.17,3.54,1.05,1.19,2.11,2.33,3.28,3.38,1.17,1.05,2.37,2.16,3.3,3.5,1.82,2.61,3.54,5.24,5.69,7.45,1.09,1.13,2.29,2.08,3.58,2.95,1.31.85,2.65,1.74,3.91,2.71.81.63,1.6,1.31,2.31,2.06Z"/>
          <path class="cls-18" d="M127.14,162.42l-2.11-2.2c-.59-.87-1.29-1.74-1.94-2.63-.87-1.13-1.6-2.33-2.39-3.48-3.1-4.59-7.3-8.46-10.72-12.95-1.74-2.2-3.52-4.37-5.49-6.36-.97-1.01-2.02-1.96-3.07-2.87-1.07-.91-2.2-1.76-3.2-2.79-2.02-2.06-3.5-4.47-5.4-6.46-.97-.97-2.04-1.88-3.16-2.67-.85-.59-1.86-1.13-2.59-1.94l.16-.14c.79.65,1.78,1.09,2.71,1.64,1.21.73,2.37,1.56,3.42,2.57,2.04,2.01,3.6,4.39,5.46,6.42,4.01,3.83,7.89,8.04,11.58,12.26,1.84,2.14,3.82,4.09,5.75,6.15,1.9,2.06,3.87,4.13,5.4,6.57l2.31,3.5c.79,1.17,1.62,2.29,2.35,3.54.36.57.67,1.21.93,1.84Z"/>
        </g>
        <g>
          <polygon class="cls-9" points="77.64 176.55 75.04 179.63 74.58 180.21 70.42 185.17 64.69 179.22 62.11 176.55 14.25 126.78 15.89 125.21 16.08 125.04 18.7 122.52 19.04 122.21 21.04 120.3 21.52 119.85 23.06 118.35 72.32 170.86 73.26 171.87 77.64 176.55"/>
          <polygon class="cls-3" points="70.42 185.17 77.24 183.67 84.06 175.14 77.64 176.55 70.42 185.17"/>
          <polygon class="cls-11" points="84.06 175.14 77.64 176.55 23.07 118.36 29.69 118.36 84.06 175.14"/>
          <path class="cls-18" d="M73.26,171.87c-1.49-.34-2.94-.7-4.38-1.35-3.25-1.78-6.16-4.05-8.5-6.96-2.31-2.91-3.66-6.36-6.14-8.76-1.27-1.23-2.72-2.26-4.12-3.47-1.42-1.16-2.62-2.6-3.68-4.05-1.11-1.44-2.09-2.96-3.42-4.14-1.27-1.25-2.74-2.29-4.16-3.44-1.44-1.11-2.55-2.67-3.52-4.19-.48-.74-.99-1.49-1.54-2.14-.53-.63-1.25-1.23-1.9-1.85-2.6-2.48-5.18-5.08-7.54-7.78-1.01-1.18-2.19-2.28-3.32-3.44l.48-.46c1.18,1.06,2.41,2.09,3.51,3.27,2.46,2.65,5.06,5.1,7.56,7.68.62.67,1.27,1.28,1.85,2.05.58.75,1.04,1.54,1.47,2.33.87,1.59,1.78,3.08,3.23,4.21,1.32,1.18,2.82,2.21,4.17,3.44,1.37,1.23,2.5,2.65,3.63,4.05,1.16,1.4,2.34,2.67,3.76,3.76,1.42,1.06,2.96,2.07,4.31,3.32,2.79,2.62,4.24,6.07,6.36,8.83,2.17,2.7,4.96,5.11,7.94,6.89.94.48,1.95.84,3.01,1.18l.94,1.01Z"/>
          <path class="cls-18" d="M75.04,179.63l-.46.58c-.89-.84-1.9-1.59-2.91-2.31-1.56-1.11-3.18-2.09-4.84-3.1-1.69-1.01-3.23-2.29-4.6-3.68-2.82-2.77-4.89-6.12-6.98-9.29-1.06-1.54-2.38-2.89-3.76-4.26-1.4-1.35-2.65-2.84-3.85-4.36-4.48-6.26-10.86-10.86-15.31-17.31-2.05-3.18-5.11-5.59-7.71-8.45-1.66-1.93-3.83-3.35-5.92-4.91l.34-.31c2.19,1.32,4.43,2.65,6.24,4.6,2.65,2.75,5.83,5.11,7.9,8.52,1.97,3.25,4.45,6.21,7.1,8.98l4.02,4.17c1.32,1.4,2.6,2.87,3.85,4.31,1.28,1.45,2.58,2.84,4,4.12,1.42,1.28,2.89,2.62,4.02,4.26,2.22,3.18,4.31,6.38,6.94,9.08,1.32,1.37,2.79,2.53,4.36,3.59,1.59,1.03,3.23,2.12,4.77,3.3.99.77,1.95,1.59,2.82,2.5Z"/>
          <path class="cls-18" d="M64.69,179.22l-2.58-2.67c-.72-1.06-1.56-2.12-2.36-3.2-1.06-1.37-1.95-2.84-2.91-4.24-3.78-5.59-8.88-10.31-13.05-15.77-2.12-2.67-4.28-5.32-6.69-7.75-1.18-1.23-2.46-2.38-3.73-3.49-1.3-1.11-2.67-2.15-3.9-3.39-2.46-2.5-4.26-5.44-6.57-7.87-1.18-1.18-2.48-2.29-3.85-3.25-1.03-.72-2.26-1.37-3.15-2.36l.19-.17c.96.79,2.17,1.32,3.3,2,1.47.89,2.89,1.9,4.17,3.13,2.48,2.45,4.38,5.34,6.64,7.82,4.89,4.67,9.61,9.8,14.11,14.93,2.24,2.6,4.65,4.98,7.01,7.49,2.31,2.5,4.72,5.03,6.57,7.99l2.81,4.26c.96,1.42,1.97,2.79,2.87,4.31.43.7.82,1.47,1.13,2.24Z"/>
        </g>
        <g>
          <path class="cls-19" d="M140.86,110.49c-.02.48-.31.77-.43,1.2-.12.46.07,1.03-.1,1.47-.17.36-.65.53-.82.92-.17.41.05.89.12,1.32.02.12.05.24.07.34.02.36.02.7-.03,1.06-.03.24,0,.44-.12.65-.07.19-.31.26-.41.43,0,.03-.02.05-.02.07-.17.41-.02.89-.19,1.32-.15.39-.51.68-.58,1.13-.1.5.1.99-.26,1.4-.36.39-.74.43-.99.96-.22.55-.26.82-.65,1.23-.12.12-.22.22-.29.34-.14.22-.27.41-.43.7-.19.29-.36.7-.62.94-.39.34-.53.12-.96.29-.24.1-.43.29-.55.5-.24.39-.36.89-.6,1.25-.43.67-1.13,1.42-1.73,1.9-.41.34-.75.46-1.06.89-.19.29-.31.79-.65.99-.44.24-.99-.07-1.47-.07-.6-.02-.82.24-1.16.7-.21.32-.38.65-.58.96-.26.43-.1.41-.63.32-.36-.05-.36-.24-.74,0-.22.12-.48.53-.6.72-.62.15-1.13.51-1.81.55-.74.05-1.54-.53-2.26-.22-.38.15-.46.39-.87.44-.36.02-.72-.15-1.06,0-.36.17-.31.62-.77.74-.29.07-.48-.1-.72-.14-.12-.03-.24-.07-.43-.12-.22-.03-.48-.05-.72-.05v1.35l-79.6,7.46-.22-69.89,78.87,9.2s.1-.05.17-.07c.91-.36,1.95.09,2.67.7.36.31.55.6,1.08.7.48.07.91-.1,1.32-.24,1.2-.38,1.59-.22,2.58.43.79.53,1.64.68,2.46,1.08.79.38,1.64.53,2.33,1.16.31.31.63.74,1.03.91.48.17.89-.02,1.32.26.43.29.7.84,1.01,1.2.39.44.68.34,1.11.58.41.24.58.65.84,1.01.31.41.65.53.99.84.19.15.36.34.5.53.34.39.65.84.91,1.3.12.19.24.36.34.55.48.84,1.06,1.56,1.73,2.29.41.41.48.5.58,1.11.1.43.22.84.43,1.28.22.41.55.6.77.96.22.31.31.89.46,1.25.36,1.06.27,2.17.58,3.23.29.94.92,1.88.63,2.91-.19.65-.29.79-.07,1.49.12.36.31.86.29,1.27Z"/>
          <path class="cls-1" d="M71.97,89.27c-3.55,0-7.32.71-10.84.45-1.23-.09-5.24-1.55-3.08-3.49,1.23-1.1,7.85-.57,9.51-.41,3.64.33,7.37.31,11.03.64,7.03.64,14.23,1.64,21.27,2.01,5.4.28,10.41-.74,15.59-.81-6.64,2.28-13.23,3.29-20.4,2.46-7.6-.88-15.29-.84-23.08-.84Z"/>
          <path class="cls-20" d="M96.23,108.07c-3.27,1.25-7.58.91-11.2,1.06-2.75.11-9.96.93-12.17-.62,4.21.42,8.42-.85,12.6-.89,1.88-.02,3.75-.36,5.63-.42.98-.03,4.64,1.06,5.14.87Z"/>
          <path class="cls-1" d="M121.29,109.93c-4.64.19-9.27.15-13.88.05-2.11-.05-7.15.77-8.52-1.43,3.18-.26,6.37-.73,9.56-.88,2.64-.12,5.13.65,7.87.65s5.68-.23,8.42,0c2.3.19,4.78.54,6.97.23-1.85,2.18-7.68,1.26-10.42,1.37Z"/>
          <path class="cls-1" d="M77.8,128.95c-3.48,1.27-6.97.43-10.53.68-2.57.18-4.88,1.6-7.32.01-1.86-1.21-3.1-4.03-1.44-5.94,1.67-1.92,4.6-.74,6.76-.56,3.02.25,5.72-.52,8.71-.76,1.76-.14,3.18.44,4.82.45,1.54,0,2.72-.86,4.42-.86,3.15,0,6.5.23,9.63.37,3.33.16,6.34-.49,9.64.05,4.82.78,9.86-.09,14.83.23-5.98,3.44-14.13,1.2-20.85,1.76-3.46.29-6.23,2.32-9.63,2.61-1.68.14-3.38-.14-5.01.2-1.55.32-2.53,1.23-4.01,1.77Z"/>
          <path class="cls-1" d="M67.98,98.92c-.51-.02-1.03-.01-1.55.05-1.41.16-3.73,2.07-4.94,1.89-2.25-.35-1.4-2.4-.14-3.4,1.27-1.02,3.37-1.14,4.87-1.68,3.41-1.22,6.66-.82,10.18-.26,3.58.57,6.85,1.16,10.64,1.16,6.85,0,12.86,1.53,19.65,1.8,3.69.15,7.77.12,11.57-.21-5.44,3.9-14.71,1.58-20.8,1.01-7.61-.71-15.32,1.16-23.02.6-2.16-.16-4.29-.88-6.46-.98Z"/>
          <path class="cls-20" d="M135.13,94.14c-.53-.05-1.06-.07-1.56-.07-3.61.05-6.96.87-10.62,1.01-3.66.14-6.86,1.3-10.59,1.01-3.51-.29-7.01-.46-10.43-1.06-2.43-.41-4.89-1.06-7.34-1.13-1.95-.02-4.17-.55-6.14-.46,3.3-2,7.66-.84,11.22-.55,3.63.27,7.2.99,10.84,1.13,7.66.31,16.11.12,23.72-1.18.34.39.65.84.91,1.3Z"/>
          <path class="cls-1" d="M102.07,118c-3.17.45-5.66,1.32-8.89,1.18-2.25-.09-7.17-1.16-9.18-.23,3.79-1.74,8.05-1.15,12.06-1.94,4.08-.81,8.4-.79,12.44-2.11,6.49-2.12,13.49-1.54,20.19-1.36-2.92.45-6.01,1.36-8.97,1.62-3.1.27-6.24,0-9.24.74-2.92.72-5.4,1.67-8.42,2.11Z"/>
          <path class="cls-20" d="M136.17,124.34c-.14.22-.27.41-.43.7-.19.29-.36.7-.62.94-.39.34-.53.12-.96.29-.24.1-.43.29-.55.5-1.88.12-3.61.63-5.63,1.37-6.77,2.5-12.69.65-19.5.96-.38.03-.77.05-1.15.1-2.55.22-5.01,1.06-7.56,1.38-.96.12-3.73-.22-4.67.55,2.24-3.15,9.92-3.01,13.24-3.13,4.94-.21,9.9.05,14.83-.55,4-.51,7.92-2.14,11.84-2.91.39-.07.79-.15,1.18-.19Z"/>
          <path class="cls-1" d="M85.21,114.58c-1.28-.03-3.99,2.51-5.87,2.76-3.06.41-6.23.08-9.25-.47,1.07-1.77,4.33-1.25,6.13-1.45,2.99-.34,5.97-.89,8.99-.83Z"/>
          <path class="cls-1" d="M139.71,115.74c.02.36.02.7-.03,1.06-.03.24,0,.44-.12.65-.07.19-.31.26-.41.43,0,.03-.02.05-.02.07-2.55.39-5.2.48-7.75.79-1.51.19-8.28.53-9,1.78,2.41-4.09,9.17-4.04,13.26-4.4.99-.1,1.97-.17,2.94-.27.38-.05.75-.07,1.13-.12Z"/>
          <path class="cls-1" d="M72.03,137.23c-4.97,1.06-8.33,3.39-13.51,1.63,2.6-1.66,5.49-1.42,8.38-1.91,3.88-.66,7.61-2.22,11.44-3.08,3.53-.8,7.07-.25,10.68-.25,7.52,0,15.12.2,22.67-.41,3.75-.3,8.97.02,12.46-1.2-1.84,1.64-6.39,1.36-9.05,2-3.65.87-6.76.86-10.48.86-6.85,0-13.66,1.31-20.42.76-4.17-.34-8.15.76-12.18,1.61Z"/>
          <g>
            <g>
              <path class="cls-20" d="M70.2,112.25c-.17.6.1,1.4-.15,1.98-.21.46-.89.7-1.08,1.2-.27.58.05,1.23.14,1.81.12.62.17,1.23.07,1.85-.05.34,0,.6-.17.92-.12.24-.41.34-.55.58-.29.58-.05,1.27-.29,1.85-.19.53-.68.92-.79,1.54-.12.67.15,1.3-.34,1.85-.48.55-1.01.6-1.32,1.32-.29.72-.34,1.11-.87,1.64-.46.46-.63.82-.99,1.4-.24.41-.48.94-.84,1.25-.5.46-.7.17-1.3.41-.94.34-1.08,1.61-1.56,2.36-.55.89-1.49,1.9-2.31,2.58-.55.43-1.01.6-1.42,1.18-.27.41-.43,1.08-.89,1.32-.58.34-1.32-.07-1.95-.09-.82-.02-1.11.31-1.59.94-.29.41-.51.89-.77,1.3-.36.6-.12.53-.84.43-.48-.07-.48-.34-.99-.03-.29.19-.65.72-.82.99-.87.19-1.54.7-2.43.74-1.01.05-2.07-.72-3.03-.31-.53.21-.62.5-1.18.58-.48.07-.96-.17-1.42.03-.46.24-.41.84-1.06.99-.39.09-.62-.12-.96-.19-.15-.03-.31-.1-.58-.15-.55-.07-1.27-.1-1.78-.07-1.18.05-2.19.41-3.42.22-1.23-.19-1.83-1.06-2.43-2.09-.03-.05-.07-.12-.1-.17-.43.24-.51.89-.58,1.49-.05.24-.1.48-.17.68-.46-.05-.79-.39-1.15-.68-.26-.19-.53-.36-.87-.36-.41-.03-.65.14-.89.36-.26.26-.51.65-.92.84-.72-.46-.96-1.2-1.78-1.54-.6-.26-.7-.31-1.23-.72-.29-.24-.77-.53-1.13-.68-.48-.22-.75-.17-1.16-.58-.29-.31-.41-.84-.74-1.13-.41-.38-.65-.17-1.11-.34-.34-.12-.58-.46-.87-.74-.82-.85-2.07-1.59-3.13-1.95-.31-.12-.77-.05-1.06-.17-.41-.17-.29-.29-.55-.58-.46-.46-.75-.63-1.32-.89-1.37-.65-1.9-1.95-2.84-3.11-.89-1.13-1.93-1.95-2.84-3.03.41-.36.5-1.37.26-1.85-.31-.63-1.13-.82-1.71-1.11.65-2.17-1.73-2.41-2.38-4.12-.34-.89.22-1.49-.31-2.29-.51-.75-1.03-1.18-.87-2.19,1.71-.05-.17-2.07-.31-2.55-.29-.87.15-.7.58-1.11,1.11-1.08-.84-2.17-1.06-3.3-.15-.65.17-1.35.24-1.95.1-.6-.05-1.37.19-1.93.21-.55.62-.74.72-1.42.07-.6.05-1.42,0-2.02-.12-1.23-.34-2.63.56-3.61.53-.58.67-.63.77-1.44.07-.63.22-1.23.17-1.85,1.28.1,1.88-1.81,1.95-2.86.05-.72-.19-1.16.24-1.81.29-.48.75-.84,1.16-1.2.39-.31.94-.5,1.25-.87.38-.46.34-1.03.53-1.59.44-1.2,1.16-1.81,2.09-2.5.92-.67,1.21-1.93,2.34-2.41,1.01-.44,2.57-.58,3.32-1.42.46-.5.41-1.01,1.15-1.3.53-.22,1.28,0,1.78-.24.55-.29.82-1.01,1.35-1.35.53-.34,1.2-.7,1.78-.94,1.18-.46,2.26-.99,3.42-1.49,1.11-.46,2.41-.34,3.59-.58,1.23-.26,2.38-.63,3.59-.96.63-.15,1.11-.15,1.78-.07.84.1,1.13-.09,1.9-.39,1.23-.48,2.62.12,3.59.94.5.41.75.79,1.44.92.65.12,1.23-.12,1.81-.31,1.59-.53,2.12-.29,3.47.6,1.08.7,2.19.89,3.3,1.42,1.08.53,2.22.72,3.13,1.59.43.38.84.99,1.42,1.2.63.24,1.2,0,1.76.36.58.38.94,1.16,1.39,1.64.48.58.87.43,1.47.77.55.31.79.87,1.16,1.35.38.55.84.72,1.3,1.13.96.84,1.71,2.12,2.36,3.2.65,1.16,1.42,2.12,2.33,3.08.55.58.65.67.79,1.49.12.6.26,1.15.55,1.71.29.58.75.82,1.06,1.3.29.43.41,1.2.6,1.71.5,1.42.36,2.91.79,4.33.39,1.25,1.2,2.53.82,3.9-.24.89-.39,1.08-.07,2.02.15.5.41,1.16.38,1.73-.05.63-.43,1.01-.58,1.61Z"/>
              <path class="cls-4" d="M17.38,137.72c-.69-.67-1.37-.6-2.1-1-.94-.52-1.79-1.93-2.38-2.84-.42-.65-.62-.86-1.19-1.27-.38-.28-.44-.08-.72-.55-.14-.24-.09-.62-.18-.9-.13-.42-.38-1.32-.75-1.61-.34-.27-1.02-.28-1.46-.57-1.26-.84-1.22-2.31-2.07-3.39-.83-1.06-1-2.28-1.66-3.31-.36-.56-.91-.83-1.14-1.49-.21-.61-.15-1.28-.22-1.88-.15-1.26-.9-2.19-1.15-3.4-.21-1-.04-2.53.12-3.67.53-.35.55-1.17.97-1.48.4-.29,1.24-.19,1.71-.46-.75-.12-1.56-.98-2.34-.68.17-.92-.3-1.53-.33-2.43-.03-.76.39-1.75.55-2.48.21-.95.55-1.85.67-2.82.19-1.53.8-2.21,1.5-3.42.66-1.15.36-2.59,1.21-3.68.42-.54.49-.9.74-1.46.29-.63.76-.87,1.17-1.43.41-.55.28-1.11.67-1.62.3-.39.97-.67,1.31-1.06.71-.79,1.56-1.38,2.25-2.15.73-.82,1.47-1.79,2.25-2.48.86-.76,1.95-1.21,2.86-1.87.4-.29.72-.71,1.12-1.01.59-.44,1.01-.4,1.64-.63,1.02-.37,2.02-.73,2.91-1.32.56-.37,1.13-.36,1.66-.7.92-.61.7-.49,1.71-.5.91,0,1.7-.61,2.55-.86.84-.25,1.57-.06,2.41-.08.74,0,1.48-.38,2.23-.27.59.08.67.41,1.16.62,1.08.48,1.91-.02,2.99-.19,1.15-.18,2.62-.02,3.67.25.42.11.98.44,1.4.48.55.05,1.11-.35,1.65-.14.42.16.59.66.92.93.69.56,1.88.67,2.7.97.06.49-.25.96-.4,1.43.08-.56.88-1.06,1.37-1.27.36.78,1.62.67,2.19,1.16.66.55,1.05,1.34,1.81,1.72.83.42,1.67.59,2.43,1.22.73.59,1.36,1.5,2.12,1.95.7.42,1.27.02,1.66.88.34.76.21,1.5.75,2.22.77,1.04,2.37.43,2.55,1.8.11.78,0,1.15.59,1.78.79.87,1.64,1.89,1.92,3.04.06.25-.01.66.08.9.08.21.38.31.5.57.12.28.02.79.15,1.07.15.3.49.44.67.73.34.53.17,1.24.46,1.81.12.24.51.52.58.79.08.35-.15.63-.09.98.16.95.4,1.89.51,2.84.08.69-.23,1.15-.23,1.73,0,.52.52,1.12.28,1.55-.13.22-1.69.88-1.96.86.82.05,1.58.17,2.4.07.49.95-.37,1.96-.29,2.9.04.59.83.81.81,1.37-.02.55-.59.47-.84.79-.41.54-.58,1.84-.72,2.54-.09.48-.07,1.01-.25,1.47-.2.52-.42.58-.82.97-.45.45-1.63,2.33-.18,2.06-.13.53-.72.91-1.05,1.37-.35.48-.55.98-.74,1.54-.19.58-.41,1.13-.57,1.71-.19.67-.36.81-.74,1.38-.36.54-.45,1.16-.88,1.65-.35.41-.83.66-1.25,1.02-.87.73-1.51,1.79-2.18,2.72-.22.31-.55,1-.9,1.14-.44.18-.58-.12-1.06.15-.94.54-1.14,1.75-2.14,2.28-.46.25-1,.29-1.44.59-.53.36-.86,1-1.28,1.48-.52.58-1.06.28-1.47.58-.23.18-.16.69-.37.93-.15.17-.52.29-.73.4-.78.42-.83.27-1.63.28-.4,0-1.08.3-1.49.5-.83.42-.69.36-1.46.16-.59-.15-1.38-.14-1.96.07-.58.22-1.1.68-1.69.92-.58.23-1.23.13-1.83.28-.29.07-.54.38-.88.35-.28-.03-.53-.36-.81-.48-.55-.21-1.37-.05-1.96.04-1.15.18-2.45,1.26-3.65.56-.5-.29-.79-.94-1.32-1.21-.71-.37-1.12-.21-1.81-.03-.48.12-.92.29-1.44.25.11-.86-1.24-.45-1.72-.64-.31-.13-.4-.49-.73-.58-.35-.1-.78.09-1.15.08-.73-.01-1.39-.34-2.03-.66-.52-.26-.72-.81-1.19-1.1-.58-.35-1.31-.17-1.9-.44-.65-.29-1.07-.92-1.57-1.4Z"/>
              <path class="cls-14" d="M27.24,140.79c-2.2-.59-4.58-1.31-6.56-2.46-1.92-1.11-3.62-2.56-5.38-3.9-.09-.07-.18-.14-.26-.21-1.69-1.35-3.28-3.17-4.6-4.84-1.25-1.6-2.76-3.16-3.63-5.03-.09-.2-.18-.39-.25-.59-.53-1.28-.92-2.63-1.26-3.99-.21-.86-.41-1.72-.61-2.57-.54-2.3-.85-4.64-.85-7,0-1.54.43-3.17.61-4.71.21-1.78.44-3.67,1.03-5.37.58-1.71,1.72-3.2,2.33-4.92,1.22-3.42,4.48-6.64,7.14-8.99,2.08-1.84,4.67-2.83,7.01-4.19.14-.08.28-.16.42-.23.94-.53,1.93-.98,2.95-1.35,1.85-.68,3.79-1.13,5.74-1.44,4.07-.64,8.27-.2,12.21.96.59.17,1.19.37,1.77.59.96.33,1.89.73,2.82,1.15.34.16.7.32,1.04.49,1.76.84,3.26,1.36,4.78,2.56,1.57,1.25,3.26,2.27,4.74,3.66,2.26,2.11,3.43,4.16,4.71,6.91.65,1.39,1.47,2.63,2.15,4,1.18,2.37,1.63,4.95,2.09,7.58.15.86.26,1.72.31,2.58.06.79.06,1.57.03,2.34h0c-.06,1.32-.26,2.59-.61,3.89-.51,1.88-.97,3.49-1.81,5.27-.5,1.07-1.09,2.11-1.53,3.2-1.43,3.54-3.48,6.87-6.17,9.57-.95.94-1.98,1.82-3.08,2.58-.48.33-.97.65-1.49.93-.53.31-1.08.6-1.64.88-3.1,1.58-6.41,2.74-9.82,3.34-4.76.86-9.66.59-14.33-.68Z"/>
              <path class="cls-8" d="M36.16,103.5c-1.86-.14-3.8.34-5.15,1.58-1.34,1.21-2.08,3.03-2.23,4.81-.12,1.79.61,3.56,1.94,4.76,1.31,1.21,3.06,1.95,4.83,2.15,1.77.22,3.65-.12,5.04-1.22,1.42-1.08,2.11-2.87,2.25-4.66.17-1.79-.55-3.61-1.84-4.91-1.26-1.33-3.01-2.19-4.85-2.51,1.87.14,3.71.93,5.13,2.23,1.41,1.3,2.29,3.25,2.18,5.22-.05,1.92-.83,3.94-2.41,5.2-1.57,1.27-3.66,1.65-5.59,1.44-1.94-.24-3.81-1.06-5.24-2.41-1.44-1.34-2.3-3.37-2.05-5.34.09-.97.4-1.92.82-2.77.41-.88,1.02-1.67,1.76-2.29,1.53-1.22,3.56-1.6,5.4-1.28Z"/>
              <path class="cls-8" d="M45.65,116.39c1.25-2.69,1.39-5.8.58-8.59-.78-2.79-2.55-5.34-5.04-6.79-2.48-1.46-5.54-1.77-8.29-1-2.75.76-5.22,2.65-6.41,5.23-1.2,2.58-1.32,5.63-.74,8.43.3,1.41.8,2.78,1.54,4,.38.61.8,1.18,1.31,1.68.49.48,1.08.89,1.72,1.21,2.57,1.27,5.66,1.39,8.48.78,1.42-.3,2.81-.83,4.02-1.65,1.23-.8,2.14-2.01,2.82-3.32-.62,1.33-1.49,2.6-2.71,3.47-1.2.89-2.6,1.49-4.05,1.87-2.89.7-6.05.67-8.85-.62-.69-.33-1.34-.74-1.92-1.29-.55-.52-1.02-1.15-1.42-1.79-.8-1.29-1.33-2.73-1.66-4.21-.63-2.94-.55-6.11.72-8.92,1.33-2.81,4.01-4.8,6.94-5.59,2.93-.79,6.22-.46,8.8,1.17,2.6,1.61,4.38,4.31,5.1,7.21.71,2.91.41,6.06-.96,8.69Z"/>
              <path class="cls-8" d="M21.77,108.89c-.02,1.6.09,3.19.39,4.74.27,1.56.69,3.09,1.31,4.53.61,1.44,1.43,2.78,2.52,3.87,1.08,1.1,2.41,1.95,3.85,2.51,2.87,1.18,6.14,1.23,9.18.49,3.04-.74,5.92-2.32,8.05-4.71-1.88,2.61-4.78,4.42-7.9,5.3-3.12.89-6.56.85-9.63-.35-3.07-1.21-5.56-3.82-6.64-6.9-1.11-3.05-1.51-6.33-1.13-9.5Z"/>
              <path class="cls-8" d="M47.07,120.34c.7-.95,1.27-1.98,1.67-3.08l1.12-3.34c.72-2.22,1.35-4.51,1.29-6.81-.03-1.14-.26-2.27-.73-3.29-.47-1.01-1.23-1.9-2.03-2.7-1.65-1.6-3.69-2.76-5.85-3.55-2.16-.81-4.46-1.28-6.76-1.36-2.31-.09-4.64.26-6.65,1.38-2.02,1.1-3.59,2.89-4.87,4.83-.63.98-1.31,1.96-1.7,3.04-.42,1.09-.65,2.25-.79,3.42.06-1.17.21-2.36.59-3.49.36-1.15.98-2.16,1.57-3.19,1.23-2.01,2.79-3.92,4.89-5.16,2.09-1.27,4.6-1.63,6.97-1.57,2.39.06,4.77.51,7.02,1.33,2.24.85,4.36,2.08,6.08,3.78.85.87,1.63,1.8,2.15,2.93.52,1.12.72,2.36.72,3.57-.02,2.43-.74,4.73-1.54,6.94l-1.29,3.29c-.46,1.1-1.1,2.11-1.87,3Z"/>
              <path class="cls-8" d="M24.67,96.26l-4.69,5.89c-1.55,1.95-2.84,4.2-2.99,6.69-.18,2.47.4,4.95,1.17,7.3.79,2.36,1.9,4.62,3.42,6.57,1.51,1.95,3.46,3.56,5.74,4.45,1.13.45,2.36.66,3.59.92,1.22.25,2.45.48,3.69.65,2.46.34,4.97.52,7.39.14,2.43-.33,4.58-1.65,6.33-3.38,1.76-1.72,3.16-3.79,4.26-6,1.09-2.22,1.89-4.6,2.29-7.04.38-2.42.41-4.97-.42-7.27-.92-2.26-2.28-4.4-3.87-6.29-3.19-3.77-7.54-6.76-12.47-7.59-2.44-.42-5-.22-7.34.67-2.34.88-4.4,2.42-6.1,4.27,1.65-1.89,3.68-3.49,6.03-4.45,2.34-.97,4.96-1.24,7.47-.88,5.06.77,9.56,3.77,12.87,7.57,1.66,1.93,3.07,4.06,4.05,6.45.89,2.46.87,5.11.49,7.62-.4,2.52-1.21,4.97-2.32,7.25-1.12,2.29-2.55,4.44-4.39,6.24-1.82,1.79-4.17,3.22-6.76,3.56-2.56.39-5.12.18-7.62-.18-1.25-.18-2.5-.42-3.73-.68-1.22-.27-2.48-.49-3.69-.97-2.42-.95-4.45-2.69-5.98-4.72-1.54-2.04-2.64-4.37-3.41-6.79-.74-2.41-1.3-4.93-1.08-7.5.13-1.27.5-2.52,1.08-3.65.58-1.13,1.34-2.15,2.13-3.13l4.85-5.77Z"/>
              <path class="cls-8" d="M56.16,123.27c1.61-2.68,2.8-5.62,3.47-8.66.66-3.05.75-6.22.23-9.27-.52-3.06-1.71-5.99-3.49-8.52-1.77-2.54-4.1-4.67-6.72-6.31-5.26-3.26-11.61-4.65-17.77-4.13-1.55.13-3.05.36-4.42,1.02-1.37.63-2.58,1.59-3.66,2.68-1.08,1.09-2.03,2.32-3,3.55-.94,1.24-1.98,2.46-2.94,3.66-.97,1.22-1.88,2.46-2.58,3.82-.71,1.35-1.17,2.82-1.51,4.33-.64,3.03-1.24,6.13-.99,9.18.22,3.07,1.56,5.93,3.44,8.38.92,1.26,1.86,2.49,2.95,3.58,1.08,1.09,2.35,1.96,3.73,2.62,5.66,2.53,11.94,3.65,18.17,3.53,3.12.11,6.19-.87,8.75-2.66,2.57-1.76,4.68-4.16,6.35-6.8-1.62,2.67-3.68,5.12-6.24,6.96-2.53,1.86-5.69,2.93-8.85,2.89-6.28.2-12.63-.85-18.44-3.36-1.44-.67-2.8-1.58-3.94-2.7-1.14-1.12-2.1-2.38-3.04-3.65-.94-1.25-1.81-2.61-2.44-4.08-.64-1.47-1.03-3.05-1.17-4.64-.27-3.21.34-6.34.97-9.42.34-1.54.82-3.09,1.56-4.52.73-1.43,1.67-2.72,2.65-3.96,1-1.23,2-2.4,2.96-3.64.97-1.23,1.95-2.47,3.07-3.6,1.12-1.13,2.41-2.15,3.89-2.82,1.47-.71,3.12-.95,4.67-1.07,6.3-.5,12.81.91,18.16,4.34,2.66,1.71,5.02,3.92,6.8,6.54,1.79,2.61,2.97,5.63,3.46,8.75.47,3.12.31,6.32-.42,9.38-.74,3.05-2,5.97-3.66,8.62Z"/>
              <path class="cls-8" d="M10.39,102.19c-.64,1.76-1.26,3.53-1.67,5.36-.4,1.83-.57,3.7-.5,5.57.13,3.73,1.3,7.39,3.19,10.59,3.78,6.45,10.11,11.16,17.07,13.7,3.49,1.26,7.2,1.98,10.91,1.98,1.85,0,3.71-.18,5.52-.56.9-.2,1.82-.42,2.66-.74.83-.33,1.62-.81,2.36-1.34,5.38-4.84,11.78-10.02,12.68-17.57.31-1.8.24-3.67.33-5.56.07-1.88.15-3.74.15-5.61,0-1.86-.07-3.73-.35-5.55-.27-1.82-.9-3.58-1.56-5.31-1.34-3.45-3.32-6.69-6.1-9.14-2.76-2.48-6.15-4.16-9.64-5.43-3.47-1.31-7.23-1.94-10.92-1.55-1.84.19-3.66.64-5.37,1.36-1.71.72-3.3,1.72-4.88,2.71-3.14,2.01-6.01,4.47-8.35,7.39-2.35,2.91-4.15,6.24-5.53,9.73,1.32-3.51,3.06-6.88,5.37-9.85,2.3-2.98,5.16-5.51,8.29-7.59,1.58-1.02,3.18-2.02,4.93-2.77,1.74-.74,3.6-1.21,5.49-1.43,3.77-.42,7.61.21,11.15,1.52,3.53,1.27,7,2.95,9.86,5.49,2.88,2.51,4.94,5.83,6.32,9.34.68,1.76,1.33,3.55,1.63,5.45.3,1.88.38,3.77.4,5.66,0,1.89-.06,3.76-.12,5.63l-.06,2.8c-.01.96-.1,1.91-.25,2.85-.62,3.77-2.28,7.38-4.92,10.19-2.69,2.59-5.06,5.54-8.16,7.8-.78.55-1.6,1.05-2.52,1.41-.91.34-1.83.56-2.76.75-1.86.38-3.76.55-5.65.54-3.79-.03-7.55-.78-11.09-2.08-7.05-2.62-13.44-7.43-17.23-14-1.86-3.28-2.97-7.01-3.05-10.78-.04-1.88.17-3.76.6-5.59.44-1.83,1.09-3.59,1.76-5.34Z"/>
              <path class="cls-8" d="M33.47,109.79c.09.86.48,1.65,1.05,2.25.55.61,1.27,1.08,2.04,1.27,1.5.44,3.34-.67,3.01-2.22-.09-.76-.47-1.5-.96-2.14-.49-.65-1.12-1.2-1.83-1.53-.71-.35-1.56-.33-2.16.21-.61.52-1.05,1.32-1.15,2.17-.07-.88.28-1.76.88-2.46.32-.34.77-.58,1.25-.66.48-.08.97,0,1.41.16.89.32,1.61.94,2.2,1.64.57.71,1.02,1.55,1.16,2.52.06.48.02,1-.2,1.48-.11.24-.25.44-.44.65l-.11.11-.15.13c-.09.08-.19.14-.29.21-.82.54-1.89.64-2.78.32-1.75-.6-3.07-2.33-2.92-4.11Z"/>
            </g>
            <polygon class="cls-20" points="34.49 74.98 34.49 89.72 35.7 91.8 34.49 99.55 38.7 91.8 36.6 88.38 38.7 74.98 34.49 74.98"/>
            <polygon class="cls-20" points="52.55 102.24 65.79 96.29 67 99.55 52.55 102.24"/>
            <path class="cls-20" d="M32.4,132.88l-2.12,3.68v6c-.03-.05-.07-.12-.1-.17-.43.24-.51.89-.58,1.49h-1.32c-.26-.19-.53-.36-.87-.36-.41-.03-.65.14-.89.36h-.75l.56-2.05.31-1.23.82-3.03.15-.51.58-2.21,1.76-2.77.29-.46.05-.07.67-2.72.19-.7.19-.79.17.87.14.75.58,3.06.1.53.07.34Z"/>
          </g>
        </g>
        <g>
          <path class="cls-18" d="M79.86,132.61l-11.6,10.04-3.23,2.79-17.58,15.19-.02.03-2.46,2.12-.02.02-19.24,16.64-.68.55-5.97,5.18-.77-1.01-.46-.58-3.01-3.88-.34-.44-2.26-2.91,29.23-25.16.02-.02,1.73-1.47,28.82-24.8,1.54,1.52.24.21,2.48,2.48.36.34,3.2,3.15Z"/>
          <polygon class="cls-6" points="19.06 185.17 27.48 185.17 88.48 132.61 79.85 132.61 19.06 185.17"/>
          <polygon class="cls-16" points="72.02 124.9 79.85 132.61 88.48 132.61 81.85 124.9 72.02 124.9"/>
          <path class="cls-17" d="M73.81,126.63c-1.95,2.96-4.31,5.63-6.96,8.02-1.52,1.3-3.11,2.46-4.53,3.81-1.49,1.3-2.87,2.72-4.29,4.12-2.82,2.74-6.09,5.3-9.9,6.69-2.17.94-4.48,1.3-6.67,1.9l1.73-1.47c1.52-.51,3.01-1.01,4.48-1.59,3.61-1.42,6.79-3.63,9.92-6.04,3.13-2.38,5.8-5.34,8.57-8.14,2.48-2.48,4.94-4.96,7.39-7.51l.24.21Z"/>
          <path class="cls-17" d="M76.65,129.45c-1.66,1.71-3.15,3.56-4.6,5.44l-3.44,4.33c-1.23,1.54-2.86,2.62-4.43,3.59-6.09,4.07-12.81,7.51-19.36,10.79-1.61.87-3.23,1.76-4.74,2.79-1.49,1.06-2.94,2.24-4.38,3.37-2.94,2.24-5.8,4.58-8.48,7.08-1.37,1.2-2.57,2.55-3.9,3.88l-4.05,3.78c-1.66,1.56-3.3,3.25-4.45,5.2l-.34-.44c1.01-2.04,2.58-3.85,4.14-5.44l3.95-3.85c1.23-1.32,2.58-2.67,4-3.88,2.82-2.43,5.92-4.45,8.86-6.67,1.52-1.08,2.91-2.26,4.41-3.37,1.52-1.06,3.08-2.09,4.67-3.03,6.48-3.66,12.76-7.25,19.02-11.27,1.56-.94,3.03-1.95,4.19-3.27l3.59-4.19c1.54-1.81,3.18-3.59,4.98-5.18l.36.34Z"/>
          <path class="cls-17" d="M68.25,142.65l-3.23,2.79c-.89.41-1.78.84-2.65,1.3-3.08,1.59-5.87,3.63-8.91,5.49-1.54.91-3.03,1.68-4.45,2.7-1.42.99-2.91,2.04-4.5,2.77-3.23,1.42-6.04,3.47-8.76,5.68-2.77,2.14-5.78,4.07-7.99,6.62l-6.45,8.24c-1.03,1.42-2.24,2.65-2.67,4.31-.14.53-.26,1.06-.34,1.61l-.46-.58c.05-.41.1-.79.19-1.2.36-1.81,1.56-3.3,2.53-4.69,2.07-2.84,4.14-5.64,6.45-8.33,2.53-2.65,5.73-4.19,8.5-6.28,2.77-2.12,5.54-4.36,8.69-5.94,1.54-.82,2.86-1.85,4.29-2.94,1.35-1.08,2.94-2.05,4.41-2.91,2.86-1.88,5.7-4.05,8.91-5.61,2.1-1.13,4.26-2.09,6.45-3.01Z"/>
          <path class="cls-17" d="M47.43,160.66l-2.46,2.12-.02.02c-.12.03-.24.07-.36.12-2.99,1.15-5.95,2.33-8.38,4.38-1.2,1.08-2.55,2.04-3.73,3.13-1.23,1.06-2.31,2.26-3.37,3.44-1.03,1.2-2.09,2.38-2.79,3.75-.29.58-.5,1.18-.6,1.81l-.68.55c-.09-.94.08-1.9.44-2.74.68-1.59,1.73-2.91,2.91-4.05,2.46-2.21,5.27-3.9,7.37-6.38,2.24-2.48,5.37-4,8.4-5.06,1.08-.41,2.19-.74,3.28-1.11Z"/>
        </g>
        <g>
          <path class="cls-18" d="M139.59,124.15l-9.53,8.24-2.65,2.3-14.43,12.47-.02.02-2.02,1.74-.02.02-15.79,13.66-.55.45-4.9,4.25-.63-.83-.38-.48-2.47-3.18-.28-.36-1.86-2.39,24-20.66.02-.02,1.42-1.21,23.66-20.36,1.27,1.25.2.18,2.04,2.04.3.28,2.63,2.59Z"/>
          <polygon class="cls-6" points="89.67 167.32 96.59 167.32 146.67 124.15 139.58 124.15 89.67 167.32"/>
          <polygon class="cls-16" points="133.16 117.83 139.58 124.15 146.67 124.15 141.23 117.83 133.16 117.83"/>
          <path class="cls-17" d="M134.63,119.25c-1.6,2.43-3.54,4.63-5.71,6.58-1.25,1.07-2.55,2.02-3.72,3.12-1.23,1.07-2.35,2.23-3.52,3.38-2.31,2.25-5,4.35-8.12,5.49-1.78.77-3.68,1.07-5.48,1.56l1.42-1.21c1.25-.42,2.47-.83,3.68-1.31,2.96-1.17,5.57-2.98,8.14-4.96,2.57-1.96,4.76-4.39,7.04-6.68,2.04-2.04,4.05-4.07,6.07-6.17l.2.18Z"/>
          <path class="cls-17" d="M136.96,121.56c-1.36,1.4-2.59,2.93-3.77,4.47l-2.83,3.56c-1.01,1.27-2.35,2.16-3.64,2.95-5,3.34-10.52,6.17-15.89,8.86-1.32.71-2.65,1.44-3.9,2.29-1.22.87-2.41,1.84-3.6,2.77-2.41,1.84-4.76,3.76-6.96,5.82-1.12.99-2.11,2.09-3.2,3.18l-3.32,3.1c-1.36,1.29-2.71,2.67-3.66,4.27l-.28-.36c.83-1.68,2.11-3.16,3.4-4.47l3.24-3.16c1.01-1.09,2.12-2.2,3.28-3.18,2.31-2,4.86-3.66,7.28-5.48,1.25-.89,2.39-1.86,3.62-2.77,1.25-.87,2.53-1.72,3.83-2.49,5.32-3.01,10.48-5.95,15.62-9.25,1.28-.77,2.49-1.6,3.44-2.69l2.95-3.44c1.26-1.48,2.61-2.95,4.09-4.25l.3.28Z"/>
          <path class="cls-17" d="M130.06,132.4l-2.65,2.3c-.73.33-1.46.69-2.17,1.07-2.53,1.3-4.82,2.98-7.31,4.5-1.27.75-2.49,1.39-3.66,2.22-1.17.81-2.39,1.68-3.7,2.27-2.65,1.17-4.96,2.85-7.19,4.67-2.27,1.76-4.75,3.34-6.56,5.44l-5.3,6.76c-.85,1.17-1.84,2.17-2.19,3.54-.12.44-.22.87-.28,1.32l-.38-.48c.04-.33.08-.65.16-.99.3-1.48,1.28-2.71,2.08-3.85,1.7-2.33,3.4-4.63,5.3-6.84,2.07-2.17,4.7-3.44,6.98-5.16,2.27-1.74,4.55-3.58,7.13-4.88,1.27-.67,2.35-1.52,3.52-2.41,1.11-.89,2.41-1.68,3.62-2.39,2.35-1.54,4.69-3.32,7.31-4.61,1.72-.93,3.5-1.72,5.3-2.47Z"/>
          <path class="cls-17" d="M112.96,147.18l-2.02,1.74-.02.02c-.1.02-.2.06-.3.1-2.45.95-4.88,1.92-6.88,3.6-.99.89-2.1,1.68-3.06,2.57-1.01.87-1.9,1.86-2.77,2.83-.85.99-1.72,1.96-2.29,3.08-.24.47-.42.97-.49,1.48l-.55.45c-.08-.77.06-1.56.36-2.25.55-1.31,1.42-2.39,2.39-3.32,2.02-1.82,4.33-3.2,6.05-5.24,1.84-2.04,4.41-3.28,6.9-4.15.89-.33,1.8-.61,2.69-.91Z"/>
        </g>
      </g>
      <g>
        <path class="cls-10" d="M176.66,145.75s-5.56,5.56-9.14,9.14c-2.77-.29-6.8-2.05-11.64-4.86l-2.43,1.96.55-3.08c-.22-.13-.45-.27-.67-.41l-2.49,1.9.62-3.08c-.22-.14-.43-.28-.65-.42l-2.54,1.85.69-3.07c-.21-.14-.43-.29-.64-.43l-2.58,1.8.74-3.06c-.21-.14-.42-.29-.63-.44l-2.6,1.76.78-3.05c-.21-.15-.42-.3-.62-.45l-2.63,1.73.82-3.04c-.21-.15-.41-.3-.62-.45l-2.65,1.7.85-3.04c-.2-.15-.41-.3-.61-.46l-1.59,1-1.07.68.88-3.03c-.2-.15-.4-.31-.61-.46l-2.69,1.65.91-3.02c-.19-.16-.4-.31-.6-.47l-1.04.63-1.66,1,.93-3.01c-.2-.16-.4-.32-.6-.47l-2.71,1.61.96-3.01c-.2-.16-.39-.32-.59-.48l-2.73,1.59.98-3c-.2-.16-.39-.32-.59-.48l-1.31.75-1.43.82,1-3c-.2-.16-.39-.32-.59-.48l-2.75,1.55,1.02-2.99c-.19-.16-.39-.32-.58-.48l-2.76,1.54,1.04-2.98c-.19-.16-.39-.33-.58-.49l-2.24,1.23-.53.29.53-1.49.53-1.49c-.18-.15-.35-.3-.53-.46-.02-.01-.03-.02-.04-.04l-2.78,1.5,1.08-2.97c-.19-.17-.38-.33-.57-.49l-2.79,1.48,1.09-2.96c-.19-.17-.37-.33-.56-.5l-2.8,1.47,1.12-2.96c-.19-.17-.38-.34-.56-.5l-2.81,1.45,1.13-2.95c-.19-.17-.37-.34-.56-.5l-2.82,1.43,1.15-2.95c-.19-.17-.37-.34-.56-.51l-2.83,1.42,1.17-2.94c-.19-.17-.37-.34-.55-.51l-2.84,1.39,1.18-2.93c-.18-.17-.37-.34-.55-.52l-2.85,1.38,1.21-2.92c-.18-.18-.37-.34-.55-.52l-2.86,1.36,1.23-2.91c-.18-.17-.36-.35-.54-.52l-2.87,1.33,1.25-2.9c-.18-.18-.36-.36-.54-.53l-2.88,1.31,1.28-2.89-.53-.53-2.89,1.28,1.31-2.88c-.18-.18-.35-.36-.53-.54l-2.9,1.25,1.33-2.87c-.17-.18-.35-.36-.52-.54l-2.91,1.23,1.35-2.86c-.17-.18-.34-.36-.52-.55l-2.92,1.21,1.38-2.84c-.17-.18-.34-.37-.52-.55l-2.93,1.19,1.39-2.84c-.17-.18-.34-.37-.51-.55l-2.94,1.17,1.41-2.83c-.17-.18-.34-.37-.51-.56l-2.95,1.15,1.44-2.82c-.17-.18-.34-.37-.51-.56l-2.95,1.13,1.45-2.81c-.17-.19-.34-.38-.5-.56l-2.96,1.11,1.47-2.8c-.17-.19-.33-.38-.5-.57l-2.96,1.1,1.49-2.79c-.17-.19-.34-.38-.5-.57l-2.97,1.08,1.5-2.78c-.16-.19-.33-.38-.49-.58l-2.98,1.06,1.52-2.77c-.16-.19-.33-.39-.49-.58l-2.98,1.04,1.54-2.76c-.16-.19-.32-.39-.49-.58l-2.99,1.02,1.55-2.75c-.16-.19-.32-.39-.48-.58l-2.99,1,1.57-2.74c-.16-.2-.32-.39-.48-.59l-3,.98,1.59-2.73c-.16-.2-.32-.4-.48-.59l-3.01.96,1.61-2.71c-.16-.2-.31-.4-.47-.6l-3.01.93,1.63-2.7c-.16-.2-.31-.4-.47-.6l-3.02.91,1.65-2.69c-.16-.2-.31-.4-.46-.61l-3.03.89,1.68-2.67c-.15-.2-.31-.41-.46-.61l-3.03.85,1.7-2.65c-.15-.21-.3-.41-.45-.62l-3.04.82,1.73-2.63c-.15-.21-.3-.42-.45-.62l-3.05.78,1.77-2.6c-.15-.21-.29-.42-.44-.63l-3.06.74,1.8-2.57c-.14-.22-.29-.43-.43-.64l-3.06.69,1.85-2.54c-.14-.22-.29-.44-.42-.65l-3.07.62,1.9-2.49c-.14-.23-.27-.45-.41-.67l-3.09.55,1.96-2.43c-2.81-4.85-4.57-8.88-4.86-11.65,3.58-3.58,9.14-9.14,9.14-9.14l63.69,66.07,6.97,6.72,7.87,7.58,7.32,7.05,4.22,4.07,39.7,38.27Z"/>
        <path class="cls-5" d="M171.34,157.83c-.51-.26-1.21-.74-1.86-1.4-.18-.19-.36-.39-.53-.6-.16-.2-.3-.41-.44-.63.35-.45,20.22-24.39,20.22-24.39.17,0,.39.08.64.19.38.18.83.46,1.27.8.99.77,1.95,1.81,2.02,2.49-1.39,1.59-19.82,22.06-21.31,23.55Z"/>
        <path class="cls-7" d="M169.49,156.42c-.18-.19-.36-.39-.53-.6,3-3.66,17.54-21.34,20.41-24.83.38.18.83.46,1.27.8-3.92,4.56-17.12,19.93-21.15,24.63Z"/>
        <polygon class="cls-2" points="169.32 154.2 166.35 151.67 173.28 143.8 175.98 146.16 169.32 154.2"/>
        <path class="cls-13" d="M172.39,157.04c-.54-.17-1.15-.61-1.7-1.13-.42-.4-.8-.84-1.07-1.22-.12-.18-.23-.34-.3-.48l6.66-8.04c.11.18.25.38.43.59.32.37.73.76,1.18,1.1.72.57,1.54,1.03,2.19,1.15-1.11,1.29-6.2,6.85-7.4,8.04Z"/>
        <path class="cls-7" d="M170.7,155.91c-.42-.4-.8-.84-1.07-1.22l6.79-7.94c.32.37.73.76,1.18,1.1l-6.9,8.06Z"/>
        <g>
          <path class="cls-12" d="M174.1,147.44c-.43.44-1.14.44-1.57,0-.43-.43-.43-1.14,0-1.57.43-.43,1.14-.43,1.57,0,.44.43.43,1.14,0,1.57Z"/>
          <path class="cls-15" d="M173.97,147.32c-.37.37-.96.37-1.32,0-.36-.36-.37-.96,0-1.32.37-.37.96-.37,1.32,0,.37.37.37.96,0,1.32Z"/>
          <path class="cls-7" d="M173.3,146.37c-.21.03-.4-.06-.42-.2s.14-.27.35-.3c.21-.03.4.06.42.2.02.14-.14.27-.36.3Z"/>
        </g>
        <g>
          <path class="cls-12" d="M170.03,152.07c-.43.44-1.14.44-1.57,0-.43-.43-.43-1.14,0-1.57s1.14-.43,1.57,0c.43.44.43,1.14,0,1.57Z"/>
          <path class="cls-15" d="M169.9,151.94c-.37.37-.96.37-1.32,0-.36-.37-.37-.96,0-1.32.37-.37.96-.36,1.32,0,.37.37.37.96,0,1.32Z"/>
          <path class="cls-7" d="M169.23,151c-.21.03-.4-.06-.42-.2-.02-.14.14-.27.35-.3.21-.03.4.06.42.2.02.14-.14.27-.36.3Z"/>
        </g>
        <path class="cls-5" d="M34.83,21.31c.26.51.74,1.21,1.4,1.86.19.18.39.36.6.53.2.16.41.31.63.44.45-.35,24.39-20.22,24.39-20.22,0-.17-.08-.39-.19-.64-.17-.38-.46-.83-.8-1.27-.77-.99-1.81-1.95-2.49-2.02-1.59,1.39-22.05,19.82-23.54,21.31Z"/>
        <path class="cls-7" d="M36.23,23.17c.19.18.39.36.6.53,3.66-3,21.34-17.54,24.83-20.41-.17-.38-.46-.83-.8-1.27-4.56,3.92-19.93,17.12-24.63,21.15Z"/>
        <polygon class="cls-2" points="38.45 23.33 40.98 26.3 48.85 19.37 46.49 16.67 38.45 23.33"/>
        <path class="cls-13" d="M35.61,20.26c.17.54.61,1.15,1.13,1.7.4.42.84.79,1.23,1.07.17.12.34.23.48.3l8.04-6.66c-.18-.11-.38-.25-.59-.43-.37-.32-.76-.73-1.1-1.18-.57-.73-1.03-1.55-1.15-2.2-1.29,1.11-6.85,6.2-8.04,7.4Z"/>
        <path class="cls-7" d="M36.74,21.96c.4.42.84.79,1.23,1.07l7.93-6.79c-.37-.32-.76-.73-1.1-1.18l-8.06,6.9Z"/>
        <g>
          <path class="cls-12" d="M45.21,18.55c-.44.43-.44,1.14,0,1.57.43.43,1.14.43,1.57,0,.43-.43.43-1.14,0-1.57-.43-.44-1.14-.44-1.57,0Z"/>
          <path class="cls-15" d="M45.33,18.68c-.37.36-.37.96,0,1.32.36.37.96.37,1.32,0,.37-.37.36-.96,0-1.32-.37-.37-.96-.37-1.32,0Z"/>
          <path class="cls-7" d="M46.28,19.35c-.03.21.06.4.2.42.14.02.27-.14.3-.36.03-.21-.06-.4-.2-.42-.14-.02-.27.14-.3.35Z"/>
        </g>
        <g>
          <path class="cls-12" d="M40.59,22.63c-.44.44-.44,1.14,0,1.57.43.44,1.14.43,1.57,0,.43-.44.43-1.14,0-1.57-.44-.43-1.14-.43-1.57,0Z"/>
          <path class="cls-15" d="M40.71,22.75c-.37.37-.37.96,0,1.33.36.36.96.36,1.32,0,.37-.37.37-.96,0-1.32-.37-.37-.96-.37-1.32,0Z"/>
          <path class="cls-7" d="M41.65,23.43c-.03.21.06.4.2.42.14.02.27-.14.3-.35.03-.21-.06-.4-.2-.42-.14-.02-.27.14-.3.36Z"/>
        </g>
        <path class="cls-7" d="M125.42,129.76l-1.43.82,1-3c-.2-.16-.39-.32-.59-.48l-2.75,1.55,1.02-2.99c-.19-.16-.39-.32-.58-.48l-2.76,1.54,1.04-2.98c-.19-.16-.39-.33-.58-.49l-2.24,1.23v-35.68l7.87,7.58v33.39Z"/>
        <path class="cls-7" d="M136.96,139.27l-1.07.68.88-3.03c-.2-.15-.4-.31-.61-.46l-2.69,1.65.91-3.02c-.19-.16-.4-.31-.6-.47l-1.04.63v-31.83l4.22,4.07v31.78Z"/>
      </g>
    </g>
  </g>
</svg>