<?xml version="1.0" encoding="UTF-8"?>
<svg id="_Слой_2" data-name="Слой_2" xmlns="http://www.w3.org/2000/svg" xmlns:xlink="http://www.w3.org/1999/xlink" viewBox="0 0 168.16 219.1">
  <defs>
    <style>
      .cls-1 {
        fill: #eee4e3;
      }

      .cls-1, .cls-2, .cls-3, .cls-4 {
        fill-rule: evenodd;
      }

      .cls-5 {
        fill: rgba(223, 208, 197, .7);
      }

      .cls-6, .cls-7, .cls-8, .cls-9, .cls-10, .cls-11, .cls-12, .cls-13 {
        stroke-width: 2.5px;
      }

      .cls-6, .cls-8, .cls-10, .cls-11, .cls-12, .cls-13 {
        stroke: #7f7974;
      }

      .cls-6, .cls-8, .cls-11 {
        fill: #d1c1b4;
      }

      .cls-6, .cls-9, .cls-10 {
        stroke-linecap: round;
        stroke-miterlimit: 11.47;
      }

      .cls-14 {
        clip-path: url(#clippath-4);
      }

      .cls-15 {
        fill: #5a2513;
      }

      .cls-7 {
        stroke: #dc7276;
        stroke-linejoin: round;
      }

      .cls-7, .cls-13, .cls-16 {
        fill: #febcbe;
      }

      .cls-17 {
        fill: #fbb8b7;
        stroke: #9d4647;
      }

      .cls-17, .cls-8 {
        stroke-miterlimit: 1.56;
      }

      .cls-17, .cls-18 {
        stroke-width: 1.25px;
      }

      .cls-19 {
        fill: #fff;
      }

      .cls-20 {
        fill: #f8e8b7;
      }

      .cls-21 {
        fill: #f68f93;
      }

      .cls-22 {
        fill: #d06c70;
      }

      .cls-23 {
        fill: none;
      }

      .cls-24, .cls-3 {
        fill: #303030;
      }

      .cls-9 {
        fill: #f8a3a9;
        stroke: #d16971;
      }

      .cls-25 {
        fill: #47423e;
      }

      .cls-26 {
        clip-path: url(#clippath-1);
      }

      .cls-27 {
        fill: #211d1a;
      }

      .cls-28 {
        fill: #e7b365;
      }

      .cls-2, .cls-29 {
        fill: #7f7974;
      }

      .cls-30 {
        clip-path: url(#clippath-5);
      }

      .cls-31 {
        fill: #ebddd2;
      }

      .cls-32 {
        fill: rgba(209, 105, 113, .27);
      }

      .cls-33 {
        fill: #ac583d;
      }

      .cls-34 {
        clip-path: url(#clippath-3);
      }

      .cls-10, .cls-35 {
        fill: #dfd0c5;
      }

      .cls-12 {
        fill: #c2b3a6;
      }

      .cls-18 {
        fill: #f1f1f1;
        stroke: #b3b3b3;
      }

      .cls-36 {
        fill: #390b0b;
      }

      .cls-37 {
        clip-path: url(#clippath-2);
      }

      .cls-4 {
        stroke: #000;
        stroke-width: .75px;
      }

      .cls-38 {
        clip-path: url(#clippath);
      }

      .cls-39 {
        fill: #663025;
      }
    </style>
    <clipPath id="clippath">
      <path class="cls-23" d="M131.92,114.05c-.17-.12-.36-.23-.56-.3-.9-.32-1.88-.06-2.57.67l-.22.24c-.11-.45-.31-.86-.6-1.19-.4-.47-.95-.77-1.53-.84l-.16-.02c-.8-.09-1.59.17-2.23.73l-.25.22c-.37.33-.69.73-.94,1.19l-.81,1.47-.52,1.12c-.11.25-.25.48-.4.7-.35.51-.79.92-1.27,1.18l-.06.03-.42-.61-.54-.67c-.62-.78-1.48-1.28-2.41-1.39l-.42-.05c-.67-.08-1.36.12-1.92.56-.66.52-1.11,1.35-1.22,2.27-.09.72.04,1.45.36,2.05l.33.63c.15.3.33.57.53.81l1.31,1.62.65.74c-.56.53-.8,1.35-.9,1.71l-1.72,4.21,1.16-.1,17.27-16.81.04-.18Z"/>
    </clipPath>
    <clipPath id="clippath-1">
      <path class="cls-23" d="M97.19,122.76c.08-.25.13-.51.18-.77-1.33-.32-2.68-.49-4-.49-2.54,0-4.96.62-7.01,1.8l-.45,1.19.74,2.18c1.68,4.97,3.05,8.88,4.22,12.06l.73-2.91c.35-1.4.63-2.81.86-4.23l1.17,4.56.68-4.4v.06l2.89-9.05Z"/>
    </clipPath>
    <clipPath id="clippath-2">
      <path class="cls-23" d="M91.73,135.22c-.93-2.6-1.97-5.62-3.18-9.2l-.74-2.19-1.44-.54c-1.79,1.03-3.26,2.43-4.36,4.16l-.18.28c-3.01,4.73-5.31,8.33-8.45,10.39-.27.95-.56,1.89-.93,2.81l-2.27,5.77,6.13-6.28c1.57-1.6,2.82-3.5,3.69-5.55l2.89,11.62,1.04-7.17c.16-1.09.38-2.17.66-3.22-.02.55-.05,1.1-.1,1.65l-.56,7.13,2.8-5.08c.93-1.68,1.69-3.42,2.3-5.22l.86,8.1,1.71-6.87c.05-.2.09-.4.14-.6Z"/>
    </clipPath>
    <clipPath id="clippath-3">
      <path class="cls-23" d="M51.52,114.88l7.49-3.29-4.69,9.15,5.28-5.16c-.44,1.94-.75,3.91-.94,5.89l-.09.98.6.24,1.16-.32,4.7-6.08,2.38-3.04c.19-.29.36-.58.53-.87l.12-.35.02-.14c.04-.08.16-.3.47-.77l.1-.19c.54-1.36.59-2.54.16-3.63-.46-1.16-1.4-2.02-2.84-2.59l-5.67.07-8.79,10.1Z"/>
    </clipPath>
    <clipPath id="clippath-4">
      <path class="cls-23" d="M44.13,75.53v115.62h118.02v-115.62H44.13ZM97.19,122.76l-2.89,9.05v-.06l-.68,4.4-1.17-4.56c-.22,1.42-.51,2.83-.86,4.23l-.73,2.91h0l-.99,3.96-.86-8.1c-.61,1.8-1.37,3.54-2.3,5.22l-2.8,5.08.56-7.13c.04-.55.08-1.1.1-1.65-.28,1.06-.5,2.13-.66,3.22l-1.04,7.17-2.89-11.62c-.87,2.05-2.12,3.95-3.69,5.55l-6.13,6.28,2.27-5.77c.36-.92.66-1.86.93-2.81,3.14-2.06,5.45-5.66,8.45-10.39l.18-.28c1.1-1.73,2.57-3.13,4.36-4.16,2.05-1.17,4.47-1.8,7.01-1.8,1.33,0,2.67.17,4,.49-.06.26-.1.52-.18.77ZM131.88,114.22l-17.27,16.81-1.16.1,1.72-4.21c.1-.36.35-1.18.9-1.71l-.65-.74-1.31-1.62c-.2-.24-.38-.52-.53-.81l-.33-.63c-.32-.6-.44-1.33-.36-2.05.11-.92.55-1.74,1.22-2.27.56-.45,1.26-.64,1.92-.56l.42.05c.93.11,1.79.6,2.41,1.39l.54.67.42.61.06-.03c.48-.26.92-.66,1.27-1.18.15-.22.28-.45.4-.7l.52-1.12.81-1.47c.25-.46.57-.86.94-1.19l.25-.22c.64-.57,1.43-.83,2.23-.73l.16.02c.59.07,1.13.37,1.53.84.28.33.49.74.6,1.19l.22-.24c.69-.73,1.67-.99,2.57-.67.2.07.38.18.56.3l-.04.18Z"/>
    </clipPath>
    <clipPath id="clippath-5">
      <path class="cls-23" d="M28.58,102.13v76.33h52.82v-76.33H28.58ZM68.66,110.93l-.1.19c-.31.47-.43.68-.47.77l-.02.14-.12.35c-.17.29-.35.58-.53.87l-2.38,3.04-4.7,6.08-1.16.32-.6-.24.09-.98c.19-1.98.5-3.95.94-5.89l-5.28,5.16,4.69-9.15-7.49,3.29,8.79-10.1,5.67-.07c1.44.57,2.39,1.43,2.84,2.59.43,1.09.38,2.28-.16,3.63Z"/>
    </clipPath>
  </defs>
  <g id="_Слой_1-2" data-name="Слой_1">
    <g>
      <g>
        <g>
          <g>
            <path class="cls-16" d="M105.1,217.3c-1.91,0-3.97-.99-5.36-1.74-1.77-.86-3.16-1.98-4.51-3.06-1-.81-1.95-1.57-3.05-2.22-.55-.25-1.2-.49-1.88-.75-3.53-1.35-8.86-3.4-7.73-8.31.01-.05.03-.1.05-.15,0-.02.05-.13.06-.15.24-.5.75-1.09,1.79-1.09.42,0,.85.08,1.47.21,1.2.28,2.45.63,3.67.97.91.25,1.82.51,2.69.73,6.18,1.43,11.98,1.78,18.12,2.14l1.25.07c3.55.33,7.46,3.39,7.66,7.41-.06,1.57-1,2.53-2.39,2.53-.91,0-1.95-.42-2.7-1.07-.06.34-.16.67-.31.98-.5,1.03-1.46,1.62-2.62,1.62-.51,0-1.05-.11-1.61-.33-.31-.15-.58-.32-.81-.51-.02.17-.06.34-.11.5-.02.08-.06.16-.1.24-.76,1.3-2,1.99-3.59,1.99h0Z"/>
            <path class="cls-22" d="M84.49,200.82c.33,0,.75.08,1.27.19,2.02.47,4.27,1.17,6.31,1.69,6.69,1.55,12.85,1.84,19.56,2.24,3.15.29,6.55,3.09,6.72,6.46-.04,1.07-.65,1.47-1.39,1.47-.88,0-1.94-.57-2.47-1.26-1.91-2.16-2.95-5.58-6.13-5.58-.1,0-.2,0-.3.01-1.53.09.78.57,1.14.73,1.53.53,2.31,1.45,3.24,2.88,1.48,1.91,1.02,4.75-1.13,4.75-.37,0-.78-.08-1.24-.27-1.45-.68-1.75-2.53-3.36-3.66-1.04-.75-2.44-1.07-3.8-1.07-.97,0-1.93.16-2.73.43-.21.12.18.16.93.18.47.02,1.03.03,1.58.07,2.45.02,5.88,2.03,5.14,4.71-.64,1.1-1.63,1.5-2.72,1.5-1.62,0-3.49-.87-4.88-1.62-3.03-1.47-4.87-3.7-7.57-5.29-3.42-1.54-10.22-3.06-9.09-7.95l.04-.09c.19-.39.47-.53.9-.53M84.49,198.82c-1.21,0-2.17.59-2.69,1.65-.02.04-.04.07-.05.11l-.04.09c-.04.1-.08.21-.1.32-1.32,5.76,4.73,8.08,8.34,9.47.65.25,1.26.49,1.78.71,1.02.61,1.92,1.34,2.88,2.11,1.38,1.11,2.8,2.25,4.7,3.18,1.48.8,3.68,1.84,5.8,1.84,1.84,0,3.36-.8,4.31-2.27.65.25,1.29.38,1.9.38,1.49,0,2.78-.77,3.47-2.07.7.34,1.46.54,2.17.54,1.95,0,3.31-1.36,3.39-3.4,0-.06,0-.12,0-.18-.23-4.54-4.6-7.98-8.54-8.35-.02,0-.04,0-.07,0l-1.24-.07c-6.1-.36-11.87-.7-17.98-2.12-.81-.21-1.73-.46-2.62-.71-1.22-.34-2.49-.7-3.69-.97-.63-.13-1.18-.24-1.72-.24h0Z"/>
          </g>
          <g>
            <path class="cls-16" d="M48.22,218.1c-1.42,0-2.58-.61-3.36-1.76-.05-.07-.09-.15-.12-.23-.06-.16-.1-.33-.14-.49-.21.2-.45.37-.72.53-.68.33-1.29.48-1.87.48-1.1,0-2.03-.56-2.55-1.54-.14-.27-.25-.55-.32-.85-.75.73-1.86,1.25-2.83,1.25-1.3,0-2.2-.87-2.35-2.27-.07-4.12,3.62-7.43,7.11-8l1.27-.16c6.11-.78,11.87-1.51,17.96-3.36.83-.27,1.72-.59,2.61-.9,1.19-.42,2.42-.85,3.57-1.21.61-.17,1.17-.33,1.66-.33.73,0,1.31.34,1.68.97,0,.02.06.12.07.13.03.05.05.1.06.16,1.46,4.82-3.72,7.23-7.15,8.81-.66.31-1.29.6-1.82.88-1.05.72-1.95,1.55-2.89,2.42-1.27,1.17-2.58,2.38-4.33,3.38-1.4.88-3.55,2.09-5.55,2.09Z"/>
            <path class="cls-22" d="M68.14,200.25c.36,0,.62.13.81.47l.04.08c1.45,4.81-5.23,6.79-8.53,8.55-2.59,1.77-4.27,4.12-7.2,5.79-1.42.89-3.36,1.96-5.05,1.96-.98,0-1.88-.36-2.53-1.32-.93-2.62,2.36-4.85,4.81-5.04.55-.08,1.1-.13,1.57-.17.75-.07,1.13-.14.92-.24-.64-.17-1.38-.26-2.14-.26-1.56,0-3.21.4-4.34,1.34-1.52,1.23-1.7,3.1-3.1,3.88-.52.25-.98.35-1.38.35-2.02,0-2.6-2.71-1.29-4.67.83-1.49,1.55-2.46,3.04-3.09.35-.19,2.59-.81,1.13-.81-.01,0-.02,0-.04,0-3.42,0-4.23,3.64-6.04,6-.5.76-1.6,1.43-2.51,1.43-.68,0-1.25-.38-1.36-1.38-.05-3.37,3.15-6.4,6.27-6.9,6.66-.85,12.79-1.56,19.36-3.56,2.01-.65,4.19-1.5,6.18-2.11.58-.16,1.02-.28,1.37-.28M68.14,198.25h0c-.63,0-1.25.17-1.91.36-1.22.37-2.46.81-3.66,1.23-.87.31-1.77.63-2.61.9-5.96,1.81-11.69,2.54-17.75,3.31l-1.24.16s-.04,0-.07,0c-3.9.63-8.02,4.36-7.95,8.91,0,.06,0,.12.01.18.2,1.9,1.55,3.17,3.34,3.17.79,0,1.64-.26,2.4-.7.72,1.16,1.93,1.84,3.31,1.84.7,0,1.43-.17,2.17-.51.97,1.3,2.36,1.98,4.03,1.98,2.24,0,4.54-1.27,6.08-2.24,1.83-1.05,3.17-2.29,4.47-3.49.91-.83,1.76-1.62,2.73-2.3.49-.26,1.09-.54,1.72-.83,3.51-1.63,9.39-4.36,7.69-10.01-.03-.11-.07-.21-.12-.31l-.04-.08s-.04-.08-.06-.11c-.55-.95-1.45-1.47-2.55-1.47h0Z"/>
          </g>
        </g>
        <path class="cls-6" d="M96.1,161.44l-.67-1.5-18.95,3.49-18.95-3.49-.67,1.5c-.58,1.31-.15,28.03-.1,29.39l.02.61c.04.98.15,1.93.34,2.86l.07.33c.18.88,1.12,2.55,3.34,4.41,1.04.87,3.64,1.57,3.64,1.57l4,1c1.19-.14,2.16-1.03,2.4-2.2l5.4-24.61c.11-.48.79-.47.9,0l5.13,24.78c.21.9.94,1.59,1.85,1.75l4.65.5s3.1-.58,4.26-1.85c2.1-2.3,2.82-4.48,3-5.34l.07-.33c.19-.92.3-1.88.34-2.86l.02-.61c.05-1.36.48-28.08-.1-29.39Z"/>
        <g>
          <path class="cls-9" d="M58.74,146.83l.47-.16c2.33-.8,4.52-1.98,6.48-3.47l3.86,3.63.26,5.61-2.55.91-3.79.8c-4.3.65-8.65.98-13.01.99h-.43s-2.41-.2-2.41-.2c-1.59-.13-3.18-.09-4.76.13-1.76.24-3.5.71-5.14,1.38-1.45.59-2.86,1.34-4.15,2.22l-2.9,1.97-2.91,1.98-3.88,2.96c-.09.07-.22-.04-.16-.14l1.26-2.3c1.19-2.18,2.73-4.15,4.55-5.84,1.03-.95,2.14-1.81,3.32-2.56l.55-.35c2.07-1.32,4.29-2.38,6.61-3.16l3.38-1.14,7.28-1.52,3.98-.69c1.39-.24,2.75-.59,4.08-1.05Z"/>
          <path class="cls-32" d="M54.75,149.56l2.6-.85c2.09-.69,4.07-1.68,5.88-2.95l4.22,2.74.83,4.46-2.74.63-3.19.64-6.56.76h-6.55s-1.03-.12-1.03-.12c-2.99-.37-6.03-.07-8.9.88-1.18.39-2.32.89-3.41,1.5l-1.56.86-4.29,2.85-2.6,1.79-3.28,2.5c-.16.12-.36-.07-.25-.23l1.66-2.48c.64-.96,1.35-1.86,2.13-2.71l.08-.08c1.51-1.66,3.26-3.08,5.2-4.22,1.42-.84,2.94-1.52,4.51-2.02l4.24-1.36,7.09-1.5,5.93-1.08Z"/>
        </g>
        <path class="cls-12" d="M104.43,140.43c0,17.26-12.39,31.17-27.57,31.17s-27.57-13.91-27.57-31.17,12.39-31.17,27.57-31.17,27.57,13.91,27.57,31.17Z"/>
        <g>
          <g class="cls-38">
            <g>
              <path class="cls-33" d="M46.77,158.46c3.35-12,16.51-16.32,22.87-17.69,5.99-1.29,8.91-6.02,13.21-12.78,3.98-6.26,12.95-7.52,20.94-1.98l-1.03,1.01c-7.42-4.7-16.28-2.97-19.49,2.52-3.83,6.57-6.2,10.44-11.93,12.65-5.73,2.21-19.13,4.37-22.7,16.42-2.93,9.91,4.85,17.78,7.49,20.5,2.64,2.73,10.25,10.76,20.25,8.16,12.16-3.17,14.75-16.5,17.15-22.15,2.4-5.65,5.38-7.17,13.04-11.51,5.35-3.03,7.07-11.67,3.08-19.16l1.1-1.07c4.98,8.38,3.13,18.11-2.72,21.32-8.12,4.45-10.85,5.49-13.27,11.52-2.42,6.03-6.08,20-18.03,22.51-10.76,2.26-18.96-5.5-21.88-8.52-2.93-3.02-11.03-11.18-8.07-21.77Z"/>
              <path class="cls-28" d="M71.95,166.76l-1.35-1.39,13.27-12.79c.44.44.92.82,1.43,1.15l-13.35,13.04Z"/>
              <path class="cls-28" d="M102.17,137.74c.52.34,1,.6,1.42.79l-4.96,4.86c-.17-.52-.4-1.04-.67-1.53l4.22-4.12Z"/>
              <path class="cls-28" d="M97.76,141.54c-.3-.48-.64-.94-1.03-1.37l3.86-3.72c.43.43.86.78,1.28,1.09l-4.1,4.01Z"/>
              <path class="cls-28" d="M85.61,153.92c.49.29,1,.53,1.53.71l-13.83,13.54-1.11-1.15,13.41-13.1Z"/>
              <path class="cls-28" d="M98.19,132.7l-5.25,5.02c-3.05-1-6.55-.33-9.02,2.07-2.44,2.36-3.25,5.78-2.39,8.84l-14.1,13.47-3.67-3.79c-.28-.29-.75-.3-1.04-.02l-3.33,3.23c-.29.28-.3.75-.02,1.04l13.82,14.28c.28.29.75.3,1.04.02l3.33-3.23c.29-.28.3-.75.02-1.04l-4.03-4.16,13.97-13.67c3.01.92,6.41.22,8.83-2.13,2.45-2.37,3.25-5.79,2.39-8.85l5.21-5.1c.61.25,1.01.33,1.01.33l4.68-4.55c4,7.49,2.27,16.13-3.08,19.16-7.66,4.34-10.64,5.86-13.04,11.51-2.4,5.65-4.99,18.97-17.15,22.15-10,2.61-17.61-5.43-20.25-8.16-2.64-2.73-10.42-10.6-7.49-20.5,3.57-12.05,16.97-14.21,22.7-16.42,5.73-2.21,8.1-6.09,11.93-12.65,3.21-5.49,12.07-7.22,19.49-2.52l-4.84,4.71s.06.38.27.98ZM90.01,166.94c.22-1.57,1.01-3.02,1.82-4.36,2.59-4.3,6.5-7.79,11.06-9.89.42-.2.16-.87-.26-.68-1.34.62-2.62,1.34-3.83,2.17-2.16,1.48-4.1,3.3-5.73,5.35-.81,1.02-1.54,2.11-2.18,3.24-.72,1.26-1.37,2.6-1.58,4.05-.07.46.65.58.72.11ZM86.88,173.88c.9-1.22,1.56-2.59,1.95-4.05.05-.19-.12-.39-.3-.42-.21-.03-.37.11-.42.3-.36,1.33-.98,2.59-1.8,3.7-.28.38.28.84.56.46ZM85.21,176.41c.46.07.58-.64.11-.72s-.58.64-.11.72ZM83.5,178.49c.46.07.58-.64.11-.72s-.58.64-.11.72ZM81.64,180.25c.46.07.58-.64.11-.72s-.58.64-.11.72ZM58.14,152.74c-.46-.07-.58.64-.11.72s.58-.64.11-.72ZM59.66,150.82c-.46-.07-.58.64-.11.72s.58-.64.11-.72ZM61.19,149.66c-.46-.07-.58.64-.11.72s.58-.64.11-.72ZM67.41,146.66c-.08-.19-.28-.26-.47-.21-1.33.38-2.58,1.04-3.65,1.92-.15.13-.2.34-.08.51.11.15.36.21.51.08,1.02-.85,2.2-1.47,3.48-1.83.19-.05.27-.3.21-.47ZM84.98,131.1c-.92,1.48-1.84,2.96-2.82,4.4-3.09,4.51-7.13,8.89-12.66,10.18-.45.11-.38.83.08.72,1.52-.35,2.95-.93,4.31-1.69,5.31-2.98,8.63-8.28,11.75-13.31.25-.4-.42-.69-.66-.3Z"/>
              <path class="cls-28" d="M81.65,149.01c.18.56.42,1.1.72,1.62l-13.54,12.91-1.14-1.18,13.96-13.35Z"/>
              <path class="cls-28" d="M98.33,133.07c.18.46.44.99.81,1.57l-4.21,4.01c-.51-.33-1.05-.59-1.6-.81l5-4.78Z"/>
              <path class="cls-28" d="M99.35,134.95c.28.4.6.82.99,1.23l-3.86,3.72c-.39-.39-.8-.74-1.24-1.04l4.11-3.91Z"/>
              <path class="cls-28" d="M82.56,150.95c.3.48.65.94,1.05,1.37l-13.27,12.79-1.27-1.31,13.48-12.85Z"/>
              <polygon class="cls-15" points="72.2 167.02 73.31 168.17 72.19 169.26 71.08 168.11 72.2 167.02"/>
              <path class="cls-15" d="M65.25,162.08c-.15-.16-.41-.16-.57,0l-1.35,1.3c-.16.15-.16.41,0,.57l8.62,8.9c.15.16.41.16.57,0l1.35-1.3c.16-.15.16-.41,0-.57l-1.42-1.47,1.11-1.09,4.03,4.16c.28.29.28.76-.02,1.04l-3.33,3.23c-.29.28-.76.28-1.04-.02l-13.82-14.28c-.28-.29-.28-.76.02-1.04l3.33-3.23c.29-.28.76-.28,1.04.02l3.67,3.79-1.13,1.08-1.06-1.09Z"/>
              <polygon class="cls-15" points="67.69 162.36 68.82 163.54 67.7 164.61 66.56 163.44 67.69 162.36"/>
              <polygon class="cls-15" points="69.08 163.8 70.35 165.11 69.22 166.19 67.95 164.87 69.08 163.8"/>
              <polygon class="cls-15" points="70.83 167.85 69.48 166.45 70.6 165.37 71.95 166.76 70.83 167.85"/>
              <path class="cls-20" d="M73.86,171.55l-1.35,1.3c-.16.15-.41.15-.57,0l-8.62-8.9c-.15-.16-.15-.41,0-.57l1.35-1.3c.16-.15.41-.15.57,0l1.06,1.09-1.08,1.03c-.07.07-.08.18,0,.26.03.03.06.05.1.05.05,0,.11,0,.15-.05l1.08-1.03,1.14,1.17-1.08,1.03c-.07.07-.08.18,0,.26.03.03.06.05.1.05.05,0,.11,0,.15-.05l1.08-1.03,1.28,1.32-1.08,1.04c-.07.07-.07.18,0,.26.03.03.06.05.1.05.05,0,.11,0,.15-.05l1.08-1.04,1.35,1.4-1.07,1.05c-.07.07-.07.19,0,.26.03.03.06.05.1.05.05,0,.11,0,.16-.05l1.07-1.04,1.11,1.15-1.07,1.05c-.07.07-.07.19,0,.26.03.03.06.05.1.05.06,0,.11,0,.16-.05l1.07-1.05,1.42,1.47c.15.16.15.41,0,.57Z"/>
              <path class="cls-33" d="M157.76,91.73l-.72.7-1.57-1.62c.26-.26.49-.51.7-.72l1.59,1.64Z"/>
              <rect class="cls-39" x="156.59" y="91.82" width="2.76" height="1.53" rx=".67" ry=".67" transform="translate(-19.93 135.91) rotate(-44.06)"/>
              <path class="cls-33" d="M154.69,94.69l-.72.7-1.53-1.58c.24-.24.48-.47.72-.7l1.53,1.59Z"/>
              <path class="cls-39" d="M154.88,94.51c.27-.26.7-.25.95.02l.12.13c.26.27.25.7-.02.95l-1.01.98c-.27.26-.7.25-.95-.02l-.12-.13c-.26-.27-.25-.7.02-.95l.1-.1.72-.7.19-.18Z"/>
              <path class="cls-33" d="M141.67,86.39l.72-.7,1.48,1.53c-.25.23-.49.46-.73.69l-1.47-1.52Z"/>
              <path class="cls-39" d="M141.48,86.57c-.27.26-.7.25-.95-.02l-.12-.13c-.26-.27-.25-.7.02-.95l1.01-.98c.27-.26.7-.25.95.02l.12.13c.26.27.25.7-.02.95l-.1.1-.72.7-.19.18Z"/>
              <path class="cls-33" d="M144.74,83.42l.2-.19.52-.51,1.51,1.56c-.24.23-.49.46-.73.69l-1.5-1.55Z"/>
              <path class="cls-39" d="M144.55,83.61c-.27.26-.7.25-.95-.02l-.12-.13c-.26-.27-.25-.7.02-.95l1.01-.98c.27-.26.7-.25.95.02l.12.13c.26.27.25.7-.02.95l-.63.61-.2.19-.19.18Z"/>
              <path class="cls-33" d="M151.53,97.75l-.72.7-1.54-1.59c.24-.22.48-.46.73-.7l1.53,1.59Z"/>
              <rect class="cls-39" x="150.37" y="97.84" width="2.76" height="1.53" rx=".67" ry=".67" transform="translate(-25.87 133.27) rotate(-44.06)"/>
              <path class="cls-33" d="M98.19,132.7c-.21-.6-.27-.98-.27-.98l4.84-4.71,1.03-1.01,31.67-30.81.95.98-38.22,36.53Z"/>
              <path class="cls-33" d="M101.87,137.53c-.42-.3-.85-.66-1.28-1.09l38.68-37.31h0s.92.95.92.95l-38.33,37.44Z"/>
              <path class="cls-33" d="M100.34,136.19c-.39-.41-.72-.83-.99-1.23l38.8-36.97h0s.87.9.87.9l-38.68,37.31Z"/>
              <path class="cls-33" d="M140.45,100.35l1.05,1.08h0s-37.9,37.1-37.9,37.1c-.42-.19-.9-.45-1.42-.79l38.28-37.39Z"/>
              <path class="cls-33" d="M104.96,139.01s-.4-.08-1.01-.33l37.8-36.99.76.79-31.77,30.91-1.1,1.07-4.68,4.55Z"/>
              <path class="cls-33" d="M136.66,96.44h0s1.24,1.28,1.24,1.28h0s-38.75,36.93-38.75,36.93c-.37-.58-.63-1.12-.81-1.57l38.33-36.63Z"/>
              <path class="cls-39" d="M140.2,100.09l-.92-.95,10.5-7.61c.03.16.11.31.21.44l-2.07,1.72c-.39-.22-.9-.18-1.25.15-.3.29-.39.72-.26,1.1l-6.21,5.15h0Z"/>
              <path class="cls-39" d="M140.45,100.35l6.15-5.1s.03.05.05.07c.08.09.18.15.28.2l-5.43,5.91-1.05-1.08h0Z"/>
              <path class="cls-39" d="M141.75,101.7l5.57-6.06c.29.02.59-.07.81-.29.4-.38.42-1.01.07-1.42l2.07-1.71c.4.23.91.19,1.26-.15.42-.4.43-1.07.02-1.48-.07-.07-.14-.12-.22-.17l1.79-1.3c.4.39,1.05.4,1.46,0,.42-.4.43-1.07.02-1.48-.4-.42-1.07-.43-1.48-.02-.33.32-.4.81-.21,1.21l-2.01,1.45c-.3-.03-.6.06-.83.29-.15.15-.25.34-.3.53l-10.73,7.78-.02.02-.87-.9,7.12-7.16c.4.23.91.18,1.25-.15.35-.34.41-.87.17-1.28l1.71-1.71c.4.28.96.25,1.33-.11.42-.4.43-1.07.02-1.48-.4-.42-1.07-.43-1.48-.02-.38.36-.42.94-.12,1.36l-1.69,1.7c-.41-.34-1.01-.33-1.4.05-.27.26-.37.63-.29.97l-8.35,6.03-.02.02-.95-.98s2.23-.24,2.47-2.39c0,0,2.3-2.15,5.21-4.9.24-.23.48-.46.73-.69.77-.73,1.56-1.48,2.37-2.24.24-.23.49-.46.73-.69,1.4-1.33,2.77-2.65,3.98-3.81.83-.8,1.45.56,3.69-2.79.95-1.43,7.86,7.93,4.7,8.4-.43.06-1.38.52-2.28,2.94-.05.13-.38.52-.89,1.06-.21.22-.44.46-.7.72-.65.67-1.45,1.46-2.31,2.3-.24.23-.48.47-.72.7-.82.79-1.65,1.6-2.44,2.35-.25.24-.49.47-.73.7-1.67,1.59-2.94,2.79-2.94,2.79,0,0-2.41-1.08-3.83,2.83l-.76-.79h0Z"/>
              <path class="cls-39" d="M144.91,90.48s.05.07.08.1l-7.1,7.13-1.24-1.28,8.25-5.96Z"/>
              <path class="cls-33" d="M93.32,137.86c.56.21,1.09.48,1.6.81l-1.51,1.44c-.56-.3-1.15-.52-1.76-.65l1.66-1.59Z"/>
              <path class="cls-33" d="M87.12,152.45c.54.26,1.1.45,1.68.56l-1.66,1.62c-.53-.19-1.04-.42-1.53-.71l1.51-1.47Z"/>
              <path class="cls-33" d="M97.76,141.54l-1.48,1.45c-.27-.51-.6-.98-1-1.42l1.45-1.4c.39.43.74.89,1.03,1.37Z"/>
              <path class="cls-33" d="M85.32,141.23c-1.6,1.55-2.29,3.69-2.06,5.75l-1.72,1.65c-.85-3.06-.05-6.48,2.39-8.84,2.47-2.39,5.96-3.07,9.02-2.07l-1.72,1.65c-2.08-.33-4.27.29-5.9,1.86Z"/>
              <path class="cls-33" d="M95.24,138.87c.44.3.85.65,1.24,1.04l-1.45,1.39c-.4-.4-.83-.73-1.29-1.01l1.5-1.43Z"/>
              <path class="cls-33" d="M94.96,151.19c1.6-1.55,2.29-3.68,2.07-5.73l1.72-1.68c.86,3.06.06,6.49-2.39,8.85-2.42,2.34-5.82,3.04-8.83,2.13l1.71-1.68c2.02.26,4.14-.36,5.72-1.89Z"/>
              <path class="cls-33" d="M85.29,153.72c-.5-.33-.98-.71-1.43-1.15l1.45-1.4c.45.44.94.8,1.46,1.09l-1.48,1.45Z"/>
              <path class="cls-33" d="M82.56,150.95l1.5-1.43c.27.5.6.97,1,1.4l-1.45,1.39c-.4-.43-.75-.89-1.05-1.37Z"/>
              <path class="cls-33" d="M83.31,147.42c.11.61.3,1.2.57,1.76l-1.51,1.44c-.3-.52-.53-1.06-.72-1.62l1.66-1.59Z"/>
              <path class="cls-33" d="M97.95,141.86c.27.49.5,1,.67,1.53l-1.66,1.62c-.1-.57-.28-1.13-.53-1.67l1.51-1.47Z"/>
              <path class="cls-15" d="M96.45,143.34c.25.54.43,1.1.53,1.67l-8.17,8c-.58-.11-1.14-.3-1.68-.56l9.32-9.11Z"/>
              <path class="cls-15" d="M85.32,141.23c1.63-1.57,3.82-2.18,5.9-1.86l-7.96,7.61c-.23-2.06.46-4.2,2.06-5.75Z"/>
              <path class="cls-15" d="M96.28,142.99l-9.5,9.28c-.52-.29-1.01-.66-1.46-1.09l9.97-9.61c.4.44.73.92,1,1.42Z"/>
              <path class="cls-15" d="M91.66,139.45c.61.14,1.2.35,1.76.65l-9.54,9.09c-.27-.57-.46-1.16-.57-1.76l8.35-7.98Z"/>
              <path class="cls-15" d="M94.96,151.19c-1.58,1.53-3.7,2.15-5.72,1.89l7.79-7.62c.22,2.05-.47,4.18-2.07,5.73Z"/>
              <path class="cls-15" d="M84.06,149.52l9.69-9.23c.46.28.89.61,1.29,1.01l-9.97,9.62c-.4-.43-.73-.9-1-1.4Z"/>
              <path class="cls-19" d="M97.03,145.46l-7.79,7.62-1.71,1.68-13.97,13.67-1.11,1.09-1.07,1.05s-.1.06-.16.05c-.04,0-.07-.02-.1-.05-.07-.07-.07-.19,0-.26l1.07-1.05,1.11-1.09,13.83-13.54,1.66-1.62,8.17-8,1.66-1.62,4.96-4.86,37.9-37.09h0s5.43-5.92,5.43-5.92c.12.06.26.1.39.11l-5.57,6.06h0s-37.8,36.99-37.8,36.99l-5.21,5.1-1.72,1.68Z"/>
              <path class="cls-19" d="M140.45,100.35l-38.28,37.39-4.22,4.12-1.51,1.47-9.32,9.11-1.51,1.47-13.41,13.1-1.12,1.09-1.07,1.04s-.1.06-.16.05c-.04,0-.07-.02-.1-.05-.07-.07-.07-.19,0-.26l1.07-1.05,1.12-1.09,13.35-13.04,1.48-1.45,9.5-9.28,1.48-1.45,4.1-4.01,38.33-37.44h0s6.21-5.16,6.21-5.16c.04.11.1.22.18.32l-6.15,5.1h0Z"/>
              <path class="cls-19" d="M147.92,93.68l2.07-1.72s.03.05.05.07c.07.07.15.12.23.17l-2.07,1.71s-.03-.04-.05-.06c-.07-.07-.15-.13-.24-.18Z"/>
              <path class="cls-19" d="M149.78,91.53l-10.5,7.61h0s-38.68,37.31-38.68,37.31l-3.86,3.72-1.45,1.4-9.97,9.61-1.45,1.4-13.27,12.79-1.12,1.08-1.08,1.04s-.1.06-.15.05c-.04,0-.07-.02-.1-.05-.07-.07-.07-.19,0-.26l1.08-1.04,1.12-1.08,13.27-12.79,1.45-1.39,9.97-9.62,1.45-1.39,3.86-3.72,38.68-37.31.02-.02,10.73-7.78c-.03.15-.03.3,0,.45Z"/>
              <path class="cls-19" d="M150.9,90.27l2.01-1.45c.05.1.11.19.19.27,0,0,.02.01.03.02l-1.79,1.3c-.13-.08-.28-.12-.43-.14Z"/>
              <path class="cls-28" d="M152.91,88.81c-.19-.4-.12-.89.21-1.21.42-.4,1.08-.39,1.48.02.4.42.39,1.08-.02,1.48-.41.39-1.05.39-1.46,0,0,0-.02-.01-.03-.02-.08-.08-.14-.18-.19-.27Z"/>
              <path class="cls-28" d="M149.99,91.97c-.11-.13-.18-.28-.21-.44-.03-.15-.03-.3,0-.45.04-.2.14-.38.3-.53.23-.22.54-.31.83-.29.15.01.29.06.43.14.08.05.16.1.22.17.4.42.39,1.08-.02,1.48-.35.33-.86.38-1.26.15-.08-.05-.16-.1-.23-.17-.02-.02-.04-.05-.05-.07Z"/>
              <path class="cls-28" d="M146.93,95.52c-.1-.05-.2-.12-.28-.2-.02-.02-.03-.04-.05-.07-.08-.1-.14-.21-.18-.32-.13-.37-.04-.8.26-1.1.34-.33.85-.38,1.25-.15.08.05.17.1.24.18.02.02.03.04.05.06.35.42.33,1.04-.07,1.42-.22.22-.52.31-.81.29-.14-.01-.27-.05-.39-.11Z"/>
              <path class="cls-19" d="M99.35,134.95l-4.11,3.91-1.5,1.43-9.69,9.23-1.5,1.43-13.48,12.85-1.13,1.08-1.08,1.03s-.1.06-.15.05c-.04,0-.07-.02-.1-.05-.07-.07-.07-.19,0-.26l1.08-1.03,1.13-1.08,13.54-12.91,1.51-1.44,9.54-9.09,1.51-1.44,4.21-4.01,38.75-36.93h0s7.1-7.14,7.1-7.14c.02.02.03.04.05.06.07.07.15.13.23.18l-7.12,7.16h0s-38.8,36.98-38.8,36.98Z"/>
              <path class="cls-19" d="M146.55,89.18s-.06-.05-.09-.07l1.69-1.7s.06.09.1.13c.05.05.1.09.16.13l-1.71,1.71c-.04-.07-.09-.14-.15-.2Z"/>
              <path class="cls-19" d="M144.91,90.48l-8.25,5.96h0s-38.33,36.63-38.33,36.63l-5,4.78-1.66,1.59-8.35,7.98-1.66,1.59-13.96,13.35-1.13,1.08-1.08,1.03s-.1.06-.15.05c-.04,0-.07-.02-.1-.05-.07-.07-.07-.19,0-.26l1.08-1.03,1.13-1.08,14.1-13.47,1.72-1.65,7.96-7.61,1.72-1.65,5.25-5.02,38.22-36.53.02-.02,8.35-6.03c.03.12.07.24.14.35Z"/>
              <path class="cls-28" d="M148.15,87.41c-.29-.42-.25-.99.12-1.36.42-.4,1.08-.39,1.48.02.4.42.39,1.08-.02,1.48-.37.35-.92.39-1.33.11-.06-.04-.11-.08-.16-.13-.04-.04-.07-.08-.1-.13Z"/>
              <path class="cls-28" d="M144.99,90.58s-.06-.07-.08-.1c-.07-.11-.11-.23-.14-.35-.07-.34.02-.71.29-.97.39-.38.99-.39,1.4-.05.03.02.06.05.09.07.06.06.11.13.15.2.24.41.18.94-.17,1.28-.34.33-.86.38-1.25.15-.08-.05-.16-.1-.23-.18-.02-.02-.03-.04-.05-.06Z"/>
              <path class="cls-15" d="M90.87,162.77c.65-1.13,1.38-2.22,2.18-3.24,1.63-2.06,3.57-3.87,5.73-5.35,1.21-.83,2.5-1.56,3.83-2.17.43-.2.69.48.26.68-4.56,2.1-8.47,5.59-11.06,9.89-.81,1.35-1.59,2.79-1.82,4.36-.07.46-.78.35-.72-.11.21-1.46.86-2.79,1.58-4.05Z"/>
              <path class="cls-15" d="M88.12,169.71c.05-.19.21-.33.42-.3.18.03.35.23.3.42-.4,1.46-1.05,2.83-1.95,4.05-.28.38-.84-.09-.56-.46.82-1.11,1.44-2.37,1.8-3.7Z"/>
              <path class="cls-15" d="M85.32,175.69c.46.07.35.79-.11.72s-.35-.79.11-.72Z"/>
              <path class="cls-15" d="M83.62,177.77c.46.07.35.79-.11.72s-.35-.79.11-.72Z"/>
              <path class="cls-15" d="M81.75,179.53c.46.07.35.79-.11.72s-.35-.79.11-.72Z"/>
              <path class="cls-15" d="M73.89,144.71c-1.36.76-2.79,1.33-4.31,1.69-.46.11-.53-.62-.08-.72,5.53-1.29,9.57-5.68,12.66-10.18.98-1.44,1.9-2.92,2.82-4.4.24-.39.91-.1.66.3-3.12,5.03-6.44,10.33-11.75,13.31Z"/>
              <path class="cls-15" d="M67.2,147.13c-1.28.37-2.46.99-3.48,1.83-.15.13-.4.07-.51-.08-.12-.17-.07-.38.08-.51,1.07-.88,2.32-1.54,3.65-1.92.19-.05.39.01.47.21.07.17-.02.42-.21.47Z"/>
              <path class="cls-15" d="M61.08,150.37c-.46-.07-.35-.79.11-.72s.35.79-.11.72Z"/>
              <path class="cls-15" d="M59.54,151.54c-.46-.07-.35-.79.11-.72s.35.79-.11.72Z"/>
              <path class="cls-15" d="M58.03,153.45c-.46-.07-.35-.79.11-.72s.35.79-.11.72Z"/>
            </g>
          </g>
          <g class="cls-26">
            <g>
              <path class="cls-33" d="M46.77,158.46c3.35-12,16.51-16.32,22.87-17.69,5.99-1.29,8.91-6.02,13.21-12.78,3.98-6.26,12.95-7.52,20.94-1.98l-1.03,1.01c-7.42-4.7-16.28-2.97-19.49,2.52-3.83,6.57-6.2,10.44-11.93,12.65-5.73,2.21-19.13,4.37-22.7,16.42-2.93,9.91,4.85,17.78,7.49,20.5,2.64,2.73,10.25,10.76,20.25,8.16,12.16-3.17,14.75-16.5,17.15-22.15,2.4-5.65,5.38-7.17,13.04-11.51,5.35-3.03,7.07-11.67,3.08-19.16l1.1-1.07c4.98,8.38,3.13,18.11-2.72,21.32-8.12,4.45-10.85,5.49-13.27,11.52-2.42,6.03-6.08,20-18.03,22.51-10.76,2.26-18.96-5.5-21.88-8.52-2.93-3.02-11.03-11.18-8.07-21.77Z"/>
              <path class="cls-28" d="M71.95,166.76l-1.35-1.39,13.27-12.79c.44.44.92.82,1.43,1.15l-13.35,13.04Z"/>
              <path class="cls-28" d="M102.17,137.74c.52.34,1,.6,1.42.79l-4.96,4.86c-.17-.52-.4-1.04-.67-1.53l4.22-4.12Z"/>
              <path class="cls-28" d="M97.76,141.54c-.3-.48-.64-.94-1.03-1.37l3.86-3.72c.43.43.86.78,1.28,1.09l-4.1,4.01Z"/>
              <path class="cls-28" d="M85.61,153.92c.49.29,1,.53,1.53.71l-13.83,13.54-1.11-1.15,13.41-13.1Z"/>
              <path class="cls-28" d="M98.19,132.7l-5.25,5.02c-3.05-1-6.55-.33-9.02,2.07-2.44,2.36-3.25,5.78-2.39,8.84l-14.1,13.47-3.67-3.79c-.28-.29-.75-.3-1.04-.02l-3.33,3.23c-.29.28-.3.75-.02,1.04l13.82,14.28c.28.29.75.3,1.04.02l3.33-3.23c.29-.28.3-.75.02-1.04l-4.03-4.16,13.97-13.67c3.01.92,6.41.22,8.83-2.13,2.45-2.37,3.25-5.79,2.39-8.85l5.21-5.1c.61.25,1.01.33,1.01.33l4.68-4.55c4,7.49,2.27,16.13-3.08,19.16-7.66,4.34-10.64,5.86-13.04,11.51-2.4,5.65-4.99,18.97-17.15,22.15-10,2.61-17.61-5.43-20.25-8.16-2.64-2.73-10.42-10.6-7.49-20.5,3.57-12.05,16.97-14.21,22.7-16.42,5.73-2.21,8.1-6.09,11.93-12.65,3.21-5.49,12.07-7.22,19.49-2.52l-4.84,4.71s.06.38.27.98ZM90.01,166.94c.22-1.57,1.01-3.02,1.82-4.36,2.59-4.3,6.5-7.79,11.06-9.89.42-.2.16-.87-.26-.68-1.34.62-2.62,1.34-3.83,2.17-2.16,1.48-4.1,3.3-5.73,5.35-.81,1.02-1.54,2.11-2.18,3.24-.72,1.26-1.37,2.6-1.58,4.05-.07.46.65.58.72.11ZM86.88,173.88c.9-1.22,1.56-2.59,1.95-4.05.05-.19-.12-.39-.3-.42-.21-.03-.37.11-.42.3-.36,1.33-.98,2.59-1.8,3.7-.28.38.28.84.56.46ZM85.21,176.41c.46.07.58-.64.11-.72s-.58.64-.11.72ZM83.5,178.49c.46.07.58-.64.11-.72s-.58.64-.11.72ZM81.64,180.25c.46.07.58-.64.11-.72s-.58.64-.11.72ZM58.14,152.74c-.46-.07-.58.64-.11.72s.58-.64.11-.72ZM59.66,150.82c-.46-.07-.58.64-.11.72s.58-.64.11-.72ZM61.19,149.66c-.46-.07-.58.64-.11.72s.58-.64.11-.72ZM67.41,146.66c-.08-.19-.28-.26-.47-.21-1.33.38-2.58,1.04-3.65,1.92-.15.13-.2.34-.08.51.11.15.36.21.51.08,1.02-.85,2.2-1.47,3.48-1.83.19-.05.27-.3.21-.47ZM84.98,131.1c-.92,1.48-1.84,2.96-2.82,4.4-3.09,4.51-7.13,8.89-12.66,10.18-.45.11-.38.83.08.72,1.52-.35,2.95-.93,4.31-1.69,5.31-2.98,8.63-8.28,11.75-13.31.25-.4-.42-.69-.66-.3Z"/>
              <path class="cls-28" d="M81.65,149.01c.18.56.42,1.1.72,1.62l-13.54,12.91-1.14-1.18,13.96-13.35Z"/>
              <path class="cls-28" d="M98.33,133.07c.18.46.44.99.81,1.57l-4.21,4.01c-.51-.33-1.05-.59-1.6-.81l5-4.78Z"/>
              <path class="cls-28" d="M99.35,134.95c.28.4.6.82.99,1.23l-3.86,3.72c-.39-.39-.8-.74-1.24-1.04l4.11-3.91Z"/>
              <path class="cls-28" d="M82.56,150.95c.3.48.65.94,1.05,1.37l-13.27,12.79-1.27-1.31,13.48-12.85Z"/>
              <polygon class="cls-15" points="72.2 167.02 73.31 168.17 72.19 169.26 71.08 168.11 72.2 167.02"/>
              <path class="cls-15" d="M65.25,162.08c-.15-.16-.41-.16-.57,0l-1.35,1.3c-.16.15-.16.41,0,.57l8.62,8.9c.15.16.41.16.57,0l1.35-1.3c.16-.15.16-.41,0-.57l-1.42-1.47,1.11-1.09,4.03,4.16c.28.29.28.76-.02,1.04l-3.33,3.23c-.29.28-.76.28-1.04-.02l-13.82-14.28c-.28-.29-.28-.76.02-1.04l3.33-3.23c.29-.28.76-.28,1.04.02l3.67,3.79-1.13,1.08-1.06-1.09Z"/>
              <polygon class="cls-15" points="67.69 162.36 68.82 163.54 67.7 164.61 66.56 163.44 67.69 162.36"/>
              <polygon class="cls-15" points="69.08 163.8 70.35 165.11 69.22 166.19 67.95 164.87 69.08 163.8"/>
              <polygon class="cls-15" points="70.83 167.85 69.48 166.45 70.6 165.37 71.95 166.76 70.83 167.85"/>
              <path class="cls-20" d="M73.86,171.55l-1.35,1.3c-.16.15-.41.15-.57,0l-8.62-8.9c-.15-.16-.15-.41,0-.57l1.35-1.3c.16-.15.41-.15.57,0l1.06,1.09-1.08,1.03c-.07.07-.08.18,0,.26.03.03.06.05.1.05.05,0,.11,0,.15-.05l1.08-1.03,1.14,1.17-1.08,1.03c-.07.07-.08.18,0,.26.03.03.06.05.1.05.05,0,.11,0,.15-.05l1.08-1.03,1.28,1.32-1.08,1.04c-.07.07-.07.18,0,.26.03.03.06.05.1.05.05,0,.11,0,.15-.05l1.08-1.04,1.35,1.4-1.07,1.05c-.07.07-.07.19,0,.26.03.03.06.05.1.05.05,0,.11,0,.16-.05l1.07-1.04,1.11,1.15-1.07,1.05c-.07.07-.07.19,0,.26.03.03.06.05.1.05.06,0,.11,0,.16-.05l1.07-1.05,1.42,1.47c.15.16.15.41,0,.57Z"/>
              <path class="cls-33" d="M157.76,91.73l-.72.7-1.57-1.62c.26-.26.49-.51.7-.72l1.59,1.64Z"/>
              <rect class="cls-39" x="156.59" y="91.82" width="2.76" height="1.53" rx=".67" ry=".67" transform="translate(-19.93 135.91) rotate(-44.06)"/>
              <path class="cls-33" d="M154.69,94.69l-.72.7-1.53-1.58c.24-.24.48-.47.72-.7l1.53,1.59Z"/>
              <path class="cls-39" d="M154.88,94.51c.27-.26.7-.25.95.02l.12.13c.26.27.25.7-.02.95l-1.01.98c-.27.26-.7.25-.95-.02l-.12-.13c-.26-.27-.25-.7.02-.95l.1-.1.72-.7.19-.18Z"/>
              <path class="cls-33" d="M141.67,86.39l.72-.7,1.48,1.53c-.25.23-.49.46-.73.69l-1.47-1.52Z"/>
              <path class="cls-39" d="M141.48,86.57c-.27.26-.7.25-.95-.02l-.12-.13c-.26-.27-.25-.7.02-.95l1.01-.98c.27-.26.7-.25.95.02l.12.13c.26.27.25.7-.02.95l-.1.1-.72.7-.19.18Z"/>
              <path class="cls-33" d="M144.74,83.42l.2-.19.52-.51,1.51,1.56c-.24.23-.49.46-.73.69l-1.5-1.55Z"/>
              <path class="cls-39" d="M144.55,83.61c-.27.26-.7.25-.95-.02l-.12-.13c-.26-.27-.25-.7.02-.95l1.01-.98c.27-.26.7-.25.95.02l.12.13c.26.27.25.7-.02.95l-.63.61-.2.19-.19.18Z"/>
              <path class="cls-33" d="M151.53,97.75l-.72.7-1.54-1.59c.24-.22.48-.46.73-.7l1.53,1.59Z"/>
              <rect class="cls-39" x="150.37" y="97.84" width="2.76" height="1.53" rx=".67" ry=".67" transform="translate(-25.87 133.27) rotate(-44.06)"/>
              <path class="cls-33" d="M98.19,132.7c-.21-.6-.27-.98-.27-.98l4.84-4.71,1.03-1.01,31.67-30.81.95.98-38.22,36.53Z"/>
              <path class="cls-33" d="M101.87,137.53c-.42-.3-.85-.66-1.28-1.09l38.68-37.31h0s.92.95.92.95l-38.33,37.44Z"/>
              <path class="cls-33" d="M100.34,136.19c-.39-.41-.72-.83-.99-1.23l38.8-36.97h0s.87.9.87.9l-38.68,37.31Z"/>
              <path class="cls-33" d="M140.45,100.35l1.05,1.08h0s-37.9,37.1-37.9,37.1c-.42-.19-.9-.45-1.42-.79l38.28-37.39Z"/>
              <path class="cls-33" d="M104.96,139.01s-.4-.08-1.01-.33l37.8-36.99.76.79-31.77,30.91-1.1,1.07-4.68,4.55Z"/>
              <path class="cls-33" d="M136.66,96.44h0s1.24,1.28,1.24,1.28h0s-38.75,36.93-38.75,36.93c-.37-.58-.63-1.12-.81-1.57l38.33-36.63Z"/>
              <path class="cls-39" d="M140.2,100.09l-.92-.95,10.5-7.61c.03.16.11.31.21.44l-2.07,1.72c-.39-.22-.9-.18-1.25.15-.3.29-.39.72-.26,1.1l-6.21,5.15h0Z"/>
              <path class="cls-39" d="M140.45,100.35l6.15-5.1s.03.05.05.07c.08.09.18.15.28.2l-5.43,5.91-1.05-1.08h0Z"/>
              <path class="cls-39" d="M141.75,101.7l5.57-6.06c.29.02.59-.07.81-.29.4-.38.42-1.01.07-1.42l2.07-1.71c.4.23.91.19,1.26-.15.42-.4.43-1.07.02-1.48-.07-.07-.14-.12-.22-.17l1.79-1.3c.4.39,1.05.4,1.46,0,.42-.4.43-1.07.02-1.48-.4-.42-1.07-.43-1.48-.02-.33.32-.4.81-.21,1.21l-2.01,1.45c-.3-.03-.6.06-.83.29-.15.15-.25.34-.3.53l-10.73,7.78-.02.02-.87-.9,7.12-7.16c.4.23.91.18,1.25-.15.35-.34.41-.87.17-1.28l1.71-1.71c.4.28.96.25,1.33-.11.42-.4.43-1.07.02-1.48-.4-.42-1.07-.43-1.48-.02-.38.36-.42.94-.12,1.36l-1.69,1.7c-.41-.34-1.01-.33-1.4.05-.27.26-.37.63-.29.97l-8.35,6.03-.02.02-.95-.98s2.23-.24,2.47-2.39c0,0,2.3-2.15,5.21-4.9.24-.23.48-.46.73-.69.77-.73,1.56-1.48,2.37-2.24.24-.23.49-.46.73-.69,1.4-1.33,2.77-2.65,3.98-3.81.83-.8,1.45.56,3.69-2.79.95-1.43,7.86,7.93,4.7,8.4-.43.06-1.38.52-2.28,2.94-.05.13-.38.52-.89,1.06-.21.22-.44.46-.7.72-.65.67-1.45,1.46-2.31,2.3-.24.23-.48.47-.72.7-.82.79-1.65,1.6-2.44,2.35-.25.24-.49.47-.73.7-1.67,1.59-2.94,2.79-2.94,2.79,0,0-2.41-1.08-3.83,2.83l-.76-.79h0Z"/>
              <path class="cls-39" d="M144.91,90.48s.05.07.08.1l-7.1,7.13-1.24-1.28,8.25-5.96Z"/>
              <path class="cls-33" d="M93.32,137.86c.56.21,1.09.48,1.6.81l-1.51,1.44c-.56-.3-1.15-.52-1.76-.65l1.66-1.59Z"/>
              <path class="cls-33" d="M87.12,152.45c.54.26,1.1.45,1.68.56l-1.66,1.62c-.53-.19-1.04-.42-1.53-.71l1.51-1.47Z"/>
              <path class="cls-33" d="M97.76,141.54l-1.48,1.45c-.27-.51-.6-.98-1-1.42l1.45-1.4c.39.43.74.89,1.03,1.37Z"/>
              <path class="cls-33" d="M85.32,141.23c-1.6,1.55-2.29,3.69-2.06,5.75l-1.72,1.65c-.85-3.06-.05-6.48,2.39-8.84,2.47-2.39,5.96-3.07,9.02-2.07l-1.72,1.65c-2.08-.33-4.27.29-5.9,1.86Z"/>
              <path class="cls-33" d="M95.24,138.87c.44.3.85.65,1.24,1.04l-1.45,1.39c-.4-.4-.83-.73-1.29-1.01l1.5-1.43Z"/>
              <path class="cls-33" d="M94.96,151.19c1.6-1.55,2.29-3.68,2.07-5.73l1.72-1.68c.86,3.06.06,6.49-2.39,8.85-2.42,2.34-5.82,3.04-8.83,2.13l1.71-1.68c2.02.26,4.14-.36,5.72-1.89Z"/>
              <path class="cls-33" d="M85.29,153.72c-.5-.33-.98-.71-1.43-1.15l1.45-1.4c.45.44.94.8,1.46,1.09l-1.48,1.45Z"/>
              <path class="cls-33" d="M82.56,150.95l1.5-1.43c.27.5.6.97,1,1.4l-1.45,1.39c-.4-.43-.75-.89-1.05-1.37Z"/>
              <path class="cls-33" d="M83.31,147.42c.11.61.3,1.2.57,1.76l-1.51,1.44c-.3-.52-.53-1.06-.72-1.62l1.66-1.59Z"/>
              <path class="cls-33" d="M97.95,141.86c.27.49.5,1,.67,1.53l-1.66,1.62c-.1-.57-.28-1.13-.53-1.67l1.51-1.47Z"/>
              <path class="cls-15" d="M96.45,143.34c.25.54.43,1.1.53,1.67l-8.17,8c-.58-.11-1.14-.3-1.68-.56l9.32-9.11Z"/>
              <path class="cls-15" d="M85.32,141.23c1.63-1.57,3.82-2.18,5.9-1.86l-7.96,7.61c-.23-2.06.46-4.2,2.06-5.75Z"/>
              <path class="cls-15" d="M96.28,142.99l-9.5,9.28c-.52-.29-1.01-.66-1.46-1.09l9.97-9.61c.4.44.73.92,1,1.42Z"/>
              <path class="cls-15" d="M91.66,139.45c.61.14,1.2.35,1.76.65l-9.54,9.09c-.27-.57-.46-1.16-.57-1.76l8.35-7.98Z"/>
              <path class="cls-15" d="M94.96,151.19c-1.58,1.53-3.7,2.15-5.72,1.89l7.79-7.62c.22,2.05-.47,4.18-2.07,5.73Z"/>
              <path class="cls-15" d="M84.06,149.52l9.69-9.23c.46.28.89.61,1.29,1.01l-9.97,9.62c-.4-.43-.73-.9-1-1.4Z"/>
              <path class="cls-19" d="M97.03,145.46l-7.79,7.62-1.71,1.68-13.97,13.67-1.11,1.09-1.07,1.05s-.1.06-.16.05c-.04,0-.07-.02-.1-.05-.07-.07-.07-.19,0-.26l1.07-1.05,1.11-1.09,13.83-13.54,1.66-1.62,8.17-8,1.66-1.62,4.96-4.86,37.9-37.09h0s5.43-5.92,5.43-5.92c.12.06.26.1.39.11l-5.57,6.06h0s-37.8,36.99-37.8,36.99l-5.21,5.1-1.72,1.68Z"/>
              <path class="cls-19" d="M140.45,100.35l-38.28,37.39-4.22,4.12-1.51,1.47-9.32,9.11-1.51,1.47-13.41,13.1-1.12,1.09-1.07,1.04s-.1.06-.16.05c-.04,0-.07-.02-.1-.05-.07-.07-.07-.19,0-.26l1.07-1.05,1.12-1.09,13.35-13.04,1.48-1.45,9.5-9.28,1.48-1.45,4.1-4.01,38.33-37.44h0s6.21-5.16,6.21-5.16c.04.11.1.22.18.32l-6.15,5.1h0Z"/>
              <path class="cls-19" d="M147.92,93.68l2.07-1.72s.03.05.05.07c.07.07.15.12.23.17l-2.07,1.71s-.03-.04-.05-.06c-.07-.07-.15-.13-.24-.18Z"/>
              <path class="cls-19" d="M149.78,91.53l-10.5,7.61h0s-38.68,37.31-38.68,37.31l-3.86,3.72-1.45,1.4-9.97,9.61-1.45,1.4-13.27,12.79-1.12,1.08-1.08,1.04s-.1.06-.15.05c-.04,0-.07-.02-.1-.05-.07-.07-.07-.19,0-.26l1.08-1.04,1.12-1.08,13.27-12.79,1.45-1.39,9.97-9.62,1.45-1.39,3.86-3.72,38.68-37.31.02-.02,10.73-7.78c-.03.15-.03.3,0,.45Z"/>
              <path class="cls-19" d="M150.9,90.27l2.01-1.45c.05.1.11.19.19.27,0,0,.02.01.03.02l-1.79,1.3c-.13-.08-.28-.12-.43-.14Z"/>
              <path class="cls-28" d="M152.91,88.81c-.19-.4-.12-.89.21-1.21.42-.4,1.08-.39,1.48.02.4.42.39,1.08-.02,1.48-.41.39-1.05.39-1.46,0,0,0-.02-.01-.03-.02-.08-.08-.14-.18-.19-.27Z"/>
              <path class="cls-28" d="M149.99,91.97c-.11-.13-.18-.28-.21-.44-.03-.15-.03-.3,0-.45.04-.2.14-.38.3-.53.23-.22.54-.31.83-.29.15.01.29.06.43.14.08.05.16.1.22.17.4.42.39,1.08-.02,1.48-.35.33-.86.38-1.26.15-.08-.05-.16-.1-.23-.17-.02-.02-.04-.05-.05-.07Z"/>
              <path class="cls-28" d="M146.93,95.52c-.1-.05-.2-.12-.28-.2-.02-.02-.03-.04-.05-.07-.08-.1-.14-.21-.18-.32-.13-.37-.04-.8.26-1.1.34-.33.85-.38,1.25-.15.08.05.17.1.24.18.02.02.03.04.05.06.35.42.33,1.04-.07,1.42-.22.22-.52.31-.81.29-.14-.01-.27-.05-.39-.11Z"/>
              <path class="cls-19" d="M99.35,134.95l-4.11,3.91-1.5,1.43-9.69,9.23-1.5,1.43-13.48,12.85-1.13,1.08-1.08,1.03s-.1.06-.15.05c-.04,0-.07-.02-.1-.05-.07-.07-.07-.19,0-.26l1.08-1.03,1.13-1.08,13.54-12.91,1.51-1.44,9.54-9.09,1.51-1.44,4.21-4.01,38.75-36.93h0s7.1-7.14,7.1-7.14c.02.02.03.04.05.06.07.07.15.13.23.18l-7.12,7.16h0s-38.8,36.98-38.8,36.98Z"/>
              <path class="cls-19" d="M146.55,89.18s-.06-.05-.09-.07l1.69-1.7s.06.09.1.13c.05.05.1.09.16.13l-1.71,1.71c-.04-.07-.09-.14-.15-.2Z"/>
              <path class="cls-19" d="M144.91,90.48l-8.25,5.96h0s-38.33,36.63-38.33,36.63l-5,4.78-1.66,1.59-8.35,7.98-1.66,1.59-13.96,13.35-1.13,1.08-1.08,1.03s-.1.06-.15.05c-.04,0-.07-.02-.1-.05-.07-.07-.07-.19,0-.26l1.08-1.03,1.13-1.08,14.1-13.47,1.72-1.65,7.96-7.61,1.72-1.65,5.25-5.02,38.22-36.53.02-.02,8.35-6.03c.03.12.07.24.14.35Z"/>
              <path class="cls-28" d="M148.15,87.41c-.29-.42-.25-.99.12-1.36.42-.4,1.08-.39,1.48.02.4.42.39,1.08-.02,1.48-.37.35-.92.39-1.33.11-.06-.04-.11-.08-.16-.13-.04-.04-.07-.08-.1-.13Z"/>
              <path class="cls-28" d="M144.99,90.58s-.06-.07-.08-.1c-.07-.11-.11-.23-.14-.35-.07-.34.02-.71.29-.97.39-.38.99-.39,1.4-.05.03.02.06.05.09.07.06.06.11.13.15.2.24.41.18.94-.17,1.28-.34.33-.86.38-1.25.15-.08-.05-.16-.1-.23-.18-.02-.02-.03-.04-.05-.06Z"/>
              <path class="cls-15" d="M90.87,162.77c.65-1.13,1.38-2.22,2.18-3.24,1.63-2.06,3.57-3.87,5.73-5.35,1.21-.83,2.5-1.56,3.83-2.17.43-.2.69.48.26.68-4.56,2.1-8.47,5.59-11.06,9.89-.81,1.35-1.59,2.79-1.82,4.36-.07.46-.78.35-.72-.11.21-1.46.86-2.79,1.58-4.05Z"/>
              <path class="cls-15" d="M88.12,169.71c.05-.19.21-.33.42-.3.18.03.35.23.3.42-.4,1.46-1.05,2.83-1.95,4.05-.28.38-.84-.09-.56-.46.82-1.11,1.44-2.37,1.8-3.7Z"/>
              <path class="cls-15" d="M85.32,175.69c.46.07.35.79-.11.72s-.35-.79.11-.72Z"/>
              <path class="cls-15" d="M83.62,177.77c.46.07.35.79-.11.72s-.35-.79.11-.72Z"/>
              <path class="cls-15" d="M81.75,179.53c.46.07.35.79-.11.72s-.35-.79.11-.72Z"/>
              <path class="cls-15" d="M73.89,144.71c-1.36.76-2.79,1.33-4.31,1.69-.46.11-.53-.62-.08-.72,5.53-1.29,9.57-5.68,12.66-10.18.98-1.44,1.9-2.92,2.82-4.4.24-.39.91-.1.66.3-3.12,5.03-6.44,10.33-11.75,13.31Z"/>
              <path class="cls-15" d="M67.2,147.13c-1.28.37-2.46.99-3.48,1.83-.15.13-.4.07-.51-.08-.12-.17-.07-.38.08-.51,1.07-.88,2.32-1.54,3.65-1.92.19-.05.39.01.47.21.07.17-.02.42-.21.47Z"/>
              <path class="cls-15" d="M61.08,150.37c-.46-.07-.35-.79.11-.72s.35.79-.11.72Z"/>
              <path class="cls-15" d="M59.54,151.54c-.46-.07-.35-.79.11-.72s.35.79-.11.72Z"/>
              <path class="cls-15" d="M58.03,153.45c-.46-.07-.35-.79.11-.72s.35.79-.11.72Z"/>
            </g>
          </g>
          <g class="cls-37">
            <g>
              <path class="cls-33" d="M46.77,158.46c3.35-12,16.51-16.32,22.87-17.69,5.99-1.29,8.91-6.02,13.21-12.78,3.98-6.26,12.95-7.52,20.94-1.98l-1.03,1.01c-7.42-4.7-16.28-2.97-19.49,2.52-3.83,6.57-6.2,10.44-11.93,12.65-5.73,2.21-19.13,4.37-22.7,16.42-2.93,9.91,4.85,17.78,7.49,20.5,2.64,2.73,10.25,10.76,20.25,8.16,12.16-3.17,14.75-16.5,17.15-22.15,2.4-5.65,5.38-7.17,13.04-11.51,5.35-3.03,7.07-11.67,3.08-19.16l1.1-1.07c4.98,8.38,3.13,18.11-2.72,21.32-8.12,4.45-10.85,5.49-13.27,11.52-2.42,6.03-6.08,20-18.03,22.51-10.76,2.26-18.96-5.5-21.88-8.52-2.93-3.02-11.03-11.18-8.07-21.77Z"/>
              <path class="cls-28" d="M71.95,166.76l-1.35-1.39,13.27-12.79c.44.44.92.82,1.43,1.15l-13.35,13.04Z"/>
              <path class="cls-28" d="M102.17,137.74c.52.34,1,.6,1.42.79l-4.96,4.86c-.17-.52-.4-1.04-.67-1.53l4.22-4.12Z"/>
              <path class="cls-28" d="M97.76,141.54c-.3-.48-.64-.94-1.03-1.37l3.86-3.72c.43.43.86.78,1.28,1.09l-4.1,4.01Z"/>
              <path class="cls-28" d="M85.61,153.92c.49.29,1,.53,1.53.71l-13.83,13.54-1.11-1.15,13.41-13.1Z"/>
              <path class="cls-28" d="M98.19,132.7l-5.25,5.02c-3.05-1-6.55-.33-9.02,2.07-2.44,2.36-3.25,5.78-2.39,8.84l-14.1,13.47-3.67-3.79c-.28-.29-.75-.3-1.04-.02l-3.33,3.23c-.29.28-.3.75-.02,1.04l13.82,14.28c.28.29.75.3,1.04.02l3.33-3.23c.29-.28.3-.75.02-1.04l-4.03-4.16,13.97-13.67c3.01.92,6.41.22,8.83-2.13,2.45-2.37,3.25-5.79,2.39-8.85l5.21-5.1c.61.25,1.01.33,1.01.33l4.68-4.55c4,7.49,2.27,16.13-3.08,19.16-7.66,4.34-10.64,5.86-13.04,11.51-2.4,5.65-4.99,18.97-17.15,22.15-10,2.61-17.61-5.43-20.25-8.16-2.64-2.73-10.42-10.6-7.49-20.5,3.57-12.05,16.97-14.21,22.7-16.42,5.73-2.21,8.1-6.09,11.93-12.65,3.21-5.49,12.07-7.22,19.49-2.52l-4.84,4.71s.06.38.27.98ZM90.01,166.94c.22-1.57,1.01-3.02,1.82-4.36,2.59-4.3,6.5-7.79,11.06-9.89.42-.2.16-.87-.26-.68-1.34.62-2.62,1.34-3.83,2.17-2.16,1.48-4.1,3.3-5.73,5.35-.81,1.02-1.54,2.11-2.18,3.24-.72,1.26-1.37,2.6-1.58,4.05-.07.46.65.58.72.11ZM86.88,173.88c.9-1.22,1.56-2.59,1.95-4.05.05-.19-.12-.39-.3-.42-.21-.03-.37.11-.42.3-.36,1.33-.98,2.59-1.8,3.7-.28.38.28.84.56.46ZM85.21,176.41c.46.07.58-.64.11-.72s-.58.64-.11.72ZM83.5,178.49c.46.07.58-.64.11-.72s-.58.64-.11.72ZM81.64,180.25c.46.07.58-.64.11-.72s-.58.64-.11.72ZM58.14,152.74c-.46-.07-.58.64-.11.72s.58-.64.11-.72ZM59.66,150.82c-.46-.07-.58.64-.11.72s.58-.64.11-.72ZM61.19,149.66c-.46-.07-.58.64-.11.72s.58-.64.11-.72ZM67.41,146.66c-.08-.19-.28-.26-.47-.21-1.33.38-2.58,1.04-3.65,1.92-.15.13-.2.34-.08.51.11.15.36.21.51.08,1.02-.85,2.2-1.47,3.48-1.83.19-.05.27-.3.21-.47ZM84.98,131.1c-.92,1.48-1.84,2.96-2.82,4.4-3.09,4.51-7.13,8.89-12.66,10.18-.45.11-.38.83.08.72,1.52-.35,2.95-.93,4.31-1.69,5.31-2.98,8.63-8.28,11.75-13.31.25-.4-.42-.69-.66-.3Z"/>
              <path class="cls-28" d="M81.65,149.01c.18.56.42,1.1.72,1.62l-13.54,12.91-1.14-1.18,13.96-13.35Z"/>
              <path class="cls-28" d="M98.33,133.07c.18.46.44.99.81,1.57l-4.21,4.01c-.51-.33-1.05-.59-1.6-.81l5-4.78Z"/>
              <path class="cls-28" d="M99.35,134.95c.28.4.6.82.99,1.23l-3.86,3.72c-.39-.39-.8-.74-1.24-1.04l4.11-3.91Z"/>
              <path class="cls-28" d="M82.56,150.95c.3.48.65.94,1.05,1.37l-13.27,12.79-1.27-1.31,13.48-12.85Z"/>
              <polygon class="cls-15" points="72.2 167.02 73.31 168.17 72.19 169.26 71.08 168.11 72.2 167.02"/>
              <path class="cls-15" d="M65.25,162.08c-.15-.16-.41-.16-.57,0l-1.35,1.3c-.16.15-.16.41,0,.57l8.62,8.9c.15.16.41.16.57,0l1.35-1.3c.16-.15.16-.41,0-.57l-1.42-1.47,1.11-1.09,4.03,4.16c.28.29.28.76-.02,1.04l-3.33,3.23c-.29.28-.76.28-1.04-.02l-13.82-14.28c-.28-.29-.28-.76.02-1.04l3.33-3.23c.29-.28.76-.28,1.04.02l3.67,3.79-1.13,1.08-1.06-1.09Z"/>
              <polygon class="cls-15" points="67.69 162.36 68.82 163.54 67.7 164.61 66.56 163.44 67.69 162.36"/>
              <polygon class="cls-15" points="69.08 163.8 70.35 165.11 69.22 166.19 67.95 164.87 69.08 163.8"/>
              <polygon class="cls-15" points="70.83 167.85 69.48 166.45 70.6 165.37 71.95 166.76 70.83 167.85"/>
              <path class="cls-20" d="M73.86,171.55l-1.35,1.3c-.16.15-.41.15-.57,0l-8.62-8.9c-.15-.16-.15-.41,0-.57l1.35-1.3c.16-.15.41-.15.57,0l1.06,1.09-1.08,1.03c-.07.07-.08.18,0,.26.03.03.06.05.1.05.05,0,.11,0,.15-.05l1.08-1.03,1.14,1.17-1.08,1.03c-.07.07-.08.18,0,.26.03.03.06.05.1.05.05,0,.11,0,.15-.05l1.08-1.03,1.28,1.32-1.08,1.04c-.07.07-.07.18,0,.26.03.03.06.05.1.05.05,0,.11,0,.15-.05l1.08-1.04,1.35,1.4-1.07,1.05c-.07.07-.07.19,0,.26.03.03.06.05.1.05.05,0,.11,0,.16-.05l1.07-1.04,1.11,1.15-1.07,1.05c-.07.07-.07.19,0,.26.03.03.06.05.1.05.06,0,.11,0,.16-.05l1.07-1.05,1.42,1.47c.15.16.15.41,0,.57Z"/>
              <path class="cls-33" d="M157.76,91.73l-.72.7-1.57-1.62c.26-.26.49-.51.7-.72l1.59,1.64Z"/>
              <rect class="cls-39" x="156.59" y="91.82" width="2.76" height="1.53" rx=".67" ry=".67" transform="translate(-19.93 135.91) rotate(-44.06)"/>
              <path class="cls-33" d="M154.69,94.69l-.72.7-1.53-1.58c.24-.24.48-.47.72-.7l1.53,1.59Z"/>
              <path class="cls-39" d="M154.88,94.51c.27-.26.7-.25.95.02l.12.13c.26.27.25.7-.02.95l-1.01.98c-.27.26-.7.25-.95-.02l-.12-.13c-.26-.27-.25-.7.02-.95l.1-.1.72-.7.19-.18Z"/>
              <path class="cls-33" d="M141.67,86.39l.72-.7,1.48,1.53c-.25.23-.49.46-.73.69l-1.47-1.52Z"/>
              <path class="cls-39" d="M141.48,86.57c-.27.26-.7.25-.95-.02l-.12-.13c-.26-.27-.25-.7.02-.95l1.01-.98c.27-.26.7-.25.95.02l.12.13c.26.27.25.7-.02.95l-.1.1-.72.7-.19.18Z"/>
              <path class="cls-33" d="M144.74,83.42l.2-.19.52-.51,1.51,1.56c-.24.23-.49.46-.73.69l-1.5-1.55Z"/>
              <path class="cls-39" d="M144.55,83.61c-.27.26-.7.25-.95-.02l-.12-.13c-.26-.27-.25-.7.02-.95l1.01-.98c.27-.26.7-.25.95.02l.12.13c.26.27.25.7-.02.95l-.63.61-.2.19-.19.18Z"/>
              <path class="cls-33" d="M151.53,97.75l-.72.7-1.54-1.59c.24-.22.48-.46.73-.7l1.53,1.59Z"/>
              <rect class="cls-39" x="150.37" y="97.84" width="2.76" height="1.53" rx=".67" ry=".67" transform="translate(-25.87 133.27) rotate(-44.06)"/>
              <path class="cls-33" d="M98.19,132.7c-.21-.6-.27-.98-.27-.98l4.84-4.71,1.03-1.01,31.67-30.81.95.98-38.22,36.53Z"/>
              <path class="cls-33" d="M101.87,137.53c-.42-.3-.85-.66-1.28-1.09l38.68-37.31h0s.92.95.92.95l-38.33,37.44Z"/>
              <path class="cls-33" d="M100.34,136.19c-.39-.41-.72-.83-.99-1.23l38.8-36.97h0s.87.9.87.9l-38.68,37.31Z"/>
              <path class="cls-33" d="M140.45,100.35l1.05,1.08h0s-37.9,37.1-37.9,37.1c-.42-.19-.9-.45-1.42-.79l38.28-37.39Z"/>
              <path class="cls-33" d="M104.96,139.01s-.4-.08-1.01-.33l37.8-36.99.76.79-31.77,30.91-1.1,1.07-4.68,4.55Z"/>
              <path class="cls-33" d="M136.66,96.44h0s1.24,1.28,1.24,1.28h0s-38.75,36.93-38.75,36.93c-.37-.58-.63-1.12-.81-1.57l38.33-36.63Z"/>
              <path class="cls-39" d="M140.2,100.09l-.92-.95,10.5-7.61c.03.16.11.31.21.44l-2.07,1.72c-.39-.22-.9-.18-1.25.15-.3.29-.39.72-.26,1.1l-6.21,5.15h0Z"/>
              <path class="cls-39" d="M140.45,100.35l6.15-5.1s.03.05.05.07c.08.09.18.15.28.2l-5.43,5.91-1.05-1.08h0Z"/>
              <path class="cls-39" d="M141.75,101.7l5.57-6.06c.29.02.59-.07.81-.29.4-.38.42-1.01.07-1.42l2.07-1.71c.4.23.91.19,1.26-.15.42-.4.43-1.07.02-1.48-.07-.07-.14-.12-.22-.17l1.79-1.3c.4.39,1.05.4,1.46,0,.42-.4.43-1.07.02-1.48-.4-.42-1.07-.43-1.48-.02-.33.32-.4.81-.21,1.21l-2.01,1.45c-.3-.03-.6.06-.83.29-.15.15-.25.34-.3.53l-10.73,7.78-.02.02-.87-.9,7.12-7.16c.4.23.91.18,1.25-.15.35-.34.41-.87.17-1.28l1.71-1.71c.4.28.96.25,1.33-.11.42-.4.43-1.07.02-1.48-.4-.42-1.07-.43-1.48-.02-.38.36-.42.94-.12,1.36l-1.69,1.7c-.41-.34-1.01-.33-1.4.05-.27.26-.37.63-.29.97l-8.35,6.03-.02.02-.95-.98s2.23-.24,2.47-2.39c0,0,2.3-2.15,5.21-4.9.24-.23.48-.46.73-.69.77-.73,1.56-1.48,2.37-2.24.24-.23.49-.46.73-.69,1.4-1.33,2.77-2.65,3.98-3.81.83-.8,1.45.56,3.69-2.79.95-1.43,7.86,7.93,4.7,8.4-.43.06-1.38.52-2.28,2.94-.05.13-.38.52-.89,1.06-.21.22-.44.46-.7.72-.65.67-1.45,1.46-2.31,2.3-.24.23-.48.47-.72.7-.82.79-1.65,1.6-2.44,2.35-.25.24-.49.47-.73.7-1.67,1.59-2.94,2.79-2.94,2.79,0,0-2.41-1.08-3.83,2.83l-.76-.79h0Z"/>
              <path class="cls-39" d="M144.91,90.48s.05.07.08.1l-7.1,7.13-1.24-1.28,8.25-5.96Z"/>
              <path class="cls-33" d="M93.32,137.86c.56.21,1.09.48,1.6.81l-1.51,1.44c-.56-.3-1.15-.52-1.76-.65l1.66-1.59Z"/>
              <path class="cls-33" d="M87.12,152.45c.54.26,1.1.45,1.68.56l-1.66,1.62c-.53-.19-1.04-.42-1.53-.71l1.51-1.47Z"/>
              <path class="cls-33" d="M97.76,141.54l-1.48,1.45c-.27-.51-.6-.98-1-1.42l1.45-1.4c.39.43.74.89,1.03,1.37Z"/>
              <path class="cls-33" d="M85.32,141.23c-1.6,1.55-2.29,3.69-2.06,5.75l-1.72,1.65c-.85-3.06-.05-6.48,2.39-8.84,2.47-2.39,5.96-3.07,9.02-2.07l-1.72,1.65c-2.08-.33-4.27.29-5.9,1.86Z"/>
              <path class="cls-33" d="M95.24,138.87c.44.3.85.65,1.24,1.04l-1.45,1.39c-.4-.4-.83-.73-1.29-1.01l1.5-1.43Z"/>
              <path class="cls-33" d="M94.96,151.19c1.6-1.55,2.29-3.68,2.07-5.73l1.72-1.68c.86,3.06.06,6.49-2.39,8.85-2.42,2.34-5.82,3.04-8.83,2.13l1.71-1.68c2.02.26,4.14-.36,5.72-1.89Z"/>
              <path class="cls-33" d="M85.29,153.72c-.5-.33-.98-.71-1.43-1.15l1.45-1.4c.45.44.94.8,1.46,1.09l-1.48,1.45Z"/>
              <path class="cls-33" d="M82.56,150.95l1.5-1.43c.27.5.6.97,1,1.4l-1.45,1.39c-.4-.43-.75-.89-1.05-1.37Z"/>
              <path class="cls-33" d="M83.31,147.42c.11.61.3,1.2.57,1.76l-1.51,1.44c-.3-.52-.53-1.06-.72-1.62l1.66-1.59Z"/>
              <path class="cls-33" d="M97.95,141.86c.27.49.5,1,.67,1.53l-1.66,1.62c-.1-.57-.28-1.13-.53-1.67l1.51-1.47Z"/>
              <path class="cls-15" d="M96.45,143.34c.25.54.43,1.1.53,1.67l-8.17,8c-.58-.11-1.14-.3-1.68-.56l9.32-9.11Z"/>
              <path class="cls-15" d="M85.32,141.23c1.63-1.57,3.82-2.18,5.9-1.86l-7.96,7.61c-.23-2.06.46-4.2,2.06-5.75Z"/>
              <path class="cls-15" d="M96.28,142.99l-9.5,9.28c-.52-.29-1.01-.66-1.46-1.09l9.97-9.61c.4.44.73.92,1,1.42Z"/>
              <path class="cls-15" d="M91.66,139.45c.61.14,1.2.35,1.76.65l-9.54,9.09c-.27-.57-.46-1.16-.57-1.76l8.35-7.98Z"/>
              <path class="cls-15" d="M94.96,151.19c-1.58,1.53-3.7,2.15-5.72,1.89l7.79-7.62c.22,2.05-.47,4.18-2.07,5.73Z"/>
              <path class="cls-15" d="M84.06,149.52l9.69-9.23c.46.28.89.61,1.29,1.01l-9.97,9.62c-.4-.43-.73-.9-1-1.4Z"/>
              <path class="cls-19" d="M97.03,145.46l-7.79,7.62-1.71,1.68-13.97,13.67-1.11,1.09-1.07,1.05s-.1.06-.16.05c-.04,0-.07-.02-.1-.05-.07-.07-.07-.19,0-.26l1.07-1.05,1.11-1.09,13.83-13.54,1.66-1.62,8.17-8,1.66-1.62,4.96-4.86,37.9-37.09h0s5.43-5.92,5.43-5.92c.12.06.26.1.39.11l-5.57,6.06h0s-37.8,36.99-37.8,36.99l-5.21,5.1-1.72,1.68Z"/>
              <path class="cls-19" d="M140.45,100.35l-38.28,37.39-4.22,4.12-1.51,1.47-9.32,9.11-1.51,1.47-13.41,13.1-1.12,1.09-1.07,1.04s-.1.06-.16.05c-.04,0-.07-.02-.1-.05-.07-.07-.07-.19,0-.26l1.07-1.05,1.12-1.09,13.35-13.04,1.48-1.45,9.5-9.28,1.48-1.45,4.1-4.01,38.33-37.44h0s6.21-5.16,6.21-5.16c.04.11.1.22.18.32l-6.15,5.1h0Z"/>
              <path class="cls-19" d="M147.92,93.68l2.07-1.72s.03.05.05.07c.07.07.15.12.23.17l-2.07,1.71s-.03-.04-.05-.06c-.07-.07-.15-.13-.24-.18Z"/>
              <path class="cls-19" d="M149.78,91.53l-10.5,7.61h0s-38.68,37.31-38.68,37.31l-3.86,3.72-1.45,1.4-9.97,9.61-1.45,1.4-13.27,12.79-1.12,1.08-1.08,1.04s-.1.06-.15.05c-.04,0-.07-.02-.1-.05-.07-.07-.07-.19,0-.26l1.08-1.04,1.12-1.08,13.27-12.79,1.45-1.39,9.97-9.62,1.45-1.39,3.86-3.72,38.68-37.31.02-.02,10.73-7.78c-.03.15-.03.3,0,.45Z"/>
              <path class="cls-19" d="M150.9,90.27l2.01-1.45c.05.1.11.19.19.27,0,0,.02.01.03.02l-1.79,1.3c-.13-.08-.28-.12-.43-.14Z"/>
              <path class="cls-28" d="M152.91,88.81c-.19-.4-.12-.89.21-1.21.42-.4,1.08-.39,1.48.02.4.42.39,1.08-.02,1.48-.41.39-1.05.39-1.46,0,0,0-.02-.01-.03-.02-.08-.08-.14-.18-.19-.27Z"/>
              <path class="cls-28" d="M149.99,91.97c-.11-.13-.18-.28-.21-.44-.03-.15-.03-.3,0-.45.04-.2.14-.38.3-.53.23-.22.54-.31.83-.29.15.01.29.06.43.14.08.05.16.1.22.17.4.42.39,1.08-.02,1.48-.35.33-.86.38-1.26.15-.08-.05-.16-.1-.23-.17-.02-.02-.04-.05-.05-.07Z"/>
              <path class="cls-28" d="M146.93,95.52c-.1-.05-.2-.12-.28-.2-.02-.02-.03-.04-.05-.07-.08-.1-.14-.21-.18-.32-.13-.37-.04-.8.26-1.1.34-.33.85-.38,1.25-.15.08.05.17.1.24.18.02.02.03.04.05.06.35.42.33,1.04-.07,1.42-.22.22-.52.31-.81.29-.14-.01-.27-.05-.39-.11Z"/>
              <path class="cls-19" d="M99.35,134.95l-4.11,3.91-1.5,1.43-9.69,9.23-1.5,1.43-13.48,12.85-1.13,1.08-1.08,1.03s-.1.06-.15.05c-.04,0-.07-.02-.1-.05-.07-.07-.07-.19,0-.26l1.08-1.03,1.13-1.08,13.54-12.91,1.51-1.44,9.54-9.09,1.51-1.44,4.21-4.01,38.75-36.93h0s7.1-7.14,7.1-7.14c.02.02.03.04.05.06.07.07.15.13.23.18l-7.12,7.16h0s-38.8,36.98-38.8,36.98Z"/>
              <path class="cls-19" d="M146.55,89.18s-.06-.05-.09-.07l1.69-1.7s.06.09.1.13c.05.05.1.09.16.13l-1.71,1.71c-.04-.07-.09-.14-.15-.2Z"/>
              <path class="cls-19" d="M144.91,90.48l-8.25,5.96h0s-38.33,36.63-38.33,36.63l-5,4.78-1.66,1.59-8.35,7.98-1.66,1.59-13.96,13.35-1.13,1.08-1.08,1.03s-.1.06-.15.05c-.04,0-.07-.02-.1-.05-.07-.07-.07-.19,0-.26l1.08-1.03,1.13-1.08,14.1-13.47,1.72-1.65,7.96-7.61,1.72-1.65,5.25-5.02,38.22-36.53.02-.02,8.35-6.03c.03.12.07.24.14.35Z"/>
              <path class="cls-28" d="M148.15,87.41c-.29-.42-.25-.99.12-1.36.42-.4,1.08-.39,1.48.02.4.42.39,1.08-.02,1.48-.37.35-.92.39-1.33.11-.06-.04-.11-.08-.16-.13-.04-.04-.07-.08-.1-.13Z"/>
              <path class="cls-28" d="M144.99,90.58s-.06-.07-.08-.1c-.07-.11-.11-.23-.14-.35-.07-.34.02-.71.29-.97.39-.38.99-.39,1.4-.05.03.02.06.05.09.07.06.06.11.13.15.2.24.41.18.94-.17,1.28-.34.33-.86.38-1.25.15-.08-.05-.16-.1-.23-.18-.02-.02-.03-.04-.05-.06Z"/>
              <path class="cls-15" d="M90.87,162.77c.65-1.13,1.38-2.22,2.18-3.24,1.63-2.06,3.57-3.87,5.73-5.35,1.21-.83,2.5-1.56,3.83-2.17.43-.2.69.48.26.68-4.56,2.1-8.47,5.59-11.06,9.89-.81,1.35-1.59,2.79-1.82,4.36-.07.46-.78.35-.72-.11.21-1.46.86-2.79,1.58-4.05Z"/>
              <path class="cls-15" d="M88.12,169.71c.05-.19.21-.33.42-.3.18.03.35.23.3.42-.4,1.46-1.05,2.83-1.95,4.05-.28.38-.84-.09-.56-.46.82-1.11,1.44-2.37,1.8-3.7Z"/>
              <path class="cls-15" d="M85.32,175.69c.46.07.35.79-.11.72s-.35-.79.11-.72Z"/>
              <path class="cls-15" d="M83.62,177.77c.46.07.35.79-.11.72s-.35-.79.11-.72Z"/>
              <path class="cls-15" d="M81.75,179.53c.46.07.35.79-.11.72s-.35-.79.11-.72Z"/>
              <path class="cls-15" d="M73.89,144.71c-1.36.76-2.79,1.33-4.31,1.69-.46.11-.53-.62-.08-.72,5.53-1.29,9.57-5.68,12.66-10.18.98-1.44,1.9-2.92,2.82-4.4.24-.39.91-.1.66.3-3.12,5.03-6.44,10.33-11.75,13.31Z"/>
              <path class="cls-15" d="M67.2,147.13c-1.28.37-2.46.99-3.48,1.83-.15.13-.4.07-.51-.08-.12-.17-.07-.38.08-.51,1.07-.88,2.32-1.54,3.65-1.92.19-.05.39.01.47.21.07.17-.02.42-.21.47Z"/>
              <path class="cls-15" d="M61.08,150.37c-.46-.07-.35-.79.11-.72s.35.79-.11.72Z"/>
              <path class="cls-15" d="M59.54,151.54c-.46-.07-.35-.79.11-.72s.35.79-.11.72Z"/>
              <path class="cls-15" d="M58.03,153.45c-.46-.07-.35-.79.11-.72s.35.79-.11.72Z"/>
            </g>
          </g>
          <g class="cls-34">
            <g>
              <path class="cls-7" d="M59.59,163.01l-.08-.09-1.85-1.62,7-9.26,2.92.71,3.19.34,1.46-.49,2.23-.66c.26-.08.52-.13.79-.15l.78-.07c.47-.04.94.09,1.32.37.47.34.77.89.8,1.47.02.44-.11.87-.37,1.22l-.31.43c-.45.62-1.1,1.07-1.83,1.29l-.94.27-1.95.41-.17,1.39c-.1.87,0,1.75.31,2.57.12.33.28.65.47.95l.67,1.08.75,1.47c.18.35.29.74.33,1.13l.04.37c.06.55-.09,1.1-.42,1.55l-.12.16c-.21.28-.5.49-.83.6-.36.12-.76.1-1.11-.04l-.31-.12c-.28-.11-.53-.27-.76-.47l-2.34-2.07.02.05c.21.41.35.85.42,1.31.07.48.22.95.45,1.38l.71,1.33c.11.21.19.43.24.67l.08.41c.11.55-.07,1.11-.48,1.49-.43.41-1.04.55-1.61.38l-.14-.04c-.2-.06-.38-.15-.55-.27l-.63-.46c-.43-.31-.81-.68-1.14-1.09-.39-.48-.7-1.02-.92-1.6l-.19-.49c-.01,1.02.09,2.04.31,3.04l.18.83.13,1.27c.03.26-.04.51-.19.72l-.15.2c-.21.28-.58.38-.9.24-.32-.15-.62-.34-.87-.58l-.92-.86-.49-.58c-.51-.6-.93-1.26-1.26-1.98-.38-.82-.62-1.7-.72-2.6l-.1-.94-.28-2.41c-.02-.13-.02-.27-.01-.4.03-.65-.2-1.29-.64-1.77Z"/>
              <path class="cls-11" d="M32.61,132.39l3.84-8.12s7.31-9.77,9.58-13.6c2.23-3.77,6.54-5.79,10.88-5.19l7.28,1.02c6.17,1.43-.3,6.7-.63,8.96l-2.46,3.19-9.21,12.17c0,3.96-.1,3.93,2.48,6.93l1.43,1.67,4.94,6.26.34.34c2.83,2.83,6.17,5.08,9.85,6.64l-.68.08c-1.74.21-3.51.12-5.21-.29l1.85,1.62,1.85,1.62-.12.03c-1.78.45-3.66.29-5.33-.47l1.91,2.09,1.94,1.69c-2.01.29-4.06.05-5.95-.7l-.1-.04c.67,1.32,1.18,2.74,1.5,4.18l-2.97-2.16v1.69s.26,1.73.26,1.73l-5.49-5.11-3.69-2.68-5.94-4.31c-3.41-2.47-6.49-5.36-9.17-8.6l-.35-.42-1.89-2c-.61-.85-.83-1.63-1.27-2.58-.66-1.43.21-4.51.54-5.66Z"/>
              <path class="cls-5" d="M37.02,142.44l-.14-.21c-.51-.74-1.69-1.99-2.15-2.76-2.63-4.48.87-7.46,2.6-11.92l10.16-15.53c2.14-3.4,5.14-4.89,7.72-4.72l8.48,1.71c.39.08.59.5.41.85-1.41,2.75-9.71,13.34-13.66,19.44-1.45,2.24-1.09,5.2.84,7.04l5.21,4.98,3.61,4.86.24.25c2.1,2.17,4.64,3.87,7.45,4.98l-.61.11c-1.32.24-2.68.23-4-.03l1.38,1.24,1.38,1.24-.23.07c-1.32.41-2.75.34-4.02-.2l1.41,1.62,1.45,1.29h-.03c-1.56.32-3.18.2-4.68-.35.47,1.05.81,2.16.99,3.29v.03s-2.23-1.62-2.23-1.62l-.06,1.37.13,1.39-4.06-3.09-2.97-2.16-4.28-3.39-4.14-3.01-.95-.91c-1.9-1.82-3.65-3.78-5.24-5.88Z"/>
            </g>
          </g>
          <g>
            <path class="cls-7" d="M128.35,129.23l-.03.11-.47,2.41-9.12-1.32-.56-2.87-.92-2.91-.88-1-1.28-1.59c-.15-.18-.28-.39-.4-.61l-.33-.63c-.2-.38-.28-.85-.22-1.32.07-.58.35-1.11.75-1.43.3-.24.65-.35,1-.3l.42.05c.6.07,1.16.4,1.58.92l.54.67,1.01,1.47,1.05-.56c.65-.35,1.24-.89,1.71-1.57.19-.27.35-.57.5-.88l.52-1.12.77-1.39c.18-.33.41-.62.68-.86l.25-.22c.37-.33.81-.48,1.25-.43l.15.02c.28.03.53.18.73.41.22.25.35.6.38.97l.03.33c.02.29,0,.59-.05.89l-.61,3.06.03-.05c.21-.39.48-.73.77-1.02.32-.31.59-.67.81-1.09l.68-1.28c.11-.2.24-.38.38-.54l.26-.28c.35-.37.81-.5,1.23-.35.45.16.77.62.86,1.19l.02.14c.03.2.03.41,0,.61l-.09.78c-.06.53-.18,1.04-.35,1.54-.2.58-.47,1.11-.79,1.6l-.28.41c.73-.51,1.41-1.11,2.04-1.8l.52-.58.85-.75c.17-.15.38-.22.58-.2l.2.02c.28.03.49.31.5.65.01.35-.02.7-.09,1.05l-.28,1.23-.23.72c-.24.74-.55,1.44-.94,2.09-.44.74-.98,1.4-1.58,1.94l-.62.56-1.6,1.46c-.09.08-.18.15-.28.22-.47.3-.84.82-1.02,1.44Z"/>
            <path class="cls-11" d="M118.31,158.78h0c-5.67-.32-11.14-2.25-15.76-5.56-.76-.54-1.49-1.07-2.15-1.54-3.86-2.78-11.61-28.7-13.31-32.69l-.6-6.54s3.53-2.41,7.09-5.85c2.11-2.04,5.58-1.49,6.91,1.12,2.82,5.52,6.49,13.94,11.92,29.42l.76-2.07,3.06-7.36.13-.46c1.09-3.84,2.64,2.16,3.12,3.85l.52-2.4.52-2.4.08.09c1.26,1.33,2.03,3.06,2.18,4.89l.9-2.69.53-2.51c1.23,1.62,2.02,3.53,2.29,5.54v.11c.84-1.23,1.83-2.36,2.94-3.34l-.44,3.64,1.1-.51-.88,7.29c-.5,4.18-1.53,8.28-3.05,12.2l-.2.51-.83,2.62c-.45.95-1.02,1.51-1.63,2.36-.93,1.27-4.04,2.01-5.21,2.28Z"/>
            <path class="cls-5" d="M124.95,150.04l-.11.23c-.4.8-.91,2.45-1.36,3.22-2.63,4.48-12.8,5.6-22.97-4.27l-11.81-33.04c-.96-.93.97-3.85,1.93-4.78l5.38-3.77c.74-.71,1.94-.55,2.47.33,3.41,5.66,13.63,34.83,14.21,32.59l1.82-6.98s3.14-1.36,2.74-4.35l.39.48c.85,1.04,1.5,2.23,1.92,3.51l.41-1.81.41-1.81.17.16c1,.95,1.64,2.23,1.78,3.61l.72-2.02.42-1.89.02.03c1.04,1.21,1.72,2.69,1.97,4.26.69-.93,1.49-1.76,2.39-2.47l.02-.02-.33,2.74,1.23-.61-.31,2.87-.61,5.08-.33,1.28c-.66,2.54-1.53,5.03-2.59,7.44Z"/>
          </g>
          <path class="cls-10" d="M56.13,111.49l4.75-5.46,35.37-.41c.45,1.68,1.48,3.14,2.9,4.13l4.65,3.24-1.74-.44c-2.78-.69-5.29-2.21-7.2-4.34.46,3.15,1.61,6.16,3.36,8.81l.13.2-4.33-3.82,1.18,2.95c.05.13.11.25.18.36,1,1.71,1.23,3.77.62,5.66l-.45,1.4c0-2.06-.97-4.01-2.61-5.26l-1.16-.88.98,3.4c.83,2.89,1.02,5.92.56,8.89l-.56-2.19-.98-3.96v.37c0,3.83-.47,7.65-1.4,11.37l-.42-3.96-.7-3.82v.1c-.47,3.99-1.7,7.85-3.63,11.37l.11-1.35c.21-2.64.17-5.3-.11-7.93-1.48,2.89-2.48,6.01-2.95,9.23l-.13.88-2.52-10.11c-.45,3.63-2.08,7.02-4.64,9.64l-1.79,1.83c1.39-3.52,2.1-7.27,2.1-11.05v-1.92c-2.37,2.05-4.06,4.76-4.85,7.79l-.6,2.32c-1.49-3.72-2.53-7.6-3.11-11.57l-.11-.73-.84,3.28-1.4,4.37-.7-10.65-2.1,6.69-.42-3.69v-3.82l.98-6.69-2.66,5.87c.28-2.91.83-5.78,1.65-8.58l.45-1.52-3.08,3,2.66-5.19-2.66.96-2.8,1.23Z"/>
          <g class="cls-14">
            <g>
              <path class="cls-33" d="M46.77,158.46c3.35-12,16.51-16.32,22.87-17.69,5.99-1.29,8.91-6.02,13.21-12.78,3.98-6.26,12.95-7.52,20.94-1.98l-1.03,1.01c-7.42-4.7-16.28-2.97-19.49,2.52-3.83,6.57-6.2,10.44-11.93,12.65-5.73,2.21-19.13,4.37-22.7,16.42-2.93,9.91,4.85,17.78,7.49,20.5,2.64,2.73,10.25,10.76,20.25,8.16,12.16-3.17,14.75-16.5,17.15-22.15,2.4-5.65,5.38-7.17,13.04-11.51,5.35-3.03,7.07-11.67,3.08-19.16l1.1-1.07c4.98,8.38,3.13,18.11-2.72,21.32-8.12,4.45-10.85,5.49-13.27,11.52-2.42,6.03-6.08,20-18.03,22.51-10.76,2.26-18.96-5.5-21.88-8.52-2.93-3.02-11.03-11.18-8.07-21.77Z"/>
              <path class="cls-28" d="M71.95,166.76l-1.35-1.39,13.27-12.79c.44.44.92.82,1.43,1.15l-13.35,13.04Z"/>
              <path class="cls-28" d="M102.17,137.74c.52.34,1,.6,1.42.79l-4.96,4.86c-.17-.52-.4-1.04-.67-1.53l4.22-4.12Z"/>
              <path class="cls-28" d="M97.76,141.54c-.3-.48-.64-.94-1.03-1.37l3.86-3.72c.43.43.86.78,1.28,1.09l-4.1,4.01Z"/>
              <path class="cls-28" d="M85.61,153.92c.49.29,1,.53,1.53.71l-13.83,13.54-1.11-1.15,13.41-13.1Z"/>
              <path class="cls-28" d="M98.19,132.7l-5.25,5.02c-3.05-1-6.55-.33-9.02,2.07-2.44,2.36-3.25,5.78-2.39,8.84l-14.1,13.47-3.67-3.79c-.28-.29-.75-.3-1.04-.02l-3.33,3.23c-.29.28-.3.75-.02,1.04l13.82,14.28c.28.29.75.3,1.04.02l3.33-3.23c.29-.28.3-.75.02-1.04l-4.03-4.16,13.97-13.67c3.01.92,6.41.22,8.83-2.13,2.45-2.37,3.25-5.79,2.39-8.85l5.21-5.1c.61.25,1.01.33,1.01.33l4.68-4.55c4,7.49,2.27,16.13-3.08,19.16-7.66,4.34-10.64,5.86-13.04,11.51-2.4,5.65-4.99,18.97-17.15,22.15-10,2.61-17.61-5.43-20.25-8.16-2.64-2.73-10.42-10.6-7.49-20.5,3.57-12.05,16.97-14.21,22.7-16.42,5.73-2.21,8.1-6.09,11.93-12.65,3.21-5.49,12.07-7.22,19.49-2.52l-4.84,4.71s.06.38.27.98ZM90.01,166.94c.22-1.57,1.01-3.02,1.82-4.36,2.59-4.3,6.5-7.79,11.06-9.89.42-.2.16-.87-.26-.68-1.34.62-2.62,1.34-3.83,2.17-2.16,1.48-4.1,3.3-5.73,5.35-.81,1.02-1.54,2.11-2.18,3.24-.72,1.26-1.37,2.6-1.58,4.05-.07.46.65.58.72.11ZM86.88,173.88c.9-1.22,1.56-2.59,1.95-4.05.05-.19-.12-.39-.3-.42-.21-.03-.37.11-.42.3-.36,1.33-.98,2.59-1.8,3.7-.28.38.28.84.56.46ZM85.21,176.41c.46.07.58-.64.11-.72s-.58.64-.11.72ZM83.5,178.49c.46.07.58-.64.11-.72s-.58.64-.11.72ZM81.64,180.25c.46.07.58-.64.11-.72s-.58.64-.11.72ZM58.14,152.74c-.46-.07-.58.64-.11.72s.58-.64.11-.72ZM59.66,150.82c-.46-.07-.58.64-.11.72s.58-.64.11-.72ZM61.19,149.66c-.46-.07-.58.64-.11.72s.58-.64.11-.72ZM67.41,146.66c-.08-.19-.28-.26-.47-.21-1.33.38-2.58,1.04-3.65,1.92-.15.13-.2.34-.08.51.11.15.36.21.51.08,1.02-.85,2.2-1.47,3.48-1.83.19-.05.27-.3.21-.47ZM84.98,131.1c-.92,1.48-1.84,2.96-2.82,4.4-3.09,4.51-7.13,8.89-12.66,10.18-.45.11-.38.83.08.72,1.52-.35,2.95-.93,4.31-1.69,5.31-2.98,8.63-8.28,11.75-13.31.25-.4-.42-.69-.66-.3Z"/>
              <path class="cls-28" d="M81.65,149.01c.18.56.42,1.1.72,1.62l-13.54,12.91-1.14-1.18,13.96-13.35Z"/>
              <path class="cls-28" d="M98.33,133.07c.18.46.44.99.81,1.57l-4.21,4.01c-.51-.33-1.05-.59-1.6-.81l5-4.78Z"/>
              <path class="cls-28" d="M99.35,134.95c.28.4.6.82.99,1.23l-3.86,3.72c-.39-.39-.8-.74-1.24-1.04l4.11-3.91Z"/>
              <path class="cls-28" d="M82.56,150.95c.3.48.65.94,1.05,1.37l-13.27,12.79-1.27-1.31,13.48-12.85Z"/>
              <polygon class="cls-15" points="72.2 167.02 73.31 168.17 72.19 169.26 71.08 168.11 72.2 167.02"/>
              <path class="cls-15" d="M65.25,162.08c-.15-.16-.41-.16-.57,0l-1.35,1.3c-.16.15-.16.41,0,.57l8.62,8.9c.15.16.41.16.57,0l1.35-1.3c.16-.15.16-.41,0-.57l-1.42-1.47,1.11-1.09,4.03,4.16c.28.29.28.76-.02,1.04l-3.33,3.23c-.29.28-.76.28-1.04-.02l-13.82-14.28c-.28-.29-.28-.76.02-1.04l3.33-3.23c.29-.28.76-.28,1.04.02l3.67,3.79-1.13,1.08-1.06-1.09Z"/>
              <polygon class="cls-15" points="67.69 162.36 68.82 163.54 67.7 164.61 66.56 163.44 67.69 162.36"/>
              <polygon class="cls-15" points="69.08 163.8 70.35 165.11 69.22 166.19 67.95 164.87 69.08 163.8"/>
              <polygon class="cls-15" points="70.83 167.85 69.48 166.45 70.6 165.37 71.95 166.76 70.83 167.85"/>
              <path class="cls-20" d="M73.86,171.55l-1.35,1.3c-.16.15-.41.15-.57,0l-8.62-8.9c-.15-.16-.15-.41,0-.57l1.35-1.3c.16-.15.41-.15.57,0l1.06,1.09-1.08,1.03c-.07.07-.08.18,0,.26.03.03.06.05.1.05.05,0,.11,0,.15-.05l1.08-1.03,1.14,1.17-1.08,1.03c-.07.07-.08.18,0,.26.03.03.06.05.1.05.05,0,.11,0,.15-.05l1.08-1.03,1.28,1.32-1.08,1.04c-.07.07-.07.18,0,.26.03.03.06.05.1.05.05,0,.11,0,.15-.05l1.08-1.04,1.35,1.4-1.07,1.05c-.07.07-.07.19,0,.26.03.03.06.05.1.05.05,0,.11,0,.16-.05l1.07-1.04,1.11,1.15-1.07,1.05c-.07.07-.07.19,0,.26.03.03.06.05.1.05.06,0,.11,0,.16-.05l1.07-1.05,1.42,1.47c.15.16.15.41,0,.57Z"/>
              <path class="cls-33" d="M157.76,91.73l-.72.7-1.57-1.62c.26-.26.49-.51.7-.72l1.59,1.64Z"/>
              <rect class="cls-39" x="156.59" y="91.82" width="2.76" height="1.53" rx=".67" ry=".67" transform="translate(-19.93 135.91) rotate(-44.06)"/>
              <path class="cls-33" d="M154.69,94.69l-.72.7-1.53-1.58c.24-.24.48-.47.72-.7l1.53,1.59Z"/>
              <path class="cls-39" d="M154.88,94.51c.27-.26.7-.25.95.02l.12.13c.26.27.25.7-.02.95l-1.01.98c-.27.26-.7.25-.95-.02l-.12-.13c-.26-.27-.25-.7.02-.95l.1-.1.72-.7.19-.18Z"/>
              <path class="cls-33" d="M141.67,86.39l.72-.7,1.48,1.53c-.25.23-.49.46-.73.69l-1.47-1.52Z"/>
              <path class="cls-39" d="M141.48,86.57c-.27.26-.7.25-.95-.02l-.12-.13c-.26-.27-.25-.7.02-.95l1.01-.98c.27-.26.7-.25.95.02l.12.13c.26.27.25.7-.02.95l-.1.1-.72.7-.19.18Z"/>
              <path class="cls-33" d="M144.74,83.42l.2-.19.52-.51,1.51,1.56c-.24.23-.49.46-.73.69l-1.5-1.55Z"/>
              <path class="cls-39" d="M144.55,83.61c-.27.26-.7.25-.95-.02l-.12-.13c-.26-.27-.25-.7.02-.95l1.01-.98c.27-.26.7-.25.95.02l.12.13c.26.27.25.7-.02.95l-.63.61-.2.19-.19.18Z"/>
              <path class="cls-33" d="M151.53,97.75l-.72.7-1.54-1.59c.24-.22.48-.46.73-.7l1.53,1.59Z"/>
              <rect class="cls-39" x="150.37" y="97.84" width="2.76" height="1.53" rx=".67" ry=".67" transform="translate(-25.87 133.27) rotate(-44.06)"/>
              <path class="cls-33" d="M98.19,132.7c-.21-.6-.27-.98-.27-.98l4.84-4.71,1.03-1.01,31.67-30.81.95.98-38.22,36.53Z"/>
              <path class="cls-33" d="M101.87,137.53c-.42-.3-.85-.66-1.28-1.09l38.68-37.31h0s.92.95.92.95l-38.33,37.44Z"/>
              <path class="cls-33" d="M100.34,136.19c-.39-.41-.72-.83-.99-1.23l38.8-36.97h0s.87.9.87.9l-38.68,37.31Z"/>
              <path class="cls-33" d="M140.45,100.35l1.05,1.08h0s-37.9,37.1-37.9,37.1c-.42-.19-.9-.45-1.42-.79l38.28-37.39Z"/>
              <path class="cls-33" d="M104.96,139.01s-.4-.08-1.01-.33l37.8-36.99.76.79-31.77,30.91-1.1,1.07-4.68,4.55Z"/>
              <path class="cls-33" d="M136.66,96.44h0s1.24,1.28,1.24,1.28h0s-38.75,36.93-38.75,36.93c-.37-.58-.63-1.12-.81-1.57l38.33-36.63Z"/>
              <path class="cls-39" d="M140.2,100.09l-.92-.95,10.5-7.61c.03.16.11.31.21.44l-2.07,1.72c-.39-.22-.9-.18-1.25.15-.3.29-.39.72-.26,1.1l-6.21,5.15h0Z"/>
              <path class="cls-39" d="M140.45,100.35l6.15-5.1s.03.05.05.07c.08.09.18.15.28.2l-5.43,5.91-1.05-1.08h0Z"/>
              <path class="cls-39" d="M141.75,101.7l5.57-6.06c.29.02.59-.07.81-.29.4-.38.42-1.01.07-1.42l2.07-1.71c.4.23.91.19,1.26-.15.42-.4.43-1.07.02-1.48-.07-.07-.14-.12-.22-.17l1.79-1.3c.4.39,1.05.4,1.46,0,.42-.4.43-1.07.02-1.48-.4-.42-1.07-.43-1.48-.02-.33.32-.4.81-.21,1.21l-2.01,1.45c-.3-.03-.6.06-.83.29-.15.15-.25.34-.3.53l-10.73,7.78-.02.02-.87-.9,7.12-7.16c.4.23.91.18,1.25-.15.35-.34.41-.87.17-1.28l1.71-1.71c.4.28.96.25,1.33-.11.42-.4.43-1.07.02-1.48-.4-.42-1.07-.43-1.48-.02-.38.36-.42.94-.12,1.36l-1.69,1.7c-.41-.34-1.01-.33-1.4.05-.27.26-.37.63-.29.97l-8.35,6.03-.02.02-.95-.98s2.23-.24,2.47-2.39c0,0,2.3-2.15,5.21-4.9.24-.23.48-.46.73-.69.77-.73,1.56-1.48,2.37-2.24.24-.23.49-.46.73-.69,1.4-1.33,2.77-2.65,3.98-3.81.83-.8,1.45.56,3.69-2.79.95-1.43,7.86,7.93,4.7,8.4-.43.06-1.38.52-2.28,2.94-.05.13-.38.52-.89,1.06-.21.22-.44.46-.7.72-.65.67-1.45,1.46-2.31,2.3-.24.23-.48.47-.72.7-.82.79-1.65,1.6-2.44,2.35-.25.24-.49.47-.73.7-1.67,1.59-2.94,2.79-2.94,2.79,0,0-2.41-1.08-3.83,2.83l-.76-.79h0Z"/>
              <path class="cls-39" d="M144.91,90.48s.05.07.08.1l-7.1,7.13-1.24-1.28,8.25-5.96Z"/>
              <path class="cls-33" d="M93.32,137.86c.56.21,1.09.48,1.6.81l-1.51,1.44c-.56-.3-1.15-.52-1.76-.65l1.66-1.59Z"/>
              <path class="cls-33" d="M87.12,152.45c.54.26,1.1.45,1.68.56l-1.66,1.62c-.53-.19-1.04-.42-1.53-.71l1.51-1.47Z"/>
              <path class="cls-33" d="M97.76,141.54l-1.48,1.45c-.27-.51-.6-.98-1-1.42l1.45-1.4c.39.43.74.89,1.03,1.37Z"/>
              <path class="cls-33" d="M85.32,141.23c-1.6,1.55-2.29,3.69-2.06,5.75l-1.72,1.65c-.85-3.06-.05-6.48,2.39-8.84,2.47-2.39,5.96-3.07,9.02-2.07l-1.72,1.65c-2.08-.33-4.27.29-5.9,1.86Z"/>
              <path class="cls-33" d="M95.24,138.87c.44.3.85.65,1.24,1.04l-1.45,1.39c-.4-.4-.83-.73-1.29-1.01l1.5-1.43Z"/>
              <path class="cls-33" d="M94.96,151.19c1.6-1.55,2.29-3.68,2.07-5.73l1.72-1.68c.86,3.06.06,6.49-2.39,8.85-2.42,2.34-5.82,3.04-8.83,2.13l1.71-1.68c2.02.26,4.14-.36,5.72-1.89Z"/>
              <path class="cls-33" d="M85.29,153.72c-.5-.33-.98-.71-1.43-1.15l1.45-1.4c.45.44.94.8,1.46,1.09l-1.48,1.45Z"/>
              <path class="cls-33" d="M82.56,150.95l1.5-1.43c.27.5.6.97,1,1.4l-1.45,1.39c-.4-.43-.75-.89-1.05-1.37Z"/>
              <path class="cls-33" d="M83.31,147.42c.11.61.3,1.2.57,1.76l-1.51,1.44c-.3-.52-.53-1.06-.72-1.62l1.66-1.59Z"/>
              <path class="cls-33" d="M97.95,141.86c.27.49.5,1,.67,1.53l-1.66,1.62c-.1-.57-.28-1.13-.53-1.67l1.51-1.47Z"/>
              <path class="cls-15" d="M96.45,143.34c.25.54.43,1.1.53,1.67l-8.17,8c-.58-.11-1.14-.3-1.68-.56l9.32-9.11Z"/>
              <path class="cls-15" d="M85.32,141.23c1.63-1.57,3.82-2.18,5.9-1.86l-7.96,7.61c-.23-2.06.46-4.2,2.06-5.75Z"/>
              <path class="cls-15" d="M96.28,142.99l-9.5,9.28c-.52-.29-1.01-.66-1.46-1.09l9.97-9.61c.4.44.73.92,1,1.42Z"/>
              <path class="cls-15" d="M91.66,139.45c.61.14,1.2.35,1.76.65l-9.54,9.09c-.27-.57-.46-1.16-.57-1.76l8.35-7.98Z"/>
              <path class="cls-15" d="M94.96,151.19c-1.58,1.53-3.7,2.15-5.72,1.89l7.79-7.62c.22,2.05-.47,4.18-2.07,5.73Z"/>
              <path class="cls-15" d="M84.06,149.52l9.69-9.23c.46.28.89.61,1.29,1.01l-9.97,9.62c-.4-.43-.73-.9-1-1.4Z"/>
              <path class="cls-19" d="M97.03,145.46l-7.79,7.62-1.71,1.68-13.97,13.67-1.11,1.09-1.07,1.05s-.1.06-.16.05c-.04,0-.07-.02-.1-.05-.07-.07-.07-.19,0-.26l1.07-1.05,1.11-1.09,13.83-13.54,1.66-1.62,8.17-8,1.66-1.62,4.96-4.86,37.9-37.09h0s5.43-5.92,5.43-5.92c.12.06.26.1.39.11l-5.57,6.06h0s-37.8,36.99-37.8,36.99l-5.21,5.1-1.72,1.68Z"/>
              <path class="cls-19" d="M140.45,100.35l-38.28,37.39-4.22,4.12-1.51,1.47-9.32,9.11-1.51,1.47-13.41,13.1-1.12,1.09-1.07,1.04s-.1.06-.16.05c-.04,0-.07-.02-.1-.05-.07-.07-.07-.19,0-.26l1.07-1.05,1.12-1.09,13.35-13.04,1.48-1.45,9.5-9.28,1.48-1.45,4.1-4.01,38.33-37.44h0s6.21-5.16,6.21-5.16c.04.11.1.22.18.32l-6.15,5.1h0Z"/>
              <path class="cls-19" d="M147.92,93.68l2.07-1.72s.03.05.05.07c.07.07.15.12.23.17l-2.07,1.71s-.03-.04-.05-.06c-.07-.07-.15-.13-.24-.18Z"/>
              <path class="cls-19" d="M149.78,91.53l-10.5,7.61h0s-38.68,37.31-38.68,37.31l-3.86,3.72-1.45,1.4-9.97,9.61-1.45,1.4-13.27,12.79-1.12,1.08-1.08,1.04s-.1.06-.15.05c-.04,0-.07-.02-.1-.05-.07-.07-.07-.19,0-.26l1.08-1.04,1.12-1.08,13.27-12.79,1.45-1.39,9.97-9.62,1.45-1.39,3.86-3.72,38.68-37.31.02-.02,10.73-7.78c-.03.15-.03.3,0,.45Z"/>
              <path class="cls-19" d="M150.9,90.27l2.01-1.45c.05.1.11.19.19.27,0,0,.02.01.03.02l-1.79,1.3c-.13-.08-.28-.12-.43-.14Z"/>
              <path class="cls-28" d="M152.91,88.81c-.19-.4-.12-.89.21-1.21.42-.4,1.08-.39,1.48.02.4.42.39,1.08-.02,1.48-.41.39-1.05.39-1.46,0,0,0-.02-.01-.03-.02-.08-.08-.14-.18-.19-.27Z"/>
              <path class="cls-28" d="M149.99,91.97c-.11-.13-.18-.28-.21-.44-.03-.15-.03-.3,0-.45.04-.2.14-.38.3-.53.23-.22.54-.31.83-.29.15.01.29.06.43.14.08.05.16.1.22.17.4.42.39,1.08-.02,1.48-.35.33-.86.38-1.26.15-.08-.05-.16-.1-.23-.17-.02-.02-.04-.05-.05-.07Z"/>
              <path class="cls-28" d="M146.93,95.52c-.1-.05-.2-.12-.28-.2-.02-.02-.03-.04-.05-.07-.08-.1-.14-.21-.18-.32-.13-.37-.04-.8.26-1.1.34-.33.85-.38,1.25-.15.08.05.17.1.24.18.02.02.03.04.05.06.35.42.33,1.04-.07,1.42-.22.22-.52.31-.81.29-.14-.01-.27-.05-.39-.11Z"/>
              <path class="cls-19" d="M99.35,134.95l-4.11,3.91-1.5,1.43-9.69,9.23-1.5,1.43-13.48,12.85-1.13,1.08-1.08,1.03s-.1.06-.15.05c-.04,0-.07-.02-.1-.05-.07-.07-.07-.19,0-.26l1.08-1.03,1.13-1.08,13.54-12.91,1.51-1.44,9.54-9.09,1.51-1.44,4.21-4.01,38.75-36.93h0s7.1-7.14,7.1-7.14c.02.02.03.04.05.06.07.07.15.13.23.18l-7.12,7.16h0s-38.8,36.98-38.8,36.98Z"/>
              <path class="cls-19" d="M146.55,89.18s-.06-.05-.09-.07l1.69-1.7s.06.09.1.13c.05.05.1.09.16.13l-1.71,1.71c-.04-.07-.09-.14-.15-.2Z"/>
              <path class="cls-19" d="M144.91,90.48l-8.25,5.96h0s-38.33,36.63-38.33,36.63l-5,4.78-1.66,1.59-8.35,7.98-1.66,1.59-13.96,13.35-1.13,1.08-1.08,1.03s-.1.06-.15.05c-.04,0-.07-.02-.1-.05-.07-.07-.07-.19,0-.26l1.08-1.03,1.13-1.08,14.1-13.47,1.72-1.65,7.96-7.61,1.72-1.65,5.25-5.02,38.22-36.53.02-.02,8.35-6.03c.03.12.07.24.14.35Z"/>
              <path class="cls-28" d="M148.15,87.41c-.29-.42-.25-.99.12-1.36.42-.4,1.08-.39,1.48.02.4.42.39,1.08-.02,1.48-.37.35-.92.39-1.33.11-.06-.04-.11-.08-.16-.13-.04-.04-.07-.08-.1-.13Z"/>
              <path class="cls-28" d="M144.99,90.58s-.06-.07-.08-.1c-.07-.11-.11-.23-.14-.35-.07-.34.02-.71.29-.97.39-.38.99-.39,1.4-.05.03.02.06.05.09.07.06.06.11.13.15.2.24.41.18.94-.17,1.28-.34.33-.86.38-1.25.15-.08-.05-.16-.1-.23-.18-.02-.02-.03-.04-.05-.06Z"/>
              <path class="cls-15" d="M90.87,162.77c.65-1.13,1.38-2.22,2.18-3.24,1.63-2.06,3.57-3.87,5.73-5.35,1.21-.83,2.5-1.56,3.83-2.17.43-.2.69.48.26.68-4.56,2.1-8.47,5.59-11.06,9.89-.81,1.35-1.59,2.79-1.82,4.36-.07.46-.78.35-.72-.11.21-1.46.86-2.79,1.58-4.05Z"/>
              <path class="cls-15" d="M88.12,169.71c.05-.19.21-.33.42-.3.18.03.35.23.3.42-.4,1.46-1.05,2.83-1.95,4.05-.28.38-.84-.09-.56-.46.82-1.11,1.44-2.37,1.8-3.7Z"/>
              <path class="cls-15" d="M85.32,175.69c.46.07.35.79-.11.72s-.35-.79.11-.72Z"/>
              <path class="cls-15" d="M83.62,177.77c.46.07.35.79-.11.72s-.35-.79.11-.72Z"/>
              <path class="cls-15" d="M81.75,179.53c.46.07.35.79-.11.72s-.35-.79.11-.72Z"/>
              <path class="cls-15" d="M73.89,144.71c-1.36.76-2.79,1.33-4.31,1.69-.46.11-.53-.62-.08-.72,5.53-1.29,9.57-5.68,12.66-10.18.98-1.44,1.9-2.92,2.82-4.4.24-.39.91-.1.66.3-3.12,5.03-6.44,10.33-11.75,13.31Z"/>
              <path class="cls-15" d="M67.2,147.13c-1.28.37-2.46.99-3.48,1.83-.15.13-.4.07-.51-.08-.12-.17-.07-.38.08-.51,1.07-.88,2.32-1.54,3.65-1.92.19-.05.39.01.47.21.07.17-.02.42-.21.47Z"/>
              <path class="cls-15" d="M61.08,150.37c-.46-.07-.35-.79.11-.72s.35.79-.11.72Z"/>
              <path class="cls-15" d="M59.54,151.54c-.46-.07-.35-.79.11-.72s.35.79-.11.72Z"/>
              <path class="cls-15" d="M58.03,153.45c-.46-.07-.35-.79.11-.72s.35.79-.11.72Z"/>
            </g>
          </g>
          <g class="cls-30">
            <g>
              <path class="cls-7" d="M59.59,163.01l-.08-.09-1.85-1.62,7-9.26,2.92.71,3.19.34,1.46-.49,2.23-.66c.26-.08.52-.13.79-.15l.78-.07c.47-.04.94.09,1.32.37.47.34.77.89.8,1.47.02.44-.11.87-.37,1.22l-.31.43c-.45.62-1.1,1.07-1.83,1.29l-.94.27-1.95.41-.17,1.39c-.1.87,0,1.75.31,2.57.12.33.28.65.47.95l.67,1.08.75,1.47c.18.35.29.74.33,1.13l.04.37c.06.55-.09,1.1-.42,1.55l-.12.16c-.21.28-.5.49-.83.6-.36.12-.76.1-1.11-.04l-.31-.12c-.28-.11-.53-.27-.76-.47l-2.34-2.07.02.05c.21.41.35.85.42,1.31.07.48.22.95.45,1.38l.71,1.33c.11.21.19.43.24.67l.08.41c.11.55-.07,1.11-.48,1.49-.43.41-1.04.55-1.61.38l-.14-.04c-.2-.06-.38-.15-.55-.27l-.63-.46c-.43-.31-.81-.68-1.14-1.09-.39-.48-.7-1.02-.92-1.6l-.19-.49c-.01,1.02.09,2.04.31,3.04l.18.83.13,1.27c.03.26-.04.51-.19.72l-.15.2c-.21.28-.58.38-.9.24-.32-.15-.62-.34-.87-.58l-.92-.86-.49-.58c-.51-.6-.93-1.26-1.26-1.98-.38-.82-.62-1.7-.72-2.6l-.1-.94-.28-2.41c-.02-.13-.02-.27-.01-.4.03-.65-.2-1.29-.64-1.77Z"/>
              <path class="cls-11" d="M32.61,132.39l3.84-8.12s7.31-9.77,9.58-13.6c2.23-3.77,6.54-5.79,10.88-5.19l7.28,1.02c6.17,1.43-.3,6.7-.63,8.96l-2.46,3.19-9.21,12.17c0,3.96-.1,3.93,2.48,6.93l1.43,1.67,4.94,6.26.34.34c2.83,2.83,6.17,5.08,9.85,6.64l-.68.08c-1.74.21-3.51.12-5.21-.29l1.85,1.62,1.85,1.62-.12.03c-1.78.45-3.66.29-5.33-.47l1.91,2.09,1.94,1.69c-2.01.29-4.06.05-5.95-.7l-.1-.04c.67,1.32,1.18,2.74,1.5,4.18l-2.97-2.16v1.69s.26,1.73.26,1.73l-5.49-5.11-3.69-2.68-5.94-4.31c-3.41-2.47-6.49-5.36-9.17-8.6l-.35-.42-1.89-2c-.61-.85-.83-1.63-1.27-2.58-.66-1.43.21-4.51.54-5.66Z"/>
              <path class="cls-5" d="M37.02,142.44l-.14-.21c-.51-.74-1.69-1.99-2.15-2.76-2.63-4.48.87-7.46,2.6-11.92l10.16-15.53c2.14-3.4,5.14-4.89,7.72-4.72l8.48,1.71c.39.08.59.5.41.85-1.41,2.75-9.71,13.34-13.66,19.44-1.45,2.24-1.09,5.2.84,7.04l5.21,4.98,3.61,4.86.24.25c2.1,2.17,4.64,3.87,7.45,4.98l-.61.11c-1.32.24-2.68.23-4-.03l1.38,1.24,1.38,1.24-.23.07c-1.32.41-2.75.34-4.02-.2l1.41,1.62,1.45,1.29h-.03c-1.56.32-3.18.2-4.68-.35.47,1.05.81,2.16.99,3.29v.03s-2.23-1.62-2.23-1.62l-.06,1.37.13,1.39-4.06-3.09-2.97-2.16-4.28-3.39-4.14-3.01-.95-.91c-1.9-1.82-3.65-3.78-5.24-5.88Z"/>
            </g>
          </g>
        </g>
        <g>
          <path class="cls-8" d="M33.61,71.48l-1.18,6.27-.39.66c-.66,1.09-1,2.34-1,3.61,0,1.93.61,3.82,1.74,5.38l2.52,3.5c.7.97,1.5,1.87,2.39,2.68l3.07,2.78c2.28,2.07,4.76,3.9,7.4,5.47,2.1,1.25,4.29,2.32,6.56,3.22l3.37,1.33c3.75,1.48,7.7,2.42,11.72,2.77l2.09.18c.8.07,1.6.2,2.39.4l.92.23c2.19.55,4.5.47,6.65-.23.6-.2,1.22-.34,1.84-.44l4.23-.67,3.91-1.14c4.56-1.33,8.96-3.13,13.14-5.38l1.16-.62c2.48-1.33,4.86-2.87,7.09-4.59l3.87-2.98c1.32-1.02,2.5-2.22,3.48-3.57l1.89-2.58c.99-1.35,1.52-2.98,1.52-4.65,0-1.95-.72-3.83-2.03-5.28l-.07-.07c0-2.18-.23-4.35-.7-6.48l-1.26-5.81c-2.04-6.25-4.9-12.21-8.51-17.71l-.3-.45c-3.5-4.14-7.82-7.53-12.68-9.94l-1.72-.85-7.83-3c3.53-.73,7.13-1.09,10.73-1.09h4.22c-1.85-1.35-3.94-2.32-6.17-2.85l-.6-.14c-1.54-.37-3.12-.55-4.7-.55h-.16c-2.2,0-4.39.34-6.49,1l-5.08,1.6,2.26-2.55c2-2.27,3.39-5.01,4.03-7.96l-.9,1.7c-.69,1.3-1.7,2.41-2.92,3.23-2.56,1.71-5.38,2.98-8.35,3.78l-4.72,1.26c-3.73,1-7.35,2.39-10.79,4.14l-3.39,1.73c-4.22,2.16-7.97,5.13-11.03,8.75-2.21,2.61-4.03,5.53-5.41,8.66l-1.57,3.55c-1.94,4.4-3.37,9.01-4.26,13.73Z"/>
          <path class="cls-29" d="M85.69,94.41c0,2.79-3.35,8.74-7.97,8.74-5.59,0-8.25-5.95-8.25-8.74s4.83-5.46,7.69-5.46,8.53,2.67,8.53,5.46Z"/>
          <path class="cls-36" d="M84.57,94.88c0,2.47-2.95,7.73-7.01,7.73-4.92,0-7.25-5.26-7.25-7.73s4.25-4.83,6.76-4.83,7.5,2.36,7.5,4.83Z"/>
          <path class="cls-17" d="M77.61,100.09l-.24-.11c-1.66-.79-3.79-1.58-5.24-.44-.03.02-.02.05,0,.07l1.09,1.21c.56.62,1.26,1.09,2.04,1.39.37.14.75.24,1.13.29l.11.02c1.25.17,2.52-.04,3.64-.62.59-.3,1.12-.7,1.58-1.17l1.08-1.1s.01-.07-.02-.08l-.98-.24c-1.44-.35-2.96-.06-4.17.78,0,0-.02,0-.03,0Z"/>
          <path class="cls-4" d="M107.71,69.71c-5.24-6.57-12.23-9.99-17.55-6.64-2.64,1.66-4.17,4.54-4.62,7.97-.08-4.22,1.32-7.82,4.25-9.67,5.3-3.34,12.62.91,17.92,8.34Z"/>
          <path class="cls-3" d="M108.84,60.41c-3.15-7.79-8.88-13.06-14.94-11.36-3,.84-5.29,3.17-6.7,6.32,1.13-4.07,3.49-7.12,6.83-8.06,6.03-1.69,11.84,4.46,14.81,13.09Z"/>
          <path class="cls-8" d="M105.4,29l-.98,11.74,4.75,4.1,4.05,5.05,2.38,4.64,8.25.55h4.15c2.17,0,4.34-.22,6.46-.67l1.03-.22c2.39-.5,4.69-1.35,6.82-2.53l.45-.25c1.83-1.01,3.5-2.29,4.96-3.79,1.78-1.84,3.22-3.99,4.23-6.35l.29-.66c.74-1.73,1.29-3.54,1.63-5.39l.04-.21c.56-3.08.59-6.23.07-9.31l-.1-.6c-.34-2.04-.94-4.02-1.79-5.91-1.1-2.46-2.61-4.72-4.45-6.68-2.22-2.37-4.9-4.26-7.86-5.58l-.87-.38c-3.36-1.49-7.04-2.16-10.71-1.96-2.87.16-5.68.84-8.29,2.02l-.18.08c-3.25,1.47-6.12,3.68-8.36,6.46-2.17,2.7-3.7,5.86-4.47,9.24l-1.49,6.61Z"/>
          <path class="cls-13" d="M149.78,33.64l-.04.14v.14c0,4.35-3.77,13.02-16.72,14.21-.92,0-1.98.04-3.12.08-2.81.11-6.12.23-9.17-.16-2.13-.27-3.98-.79-5.33-1.65-1.3-.83-2.15-1.99-2.36-3.69-.48-12.38,1.37-20.95,4.72-26.4,3.3-5.38,8.12-7.8,13.91-7.8,8.66,0,13.41,5.17,15.92,11,1.26,2.93,1.94,6,2.23,8.6.3,2.64.18,4.66-.05,5.53Z"/>
          <path class="cls-21" d="M134.61,39.52c0,2.68-2.34,8.75-9.78,9.42-3.35,0-11.62-.91-12.16-5.46-.42-14.07,4.67-18.44,11.43-18.44,10.13,0,11.13,12.17,10.52,14.48Z"/>
          <path class="cls-8" d="M50.19,27.63l.98,11.74-4.75,4.1-4.05,5.05-2.38,4.64-8.25.55h-4.14c-2.17,0-4.33-.22-6.46-.67l-1.03-.22c-2.39-.5-4.69-1.35-6.82-2.53l-.44-.25c-1.83-1.01-3.5-2.29-4.96-3.79-1.78-1.84-3.21-3.99-4.23-6.35l-.29-.66c-.74-1.73-1.29-3.54-1.63-5.39l-.04-.21c-.56-3.08-.59-6.23-.07-9.31l.1-.6c.34-2.04.94-4.02,1.79-5.91,1.1-2.46,2.61-4.72,4.45-6.68,2.22-2.37,4.9-4.26,7.86-5.58l.87-.38c3.36-1.49,7.03-2.16,10.71-1.96,2.87.16,5.68.84,8.29,2.02l.18.08c3.25,1.47,6.12,3.68,8.35,6.46,2.17,2.7,3.7,5.86,4.47,9.24l1.49,6.61Z"/>
          <path class="cls-13" d="M5.81,32.27l.04.14v.14c0,4.35,3.77,13.02,16.72,14.21.92,0,1.98.04,3.12.08,2.81.11,6.12.23,9.17-.16,2.13-.27,3.98-.79,5.33-1.65,1.29-.83,2.14-1.99,2.36-3.69.48-12.38-1.37-20.95-4.72-26.4-3.31-5.38-8.12-7.8-13.91-7.8-8.66,0-13.41,5.17-15.92,11-1.26,2.93-1.94,6-2.23,8.6-.3,2.64-.18,4.66.05,5.53Z"/>
          <path class="cls-21" d="M20.97,38.15c0,2.68,2.34,8.75,9.78,9.42,3.35,0,11.62-.91,12.16-5.46.42-14.07-4.67-18.44-11.43-18.44-10.13,0-11.13,12.17-10.52,14.48Z"/>
          <path class="cls-4" d="M48.11,70.27c4.62-7.02,11.27-11.05,16.88-8.19,2.78,1.42,4.56,4.15,5.32,7.52-.31-4.21-2.02-7.67-5.11-9.25-5.58-2.84-12.49,2.04-17.09,9.92Z"/>
          <path class="cls-3" d="M45.88,60.5c3.03-7.84,8.67-13.19,14.76-11.59,3.01.79,5.34,3.09,6.8,6.22-1.19-4.05-3.6-7.07-6.96-7.95-6.05-1.6-11.77,4.65-14.6,13.32Z"/>
          <path class="cls-2" d="M95.62,87.7c2.24-2.6,5.46-4.92,9.31-6.49,2.94-1.2,5.88-1.81,8.58-1.87-2.91-1.32-6.53-1.43-10-.01-3.95,1.61-6.79,4.81-7.9,8.38Z"/>
          <path class="cls-2" d="M60.11,87.7c-2.24-2.6-5.46-4.92-9.31-6.49-2.94-1.2-5.88-1.81-8.58-1.87,2.91-1.32,6.53-1.43,10-.01,3.95,1.61,6.79,4.81,7.9,8.38Z"/>
          <path class="cls-18" d="M74.79,87.73h0c.7,0,1.27.57,1.27,1.27v2.37c0,.7-.57,1.27-1.27,1.27h0c-.7,0-1.27-.57-1.27-1.27v-2.37c0-.7.57-1.27,1.27-1.27Z"/>
          <path class="cls-18" d="M80.1,87.73h0c.7,0,1.27.57,1.27,1.27v2.37c0,.7-.57,1.27-1.27,1.27h0c-.7,0-1.27-.57-1.27-1.27v-2.37c0-.7.57-1.27,1.27-1.27Z"/>
          <path class="cls-31" d="M83.79,31.38c-1.8.12-3.09.21-3.13.21l5.33-1.62c1.29-.39,2.62-.67,3.96-.82l.69-.08c1.27-.14,2.54-.14,3.81.01l.9.11c1.02.12,2.03.32,3.02.6.59.16,1.16.38,1.72.64l1.27.61,1.82,1.09c-6.41-.96-12.91-1.2-19.38-.76Z"/>
          <ellipse class="cls-35" cx="107.08" cy="86.08" rx="6.13" ry="2.88" transform="translate(-23.43 43.16) rotate(-20.59)"/>
          <ellipse class="cls-35" cx="48.74" cy="86.16" rx="2.88" ry="6.13" transform="translate(-49.06 101.48) rotate(-69.41)"/>
          <g>
            <path class="cls-31" d="M75.12,71.31c1.32-1.36,3.5-1.39,4.84-.05h0c2.72,2.69,4.79,5.97,6.04,9.59l.67,1.91h-18.17l.83-2.25c1.25-3.4,3.19-6.5,5.71-9.11l.09-.09Z"/>
            <path class="cls-1" d="M77.22,84.72c-1.29-1.78-3.72-3.33-6.07-3.33-3.4,0-7.97,3.79-7.97,6.28,0,3.82,3.45,6.01,6.85,6.01,2.48,0,5.88-1.09,7.37-3.43,1.58,2.15,4.81,3.16,7.19,3.16,3.4,0,6.85-2.19,6.85-6.01,0-2.49-4.57-6.28-7.97-6.28-2.47,0-5.03,1.71-6.26,3.6Z"/>
            <path class="cls-27" d="M84.57,81.53c0,1.66-2.57,5.74-7.13,5.74s-6.99-4.49-6.99-6.15,2.43-3.28,6.99-3.28,7.13,2.03,7.13,3.69Z"/>
            <path class="cls-25" d="M80.24,79.35c0,.43-.97,1.5-2.68,1.5s-2.63-1.17-2.63-1.6.92-.85,2.63-.85,2.68.53,2.68.96Z"/>
            <path class="cls-24" d="M86.06,85.23c-.56.22-.82.85-.6,1.41.23.56.86.83,1.42.61l-.82-2.01ZM121.41,80.79l-.07,1.08.07-1.08ZM121.34,81.87l1.03.07.14-2.16-1.03-.07-.14,2.16ZM86.88,87.24c10.92-4.36,22.69-6.19,34.45-5.37l.14-2.16c-12.09-.85-24.19,1.04-35.41,5.52l.82,2.01Z"/>
            <path class="cls-24" d="M86.81,89.56c-.59.11-.98.68-.87,1.27.11.59.68.98,1.27.87l-.4-2.13ZM87.21,91.69l1.68-.32-.4-2.13-1.68.32.4,2.13ZM88.89,91.38c9.37-1.75,19-1.53,28.28.66l.5-2.11c-9.57-2.26-19.51-2.49-29.18-.68l.4,2.13Z"/>
            <path class="cls-24" d="M68.25,86.04c.56.22.82.85.6,1.41-.23.56-.86.83-1.42.61l.82-2.01ZM32.91,81.61l.07,1.08-.07-1.08ZM32.98,82.69l-1.03.07-.14-2.16,1.03-.07.14,2.16ZM67.43,88.06c-10.92-4.36-22.69-6.19-34.45-5.37l-.14-2.16c12.09-.85,24.19,1.04,35.41,5.52l-.82,2.01Z"/>
            <path class="cls-24" d="M67.28,89.82c.59.11.98.68.87,1.27-.11.59-.68.98-1.27.87l.4-2.13ZM66.88,91.95l-1.68-.32.4-2.13,1.68.32-.4,2.13ZM65.19,91.64c-9.37-1.75-19-1.53-28.28.66l-.5-2.11c9.57-2.26,19.51-2.49,29.18-.68l-.4,2.13Z"/>
            <path class="cls-2" d="M64.3,90.98c1.37,1.47,3.45,2.27,5.51,2.27,2.57,0,6.1-1.16,7.65-3.65,1.64,2.29,4.99,3.36,7.46,3.36,1.86,0,3.74-.65,5.1-1.87-1.25,1.75-3.46,2.7-5.64,2.7-2.32,0-5.47-1.01-7-3.16-1.46,2.34-4.77,3.43-7.18,3.43s-4.71-1.09-5.89-3.09Z"/>
          </g>
        </g>
      </g>
      <path d="M138.54,58.98c.46,3.01-1.3,4.66-4.11,4-1.07-.25-2.13-.6-3.2-.84-.43-.09-.88,0-1.63.02,1.54,1.16,2.9,2.07,4.13,3.14,2.49,2.16,4.98,4.34,7.35,6.64,1.95,1.89,1.58,4.46-.63,5.49-1.86.87-4.16-.5-4.16-2.65,0-1.28.57-2.48.98-4.12-2.05-1.59-4.41-3.46-6.81-5.28-.94-.71-2.01-1.25-2.93-1.99-.39-.31-.82-.97-.78-1.37.05-.47.53-.92.95-1.2.4-.27,1-.25,1.46-.47,1.24-.6,2.55-.59,3.95-.11.32.11.65.22.98.32,2.45.76,3.32.48,4.45-1.58Z"/>
      <path d="M137.58,45.01c-2.01-2.45-3.96-4.82-5.9-7.2-1.09-1.34-.8-2.51.81-3.14,2.9-1.13,5.81-2.23,8.71-3.37.89-.35,1.53-.22,2.13.58,1.99,2.66,4.03,5.28,6.07,7.9,1.55,2,1.63,4.3.17,6.23-.74.98-2.07,1.37-3.18.92-1.1-.44-1.94-1.71-1.57-2.88.37-1.18,1.12-2.23,1.63-3.38.16-.36.07-.82.09-1.24,0-.03-.05-.07-.07-.1-2.12-2.59-1.14-2.5-4.42-1.36-1.92.67-3.82,1.38-5.92,2.13,1.27,1.55,2.41,2.92,3.53,4.32,1.48,1.84,1.55,3.67.26,5.66-.78,1.2-1.96,1.64-3.17,1.2-1.28-.47-1.95-1.62-1.75-3.03.22-1.53,1.09-2.6,2.55-3.26ZM149.01,41.9c-.12.03-.25.07-.37.1-.42-.77-.87-1.03-1.64-.38-1.18.99-1.47,1.65-.87,2.39.71.9,2.79,1.4,3.12.62.32-.74-.13-1.81-.24-2.74ZM135.87,47.31c1.02,1.67,2.12,2.27,3.18,1.92.31-.1.73-.5.74-.78.01-.39-.28-1.1-.51-1.13-1.03-.11-2.08-.03-3.41-.01Z"/>
      <path d="M108.98,95.66c-1.39-1.7-2.74-3.34-4.08-4.99-.76-.93-.55-1.74.56-2.17,2.01-.78,4.03-1.55,6.03-2.34.62-.24,1.06-.15,1.47.4,1.38,1.84,2.79,3.65,4.2,5.47,1.08,1.39,1.13,2.98.12,4.32-.51.68-1.43.95-2.2.64-.77-.31-1.34-1.18-1.09-1.99.26-.82.78-1.55,1.13-2.34.11-.25.05-.57.06-.86,0-.02-.03-.05-.05-.07-1.47-1.79-.79-1.73-3.06-.94-1.33.46-2.65.95-4.1,1.48.88,1.07,1.67,2.03,2.45,2.99,1.02,1.27,1.08,2.54.18,3.92-.54.83-1.36,1.14-2.19.83-.88-.33-1.35-1.13-1.21-2.1.15-1.06.76-1.8,1.77-2.26ZM116.89,93.51c-.09.02-.17.05-.26.07-.29-.53-.6-.72-1.14-.27-.81.69-1.02,1.14-.61,1.66.5.62,1.93.97,2.16.43.22-.51-.09-1.25-.17-1.89ZM107.79,97.26c.7,1.16,1.47,1.57,2.2,1.33.22-.07.51-.35.51-.54,0-.27-.2-.76-.35-.78-.71-.08-1.44-.02-2.36,0Z"/>
      <path d="M114.68,71.52c-.86-2.86-1.77-5.88-2.67-8.89-.16-.54-.3-1.09-.46-1.64-.39-1.34-.2-1.68,1.27-2.14.44,1.33,1.56,1.84,2.78,2.13,1.27.3,2.6.37,3.85.73,1.06.31,2.06.84,3.03,1.39.51.29.68.84.04,1.27-.46.3-.78.79-1.51.12-.76-.7-1.82-1.2-2.83-1.49-1.35-.39-2.77-.49-4.17-.72-.08,1.13.35,1.81,1.53,2.12.95.24,1.95.33,2.93.49.31.05.63.11.94.19.68.18,1.59.3,1.51,1.18-.04.52-.68,1-1.16,1.63-1.16-2.16-3.08-1.63-4.91-2.1.36,1.14.71,2.08.96,3.05.41,1.57.9,3.14,1.08,4.74.23,2.09-1.3,3.48-3.32,3.25-.9-.1-1.64-.51-1.99-1.38-.37-.92-.13-1.81.61-2.41.71-.58,1.58-.97,2.49-1.51ZM115.27,75.55c.17-2.02-.17-2.4-2.06-2.38-.29,1.4.38,2.21,2.06,2.38Z"/>
      <path d="M93.12,98.05c1.16.63,1.72.45,1.91-.77.14-.89.03-1.82.03-2.69-.72.06-1.37.23-1.98.14-2.33-.36-3.24-2.7-1.82-4.56.16-.21.29-.45.5-.59,1.04-.72,1.14-1.63.77-2.78-.34-1.05-.31-2.17.03-3.25.23-.75.72-1.27,1.46-1.54.72-.27,1.27-.01,1.42.74.36,1.69.23,3.32-1.02,4.66-.38.41-.45.78-.22,1.26.1.21.11.48.24.66.14.2.35.42.57.47,1.83.42,2.47,2.19,1.32,3.68-.16.2-.19.53-.2.8-.04.85.07,1.73-.1,2.56-.33,1.55-1.83,2.44-3.34,2.12-.92-.19-1.53-.93-1.42-1.72.11-.78,1.12-1.64,1.9-1.54.28.04.68.26.74.48.1.35.05.8-.09,1.14-.11.27-.44.45-.71.71ZM94.25,92.76c-.78.7-1.45.68-1.93-.03-.36-.53-.35-1.21.09-1.74.29-.34.64-.62,1.01-.97-.12-.33-.25-.69-.39-1.08-1.38,1.23-1.77,2.37-1.21,3.43.65,1.22,2.02,2.06,3.12,1.64-.44-1.17-.87-2.33-1.33-3.55-.83.84-.57,1.67.65,2.3ZM93.79,87.22c1.04-1.23,1.01-4.09-.06-4.54-.58,1.52-.39,3,.06,4.54ZM95.33,91.06c-.07.03-.14.06-.21.08.21.53.42,1.07.62,1.6.08-.03.15-.06.23-.09-.21-.53-.43-1.06-.64-1.6Z"/>
      <path d="M154.19,27c1.74,1.49,2.76,1.38,3.53-.62.56-1.46.7-3.09,1.01-4.58-1.25-.16-2.42-.09-3.42-.47-3.83-1.44-4.54-5.76-1.46-8.4.34-.29.66-.66,1.06-.83,2.03-.85,2.52-2.36,2.3-4.45-.2-1.91.25-3.8,1.21-5.52.66-1.19,1.69-1.9,3.03-2.09,1.32-.19,2.16.43,2.16,1.77,0,3.01-.79,5.74-3.41,7.56-.8.56-1.05,1.16-.83,2.06.1.4.02.85.17,1.21.17.39.45.85.81,1.01,2.97,1.37,3.42,4.62.93,6.73-.34.29-.51.84-.63,1.3-.38,1.44-.5,2.98-1.09,4.31-1.12,2.52-3.98,3.49-6.44,2.42-1.49-.65-2.27-2.13-1.81-3.43.46-1.28,2.49-2.39,3.79-1.94.46.16,1.06.69,1.09,1.09.05.63-.2,1.37-.56,1.92-.28.42-.91.61-1.46.96ZM158.02,18.41c-1.58.92-2.71.64-3.28-.74-.42-1.04-.17-2.19.78-2.93.61-.48,1.32-.83,2.06-1.29-.09-.6-.18-1.26-.28-1.98-2.8,1.59-3.87,3.4-3.29,5.4.67,2.32,2.71,4.23,4.72,3.9-.33-2.14-.65-4.28-.99-6.51-1.72,1.13-1.57,2.64.28,4.15ZM159.2,8.81c2.22-1.72,3.19-6.6,1.53-7.74-1.54,2.37-1.74,4.97-1.53,7.74ZM160.46,15.91c-.13.02-.26.05-.38.07.16.98.33,1.97.49,2.95.14-.02.28-.05.42-.07-.17-.98-.35-1.96-.52-2.95Z"/>
      <path d="M81.19,90.83c.49,1.2,1.38,1.83,2.57,2.22,1.24.42,2.03,2.54,1.43,3.71-.15.3-.59.45-.97.71-.4-3.2-.76-3.74-2.63-4.04.02.36.06.72.05,1.07-.05,1.98-.08,3.95-.2,5.92-.06.96-.76,1.69-1.61,1.87-.96.21-1.67-.22-2.26-.91-.4-.47-.37-.96.04-1.42.57-.63,1.28-.98,2.14-1,.23,0,.47,0,.88,0-.09-1.78-.16-3.54-.27-5.29-.03-.45-.12-.9-.2-1.34-.17-1.01-.1-1.11,1.02-1.51ZM80.04,101.81c.54-1.51.28-1.94-.97-2.1-.55-.07-.83.25-.51.69.37.51.91.89,1.48,1.41Z"/>
      <path d="M157.12,38.95c1.63,1.92,3.67,2.52,6.09,2.53,2.55.01,5.29,3.45,4.91,5.97-.1.64-.82,1.18-1.35,1.9-2.7-5.64-3.69-6.42-7.32-5.83.26.66.56,1.28.75,1.93,1.11,3.67,2.26,7.34,3.25,11.04.48,1.81-.36,3.57-1.83,4.44-1.63.97-3.21.61-4.72-.3-1.03-.62-1.28-1.55-.8-2.64.67-1.51,1.75-2.59,3.33-3.15.43-.15.86-.29,1.62-.54-1.25-3.23-2.47-6.42-3.72-9.59-.32-.81-.77-1.58-1.18-2.36-.92-1.76-.87-1.99.96-3.4ZM161.71,59.9c.06-3.11-.67-3.76-3.08-3.28-1.06.21-1.38.97-.52,1.58.99.71,2.23,1.07,3.6,1.7Z"/>
    </g>
  </g>
</svg>