<?xml version="1.0" encoding="UTF-8"?>
<svg id="_Слой_2" data-name="Слой_2" xmlns="http://www.w3.org/2000/svg" xmlns:xlink="http://www.w3.org/1999/xlink" viewBox="0 0 104.38 128.2">
  <defs>
    <style>
      .cls-1 {
        fill: url(#linear-gradient-15);
      }

      .cls-2 {
        fill: url(#linear-gradient-13);
      }

      .cls-3 {
        fill: url(#linear-gradient-28);
      }

      .cls-4 {
        clip-path: url(#clippath-6);
      }

      .cls-5 {
        clip-path: url(#clippath-7);
      }

      .cls-6 {
        fill: url(#linear-gradient-42);
      }

      .cls-7 {
        fill: url(#linear-gradient-46);
      }

      .cls-8 {
        fill: url(#Steel_Radial);
      }

      .cls-9 {
        fill: url(#Steel_Radial-13);
      }

      .cls-10 {
        fill: url(#Steel_Radial-44);
      }

      .cls-11 {
        fill: url(#Steel_Radial-24);
      }

      .cls-12 {
        clip-path: url(#clippath-4);
      }

      .cls-13 {
        fill: url(#linear-gradient-2);
      }

      .cls-14 {
        fill: url(#Steel_Radial-42);
      }

      .cls-15 {
        fill: url(#linear-gradient-43);
      }

      .cls-16 {
        fill: url(#linear-gradient-25);
      }

      .cls-17 {
        fill: url(#Steel_Radial-30);
      }

      .cls-18 {
        fill: url(#linear-gradient-10);
      }

      .cls-19 {
        fill: url(#linear-gradient-12);
      }

      .cls-20 {
        fill: url(#linear-gradient-40);
      }

      .cls-21 {
        fill: url(#linear-gradient-27);
      }

      .cls-22 {
        fill: url(#Steel_Radial-27);
      }

      .cls-23 {
        fill: url(#linear-gradient-37);
      }

      .cls-24 {
        fill: url(#Steel_Radial-12);
      }

      .cls-25 {
        fill: url(#Steel_Radial-26);
      }

      .cls-26, .cls-27 {
        fill: #fff;
      }

      .cls-28 {
        fill: url(#linear-gradient-39);
      }

      .cls-29 {
        fill: url(#Steel_Radial-34);
      }

      .cls-30 {
        fill: url(#Steel_Radial-6);
      }

      .cls-31 {
        fill: url(#Steel_Radial-31);
      }

      .cls-32 {
        fill: url(#Steel_Radial-17);
      }

      .cls-33 {
        fill: url(#Steel_Radial-36);
      }

      .cls-34 {
        fill: #be0033;
      }

      .cls-35 {
        fill: url(#Steel_Radial-39);
      }

      .cls-36 {
        fill: url(#linear-gradient-47);
      }

      .cls-37 {
        fill: url(#linear-gradient-26);
      }

      .cls-38 {
        fill: none;
      }

      .cls-39 {
        fill: url(#linear-gradient-4);
      }

      .cls-40 {
        fill: url(#linear-gradient-35);
      }

      .cls-41 {
        fill: url(#Steel_Radial-8);
      }

      .cls-42 {
        fill: url(#linear-gradient-30);
      }

      .cls-43 {
        fill: url(#Steel_Radial-33);
      }

      .cls-44 {
        fill: url(#Steel_Radial-35);
      }

      .cls-45 {
        fill: url(#radial-gradient);
      }

      .cls-46 {
        fill: url(#radial-gradient-3);
      }

      .cls-47 {
        fill: url(#Steel_Radial-16);
      }

      .cls-48 {
        fill: url(#Steel_Radial-11);
      }

      .cls-49 {
        fill: url(#linear-gradient-44);
      }

      .cls-50 {
        fill: url(#linear-gradient-3);
      }

      .cls-51 {
        fill: url(#linear-gradient-34);
      }

      .cls-52 {
        clip-path: url(#clippath-1);
      }

      .cls-53 {
        fill: url(#linear-gradient-5);
      }

      .cls-54 {
        fill: url(#Steel_Radial-4);
      }

      .cls-55 {
        fill: url(#linear-gradient-38);
      }

      .cls-56 {
        fill: url(#linear-gradient-22);
      }

      .cls-57 {
        fill: url(#linear-gradient-24);
      }

      .cls-58 {
        fill: url(#Steel_Radial-46);
      }

      .cls-59 {
        fill: url(#Steel_Radial-22);
      }

      .cls-60 {
        fill: url(#Steel_Radial-29);
      }

      .cls-61 {
        clip-path: url(#clippath-5);
      }

      .cls-62 {
        fill: url(#linear-gradient-33);
      }

      .cls-63 {
        clip-path: url(#clippath-8);
      }

      .cls-64 {
        fill: url(#linear-gradient-8);
      }

      .cls-65 {
        fill: url(#Steel_Radial-37);
      }

      .cls-66 {
        fill: url(#Steel_Radial-9);
      }

      .cls-67 {
        fill: url(#Steel_Radial-25);
      }

      .cls-68 {
        fill: url(#Steel_Radial-48);
      }

      .cls-69 {
        fill: #da0033;
      }

      .cls-70 {
        clip-path: url(#clippath-3);
      }

      .cls-71 {
        fill: url(#Steel_Radial-7);
      }

      .cls-72 {
        fill: url(#Steel_Radial-20);
      }

      .cls-73 {
        fill: url(#Steel_Radial-23);
      }

      .cls-74 {
        fill: url(#radial-gradient-2);
      }

      .cls-75 {
        fill: url(#Steel_Radial-21);
      }

      .cls-76 {
        fill: url(#linear-gradient-14);
      }

      .cls-77 {
        fill: url(#linear-gradient-29);
      }

      .cls-78 {
        fill: url(#Steel_Radial-32);
      }

      .cls-79 {
        fill: url(#linear-gradient-20);
      }

      .cls-80 {
        fill: url(#Steel_Radial-43);
      }

      .cls-81 {
        fill: url(#linear-gradient-17);
      }

      .cls-82 {
        fill: url(#linear-gradient-7);
      }

      .cls-83 {
        fill: url(#linear-gradient-9);
      }

      .cls-84 {
        fill: url(#linear-gradient-11);
      }

      .cls-85 {
        fill: url(#Steel_Radial-10);
      }

      .cls-86 {
        fill: url(#linear-gradient-19);
      }

      .cls-87 {
        fill: url(#linear-gradient-6);
      }

      .cls-88 {
        fill: url(#Steel_Radial-38);
      }

      .cls-89 {
        fill: url(#Steel_Radial-19);
      }

      .cls-90 {
        fill: url(#Steel_Radial-14);
      }

      .cls-91 {
        fill: #b99a6f;
      }

      .cls-92 {
        fill: url(#Steel_Radial-3);
      }

      .cls-93 {
        fill: url(#Steel_Radial-45);
      }

      .cls-94 {
        fill: url(#linear-gradient-36);
      }

      .cls-95 {
        fill: url(#linear-gradient-21);
      }

      .cls-96 {
        fill: url(#linear-gradient-45);
      }

      .cls-97 {
        fill: #a52b31;
      }

      .cls-98 {
        fill: url(#Steel_Radial-40);
      }

      .cls-99 {
        clip-path: url(#clippath-2);
      }

      .cls-100 {
        fill: url(#Steel_Radial-47);
      }

      .cls-101 {
        fill: url(#Steel_Radial-2);
      }

      .cls-102 {
        fill: url(#linear-gradient-48);
      }

      .cls-103 {
        fill: url(#Steel_Radial-15);
      }

      .cls-104 {
        fill: url(#linear-gradient-32);
      }

      .cls-105 {
        fill: url(#linear-gradient-41);
      }

      .cls-27 {
        opacity: .7;
      }

      .cls-106 {
        fill: url(#Steel_Radial-5);
      }

      .cls-107 {
        fill: url(#linear-gradient-16);
      }

      .cls-108 {
        fill: #80623e;
      }

      .cls-109 {
        fill: url(#linear-gradient);
      }

      .cls-110 {
        fill: url(#Steel_Radial-28);
      }

      .cls-111 {
        fill: url(#Steel_Radial-18);
      }

      .cls-112 {
        fill: url(#linear-gradient-23);
      }

      .cls-113 {
        fill: url(#linear-gradient-31);
      }

      .cls-114 {
        fill: url(#Steel_Radial-41);
      }

      .cls-115 {
        clip-path: url(#clippath);
      }

      .cls-116 {
        fill: url(#linear-gradient-18);
      }
    </style>
    <clipPath id="clippath">
      <path class="cls-38" d="M8.4,78.47s3.85-2.72,6.28-4.35c2.42-1.62,4.4-4.68,6.4-4.1,2,.57,1.26,4.89-2.24,7.91-3.41,2.94-6.72,4.86-5.06,8.39,1.66,3.54,2.34,5.26,2.76,6.95.42,1.69,6,16.55,14.32,24,8.31,7.44,25.66,20.45,56.43-.23,30.77-20.68,12.07-58.6,4.78-79.59C84.76,16.47,54.43-11.18,17.13,4.72-.14,12.09-6.62,52.41,8.4,78.47Z"/>
    </clipPath>
    <radialGradient id="Steel_Radial" data-name="Steel Radial" cx="-6026.36" cy="3473.88" fx="-6026.36" fy="3473.88" r="22.33" gradientTransform="translate(-2957.04 5759.19) rotate(155.92) scale(.84 1.16)" gradientUnits="userSpaceOnUse">
      <stop offset="0" stop-color="#ece9e7"/>
      <stop offset="0" stop-color="#f7f6f5"/>
      <stop offset="0" stop-color="#fff"/>
      <stop offset=".14" stop-color="#f0f0f0"/>
      <stop offset=".41" stop-color="#c9c9c9"/>
      <stop offset=".52" stop-color="#b8b8b8"/>
      <stop offset=".6" stop-color="#aeaeae"/>
      <stop offset=".74" stop-color="#949596"/>
      <stop offset=".91" stop-color="#696d6e"/>
      <stop offset="1" stop-color="#4f5455"/>
    </radialGradient>
    <linearGradient id="linear-gradient" x1="-6030.22" y1="3467.11" x2="-6017.18" y2="3478.33" gradientTransform="translate(-2957.04 5759.19) rotate(155.92) scale(.84 1.16)" gradientUnits="userSpaceOnUse">
      <stop offset="0" stop-color="#ece9e7"/>
      <stop offset="0" stop-color="#f7f6f5"/>
      <stop offset="0" stop-color="#fff"/>
      <stop offset=".14" stop-color="#f0f0f0"/>
      <stop offset=".41" stop-color="#c9c9c9"/>
      <stop offset=".52" stop-color="#b8b8b8"/>
      <stop offset=".6" stop-color="#aeaeae"/>
      <stop offset=".74" stop-color="#949596"/>
      <stop offset=".91" stop-color="#696d6e"/>
      <stop offset="1" stop-color="#4f5455"/>
    </linearGradient>
    <radialGradient id="Steel_Radial-2" data-name="Steel Radial" cx="-6004.3" cy="3498.32" fx="-6004.3" fy="3498.32" r="44.86" xlink:href="#Steel_Radial"/>
    <linearGradient id="linear-gradient-2" x1="-6017.14" y1="3469.23" x2="-6012.66" y2="3485.18" xlink:href="#linear-gradient"/>
    <radialGradient id="Steel_Radial-3" data-name="Steel Radial" cx="-6024.53" cy="3474.11" fx="-6024.53" fy="3474.11" r="22.34" xlink:href="#Steel_Radial"/>
    <linearGradient id="linear-gradient-3" x1="-6016.07" y1="3465.02" x2="-6011.33" y2="3490.44" xlink:href="#linear-gradient"/>
    <radialGradient id="Steel_Radial-4" data-name="Steel Radial" cx="-6002.46" cy="3498.57" fx="-6002.46" fy="3498.57" r="44.88" xlink:href="#Steel_Radial"/>
    <linearGradient id="linear-gradient-4" x1="-6015.3" y1="3469.47" x2="-6010.82" y2="3485.42" xlink:href="#linear-gradient"/>
    <radialGradient id="Steel_Radial-5" data-name="Steel Radial" cx="-6045.39" cy="3415.93" fx="-6045.39" fy="3415.93" r="22.33" gradientTransform="translate(-2870 5775) rotate(154.59) scale(.84 1.16)" xlink:href="#Steel_Radial"/>
    <linearGradient id="linear-gradient-5" x1="-6049.24" y1="3409.16" x2="-6036.2" y2="3420.37" gradientTransform="translate(-2870 5775) rotate(154.59) scale(.84 1.16)" xlink:href="#linear-gradient"/>
    <radialGradient id="Steel_Radial-6" data-name="Steel Radial" cx="-6023.32" cy="3440.37" fx="-6023.32" fy="3440.37" r="44.86" gradientTransform="translate(-2870 5775) rotate(154.59) scale(.84 1.16)" xlink:href="#Steel_Radial"/>
    <linearGradient id="linear-gradient-6" x1="-6036.16" y1="3411.28" x2="-6031.68" y2="3427.23" gradientTransform="translate(-2870 5775) rotate(154.59) scale(.84 1.16)" xlink:href="#linear-gradient"/>
    <radialGradient id="Steel_Radial-7" data-name="Steel Radial" cx="-6043.55" cy="3416.16" fx="-6043.55" fy="3416.16" r="22.34" gradientTransform="translate(-2870 5775) rotate(154.59) scale(.84 1.16)" xlink:href="#Steel_Radial"/>
    <linearGradient id="linear-gradient-7" x1="-6035.09" y1="3407.08" x2="-6030.35" y2="3432.49" gradientTransform="translate(-2870 5775) rotate(154.59) scale(.84 1.16)" xlink:href="#linear-gradient"/>
    <radialGradient id="Steel_Radial-8" data-name="Steel Radial" cx="-6021.48" cy="3440.61" fx="-6021.48" fy="3440.61" r="44.86" gradientTransform="translate(-2870 5775) rotate(154.59) scale(.84 1.16)" xlink:href="#Steel_Radial"/>
    <linearGradient id="linear-gradient-8" x1="-6034.33" y1="3411.52" x2="-6029.84" y2="3427.47" gradientTransform="translate(-2870 5775) rotate(154.59) scale(.84 1.16)" xlink:href="#linear-gradient"/>
    <radialGradient id="Steel_Radial-9" data-name="Steel Radial" cx="-6010.45" cy="3389.41" fx="-6010.45" fy="3389.41" r="22.34" xlink:href="#Steel_Radial"/>
    <linearGradient id="linear-gradient-9" x1="-6014.3" y1="3382.65" x2="-6001.26" y2="3393.86" xlink:href="#linear-gradient"/>
    <radialGradient id="Steel_Radial-10" data-name="Steel Radial" cx="-5988.38" cy="3413.86" fx="-5988.38" fy="3413.86" r="44.86" xlink:href="#Steel_Radial"/>
    <linearGradient id="linear-gradient-10" x1="-6001.22" y1="3384.77" x2="-5996.74" y2="3400.72" xlink:href="#linear-gradient"/>
    <radialGradient id="Steel_Radial-11" data-name="Steel Radial" cx="-6008.61" cy="3389.65" fx="-6008.61" fy="3389.65" r="22.34" xlink:href="#Steel_Radial"/>
    <linearGradient id="linear-gradient-11" x1="-6000.15" y1="3380.56" x2="-5995.42" y2="3405.98" xlink:href="#linear-gradient"/>
    <radialGradient id="Steel_Radial-12" data-name="Steel Radial" cx="-5986.54" cy="3414.1" fx="-5986.54" fy="3414.1" r="44.87" xlink:href="#Steel_Radial"/>
    <linearGradient id="linear-gradient-12" x1="-5999.39" y1="3385.01" x2="-5994.9" y2="3400.95" xlink:href="#linear-gradient"/>
    <radialGradient id="Steel_Radial-13" data-name="Steel Radial" cx="-6028.05" cy="3330.85" fx="-6028.05" fy="3330.85" r="22.33" gradientTransform="translate(-2870 5775) rotate(154.59) scale(.84 1.16)" xlink:href="#Steel_Radial"/>
    <linearGradient id="linear-gradient-13" x1="-6031.89" y1="3324.09" x2="-6018.86" y2="3335.3" gradientTransform="translate(-2870 5775) rotate(154.59) scale(.84 1.16)" xlink:href="#linear-gradient"/>
    <radialGradient id="Steel_Radial-14" data-name="Steel Radial" cx="-6005.98" cy="3355.29" fx="-6005.98" fy="3355.29" r="44.85" gradientTransform="translate(-2870 5775) rotate(154.59) scale(.84 1.16)" xlink:href="#Steel_Radial"/>
    <linearGradient id="linear-gradient-14" x1="-6018.82" y1="3326.21" x2="-6014.34" y2="3342.15" gradientTransform="translate(-2870 5775) rotate(154.59) scale(.84 1.16)" xlink:href="#linear-gradient"/>
    <radialGradient id="Steel_Radial-15" data-name="Steel Radial" cx="-6026.2" cy="3331.09" fx="-6026.2" fy="3331.09" r="22.34" gradientTransform="translate(-2870 5775) rotate(154.59) scale(.84 1.16)" xlink:href="#Steel_Radial"/>
    <linearGradient id="linear-gradient-15" x1="-6017.75" y1="3322" x2="-6013.02" y2="3347.41" gradientTransform="translate(-2870 5775) rotate(154.59) scale(.84 1.16)" xlink:href="#linear-gradient"/>
    <radialGradient id="Steel_Radial-16" data-name="Steel Radial" cx="-6004.14" cy="3355.54" fx="-6004.14" fy="3355.54" r="44.87" gradientTransform="translate(-2870 5775) rotate(154.59) scale(.84 1.16)" xlink:href="#Steel_Radial"/>
    <linearGradient id="linear-gradient-16" x1="-6016.98" y1="3326.44" x2="-6012.5" y2="3342.39" gradientTransform="translate(-2870 5775) rotate(154.59) scale(.84 1.16)" xlink:href="#linear-gradient"/>
    <radialGradient id="radial-gradient" cx="-5641.47" cy="2830.68" fx="-5641.47" fy="2830.68" r="69.4" gradientTransform="translate(-2677.22 5738.04) rotate(142.9)" gradientUnits="userSpaceOnUse">
      <stop offset="0" stop-color="#f5e1c5"/>
      <stop offset=".22" stop-color="#eed6b4"/>
      <stop offset=".64" stop-color="#e0bb8c"/>
      <stop offset=".74" stop-color="#ddb181"/>
      <stop offset=".91" stop-color="#d89963"/>
      <stop offset=".92" stop-color="#d89862"/>
    </radialGradient>
    <radialGradient id="radial-gradient-2" cx="-5620.21" cy="2883.5" fx="-5620.21" fy="2883.5" r="101.18" xlink:href="#radial-gradient"/>
    <radialGradient id="radial-gradient-3" cx="-5556.09" cy="2888.15" fx="-5556.09" fy="2888.15" r="81.49" gradientTransform="translate(-2677.22 5738.04) rotate(142.9)" gradientUnits="userSpaceOnUse">
      <stop offset="0" stop-color="#e8cc98"/>
      <stop offset=".05" stop-color="#e8cd9b"/>
      <stop offset=".58" stop-color="#f2debf"/>
      <stop offset=".86" stop-color="#f6e5cd"/>
    </radialGradient>
    <clipPath id="clippath-1">
      <path class="cls-38" d="M74.41,109.12c3.6,4.22,12.57,3.4,15.84-1.99,2.77-4.55-2.65-11.57-4.42-13.66.02-.06.04-.12.07-.19.06-.2.12-.41.18-.63-.11-.32-.31-.58-.64-.71-.71-.27-1.44-.22-1.96.4-.13.16-.26.33-.37.5-.74,2.38-1.59,4.51-2.45,6.44l-6.24,9.84Z"/>
    </clipPath>
    <radialGradient id="Steel_Radial-17" data-name="Steel Radial" cx="-6035.23" cy="3389.82" fx="-6035.23" fy="3389.82" r="22.34" xlink:href="#Steel_Radial"/>
    <linearGradient id="linear-gradient-17" x1="-6039.08" y1="3383.05" x2="-6026.04" y2="3394.26" xlink:href="#linear-gradient"/>
    <radialGradient id="Steel_Radial-18" data-name="Steel Radial" cx="-6013.17" cy="3414.26" fx="-6013.17" fy="3414.26" r="44.86" xlink:href="#Steel_Radial"/>
    <linearGradient id="linear-gradient-18" x1="-6026.01" y1="3385.17" x2="-6021.52" y2="3401.12" xlink:href="#linear-gradient"/>
    <radialGradient id="Steel_Radial-19" data-name="Steel Radial" cx="-6033.4" cy="3390.05" fx="-6033.4" fy="3390.05" r="22.34" xlink:href="#Steel_Radial"/>
    <linearGradient id="linear-gradient-19" x1="-6024.93" y1="3380.97" x2="-6020.2" y2="3406.38" xlink:href="#linear-gradient"/>
    <radialGradient id="Steel_Radial-20" data-name="Steel Radial" cx="-6011.32" cy="3414.5" fx="-6011.32" fy="3414.5" r="44.87" xlink:href="#Steel_Radial"/>
    <linearGradient id="linear-gradient-20" x1="-6024.17" y1="3385.41" x2="-6019.69" y2="3401.35" xlink:href="#linear-gradient"/>
    <clipPath id="clippath-2">
      <path class="cls-38" d="M71.19,109.04v.03c5.15,6.09,15.07.66,14.38-6.86-.6-6.47-4.47-9.13-5.55-9.75-.1-.49-.37-.85-.92-.87-.88-.04-1.4.63-1.79,1.42-1.87,6.91-4.65,12.09-6.7,15.28.05.36.24.63.57.75Z"/>
    </clipPath>
    <radialGradient id="Steel_Radial-21" data-name="Steel Radial" cx="-6052.29" cy="3332.8" fx="-6052.29" fy="3332.8" r="21.2" gradientTransform="translate(-2870 5775) rotate(154.59) scale(.84 1.16)" xlink:href="#Steel_Radial"/>
    <linearGradient id="linear-gradient-21" x1="-6055.94" y1="3326.39" x2="-6043.57" y2="3337.03" gradientTransform="translate(-2870 5775) rotate(154.59) scale(.84 1.16)" xlink:href="#linear-gradient"/>
    <radialGradient id="Steel_Radial-22" data-name="Steel Radial" cx="-6031.35" cy="3356" fx="-6031.35" fy="3356" r="42.57" gradientTransform="translate(-2870 5775) rotate(154.59) scale(.84 1.16)" xlink:href="#Steel_Radial"/>
    <linearGradient id="linear-gradient-22" x1="-6043.53" y1="3328.4" x2="-6039.28" y2="3343.52" gradientTransform="translate(-2870 5775) rotate(154.59) scale(.84 1.16)" xlink:href="#linear-gradient"/>
    <radialGradient id="Steel_Radial-23" data-name="Steel Radial" cx="-6050.55" cy="3333.03" fx="-6050.55" fy="3333.03" r="21.2" gradientTransform="translate(-2870 5775) rotate(154.59) scale(.84 1.16)" xlink:href="#Steel_Radial"/>
    <linearGradient id="linear-gradient-23" x1="-6042.52" y1="3324.41" x2="-6038.03" y2="3348.52" gradientTransform="translate(-2870 5775) rotate(154.59) scale(.84 1.16)" xlink:href="#linear-gradient"/>
    <radialGradient id="Steel_Radial-24" data-name="Steel Radial" cx="-6029.61" cy="3356.23" fx="-6029.61" fy="3356.23" r="42.58" gradientTransform="translate(-2870 5775) rotate(154.59) scale(.84 1.16)" xlink:href="#Steel_Radial"/>
    <linearGradient id="linear-gradient-24" x1="-6041.79" y1="3328.62" x2="-6037.53" y2="3343.75" gradientTransform="translate(-2870 5775) rotate(154.59) scale(.84 1.16)" xlink:href="#linear-gradient"/>
    <clipPath id="clippath-3">
      <path class="cls-38" d="M86.92,86.55c.25-.16.47-.33.67-.53,1.16.18,2.9,0,4.09-2.17,1.8-3.32,2.82-12.68-4.6-16.74-.03-.13-.04-.26-.07-.39-.07-.17-.14-.35-.23-.5-.33-.62-1.06-1.75-1.91-1.65-.53.05-.76.66-.85,1.35,1.51,6.9,1.78,13.22,1.31,18.86.13.1.24.27.25.52.03.87.3,1.94,1.35,1.27Z"/>
    </clipPath>
    <radialGradient id="Steel_Radial-25" data-name="Steel Radial" cx="-6051.09" cy="3408.22" fx="-6051.09" fy="3408.22" r="22.34" xlink:href="#Steel_Radial"/>
    <linearGradient id="linear-gradient-25" x1="-6054.94" y1="3401.45" x2="-6041.9" y2="3412.66" xlink:href="#linear-gradient"/>
    <radialGradient id="Steel_Radial-26" data-name="Steel Radial" cx="-6029.02" cy="3432.66" fx="-6029.02" fy="3432.66" r="44.87" xlink:href="#Steel_Radial"/>
    <linearGradient id="linear-gradient-26" x1="-6041.87" y1="3403.57" x2="-6037.38" y2="3419.52" xlink:href="#linear-gradient"/>
    <radialGradient id="Steel_Radial-27" data-name="Steel Radial" cx="-6049.25" cy="3408.46" fx="-6049.25" fy="3408.46" r="22.34" xlink:href="#Steel_Radial"/>
    <linearGradient id="linear-gradient-27" x1="-6040.79" y1="3399.37" x2="-6036.06" y2="3424.78" xlink:href="#linear-gradient"/>
    <radialGradient id="Steel_Radial-28" data-name="Steel Radial" cx="-6027.19" cy="3432.9" fx="-6027.19" fy="3432.9" r="44.86" xlink:href="#Steel_Radial"/>
    <linearGradient id="linear-gradient-28" x1="-6040.03" y1="3403.81" x2="-6035.54" y2="3419.76" xlink:href="#linear-gradient"/>
    <clipPath id="clippath-4">
      <path class="cls-38" d="M80.73,88.34c.26-.11.48-.26.68-.45,1.13.11,2.9-.1,4.51-1.91,2.52-2.83,1.93-14.26-5.73-18.5-.01-.03-.02-.06-.03-.09-.26-.58-1.21-2.09-2.08-1.74-.53.21-.7.99-.72,1.78,1.83,7.61,2.21,14.53,1.76,20.66.39.38.93.55,1.61.25Z"/>
    </clipPath>
    <radialGradient id="Steel_Radial-29" data-name="Steel Radial" cx="-6066.06" cy="3350.38" fx="-6066.06" fy="3350.38" r="22.34" gradientTransform="translate(-2870 5775) rotate(154.59) scale(.84 1.16)" xlink:href="#Steel_Radial"/>
    <linearGradient id="linear-gradient-29" x1="-6069.91" y1="3343.61" x2="-6056.87" y2="3354.83" gradientTransform="translate(-2870 5775) rotate(154.59) scale(.84 1.16)" xlink:href="#linear-gradient"/>
    <radialGradient id="Steel_Radial-30" data-name="Steel Radial" cx="-6043.99" cy="3374.82" fx="-6043.99" fy="3374.82" r="44.86" gradientTransform="translate(-2870 5775) rotate(154.59) scale(.84 1.16)" xlink:href="#Steel_Radial"/>
    <linearGradient id="linear-gradient-30" x1="-6056.83" y1="3345.73" x2="-6052.35" y2="3361.68" gradientTransform="translate(-2870 5775) rotate(154.59) scale(.84 1.16)" xlink:href="#linear-gradient"/>
    <radialGradient id="Steel_Radial-31" data-name="Steel Radial" cx="-6064.22" cy="3350.62" fx="-6064.22" fy="3350.62" r="22.34" gradientTransform="translate(-2870 5775) rotate(154.59) scale(.84 1.16)" xlink:href="#Steel_Radial"/>
    <linearGradient id="linear-gradient-31" x1="-6055.76" y1="3341.53" x2="-6051.02" y2="3366.94" gradientTransform="translate(-2870 5775) rotate(154.59) scale(.84 1.16)" xlink:href="#linear-gradient"/>
    <radialGradient id="Steel_Radial-32" data-name="Steel Radial" cx="-6042.16" cy="3375.07" fx="-6042.16" fy="3375.07" r="44.87" gradientTransform="translate(-2870 5775) rotate(154.59) scale(.84 1.16)" xlink:href="#Steel_Radial"/>
    <linearGradient id="linear-gradient-32" x1="-6055" y1="3345.97" x2="-6050.51" y2="3361.92" gradientTransform="translate(-2870 5775) rotate(154.59) scale(.84 1.16)" xlink:href="#linear-gradient"/>
    <clipPath id="clippath-5">
      <path class="cls-38" d="M82.97,54.66c.44-.15.67-.43.79-.77,1.18-.55,4.25-2.5,3.92-7.99-.4-6.78-7.65-15.38-13.94-13.09-.52-.14-1.31,0-1.42.63-.12.63.09,1.34.38,1.99,1.74,2.83,3.46,5.92,5.12,9.32,1.58,3.22,2.88,6.36,3.95,9.41.36.4.75.64,1.2.49Z"/>
    </clipPath>
    <radialGradient id="Steel_Radial-33" data-name="Steel Radial" cx="-6059.83" cy="3435.05" fx="-6059.83" fy="3435.05" r="22.34" xlink:href="#Steel_Radial"/>
    <linearGradient id="linear-gradient-33" x1="-6063.68" y1="3428.28" x2="-6050.64" y2="3439.5" xlink:href="#linear-gradient"/>
    <radialGradient id="Steel_Radial-34" data-name="Steel Radial" cx="-6037.76" cy="3459.49" fx="-6037.76" fy="3459.49" r="44.86" xlink:href="#Steel_Radial"/>
    <linearGradient id="linear-gradient-34" x1="-6050.6" y1="3430.4" x2="-6046.12" y2="3446.35" xlink:href="#linear-gradient"/>
    <radialGradient id="Steel_Radial-35" data-name="Steel Radial" cx="-6057.99" cy="3435.29" fx="-6057.99" fy="3435.29" r="22.34" xlink:href="#Steel_Radial"/>
    <linearGradient id="linear-gradient-35" x1="-6049.53" y1="3426.2" x2="-6044.79" y2="3451.61" xlink:href="#linear-gradient"/>
    <radialGradient id="Steel_Radial-36" data-name="Steel Radial" cx="-6035.92" cy="3459.73" fx="-6035.92" fy="3459.73" r="44.86" xlink:href="#Steel_Radial"/>
    <linearGradient id="linear-gradient-36" x1="-6048.77" y1="3430.64" x2="-6044.28" y2="3446.59" xlink:href="#linear-gradient"/>
    <clipPath id="clippath-6">
      <path class="cls-38" d="M77.27,56.09l.21.17s8.79-5.81,3.13-14.58c-5.21-8.08-9.22-8.42-13.38-6.14-.84-.38-1.87-.08-1.66,1.07.05.28.13.57.23.85,1.73,2.84,3.44,5.92,5.1,9.32,1.4,2.86,2.58,5.64,3.58,8.36.77.79,2.25,1.71,2.78.95Z"/>
    </clipPath>
    <radialGradient id="Steel_Radial-37" data-name="Steel Radial" cx="-6076.53" cy="3376.79" fx="-6076.53" fy="3376.79" r="22.33" gradientTransform="translate(-2870 5775) rotate(154.59) scale(.84 1.16)" xlink:href="#Steel_Radial"/>
    <linearGradient id="linear-gradient-37" x1="-6080.38" y1="3370.03" x2="-6067.34" y2="3381.24" gradientTransform="translate(-2870 5775) rotate(154.59) scale(.84 1.16)" xlink:href="#linear-gradient"/>
    <radialGradient id="Steel_Radial-38" data-name="Steel Radial" cx="-6054.46" cy="3401.24" fx="-6054.46" fy="3401.24" r="44.87" gradientTransform="translate(-2870 5775) rotate(154.59) scale(.84 1.16)" xlink:href="#Steel_Radial"/>
    <linearGradient id="linear-gradient-38" x1="-6067.3" y1="3372.15" x2="-6062.82" y2="3388.09" gradientTransform="translate(-2870 5775) rotate(154.59) scale(.84 1.16)" xlink:href="#linear-gradient"/>
    <radialGradient id="Steel_Radial-39" data-name="Steel Radial" cx="-6074.69" cy="3377.03" fx="-6074.69" fy="3377.03" r="22.34" gradientTransform="translate(-2870 5775) rotate(154.59) scale(.84 1.16)" xlink:href="#Steel_Radial"/>
    <linearGradient id="linear-gradient-39" x1="-6066.23" y1="3367.94" x2="-6061.5" y2="3393.36" gradientTransform="translate(-2870 5775) rotate(154.59) scale(.84 1.16)" xlink:href="#linear-gradient"/>
    <radialGradient id="Steel_Radial-40" data-name="Steel Radial" cx="-6052.63" cy="3401.47" fx="-6052.63" fy="3401.47" r="44.86" gradientTransform="translate(-2870 5775) rotate(154.59) scale(.84 1.16)" xlink:href="#Steel_Radial"/>
    <linearGradient id="linear-gradient-40" x1="-6065.46" y1="3372.38" x2="-6060.98" y2="3388.33" gradientTransform="translate(-2870 5775) rotate(154.59) scale(.84 1.16)" xlink:href="#linear-gradient"/>
    <clipPath id="clippath-7">
      <path class="cls-38" d="M49.73,11.34c4.56,2.96,10.34,7.74,16.24,15.09.31.19.64.33.99.43.8.21,1.82-.23,1.58-1.2-.06-.24-.16-.48-.27-.7,1.03-1.41,2.88-5.14-.99-10.83-4.84-7.11-11.65-9.05-16.63-4.82-.47.02-.91.14-1.26.45-.48.41-.29.91,0,1.36.12.08.22.14.34.22Z"/>
    </clipPath>
    <radialGradient id="Steel_Radial-41" data-name="Steel Radial" cx="-6051.85" cy="3461.42" fx="-6051.85" fy="3461.42" r="22.34" xlink:href="#Steel_Radial"/>
    <linearGradient id="linear-gradient-41" x1="-6055.7" y1="3454.66" x2="-6042.65" y2="3465.87" xlink:href="#linear-gradient"/>
    <radialGradient id="Steel_Radial-42" data-name="Steel Radial" cx="-6029.78" cy="3485.88" fx="-6029.78" fy="3485.88" r="44.88" xlink:href="#Steel_Radial"/>
    <linearGradient id="linear-gradient-42" x1="-6042.62" y1="3456.78" x2="-6038.13" y2="3472.73" xlink:href="#linear-gradient"/>
    <radialGradient id="Steel_Radial-43" data-name="Steel Radial" cx="-6050" cy="3461.67" fx="-6050" fy="3461.67" r="22.34" xlink:href="#Steel_Radial"/>
    <linearGradient id="linear-gradient-43" x1="-6041.54" y1="3452.58" x2="-6036.81" y2="3477.99" xlink:href="#linear-gradient"/>
    <radialGradient id="Steel_Radial-44" data-name="Steel Radial" cx="-6027.94" cy="3486.11" fx="-6027.94" fy="3486.11" r="44.86" xlink:href="#Steel_Radial"/>
    <linearGradient id="linear-gradient-44" x1="-6040.78" y1="3457.02" x2="-6036.3" y2="3472.97" xlink:href="#linear-gradient"/>
    <clipPath id="clippath-8">
      <path class="cls-38" d="M60.74,30.43c.23.11.46.2.71.23.79.1,1.76-.25,1.54-1.19-.07-.31-.14-.6-.17-.88-.14-.19-.28-.36-.43-.54.85-2.16,2.13-7.05-.84-12.11-4.21-7.16-11.26-9.28-16.55-3.99-.41-.1-.8-.11-1.11.11-.66.48-.76,1.17-.33,1.84,0,.01.01.02.02.03,4.77,3.08,10.9,8.23,17.15,16.49Z"/>
    </clipPath>
    <radialGradient id="Steel_Radial-45" data-name="Steel Radial" cx="-6069.39" cy="3403.3" fx="-6069.39" fy="3403.3" r="22.34" gradientTransform="translate(-2870 5775) rotate(154.59) scale(.84 1.16)" xlink:href="#Steel_Radial"/>
    <linearGradient id="linear-gradient-45" x1="-6073.24" y1="3396.53" x2="-6060.2" y2="3407.74" gradientTransform="translate(-2870 5775) rotate(154.59) scale(.84 1.16)" xlink:href="#linear-gradient"/>
    <radialGradient id="Steel_Radial-46" data-name="Steel Radial" cx="-6047.32" cy="3427.74" fx="-6047.32" fy="3427.74" r="44.86" gradientTransform="translate(-2870 5775) rotate(154.59) scale(.84 1.16)" xlink:href="#Steel_Radial"/>
    <linearGradient id="linear-gradient-46" x1="-6060.16" y1="3398.65" x2="-6055.68" y2="3414.6" gradientTransform="translate(-2870 5775) rotate(154.59) scale(.84 1.16)" xlink:href="#linear-gradient"/>
    <radialGradient id="Steel_Radial-47" data-name="Steel Radial" cx="-6067.55" cy="3403.54" fx="-6067.55" fy="3403.54" r="22.34" gradientTransform="translate(-2870 5775) rotate(154.59) scale(.84 1.16)" xlink:href="#Steel_Radial"/>
    <linearGradient id="linear-gradient-47" x1="-6059.09" y1="3394.45" x2="-6054.36" y2="3419.86" gradientTransform="translate(-2870 5775) rotate(154.59) scale(.84 1.16)" xlink:href="#linear-gradient"/>
    <radialGradient id="Steel_Radial-48" data-name="Steel Radial" cx="-6045.49" cy="3427.98" fx="-6045.49" fy="3427.98" r="44.86" gradientTransform="translate(-2870 5775) rotate(154.59) scale(.84 1.16)" xlink:href="#Steel_Radial"/>
    <linearGradient id="linear-gradient-48" x1="-6058.33" y1="3398.89" x2="-6053.84" y2="3414.84" gradientTransform="translate(-2870 5775) rotate(154.59) scale(.84 1.16)" xlink:href="#linear-gradient"/>
  </defs>
  <g id="_Слой_1-2" data-name="Слой_1">
    <g class="cls-115">
      <g>
        <g>
          <g>
            <path class="cls-8" d="M26.21,18.03c-2.49-5.57-1.21-11.55,2.85-13.37,4.07-1.81,9.38,1.23,11.86,6.8,2.49,5.57,1.22,11.55-2.85,13.36-4.06,1.82-9.37-1.22-11.86-6.79Z"/>
            <path class="cls-109" d="M26.45,17.88c-2.4-5.39-1.17-11.17,2.75-12.92,3.93-1.75,9.06,1.19,11.46,6.57,2.41,5.38,1.18,11.16-2.75,12.92-3.93,1.76-9.06-1.19-11.46-6.57Z"/>
            <path class="cls-101" d="M26.95,17.52c-1.99-4.46-.97-9.26,2.28-10.71,3.25-1.46,7.51.98,9.5,5.45,1.99,4.46.98,9.26-2.28,10.71-3.25,1.46-7.51-.98-9.5-5.44Z"/>
            <path class="cls-13" d="M27.87,16.45c-1.52-3.4-.74-7.07,1.74-8.17,2.49-1.11,5.73.75,7.25,4.15,1.52,3.4.74,7.07-1.74,8.18-2.48,1.11-5.73-.76-7.25-4.16Z"/>
          </g>
          <g>
            <path class="cls-92" d="M24.69,18.41c-2.49-5.56-1.21-11.55,2.85-13.37,4.06-1.82,9.37,1.23,11.86,6.79,2.49,5.57,1.21,11.57-2.85,13.38-4.06,1.81-9.37-1.23-11.86-6.8Z"/>
            <path class="cls-50" d="M24.92,18.26c-2.41-5.38-1.18-11.17,2.75-12.92,3.93-1.75,9.06,1.19,11.46,6.57,2.41,5.38,1.17,11.16-2.75,12.92-3.93,1.75-9.06-1.19-11.46-6.57Z"/>
            <path class="cls-54" d="M25.42,17.9c-1.99-4.46-.97-9.26,2.28-10.72,3.26-1.45,7.51.99,9.51,5.45,2,4.47.97,9.26-2.28,10.71-3.25,1.45-7.51-.98-9.5-5.45Z"/>
            <path class="cls-39" d="M26.35,16.82c-1.52-3.4-.75-7.06,1.74-8.17,2.48-1.11,5.73.75,7.25,4.15,1.52,3.4.74,7.07-1.74,8.17-2.48,1.11-5.73-.75-7.24-4.16Z"/>
            <path class="cls-27" d="M36.79,23.92s5.2-3.42,2.34-11.87c0,0,1.06,6.25-2.34,11.87Z"/>
          </g>
        </g>
        <g>
          <g>
            <path class="cls-106" d="M22,19.58c-2.62-5.51-1.48-11.52,2.53-13.43,4.02-1.91,9.4,1.01,12.02,6.52,2.62,5.52,1.48,11.52-2.54,13.43-4.02,1.92-9.4-1.01-12.01-6.52Z"/>
            <path class="cls-53" d="M22.22,19.43c-2.53-5.32-1.43-11.13,2.45-12.98,3.88-1.84,9.08.98,11.61,6.3,2.54,5.33,1.44,11.14-2.45,12.98-3.88,1.85-9.08-.97-11.61-6.3Z"/>
            <path class="cls-30" d="M22.72,19.06c-2.09-4.41-1.18-9.23,2.04-10.76,3.22-1.53,7.53.81,9.63,5.22,2.09,4.41,1.19,9.23-2.03,10.76-3.22,1.52-7.53-.81-9.63-5.23Z"/>
            <path class="cls-87" d="M23.62,17.96c-1.6-3.37-.91-7.04,1.55-8.2,2.45-1.17,5.74.62,7.35,3.98,1.6,3.37.9,7.05-1.55,8.21-2.45,1.17-5.74-.62-7.34-3.99Z"/>
          </g>
          <g>
            <path class="cls-71" d="M20.48,20c-2.62-5.51-1.48-11.52,2.54-13.43,4.02-1.91,9.4,1.01,12.01,6.52,2.62,5.51,1.48,11.52-2.53,13.44-4.02,1.91-9.4-1.01-12.02-6.52Z"/>
            <path class="cls-82" d="M20.71,19.85c-2.53-5.33-1.43-11.14,2.45-12.99,3.89-1.84,9.09.98,11.61,6.3,2.53,5.32,1.43,11.13-2.45,12.98-3.88,1.84-9.08-.98-11.61-6.29Z"/>
            <path class="cls-41" d="M21.2,19.47c-2.1-4.42-1.19-9.23,2.04-10.76,3.22-1.53,7.53.81,9.62,5.23,2.1,4.41,1.19,9.23-2.03,10.76-3.21,1.53-7.53-.81-9.63-5.23Z"/>
            <path class="cls-64" d="M22.1,18.38c-1.6-3.37-.91-7.04,1.54-8.21,2.46-1.17,5.75.62,7.35,3.98,1.6,3.37.9,7.04-1.55,8.21-2.46,1.17-5.74-.61-7.34-3.98Z"/>
            <path class="cls-27" d="M32.71,25.23s5.13-3.54,2.06-11.92c0,0,1.21,6.23-2.06,11.92Z"/>
          </g>
        </g>
        <g>
          <g>
            <path class="cls-66" d="M53.8,112.7c-2.5-5.58-1.22-11.56,2.85-13.38,4.06-1.81,9.37,1.23,11.86,6.8,2.49,5.57,1.21,11.55-2.85,13.37-4.06,1.81-9.38-1.23-11.86-6.8Z"/>
            <path class="cls-83" d="M54.02,112.54c-2.4-5.38-1.17-11.16,2.76-12.92,3.93-1.75,9.06,1.19,11.46,6.57,2.4,5.38,1.17,11.17-2.75,12.92-3.93,1.76-9.05-1.19-11.46-6.57Z"/>
            <path class="cls-85" d="M54.53,112.18c-1.99-4.46-.97-9.26,2.28-10.71,3.26-1.45,7.51.98,9.5,5.44,2,4.46.98,9.26-2.28,10.71-3.25,1.46-7.51-.98-9.5-5.44Z"/>
            <path class="cls-18" d="M55.45,111.11c-1.51-3.4-.73-7.07,1.74-8.16,2.48-1.12,5.73.75,7.25,4.15,1.52,3.4.74,7.06-1.75,8.17-2.48,1.11-5.73-.75-7.25-4.16Z"/>
          </g>
          <g>
            <path class="cls-48" d="M52.27,113.08c-2.49-5.57-1.22-11.56,2.85-13.37,4.06-1.82,9.37,1.23,11.86,6.8,2.49,5.56,1.21,11.56-2.85,13.37-4.07,1.81-9.38-1.23-11.86-6.8Z"/>
            <path class="cls-84" d="M52.5,112.93c-2.41-5.38-1.18-11.17,2.75-12.92,3.93-1.76,9.06,1.18,11.46,6.57,2.41,5.38,1.17,11.16-2.75,12.92-3.92,1.75-9.05-1.19-11.46-6.57Z"/>
            <path class="cls-24" d="M53,112.57c-2-4.47-.97-9.26,2.28-10.71,3.26-1.46,7.51.98,9.51,5.45,1.99,4.46.96,9.26-2.29,10.71-3.25,1.45-7.51-.99-9.5-5.44Z"/>
            <path class="cls-19" d="M53.93,111.49c-1.52-3.4-.74-7.06,1.74-8.16,2.48-1.11,5.73.75,7.25,4.15,1.52,3.41.74,7.06-1.74,8.17-2.48,1.11-5.73-.76-7.25-4.16Z"/>
            <path class="cls-27" d="M64.37,118.58s5.2-3.42,2.34-11.87c0,0,1.06,6.25-2.34,11.87Z"/>
          </g>
        </g>
        <g>
          <g>
            <path class="cls-9" d="M51,114.74c-2.63-5.51-1.49-11.52,2.53-13.43,4.02-1.91,9.4,1.01,12.02,6.52,2.61,5.5,1.48,11.52-2.54,13.43-4.02,1.92-9.4-1.01-12.01-6.52Z"/>
            <path class="cls-2" d="M51.23,114.59c-2.53-5.32-1.43-11.14,2.45-12.98,3.89-1.84,9.08.97,11.61,6.3,2.53,5.32,1.43,11.14-2.45,12.98-3.88,1.84-9.08-.98-11.6-6.31Z"/>
            <path class="cls-90" d="M51.72,114.21c-2.1-4.42-1.19-9.23,2.03-10.76,3.22-1.53,7.53.8,9.63,5.22,2.09,4.41,1.18,9.23-2.03,10.76-3.22,1.53-7.53-.8-9.63-5.22Z"/>
            <path class="cls-76" d="M52.62,113.11c-1.6-3.36-.9-7.04,1.55-8.21,2.46-1.16,5.75.62,7.34,3.99,1.61,3.37.91,7.04-1.55,8.21-2.45,1.16-5.74-.62-7.34-3.99Z"/>
          </g>
          <g>
            <path class="cls-103" d="M49.48,115.16c-2.62-5.51-1.48-11.53,2.54-13.43,4.01-1.91,9.4,1.01,12.01,6.52,2.62,5.51,1.48,11.52-2.53,13.43-4.02,1.91-9.4-1.01-12.02-6.52Z"/>
            <path class="cls-1" d="M49.71,115.01c-2.53-5.33-1.43-11.14,2.45-12.98,3.89-1.85,9.08.97,11.62,6.29,2.53,5.33,1.43,11.14-2.45,12.98-3.88,1.85-9.08-.97-11.61-6.29Z"/>
            <path class="cls-47" d="M50.2,114.63c-2.1-4.42-1.18-9.23,2.03-10.76,3.22-1.53,7.53.81,9.63,5.22,2.09,4.41,1.19,9.23-2.03,10.76-3.22,1.53-7.53-.81-9.63-5.23Z"/>
            <path class="cls-107" d="M51.1,113.54c-1.6-3.37-.9-7.05,1.55-8.21,2.46-1.17,5.74.61,7.34,3.99,1.6,3.37.91,7.04-1.55,8.21-2.45,1.16-5.75-.62-7.34-3.98Z"/>
            <path class="cls-27" d="M61.71,120.38s5.12-3.54,2.06-11.92c0,0,1.21,6.22-2.06,11.92Z"/>
          </g>
        </g>
        <g>
          <g>
            <path class="cls-69" d="M66.68,111.15l7.26-1.85c1.01-.21,2.02-.5,2.99-.89,15.92-6.3,19.85-34.09,8.78-62.07C74.63,18.37,52.75.79,36.82,7.09c-.08.03-14.43,4.88-14.43,4.88,0,0-4.2,32.31,5.65,57.18,9.62,24.31,23.69,42.23,38.63,41.99Z"/>
            <path class="cls-97" d="M66.72,111.6s-.03,0-.04,0c-13.9.23-28.5-15.58-39.07-42.28-9.78-24.7-5.72-57.09-5.68-57.41.02-.17.14-.32.31-.38.14-.05,14.22-4.81,14.42-4.88,7.85-3.11,17.33-.68,26.7,6.84,9.29,7.46,17.38,19.06,22.76,32.67,5.39,13.6,7.43,27.6,5.76,39.4-1.68,11.9-6.94,20.16-14.8,23.27-.93.37-1.97.68-3.06.91l-7.24,1.84s-.04,0-.07.01ZM22.82,12.32c-.38,3.24-3.55,33.42,5.66,56.67,10.41,26.29,24.66,41.87,38.15,41.7l7.21-1.83c1.06-.22,2.04-.51,2.93-.87,7.54-2.98,12.59-10.99,14.23-22.54,1.65-11.65-.38-25.47-5.71-38.93-5.33-13.46-13.31-24.93-22.48-32.29-9.1-7.31-18.26-9.68-25.8-6.7-.09.03-11.26,3.81-14.18,4.8Z"/>
          </g>
          <path class="cls-34" d="M66.68,111.15l5.06-1.29c.62-.94,1.23-1.91,1.81-2.88,3.48-5.97,6.5-12.19,7.74-19.05,2.28-12.6.62-25.95-3.35-38.06-5.32-16.26-14.67-31.78-27.62-43.03-4.71-1.4-9.31-1.41-13.5.25-.08.03-14.43,4.88-14.43,4.88,0,0-4.2,32.31,5.65,57.18,9.62,24.31,23.69,42.23,38.63,41.99Z"/>
          <g>
            <path class="cls-45" d="M54.46,115.06l.31.58,3.25-.96c1.02-.21,2.01-.5,2.98-.89,15.92-6.3,19.85-34.09,8.79-62.07C58.71,23.74,36.82,6.17,20.9,12.47c-.08.04-.16.08-.25.12l-5.03,1.6.42,1.17c-11.76,9.61-13.78,34.32-3.94,59.19,9.62,24.31,27.41,40.76,42.35,40.52Z"/>
            <path class="cls-108" d="M54.82,116.1c-.18.02-.37-.08-.45-.24l-.17-.33c-15.27.03-33.1-17.07-42.5-40.81C1.99,50.19,3.61,25.25,15.51,15.2l-.31-.86c-.04-.12-.04-.25.02-.36.05-.11.15-.2.27-.23l5.21-1.69c16.16-6.39,38.36,11.33,49.52,39.5,11.14,28.17,7.09,56.28-9.04,62.67-.97.38-1.97.68-3.06.91l-3.21.95s-.06.01-.08.02ZM16.22,14.47l.26.72c.07.18.01.39-.14.51-11.83,9.66-13.43,34.34-3.8,58.67,9.32,23.55,26.95,40.47,41.91,40.23.17,0,.33.09.42.25l.13.25,2.89-.85c1.07-.23,2.03-.51,2.94-.88,15.66-6.2,19.49-33.78,8.53-61.48C58.39,24.19,36.73,6.69,21.07,12.89c-.05.03-.14.07-.23.11l-4.62,1.47Z"/>
          </g>
          <g>
            <path class="cls-74" d="M7.42,75.94C-3.66,47.96.27,20.18,16.2,13.88c15.93-6.3,37.81,11.27,48.88,39.25,11.07,27.98,7.14,55.76-8.78,62.07-15.92,6.3-37.81-11.27-48.88-39.25Z"/>
            <path class="cls-91" d="M51.54,116.82c-15.47,1.6-34.5-15.31-44.56-40.71h0C1.6,62.51-.44,48.52,1.23,36.72c1.68-11.89,6.94-20.16,14.8-23.27,16.15-6.38,38.34,11.34,49.48,39.51,11.14,28.17,7.09,56.28-9.04,62.67-1.59.63-3.24,1.02-4.93,1.2ZM21.09,13.16c-1.62.17-3.2.55-4.72,1.15-7.54,2.98-12.59,10.99-14.23,22.54-1.65,11.65.38,25.47,5.71,38.93,10.96,27.7,32.64,45.19,48.29,38.99,15.66-6.2,19.48-33.78,8.52-61.47C54.76,28.29,36.14,11.6,21.09,13.16Z"/>
          </g>
          <path class="cls-46" d="M14.18,74.01c-9.54-24.09-6.15-48.02,7.56-53.44,13.71-5.43,32.56,9.71,42.09,33.79,9.53,24.09,6.15,48.02-7.56,53.44-13.71,5.42-32.55-9.7-42.09-33.79Z"/>
          <g>
            <path class="cls-26" d="M65.36,50.77c-.49-.65-.36-1.56.28-2.05.64-.49,1.56-.36,2.05.28.49.64.36,1.56-.28,2.05-.64.49-1.56.36-2.04-.29Z"/>
            <path class="cls-26" d="M70.45,66.98c-.48-.64-.36-1.55.29-2.04.64-.49,1.56-.36,2.04.28.49.65.36,1.56-.29,2.04-.64.48-1.55.36-2.04-.28Z"/>
            <path class="cls-26" d="M72.91,82.02c-.48-.64-.36-1.55.29-2.04.65-.49,1.56-.36,2.05.29.48.64.36,1.55-.29,2.04-.65.49-1.56.36-2.05-.28Z"/>
            <path class="cls-26" d="M71.08,97.22c-.43-.57-.27-1.43.38-1.92.65-.49,1.52-.41,1.96.16.44.58.27,1.44-.38,1.92-.65.49-1.52.41-1.96-.17Z"/>
            <path class="cls-26" d="M65.51,109.13c-.33-.44-.08-1.18.56-1.67.64-.49,1.44-.53,1.76-.1.33.44.08,1.18-.56,1.67-.65.49-1.44.53-1.76.09Z"/>
            <path class="cls-26" d="M59.36,39.03c-.29-.47.04-1.19.72-1.61.69-.42,1.48-.39,1.76.07.29.47-.03,1.19-.72,1.61-.68.44-1.47.39-1.76-.07Z"/>
            <path class="cls-26" d="M49.13,25.96c-.34-.55-.09-1.34.57-1.75.66-.41,1.47-.28,1.81.27.34.55.09,1.33-.56,1.74-.66.41-1.47.29-1.82-.27Z"/>
            <path class="cls-26" d="M34.94,14.77c-.28-.45-.07-1.08.45-1.4.53-.32,1.18-.23,1.46.22.28.45.07,1.07-.45,1.39-.53.33-1.18.23-1.45-.21Z"/>
          </g>
        </g>
        <path d="M46.51,12.57c-.66-.31-1.89-1.03-2.61-.51-.66.48-.76,1.17-.33,1.84,0,.01.01.02.02.03,4.77,3.08,10.9,8.23,17.15,16.49.23.11.46.2.71.23.79.1,1.76-.25,1.54-1.19-.07-.31-.14-.6-.17-.88-5.62-7.43-11.23-12.53-16.22-16-.04-.01-.06,0-.09-.02Z"/>
        <path d="M77.46,55.14c-1.11-3.1-2.44-6.29-4.05-9.59-1.45-2.97-2.93-5.69-4.44-8.24-.44-.49-.8-1.08-1.33-1.52-.87-.73-2.32-.53-2.07.82.05.28.13.57.23.85,1.73,2.84,3.44,5.92,5.1,9.32,1.4,2.86,2.58,5.64,3.58,8.36.97,1,3.06,2.2,2.98,0Z"/>
        <path d="M49.73,11.34c4.56,2.96,10.34,7.74,16.24,15.09.31.19.64.33.99.43.8.21,1.82-.23,1.58-1.2-.1-.37-.26-.73-.45-1.07-5.56-6.94-11.12-11.75-16.04-15.06-.9-.27-1.96-.37-2.66.23-.48.41-.29.91,0,1.36.12.08.22.14.34.22Z"/>
        <path d="M82.97,54.66c1.25-.41.84-1.85.86-2.96-.99-2.66-2.14-5.38-3.51-8.18-1.8-3.68-3.67-7-5.56-10.06-.31-.28-.64-.55-1.02-.65-.52-.14-1.31,0-1.42.63-.12.63.09,1.34.38,1.99,1.74,2.83,3.46,5.92,5.12,9.32,1.58,3.22,2.88,6.36,3.95,9.41.36.4.75.64,1.2.49Z"/>
        <path d="M85.58,84.77c.04.86.31,1.9,1.32,1.25.45-.28.83-.66,1.15-1.07.46-5.33.29-11.49-1.08-18.3-.08-.17-.15-.34-.23-.49-.33-.61-1.04-1.71-1.87-1.62-.51.07-.73.65-.83,1.32,1.49,6.75,1.75,12.91,1.29,18.4.14.11.23.26.25.5Z"/>
        <g>
          <path d="M71.94,109.09c1.23-.22,1.87-1.13,2.57-2.01,1.75-3.07,3.67-7.13,5.15-12.14.15-.49.28-1.01.42-1.53.05-.92-.11-1.78-.98-1.82-.88-.04-1.4.63-1.79,1.42-1.87,6.91-4.65,12.09-6.7,15.28.08.56.45.96,1.32.8Z"/>
          <path d="M78.53,105.66c1.65.03,2.38-1.55,3.41-2.63,1.39-2.71,2.8-5.97,3.96-9.75.06-.2.12-.41.18-.63-.11-.32-.31-.58-.64-.71-.71-.27-1.44-.22-1.96.4-.13.16-.26.33-.37.5-1.36,4.35-3.05,7.97-4.6,10.79-.35.92-.61,2.01.02,2.03Z"/>
          <g class="cls-52">
            <g>
              <g>
                <path class="cls-32" d="M72.69,103.75c-2.49-5.57-1.22-11.56,2.85-13.38,4.06-1.82,9.37,1.22,11.86,6.81,2.49,5.57,1.21,11.55-2.85,13.37-4.06,1.81-9.37-1.23-11.86-6.79Z"/>
                <path class="cls-81" d="M72.92,103.59c-2.4-5.39-1.17-11.17,2.76-12.92,3.92-1.76,9.06,1.18,11.46,6.56,2.4,5.38,1.17,11.17-2.76,12.92-3.92,1.75-9.06-1.19-11.46-6.57Z"/>
                <path class="cls-111" d="M73.43,103.23c-1.99-4.46-.97-9.25,2.28-10.7,3.26-1.46,7.51.97,9.5,5.44,2,4.46.98,9.26-2.28,10.71-3.25,1.45-7.51-.99-9.5-5.45Z"/>
                <path class="cls-116" d="M74.35,102.15c-1.52-3.4-.74-7.06,1.75-8.17,2.48-1.11,5.73.75,7.25,4.15,1.52,3.4.74,7.06-1.75,8.17-2.48,1.11-5.72-.75-7.25-4.16Z"/>
              </g>
              <g>
                <path class="cls-89" d="M71.17,104.12c-2.49-5.57-1.21-11.56,2.85-13.37,4.07-1.81,9.38,1.24,11.87,6.8,2.49,5.57,1.21,11.55-2.85,13.38-4.07,1.81-9.38-1.23-11.86-6.81Z"/>
                <path class="cls-86" d="M71.39,103.98c-2.4-5.38-1.17-11.17,2.75-12.92,3.93-1.76,9.06,1.19,11.46,6.57,2.4,5.38,1.17,11.17-2.76,12.92-3.92,1.76-9.06-1.19-11.46-6.56Z"/>
                <path class="cls-72" d="M71.9,103.62c-1.99-4.47-.97-9.26,2.29-10.72,3.25-1.45,7.51.99,9.5,5.45,2,4.46.98,9.26-2.28,10.71-3.25,1.45-7.51-.99-9.51-5.44Z"/>
                <path class="cls-79" d="M72.83,102.54c-1.52-3.4-.74-7.06,1.74-8.17,2.48-1.12,5.73.75,7.25,4.15,1.52,3.41.74,7.07-1.74,8.18-2.49,1.1-5.73-.76-7.25-4.16Z"/>
                <path class="cls-27" d="M83.27,109.63s5.2-3.42,2.34-11.88c0,0,1.07,6.25-2.34,11.88Z"/>
              </g>
            </g>
          </g>
          <g class="cls-99">
            <g>
              <g>
                <path class="cls-75" d="M69.47,103.87c-2.48-5.23-1.4-10.93,2.41-12.75,3.81-1.81,8.92.97,11.4,6.19,2.48,5.24,1.4,10.94-2.41,12.76-3.81,1.81-8.92-.96-11.4-6.2Z"/>
                <path class="cls-95" d="M69.69,103.73c-2.4-5.04-1.36-10.56,2.33-12.32,3.69-1.75,8.61.93,11.02,5.98,2.39,5.05,1.35,10.57-2.32,12.32-3.69,1.75-8.62-.93-11.02-5.98Z"/>
                <path class="cls-59" d="M70.16,103.37c-1.99-4.19-1.12-8.76,1.93-10.21,3.05-1.45,7.14.77,9.14,4.96,1.99,4.19,1.12,8.76-1.93,10.21-3.05,1.45-7.14-.77-9.13-4.96Z"/>
                <path class="cls-56" d="M71.01,102.34c-1.52-3.2-.86-6.68,1.48-7.79,2.33-1.11,5.45.58,6.96,3.78,1.52,3.19.86,6.67-1.47,7.78-2.33,1.11-5.45-.58-6.97-3.78Z"/>
              </g>
              <g>
                <path class="cls-73" d="M68.03,104.27c-2.49-5.23-1.41-10.94,2.41-12.74,3.82-1.82,8.92.95,11.41,6.18,2.48,5.23,1.4,10.94-2.41,12.75-3.82,1.81-8.92-.96-11.4-6.19Z"/>
                <path class="cls-112" d="M68.24,104.12c-2.39-5.05-1.36-10.57,2.32-12.32,3.69-1.74,8.62.93,11.02,5.98,2.4,5.05,1.36,10.57-2.32,12.32-3.69,1.75-8.61-.93-11.02-5.98Z"/>
                <path class="cls-11" d="M68.71,103.77c-1.99-4.19-1.13-8.76,1.93-10.22,3.05-1.44,7.15.77,9.13,4.96,1.99,4.19,1.13,8.75-1.92,10.21-3.06,1.45-7.15-.77-9.14-4.96Z"/>
                <path class="cls-57" d="M69.57,102.74c-1.52-3.2-.86-6.69,1.47-7.8,2.33-1.11,5.45.59,6.97,3.78,1.53,3.2.86,6.69-1.47,7.79-2.33,1.11-5.45-.58-6.97-3.77Z"/>
                <path class="cls-27" d="M79.63,109.23s4.86-3.36,1.96-11.31c0,0,1.15,5.91-1.96,11.31Z"/>
              </g>
            </g>
          </g>
        </g>
        <g class="cls-70">
          <g>
            <g>
              <path class="cls-67" d="M76.22,78.85c-2.49-5.57-1.21-11.56,2.85-13.37,4.06-1.81,9.37,1.23,11.86,6.8,2.49,5.58,1.22,11.56-2.85,13.37-4.07,1.81-9.38-1.23-11.87-6.8Z"/>
              <path class="cls-16" d="M76.46,78.71c-2.4-5.38-1.18-11.17,2.75-12.92,3.93-1.75,9.05,1.19,11.46,6.57,2.4,5.39,1.17,11.17-2.76,12.92-3.92,1.76-9.06-1.19-11.46-6.57Z"/>
              <path class="cls-25" d="M76.96,78.35c-1.99-4.46-.97-9.26,2.28-10.71,3.26-1.46,7.51.99,9.5,5.44,2,4.47.97,9.26-2.28,10.72-3.25,1.45-7.51-.99-9.5-5.45Z"/>
              <path class="cls-37" d="M77.88,77.27c-1.51-3.41-.73-7.06,1.75-8.17,2.48-1.11,5.73.75,7.25,4.15,1.52,3.41.74,7.07-1.74,8.17-2.48,1.11-5.73-.75-7.25-4.16Z"/>
            </g>
            <g>
              <path class="cls-22" d="M74.7,79.24c-2.49-5.57-1.21-11.56,2.85-13.37,4.07-1.81,9.38,1.23,11.87,6.8,2.49,5.56,1.21,11.55-2.85,13.37-4.06,1.82-9.37-1.23-11.86-6.79Z"/>
              <path class="cls-21" d="M74.93,79.09c-2.4-5.38-1.17-11.17,2.76-12.92,3.92-1.75,9.06,1.19,11.46,6.57,2.4,5.38,1.17,11.17-2.76,12.92-3.92,1.76-9.05-1.19-11.46-6.57Z"/>
              <path class="cls-110" d="M75.43,78.72c-2-4.46-.98-9.26,2.28-10.71,3.26-1.45,7.51.98,9.5,5.45,2,4.46.98,9.26-2.28,10.71-3.26,1.45-7.51-.98-9.5-5.45Z"/>
              <path class="cls-3" d="M76.36,77.65c-1.52-3.41-.75-7.07,1.74-8.17,2.48-1.11,5.73.76,7.24,4.16,1.53,3.4.74,7.06-1.74,8.17-2.48,1.11-5.73-.75-7.25-4.15Z"/>
              <path class="cls-27" d="M86.8,84.74s5.21-3.41,2.34-11.87c0,0,1.07,6.26-2.34,11.87Z"/>
            </g>
          </g>
        </g>
        <path d="M80.73,88.34c.66-.28,1.13-.81,1.44-1.44.27-5.5-.11-11.77-1.65-18.66-.11-.29-.23-.57-.36-.86-.26-.58-1.21-2.09-2.08-1.74-.53.21-.7.99-.72,1.78,1.83,7.61,2.21,14.53,1.76,20.66.39.38.93.55,1.61.25Z"/>
        <g class="cls-12">
          <g>
            <g>
              <path class="cls-60" d="M70.27,80.59c-2.62-5.51-1.49-11.53,2.53-13.44,4.02-1.91,9.4,1.01,12.02,6.52,2.61,5.51,1.48,11.52-2.54,13.43-4.02,1.92-9.4-1-12.01-6.52Z"/>
              <path class="cls-77" d="M70.5,80.43c-2.54-5.32-1.43-11.13,2.45-12.98,3.89-1.84,9.08.98,11.61,6.3,2.53,5.33,1.44,11.14-2.44,12.99-3.89,1.84-9.09-.97-11.61-6.3Z"/>
              <path class="cls-17" d="M70.99,80.06c-2.1-4.42-1.19-9.23,2.03-10.76,3.22-1.53,7.53.8,9.63,5.22,2.09,4.42,1.18,9.23-2.04,10.76-3.21,1.53-7.53-.8-9.63-5.22Z"/>
              <path class="cls-42" d="M71.89,78.96c-1.6-3.37-.9-7.04,1.55-8.21,2.45-1.16,5.74.62,7.34,3.98,1.6,3.37.91,7.04-1.56,8.21-2.45,1.17-5.74-.62-7.34-3.99Z"/>
            </g>
            <g>
              <path class="cls-31" d="M68.75,81c-2.62-5.51-1.48-11.52,2.54-13.44,4.02-1.91,9.4,1.01,12.02,6.53,2.61,5.5,1.48,11.52-2.54,13.43-4.02,1.91-9.4-1.02-12.01-6.52Z"/>
              <path class="cls-113" d="M68.98,80.84c-2.53-5.32-1.43-11.13,2.45-12.98,3.89-1.84,9.08.98,11.61,6.31,2.53,5.32,1.43,11.13-2.45,12.98-3.88,1.84-9.08-.98-11.61-6.3Z"/>
              <path class="cls-78" d="M69.48,80.47c-2.1-4.42-1.19-9.23,2.03-10.76,3.22-1.52,7.53.81,9.63,5.23,2.1,4.41,1.19,9.23-2.03,10.76-3.22,1.53-7.53-.81-9.63-5.23Z"/>
              <path class="cls-104" d="M70.37,79.37c-1.6-3.36-.91-7.04,1.55-8.2,2.45-1.17,5.74.62,7.34,3.98,1.6,3.37.92,7.04-1.55,8.22-2.45,1.16-5.74-.62-7.34-4Z"/>
              <path class="cls-27" d="M80.98,86.23s5.12-3.54,2.06-11.92c0,0,1.21,6.23-2.06,11.92Z"/>
            </g>
          </g>
        </g>
        <g class="cls-61">
          <g>
            <g>
              <path class="cls-43" d="M70.3,47.52c-2.49-5.57-1.22-11.56,2.85-13.38,4.06-1.81,9.37,1.23,11.86,6.8,2.5,5.58,1.22,11.55-2.85,13.37-4.06,1.82-9.38-1.23-11.86-6.8Z"/>
              <path class="cls-62" d="M70.53,47.37c-2.41-5.39-1.18-11.17,2.75-12.92,3.92-1.75,9.06,1.18,11.46,6.56,2.4,5.39,1.17,11.17-2.75,12.92-3.93,1.76-9.06-1.19-11.46-6.56Z"/>
              <path class="cls-29" d="M71.03,47.01c-1.99-4.46-.97-9.26,2.28-10.71,3.25-1.46,7.51.99,9.49,5.45,2,4.46.98,9.25-2.28,10.71-3.25,1.45-7.51-.98-9.5-5.45Z"/>
              <path class="cls-51" d="M71.95,45.93c-1.52-3.4-.74-7.06,1.74-8.16,2.48-1.11,5.73.75,7.25,4.15,1.52,3.41.74,7.07-1.74,8.17-2.48,1.12-5.73-.75-7.25-4.16Z"/>
            </g>
            <g>
              <path class="cls-44" d="M68.77,47.89c-2.49-5.57-1.21-11.55,2.85-13.37,4.06-1.81,9.38,1.23,11.86,6.8,2.49,5.57,1.21,11.55-2.85,13.37-4.06,1.82-9.37-1.23-11.86-6.8Z"/>
              <path class="cls-40" d="M69,47.75c-2.4-5.38-1.17-11.16,2.76-12.91,3.93-1.76,9.06,1.18,11.46,6.57,2.4,5.38,1.17,11.16-2.75,12.92-3.92,1.75-9.06-1.19-11.46-6.58Z"/>
              <path class="cls-33" d="M69.5,47.39c-1.99-4.46-.98-9.26,2.28-10.71,3.26-1.45,7.51.99,9.5,5.45,1.99,4.46.97,9.25-2.28,10.7-3.25,1.46-7.51-.98-9.5-5.44Z"/>
              <path class="cls-94" d="M70.43,46.31c-1.52-3.4-.74-7.06,1.74-8.17,2.48-1.12,5.73.75,7.25,4.15,1.52,3.4.74,7.06-1.74,8.17-2.48,1.1-5.73-.76-7.24-4.16Z"/>
              <path class="cls-27" d="M80.87,53.4s5.2-3.41,2.34-11.87c0,0,1.06,6.26-2.34,11.87Z"/>
            </g>
          </g>
        </g>
        <g class="cls-4">
          <g>
            <g>
              <path class="cls-65" d="M65.14,49.2c-2.62-5.51-1.48-11.53,2.54-13.43,4.02-1.91,9.4,1.01,12.01,6.52,2.62,5.5,1.48,11.52-2.54,13.43-4.02,1.91-9.4-1.01-12.01-6.52Z"/>
              <path class="cls-23" d="M65.37,49.05c-2.53-5.32-1.43-11.14,2.45-12.99,3.89-1.84,9.08.98,11.61,6.31,2.53,5.32,1.43,11.13-2.45,12.97-3.88,1.85-9.08-.97-11.61-6.29Z"/>
              <path class="cls-88" d="M65.86,48.67c-2.1-4.42-1.19-9.24,2.03-10.77,3.22-1.53,7.53.81,9.63,5.23,2.1,4.41,1.18,9.23-2.03,10.76-3.22,1.52-7.53-.81-9.63-5.22Z"/>
              <path class="cls-55" d="M66.76,47.58c-1.6-3.37-.9-7.04,1.55-8.21,2.45-1.17,5.74.62,7.34,3.98,1.6,3.38.9,7.05-1.55,8.22-2.45,1.16-5.74-.62-7.34-3.99Z"/>
            </g>
            <g>
              <path class="cls-35" d="M63.62,49.61c-2.61-5.5-1.48-11.52,2.54-13.43,4.02-1.91,9.4,1.01,12.01,6.52,2.62,5.51,1.48,11.52-2.53,13.44-4.02,1.91-9.4-1.02-12.02-6.53Z"/>
              <path class="cls-28" d="M63.85,49.46c-2.53-5.32-1.43-11.13,2.45-12.98,3.89-1.84,9.08.97,11.61,6.3,2.53,5.33,1.43,11.14-2.45,12.98-3.88,1.85-9.08-.97-11.62-6.3Z"/>
              <path class="cls-98" d="M64.35,49.08c-2.1-4.41-1.19-9.23,2.03-10.75,3.22-1.53,7.53.81,9.63,5.22,2.1,4.41,1.19,9.23-2.03,10.76-3.22,1.53-7.53-.82-9.62-5.23Z"/>
              <path class="cls-20" d="M65.24,47.99c-1.6-3.37-.91-7.05,1.55-8.21,2.46-1.17,5.75.62,7.34,3.99,1.6,3.36.91,7.04-1.55,8.2-2.45,1.16-5.75-.62-7.34-3.98Z"/>
              <path class="cls-27" d="M75.85,54.83s5.13-3.54,2.06-11.92c0,0,1.21,6.23-2.06,11.92Z"/>
            </g>
          </g>
        </g>
        <g class="cls-5">
          <g>
            <g>
              <path class="cls-114" d="M51.7,22.41c-2.49-5.56-1.21-11.56,2.85-13.36,4.06-1.81,9.37,1.23,11.86,6.79,2.49,5.57,1.21,11.56-2.85,13.37-4.07,1.82-9.38-1.23-11.87-6.8Z"/>
              <path class="cls-105" d="M51.94,22.27c-2.41-5.39-1.18-11.17,2.75-12.92,3.92-1.76,9.06,1.18,11.46,6.56,2.4,5.38,1.17,11.17-2.75,12.92-3.92,1.75-9.06-1.19-11.46-6.57Z"/>
              <path class="cls-14" d="M52.44,21.91c-1.99-4.47-.97-9.26,2.28-10.72,3.26-1.45,7.51.99,9.5,5.45,2,4.46.98,9.26-2.28,10.71-3.25,1.45-7.51-.99-9.5-5.45Z"/>
              <path class="cls-6" d="M53.36,20.82c-1.52-3.39-.74-7.06,1.74-8.16,2.48-1.12,5.73.75,7.25,4.15,1.52,3.41.74,7.06-1.74,8.17-2.48,1.11-5.73-.75-7.25-4.16Z"/>
            </g>
            <g>
              <path class="cls-80" d="M50.18,22.79c-2.49-5.56-1.21-11.55,2.85-13.37,4.06-1.81,9.37,1.23,11.86,6.8,2.49,5.57,1.22,11.55-2.84,13.37-4.07,1.82-9.38-1.23-11.87-6.8Z"/>
              <path class="cls-15" d="M50.41,22.64c-2.4-5.38-1.17-11.16,2.76-12.91,3.92-1.75,9.06,1.19,11.46,6.57,2.41,5.38,1.17,11.16-2.76,12.91-3.92,1.75-9.06-1.18-11.46-6.57Z"/>
              <path class="cls-10" d="M50.92,22.28c-2-4.46-.98-9.26,2.28-10.71,3.25-1.45,7.5.98,9.5,5.45,2,4.47.98,9.26-2.28,10.71-3.26,1.46-7.51-.98-9.5-5.44Z"/>
              <path class="cls-49" d="M51.84,21.2c-1.52-3.4-.74-7.06,1.74-8.16,2.48-1.11,5.72.75,7.25,4.15,1.52,3.41.74,7.07-1.74,8.17-2.48,1.11-5.73-.75-7.25-4.16Z"/>
              <path class="cls-27" d="M62.28,28.3s5.21-3.42,2.34-11.87c0,0,1.06,6.25-2.34,11.87Z"/>
            </g>
          </g>
        </g>
        <g class="cls-63">
          <g>
            <g>
              <path class="cls-93" d="M46.55,24.09c-2.61-5.51-1.48-11.52,2.54-13.43,4.02-1.91,9.4,1,12.01,6.52,2.62,5.51,1.49,11.53-2.53,13.44-4.02,1.91-9.4-1.01-12.02-6.52Z"/>
              <path class="cls-96" d="M46.77,23.94c-2.53-5.33-1.43-11.14,2.46-12.98,3.88-1.84,9.08.97,11.61,6.3,2.53,5.32,1.43,11.13-2.45,12.97-3.89,1.85-9.08-.97-11.62-6.29Z"/>
              <path class="cls-58" d="M47.27,23.57c-2.1-4.42-1.18-9.24,2.03-10.77,3.22-1.53,7.53.81,9.63,5.23,2.1,4.41,1.19,9.23-2.03,10.76-3.22,1.53-7.53-.81-9.62-5.22Z"/>
              <path class="cls-7" d="M48.17,22.47c-1.6-3.37-.91-7.04,1.55-8.21,2.45-1.16,5.74.61,7.34,3.98,1.61,3.37.91,7.04-1.55,8.2-2.46,1.17-5.75-.61-7.35-3.98Z"/>
            </g>
            <g>
              <path class="cls-100" d="M45.03,24.51c-2.62-5.51-1.48-11.53,2.53-13.44,4.02-1.91,9.41,1.02,12.02,6.52,2.62,5.51,1.48,11.53-2.54,13.44-4.01,1.9-9.4-1.01-12.01-6.52Z"/>
              <path class="cls-36" d="M45.26,24.35c-2.53-5.32-1.43-11.13,2.45-12.98,3.88-1.85,9.08.98,11.61,6.3,2.53,5.32,1.43,11.13-2.45,12.98-3.88,1.85-9.08-.98-11.61-6.3Z"/>
              <path class="cls-68" d="M45.76,23.99c-2.1-4.42-1.2-9.23,2.02-10.76,3.22-1.53,7.53.81,9.63,5.22,2.09,4.42,1.19,9.24-2.04,10.77-3.21,1.52-7.53-.82-9.62-5.22Z"/>
              <path class="cls-102" d="M46.65,22.88c-1.61-3.37-.91-7.04,1.55-8.21,2.45-1.17,5.74.62,7.34,3.98,1.6,3.37.9,7.04-1.55,8.21-2.45,1.17-5.75-.62-7.34-3.99Z"/>
              <path class="cls-27" d="M57.26,29.74s5.13-3.54,2.06-11.92c0,0,1.21,6.23-2.06,11.92Z"/>
            </g>
          </g>
        </g>
      </g>
    </g>
  </g>
</svg>