<?xml version="1.0" encoding="UTF-8"?><svg id="_Слой_2" xmlns="http://www.w3.org/2000/svg" width="186.3" height="200" viewBox="0 0 186.3 200"><g id="_Слой_1-2"><path d="m60.87,199.87s.02.08.03.13h-2.14s.01-.08.02-.12c.7,0,1.4,0,2.1,0Z" style="fill:#a1a2a2; stroke-width:0px;"/><path d="m60.87,199.87c-.7,0-1.4,0-2.1,0-.85-.19-1.72-.31-2.55-.58-1.4-.45-2.62-1.21-3.39-2.41-.83-.03-1.6,0-2.35-.1-2.46-.34-4.24-2.01-4.78-4.42-.09-.42-.24-.81-.43-1.2-1.06-2.2-1.24-4.45-.22-6.71.62-1.38,1.6-2.43,2.97-3.1,1.69-.83,3.48-1.11,5.35-1.01,1.63.09,3.21.45,4.76.94.14.04.27.09.45.14.13-.16.26-.32.38-.49,2.84-3.86,5.01-8.08,6.74-12.54,1.34-3.45,2.39-6.98,3.06-10.62.07-.38.11-.78.16-1.16.04-.2.07-.41.11-.61.22-1.6.32-3.2-.02-4.79-.28-1.32-.63-2.63-1.03-3.92-.72-2.33-1.54-4.63-2.13-7-.93-3.81-.96-7.62-.03-11.44.21-.85.45-1.68.68-2.53.27-.45.54-.91.81-1.36.37-.28.58-.75,1.12-.91-.05.11-.06.16-.09.2-.89,1.29-1.5,2.71-1.93,4.21-.51,1.79-.76,3.62-.82,5.47-.02.76.03,1.53.09,2.29.06.74.12,1.49.25,2.22.38,2.07.99,4.08,1.63,6.08.44,1.39.91,2.78,1.34,4.17.37,1.17.65,2.38.72,3.6.06,1.01-.02,2.03-.08,3.04-.1,1.69-.46,3.34-.84,4.99-.56,2.43-1.3,4.81-2.16,7.15-1.01,2.73-2.17,5.38-3.56,7.95-1.11,2.06-2.35,4.03-3.74,5.91-.06.08-.1.18-.15.28,2.14,1.07,3.95,2.51,5.4,4.39.77,1,1.41,2.06,1.74,3.28.11.41.22.83.17,1.39-.09-.18-.14-.26-.17-.34-.19-.48-.35-.97-.58-1.44-.95-1.99-2.26-3.71-4-5.08-.92-.73-1.9-1.39-3-1.83-1.56-.62-3.19-1.01-4.86-1.15-1.68-.15-3.35,0-4.94.64-1.49.59-2.62,1.57-3.32,3.02-.65,1.35-.89,2.77-.6,4.26.1.52.27,1.02.42,1.53.12-.2.17-.39.2-.58.14-1.16.66-2.15,1.4-3.01,1.05-1.23,2.41-1.98,3.97-2.38.98-.25,1.94-.25,2.86.21.09.05.17.13.33.24-.53-.07-.97-.18-1.41-.17-1.7.02-3.22.57-4.54,1.62-.81.65-1.46,1.46-1.83,2.46-.55,1.53-.5,3.05.11,4.54.53,1.29,1.45,2.21,2.76,2.76.95.39,1.94.44,2.94.4.12,0,.23-.04.3-.06-.05-.75-.15-1.46-.14-2.16.02-2.19.91-3.97,2.65-5.29.89-.68,1.91-1.04,3.04-.95.53.04,1.04.14,1.49.46-.49-.02-.97-.04-1.44-.05-1.27-.02-2.35.47-3.24,1.32-1.55,1.47-2.19,3.31-1.99,5.46.12,1.3.72,2.24,1.8,2.92,2.07,1.3,4.34,1.64,6.72,1.31,2.14-.29,4-1.25,5.61-2.68,1.06-.93,2.01-1.98,2.87-3.09,1.6-2.06,3.04-4.22,4.33-6.48,1.44-2.52,2.87-5.05,4.22-7.62,1.43-2.72,3.03-5.33,4.65-7.93,1.72-2.75,3.48-5.47,5.19-8.23,1.25-2,2.42-4.03,3.43-6.17.81-1.72,1.24-3.53,1.24-5.42,0-1.33-.1-2.67-.21-4-.13-1.5-.38-3-.49-4.5-.13-1.64.03-3.27.55-4.85.68-2.06,1.67-3.97,2.73-5.86.72-1.27,1.43-2.55,2.15-3.82.05-.08.1-.16.16-.24.04.16.02.3,0,.44-.23,1.06-.78,1.99-1.31,2.91-1.12,1.93-2.16,3.89-2.99,5.97-.77,1.96-.9,3.99-.76,6.04.09,1.24.27,2.47.41,3.71.05.46.11.92.14,1.38.06.78.14,1.56.13,2.34,0,.76-.1,1.52-.18,2.28-.1.91-.31,1.79-.63,2.64-.78,2.06-1.89,3.96-3,5.84-1.09,1.84-2.25,3.64-3.38,5.45-.23.37-.24.43.09.73.8.74,1.58,1.5,2.43,2.17,1.99,1.6,4.08,3.04,6.32,4.28,2.22,1.23,4.52,2.27,6.98,2.93.4.11.81.18,1.22.26-.17-.41-.4-.72-.62-1.03-1.85-2.63-3.05-5.55-3.82-8.66-.36-1.47-.65-2.95-.76-4.46-.11-1.38-.24-2.76-.29-4.15-.04-.96.07-1.92.07-2.88,0-1.34.17-2.66.32-3.99.2-1.77.54-3.51.97-5.24.48-1.96,1.11-3.87,1.91-5.72.67-1.56,1.44-3.06,2.33-4.51.95-1.54,2.05-2.96,3.28-4.27.65-.7,1.39-1.33,2.14-1.94,1.66-1.35,3.51-2.35,5.6-2.92,1.4-.38,2.82-.47,4.24-.33,1.98.2,3.79.93,5.48,1.98,2.18,1.35,3.96,3.14,5.6,5.08,1.08,1.28,2.01,2.68,2.87,4.12.85,1.43,1.57,2.92,1.97,4.55.04.16.06.31.09.47.02.15.04.3.07.45-.1-.04-.14-.08-.15-.13-.57-1.76-1.39-3.4-2.34-4.97-1.59-2.66-3.42-5.12-5.76-7.18-1.31-1.15-2.7-2.16-4.3-2.87-1.78-.78-3.62-1.22-5.6-1.03-1.02.1-2.01.3-2.96.63-2.12.74-3.95,1.96-5.59,3.47-1.51,1.4-2.78,3-3.9,4.73-1.45,2.24-2.58,4.63-3.45,7.15-.85,2.46-1.45,4.98-1.84,7.56-.25,1.64-.42,3.28-.48,4.93-.06,1.62,0,3.24.08,4.86.05,1.12.18,2.23.32,3.34.23,1.82.66,3.6,1.24,5.35.48,1.44,1.08,2.82,1.8,4.16.91,1.69,2.04,3.22,3.36,4.61.58.6,1.22,1.15,1.87,1.67.95.76,1.97,1.42,3.12,1.83,2.5.89,5.06,1.59,7.67,2.05,1.38.25,2.78.4,4.19.44.55.01,1.1-.06,1.65-.08.95-.04,1.87-.24,2.75-.59.1-.04.21-.03.32-.05-.86.78-1.91,1.09-2.99,1.13-1.3.05-2.6,0-3.9-.09-1.6-.1-3.17-.42-4.72-.83-1.68-.45-3.35-.99-5.02-1.47-.29-.08-.6-.16-.88-.13-.9.1-1.8.24-2.68.41-1.06.21-2.05.6-2.94,1.22-1.23.85-1.96,2.04-2.35,3.47-.41,1.52-.28,2.97.52,4.33.77,1.3,1.89,2.21,3.26,2.83.44.2.91.39,1.45.39-.03-.15-.03-.27-.07-.38-.41-1.35-.53-2.74-.33-4.11.37-2.55,1.67-4.49,4.11-5.51,1.54-.64,3.14-.73,4.75-.21.16.05.31.13.47.2-.53.03-1.04-.06-1.54-.07-.6,0-1.21.03-1.81.1-.76.09-1.51.28-2.19.66-2.19,1.23-3.25,3.18-3.39,5.64-.08,1.33.22,2.62.63,3.88.19.58.56,1.07,1.03,1.47.89.74,1.91,1.17,3.06,1.28.77.08,1.51-.11,2.29-.36-.09-.21-.16-.37-.23-.53-.36-.8-.6-1.64-.66-2.52-.09-1.17.06-2.31.47-3.41.87-2.36,2.52-3.79,5.03-4.16.53-.08,1.05.03,1.54.25-.76,0-1.48.13-2.2.35-1.62.49-2.86,1.46-3.59,2.98-.9,1.9-1.03,3.87-.31,5.87.38,1.07,1.05,1.82,2.22,2,.79.12,1.58.27,2.38.29,1.19.04,2.38-.11,3.56-.29,2.07-.31,4.09-.79,6.04-1.52.7-.26,1.38-.58,2.03-.96,1.02-.59,1.79-1.47,2.46-2.42.67-.95,1.28-1.93,1.91-2.9,1.59-2.45,3.5-4.63,5.48-6.76,1.2-1.29,2.41-2.58,3.57-3.91,1.12-1.28,1.9-2.74,2.11-4.47.18-1.51.02-2.95-.61-4.33-.22-.47-.5-.93-.99-1.2-.04.07-.08.12-.1.17-.66,1.7-1.55,3.29-2.53,4.82-.84,1.31-1.71,2.59-2.86,3.65-.49.45-.99.9-1.65,1.12.08-.14.18-.25.29-.36.49-.5,1.01-.97,1.46-1.49.99-1.17,1.88-2.41,2.68-3.72,1.44-2.36,2.57-4.84,3.22-7.54.46-1.92.84-3.85,1.07-5.82.18-1.5.31-3.01.31-4.52,0-1.85.04-3.71-.22-5.55-.13-.93-.24-1.87-.39-2.8-.28-1.71-.74-3.37-1.24-5.02-.21-.68-.45-1.35-.68-2.02l-.15-.22h0c-.04-.1-.07-.21-.11-.32h0c-.04-.15-.06-.31-.12-.46-.63-1.63-1.4-3.2-2.25-4.73-2.03-3.64-4.48-6.95-7.59-9.75-1.42-1.28-2.97-2.4-4.68-3.27-2.2-1.13-4.53-1.91-6.87-2.67-2.66-.86-5.33-1.71-7.89-2.85-3.63-1.62-6.74-3.93-9.27-6.99-2.44-2.95-4.38-6.2-5.81-9.75-.45-1.11-.87-2.23-1.07-3.41.04-.21.04-.44.34-.46,1.58,6.09,4.69,11.3,9.17,15.69,2.29,2.24,5.05,3.77,7.99,4.98,2.31.95,4.7,1.67,7.06,2.46,1.47.49,2.93,1.01,4.38,1.56,3.24,1.24,6,3.21,8.39,5.7,4.32,4.5,7.44,9.73,9.39,15.65.29.88.54,1.77.81,2.66.03.11.08.22.15.43.15-.21.26-.36.37-.52.77-1.18,1.11-2.5,1.26-3.88.21-1.93.13-3.85-.07-5.77-.26-2.48-.58-4.96-.86-7.44-.33-2.96-.34-5.91.05-8.86.36-2.75.83-5.47,1.75-8.09,2.39-6.84,6.25-12.68,11.93-17.24,2.85-2.29,6.04-3.97,9.51-5.11.08-.03.17-.04.38-.09-.38.33-.68.57-.97.83-.84.72-1.64,1.49-2.33,2.36-.69.88-1.23,1.84-1.63,2.87-.03.08-.05.16-.09.28,6.88-4.51,14.21-5.91,22.16-3.69-4.31,2.21-7.79,5.33-10.46,9.35-1.05,1.58-1.9,3.25-2.55,5.07.6-.21,2.22-1.93,3.47-3.65.99-1.36,1.85-2.79,2.55-4.33.08.7.05,1.39,0,2.09-.38,4.25-1.6,8.28-3.1,12.25-.05.13-.1.27-.15.4,0,.03.02.06.03.12,1.31-1.36,2.63-2.67,4.43-3.6-.11.23-.18.36-.25.49-1.51,2.69-2.42,5.58-2.95,8.61-.41,2.37-.55,4.76-.39,7.15.11,1.71.32,3.41.57,5.1.46,3.18.94,6.35.96,9.58.02,4.33-.65,8.56-1.83,12.72-.69,2.42-1.39,4.84-2.52,7.1-2.72,5.46-6.84,9.44-12.6,11.59-2.44.91-4.97,1.3-7.57,1.11-3.47-.25-6.54-1.51-9.17-3.81-.11-.09-.21-.19-.32-.28-.01-.01-.03,0-.1-.03-.17.51-.34,1.02-.5,1.52.02.05.02.09.04.11,1.19,1.04,1.67,2.42,1.84,3.92.27,2.38-.31,4.54-1.83,6.41-.84,1.04-1.73,2.04-2.64,3.02-1.71,1.84-3.5,3.63-5,5.65-.92,1.23-1.74,2.52-2.61,3.79-.44.65-.87,1.31-1.34,1.94-1.08,1.43-2.45,2.46-4.14,3.09-2.54.93-5.15,1.55-7.84,1.82-1.32.13-2.64.17-3.95-.02-.93-.13-1.81-.39-2.54-1.04-.41.11-.82.24-1.24.32-1.99.34-3.71-.19-5.13-1.62-.25-.25-.45-.55-.64-.86-.12-.2-.25-.3-.49-.33-2.66-.35-5.25-2.76-5.73-5.39-.3-1.62.07-3.15.87-4.58.08-.14.16-.28.24-.42,0-.01,0-.03,0-.09-.74.2-1.47.41-2.22.58-1.67.37-3.33.79-5.02,1.06-2.05.33-4.12.39-6.18-.04-1.2-.25-2.32-.69-3.21-1.59-.08-.08-.17-.15-.22-.24-.31-.6-.87-.87-1.45-1.15-1.87-.91-2.78-2.75-2.44-4.78.03-.15.04-.32,0-.46-.28-.8-.32-1.6-.15-2.43.02-.08.01-.17-.06-.29-.1.16-.2.32-.29.48-1.17,2.15-2.33,4.3-3.5,6.44-1.63,2.99-3.32,5.95-5.28,8.75-1.06,1.51-2.2,2.95-3.49,4.26-2.03,2.07-4.41,3.42-7.33,3.73Zm33.87-20.65c-.11-.06-.22-.11-.32-.17-.32-.2-.61-.44-.95-.59-.9-.42-1.84-.57-2.85-.45-1.08.13-2.1.43-3.04.94-.46.25-.91.58-1.27.96-.9.94-1.43,2.08-1.61,3.37-.08.57.03,1.09.39,1.56.52.69,1.21,1.15,2.01,1.45,1.14.43,2.33.64,3.55.64.87,0,1.74-.03,2.61-.1.78-.06,1.56-.14,2.32-.31,2.13-.48,4.25-1.02,6.38-1.54.17-.04.35-.11.48-.22,1.21-1.11,2.66-1.7,4.24-2.02.63-.13,1.26-.22,1.93-.34-.48-.31-.91-.59-1.33-.88-1.14-.78-2.12-1.74-3.06-2.74-.25-.26-.51-.44-.88-.42-.09,0-.18-.01-.26-.03-2.11-.43-4.1-1.17-6.04-2.1-1.92-.92-3.74-2-5.5-3.18-.2-.14-.43-.3-.66-.34-.97-.14-1.94-.25-2.91-.33-.84-.07-1.67.03-2.49.2-2.18.45-3.58,1.75-4.16,3.89-.15.55-.25,1.14.02,1.74.05-.06.1-.11.14-.16.63-1.13,1.55-1.94,2.69-2.52,1.1-.56,2.27-.9,3.51-1.04.88-.1,1.74-.11,2.59.13.47.14.9.35,1.22.74-1.33-.46-2.67-.53-4.05-.34-1.61.22-3.08.77-4.33,1.8-.98.81-1.64,1.85-1.71,3.15-.1,1.83.93,3.29,2.68,3.94.04.01.1-.02.16-.04,0-.11.02-.21.03-.32.08-1.99,1.01-3.52,2.56-4.71.74-.56,1.61-.83,2.48-1.1.9-.28,1.83-.3,2.75-.22.72.06,1.39.3,1.97.75.32.25.66.5.74.94,0,0,0,0,0,0Zm84.27-68.58c-.21.13-.44.24-.62.4-.69.67-1.37,1.35-2.05,2.03-.99.99-1.69,2.15-2.12,3.48-.72,2.21-1.17,4.47-1.3,6.79,0,.11-.04.22-.06.33-.04,0-.07,0-.11,0-.04-.36-.12-.72-.13-1.08-.02-1.41.19-2.8.53-4.17.37-1.47.81-2.92,1.6-4.23.15-.24.27-.51.38-.77.78-1.88,1.48-3.78,2.07-5.73.66-2.17,1.17-4.36,1.49-6.6.06-.38.08-.76.11-1.14-1.72,2.81-3.79,5.29-6.46,7.23,2.1-6.93,6.42-12.09,12.68-15.75-1.68-.39-3.29-.67-4.93-.68-1.05-.01-2.1.02-3.15.1-.9.07-1.8.19-2.69.36-1.58.3-3.11.79-4.6,1.38-1.95.77-3.78,1.77-5.46,3.01-.2.15-.4.39-.47.62-.23.77-.39,1.55-.58,2.33-.04.16-.06.31-.1.47-.03.13-.09.26-.13.39-.05-3.67,1.25-6.77,3.84-9.36-.09,0-.16,0-.22.04-1.04.51-2.09,1-3.11,1.55-2.36,1.28-4.46,2.94-6.4,4.79-.48.45-.9.96-1.36,1.44-1.04,1.08-1.97,2.25-2.83,3.47-1.41,2-2.65,4.1-3.66,6.33-.8,1.79-1.48,3.63-1.98,5.53-.56,2.14-.94,4.3-1.19,6.5-.17,1.51-.21,3.01-.21,4.52,0,1.59.12,3.16.33,4.74.17,1.29.31,2.58.45,3.86.14,1.31.34,2.61.39,3.92.06,1.62.16,3.25-.09,4.86-.12.79-.32,1.57-.56,2.33-.23.75-.61,1.44-1.12,2.05-.17.21-.19.41-.14.68.24,1.35.49,2.69.67,4.05.15,1.2.26,2.41.3,3.61.06,1.91.04,3.81-.19,5.71-.13,1.04-.19,2.09-.37,3.12-.24,1.42-.56,2.82-.87,4.23-.05.25-.02.41.16.56.59.49,1.15,1.01,1.77,1.45,2.54,1.79,5.42,2.57,8.49,2.62.99.02,1.98-.14,2.97-.28,2.84-.41,5.41-1.5,7.79-3.07,1.61-1.07,3.06-2.32,4.33-3.79,1.33-1.53,2.47-3.18,3.38-4.98,1.3-2.58,2.11-5.33,2.86-8.1.61-2.23,1.09-4.49,1.31-6.8.12-1.22.26-2.44.29-3.67.03-1.23-.05-2.46-.08-3.69-.04-1.39-.22-2.76-.42-4.14-.28-1.92-.55-3.83-.77-5.76-.15-1.32-.23-2.66-.3-3.99-.03-.58.04-1.17.08-1.76.06-.89.13-1.77.22-2.66.2-1.95.63-3.86,1.26-5.72.34-.99.74-1.97,1.11-2.95.02-.04.05-.09.07-.13,0,0-.02-.02-.04-.03-.03.04-.05.09-.08.13Zm-96.61,62.8s.06.05.09.07c.87-.79,1.9-1.26,3.05-1.46,1.19-.2,2.38-.18,3.58-.07.29.03.59.05.96.09-1.52-1.29-2.97-2.51-4.44-3.76-1.08,1.7-2.16,3.41-3.24,5.12Z" style="fill:#484747; stroke-width:0px;"/><path d="m35.3,95.68c-.1,3.04,1.34,5.11,4.12,6.41-.19.04-.31.07-.44.08-2.21.18-4.25-.38-6.15-1.46-2.5-1.42-4.31-3.43-5.18-6.21-.34-1.09-.44-2.2-.4-3.33,0-.19,0-.38,0-.64-2.44,1.9-5.21,2.41-8.25,2.26,2.28-2.42,3.96-5.14,5.13-8.2-.28-.13-.46.04-.63.13-1.61.81-2.82,2.03-3.75,3.56-.13.21-.24.43-.42.73-.14-.85-.14-1.61-.06-2.37.33-3.47,1.41-6.68,3.34-9.6.03-.04.04-.1.08-.18-1.7-1.48-3.12-3.22-4.35-5.11-1.22-1.88-2.21-3.85-2.6-6.1,1.58,1.52,3.41,2.59,5.51,3.18.73.21,1.47.39,2.35.42-.15-.11-.2-.17-.28-.2-3.33-1.38-6.07-3.57-8.51-6.18-2.85-3.05-5.1-6.51-7.01-10.2-2.67-5.18-4.54-10.65-5.83-16.32-.8-3.52-1.37-7.07-1.68-10.67-.15-1.78-.22-3.56-.28-5.34-.08-2.2.02-4.39.26-6.57.25-2.35.66-4.66,1.5-6.88.35-.94.79-1.83,1.43-2.62.35-.43.76-.8,1.28-1.03.71-.32,1.44-.32,2.12.04.56.3,1.12.65,1.58,1.09,1.03.97,2.02,1.97,2.98,3,5.06,5.49,11.2,9.22,18.36,11.28,2.53.73,5.07,1.45,7.58,2.27,3.24,1.05,6.3,2.47,9.13,4.38,1.35.91,2.65,1.88,3.67,3.17.02.03.06.03.13.07.37-.14.77-.29,1.16-.44,2.4-.91,4.9-1.51,7.38-2.16,5.96-1.55,10.86-4.76,14.72-9.57.1-.12.2-.24.36-.44.08,1.77-.04,3.43-.35,5.08-.31,1.63-.8,3.21-1.52,4.73.3.17.46.11.62-.16,1.07-1.89,2.58-3.35,4.39-4.52,1.64-1.06,3.37-1.94,5.14-2.74,4.55-2.07,8.81-4.62,12.72-7.74,1.77-1.42,3.46-2.93,5.01-4.59.33-.35.52-.72.65-1.19.61-2.19,1.97-3.74,4.12-4.51,2.14-.77,4.21-.02,5.45,1.89.61.94.96,1.98,1.24,3.06.35,1.41.53,2.84.62,4.28.2,3.03.08,6.06-.15,9.09-.27,3.63-.7,7.24-1.22,10.85-.65,4.43-1.46,8.83-2.88,13.09-.43,1.28-.94,2.53-1.44,3.84.84-.33,1.7-.6,2.69-.68-.1.11-.15.17-.21.21-1.42.96-2.49,2.24-3.36,3.7-1.69,2.82-2.69,5.89-3.12,9.15.12.7.17,1.42.37,2.1.37,1.28,1.02,2.43,1.73,3.55.58.92,1.19,1.82,1.78,2.73.1.15.17.31.25.47-.09,0-.2.04-.26,0-.2-.13-.38-.29-.56-.45-.75-1.19-1.51-2.37-2.25-3.57-.99-1.61-1.51-3.37-1.62-5.25-.07-1.24-.15-2.49-.21-3.73-.07-1.57-.31-3.11-.74-4.62-.69-2.44-1.79-4.69-3.19-6.8-.97-1.46-2.11-2.78-3.4-3.97-.13-.12-.24-.25-.36-.37.15-.02.27,0,.36.07.89.62,1.69,1.34,2.42,2.17,1.24,1.41,2.19,2.99,3.04,4.64.71,1.38,1.28,2.82,1.67,4.33.02.09.09.16.15.28,1.05-1.43,2.29-2.56,3.78-3.42.17-.1.32-.29.4-.48.45-1.05.92-2.09,1.3-3.16.84-2.35,1.5-4.75,1.98-7.2.33-1.69.65-3.38.94-5.08.22-1.28.38-2.57.55-3.85.17-1.27.36-2.53.5-3.8.16-1.47.31-2.93.43-4.4.1-1.26.2-2.52.21-3.78.02-1.83-.05-3.67-.08-5.51-.02-1.23-.19-2.45-.45-3.65-.29-1.35-.69-2.65-1.48-3.81-1.01-1.46-2.76-2.04-4.47-1.55-1.19.34-2.14,1.04-2.91,1.98-.45.55-.85,1.14-.99,1.87-.01.02-.03.04-.04.06.02-.01.04-.03.06-.04.09-.05.2-.08.28-.14.71-.53,1.49-.9,2.38-.99.53-.06,1.1.19,1.34.62-.02,0-.03.03-.05.02-.12-.02-.24-.04-.36-.07-.81-.22-1.56-.03-2.26.36-.45.25-.87.56-1.25.9-.47.43-.87.95-1.32,1.4-.78.78-1.57,1.56-2.39,2.29-.97.86-1.94,1.73-2.99,2.5-1.53,1.14-3.1,2.21-4.68,3.27-2.18,1.46-4.54,2.61-6.89,3.77-1.52.75-3.05,1.48-4.54,2.29-1.93,1.05-3.64,2.38-4.88,4.23-.2.3-.45.58-.52.94.06.04.09.07.12.08,1.8.36,3.55.9,5.27,1.55,1.69.64,3.33,1.38,4.8,2.43.44.32.93.59,1.21,1.08h0c-.07-.03-.14-.04-.2-.07-1.42-.9-2.92-1.65-4.45-2.32-2.36-1.03-4.8-1.79-7.32-2.32-.24-.05-.48-.08-.61-.1-.81,1.1-1.57,2.12-2.32,3.15.51.06,1.02.09,1.52.19,2.15.41,4.13,1.21,5.83,2.62,1.11.92,2.04,1.99,2.65,3.31.04.08.04.18.06.32-4.68-1.45-8.6-.32-11.82,3.31.07-.55.41-.93.73-1.29,1.26-1.42,2.84-2.31,4.66-2.79,1.3-.35,2.62-.49,3.96-.26.48.08.97.14,1.49.21-.11-.45-.4-.75-.66-1.05-1.33-1.58-3.02-2.64-4.96-3.33-1.13-.4-2.31-.59-3.49-.73-.42-.05-.78.04-1.14.32-.98.75-2.06,1.34-3.19,1.84-.38.17-.79.28-1.19.41.69-.49,1.44-.88,2.13-1.35,1.03-.7,2.1-1.36,3.02-2.2,1.42-1.29,2.3-2.98,2.98-4.76.77-2.01,1.13-4.11,1.28-6.25.01-.16-.01-.33-.02-.49-.04-.02-.08-.03-.12-.05-.1.13-.2.25-.3.38-1.06,1.29-2.3,2.39-3.59,3.43-1.83,1.46-3.82,2.67-5.96,3.64-1.17.53-2.36,1.01-3.6,1.34-1.07.28-2.15.49-3.21.8-1.54.44-3.07.93-4.59,1.42-.5.16-.99.37-1.49.56.15.39.28.73.41,1.07-.17-.04-.25-.12-.32-.22-.36-.44-.68-.91-1.08-1.33-.92-.97-1.96-1.81-3.06-2.58-2.71-1.89-5.67-3.31-8.79-4.34-2.65-.88-5.34-1.64-8.02-2.44-3.34-.99-6.56-2.27-9.58-4.05-2.59-1.52-4.97-3.33-7.12-5.43-1.56-1.52-3.05-3.11-4.58-4.65-.54-.55-1.15-1.02-1.87-1.31-.55-.22-1.11-.23-1.66.02-.67.31-1.12.87-1.51,1.47-.72,1.12-1.14,2.37-1.49,3.65-.43,1.58-.73,3.19-.87,4.82-.11,1.38-.26,2.76-.3,4.15-.06,2.1-.02,4.2.18,6.3.07.73.06,1.46.14,2.18.11,1.04.25,2.08.41,3.12.22,1.44.42,2.89.69,4.31.44,2.29.98,4.55,1.63,6.79,1.21,4.19,2.75,8.24,4.78,12.11,1,1.91,2.11,3.76,3.33,5.54,1.13,1.65,2.39,3.2,3.76,4.64,1.06,1.11,2.19,2.14,3.41,3.07,1.19.91,2.46,1.7,3.82,2.35.94.44,1.89.84,2.89,1.1.27.07.36.2.26.48-.92.14-1.85.05-2.76-.08-2.34-.35-4.5-1.18-6.42-2.68.5,2.61,4.38,8.08,6.4,9.35.5-.46.96-1,1.61-1.3-.03.11-.08.2-.14.28-.17.23-.33.47-.51.68-1.38,1.62-2.35,3.47-3.07,5.47-.45,1.24-.79,2.51-1.01,3.81-.1.62-.23,1.24-.13,1.91.5-.53.95-1.06,1.44-1.53.75-.71,1.59-1.33,2.6-1.64.38-.12.55-.35.63-.7.12-.54.25-1.07.38-1.61.09.21.17.42.14.62-.07.63-.12,1.28-.29,1.89-.7,2.47-2.03,4.62-3.51,6.69-.33.46-.69.89-1.12,1.43.51-.05.91-.09,1.31-.13.42-.05.85-.09,1.27-.17.4-.08.8-.19,1.19-.32.39-.12.78-.26,1.15-.42.37-.17.73-.37,1.08-.59.36-.23.69-.51,1.03-.76.31-.23.46-.63.87-.87-.71,3.79.19,6.31,1.87,8.51,1.62,2.12,6.13,4.47,7.66,3.94-.27-.24-.56-.46-.8-.72-.92-.99-1.52-2.15-1.8-3.47-.19-.9-.2-1.8.19-2.67.23.28.21.63.21.96Zm71.46-48.94c-.15.01-.23,0-.29.02-2.04.92-3.74,2.26-4.96,4.15-.14.22-.11.42-.08.66.14,1.09.26,2.18.38,3.27.05.51.08,1.01.12,1.52.91-3.54,2.28-6.84,4.82-9.63Z" style="fill:#494848; stroke-width:0px;"/><path d="m35.3,95.68c0-.33.03-.68-.21-.96-.01-.2-.03-.39-.04-.59-.02-.83-.14-1.68-.04-2.5.18-1.49.64-2.9,1.4-4.21.6-1.04,1.32-1.98,2.13-2.85.54-.56,1.15-1.06,1.75-1.55,1.38-1.15,2.94-2,4.63-2.59,1.55-.54,3.17-.76,4.82-.72.22,0,.44-.06.66-.1.18.21.36.42.54.63-2.21-.15-4.39.03-6.46.88-2.57,1.06-4.75,2.68-6.48,4.86-1.82,2.29-2.79,4.87-2.49,7.85.13,1.31.54,2.51,1.33,3.56.93,1.24,2.15,2.13,3.47,2.89,1.6.91,3.31,1.58,5.03,2.24,2.11.81,4.28,1.48,6.29,2.8-.57-2.11-1.89-3.57-3.48-4.84.68.18,1.26.52,1.75.99.18.17.36.25.62.23,1.07-.07,2.14-.11,3.21-.16,2.75-.12,5.49-.08,8.24.11.62.04,1.24.09,1.86.13-.05-.07-.12-.09-.18-.11-1.24-.32-2.49-.62-3.73-.96-.67-.19-1.32-.44-1.96-.7-.32-.13-.61-.34-.9-.71.17.04.23.05.3.07,1.21.38,2.39.83,3.62,1.13,4.3,1.04,8.54,2.28,12.72,3.72,2.26.78,4.55,1.45,6.91,1.86,0,.16.01.31.02.47-.85-.18-1.71-.34-2.56-.55-2.45-.59-4.81-1.46-7.2-2.23-1.26-.4-2.51-.84-3.8-1.08-2.39-.44-4.81-.61-7.24-.68-2.84-.09-5.67-.06-8.51.11-.22.01-.44.05-.73.08.94,1.31,1.63,2.62,1.58,4.22-.77-.76-1.68-1.29-2.64-1.71-.96-.42-1.93-.81-2.9-1.21-.7.58-1.36,1.13-2.02,1.68-2.07,1.75-3.56,3.89-4.3,6.51-.35,1.25-.7,2.51-1.05,3.76-.3,1.05-.65,2.08-1.26,3-.22.34-.49.64-.75.98.07.02.11.05.16.04.14,0,.29-.01.43-.03,1.23-.21,2.3-.74,3.23-1.57.25-.22.4-.48.51-.79.4-1.07.81-2.13,1.26-3.18.26-.6.62-1.17,1.11-1.63.4-.37.86-.6,1.44-.59-.03.06-.03.1-.06.12-.85.4-1.41,1.09-1.84,1.89-1.26,2.34-2.06,4.81-2.1,7.5-.02,1.36.03,2.71.21,4.06.34,2.53,1.02,4.95,2.27,7.2.9,1.62,1.78,3.26,2.63,4.91.59,1.14,1.07,2.33,1.28,3.62.02.15.05.29.09.55.19-.24.31-.38.42-.54.75-1.05,1.2-2.22,1.46-3.48.12-.57.24-1.14.2-1.75-.06-.91-.11-1.82-.07-2.73.03-.67.17-1.34.32-2,.08-.37.22-.74.59-1.05-.08.32-.14.56-.19.8-.27,1.39-.31,2.79-.25,4.21.04.95.18,1.88.47,2.79.52,1.62,1.26,3.14,1.99,4.67.91,1.94,1.84,3.86,2.68,5.83.62,1.45.99,2.98.98,4.58,0,.04.05.07.1.13.8-1.21,1.34-2.51,1.71-3.87.37-1.36.48-2.76.58-4.17,1.47,1.94,2.45,4.11,3.23,6.38.78,2.26,1.32,4.56,1.45,6.97,1.11-2.25,1.86-4.59,2.03-7.11.15.21.26.41.35.62.53,1.1,1.15,2.14,1.94,3.07.35.42.77.77,1.16,1.16-.04.2-.07.41-.11.61-.14-.06-.28-.12-.42-.18,0-.22-.06-.38-.32-.33-.07-.12-.12-.26-.21-.36-.73-.83-1.39-1.71-1.92-2.69-.04-.08-.12-.14-.17-.2-.23.89-.43,1.75-.67,2.6-.41,1.43-1.02,2.77-1.71,4.08-.11.2-.17.42-.26.64-.1.03-.21.07-.31.1.03-.46.09-.92.09-1.38,0-.58-.05-1.17-.1-1.75-.03-.44-.06-.89-.15-1.32-.35-1.76-.78-3.5-1.43-5.18-.51-1.31-1.06-2.6-1.77-3.82-.09-.15-.15-.35-.36-.41-.25,3.3-1.45,6.17-3.63,8.63,0-.23.04-.46.11-.67.39-1.15.31-2.31.09-3.47-.34-1.76-1.07-3.39-1.81-5-1.06-2.29-2.16-4.57-3.24-6.85-.08-.25-.15-.5-.23-.75-.06-.17-.19-.24-.4-.15-.07.25-.15.51-.23.78-.31.66-.6,1.33-.95,1.97-.38.69-.96,1.21-1.61,1.72.12-1.5-.2-2.9-.88-4.21-.18-.36-.36-.72-.54-1.08.07-.35-.23-.39-.42-.51.05-.01.1-.02.2-.05-.05-.11-.09-.22-.14-.32-.75-1.38-1.49-2.76-2.24-4.14-1.15-2.11-1.77-4.39-2.11-6.75-.25-1.75-.35-3.51-.21-5.28.05-.6.13-1.2.2-1.89-1.64,1.27-3.43,1.82-5.54,1.45.17-.1.27-.17.37-.22.9-.45,1.51-1.17,1.95-2.06.49-.98.78-2.03,1.07-3.07.29-1.03.56-2.06.86-3.09.73-2.48,2.09-4.55,4.02-6.26.55-.48,1.11-.95,1.67-1.42.15-.12.29-.25.49-.42-.53-.21-.99-.39-1.46-.56-1.66-.64-3.31-1.32-4.85-2.24-1-.59-1.93-1.28-2.73-2.13-.65-.7-1.17-1.48-1.53-2.37-.05-.12-.15-.23-.22-.34Z" style="fill:#656464; stroke-width:0px;"/><path d="m105.37,67.18c.19.15.36.31.56.45.06.04.17,0,.26,0,.18.22.35.44.54.65.59.64,1.01,1.4,1.27,2.21.47,1.44.87,2.9,1.3,4.35.32,1.09.61,2.2.96,3.28.46,1.4,1.08,2.72,2.38,3.75-1.81.16-3.43-.12-5.1-.72.02,2.4-.42,4.65-1.35,6.79-.95,2.16-2.3,3.99-4.26,5.52.39-2.11.58-4.11.09-6.23-.38,1.2-.7,2.3-1.08,3.36-.68,1.89-1.56,3.68-2.85,5.23-.19.23-.39.46-.58.7-.29.02-.3.25-.34.46-.51.16-.93.42-1.01,1.01-.06.51-.09,1.02-.14,1.53-.04.08-.09.15-.11.23-.18.61-.32,1.24-.54,1.83-.25.67-.55,1.34-1.15,1.8,0-.26,0-.52,0-.78.54-.62.81-1.38,1.02-2.15.54-2,.66-4.04.42-6.1-.05-.42-.12-.83-.19-1.31-.37.29-.67.54-.97.77-.68.51-1.46.8-2.24,1.11-.15.04-.3.09-.46.13-.07,0-.14.01-.21.02-.74.07-1.48.2-2.22.2-1.12,0-2.21-.26-3.27-.66l-.37.46c-.8,1.13-1.8,2.06-3.02,2.71-.79.42-1.65.73-2.48,1.09-.14.03-.28.07-.42.1-.39.04-.78.07-1.16.12-.37.04-.74.1-1.22.16.98.63,1.88,1.16,2.93,1.38.04.18.08.36.13.53-1.29-.31-2.44-.89-3.49-1.68-.25-.19-.5-.3-.82-.33-.98-.11-1.92-.36-2.83-.76-1.71-.74-3-1.98-4.07-3.46-.74-1.01-1.43-2.05-2.18-3.05-1.4-1.86-3.25-3.07-5.52-3.63-.12-.03-.24-.09-.43-.17,1.05-.13,1.93.09,2.78.52,1.55.78,2.78,1.92,3.8,3.31.73.99,1.42,2.01,2.15,3,.74,1,1.6,1.88,2.68,2.51,2.36,1.37,4.87,1.66,7.49.95,3.28-.9,5.47-2.96,6.52-6.2.03-.08.01-.17.02-.26.51.04,1.01.07,1.52.11-.33.05-.66.09-1.01.14-.27.63-.54,1.28-.81,1.92.06.04.09.07.12.08.06.03.13.06.2.09,1.82.64,3.66.74,5.51.18,1.9-.57,3.43-1.66,4.19-3.53.96-2.35.88-4.7-.42-6.94-.3-.52-.63-1.03-1.15-1.38-.04-.25-.07-.49-.11-.74.22.18.45.35.64.55,1.21,1.27,1.91,2.78,2.07,4.53.17,1.9-.12,3.7-1.24,5.3-.16.22-.19.43-.16.7.11,1.17.21,2.34.31,3.51.01.13.03.26.06.47.23-.2.39-.33.55-.47,1.29-1.19,2.2-2.66,2.93-4.24.92-2,1.53-4.11,2.03-6.25.03-.13.08-.25.12-.38.24.45.42.9.53,1.36.38,1.52.4,3.07.25,4.62-.02.18-.02.36-.03.53,1.99-1.82,3.19-4.05,3.88-6.58.69-2.52.73-5.03-.13-7.54.51.63.79,1.25.96,2.19.06.3.18.49.47.57.69.19,1.37.41,2.06.55.47.1.96.2,1.52.09-1.24-1.6-1.77-3.45-2.28-5.3-.28-1.03-.54-2.07-.82-3.1-.31-1.13-.65-2.26-1.2-3.31-.69-1.32-1.77-2.12-3.22-2.41-1.35-.27-2.66-.04-3.93.46.03-.21.05-.43.08-.64.43-.09.86-.18,1.3-.26.82-.16,1.64-.28,2.47-.06.51.13,1.02.29,1.53.43Z" style="fill:#656464; stroke-width:0px;"/><path d="m68.19,156.09c.27-.04.33.11.32.33-1.03,1.34-2.22,2.5-3.63,3.45-1.65,1.11-3.44,1.39-5.37.98-2.11-.44-4.07-1.31-5.95-2.33-2-1.08-3.9-2.3-5.67-3.72-.05-.04-.11-.08-.23-.16-.28.95-.77,1.69-1.71,1.99-.12.66-.22,1.29-.37,1.91-.19.79-.53,1.51-1,2.17-.41.57-.91,1.06-1.55,1.36-.29.13-.49.32-.68.57-1.72,2.19-4,3.17-6.76,2.92-2.35-.22-4.31-1.3-5.94-2.98-1.1-1.14-1.96-2.45-2.72-3.83-1.39-2.53-2.45-5.19-3.02-8.02-.14-.7-.21-1.41-.28-2.12-.12-1.21.22-2.33.8-3.38.78-1.44,1.82-2.68,2.99-3.82,1.89-1.85,4.01-3.37,6.43-4.46,1.54-.69,3.14-1.01,4.83-.93,1.91.09,3.8.34,5.69.61.37.05.74.12,1.11.18.2.12.5.16.42.51-.12-.01-.25-.02-.37-.04-.9-.13-1.79-.28-2.69-.39-1.15-.14-2.29-.29-3.45-.38-.78-.06-1.57-.07-2.35,0-1.29.12-2.49.59-3.65,1.16-1.77.87-3.36,2-4.84,3.3-1.55,1.37-2.9,2.89-3.86,4.74-.06.12-.08.26-.12.4,0,0,0,0,0,0l-.13.22c-.32.69-.43,1.44-.38,2.18.06.83.2,1.66.37,2.47.39,1.85,1.03,3.63,1.81,5.36.91,2.01,1.98,3.9,3.44,5.57.98,1.12,2.15,1.96,3.51,2.55,1.33.58,2.72.74,4.13.6,1.31-.13,2.47-.67,3.48-1.5.38-.31.75-.64,1.04-1.14-.24-.05-.42-.09-.61-.12-.25-.03-.5-.04-.74-.08-1.32-.2-2.49-.77-3.53-1.57-.73-.57-1.41-1.21-1.79-2.1-.09-.22-.15-.45-.22-.68.04-.02.08-.04.12-.06.11.15.22.3.32.45.57.83,1.25,1.55,2.07,2.13,1.13.8,2.38,1.26,3.75,1.44.97.13,1.8-.14,2.48-.85.72-.75,1.18-1.65,1.43-2.65.13-.51.31-1.02.17-1.62-.22,0-.43,0-.64,0-.25,0-.5-.01-.75-.05-1.08-.15-2.05-.58-2.99-1.1-1.06-.59-1.94-1.39-2.65-2.37-.19-.26-.37-.54-.4-.86.71.67,1.4,1.37,2.14,2,.94.79,1.99,1.39,3.2,1.66.57.13,1.15.26,1.73.28,1.35.04,2.14-.81,2.23-2.01.1-1.17-.19-2.26-.69-3.31-.82-1.73-1.98-3.2-3.39-4.49-.93-.85-1.91-1.6-2.99-2.24-.27-.16-.53-.33-.79-.5.8.06,1.49.39,2.13.81,2.1,1.39,3.8,3.16,5.07,5.34.58,1.01,1.08,2.09,1.14,3.25.04.73.26,1.21.85,1.57.09.05.17.13.25.2,1.4,1.04,2.85,2.02,4.39,2.85,2.34,1.27,4.7,2.45,7.41,2.76.82.09,1.59.03,2.36-.25.1-.03.21-.07.31-.1.38-.19.78-.34,1.14-.56,1.49-.93,2.7-2.16,3.8-3.51Z" style="fill:#484747; stroke-width:0px;"/><path d="m94.23,103.39c.6-.46.9-1.13,1.15-1.8.22-.59.36-1.22.54-1.83.02-.08.07-.15.11-.23.07.12.16.24.21.36.32.83.58,1.69.96,2.49.64,1.37,1.32,2.72,2.05,4.05.83,1.49,1.8,2.9,2.88,4.23.7.85,1.4,1.7,2.14,2.51.86.93,1.82,1.75,2.82,2.53,1.61,1.26,3.39,2.22,5.26,3.03,1.54.67,3.13,1.18,4.73,1.66,1.67.49,3.36.92,5.02,1.44,1.42.45,2.85.92,4.22,1.49,2.36.98,4.41,2.46,6.28,4.18,1.28,1.19,2.49,2.44,3.62,3.78,1.15,1.38,2.24,2.81,3.22,4.31.99,1.52,1.88,3.1,2.83,4.65.14.22.31.42.47.63,0,0,0,0,0,0,.04.11.07.22.11.33,0,0,0,0,0,0,.05.07.1.15.15.22.23.67.48,1.34.68,2.02.5,1.65.97,3.31,1.24,5.02.15.93.26,1.86.39,2.8.26,1.84.22,3.7.22,5.55,0,1.52-.13,3.02-.31,4.52-.23,1.96-.61,3.9-1.07,5.82-.65,2.7-1.79,5.18-3.22,7.54-.8,1.31-1.69,2.55-2.68,3.72-.45.53-.97,1-1.46,1.49-.11.11-.21.22-.29.36.66-.22,1.16-.67,1.65-1.12,1.15-1.06,2.02-2.35,2.86-3.65.98-1.53,1.87-3.12,2.53-4.82.02-.05.05-.09.1-.17.49.28.78.73.99,1.2.63,1.38.79,2.82.61,4.33-.21,1.74-.99,3.19-2.11,4.47-1.16,1.33-2.37,2.61-3.57,3.91-1.98,2.13-3.89,4.31-5.48,6.76-.63.97-1.25,1.95-1.91,2.9-.67.95-1.44,1.83-2.46,2.42-.64.38-1.33.69-2.03.96-1.96.73-3.98,1.21-6.04,1.52-1.18.18-2.37.32-3.56.29-.79-.02-1.59-.17-2.38-.29-1.16-.18-1.83-.93-2.22-2-.72-2-.59-3.97.31-5.87.73-1.53,1.97-2.5,3.59-2.98.72-.22,1.45-.34,2.2-.35-.5-.22-1.01-.33-1.54-.25-2.51.37-4.16,1.8-5.03,4.16-.41,1.1-.56,2.25-.47,3.41.07.87.3,1.72.66,2.52.07.16.14.32.23.53-.78.26-1.51.44-2.29.36-1.15-.12-2.17-.54-3.06-1.28-.47-.4-.84-.88-1.03-1.47-.41-1.26-.7-2.55-.63-3.88.14-2.46,1.19-4.41,3.39-5.64.67-.38,1.42-.57,2.19-.66.6-.07,1.21-.11,1.81-.1.51,0,1.01.1,1.54.07-.16-.07-.31-.15-.47-.2-1.61-.52-3.21-.43-4.75.21-2.44,1.01-3.75,2.95-4.11,5.51-.2,1.38-.07,2.77.33,4.11.03.11.04.23.07.38-.55,0-1.01-.19-1.45-.39-1.36-.62-2.49-1.53-3.26-2.83-.8-1.36-.93-2.81-.52-4.33.39-1.43,1.12-2.62,2.35-3.47.89-.62,1.88-1.01,2.94-1.22.89-.17,1.79-.3,2.68-.41.29-.03.6.05.88.13,1.67.49,3.34,1.02,5.02,1.47,1.55.41,3.12.72,4.72.83,1.3.08,2.6.14,3.9.09,1.09-.04,2.13-.36,2.99-1.13-.11.01-.22,0-.32.05-.89.35-1.8.55-2.75.59-.55.02-1.1.1-1.65.08-1.41-.04-2.8-.2-4.19-.44-2.62-.46-5.17-1.16-7.67-2.05-1.16-.41-2.17-1.07-3.12-1.83-.65-.52-1.3-1.07-1.87-1.67-1.32-1.38-2.45-2.91-3.36-4.61-.72-1.34-1.32-2.72-1.8-4.16-.58-1.74-1-3.52-1.24-5.35-.14-1.11-.27-2.23-.32-3.34-.07-1.62-.14-3.24-.08-4.86.06-1.65.23-3.29.48-4.93.39-2.58.98-5.1,1.84-7.56.87-2.52,2-4.91,3.45-7.15,1.12-1.73,2.39-3.33,3.9-4.73,1.64-1.51,3.47-2.74,5.59-3.47.96-.33,1.95-.53,2.96-.63,1.98-.19,3.82.25,5.6,1.03,1.6.7,2.99,1.72,4.3,2.87,2.34,2.06,4.17,4.52,5.76,7.18.95,1.58,1.77,3.22,2.34,4.97.02.05.05.09.15.13-.02-.15-.04-.3-.07-.45-.03-.16-.05-.32-.09-.47-.39-1.63-1.11-3.12-1.97-4.55-.86-1.44-1.79-2.83-2.87-4.12-1.63-1.95-3.42-3.73-5.6-5.08-1.69-1.05-3.5-1.79-5.48-1.98-1.42-.14-2.84-.05-4.24.33-2.08.57-3.93,1.57-5.6,2.92-.75.6-1.48,1.24-2.14,1.94-1.23,1.32-2.33,2.73-3.28,4.27-.89,1.45-1.66,2.95-2.33,4.51-.8,1.85-1.43,3.76-1.91,5.72-.43,1.73-.77,3.47-.97,5.24-.15,1.33-.31,2.65-.32,3.99,0,.96-.11,1.92-.07,2.88.05,1.38.19,2.77.29,4.15.11,1.51.4,2.99.76,4.46.76,3.11,1.97,6.02,3.82,8.66.22.31.45.63.62,1.03-.41-.09-.82-.15-1.22-.26-2.46-.67-4.76-1.7-6.98-2.93-2.24-1.24-4.33-2.68-6.32-4.28-.85-.68-1.63-1.44-2.43-2.17-.33-.3-.32-.35-.09-.73,1.13-1.82,2.29-3.61,3.38-5.45,1.12-1.88,2.23-3.78,3-5.84.32-.85.54-1.73.63-2.64.08-.76.17-1.52.18-2.28,0-.78-.08-1.56-.13-2.34-.03-.46-.09-.92-.14-1.38-.14-1.24-.32-2.47-.41-3.71-.15-2.06-.02-4.08.76-6.04.82-2.08,1.87-4.04,2.99-5.97.54-.93,1.08-1.85,1.31-2.91.03-.14.05-.28,0-.44-.05.08-.11.16-.16.24-.72,1.27-1.44,2.54-2.15,3.82-1.06,1.88-2.05,3.8-2.73,5.86-.52,1.58-.68,3.21-.55,4.85.12,1.5.36,3,.49,4.5.12,1.33.22,2.66.21,4,0,1.89-.43,3.7-1.24,5.42-1,2.13-2.18,4.17-3.43,6.17-1.72,2.75-3.47,5.48-5.19,8.23-1.62,2.6-3.22,5.21-4.65,7.93-1.35,2.57-2.78,5.1-4.22,7.62-1.29,2.26-2.73,4.43-4.33,6.48-.86,1.11-1.82,2.16-2.87,3.09-1.61,1.42-3.47,2.38-5.61,2.68-2.38.32-4.65-.02-6.72-1.31-1.08-.68-1.68-1.62-1.8-2.92-.2-2.15.44-3.98,1.99-5.46.89-.84,1.97-1.34,3.24-1.32.48,0,.95.03,1.44.05-.44-.32-.96-.42-1.49-.46-1.14-.09-2.15.27-3.04.95-1.74,1.33-2.63,3.11-2.65,5.29,0,.71.09,1.41.14,2.16-.07.01-.18.05-.3.06-1,.04-1.98,0-2.94-.4-1.31-.54-2.23-1.47-2.76-2.76-.62-1.49-.67-3.01-.11-4.54.36-1.01,1.01-1.81,1.83-2.46,1.32-1.05,2.85-1.61,4.54-1.62.44,0,.87.1,1.41.17-.15-.11-.23-.19-.33-.24-.92-.46-1.88-.46-2.86-.21-1.56.4-2.92,1.15-3.97,2.38-.74.87-1.26,1.86-1.4,3.01-.02.19-.08.38-.2.58-.14-.51-.32-1.01-.42-1.53-.29-1.48-.05-2.91.6-4.26.7-1.45,1.83-2.43,3.32-3.02,1.59-.63,3.26-.78,4.94-.64,1.67.14,3.3.53,4.86,1.15,1.1.44,2.08,1.1,3,1.83,1.74,1.37,3.04,3.09,4,5.08.22.46.39.96.58,1.44.03.08.07.15.17.34.04-.56-.06-.98-.17-1.39-.33-1.22-.98-2.29-1.74-3.28-1.45-1.88-3.26-3.32-5.4-4.39.05-.1.09-.2.15-.28,1.4-1.88,2.63-3.85,3.74-5.91,1.39-2.56,2.56-5.22,3.56-7.95.86-2.34,1.6-4.72,2.16-7.15.38-1.65.74-3.3.84-4.99.06-1.01.13-2.03.08-3.04-.07-1.22-.35-2.43-.72-3.6-.43-1.39-.9-2.78-1.34-4.17-.64-2-1.25-4.01-1.63-6.08-.13-.73-.19-1.48-.25-2.22-.06-.76-.12-1.53-.09-2.29.06-1.85.31-3.68.82-5.47.43-1.5,1.03-2.92,1.93-4.21.03-.04.04-.09.09-.2-.54.16-.76.63-1.12.91,0-.16-.02-.33.02-.48.41-1.57.9-3.11,1.67-4.55.2-.37.44-.71.66-1.06.1.11.11.2.11.28-.03.53-.05,1.06-.11,1.59-.07.67-.15,1.34-.26,2-.15.9-.28,1.79.02,2.68.04.13.06.27.09.41.42-.95.93-1.77,1.52-2.56,1.08-1.47,2.25-2.89,3.2-4.46.7-1.14,1.31-2.32,1.69-3.61.2-.68.37-1.37.56-2.07.52,1.29.49,2.64.52,4.01.45-.4.89-.79,1.23-1.25,1.03-1.37,1.75-2.89,2.25-4.52.18-.59.36-1.18.53-1.77.02.05.05.09.07.14.58,1.6,1.72,2.58,3.36,2.98,1.21.3,2.43.27,3.65.09,1.83-.26,3.24-1.21,4.33-2.67.67-.9,1.05-1.94,1.34-3.01.33-1.23.46-2.48.45-3.74Z" style="fill:gray; stroke-width:0px;"/><path d="m179.05,110.68c-.37.98-.78,1.95-1.11,2.95-.63,1.86-1.06,3.76-1.26,5.72-.09.88-.15,1.77-.22,2.66-.04.59-.11,1.17-.08,1.76.07,1.33.15,2.66.3,3.99.22,1.92.5,3.84.77,5.76.2,1.37.38,2.75.42,4.14.03,1.23.12,2.46.08,3.69-.03,1.22-.17,2.45-.29,3.67-.22,2.31-.7,4.57-1.31,6.8-.75,2.77-1.56,5.52-2.86,8.1-.91,1.81-2.05,3.45-3.38,4.98-1.27,1.46-2.72,2.72-4.33,3.79-2.38,1.57-4.95,2.66-7.79,3.07-.98.14-1.98.3-2.97.28-3.07-.06-5.95-.83-8.49-2.62-.62-.44-1.18-.97-1.77-1.45-.18-.15-.21-.32-.16-.56.31-1.41.63-2.81.87-4.23.18-1.03.24-2.08.37-3.12.23-1.9.25-3.81.19-5.71-.04-1.21-.15-2.41-.3-3.61-.17-1.36-.42-2.7-.67-4.05-.05-.27-.03-.48.14-.68.51-.61.89-1.3,1.12-2.05.24-.76.44-1.54.56-2.33.25-1.61.15-3.24.09-4.86-.05-1.31-.24-2.62-.39-3.92-.14-1.29-.28-2.58-.45-3.86-.21-1.57-.33-3.15-.33-4.74,0-1.51.04-3.02.21-4.52.25-2.2.63-4.36,1.19-6.5.5-1.9,1.18-3.73,1.98-5.53,1-2.24,2.24-4.34,3.66-6.33.86-1.22,1.79-2.4,2.83-3.47.46-.47.88-.98,1.36-1.44,1.95-1.85,4.04-3.5,6.4-4.79,1.02-.55,2.07-1.04,3.11-1.55.06-.03.12-.04.22-.04-2.59,2.59-3.89,5.69-3.84,9.36.04-.13.1-.26.13-.39.04-.15.06-.31.1-.47.19-.78.36-1.56.58-2.33.07-.23.26-.47.47-.62,1.69-1.24,3.52-2.24,5.46-3.01,1.49-.59,3.02-1.07,4.6-1.38.89-.17,1.79-.29,2.69-.36,1.05-.08,2.1-.12,3.15-.1,1.64.02,3.25.29,4.93.68-6.27,3.66-10.59,8.82-12.68,15.75,2.67-1.94,4.74-4.42,6.46-7.23-.04.38-.06.76-.11,1.14-.33,2.24-.84,4.44-1.49,6.6-.59,1.95-1.28,3.85-2.07,5.73-.11.26-.23.52-.38.77-.79,1.31-1.23,2.76-1.6,4.23-.34,1.37-.55,2.76-.53,4.17,0,.36.08.72.13,1.08.04,0,.07,0,.11,0,.02-.11.06-.22.06-.33.14-2.32.58-4.58,1.3-6.79.43-1.33,1.13-2.5,2.12-3.48.68-.68,1.36-1.36,2.05-2.03.17-.17.41-.27.62-.4.01.01.03.02.04.04Zm-23.58-5.48c-.15.16-.35.3-.44.5-.27.62-.55,1.24-.73,1.89-.42,1.49-.71,3-.89,4.54-.15,1.24-.31,2.47-.29,3.72.02,1.57.02,3.14.13,4.7.11,1.59.4,3.17.79,4.72.22.88.51,1.74.96,2.54.11.19.18.41.5.54-.11-.31-.18-.54-.27-.77-.61-1.71-1.02-3.47-1.29-5.27-.26-1.74-.41-3.49-.4-5.26,0-.66.05-1.31.09-1.97.07-1.01.11-2.03.24-3.03.23-1.73.58-3.43,1.09-5.1.18-.58.34-1.16.5-1.74.01-.05.02-.09.04-.14-.01.05-.03.09-.04.14Zm18.5,35.43s-.07,0-.11,0c-.02.05-.05.09-.06.14-.17,1.77-.51,3.51-.93,5.24-.63,2.62-1.53,5.15-2.8,7.54-1.19,2.23-2.64,4.26-4.54,5.95-1.34,1.2-2.82,2.17-4.47,2.86-.12.05-.24.13-.44.24,1.29-.11,2.33-.58,3.3-1.23,1.76-1.18,3.27-2.65,4.54-4.33,1.42-1.89,2.54-3.95,3.39-6.16.73-1.88,1.3-3.8,1.72-5.77.29-1.31.5-2.62.42-3.96,0-.17-.02-.34-.03-.51Zm-8.99.03s.07.04.11.05c.11-.12.23-.24.34-.37.53-.64.88-1.38,1.16-2.15.51-1.44,1.01-2.89,1.44-4.36.46-1.55.83-3.12,1.05-4.73.13-.93.22-1.87.34-2.8.15-1.16.13-2.3-.13-3.44-.03-.14-.1-.27-.15-.41.04,6.41-1.49,12.43-4.16,18.21Zm-13.23-17.59c-.07.14-.17.27-.2.42-.13.63-.29,1.25-.35,1.89-.11,1.25.02,2.49.23,3.72.29,1.72.72,3.41,1.35,5.04.39,1,.83,1.97,1.53,2.8.13.15.23.34.51.37-2.48-4.46-3.62-9.15-3.08-14.24Zm9.72,27.07c.64-.17,1.19-.47,1.67-.91.95-.87,1.73-1.89,2.43-2.97.65-1,1.27-2.02,1.84-3.07.56-1.03,1.13-2.07,1.47-3.2.13-.44.25-.89.16-1.44-.09.19-.15.31-.2.44-.82,2.03-1.79,4-2.94,5.87-.94,1.52-1.94,2.99-3.25,4.22-.39.36-.79.71-1.19,1.07Zm3.93-.83c-2.44,3.85-5.75,6.42-10.35,7.17.58.02,1.16.05,1.72-.04,1.99-.32,3.66-1.32,5.22-2.54.96-.75,1.79-1.63,2.55-2.57.47-.58.82-1.24.86-2.02Zm-18.5,8.83s-.04.08-.06.11c.23.16.44.36.68.49,1.25.67,2.63.87,4.01.96,1.01.06,2.03-.01,3.04-.09,1.05-.08,2.01-.45,2.86-1.09.09-.06.15-.16.22-.24-3.62,1.6-7.19,1.16-10.75-.15Z" style="fill:gray; stroke-width:0px;"/><path d="m69.04,155.99c-.39-.38-.81-.74-1.16-1.16-.79-.93-1.42-1.97-1.94-3.07-.1-.21-.2-.41-.35-.62-.17,2.52-.92,4.86-2.03,7.11-.13-2.4-.67-4.71-1.45-6.97-.78-2.27-1.76-4.43-3.23-6.38-.1,1.41-.21,2.81-.58,4.17-.37,1.36-.91,2.66-1.71,3.87-.05-.06-.1-.1-.1-.13,0-1.6-.36-3.13-.98-4.58-.84-1.97-1.77-3.9-2.68-5.83-.72-1.53-1.47-3.05-1.99-4.67-.29-.91-.43-1.83-.47-2.79-.06-1.41-.03-2.82.25-4.21.05-.24.11-.48.19-.8-.37.32-.51.69-.59,1.05-.14.66-.29,1.33-.32,2-.04.91,0,1.82.07,2.73.04.6-.08,1.17-.2,1.75-.26,1.25-.71,2.43-1.46,3.48-.11.15-.23.3-.42.54-.04-.25-.07-.4-.09-.55-.21-1.28-.69-2.47-1.28-3.62-.85-1.65-1.73-3.28-2.63-4.91-1.25-2.25-1.93-4.67-2.27-7.2-.18-1.35-.23-2.7-.21-4.06.03-2.69.84-5.16,2.1-7.5.43-.79.98-1.49,1.84-1.89.02-.01.03-.06.06-.12-.58,0-1.04.22-1.44.59-.49.46-.85,1.02-1.11,1.63-.46,1.04-.86,2.11-1.26,3.18-.12.31-.27.57-.51.79-.93.83-2,1.36-3.23,1.57-.14.02-.28.03-.43.03-.04,0-.09-.02-.16-.04.26-.34.53-.65.75-.98.61-.92.96-1.95,1.26-3,.36-1.25.7-2.51,1.05-3.76.74-2.63,2.23-4.76,4.3-6.51.65-.55,1.32-1.1,2.02-1.68.96.4,1.94.79,2.9,1.21.96.43,1.87.96,2.64,1.71.04-1.59-.65-2.91-1.58-4.22.29-.03.51-.07.73-.08,2.83-.17,5.67-.2,8.51-.11,2.43.08,4.85.24,7.24.68,1.29.24,2.55.68,3.8,1.08,2.39.77,4.75,1.64,7.2,2.23.85.21,1.71.37,2.56.55.04.63.08,1.26.12,1.88-.28,1.33-.6,2.64-1.09,3.91-.45,1.13-.99,2.21-1.72,3.19-.11.14-.18.34-.42.36-.08-1.22-.27-2.4-.74-3.51-.14-.33-.24-.67-.32-1.01-.2-.77-.48-1.49-1.01-2.1.08.34.2.67.28,1.02.14.61.35,1.22.34,1.83,0,.72-.17,1.45-.34,2.16-.5,2.08-1.53,3.91-2.76,5.63-.99,1.39-2.01,2.77-3.03,4.15-.02.03-.08.04-.2.09.16-1.14.36-2.2.46-3.28.1-1.08.11-2.16-.07-3.37-2.18,2.64-3.08,5.66-3.6,8.83-.23.84-.48,1.68-.68,2.53-.93,3.81-.9,7.62.03,11.44.58,2.37,1.4,4.67,2.13,7,.4,1.29.75,2.6,1.03,3.92.34,1.59.24,3.19.02,4.79Z" style="fill:#e4e5e5; stroke-width:0px;"/><path d="m94.74,179.22c-.08-.44-.42-.69-.74-.94-.58-.45-1.25-.69-1.97-.75-.93-.07-1.86-.06-2.75.22-.87.27-1.74.54-2.48,1.1-1.56,1.19-2.49,2.72-2.56,4.71,0,.11-.02.21-.03.32-.07.02-.12.06-.16.04-1.75-.66-2.78-2.11-2.68-3.94.07-1.3.73-2.35,1.71-3.15,1.25-1.03,2.72-1.58,4.33-1.8,1.38-.19,2.72-.13,4.05.34-.32-.39-.76-.61-1.22-.74-.85-.25-1.71-.24-2.59-.13-1.24.15-2.41.48-3.51,1.04-1.13.58-2.06,1.39-2.69,2.52-.03.06-.08.1-.14.16-.28-.6-.17-1.19-.02-1.74.58-2.14,1.98-3.45,4.16-3.89.82-.17,1.66-.27,2.49-.2.97.08,1.94.19,2.91.33.23.03.45.2.66.34,1.76,1.18,3.59,2.27,5.5,3.18,1.93.92,3.93,1.67,6.04,2.1.09.02.18.04.26.03.37-.02.64.16.88.42.94,1,1.92,1.97,3.06,2.74.42.29.86.57,1.33.88-.67.12-1.31.21-1.93.34-1.58.32-3.03.91-4.24,2.02-.12.11-.31.18-.48.22-2.12.52-4.24,1.06-6.38,1.54-.76.17-1.54.25-2.32.31-.87.07-1.74.1-2.61.1-1.22,0-2.41-.2-3.55-.64-.8-.3-1.48-.76-2.01-1.45-.36-.47-.47-.99-.39-1.56.18-1.29.71-2.43,1.61-3.37.36-.38.81-.71,1.27-.96.94-.51,1.96-.81,3.04-.94,1.01-.12,1.95.03,2.85.45.34.15.63.39.95.59.1.06.21.11.32.17.03.04.06.07.08.11-.03-.04-.05-.08-.08-.12Z" style="fill:#7f8080; stroke-width:0px;"/><path d="m142.73,140.87c-.16-.21-.34-.4-.47-.63-.94-1.55-1.84-3.13-2.83-4.65-.98-1.51-2.07-2.93-3.22-4.31-1.12-1.34-2.34-2.6-3.62-3.78-1.86-1.73-3.92-3.21-6.28-4.18-1.38-.57-2.8-1.05-4.22-1.49-1.66-.52-3.35-.95-5.02-1.44-1.6-.47-3.19-.99-4.73-1.66-1.87-.81-3.65-1.77-5.26-3.03-1-.78-1.96-1.6-2.82-2.53-.74-.81-1.45-1.66-2.14-2.51-1.08-1.32-2.05-2.73-2.88-4.23-.73-1.32-1.41-2.68-2.05-4.05-.38-.8-.64-1.66-.96-2.49-.05-.13-.14-.24-.21-.36.04-.51.07-1.02.14-1.53.07-.58.5-.84,1.01-1.01.21,1.18.63,2.3,1.07,3.41,1.44,3.55,3.37,6.8,5.81,9.75,2.54,3.06,5.64,5.37,9.27,6.99,2.56,1.14,5.23,1.98,7.89,2.85,2.34.76,4.67,1.54,6.87,2.67,1.71.88,3.25,1.99,4.68,3.27,3.11,2.8,5.57,6.1,7.59,9.75.85,1.53,1.62,3.1,2.25,4.73.06.15.08.31.12.46Z" style="fill:#a1a2a2; stroke-width:0px;"/><path d="m66.51,126.32c.52-3.18,1.42-6.2,3.6-8.83.17,1.21.17,2.29.07,3.37-.1,1.08-.3,2.15-.46,3.28.12-.05.18-.06.2-.09,1.01-1.38,2.03-2.75,3.03-4.15,1.23-1.72,2.26-3.55,2.76-5.63.17-.71.34-1.44.34-2.16,0-.61-.2-1.22-.34-1.83-.08-.34-.2-.67-.28-1.02.52.61.81,1.33,1.01,2.1.09.34.19.69.32,1.01.47,1.12.67,2.29.74,3.51.24-.02.31-.22.42-.36.73-.98,1.28-2.06,1.72-3.19.5-1.26.81-2.58,1.09-3.91.1.39.2.78.29,1.17-.18.59-.35,1.18-.53,1.77-.5,1.63-1.22,3.16-2.25,4.52-.35.46-.78.85-1.23,1.25-.04-1.37,0-2.72-.52-4.01-.19.69-.37,1.38-.56,2.07-.37,1.29-.99,2.47-1.69,3.61-.96,1.57-2.12,2.98-3.2,4.46-.58.79-1.1,1.61-1.52,2.56-.03-.14-.04-.28-.09-.41-.3-.89-.18-1.79-.02-2.68.11-.66.19-1.33.26-2,.05-.53.07-1.06.11-1.59,0-.08-.01-.16-.11-.28-.22.35-.46.7-.66,1.06-.77,1.43-1.26,2.98-1.67,4.55-.04.15-.01.32-.02.48-.27.45-.54.91-.81,1.36Z" style="fill:#656464; stroke-width:0px;"/><path d="m82.4,173.45c1.08-1.71,2.16-3.42,3.24-5.12,1.47,1.24,2.92,2.47,4.44,3.76-.38-.04-.67-.06-.96-.09-1.19-.11-2.39-.13-3.58.07-1.15.2-2.18.67-3.05,1.46-.03-.02-.06-.05-.09-.07Z" style="fill:#fcfcfc; stroke-width:0px;"/><path d="m142.84,141.2c-.04-.11-.07-.22-.11-.33.04.11.07.22.11.33Z" style="fill:#a1a2a2; stroke-width:0px;"/><path d="m179.01,110.65s.05-.09.08-.13c.01.01.04.03.04.03-.02.05-.05.09-.07.13-.01-.01-.03-.02-.04-.04Z" style="fill:gray; stroke-width:0px;"/><path d="m142.98,141.41c-.05-.07-.1-.15-.15-.22.05.07.1.15.15.22Z" style="fill:#a1a2a2; stroke-width:0px;"/><path d="m105.37,67.18c-.51-.14-1.01-.3-1.53-.43-.83-.21-1.65-.1-2.47.06-.43.09-.86.17-1.3.26.04-1.25.07-2.49-.19-3.73-.38-1.81-1.23-3.34-2.66-4.52-1.58-1.3-3.44-1.57-5.4-1.33-1.6.2-2.99.92-4.23,1.91-.39.31-.76.64-1.14.96-.03-.03-.06-.05-.09-.08.02-.05.03-.1.05-.15,1.6-2.86,4.81-4.56,7.97-4.13,1.85.25,3.34,1.08,4.38,2.66.07.1.14.19.21.29.02-.18,0-.33-.07-.48-.38-.9-.99-1.6-1.85-2.08-1.86-1.04-3.83-1.18-5.85-.61-2.87.81-4.73,2.75-5.86,5.44-.71,1.67-.95,3.43-.87,5.23.08,1.9.48,3.73,1.46,5.36.59.99,1.31,1.91,2.04,2.81,1.17,1.44,2.4,2.83,3.59,4.25.24.28.42.61.63.92-.26-.03-.52-.05-.77-.1-1.43-.29-2.86-.28-4.3-.12-2.09.23-4.08.79-5.92,1.83-.89.5-1.71,1.08-2.4,1.84-.07-.12-.18-.23-.2-.35-.45-2.19-1.28-4.23-2.42-6.14-.95-1.6-2.07-3.09-3.47-4.32-2.11-1.87-4.56-3.16-7.26-3.99-.44-.13-.81-.34-1.16-.62-2.48-2.03-5.32-2.96-8.52-2.81-1.57.07-3.01.53-4.36,1.31-1.09.63-1.97,1.48-2.5,2.64-.84,1.86-1.04,3.8-.68,5.8.32,1.79,1.09,3.38,2.18,4.83-.22.04-.44.11-.66.1-1.65-.04-3.26.18-4.82.72-1.69.59-3.25,1.44-4.63,2.59-.6.5-1.21.99-1.75,1.55-.82.86-1.53,1.81-2.13,2.85-.76,1.31-1.22,2.72-1.4,4.21-.1.82.02,1.66.04,2.5,0,.2.02.39.04.59-.39.87-.38,1.77-.19,2.67.28,1.32.88,2.48,1.8,3.47.24.26.52.48.8.72-1.53.53-6.03-1.82-7.66-3.94-1.68-2.19-2.58-4.72-1.87-8.51-.41.24-.56.64-.87.87-.34.25-.67.53-1.03.76-.34.22-.71.42-1.08.59-.37.17-.76.3-1.15.42-.39.12-.79.24-1.19.32-.42.08-.84.12-1.27.17-.4.05-.8.08-1.31.13.43-.54.79-.97,1.12-1.43,1.47-2.07,2.81-4.22,3.51-6.69.17-.61.22-1.26.29-1.89.02-.2-.05-.41-.14-.62-.13.54-.26,1.07-.38,1.61-.08.35-.25.58-.63.7-1.01.31-1.84.93-2.6,1.64-.5.47-.95,1-1.44,1.53-.1-.66.02-1.29.13-1.91.22-1.3.56-2.57,1.01-3.81.72-1.99,1.69-3.84,3.07-5.47.18-.22.34-.45.51-.68.06-.08.11-.17.14-.28-.65.3-1.11.84-1.61,1.3-2.02-1.27-5.9-6.74-6.4-9.35,1.92,1.5,4.08,2.33,6.42,2.68.91.14,1.83.22,2.76.08.1-.28.01-.41-.26-.48-1-.26-1.96-.66-2.89-1.1-1.36-.64-2.62-1.44-3.82-2.35-1.22-.93-2.35-1.96-3.41-3.07-1.38-1.45-2.63-2.99-3.76-4.64-1.22-1.78-2.32-3.63-3.33-5.54-2.03-3.87-3.57-7.92-4.78-12.11-.65-2.24-1.19-4.51-1.63-6.79-.28-1.43-.48-2.87-.69-4.31-.15-1.04-.3-2.08-.41-3.12-.08-.72-.07-1.46-.14-2.18-.2-2.1-.25-4.2-.18-6.3.04-1.38.19-2.77.3-4.15.13-1.63.43-3.24.87-4.82.35-1.27.77-2.52,1.49-3.65.39-.61.84-1.16,1.51-1.47.55-.26,1.11-.24,1.66-.02.72.29,1.33.77,1.87,1.31,1.53,1.54,3.02,3.14,4.58,4.65,2.15,2.09,4.53,3.9,7.12,5.43,3.02,1.77,6.23,3.05,9.58,4.05,2.68.8,5.37,1.56,8.02,2.44,3.12,1.04,6.08,2.45,8.79,4.34,1.1.77,2.13,1.61,3.06,2.58.39.41.72.88,1.08,1.33.07.09.16.17.32.22-.13-.34-.26-.68-.41-1.07.5-.19.98-.4,1.49-.56,1.53-.49,3.05-.98,4.59-1.42,1.06-.3,2.14-.52,3.21-.8,1.25-.32,2.43-.8,3.6-1.34,2.14-.97,4.13-2.18,5.96-3.64,1.3-1.03,2.53-2.14,3.59-3.43.1-.12.2-.25.3-.38.04.02.08.03.12.05,0,.16.03.33.02.49-.15,2.14-.51,4.24-1.28,6.25-.68,1.78-1.56,3.47-2.98,4.76-.92.83-1.99,1.5-3.02,2.2-.69.47-1.44.85-2.13,1.35.4-.14.8-.24,1.19-.41,1.13-.49,2.21-1.08,3.19-1.84.36-.28.72-.37,1.14-.32,1.18.14,2.36.32,3.49.73,1.93.69,3.62,1.75,4.96,3.33.26.31.55.61.66,1.05-.51-.07-1-.12-1.49-.21-1.34-.23-2.67-.08-3.96.26-1.81.48-3.4,1.37-4.66,2.79-.32.37-.66.74-.73,1.29,3.22-3.63,7.14-4.76,11.82-3.31-.03-.13-.02-.23-.06-.32-.61-1.32-1.53-2.39-2.65-3.31-1.7-1.41-3.68-2.21-5.83-2.62-.5-.1-1.01-.13-1.52-.19.76-1.03,1.51-2.05,2.32-3.15.13.02.37.05.61.1,2.52.52,4.96,1.28,7.32,2.32,1.54.67,3.04,1.42,4.45,2.32.06.04.13.04.2.07.03.03.07.05.01.01.06.02.02,0-.02,0-.29-.49-.77-.77-1.21-1.08-1.47-1.06-3.11-1.8-4.8-2.43-1.72-.65-3.47-1.19-5.27-1.55-.03,0-.06-.04-.12-.08.07-.36.32-.64.52-.94,1.24-1.85,2.95-3.18,4.88-4.23,1.49-.81,3.02-1.54,4.54-2.29,2.35-1.15,4.71-2.31,6.89-3.77,1.58-1.06,3.16-2.14,4.68-3.27,1.04-.77,2.02-1.64,2.99-2.5.82-.73,1.61-1.52,2.39-2.29.46-.45.85-.97,1.32-1.4.38-.35.8-.65,1.25-.9.7-.39,1.45-.58,2.26-.36.12.03.24.05.36.07.01,0,.03-.02.05-.02-.23-.43-.81-.68-1.34-.62-.9.1-1.67.46-2.38.99-.08.06-.19.09-.28.14,0,0-.02-.02-.02-.02.14-.72.54-1.32.99-1.87.77-.94,1.72-1.64,2.91-1.98,1.71-.49,3.46.09,4.47,1.55.8,1.16,1.2,2.46,1.48,3.81.25,1.2.43,2.42.45,3.65.03,1.84.09,3.67.08,5.51-.01,1.26-.11,2.52-.21,3.78-.12,1.47-.26,2.94-.43,4.4-.14,1.27-.33,2.54-.5,3.8-.18,1.28-.34,2.57-.55,3.85-.29,1.7-.61,3.39-.94,5.08-.47,2.45-1.13,4.85-1.98,7.2-.39,1.07-.85,2.11-1.3,3.16-.08.18-.23.38-.4.48-1.49.86-2.73,1.99-3.78,3.42-.06-.11-.13-.19-.15-.28-.38-1.51-.96-2.95-1.67-4.33-.84-1.65-1.8-3.23-3.04-4.64-.72-.82-1.52-1.55-2.42-2.17-.09-.06-.21-.09-.36-.07.12.12.23.25.36.37,1.29,1.19,2.43,2.51,3.4,3.97,1.4,2.11,2.49,4.36,3.19,6.8.43,1.51.67,3.05.74,4.62.05,1.24.13,2.49.21,3.73.11,1.88.64,3.64,1.62,5.25.73,1.2,1.5,2.38,2.25,3.57ZM5.84,37.3c.06.2.13.4.18.6.68,2.78,1.63,5.46,2.76,8.08,1.29,2.99,2.79,5.86,4.58,8.58,1.55,2.36,3.23,4.61,5.37,6.49.74.65,1.53,1.23,2.44,1.62.66.28,1.35.46,2.08.2.47-.17.81-.5,1.15-.83.61,1.7.68,3.35-.48,4.89.85-.35,1.22-1.04,1.31-1.87.14-1.41-.1-2.77-.59-4.09-.66-1.77-1.51-3.46-2.47-5.09-.09-.16-.17-.33-.25-.5.15-.03.23,0,.3.03.63.32,1.25.69,1.91.96.61.24,1.25.41,1.92.21.88-.25,1.52-1.18,1.3-2.05-.15-.58-.37-1.16-.65-1.68-.5-.92-1.07-1.81-1.61-2.71-.17-.28-.32-.57-.48-.86.03-.03.06-.06.09-.09.21.12.41.24.62.35.97.51,1.98.87,3.08.98.76.08,1.45-.03,2.08-.46.58-.4.79-1.04.54-1.69-.12-.31-.27-.63-.48-.89-.53-.65-1.11-1.25-1.65-1.89-.61-.72-1.19-1.46-1.78-2.19-.06-.07-.08-.17-.16-.35.18.1.25.13.33.18,1.15.65,2.34,1.22,3.67,1.41.89.13,1.78.14,2.6-.34.74-.44,1.28-1.56,1.09-2.33-.14-.59-.44-1.11-.92-1.47-.51-.38-1.05-.74-1.61-1.04-1.04-.55-2.11-1.04-3.15-1.59-.71-.37-1.39-.79-2.08-1.2-.17-.1-.31-.24-.56-.43,1.94-.12,3.63-.58,5.29-1.59-.23,0-.34-.02-.44,0-1.12.24-2.19.04-3.25-.32-1.8-.6-3.4-1.55-4.87-2.73-.31-.25-.61-.52-.84-.86.78.01,1.53.06,2.27.03.74-.04,1.48-.11,2.2-.33-1.88-.35-3.58-1.1-5.17-2.12-2.73-1.75-5.2-3.81-7.36-6.23-.98-1.1-1.9-2.26-2.87-3.38-.83-.96-1.67-1.91-2.67-2.69-.52-.41-1.08-.76-1.74-.91-.51-.12-1.02-.13-1.51.13-.7.37-1.15.94-1.41,1.67-.35.98-.48,2.01-.51,3.04-.07,1.98-.07,3.95.18,5.92.19,1.48.35,2.96.54,4.44.22,1.71.54,3.41.98,5.07.18.66.32,1.36.74,1.93Zm37.57,28.5c.08-.12.16-.23.24-.35,1.46-2.12,3.19-3.98,5.3-5.47,1.58-1.11,3.29-1.93,5.2-2.28.26-.05.52-.07.77-.11-.17-.22-.36-.37-.57-.48-2.47-1.33-5.92-.82-8.06,1.17-1.29,1.21-2.08,2.71-2.52,4.39-.27,1.01-.46,2.04-.36,3.11Zm54.94-15.01c-.52-1.1-2.22-2.97-3.71-3.74-2.92-1.52-6.07-.52-7.88,1.54-.31.35-.59.73-.73,1.21.08,0,.12.02.14,0,1.69-.72,3.45-.95,5.27-.86,1.35.07,2.66.31,3.93.72,1,.33,1.96.74,2.97,1.12Zm-42.57,12.97c-.65-.31-1.34-.3-2-.18-2.76.51-4.97,1.89-6.47,4.31-.81,1.31-1.26,2.74-1.09,4.32.02.22.05.43.24.59.05-2.54.85-4.75,2.74-6.47,1.85-1.68,4.08-2.46,6.58-2.57Z" style="fill:gray; stroke-width:0px;"/><path d="m106.76,46.73c-2.55,2.8-3.91,6.1-4.82,9.63-.04-.51-.07-1.02-.12-1.52-.12-1.09-.24-2.18-.38-3.27-.03-.24-.06-.44.08-.66,1.23-1.9,2.92-3.24,4.96-4.15.06-.03.13-.01.29-.02Z" style="fill:#7f8080; stroke-width:0px;"/><path d="m100.96,4.53s-.04.03-.06.04c.01-.02.03-.04.04-.06,0,0,.02.02.02.02Z" style="fill:gray; stroke-width:0px;"/><path d="m86.59,91.94c0,.09,0,.18-.02.26-1.05,3.25-3.25,5.31-6.52,6.2-2.62.72-5.13.42-7.49-.95-1.08-.63-1.94-1.51-2.68-2.51-.73-.99-1.42-2.01-2.15-3-1.02-1.39-2.25-2.53-3.8-3.31-.85-.43-1.73-.65-2.78-.52.2.08.31.14.43.17,2.27.56,4.12,1.77,5.52,3.63.75,1,1.45,2.04,2.18,3.05,1.08,1.48,2.37,2.71,4.07,3.46.91.39,1.85.64,2.83.76.31.04.57.14.82.33,1.05.79,2.21,1.38,3.49,1.68.03.14.08.27.1.41.24,1.49.11,2.99,0,4.48-2.36-.41-4.65-1.08-6.91-1.86-4.18-1.44-8.42-2.68-12.72-3.72-1.23-.3-2.41-.75-3.62-1.13-.06-.02-.13-.03-.3-.07.29.37.57.58.9.71.64.26,1.29.51,1.96.7,1.23.35,2.48.64,3.73.96.06.02.13.04.18.11-.62-.04-1.24-.09-1.86-.13-2.74-.18-5.49-.23-8.24-.11-1.07.05-2.14.1-3.21.16-.25.02-.43-.06-.62-.23-.5-.46-1.07-.81-1.75-.99,1.59,1.27,2.91,2.72,3.48,4.84-2-1.31-4.18-1.98-6.29-2.8-1.71-.66-3.42-1.33-5.03-2.24-1.33-.76-2.54-1.65-3.47-2.89-.79-1.06-1.2-2.25-1.33-3.56-.29-2.98.67-5.56,2.49-7.85,1.73-2.18,3.91-3.8,6.48-4.86,2.07-.85,4.25-1.03,6.46-.88,1.45,1.61,3.22,2.67,5.35,3.11.11.03.22.06.33.09.06,0,.13.02.19.03.15.03.3.06.45.09.33.05.66.1,1,.14,1.75.21,3.49.09,5.2-.35,1.39-.36,2.7-.91,3.85-1.79.82-.63,1.34-1.43,1.48-2.45.08-.63.14-1.28.1-1.92-.2-2.93-1.24-5.54-3.1-7.83-.08-.1-.15-.2-.26-.34.12.02.19.02.25.04,2.51.88,4.84,2.11,6.79,3.95,1.98,1.86,3.42,4.09,4.48,6.58.56,1.32.92,2.69,1.21,4.09-.13.25-.25.5-.4.74-.77,1.31-.63,2.19.58,3.1.54.41,1.12.76,1.71,1.09,1.47.82,2.95,1.64,4.45,2.43.64.34,1.32.6,1.99.9Z" style="fill:#e4e5e5; stroke-width:0px;"/><path d="m62.94,160.27c-.76.28-1.54.34-2.36.25-2.7-.31-5.07-1.49-7.41-2.76-1.54-.83-2.99-1.81-4.39-2.85-.09-.06-.16-.14-.25-.2-.59-.36-.82-.84-.85-1.57-.06-1.16-.56-2.24-1.14-3.25-1.26-2.18-2.97-3.96-5.07-5.34-.64-.42-1.32-.75-2.13-.81.26.17.52.34.79.5,1.08.63,2.06,1.39,2.99,2.24,1.41,1.29,2.57,2.75,3.39,4.49.5,1.05.78,2.14.69,3.31-.1,1.2-.88,2.05-2.23,2.01-.58-.02-1.16-.15-1.73-.28-1.21-.27-2.26-.87-3.2-1.66-.75-.63-1.43-1.33-2.14-2,.02.32.21.6.4.86.71.98,1.59,1.77,2.65,2.37.94.53,1.92.95,2.99,1.1.25.03.5.04.75.05.21,0,.42,0,.64,0,.14.6-.04,1.11-.17,1.62-.25,1-.71,1.9-1.43,2.65-.68.71-1.51.98-2.48.85-1.37-.18-2.62-.64-3.75-1.44-.83-.59-1.51-1.3-2.07-2.13-.1-.15-.22-.3-.32-.45-.04.02-.08.04-.12.06.07.23.13.46.22.68.38.88,1.05,1.53,1.79,2.1,1.04.8,2.21,1.38,3.53,1.57.25.04.49.05.74.08.18.03.37.07.61.12-.29.51-.67.83-1.04,1.14-1.01.83-2.18,1.37-3.48,1.5-1.42.14-2.81-.02-4.13-.6-1.36-.59-2.53-1.43-3.51-2.55-1.46-1.67-2.53-3.56-3.44-5.57-.78-1.73-1.42-3.5-1.81-5.36-.17-.82-.31-1.64-.37-2.47-.05-.74.06-1.49.38-2.18.04-.07.09-.15.13-.22,0,0,0,0,0,0,.11-.11.23-.21.33-.33.7-.82,1.39-1.66,2.11-2.46.27-.3.6-.56.91-.82.76-.64,1.48-1.33,2.29-1.91,1.36-.98,2.76-1.89,4.33-2.5,1.06-.41,2.15-.74,3.3-.74.26,0,.53.07.79.09,1.22.11,2.44.19,3.65.34,1.39.17,2.76.41,4.14.63.68,1.31,1.01,2.71.88,4.21.64-.51,1.23-1.03,1.61-1.72.35-.64.63-1.31.95-1.97.29.04.58.08.87.11,1.08,2.28,2.18,4.56,3.24,6.85.74,1.61,1.47,3.24,1.81,5,.23,1.16.31,2.32-.09,3.47-.07.21-.11.44-.11.67,2.18-2.46,3.38-5.33,3.63-8.63.21.05.27.26.36.41.71,1.22,1.26,2.51,1.77,3.82.66,1.68,1.08,3.42,1.43,5.18.09.43.11.88.15,1.32.05.58.09,1.17.1,1.75,0,.46-.06.92-.09,1.38Z" style="fill:gray; stroke-width:0px;"/><path d="m56.81,83.47c-.06,0-.13-.02-.19-.03-.11-.03-.22-.06-.33-.09-2.13-.45-3.9-1.5-5.35-3.11-.18-.21-.36-.42-.54-.63-1.08-1.45-1.85-3.04-2.18-4.83-.36-2.01-.17-3.95.68-5.8.53-1.16,1.41-2.01,2.5-2.64,1.35-.78,2.79-1.24,4.36-1.31,3.2-.15,6.04.78,8.52,2.81.35.29.72.49,1.16.62,2.69.83,5.14,2.12,7.26,3.99,1.4,1.24,2.52,2.72,3.47,4.32,1.14,1.92,1.97,3.95,2.42,6.14.03.13.13.24.2.35-.17.14-.34.27-.51.41-.29-1.4-.65-2.77-1.21-4.09-1.06-2.49-2.51-4.73-4.48-6.58-1.95-1.83-4.28-3.06-6.79-3.95-.06-.02-.13-.02-.25-.04.11.15.18.25.26.34,1.85,2.28,2.89,4.9,3.1,7.83.04.63-.02,1.28-.1,1.92-.14,1.02-.67,1.82-1.48,2.45-1.15.89-2.46,1.44-3.85,1.79-1.71.44-3.44.56-5.2.35-.33-.04-.66-.09-1-.14-.01-.03-.02-.07,0-.1.5.03.99.11,1.49.08.7-.04,1.4-.15,2.1-.22.46-.06.92-.1,1.38-.18,1.54-.26,2.99-.76,4.33-1.6,1.4-.88,1.97-2.14,1.85-3.76,0-.18.03-.35.02-.53-.15-2.58-1.02-4.9-2.52-6.99-1.13-1.58-2.55-2.84-4.36-3.6-2.02-.84-4.14-1.04-6.29-.74-1.19.17-2.33.53-3.33,1.23-1.13.79-1.96,1.79-2.37,3.13-.03.06-.07.12-.1.19-.52,1.41-.61,2.86-.33,4.32.46,2.42,1.53,4.51,3.36,6.18.34.31.75.53,1.12.79,0,0,0-.01,0-.01,0,.01-.01.03-.01.03,0,.02.02.03.04.05.24.13.47.26.71.38.57.28,1.14.58,1.72.84.38.17.8.27,1.2.4-.15,0-.3,0-.44,0Z" style="fill:#242424; stroke-width:0px;"/><path d="m46.44,138.41c-1.38-.21-2.76-.45-4.14-.63-1.21-.15-2.43-.23-3.65-.34-.26-.02-.53-.09-.79-.09-1.15,0-2.24.33-3.3.74-1.57.61-2.97,1.53-4.33,2.5-.8.58-1.53,1.27-2.29,1.91-.31.26-.64.52-.91.82-.72.81-1.41,1.64-2.11,2.46-.1.12-.22.22-.33.33.04-.13.06-.28.12-.4.95-1.85,2.31-3.37,3.86-4.74,1.48-1.3,3.07-2.44,4.84-3.3,1.16-.57,2.35-1.04,3.65-1.16.78-.07,1.57-.06,2.35,0,1.15.09,2.3.24,3.45.38.9.11,1.79.26,2.69.39.12.02.25.03.37.04.18.36.36.72.54,1.08Z" style="fill:#a1a2a2; stroke-width:0px;"/><path d="m80.6,106.07c.12-1.49.24-2.99,0-4.48-.02-.14-.06-.28-.1-.41-.04-.18-.08-.36-.13-.54-.06-.22-.11-.45-.18-.66-.11-.33-.24-.66-.36-1,.14-.03.28-.07.42-.1.75,1.6,1.03,3.28.97,5.04-.04,1.09-.07,2.17-.09,3.26,0,.79.13,1.56.38,2.31.5,1.52,1.56,2.43,3.1,2.79,1.03.24,2.07.27,3.13.12,2.15-.29,3.75-1.37,4.77-3.28.87-1.62,1.17-3.39,1.25-5.2.04-.87-.03-1.74-.08-2.61-.09-1.38-.4-2.71-.89-4-.29-.76-.65-1.5-.98-2.25.15-.04.3-.09.46-.13,1.26,2.4,1.93,4.96,1.97,7.68,0,.26,0,.52,0,.78,0,1.27-.12,2.52-.45,3.74-.29,1.07-.67,2.11-1.34,3.01-1.09,1.46-2.5,2.41-4.33,2.67-1.22.17-2.44.21-3.65-.09-1.64-.41-2.78-1.38-3.36-2.98-.02-.05-.05-.1-.07-.14-.1-.39-.2-.78-.29-1.17-.04-.63-.08-1.26-.12-1.88,0-.16-.01-.31-.02-.47Z" style="fill:#a95050; stroke-width:0px;"/><path d="m68.19,156.09c-1.09,1.36-2.31,2.58-3.8,3.51-.36.22-.76.38-1.14.56.09-.21.15-.44.26-.64.69-1.31,1.3-2.66,1.71-4.08.25-.85.45-1.72.67-2.6.05.06.13.12.17.2.53.98,1.19,1.85,1.92,2.69.09.1.14.24.21.36Z" style="fill:#7f8080; stroke-width:0px;"/><path d="m50.74,139.05c-.29-.04-.58-.08-.87-.11.08-.27.16-.53.23-.78.21-.1.34-.03.4.15.09.25.16.5.23.75Z" style="fill:#a1a2a2; stroke-width:0px;"/><path d="m99.99,67.72c1.27-.5,2.58-.73,3.93-.46,1.45.29,2.53,1.09,3.22,2.41.55,1.05.88,2.18,1.2,3.31.28,1.03.54,2.07.82,3.1.51,1.86,1.04,3.71,2.28,5.3-.55.11-1.04,0-1.52-.09-.7-.14-1.37-.37-2.06-.55-.29-.08-.42-.27-.47-.57-.18-.94-.45-1.56-.96-2.19.86,2.5.82,5.01.13,7.54-.69,2.53-1.89,4.75-3.88,6.58,0-.18.01-.36.03-.53.15-1.55.13-3.1-.25-4.62-.12-.46-.29-.91-.53-1.36-.04.13-.09.25-.12.38-.5,2.14-1.1,4.25-2.03,6.25-.73,1.58-1.64,3.05-2.93,4.24-.16.14-.32.28-.55.47-.02-.21-.04-.34-.06-.47-.1-1.17-.19-2.34-.31-3.51-.03-.26,0-.47.16-.7,1.12-1.6,1.41-3.4,1.24-5.3-.16-1.75-.86-3.26-2.07-4.53-.19-.2-.43-.37-.64-.55-.33-.53-.7-1.03-1.25-1.36-.12-.07-.22-.18-.33-.26-.12-.2-.22-.41-.36-.59-.74-.93-1.49-1.86-2.24-2.79-.11-.13-.21-.27-.36-.44.27-.04.47-.08.68-.11,2.11-.26,4.01-1.06,5.73-2.3,1.32-.95,2.26-2.2,2.86-3.71.33-.83.53-1.7.64-2.58Z" style="fill:#e4e4e4; stroke-width:0px;"/><path d="m91.81,95.06c.33.75.69,1.49.98,2.25.49,1.29.81,2.62.89,4,.05.87.12,1.74.08,2.61-.08,1.81-.37,3.58-1.25,5.2-1.03,1.91-2.62,2.99-4.77,3.28-1.06.14-2.1.12-3.13-.12-1.54-.36-2.61-1.27-3.1-2.79-.24-.75-.39-1.52-.38-2.31.01-1.09.05-2.17.09-3.26.06-1.75-.22-3.44-.97-5.04.83-.36,1.68-.67,2.48-1.09,1.22-.65,2.22-1.58,3.02-2.71.07.12.16.24.22.37,1.28,2.67,2.02,5.46,1.95,8.45-.03,1.24-.22,2.44-.62,3.61-.06.16-.1.33-.18.6.43-.34.59-.73.76-1.11.39-.88.46-1.83.52-2.77.1-1.59-.11-3.16-.47-4.71-.39-1.71-1.04-3.33-1.81-4.9,1.05.4,2.14.66,3.27.66.74,0,1.48-.13,2.22-.2.07,0,.14-.01.21-.02Z" style="fill:#fe9f9f; stroke-width:0px;"/><path d="m99.99,67.72c-.11.89-.31,1.75-.64,2.58-.6,1.51-1.54,2.76-2.86,3.71-1.72,1.24-3.61,2.04-5.73,2.3-.21.03-.41.07-.68.11.14.18.25.31.36.44.75.93,1.5,1.85,2.24,2.79.14.18.24.39.36.59-.29-.1-.59-.19-.88-.29,0-.04,0-.09,0-.13h0c-.21-.3-.39-.63-.63-.91-1.19-1.42-2.42-2.81-3.59-4.25-.73-.9-1.44-1.82-2.04-2.81-.98-1.64-1.38-3.46-1.46-5.36-.08-1.81.16-3.56.87-5.23,1.14-2.69,3-4.63,5.86-5.44,2.02-.57,3.99-.43,5.85.61.86.48,1.47,1.18,1.85,2.08.06.14.09.3.07.48-.07-.1-.14-.19-.21-.29-1.05-1.57-2.53-2.4-4.38-2.66-3.16-.43-6.37,1.27-7.97,4.13-.03.05-.04.1-.05.15-.01.07-.03.13-.04.2l.13-.12c.38-.32.75-.65,1.14-.96,1.25-1,2.64-1.72,4.23-1.91,1.96-.24,3.82.03,5.4,1.33,1.43,1.18,2.28,2.71,2.66,4.52.26,1.24.23,2.48.19,3.73-.03.21-.05.43-.08.64Zm-14.79-4.39c-.07.39-.14.78-.2,1.18-.16,1.55-.1,2.9.18,3.78.05-.27.08-.51.13-.76.18-.93.55-1.76,1.18-2.47,1.06-1.2,2.75-1.7,4.35-.85-.08.14-.17.27-.23.42-.31.78-.27,1.53.26,2.2.53.68,1.29.74,1.95.19.07-.05.14-.1.21-.15.12.59.31,1.17.35,1.77.1,1.47-.28,2.82-1.27,3.96-1.15,1.33-2.85,1.59-4.21.93-.09-.04-.18-.08-.28-.11.47.69.99,1.32,1.52,1.94.05.06.15.09.23.13.25.53.25.54.78.48.44-.05.87-.11,1.3-.19.27-.05.53-.13.8-.2.44-.15.88-.28,1.3-.44,1.1-.43,2.12-1.01,3.03-1.76,2.07-1.7,2.92-3.98,3-6.59.04-1.22-.08-2.42-.55-3.56-.25-1.02-.78-1.91-1.42-2.73-1-1.29-2.35-1.96-3.95-2.08-3.21-.25-5.8.98-7.85,3.43-.37.44-.57.93-.63,1.5Z" style="fill:#1c1c1c; stroke-width:0px;"/><path d="m94.74,82.6c.51.35.84.86,1.15,1.38,1.3,2.24,1.38,4.59.42,6.94-.77,1.87-2.3,2.96-4.19,3.53-1.85.56-3.69.47-5.51-.18-.07-.02-.13-.05-.2-.09-.03-.02-.06-.04-.12-.08.27-.64.54-1.29.81-1.92.36-.05.68-.1,1.01-.14.97-.16,1.74-.7,2.43-1.35,1.31-1.22,2.24-2.7,3.01-4.3.58-1.2,1.07-2.44,1.19-3.79Z" style="fill:#e4e4e4; stroke-width:0px;"/><path d="m94.74,82.6c-.12,1.35-.62,2.59-1.19,3.79-.76,1.6-1.7,3.08-3.01,4.3-.69.65-1.46,1.2-2.43,1.35-.51-.04-1.01-.07-1.52-.11-.66-.3-1.34-.56-1.99-.9-1.49-.79-2.97-1.6-4.45-2.43-.59-.33-1.17-.68-1.71-1.09-1.2-.91-1.35-1.79-.58-3.1.14-.24.27-.49.4-.74.17-.14.34-.27.51-.41.68-.76,1.51-1.34,2.4-1.84,1.84-1.04,3.83-1.6,5.92-1.83,1.44-.16,2.87-.17,4.3.12.25.05.51.07.77.1,0,0,0,0,0,0,0,.01-.02.03-.02.04,0,.03.02.06.02.09.29.1.59.19.88.29.11.09.21.19.33.26.55.33.92.83,1.25,1.36.04.25.07.49.11.74Zm-9.42,6.64c-.07-.16-.12-.34-.22-.48-.35-.49-.7-.97-1.07-1.45-.51-.66-1.15-1.15-1.95-1.41-.65-.21-1.22.19-1.26.87-.02.35.02.67.22.97.07.18.15.36.22.54.15.41.43.65.82.85.97.49,1.9,1.05,2.85,1.56.41.22.81.5,1.36.55-.28-.74-.48-1.44-.97-2Zm-4.71-.96l.02.04.02-.02s-.04-.02-.04-.02c-.09-.4-.18-.79-.27-1.19-.13-.57.23-1.31.75-1.57.53-.26,1.04-.15,1.54.07,1.04.45,1.73,1.29,2.37,2.17.76,1.06,1.45,2.16,1.75,3.45.05.22.18.37.45.38.65.03,1.29,0,1.85-.37.44-.3.86-.62,1.28-.96.1-.08.2-.22.23-.35.17-.71.38-1.41.34-2.15-.01-.3.05-.6.08-.9,0-.11.02-.22,0-.32-.22-.91,0-1.8.06-2.7,0-.12.06-.24.11-.35.21-.42.49-.74.99-.8.52-.05.87.23,1.09.63.17.3.23.66.34,1,.03.09.06.18.11.33.37-.42.32-.93.53-1.33,0-.3.02-.61,0-.91-.01-.17-.05-.36-.13-.51-.22-.39-.51-.72-.89-.98-.84-.57-1.79-.83-2.76-.89-1.54-.11-3.09-.1-4.62.22-2.17.45-4.2,1.21-5.93,2.63-.74.61-1.37,1.29-1.79,2.16-.31.66-.23,1.24.28,1.76.22.22.5.4.75.6.5.28,1,.57,1.5.85Zm10.66.88c.67-.75,1.15-1.59,1.64-2.43.18-.32.27-.65.24-1.02-.02-.32-.02-.64,0-.96.02-.41-.12-.77-.29-1.12-.13-.26-.31-.45-.61-.45-.31,0-.6.23-.68.58-.07.31-.13.63-.13.94-.03,1.49.08,2.98-.17,4.46Z" style="fill:#110708; stroke-width:0px;"/><path d="m94.23,102.61c-.04-2.72-.7-5.28-1.97-7.68.78-.31,1.56-.6,2.24-1.11.31-.23.61-.48.97-.77.07.48.14.9.19,1.31.24,2.06.12,4.1-.42,6.1-.21.77-.48,1.53-1.02,2.15Z" style="fill:#e1e3e3; stroke-width:0px;"/><path d="m86.12,94.63c.77,1.57,1.41,3.19,1.81,4.9.36,1.55.57,3.12.47,4.71-.06.94-.13,1.88-.52,2.77-.17.38-.33.77-.76,1.11.08-.27.12-.43.18-.6.4-1.17.59-2.37.62-3.61.07-2.99-.66-5.78-1.95-8.45-.06-.13-.14-.24-.22-.37.12-.15.25-.31.37-.46Z" style="fill:#a95050; stroke-width:0px;"/><path d="m79.83,98.99c.12.33.25.66.36,1,.07.22.12.44.18.66-1.05-.21-1.94-.75-2.93-1.38.48-.06.85-.12,1.22-.16.39-.05.77-.08,1.16-.12Z" style="fill:#461d21; stroke-width:0px;"/><path d="m24.58,146.12c-.04.07-.09.15-.13.22.04-.07.09-.15.13-.22Z" style="fill:#a1a2a2; stroke-width:0px;"/><path d="m173.97,140.63c.01.17.02.34.03.51.08,1.34-.14,2.66-.42,3.96-.43,1.97-1,3.89-1.72,5.77-.86,2.2-1.97,4.27-3.39,6.16-1.27,1.69-2.78,3.15-4.54,4.33-.97.65-2.02,1.12-3.3,1.23.2-.11.32-.19.44-.24,1.66-.69,3.13-1.67,4.47-2.86,1.9-1.69,3.35-3.72,4.54-5.95,1.27-2.39,2.16-4.92,2.8-7.54.42-1.73.76-3.47.93-5.24,0-.05.04-.09.06-.14.04,0,.07,0,.11,0Z" style="fill:#454545; stroke-width:0px;"/><path d="m155.47,105.21c-.17.58-.33,1.16-.5,1.74-.51,1.67-.86,3.37-1.09,5.1-.13,1-.17,2.02-.24,3.03-.04.66-.09,1.31-.09,1.97-.01,1.76.14,3.51.4,5.26.27,1.8.68,3.56,1.29,5.27.08.23.16.46.27.77-.32-.13-.4-.35-.5-.54-.45-.8-.73-1.66-.96-2.54-.4-1.55-.68-3.13-.79-4.72-.11-1.56-.11-3.13-.13-4.7-.02-1.25.14-2.48.29-3.72.18-1.54.47-3.06.89-4.54.18-.65.46-1.27.73-1.89.08-.19.29-.33.44-.5h0Z" style="fill:#454545; stroke-width:0px;"/><path d="m164.98,140.66c2.66-5.78,4.2-11.8,4.16-18.21.05.14.11.27.15.41.27,1.14.28,2.29.13,3.44-.12.93-.22,1.87-.34,2.8-.22,1.61-.59,3.18-1.05,4.73-.43,1.47-.93,2.91-1.44,4.36-.27.77-.63,1.51-1.16,2.15-.11.13-.23.25-.34.37-.04-.02-.07-.04-.11-.05Z" style="fill:#454545; stroke-width:0px;"/><path d="m151.75,123.07c-.54,5.09.6,9.78,3.08,14.24-.28-.03-.39-.22-.51-.37-.7-.83-1.15-1.79-1.53-2.8-.63-1.63-1.06-3.32-1.35-5.04-.21-1.23-.34-2.48-.23-3.72.05-.63.22-1.26.35-1.89.03-.15.13-.28.2-.42Z" style="fill:#454545; stroke-width:0px;"/><path d="m161.46,150.14c.4-.36.8-.7,1.19-1.07,1.31-1.23,2.31-2.7,3.25-4.22,1.16-1.87,2.12-3.83,2.94-5.87.05-.12.11-.25.2-.44.09.55-.03,1-.16,1.44-.34,1.13-.91,2.17-1.47,3.2-.57,1.05-1.19,2.07-1.84,3.07-.7,1.08-1.48,2.09-2.43,2.97-.48.44-1.03.74-1.67.91Z" style="fill:#454545; stroke-width:0px;"/><path d="m165.39,149.31c-.04.79-.39,1.45-.86,2.02-.76.94-1.59,1.82-2.55,2.57-1.56,1.22-3.23,2.22-5.22,2.54-.56.09-1.13.07-1.72.04,4.59-.75,7.91-3.32,10.35-7.17Z" style="fill:#454545; stroke-width:0px;"/><path d="m146.89,158.14c3.56,1.3,7.13,1.75,10.75.15-.07.08-.14.17-.22.24-.85.64-1.81,1.01-2.86,1.09-1.01.08-2.03.15-3.04.09-1.38-.09-2.76-.29-4.01-.96-.24-.13-.45-.32-.68-.49.02-.04.04-.08.06-.11Z" style="fill:#454545; stroke-width:0px;"/><path d="m155.47,105.2s.03-.09.04-.14c-.01.05-.02.09-.04.14,0,0,0,0,0,0Z" style="fill:#454545; stroke-width:0px;"/><path d="m94.74,179.22s.05.08.08.12c-.03-.04-.06-.07-.08-.11,0,0,0,0,0,0Z" style="fill:#484747; stroke-width:0px;"/><path d="m24.39,62.04c-.34.34-.68.67-1.15.83-.73.26-1.41.08-2.08-.2-.91-.39-1.7-.97-2.44-1.62-2.14-1.88-3.82-4.13-5.37-6.49-1.78-2.72-3.29-5.59-4.58-8.58-1.13-2.62-2.09-5.3-2.76-8.08-.05-.2-.12-.4-.18-.6-.02-.11-.02-.21-.05-.32-.59-2.2-.96-4.45-1.25-6.71-.22-1.77-.4-3.54-.57-5.31-.18-1.9-.23-3.8-.05-5.71.08-.8.19-1.59.49-2.34.15-.37.31-.72.67-.93.25.02.5.02.74.06,1.06.18,1.83.86,2.53,1.59.54.56,1,1.2,1.46,1.83,1.17,1.61,2.43,3.15,3.87,4.54.79.77,1.58,1.54,2.4,2.28.56.51,1.17.98,1.76,1.46.43.35.88.68,1.32,1.02-.01.03-.03.06-.04.1-.66-.11-1.32-.22-2.02-.33.24.72,2.32,2.9,3.58,3.84,1.41,1.04,2.84,2.04,4.48,2.7-.41.12-.81.11-1.21.05-.4-.06-.8-.11-1.21-.17-.01,0-.03-.02-.04-.03.01,0,.03.02.04.02.26.31.5.65.79.94,1.22,1.21,2.55,2.27,4.04,3.12.88.5,1.82.89,2.73,1.33.8.38,1.64.7,2.4,1.16.58.36,1.11.85,1.21,1.62-.23.61-.73.89-1.32,1.04-.64.17-1.28.09-1.9-.05-1.71-.38-3.25-1.14-4.58-2.29-.15-.13-.31-.24-.46-.36-.02-.01-.03-.03-.05-.04.01.02.02.03.03.05,0,.07,0,.15.01.22-.24.43,0,.84.1,1.23.53,1.95,1.7,3.52,3.18,4.85.56.5,1.1,1,1.48,1.65-.25.43-.67.58-1.12.62-.42.04-.86.04-1.28-.03-1.65-.3-3.1-1.02-4.27-2.26-.12-.13-.26-.25-.43-.4-.02.14-.03.19-.03.24,0,.33-.07.67,0,.98.25,1.29.92,2.41,1.52,3.55.32.6.67,1.17.96,1.78.3.64.54,1.31.54,2.03-.25.08-.5.24-.74.23-.46-.03-.93-.09-1.35-.25-1.26-.48-2.38-1.2-3.36-2.15-.23-.22-.43-.46-.64-.7l-.1.08c.06.12.11.25.18.36.44.8.88,1.59,1.33,2.38.92,1.63,1.83,3.27,2.47,5.03.13.36.21.75.31,1.13Z" style="fill:#ff9f9f; stroke-width:0px;"/><path d="m25.65,41.46c.15.12.32.23.46.36,1.33,1.16,2.87,1.91,4.58,2.29.63.14,1.27.21,1.9.05.59-.16,1.09-.43,1.32-1.04.36-.67.29-1.32-.21-1.88-.27-.3-.58-.6-.93-.8-.94-.54-1.91-1.05-2.88-1.53-1.46-.72-2.92-1.43-4.16-2.5-.23-.2-.44-.43-.72-.7.57,0,1.03.02,1.49,0,.44-.02.89-.06,1.33-.14.43-.08.86-.21,1.29-.31-.12-.12-.22-.16-.32-.18-2.91-.7-5.35-2.21-7.4-4.37-.21-.22-.38-.48-.57-.72.02-.03.05-.06.07-.09,1.04.32,2.1.43,3.18.37-.09-.1-.19-.16-.29-.21-.88-.46-1.8-.87-2.64-1.4-3.65-2.3-6.71-5.24-9.39-8.59-.91-1.14-1.88-2.24-2.96-3.23-.53-.48-1.1-.92-1.78-1.17-.7-.26-1.36-.25-1.91.33-.36.21-.52.57-.67.93-.3.75-.41,1.55-.49,2.34-.18,1.9-.13,3.81.05,5.71.16,1.77.35,3.54.57,5.31.28,2.26.65,4.51,1.25,6.71.03.1.03.21.05.32-.42-.57-.56-1.27-.74-1.93-.44-1.67-.77-3.36-.98-5.07-.19-1.48-.35-2.96-.54-4.44-.25-1.97-.25-3.95-.18-5.92.04-1.03.16-2.06.51-3.04.26-.74.71-1.3,1.41-1.67.49-.26.99-.25,1.51-.13.66.15,1.22.51,1.74.91,1,.78,1.85,1.73,2.67,2.69.97,1.12,1.89,2.27,2.87,3.38,2.16,2.42,4.63,4.48,7.36,6.23,1.59,1.02,3.29,1.77,5.17,2.12-.72.23-1.47.29-2.2.33-.74.04-1.49-.01-2.27-.03.22.34.53.61.84.86,1.47,1.19,3.07,2.13,4.87,2.73,1.06.36,2.13.56,3.25.32.1-.02.21,0,.44,0-1.66,1-3.35,1.47-5.29,1.59.25.19.39.33.56.43.69.41,1.37.83,2.08,1.2,1.04.55,2.12,1.04,3.15,1.59.56.3,1.1.66,1.61,1.04.48.36.78.88.92,1.47.19.77-.35,1.9-1.09,2.33-.82.48-1.7.47-2.6.34-1.33-.19-2.52-.76-3.67-1.41-.07-.04-.15-.08-.33-.18.08.19.1.28.16.35.59.73,1.18,1.47,1.78,2.19.54.64,1.12,1.24,1.65,1.89.21.26.36.57.48.89.25.64.03,1.29-.54,1.69-.63.43-1.32.54-2.08.46-1.1-.11-2.11-.47-3.08-.98-.21-.11-.41-.23-.62-.35-.03.03-.06.06-.09.09.16.29.31.58.48.86.54.9,1.11,1.79,1.61,2.71.28.53.5,1.1.65,1.68.22.87-.42,1.8-1.3,2.05-.68.19-1.32.03-1.92-.21-.66-.26-1.27-.63-1.91-.96-.07-.04-.15-.06-.3-.03.08.17.16.34.25.5.96,1.63,1.81,3.32,2.47,5.09.49,1.32.73,2.68.59,4.09-.08.83-.45,1.52-1.31,1.87,1.16-1.54,1.09-3.19.48-4.89-.1-.38-.18-.76-.31-1.13-.64-1.77-1.55-3.4-2.47-5.03-.45-.79-.89-1.59-1.33-2.38-.07-.12-.12-.24-.18-.36l.1-.08c.21.23.42.48.64.7.97.94,2.1,1.66,3.36,2.15.42.16.9.23,1.35.25.24.01.49-.15.74-.23.05-.03.1-.05.13-.08.48-.46.54-1.05.34-1.63-.2-.57-.48-1.11-.77-1.63-.67-1.19-1.39-2.36-2.06-3.55-.26-.46-.44-.97-.66-1.45,0-.05.01-.1.03-.24.17.15.31.27.43.4,1.17,1.23,2.61,1.95,4.27,2.26.41.08.85.07,1.28.03.45-.04.87-.19,1.12-.62.31-.3.25-.66.11-.99-.14-.32-.33-.63-.56-.9-.61-.71-1.26-1.4-1.89-2.1-.8-.89-1.53-1.82-2.04-2.92-.13-.27-.25-.55-.37-.82,0-.07,0-.15-.01-.22,0,0,.02,0,.02,0Z" style="fill:#494545; stroke-width:0px;"/><path d="m43.41,65.79c-.1-1.07.09-2.1.36-3.11.45-1.69,1.23-3.19,2.52-4.39,2.14-2,5.59-2.5,8.06-1.17.21.11.4.26.57.48-.26.03-.52.06-.77.11-1.91.35-3.62,1.17-5.2,2.28-2.11,1.49-3.84,3.35-5.3,5.47-.08.12-.16.23-.24.35Z" style="fill:#1c1c1c; stroke-width:0px;"/><path d="m98.35,50.78c-1.01-.38-1.98-.8-2.97-1.12-1.27-.42-2.58-.65-3.93-.72-1.83-.1-3.59.13-5.27.86-.03.01-.07,0-.14,0,.14-.48.42-.86.73-1.21,1.81-2.06,4.96-3.06,7.88-1.54,1.49.77,3.19,2.64,3.71,3.74Z" style="fill:#1c1c1c; stroke-width:0px;"/><path d="m55.78,63.76c-2.5.11-4.74.89-6.58,2.57-1.88,1.72-2.68,3.93-2.74,6.47-.19-.17-.22-.38-.24-.59-.17-1.57.28-3.01,1.09-4.32,1.5-2.41,3.7-3.8,6.47-4.31.66-.12,1.35-.13,2,.18Z" style="fill:#242424; stroke-width:0px;"/><path d="m84.24,31.09s.08.02.02,0c.05.04.02.01-.01-.01,0,0,0,0,0,0Z" style="fill:#494848; stroke-width:0px;"/><path d="m56.81,83.47c.15,0,.3,0,.44,0,0,0,0,0,0,0,0,.03,0,.07,0,.1-.15-.03-.3-.06-.45-.09Z" style="fill:#386f6c; stroke-width:0px;"/><path d="m56.29,83.35c.11.03.22.06.33.09-.11-.03-.22-.06-.33-.09Z" style="fill:#386f6c; stroke-width:0px;"/><path d="m49.55,70.29c.41-1.33,1.25-2.34,2.37-3.13,1-.7,2.14-1.06,3.33-1.23,2.16-.31,4.27-.11,6.29.74,1.81.76,3.22,2.02,4.36,3.6,1.5,2.09,2.37,4.41,2.52,6.99.01.18-.01.35-.02.53-.2,0-.21-.15-.26-.28-.45-1.27-.95-2.52-1.62-3.69-.57-1-1.25-1.93-1.99-2.81-.08-.09-.24-.11-.37-.16-.13-.15-.26-.29-.39-.44-.84-.96-1.85-1.66-3.05-2.1-.23-.09-.47-.17-.7-.25.11-.18-.09-.17-.15-.19-.78-.25-1.57-.45-2.39-.46-.85,0-1.7.03-2.55.1-1.41.12-2.7.61-3.84,1.44-.41.3-.74.71-1.11,1.06-.12.12-.28.19-.43.29Z" style="fill:#e1e3e3; stroke-width:0px;"/><path d="m49.55,70.29c.14-.1.3-.17.43-.29.38-.35.7-.76,1.11-1.06,1.14-.83,2.43-1.32,3.84-1.44.85-.07,1.7-.11,2.55-.1.82,0,1.61.2,2.39.46.06.02.26,0,.15.19-.11-.01-.21-.02-.32-.04-2.39-.44-4.49.16-6.25,1.83-3.16,3.01-3.22,8.25-.15,11.42.11.12.23.23.33.35.02.03-.02.11-.03.16-.38-.26-.79-.48-1.12-.79-1.83-1.67-2.91-3.77-3.36-6.18-.28-1.46-.19-2.91.33-4.32.02-.07.07-.12.1-.19Z" style="fill:#fcfcfc; stroke-width:0px;"/><path d="m64.16,70.83c.13.05.29.07.37.16.74.88,1.42,1.81,1.99,2.81.67,1.18,1.17,2.42,1.62,3.69.05.13.06.29.26.28.12,1.61-.45,2.88-1.85,3.76-1.34.84-2.79,1.33-4.33,1.6-.46.08-.92.12-1.38.18.04-.06.07-.15.12-.18.32-.16.65-.28.96-.45,2.9-1.61,4.43-5.1,3.74-8.46-.26-1.24-.77-2.36-1.51-3.39Z" style="fill:#fcfcfc; stroke-width:0px;"/><path d="m64.16,70.83c.74,1.03,1.25,2.15,1.51,3.39.69,3.36-.84,6.84-3.74,8.46-.31.17-.65.3-.96.45-.06.03-.08.12-.12.18-.7.08-1.4.19-2.1.23-.49.02-.99-.05-1.49-.08,0,0,0,0,0,0-.4-.13-.81-.23-1.2-.4-.58-.26-1.15-.56-1.72-.84-.17-.16-.34-.31-.51-.47-.07,0-.15,0-.22,0,0,0,0,.01,0,.01.01-.05.05-.13.03-.16-.1-.12-.22-.23-.33-.35-3.06-3.16-3.01-8.41.15-11.42,1.76-1.67,3.86-2.28,6.25-1.83.1.02.21.03.32.04.23.08.47.16.7.25,1.19.44,2.21,1.14,3.05,2.1.13.15.26.29.39.44Zm1.17,5.15c-.03-2.52-.91-4.49-2.7-6.05-2.81-2.45-7.12-2.05-9.44.86-2.62,3.29-2.09,8.14,1.17,10.79,2.25,1.83,5.47,2,7.82.36,2.12-1.48,3.08-3.58,3.14-5.97Z" style="fill:#386f6c; stroke-width:0px;"/><path d="m53.83,81.76c.17.16.34.31.51.47-.24-.13-.47-.26-.71-.38.07-.03.13-.06.2-.08Z" style="fill:#a1a2a2; stroke-width:0px;"/><path d="m53.83,81.76c-.07.03-.13.06-.2.08-.01-.02-.03-.03-.04-.05,0,0,0-.02.01-.03.07,0,.15,0,.22,0Z" style="fill:#fcfcfc; stroke-width:0px;"/><path d="m99.04,63.21c.47,1.14.59,2.34.55,3.56-.08,2.61-.93,4.88-3,6.59-.91.75-1.93,1.34-3.03,1.76-.43.17-.87.3-1.3.44.05-.07.09-.17.16-.2,1.34-.7,2.29-1.77,2.86-3.14,1.2-2.9.95-5.7-.84-8.29-1.27-1.83-3.04-2.81-5.33-2.72-.06-.03-.12-.05-.22-.1.08-.06.13-.12.19-.15,1.64-.67,3.3-1.21,5.1-.85.67.14,1.35.33,1.97.6,1.05.46,1.81,1.28,2.52,2.16.1.13.25.22.38.33Z" style="fill:#fdfdfd; stroke-width:0px;"/><path d="m89.37,75.47c-.08-.04-.17-.07-.23-.13-.53-.62-1.04-1.25-1.52-1.94.09.04.19.07.28.11,1.36.66,3.06.4,4.21-.93.99-1.14,1.37-2.49,1.27-3.96-.04-.6-.23-1.18-.35-1.77.04-.08.08-.16.11-.24.36-.77.32-1.52-.14-2.23-.45-.7-1.29-.83-1.95-.34-.07.05-.14.1-.22.16-1.61-.85-3.29-.35-4.35.85-.63.71-1.01,1.55-1.18,2.47-.05.24-.08.49-.13.76-.28-.88-.34-2.23-.18-3.78.18-.26.35-.54.55-.79.85-1.07,1.93-1.81,3.3-1.99,1.66-.23,3.1.3,4.31,1.44,2.52,2.37,3.11,6.52,1.35,9.5-.82,1.4-1.97,2.39-3.6,2.7-.5.1-1.03.07-1.54.1Z" style="fill:#73fcf4; stroke-width:0px;"/><path d="m99.04,63.21c-.13-.11-.28-.2-.38-.33-.7-.88-1.47-1.71-2.52-2.16-.63-.27-1.3-.46-1.97-.6-1.8-.36-3.47.17-5.1.85-.06.02-.11.08-.19.15.1.04.16.07.22.1-.05.02-.1.05-.15.06-1.36.14-2.47.77-3.4,1.74-.11.11-.23.21-.35.32.05-.56.26-1.06.63-1.5,2.05-2.44,4.64-3.67,7.85-3.43,1.6.12,2.95.79,3.95,2.08.64.82,1.17,1.7,1.42,2.73Z" style="fill:#e1e3e3; stroke-width:0px;"/><path d="m85.2,63.33c.12-.11.24-.2.35-.32.93-.97,2.04-1.61,3.4-1.74.05,0,.1-.04.15-.06,2.29-.1,4.06.88,5.33,2.72,1.79,2.59,2.04,5.39.84,8.29-.57,1.37-1.52,2.45-2.86,3.14-.07.04-.1.13-.16.2-.27.07-.53.15-.8.2-.43.08-.87.14-1.3.19-.53.06-.53.04-.78-.48.51-.03,1.04,0,1.54-.1,1.63-.31,2.78-1.31,3.6-2.7,1.76-2.98,1.16-7.13-1.35-9.5-1.21-1.14-2.65-1.67-4.31-1.44-1.38.19-2.45.92-3.3,1.99-.2.25-.37.52-.55.79.07-.39.14-.78.2-1.18Z" style="fill:#386f6c; stroke-width:0px;"/><path d="m90.85,64.21c.07-.05.14-.1.22-.16.66-.5,1.5-.36,1.95.34.46.71.5,1.46.14,2.23-.04.08-.08.16-.11.24-.07.05-.14.1-.21.15-.66.55-1.42.48-1.95-.19-.53-.67-.57-1.42-.26-2.2.06-.15.15-.28.23-.42Z" style="fill:#fdfdfd; stroke-width:0px;"/><path d="m86.44,60.38l-.13.12c.01-.07.03-.13.04-.2.03.03.06.05.09.08Z" style="fill:gray; stroke-width:0px;"/><path d="m92.17,79.95s-.02-.06-.02-.09c0-.01.01-.03.02-.04,0,.04,0,.09,0,.13Z" style="fill:gray; stroke-width:0px;"/><path d="m79.1,87.43c-.25-.2-.52-.37-.75-.6-.51-.51-.59-1.1-.28-1.76.42-.87,1.05-1.56,1.79-2.16,1.74-1.42,3.76-2.18,5.93-2.63,1.53-.32,3.08-.33,4.62-.22.96.07,1.92.33,2.76.89.38.26.67.58.89.98.08.15.12.33.13.51.02.3,0,.61,0,.91-.26,0-.23-.25-.29-.39-.29-.72-.82-1.09-1.59-1.1-.96-.02-1.6.5-2.1,1.24-.32.47-.56,1-.91,1.44-.84,1.05-2,1.26-3.23,1-.88-.19-1.73-.53-2.6-.81-1.04-.33-2.08-.43-3.12.02-.19.08-.39.18-.54.32-.57.51-.78,1.16-.63,1.92.03.14-.05.3-.08.44Zm8.22-6.79c-.82-.02-1.6.19-2.35.44-.45.14-.89.38-1.27.65-.36.25-.27.55.16.68.17.05.35.07.52.09.75.07,1.49-.06,2.22-.24.64-.16,1.28-.35,1.8-.78.12-.1.22-.3.21-.44,0-.1-.2-.24-.33-.27-.31-.07-.63-.09-.95-.12Z" style="fill:#461d21; stroke-width:0px;"/><path d="m79.1,87.43c.03-.15.11-.31.08-.44-.15-.76.06-1.4.63-1.92.15-.14.35-.24.54-.32,1.03-.45,2.08-.35,3.12-.02.86.28,1.71.62,2.6.81,1.23.26,2.39.06,3.23-1,.35-.44.6-.97.91-1.44.5-.75,1.14-1.26,2.1-1.24.77.02,1.3.38,1.59,1.1.06.15.03.38.29.39-.21.4-.16.9-.53,1.32-.05-.16-.08-.25-.11-.33-.11-.34-.18-.7-.34-1-.23-.4-.57-.68-1.09-.63-.5.05-.78.38-.99.8-.06.11-.11.23-.11.35-.05.9-.28,1.8-.06,2.7.02.1.01.21,0,.32-.03.3-.09.6-.08.9.04.74-.17,1.44-.34,2.15-.03.13-.12.26-.23.35-.42.33-.84.66-1.28.96-.56.38-1.2.4-1.85.37-.27-.01-.4-.16-.45-.38-.3-1.29-.99-2.4-1.75-3.45-.64-.88-1.33-1.72-2.37-2.17-.51-.22-1.02-.33-1.54-.07-.52.25-.88,1-.75,1.57.09.4.18.79.27,1.19-.5-.28-1-.57-1.5-.85Z" style="fill:#2d0f11; stroke-width:0px;"/><path d="m81.03,87.75c-.19-.3-.24-.62-.22-.97.05-.68.61-1.08,1.26-.87.8.26,1.44.75,1.95,1.41.37.48.72.96,1.07,1.45.1.14.15.32.22.48-.5.18-1.01.17-1.51,0-.91-.31-1.76-.74-2.49-1.38-.07-.06-.19-.09-.28-.13Z" style="fill:#1c080a; stroke-width:0px;"/><path d="m91.26,89.16c.25-1.48.14-2.97.17-4.46,0-.32.06-.64.13-.94.09-.35.37-.59.68-.58.29,0,.48.2.61.45.18.35.31.71.29,1.12-.02.32-.02.64,0,.96.03.37-.06.7-.24,1.02-.48.84-.97,1.68-1.64,2.43Z" style="fill:#1c080a; stroke-width:0px;"/><path d="m81.03,87.75c.09.04.21.06.28.13.73.64,1.58,1.07,2.49,1.38.5.17,1.01.17,1.51,0,.49.56.69,1.26.97,2-.56-.05-.95-.33-1.36-.55-.96-.51-1.89-1.07-2.85-1.56-.39-.2-.67-.44-.82-.85-.07-.18-.14-.36-.22-.54Z" style="fill:#2d0f11; stroke-width:0px;"/><polygon points="80.6 88.28 80.65 88.31 80.63 88.33 80.6 88.28" style="fill:#2d0f11; stroke-width:0px;"/><path d="m5.09,15.98c.56-.58,1.22-.59,1.91-.33.68.26,1.25.69,1.78,1.17,1.08.99,2.05,2.09,2.96,3.23,2.68,3.35,5.75,6.3,9.39,8.59.84.53,1.76.94,2.64,1.4.1.05.2.11.29.21-1.08.06-2.14-.05-3.18-.37-.02.03-.05.06-.07.09.19.24.36.5.57.72,2.05,2.16,4.49,3.66,7.4,4.37.1.02.2.06.32.18-.43.11-.85.24-1.29.31-.44.08-.88.11-1.33.14-.46.02-.92,0-1.49,0,.28.27.49.5.72.7,1.25,1.07,2.7,1.78,4.16,2.5.97.48,1.94.99,2.88,1.53.35.2.66.49.93.8.5.56.58,1.2.21,1.88-.09-.77-.62-1.26-1.21-1.62-.75-.46-1.59-.78-2.4-1.16-.91-.44-1.85-.83-2.73-1.33-1.49-.85-2.82-1.92-4.04-3.12-.29-.29-.53-.62-.79-.94h0c.4.06.81.11,1.21.17.4.06.8.07,1.21-.05-1.65-.66-3.08-1.66-4.48-2.7-1.26-.93-3.34-3.12-3.58-3.84.7.12,1.36.23,2.02.33.01-.03.03-.06.04-.1-.44-.34-.89-.67-1.32-1.02-.59-.48-1.2-.95-1.76-1.46-.82-.74-1.61-1.51-2.4-2.28-1.43-1.39-2.7-2.92-3.87-4.54-.46-.63-.92-1.27-1.46-1.83-.7-.73-1.47-1.41-2.53-1.59-.24-.04-.49-.04-.74-.06Z" style="fill:#e37f7f; stroke-width:0px;"/><path d="m25.65,41.69c.12.27.25.55.37.82.5,1.1,1.24,2.03,2.04,2.92.63.7,1.27,1.39,1.89,2.1.23.27.42.58.56.9.14.33.2.69-.11.99-.38-.65-.92-1.15-1.48-1.65-1.48-1.33-2.64-2.89-3.18-4.85-.11-.39-.34-.8-.1-1.23Z" style="fill:#e37f7f; stroke-width:0px;"/><path d="m23.27,47.58c.22.49.4.99.66,1.45.67,1.19,1.39,2.36,2.06,3.55.3.52.57,1.07.77,1.63.21.58.15,1.16-.34,1.63-.04.04-.09.05-.13.08,0-.72-.24-1.39-.54-2.03-.29-.61-.65-1.18-.96-1.78-.61-1.14-1.28-2.26-1.52-3.55-.06-.32,0-.65,0-.98Z" style="fill:#e37f7f; stroke-width:0px;"/><path d="m25.64,41.47s-.02-.03-.03-.05c.02.01.03.03.05.04,0,0-.02,0-.02,0Z" style="fill:#e37f7f; stroke-width:0px;"/><path d="m22.77,34.94s-.03-.02-.04-.02c.01,0,.03.02.04.03,0,0,0,0,0,0Z" style="fill:#e37f7f; stroke-width:0px;"/><path d="m65.33,75.98c-.06,2.4-1.02,4.49-3.14,5.97-2.35,1.64-5.57,1.47-7.82-.36-3.26-2.66-3.79-7.5-1.17-10.79,2.32-2.92,6.63-3.31,9.44-.86,1.78,1.56,2.66,3.53,2.7,6.05Zm-4.92-5.01c-.15-.05-.3-.1-.46-.14-1.8-.53-3.44-.21-4.8,1.1-1.65,1.58-2.05,3.54-1.41,5.7.64,2.19,2.63,3.66,4.8,3.65,2.19,0,4.09-1.48,4.75-3.71.39-1.33.28-2.64-.25-3.91.61-1.01.59-1.89.01-2.72-.53-.77-1.82-.9-2.35-.19-.07.09-.19.15-.28.23Z" style="fill:#73fcf4; stroke-width:0px;"/><path d="m87.33,80.64c.32.04.64.05.95.12.13.03.33.17.33.27,0,.15-.09.34-.21.44-.52.43-1.16.62-1.8.78-.72.18-1.46.31-2.22.24-.18-.02-.36-.03-.52-.09-.42-.13-.51-.43-.16-.68.39-.27.82-.51,1.27-.65.76-.24,1.53-.46,2.35-.44Z" style="fill:#494545; stroke-width:0px;"/><path d="m63.03,73.65c.53,1.28.64,2.58.25,3.91-.66,2.23-2.55,3.7-4.75,3.71-2.17,0-4.16-1.46-4.8-3.65-.63-2.15-.23-4.11,1.41-5.7,1.36-1.3,3-1.63,4.8-1.1.15.04.31.1.46.14-.03.12-.05.24-.09.36-.15.42-.15.84-.06,1.26.2.94,1.01,1.59,1.87,1.46.32-.05.61-.26.91-.39Z" style="fill:#181818; stroke-width:0px;"/><path d="m63.03,73.65c-.3.14-.59.35-.91.39-.86.13-1.66-.52-1.87-1.46-.09-.42-.09-.84.06-1.26.04-.12.06-.24.09-.36.1-.08.21-.14.28-.23.53-.71,1.82-.58,2.35.19.58.83.6,1.71-.01,2.72Z" style="fill:#fdfdfd; stroke-width:0px;"/></g></svg>