<?xml version="1.0" encoding="UTF-8"?><svg id="_Слой_2" xmlns="http://www.w3.org/2000/svg" width="392.37" height="334.16" xmlns:xlink="http://www.w3.org/1999/xlink" viewBox="0 0 392.37 334.16"><defs><linearGradient id="_Безымянный_градиент_8" x1="388.66" y1="152.98" x2="388.66" y2="168.45" gradientUnits="userSpaceOnUse"><stop offset="0" stop-color="#fde46e"/><stop offset="1" stop-color="#c1b560"/></linearGradient></defs><g id="_Слой_1-2"><rect y="168.31" width="205.35" height="6.91" style="fill:#c1b560; stroke-width:0px;"/><rect x="86.46" y="175.22" width="4.31" height="40.18" style="fill:#c1b560; stroke-width:0px;"/><rect x="69.89" y="175.22" width="4.31" height="40.18" style="fill:#c1b560; stroke-width:0px;"/><rect x="53.32" y="175.22" width="4.31" height="40.18" style="fill:#c1b560; stroke-width:0px;"/><rect x="36.75" y="175.22" width="4.31" height="40.18" style="fill:#c1b560; stroke-width:0px;"/><rect x="20.18" y="175.22" width="4.31" height="40.18" style="fill:#c1b560; stroke-width:0px;"/><rect x="101.7" y="175.22" width="4.31" height="40.18" style="fill:#c1b560; stroke-width:0px;"/><rect x="116.94" y="175.22" width="4.31" height="40.18" style="fill:#c1b560; stroke-width:0px;"/><rect x="132.18" y="175.22" width="4.31" height="40.18" style="fill:#c1b560; stroke-width:0px;"/><rect x="147.43" y="175.22" width="4.31" height="40.18" style="fill:#c1b560; stroke-width:0px;"/><rect x="162.67" y="175.22" width="4.31" height="40.18" style="fill:#c1b560; stroke-width:0px;"/><rect x="177.91" y="175.22" width="4.31" height="40.18" style="fill:#c1b560; stroke-width:0px;"/><rect x="193.82" y="175.22" width="4.31" height="40.18" style="fill:#c1b560; stroke-width:0px;"/><rect x="187.02" y="168.31" width="205.35" height="6.91" style="fill:#c1b560; stroke-width:0px;"/><rect x="273.48" y="175.22" width="4.31" height="40.18" style="fill:#c1b560; stroke-width:0px;"/><rect x="256.91" y="175.22" width="4.31" height="40.18" style="fill:#c1b560; stroke-width:0px;"/><rect x="240.34" y="175.22" width="4.31" height="40.18" style="fill:#c1b560; stroke-width:0px;"/><rect x="223.77" y="175.22" width="4.31" height="40.18" style="fill:#c1b560; stroke-width:0px;"/><rect x="207.21" y="175.22" width="4.31" height="40.18" style="fill:#c1b560; stroke-width:0px;"/><rect x="288.72" y="175.22" width="4.31" height="40.18" style="fill:#c1b560; stroke-width:0px;"/><rect x="303.96" y="175.22" width="4.31" height="40.18" style="fill:#c1b560; stroke-width:0px;"/><rect x="319.21" y="175.22" width="4.31" height="40.18" style="fill:#c1b560; stroke-width:0px;"/><rect x="334.45" y="175.22" width="4.31" height="40.18" style="fill:#c1b560; stroke-width:0px;"/><rect x="349.69" y="175.22" width="4.31" height="40.18" style="fill:#c1b560; stroke-width:0px;"/><rect x="364.93" y="175.22" width="4.31" height="40.18" style="fill:#c1b560; stroke-width:0px;"/><rect x="380.84" y="175.22" width="4.31" height="40.18" style="fill:#c1b560; stroke-width:0px;"/><path d="m280.81,159.51h-3.02l-8.67,45.36,17.95,12.59,12.18-45.36c-1.37-2.25-3.06-4.29-5.02-6.05l-.51-.46c-1.4-1.25-2.9-2.38-4.5-3.36l-1-.62c-2.23-1.37-4.79-2.1-7.4-2.1Z" style="fill:#dda46d; stroke:#614c39; stroke-linecap:round; stroke-miterlimit:11.47; stroke-width:2.72px;"/><path d="m305.27,161.07l4.04,2.48c.57-1.95,1.31-3.86,2.2-5.7-2.26.68-4.38,1.78-6.23,3.22Z" style="fill:#ebecef; stroke:#614c39; stroke-width:2.72px;"/><path d="m331.7,176.6l4.04,2.48c.57-1.95,1.31-3.86,2.2-5.7-2.26.68-4.38,1.78-6.23,3.22Z" style="fill:#ebecef; stroke:#614c39; stroke-width:2.72px;"/><path d="m320.51,166.89l4.04,2.48c.57-1.95,1.31-3.86,2.2-5.7-2.26.68-4.38,1.78-6.23,3.22Z" style="fill:#ebecef; stroke:#614c39; stroke-width:2.72px;"/><path d="m296.75,218.83l-.84-.15c-.64-.11-1.26-.31-1.84-.58-1.67-.76-3.01-2.1-3.79-3.77l-4.65-10.06c-2.15-4.65-2.93-9.82-2.24-14.9.27-1.99.76-3.94,1.46-5.81l2.05-5.47.23-.45c1.79-3.45,3.98-6.68,6.53-9.61l2.16-2.33c.63-.68,1.31-1.31,2.04-1.89l.98-.78c.69-.55,1.45-1,2.26-1.33l.57-.23c1.34-.55,2.8-.7,4.22-.43.98.19,1.91.57,2.74,1.13l.42.28c1.31.88,2.38,2.07,3.14,3.45l.68,1.25,1-.46c1.63-.75,3.41-1.13,5.21-1.13h.33c1.01,0,2.01.15,2.98.44l.32.1c.76.23,1.48.57,2.15,1.01.91.61,1.69,1.4,2.28,2.32l.07.11c.57.88.97,1.85,1.19,2.86l.39,1.81h2.72c.98,0,1.94.23,2.8.69.7.36,1.32.86,1.83,1.46l.21.25c.44.52.81,1.09,1.1,1.71l.47,1.01c.61,1.28.92,2.69.92,4.11,0,1.14-.2,2.28-.6,3.35l-.43,1.15c-.53,1.44-1.27,2.79-2.18,4.03-.91,1.23-1.98,2.32-3.2,3.24l-2.56,1.96-4.94,3.53-.86.65c-2.83,2.15-5.42,4.59-7.73,7.29l-2.46,2.77c-1.28,1.45-2.73,2.74-4.31,3.85l-1.36.96c-1.51,1.06-3.21,1.85-5,2.32l-.25.06c-2.03.53-4.15.62-6.22.25Z" style="fill:#ffe0c1; stroke:#614c39; stroke-width:2.72px;"/><path d="m296.15,218.93l-.81-.14c-.54-.09-1.08-.25-1.58-.46-1.52-.65-2.76-1.82-3.5-3.31l-4.15-8.38c-1.91-3.86-2.6-8.2-1.98-12.46.24-1.66.68-3.29,1.3-4.84l1.85-4.62.17-.31c1.63-2.94,3.62-5.67,5.91-8.13l1.92-1.93c.58-.59,1.21-1.13,1.87-1.62l.83-.61c.64-.48,1.35-.87,2.09-1.15l.49-.19c1.2-.46,2.51-.59,3.78-.36.89.16,1.74.49,2.5.97l.3.19c1.2.76,2.2,1.8,2.92,3.02l.55.95.87-.37c1.49-.64,3.09-.96,4.71-.96h.31c.89,0,1.78.12,2.64.36l.34.1c.66.19,1.29.46,1.87.82.83.52,1.56,1.21,2.11,2.02.52.75.9,1.6,1.11,2.49l.34,1.47h2.49c.85,0,1.69.19,2.45.56.64.31,1.22.75,1.71,1.28l.14.15c.41.45.75.95,1.02,1.48l.42.83c.54,1.06.81,2.23.81,3.42,0,.96-.18,1.91-.53,2.8l-.13.32c-.64,1.62-1.72,3.03-3.11,4.07l-1.1.82-4.16,3.05-3.73,2.91-2.75,2.66c-1.03,1-1.99,2.08-2.84,3.23-.86,1.15-1.81,2.24-2.85,3.23l-.29.28c-1.54,1.48-3.26,2.77-5.12,3.81l-1.03.58c-1.29.72-2.66,1.27-4.09,1.62l-.5.12c-1.82.45-3.72.52-5.57.21Z" style="fill:rgba(97,76,57,.21); stroke-width:0px;"/><path d="m302.72,171.47c-.51,1.59-.58,3.1-.32,4.24.26,1.17.8,1.77,1.37,1.94.57.17,1.37-.04,2.26-.86.87-.81,1.69-2.09,2.2-3.68.51-1.59.58-3.1.32-4.24-.26-1.17-.8-1.77-1.37-1.94-.57-.17-1.37.04-2.26.86-.87.81-1.69,2.09-2.2,3.68Z" style="fill:#8c8071; stroke:#614c39; stroke-width:2.72px;"/><path d="m327.75,185.88c-.8,1.14-1.2,2.35-1.22,3.34-.03,1.01.31,1.69.83,2.03.52.34,1.3.39,2.26,0,.95-.39,1.96-1.19,2.77-2.33.8-1.14,1.2-2.35,1.22-3.34.03-1.01-.31-1.69-.83-2.03-.52-.34-1.3-.39-2.26,0-.95.39-1.96,1.19-2.77,2.33Z" style="fill:#8c8071; stroke:#614c39; stroke-width:2.72px;"/><path d="m318.01,176.05c-.86,1.44-1.28,2.9-1.3,4.07-.02,1.2.37,1.9.88,2.19s1.34.26,2.4-.35c1.04-.6,2.14-1.68,3-3.12.86-1.44,1.28-2.9,1.3-4.07.02-1.2-.37-1.9-.88-2.19s-1.34-.26-2.4.35c-1.04.6-2.14,1.68-3,3.12Z" style="fill:#8c8071; stroke:#614c39; stroke-width:2.72px;"/><path d="m301.06,193.63c-2.41,3.37-3.28,7.12-2.99,10.39.29,3.28,1.75,6,3.87,7.42,2.07,1.38,4.5,1.35,7.12.08,2.64-1.28,5.4-3.81,7.88-7.28,2.47-3.45,3.77-6.82,3.92-9.65.15-2.8-.84-5.05-2.94-6.45-4.25-2.84-11.97-1.34-16.86,5.49Z" style="fill:#8f806d; stroke:#614c39; stroke-width:2.72px;"/><path d="m287.49,198.6h-2.22c-1.14,0-2.22.51-2.95,1.39h0" style="fill:none; stroke:#614c39; stroke-linecap:round; stroke-width:2.72px;"/><path d="m321.32,187.49c-.45.14-.93-.1-1.07-.55-.14-.45.1-.93.55-1.07l.52,1.62Zm4.32-3.97l-.68-.51.68.51Zm4.01-9.45v.82h-1.7v-.82h1.7Zm-2.84,9.3l-.5.66-1.36-1.02.5-.66,1.36,1.02Zm-5.24,4.04l-.26.08-.52-1.62.26-.08.52,1.62Zm2.94-1.55c-.88.68-1.88,1.21-2.94,1.55l-.52-1.62c.87-.28,1.69-.71,2.42-1.27l1.04,1.35Zm1.81-1.83c-.52.69-1.13,1.3-1.81,1.83l-1.04-1.35c.56-.43,1.06-.94,1.49-1.51l1.36,1.02Zm2.36-3.99c-.47,1.19-1.09,2.31-1.86,3.33l-1.36-1.02c.68-.9,1.23-1.88,1.64-2.93l1.59.62Zm.98-5.16c0,1.77-.33,3.51-.98,5.16l-1.59-.62c.57-1.44.86-2.98.86-4.54h1.7Z" style="fill:#614c39; stroke-width:0px;"/><path d="m309.18,181.02c-.39.25-.92.14-1.18-.25-.25-.39-.14-.92.25-1.18l.92,1.43Zm3.3-5.76l.81.26-.81-.26Zm1.72-3.78l-.06.56-1.69-.18.06-.56,1.69.18Zm-.57,2.96l-.34,1.07-1.62-.52.34-1.07,1.62.52Zm-3.94,6.24l-.51.33-.92-1.43.51-.33.92,1.43Zm2.24-2.26c-.57.91-1.34,1.68-2.24,2.26l-.92-1.43c.69-.45,1.28-1.04,1.72-1.74l1.44.91Zm1.36-2.91c-.33,1.02-.78,2-1.36,2.91l-1.44-.91c.5-.79.89-1.63,1.17-2.52l1.62.52Zm.85-3.47c-.09.82-.26,1.62-.51,2.41l-1.62-.52c.21-.67.36-1.37.44-2.07l1.69.18Zm-.45-5.45c.51,1.58.68,3.24.51,4.89l-1.69-.18c.15-1.41,0-2.83-.43-4.18l1.62-.52Z" style="fill:#614c39; stroke-width:0px;"/><path d="m173.94,154.52h3.02l8.67,45.36-17.95,12.59-12.18-45.36c1.37-2.25,3.06-4.29,5.02-6.05l.51-.46c1.4-1.25,2.9-2.38,4.5-3.36l1-.62c2.23-1.37,4.79-2.1,7.4-2.1Z" style="fill:#dda46d; stroke:#614c39; stroke-linecap:round; stroke-miterlimit:11.47; stroke-width:2.72px;"/><path d="m149.48,156.08l-4.04,2.48c-.57-1.95-1.31-3.86-2.2-5.7,2.26.68,4.38,1.78,6.23,3.22Z" style="fill:#ebecef; stroke:#614c39; stroke-width:2.72px;"/><path d="m123.04,171.61l-4.04,2.48c-.57-1.95-1.31-3.86-2.2-5.7,2.26.68,4.38,1.78,6.23,3.22Z" style="fill:#ebecef; stroke:#614c39; stroke-width:2.72px;"/><path d="m134.23,161.9l-4.04,2.48c-.57-1.95-1.31-3.86-2.2-5.7,2.26.68,4.38,1.78,6.23,3.22Z" style="fill:#ebecef; stroke:#614c39; stroke-width:2.72px;"/><path d="m158,213.84l.84-.15c.64-.11,1.26-.31,1.85-.58,1.67-.76,3.01-2.1,3.79-3.77l4.65-10.06c2.15-4.65,2.93-9.82,2.24-14.9-.27-1.99-.76-3.94-1.46-5.81l-2.05-5.47-.24-.45c-1.79-3.45-3.98-6.68-6.53-9.61l-2.16-2.33c-.63-.68-1.31-1.31-2.04-1.89l-.98-.78c-.69-.55-1.45-1-2.26-1.33l-.57-.23c-1.34-.55-2.8-.7-4.22-.43-.98.19-1.91.57-2.74,1.13l-.42.28c-1.31.88-2.38,2.07-3.14,3.45l-.68,1.25-1-.46c-1.63-.75-3.41-1.13-5.21-1.13h-.33c-1.01,0-2.01.15-2.98.44l-.32.1c-.76.23-1.48.57-2.15,1.01-.91.61-1.69,1.4-2.28,2.32l-.07.11c-.57.88-.97,1.85-1.19,2.86l-.4,1.81h-2.72c-.98,0-1.94.23-2.8.68-.7.36-1.32.86-1.83,1.46l-.21.25c-.44.52-.81,1.09-1.1,1.71l-.47,1.01c-.61,1.28-.92,2.69-.92,4.11,0,1.14.2,2.27.6,3.35l.43,1.16c.53,1.44,1.27,2.79,2.18,4.03.91,1.23,1.98,2.32,3.2,3.24l2.56,1.96,4.94,3.53.86.65c2.83,2.15,5.42,4.59,7.73,7.29l2.46,2.77c1.28,1.45,2.73,2.74,4.32,3.85l1.36.96c1.51,1.06,3.21,1.85,5,2.32l.25.07c2.03.53,4.15.62,6.22.25Z" style="fill:#ffe0c1; stroke:#614c39; stroke-width:2.72px;"/><path d="m158.59,213.94l.81-.14c.54-.09,1.08-.25,1.58-.46,1.52-.65,2.76-1.82,3.5-3.31l4.15-8.38c1.91-3.86,2.6-8.21,1.98-12.46-.24-1.66-.68-3.29-1.3-4.84l-1.85-4.62-.17-.31c-1.63-2.94-3.61-5.67-5.91-8.13l-1.92-1.93c-.58-.59-1.21-1.13-1.87-1.62l-.83-.61c-.64-.48-1.35-.87-2.09-1.16l-.49-.19c-1.2-.47-2.51-.59-3.78-.36-.89.16-1.74.49-2.5.97l-.3.19c-1.2.76-2.2,1.8-2.92,3.02l-.55.95-.87-.37c-1.49-.64-3.09-.96-4.71-.96h-.31c-.89,0-1.78.12-2.64.37l-.34.1c-.66.18-1.29.46-1.87.82-.83.52-1.55,1.21-2.11,2.02-.52.75-.9,1.6-1.11,2.49l-.34,1.47h-2.49c-.85,0-1.69.19-2.45.56-.64.31-1.22.75-1.7,1.28l-.14.15c-.41.45-.75.95-1.02,1.48l-.42.83c-.54,1.06-.81,2.23-.81,3.42,0,.96.18,1.91.53,2.8l.13.32c.64,1.62,1.72,3.03,3.11,4.07l1.1.82,4.16,3.05,3.73,2.91,2.75,2.66c1.03,1,1.99,2.08,2.85,3.23.86,1.15,1.81,2.24,2.85,3.23l.29.28c1.54,1.48,3.26,2.77,5.12,3.81l1.03.58c1.29.72,2.66,1.27,4.09,1.62l.5.12c1.82.45,3.72.52,5.57.21Z" style="fill:rgba(97,76,57,.21); stroke-width:0px;"/><path d="m152.02,166.48c.51,1.59.58,3.1.32,4.24-.26,1.17-.8,1.77-1.37,1.94-.57.17-1.37-.04-2.26-.86-.87-.81-1.69-2.09-2.2-3.68-.51-1.59-.58-3.1-.32-4.24.26-1.17.8-1.77,1.37-1.94.57-.17,1.37.04,2.26.86.87.81,1.69,2.09,2.2,3.68Z" style="fill:#8c8071; stroke:#614c39; stroke-width:2.72px;"/><path d="m126.99,180.89c.8,1.14,1.2,2.35,1.22,3.34.03,1.01-.31,1.69-.83,2.03-.52.34-1.3.39-2.26,0-.95-.39-1.96-1.19-2.77-2.33-.8-1.14-1.2-2.35-1.22-3.34-.03-1.01.31-1.69.83-2.03.52-.34,1.3-.39,2.26,0,.95.39,1.96,1.19,2.77,2.33Z" style="fill:#8c8071; stroke:#614c39; stroke-width:2.72px;"/><path d="m136.74,171.06c.86,1.44,1.28,2.9,1.3,4.07.02,1.2-.37,1.9-.88,2.19-.51.28-1.34.26-2.4-.35-1.04-.6-2.14-1.68-3-3.12-.86-1.44-1.28-2.9-1.3-4.07-.02-1.2.37-1.9.88-2.19.51-.28,1.34-.26,2.4.35,1.04.6,2.14,1.68,3,3.12Z" style="fill:#8c8071; stroke:#614c39; stroke-width:2.72px;"/><path d="m153.69,188.64c2.41,3.37,3.28,7.12,2.99,10.39-.29,3.28-1.75,6-3.87,7.42-2.07,1.38-4.5,1.35-7.12.08-2.64-1.28-5.4-3.81-7.88-7.28-2.47-3.45-3.77-6.82-3.92-9.65-.15-2.8.84-5.05,2.94-6.45,4.25-2.84,11.97-1.34,16.86,5.49Z" style="fill:#8f806d; stroke:#614c39; stroke-width:2.72px;"/><path d="m272.86,161.17c0,26.35-20.71,47.67-46.21,47.67s-46.21-21.32-46.21-47.67,20.71-47.67,46.21-47.67,46.21,21.32,46.21,47.67Z" style="fill:#ba8b5e; stroke:#7f7974; stroke-width:2.72px;"/><path d="m185.07,109.55l3.14-2.72,21.93,7.2,4.18,22.84v5.05l-1.88,11.12-.84,9.1v1.12c0,3.56.34,7.11,1.01,10.61l.66,3.43,1.04,8.09v13.28c0,1.66-.14,3.31-.41,4.94l-.18,1.05c-.31,1.83-.84,3.62-1.6,5.31l-.68,1.52c-.59,1.32-1.41,2.53-2.42,3.56-1.2,1.23-2.64,2.2-4.24,2.84l-.95.38c-1.1.44-2.23.77-3.4.98l-1.36.24c-1.67.3-3.39.27-5.05-.1-1.38-.3-2.7-.83-3.91-1.56l-1.52-.92-2.64,1.42c-.74.4-1.53.71-2.35.93-1.67.45-3.41.5-5.1.14l-.24-.05c-1.32-.28-2.59-.78-3.74-1.47l-1.6-.97-.36.23c-.59.38-1.25.62-1.94.72-.27.04-.55.05-.83.04l-2.78-.1c-1.62-.06-3.2-.45-4.66-1.16l-.22-.11c-.61-.3-1.19-.66-1.72-1.07-1.65-1.29-2.82-3.1-3.32-5.14l-.15-.59c-.22-.88-.33-1.79-.33-2.69v-.57c0-1.4.2-2.79.6-4.12l.19-.63c.31-1.06.79-2.06,1.41-2.96,1.03-1.49,2.42-2.68,4.05-3.47l1.06-.51c.43-.21.87-.37,1.33-.48,2.18-.53,3.94-2.11,4.69-4.22l.38-1.06c.34-.94.51-1.93.51-2.93v-36.7l.84-9.91,1.19-5.43c.74-3.39,1.73-6.71,2.96-9.95l1.13-2.97c.52-1.38,1.15-2.72,1.88-4,1.63-2.87,3.73-5.44,6.23-7.6Z" style="fill:#dda46d; stroke:#614c39; stroke-width:2.72px;"/><path d="m187.92,194.67l-1.66-.67c-1.54-.62-3.21-.83-4.85-.62h0c-1.4.18-2.74.67-3.94,1.43l-.26.17c-1.14.73-2.13,1.66-2.94,2.75l-.57.78c-.5.67-.92,1.39-1.27,2.15h0c-.76,1.64-1.16,3.44-1.16,5.25v3.51h0c.28,2.54.85,5.06,1.69,7.48h0" style="fill:none; stroke:#614c39; stroke-linecap:round; stroke-width:2.72px;"/><path d="m188.5,216.9h0c-1.11-1.2-1.9-2.65-2.29-4.23l-.46-1.84c-.27-1.08-.41-2.19-.41-3.3h0c0-2.09.5-4.19,1.43-6.06h0c.58-1.17,1.34-2.27,2.22-3.23l.05-.05c1.31-1.42,2.9-2.54,4.67-3.31l.72-.31c.54-.23,1.11-.4,1.69-.5h0c1.75-.3,3.54.05,5.06.97l1.66,1.01" style="fill:none; stroke:#614c39; stroke-linecap:round; stroke-width:2.72px;"/><path d="m167.26,193.61h2.22c1.14,0,2.22.51,2.95,1.39h0" style="fill:none; stroke:#614c39; stroke-linecap:round; stroke-width:2.72px;"/><path d="m190.46,219.55l-.04.13c-1.47-2.86-2.24-6.06-2.24-9.28,0-.05.04-.1.09-.1l.83-.11c1.62-.22,3.26-.06,4.81.48l-.68,1.47c-1.11,2.4-2.04,4.89-2.76,7.43Z" style="fill:#ebecef; stroke:#614c39; stroke-width:2.72px;"/><path d="m190.22,219.95l-.25-.49c-1.35-2.68-2.05-5.65-2.05-8.66h0c0-.47.36-.86.83-.9l.41-.03c.79-.07,1.59-.07,2.38,0h0c.63.05,1.03.69.8,1.28l-.21.53c-.99,2.53-1.62,5.18-1.88,7.88l-.04.4Z" style="fill:rgba(255,255,255,.77); stroke-width:0px;"/><path d="m159.47,218.99l-.04.13c-1.47-2.86-2.24-6.06-2.24-9.28,0-.05.04-.1.09-.1l.83-.11c1.62-.22,3.26-.06,4.81.48l-.68,1.47c-1.11,2.4-2.04,4.89-2.76,7.43Z" style="fill:#ebecef; stroke:#614c39; stroke-width:2.72px;"/><path d="m159.23,219.4l-.25-.49c-1.35-2.69-2.05-5.65-2.05-8.66h0c0-.47.36-.86.83-.9l.41-.03c.79-.07,1.59-.07,2.38,0h0c.63.05,1.03.69.8,1.28l-.21.53c-.99,2.53-1.62,5.18-1.88,7.88l-.04.4Z" style="fill:rgba(255,255,255,.77); stroke-width:0px;"/><path d="m175.82,219.55l-.04.13c-1.47-2.86-2.24-6.06-2.24-9.28,0-.05.04-.1.09-.1l.83-.11c1.62-.22,3.26-.06,4.81.48l-.68,1.47c-1.11,2.4-2.04,4.89-2.76,7.43Z" style="fill:#ebecef; stroke:#614c39; stroke-width:2.72px;"/><path d="m175.58,219.95l-.25-.49c-1.35-2.68-2.05-5.65-2.05-8.66h0c0-.47.36-.86.83-.9l.41-.03c.79-.07,1.59-.07,2.38,0h0c.63.05,1.03.69.8,1.28l-.21.53c-.99,2.53-1.62,5.18-1.88,7.88l-.04.4Z" style="fill:rgba(255,255,255,.77); stroke-width:0px;"/><path d="m265.37,107.61l-3.14-2.72-21.93,7.2-4.18,22.84v5.05l1.88,11.12.84,9.1v1.12c0,3.56-.34,7.11-1.01,10.61l-.66,3.44-1.04,8.09v13.28c0,1.66.14,3.31.41,4.94l.18,1.05c.31,1.83.84,3.62,1.6,5.31l.68,1.52c.59,1.32,1.41,2.53,2.42,3.56,1.2,1.23,2.64,2.2,4.24,2.84l.95.38c1.1.44,2.23.77,3.4.98l1.36.24c1.67.3,3.39.27,5.05-.1,1.38-.3,2.7-.83,3.91-1.56l1.52-.92,2.64,1.42c.74.4,1.53.71,2.35.93,1.67.45,3.41.5,5.1.14l.24-.05c1.32-.28,2.58-.78,3.74-1.47l1.6-.97.36.23c.59.38,1.25.62,1.94.72.27.04.55.05.83.04l2.78-.1c1.62-.06,3.2-.45,4.66-1.16l.22-.11c.61-.3,1.19-.66,1.72-1.07,1.65-1.29,2.82-3.1,3.32-5.14l.15-.59c.22-.88.33-1.79.33-2.69v-.57c0-1.4-.2-2.79-.6-4.12l-.19-.63c-.31-1.06-.79-2.06-1.41-2.96-1.03-1.49-2.42-2.68-4.05-3.47l-1.06-.51c-.43-.21-.87-.37-1.33-.48-2.18-.53-3.94-2.11-4.69-4.22l-.38-1.06c-.34-.94-.51-1.93-.51-2.93v-36.7l-.84-9.91-1.19-5.43c-.74-3.39-1.73-6.71-2.96-9.95l-1.13-2.97c-.52-1.38-1.15-2.72-1.88-4-1.63-2.87-3.73-5.44-6.23-7.6Z" style="fill:#dda46d; stroke:#614c39; stroke-width:2.72px;"/><path d="m262.52,192.73l1.66-.67c1.54-.62,3.21-.83,4.85-.62h0c1.4.18,2.75.67,3.94,1.43l.26.17c1.14.73,2.13,1.66,2.94,2.75l.57.78c.5.67.92,1.39,1.27,2.15h0c.76,1.65,1.16,3.44,1.16,5.25v3.51h0c-.28,2.54-.85,5.06-1.69,7.48h0" style="fill:none; stroke:#614c39; stroke-linecap:round; stroke-width:2.72px;"/><path d="m261.94,214.96h0c1.11-1.2,1.89-2.65,2.29-4.23l.46-1.84c.27-1.08.41-2.19.41-3.3h0c0-2.09-.5-4.19-1.43-6.06h0c-.58-1.17-1.34-2.27-2.22-3.23l-.05-.05c-1.31-1.42-2.9-2.54-4.67-3.31l-.72-.31c-.54-.23-1.11-.4-1.69-.5h0c-1.75-.3-3.54.05-5.06.97l-1.66,1.01" style="fill:none; stroke:#614c39; stroke-linecap:round; stroke-width:2.72px;"/><path d="m284.04,191.67h-2.76c-1.23,0-2.41.5-3.27,1.39h0" style="fill:none; stroke:#614c39; stroke-linecap:round; stroke-width:2.72px;"/><path d="m259.99,217.61l.04.13c1.47-2.86,2.24-6.06,2.24-9.28,0-.05-.04-.1-.09-.1l-.83-.11c-1.62-.22-3.27-.06-4.81.48l.68,1.47c1.11,2.4,2.04,4.89,2.76,7.43Z" style="fill:#ebecef; stroke:#614c39; stroke-width:2.72px;"/><path d="m260.23,218.01l.25-.49c1.35-2.68,2.05-5.65,2.05-8.66h0c0-.47-.36-.86-.83-.9l-.41-.03c-.79-.07-1.59-.07-2.38,0h0c-.63.05-1.03.69-.8,1.28l.21.53c.99,2.53,1.62,5.18,1.88,7.88l.04.4Z" style="fill:rgba(255,255,255,.77); stroke-width:0px;"/><path d="m290.98,217.05l.04.13c1.47-2.86,2.24-6.06,2.24-9.28,0-.05-.04-.1-.09-.1l-.83-.11c-1.62-.22-3.26-.06-4.81.48l.68,1.47c1.11,2.4,2.04,4.89,2.76,7.43Z" style="fill:#ebecef; stroke:#614c39; stroke-width:2.72px;"/><path d="m291.22,217.46l.25-.49c1.35-2.69,2.05-5.65,2.05-8.66h0c0-.47-.36-.86-.83-.9l-.41-.03c-.79-.07-1.59-.07-2.38,0h0c-.63.05-1.03.69-.8,1.28l.21.53c.99,2.53,1.62,5.18,1.88,7.88l.04.4Z" style="fill:rgba(255,255,255,.77); stroke-width:0px;"/><path d="m274.62,217.61l.04.13c1.47-2.86,2.24-6.06,2.24-9.28,0-.05-.04-.1-.09-.1l-.83-.11c-1.62-.22-3.27-.06-4.81.48l.68,1.47c1.11,2.4,2.04,4.89,2.76,7.43Z" style="fill:#ebecef; stroke:#614c39; stroke-width:2.72px;"/><path d="m274.86,218.01l.25-.49c1.35-2.68,2.05-5.65,2.05-8.66h0c0-.47-.36-.86-.83-.9l-.41-.03c-.79-.07-1.59-.07-2.38,0h0c-.63.05-1.03.69-.8,1.28l.21.53c.99,2.53,1.62,5.18,1.88,7.88l.04.4Z" style="fill:rgba(255,255,255,.77); stroke-width:0px;"/><path d="m184.48,118.64l8.53-9.69,63.44-.73c.81,2.97,2.64,5.56,5.18,7.32l8.36,5.77-4.22-1.04c-4.28-1.06-8.14-3.37-11.1-6.63l-.73-.81.36,2.43c.59,3.99,2.05,7.79,4.29,11.14l1.62,2.42-7.77-6.79,2.12,5.24c.09.22.2.44.32.64,1.8,3.04,2.2,6.7,1.12,10.06l-.8,2.47c0-3.66-1.72-7.11-4.65-9.31l-2.12-1.59,1.75,6.04c1.49,5.12,1.83,10.5,1,15.77l-1-3.88-1.76-7.03v4.98c0,3.93-.49,7.85-1.45,11.66l-1.06,4.19-.75-7.03-1.25-6.79-.46,3.99c-.53,4.57-1.95,8.98-4.18,13l-1.88,3.37.49-6.21c.17-2.16.14-4.33-.09-6.48l-.41-3.79-.62,1.19c-2.25,4.34-3.76,9.03-4.47,13.87l-.42,2.87-4.51-17.93c-.81,6.44-3.73,12.44-8.29,17.06l-3.25,3.29.87-2.17c1.91-4.81,2.9-9.93,2.9-15.11v-5.74c-4.25,3.63-7.28,8.47-8.71,13.87l-1.07,4.07c-2.65-6.56-4.53-13.47-5.57-20.46l-.2-1.35-1.5,5.82-2.51,7.75-1.25-18.9-3.76,11.87-.75-6.54v-6.79l1.76-11.87-4.76,10.42.05-.54c.47-4.8,1.39-9.54,2.75-14.16l.95-3.23-5.52,5.33,4.76-9.21-4.76,1.7-5.02,2.18Z" style="fill:#ffe2c5; stroke:#614c39; stroke-linecap:round; stroke-miterlimit:11.47; stroke-width:2.72px;"/><path d="m261.51,13.57l-.71,1.61c-1.51,3.4-2.29,7.07-2.29,10.79l9.83,8.7,3.67,4.67,3.33,4.83h3.57c1.84,0,3.66-.24,5.44-.72l.77-.21c1.69-.45,3.3-1.18,4.76-2.16l.42-.28c1.46-.97,2.72-2.22,3.7-3.67,1.1-1.63,1.84-3.48,2.16-5.42l.1-.64c.27-1.68.29-3.39.04-5.07l-.27-1.86c-.23-1.57-.63-3.12-1.18-4.61l-.1-.28c-.92-2.49-2.32-4.8-4.09-6.78-.97-1.09-2.07-2.09-3.25-2.95-2.45-1.8-5.27-3.03-8.26-3.62l-.98-.19c-1.21-.24-2.44-.36-3.67-.36h-1.58c-1.58,0-3.14.33-4.59.96-2.15.95-3.96,2.53-5.17,4.55l-1.63,2.7Z" style="fill:#dda46d; stroke:#614c39; stroke-width:2.72px;"/><path d="m266.71,31.13l-.45,1.23,4.31,5.15h5.28c.79,0,1.57-.08,2.34-.23l2.03-.39c1.16-.23,2.23-.8,3.04-1.66.7-.72,1.19-1.62,1.43-2.59l.24-.97c.36-1.45.37-2.97.03-4.43l-.46-2c-.12-.51-.31-1.01-.56-1.47l-.14-.26c-.82-1.52-2.32-2.55-4.04-2.77-.71-.09-1.44-.04-2.13.16l-1.93.55c-.66.19-1.29.47-1.87.83l-.07.04c-1.24.78-2.37,1.73-3.36,2.81l-.13.14c-1.56,1.7-2.77,3.69-3.56,5.86Z" style="fill:#c9af95; stroke:#6c5b4c; stroke-width:2.72px;"/><path d="m268.27,32.37l-.3.71,3.87,4.16h3.66c.81,0,1.62-.07,2.41-.21l2.16-.38c.9-.16,1.75-.54,2.46-1.12.97-.78,1.64-1.87,1.9-3.08v-.06c.21-.91.17-1.86-.09-2.76l-.56-1.89c-.12-.41-.3-.81-.52-1.17-.78-1.26-2.1-2.1-3.58-2.26h-.08c-.58-.07-1.17-.03-1.75.11l-1.71.42c-.58.14-1.13.36-1.65.64l-.05.03c-1.07.58-2.05,1.31-2.94,2.15-1.4,1.33-2.5,2.93-3.25,4.71Z" style="fill:#ffdebd; stroke-width:0px;"/><path d="m195.54,13.57l.71,1.61c1.51,3.4,2.29,7.07,2.29,10.79l-9.83,8.7-3.67,4.67-3.33,4.83h-3.57c-1.84,0-3.66-.24-5.44-.72l-.77-.21c-1.69-.45-3.3-1.18-4.76-2.16l-.42-.28c-1.46-.97-2.72-2.22-3.7-3.67-1.1-1.63-1.84-3.48-2.16-5.42l-.1-.64c-.27-1.68-.29-3.39-.04-5.07l.27-1.86c.23-1.57.63-3.12,1.18-4.61l.1-.28c.92-2.49,2.32-4.8,4.09-6.78.97-1.09,2.07-2.09,3.25-2.95,2.45-1.8,5.27-3.03,8.26-3.62l.98-.19c1.21-.24,2.44-.36,3.67-.36h1.58c1.58,0,3.14.33,4.59.96,2.15.95,3.96,2.53,5.17,4.55l1.63,2.7Z" style="fill:#dda46d; stroke:#614c39; stroke-width:2.72px;"/><path d="m190.34,31.13l.45,1.23-4.31,5.15h-5.28c-.79,0-1.57-.08-2.34-.23l-2.03-.39c-1.16-.23-2.22-.8-3.04-1.66-.7-.72-1.19-1.62-1.43-2.59l-.24-.97c-.36-1.45-.37-2.97-.03-4.43l.46-2c.12-.51.31-1.01.56-1.47l.14-.26c.82-1.52,2.32-2.55,4.04-2.77.71-.09,1.44-.04,2.13.16l1.93.55c.66.19,1.29.47,1.87.83l.07.04c1.24.78,2.37,1.73,3.37,2.81l.13.14c1.56,1.7,2.77,3.69,3.56,5.86Z" style="fill:#c9af95; stroke:#6c5b4c; stroke-width:2.72px;"/><path d="m188.77,32.37l.3.71-3.87,4.16h-3.66c-.81,0-1.62-.07-2.41-.21l-2.16-.38c-.9-.16-1.75-.54-2.46-1.12-.97-.78-1.64-1.87-1.9-3.08v-.06c-.21-.91-.17-1.86.09-2.76l.56-1.89c.12-.41.3-.81.52-1.17.78-1.26,2.1-2.1,3.58-2.26h.08c.58-.07,1.17-.03,1.74.11l1.71.42c.58.14,1.13.36,1.65.64l.05.03c1.07.58,2.05,1.31,2.94,2.15,1.4,1.33,2.5,2.93,3.25,4.71Z" style="fill:#ffdebd; stroke-width:0px;"/><path d="m168.36,66.63l-1.55,8.15-.52.86c-.86,1.42-1.32,3.05-1.32,4.71,0,2.52.8,4.98,2.28,7.01l3.34,4.59c.92,1.26,1.97,2.43,3.13,3.47l4.04,3.63c3.01,2.71,6.29,5.1,9.78,7.15,2.76,1.62,5.65,3.03,8.63,4.19l4.44,1.74c4.96,1.94,10.16,3.16,15.47,3.62l2.76.24c1.06.09,2.11.27,3.15.52l1.21.3c2.89.72,5.92.61,8.76-.3.79-.26,1.61-.45,2.43-.58l5.58-.88,5.18-1.5c5.99-1.73,11.78-4.08,17.29-7.01l1.56-.83c3.26-1.73,6.38-3.73,9.31-5.97l5.13-3.91c1.73-1.32,3.27-2.88,4.56-4.63l2.5-3.39c1.29-1.75,1.99-3.88,1.99-6.06,0-2.54-.95-4.99-2.66-6.87l-.1-.11c0-2.84-.31-5.68-.92-8.46l-1.66-7.59c-2.69-8.16-6.46-15.93-11.2-23.09l-.4-.61c-4.62-5.41-10.29-9.82-16.68-12.95l-2.3-1.13-10.32-3.92c4.66-.95,9.39-1.43,14.15-1.43h5.57c-2.43-1.76-5.19-3.03-8.12-3.72l-.81-.19c-2.03-.48-4.1-.72-6.19-.72h-.22c-2.9,0-5.79.44-8.56,1.3l-6.69,2.08,2.99-3.35c2.63-2.94,4.45-6.52,5.3-10.37l-1.18,2.2c-.92,1.72-2.25,3.18-3.88,4.25-3.36,2.22-7.07,3.88-10.96,4.91l-6.28,1.66c-4.9,1.3-9.64,3.1-14.16,5.39l-4.54,2.3c-5.53,2.8-10.45,6.67-14.47,11.38-2.92,3.42-5.34,7.25-7.17,11.36l-2.04,4.57c-2.56,5.75-4.45,11.78-5.63,17.97Z" style="fill:#dda46d; stroke:#614c39; stroke-miterlimit:1.56; stroke-width:2.72px;"/><path d="m223.13,68.2c1.74-1.78,4.59-1.81,6.37-.07h0c3.62,3.56,6.38,7.9,8.07,12.69l.86,2.45h-24.1l1.07-2.9c1.67-4.5,4.26-8.61,7.62-12.05l.11-.12Z" style="fill:#e2bf8f; stroke-width:0px;"/><path d="m259.11,40.63c14.46,8.84,10.89,39.45-6.04,40.37-.7.04-1.42.05-2.16.05-4.59,0-12.48-4.53-12.48-17.56s6.88-24.3,15.6-24.3c1.86,0,3.56.51,5.08,1.44Z" style="fill:#e2bf8f; stroke-width:0px;"/><path d="m261.7,42.56c-1.99-1.53-4.69-2.47-7.98-2.47-2.18,0-4.22.41-6.02,1.14,1.92-1.26,4.19-2.05,6.63-2.05,3.43,0,5.82,1.35,7.36,3.38Z" style="fill:#303030; fill-rule:evenodd; stroke-width:0px;"/><path d="m261.24,54.19c2.67,7.02,2.92,16.01-2.33,21.38-2.53,2.59-5.86,3-9.74,3.73-3.96.75-10.18-3.62-10.18-14.04s5.61-19.43,12.72-19.43c4.34,0,7.63,3.36,9.52,8.35Z" style="fill:#303030; stroke-width:0px;"/><path d="m261.09,66.31c-1.92,11.55-6.59,11.81-12.76,12.99-3.63.7-9.33-3.35-9.33-12.99s5.15-17.98,11.66-17.98,10.43,8.34,10.43,17.98Z" style="fill:#fefefe; stroke-width:0px;"/><path d="m253.93,67.61c0,3.58-.63,6.35-1.75,8.19-1.09,1.8-2.66,2.74-4.71,2.74s-3.89-1.24-5.31-3.3c-1.42-2.06-2.3-4.83-2.3-7.62s.79-4.76,1.93-6.01c1.14-1.25,2.7-1.88,4.41-1.88,2.18,0,4.11.74,5.49,2.06,1.37,1.32,2.25,3.27,2.25,5.83Z" style="fill:#63564a; stroke:#000; stroke-width:2.72px;"/><ellipse cx="245.16" cy="72.04" rx="5.02" ry="5.41" style="fill:#171717; stroke-width:0px;"/><ellipse cx="242.15" cy="67.88" rx="2.01" ry="2.91" style="fill:#fcfcfc; stroke-width:0px;"/><ellipse cx="247.6" cy="76.47" rx="1.15" ry=".97" style="fill:#fcfcfc; stroke-width:0px;"/><path d="m193.6,40.52c-14.8,8.59-11.03,39.63,6.06,40.48.67.03,1.35.05,2.05.05,4.63,0,12.6-4.53,12.6-17.56s-6.95-24.3-15.75-24.3c-1.81,0-3.47.48-4.96,1.34Z" style="fill:#e2bf8f; stroke-width:0px;"/><path d="m191.43,54.31c-2.57,6.96-2.82,15.78,2.27,21.18,2.51,2.66,5.83,3.07,9.7,3.81,3.92.75,10.06-3.62,10.06-14.04s-5.55-19.43-12.57-19.43c-4.33,0-7.59,3.42-9.45,8.47Z" style="fill:#303030; stroke-width:0px;"/><path d="m191.36,66.31c1.92,11.55,6.59,11.81,12.76,12.99,3.63.7,9.33-3.35,9.33-12.99s-5.15-17.98-11.66-17.98-10.43,8.34-10.43,17.98Z" style="fill:#fefefe; stroke-width:0px;"/><path d="m198.53,67.61c0,3.58.63,6.35,1.75,8.19,1.09,1.8,2.66,2.74,4.71,2.74s3.89-1.24,5.31-3.3c1.42-2.06,2.31-4.83,2.31-7.62s-.79-4.76-1.93-6.01c-1.14-1.25-2.7-1.88-4.41-1.88-2.18,0-4.11.74-5.49,2.06-1.37,1.32-2.25,3.27-2.25,5.83Z" style="fill:#63564a; stroke:#000; stroke-width:2.72px;"/><ellipse cx="207.43" cy="72.04" rx="4.88" ry="5.41" style="fill:#171717; stroke-width:0px;"/><ellipse cx="210.3" cy="67.88" rx="2.01" ry="2.91" style="fill:#fcfcfc; stroke-width:0px;"/><ellipse cx="204.99" cy="76.47" rx="1" ry=".97" style="fill:#fcfcfc; stroke-width:0px;"/><path d="m250.09,87.66c2.95-3.39,7.19-6.42,12.28-8.46,3.88-1.56,7.75-2.35,11.31-2.44-3.84-1.72-8.6-1.86-13.17-.02-5.2,2.09-8.95,6.27-10.41,10.93Z" style="fill:#614c39; fill-rule:evenodd; stroke-width:0px;"/><path d="m203.29,87.66c-2.95-3.39-7.19-6.42-12.28-8.46-3.88-1.56-7.75-2.35-11.31-2.44,3.84-1.72,8.6-1.86,13.17-.02,5.2,2.09,8.95,6.27,10.41,10.93Z" style="fill:#614c39; fill-rule:evenodd; stroke-width:0px;"/><path d="m234.49,14.31c-2.37.17-4.05.29-4.1.29l7.01-2.19c1.69-.53,3.42-.9,5.18-1.1l.91-.11c1.66-.19,3.34-.19,5.01.02l1.17.15c1.35.17,2.68.44,3.98.81.77.22,1.52.51,2.24.86l1.67.83,2.39,1.48c-8.42-1.3-16.96-1.63-25.45-1.03Z" style="fill:#e2bf8f; stroke-width:0px;"/><ellipse cx="265.19" cy="85.56" rx="8.07" ry="3.75" transform="translate(-13.22 97.18) rotate(-20.27)" style="fill:rgba(228,204,159,.67); stroke-width:0px;"/><ellipse cx="188.3" cy="85.66" rx="3.75" ry="8.07" transform="translate(42.71 232.62) rotate(-69.73)" style="fill:rgba(228,204,159,.67); stroke-width:0px;"/><path d="m190.79,42.56c2-1.53,4.72-2.47,8.01-2.47,2.19,0,4.24.41,6.05,1.14-1.92-1.26-4.21-2.05-6.66-2.05-3.45,0-5.85,1.35-7.4,3.38Z" style="fill:#303030; fill-rule:evenodd; stroke-width:0px;"/><path d="m215.03,78.66l.12-.06c.6-.31,1.22-.56,1.85-.77l.67-.22c2.06-.66,4.21-1,6.37-1h3.32c1.35,0,2.7.12,4.02.37l3.16.59c1.97.37,3.8,1.28,5.28,2.64.4.37.78.77,1.12,1.2l1.92,2.41,1.64.45c.91.25,1.8.57,2.67.95l.06.03c1.19.52,2.31,1.19,3.35,1.97l.27.2c.6.46,1.16.97,1.67,1.53l.45.5c.62.68,1.12,1.45,1.49,2.29.48,1.09.73,2.26.73,3.45v.58c0,1.18-.21,2.35-.62,3.45-.44,1.19-1.11,2.28-1.96,3.21l-1.1,1.2c-1.27,1.39-2.74,2.57-4.37,3.51l-4.28,2.47-3.1,1.3c-2.33.98-4.76,1.67-7.26,2.06-1.61.25-3.23.38-4.86.38h-.22c-1.95,0-3.9-.17-5.82-.5h-.07c-1.76-.32-3.49-.76-5.18-1.33l-3.63-1.22-4.88-1.66-2.56-1.28c-1.06-.53-2.07-1.18-2.99-1.93l-.8-.65c-.93-.75-1.71-1.66-2.33-2.67-.98-1.62-1.5-3.5-1.5-5.4,0-1.09.17-2.18.5-3.22l.09-.26c.47-1.45,1.2-2.8,2.16-3.98l.12-.15c1.05-1.29,2.34-2.37,3.79-3.19.82-.46,1.7-.84,2.59-1.12l3.1-.96.48-.83c.63-1.1,1.45-2.09,2.42-2.91.65-.55,1.36-1.03,2.12-1.42Z" style="fill:#fde1c0; stroke:#614c39; stroke-width:2.72px;"/><path d="m209.01,92l.62,1.8c.16.46.35.91.58,1.34l.32.61c.51.99,1.25,1.85,2.15,2.5h0c.61.44,1.29.79,2,1.02l.64.21" style="fill:none; stroke:#6c5b4c; stroke-width:2.72px;"/><path d="m207.29,93.94c.03-.07.15-.23.32-.44.9-1.16,2.15-2.02,3.55-2.47h0" style="fill:none; stroke:#6c5b4c; stroke-linecap:round; stroke-width:2.72px;"/><path d="m244.02,92l-.62,1.8c-.16.46-.35.91-.58,1.34l-.32.61c-.51.99-1.25,1.85-2.15,2.5h0c-.61.44-1.29.79-2,1.02l-.64.21" style="fill:none; stroke:#6c5b4c; stroke-width:2.72px;"/><path d="m245.74,93.94c-.03-.07-.15-.23-.32-.44-.9-1.16-2.15-2.02-3.55-2.47h0" style="fill:none; stroke:#6c5b4c; stroke-linecap:round; stroke-width:2.72px;"/><path d="m226.51,88.81v5.82" style="fill:none; stroke:#6c5b4c; stroke-width:2.72px;"/><path d="m216.4,99.35h-1.22l1.29,1.94,2.01,3.05,2.15,2.91,1.4,1.43c.68.7,1.52,1.23,2.45,1.54,1.23.41,2.56.43,3.79.05h.05c1.07-.35,2.03-.95,2.79-1.78l1.14-1.24,2.15-2.91,2.01-3.05,1.58-1.94h-.33c-2.15,0-4.28-.42-6.27-1.25l-.65-.36c-1.57-.87-3.04-1.91-4.37-3.11l-.27.26c-.68.66-1.41,1.26-2.19,1.81l-.7.49c-.86.6-1.79,1.09-2.78,1.45-1.29.47-2.66.71-4.04.71Z" style="fill:#3c0000; stroke:#6c5b4c; stroke-width:2.72px;"/><path d="m219.26,101.89c-.31.3-.63.61-.89.89-.32.35-.34.84-.12,1.26.06.11.12.21.2.3l.74.83,1.15,1.52.18.25c.55.76,1.19,1.44,1.92,2.02l.25.2c.25.2.52.39.8.55l.19.11c.54.31,1.14.53,1.76.63.52.08,1.05.09,1.57,0l.15-.02c.61-.09,1.21-.27,1.77-.54l.18-.09c.47-.22.91-.5,1.32-.81l.19-.15c.42-.32.81-.68,1.17-1.07l.75-.8.89-1.24c.26-.37.4-.81.4-1.26,0-.18-.02-.36-.07-.54l-.13-.51c-.06-.22-.14-.44-.25-.65l-.02-.03c-.26-.5-.66-.92-1.14-1.2-.45-.26-.96-.4-1.48-.4h-.93c-1.35,0-2.63.64-3.43,1.73l-.15.21-.53-.77c-.4-.58-.97-1.04-1.62-1.31-.66-.27-1.38-.35-2.07-.22l-.87.16c-.7.13-1.35.44-1.87.93Z" style="fill:#dc7276; stroke:#7b2629; stroke-linejoin:round; stroke-width:1.36px;"/><path d="m237.27,79.38c0,3.52-2.58,10.26-10.62,10.26-9.33,0-11.05-6.74-11.05-10.26s5.26-5.27,11.05-5.27,10.62,1.75,10.62,5.27Z" style="fill:#581606; stroke-width:0px;"/><ellipse cx="226.37" cy="76.47" rx="5.16" ry="1.25" style="fill:rgba(107,32,14,.85); stroke-width:0px;"/><path d="m133.43,182.5c.45.14.93-.1,1.07-.55.14-.45-.1-.93-.55-1.07l-.52,1.62Zm-4.32-3.97l.68-.51-.68.51Zm-4.01-9.45v.82h1.7v-.82h-1.7Zm2.84,9.3l.5.66,1.36-1.02-.5-.66-1.36,1.02Zm5.24,4.04l.26.08.52-1.62-.26-.08-.52,1.62Zm-2.94-1.55c.88.68,1.88,1.21,2.94,1.55l.52-1.62c-.87-.28-1.69-.71-2.42-1.28l-1.04,1.35Zm-1.81-1.83c.52.69,1.13,1.3,1.81,1.83l1.04-1.35c-.56-.43-1.06-.94-1.49-1.51l-1.36,1.02Zm-2.36-3.99c.47,1.19,1.09,2.31,1.86,3.33l1.36-1.02c-.68-.9-1.23-1.88-1.64-2.93l-1.58.62Zm-.98-5.16c0,1.77.33,3.51.98,5.16l1.58-.62c-.57-1.44-.86-2.98-.86-4.54h-1.7Z" style="fill:#614c39; stroke-width:0px;"/><path d="m145.57,176.03c.4.26.92.14,1.18-.25.25-.39.14-.92-.25-1.18l-.92,1.43Zm-3.3-5.76l-.81.26.81-.26Zm-1.72-3.78l.06.56,1.69-.18-.06-.56-1.69.18Zm.57,2.97l.34,1.07,1.62-.52-.34-1.07-1.62.52Zm3.94,6.24l.51.33.92-1.43-.51-.33-.92,1.43Zm-2.24-2.26c.57.91,1.34,1.68,2.24,2.26l.92-1.43c-.69-.45-1.28-1.04-1.72-1.74l-1.44.91Zm-1.36-2.91c.33,1.03.78,2,1.36,2.91l1.44-.91c-.5-.79-.89-1.63-1.18-2.52l-1.62.52Zm-.85-3.47c.09.82.26,1.62.51,2.41l1.62-.52c-.21-.67-.36-1.37-.44-2.07l-1.69.18Zm.45-5.45c-.51,1.58-.68,3.24-.51,4.89l1.69-.18c-.15-1.41,0-2.83.43-4.18l-1.62-.52Z" style="fill:#614c39; stroke-width:0px;"/><polygon points="176.34 276.15 188.1 284.84 231.01 232.73 212.62 232.73 176.34 276.15" style="fill:#f4b74f; stroke-width:0px;"/><polygon points="236.16 325.47 247.91 334.16 348.86 224.01 330.47 224.01 236.16 325.47" style="fill:#f4b74f; stroke-width:0px;"/><rect x="75.73" y="215.29" width="316.64" height="17.43" style="fill:#fde46e; stroke-width:0px;"/><rect x="52.91" y="142.68" width="339.46" height="10.66" style="fill:#fde46e; stroke-width:0px;"/><rect x="209.04" y="153.33" width="6.64" height="61.96" style="fill:#fde46e; stroke-width:0px;"/><rect x="183.5" y="153.33" width="6.64" height="61.96" style="fill:#fde46e; stroke-width:0px;"/><rect x="157.95" y="153.33" width="6.64" height="61.96" style="fill:#fde46e; stroke-width:0px;"/><rect x="132.4" y="153.33" width="6.64" height="61.96" style="fill:#fde46e; stroke-width:0px;"/><rect x="106.86" y="153.33" width="6.64" height="61.96" style="fill:#fde46e; stroke-width:0px;"/><rect x="232.55" y="153.33" width="6.64" height="61.96" style="fill:#fde46e; stroke-width:0px;"/><rect x="256.05" y="153.33" width="6.64" height="61.96" style="fill:#fde46e; stroke-width:0px;"/><rect x="279.55" y="153.33" width="6.64" height="61.96" style="fill:#fde46e; stroke-width:0px;"/><rect x="303.06" y="153.33" width="6.64" height="61.96" style="fill:#fde46e; stroke-width:0px;"/><rect x="326.56" y="153.33" width="6.64" height="61.96" style="fill:#fde46e; stroke-width:0px;"/><rect x="350.06" y="153.33" width="6.64" height="61.96" style="fill:#fde46e; stroke-width:0px;"/><rect x="374.59" y="153.33" width="6.64" height="61.96" style="fill:#fde46e; stroke-width:0px;"/><path d="m78.59,152.83c0,.5,69.69.9,155.63.9s155.64-.4,155.64-.9-69.67-.9-155.64-.9-155.63.4-155.63.9Z" style="fill:#fde46e; stroke-width:0px;"/><rect x="384.94" y="152.98" width="7.43" height="15.47" style="fill:url(#_Безымянный_градиент_8); stroke-width:0px;"/></g></svg>