<?xml version="1.0" encoding="UTF-8"?><svg id="_Слой_2" xmlns="http://www.w3.org/2000/svg" width="392.37" height="191.48" xmlns:xlink="http://www.w3.org/1999/xlink" viewBox="0 0 392.37 191.48"><defs><linearGradient id="_Безымянный_градиент_8" x1="388.66" y1="10.3" x2="388.66" y2="25.78" gradientUnits="userSpaceOnUse"><stop offset="0" stop-color="#fde46e"/><stop offset="1" stop-color="#c1b560"/></linearGradient></defs><g id="_Слой_1-2"><polygon points="176.34 133.48 188.1 142.16 231.01 90.05 212.62 90.05 176.34 133.48" style="fill:#f4b74f; stroke-width:0px;"/><polygon points="236.16 182.8 247.91 191.48 348.86 81.33 330.47 81.33 236.16 182.8" style="fill:#f4b74f; stroke-width:0px;"/><rect x="75.73" y="72.61" width="316.64" height="17.43" style="fill:#fde46e; stroke-width:0px;"/><rect x="187.02" y="25.63" width="205.35" height="6.91" style="fill:#c1b560; stroke-width:0px;"/><rect x="273.48" y="32.54" width="4.31" height="40.18" style="fill:#c1b560; stroke-width:0px;"/><rect x="256.91" y="32.54" width="4.31" height="40.18" style="fill:#c1b560; stroke-width:0px;"/><rect x="240.34" y="32.54" width="4.31" height="40.18" style="fill:#c1b560; stroke-width:0px;"/><rect x="223.77" y="32.54" width="4.31" height="40.18" style="fill:#c1b560; stroke-width:0px;"/><rect x="207.21" y="32.54" width="4.31" height="40.18" style="fill:#c1b560; stroke-width:0px;"/><rect x="288.72" y="32.54" width="4.31" height="40.18" style="fill:#c1b560; stroke-width:0px;"/><rect x="303.96" y="32.54" width="4.31" height="40.18" style="fill:#c1b560; stroke-width:0px;"/><rect x="319.21" y="32.54" width="4.31" height="40.18" style="fill:#c1b560; stroke-width:0px;"/><rect x="334.45" y="32.54" width="4.31" height="40.18" style="fill:#c1b560; stroke-width:0px;"/><rect x="349.69" y="32.54" width="4.31" height="40.18" style="fill:#c1b560; stroke-width:0px;"/><rect x="364.93" y="32.54" width="4.31" height="40.18" style="fill:#c1b560; stroke-width:0px;"/><rect x="380.84" y="32.54" width="4.31" height="40.18" style="fill:#c1b560; stroke-width:0px;"/><rect y="25.63" width="205.35" height="6.91" style="fill:#c1b560; stroke-width:0px;"/><rect x="86.46" y="32.54" width="4.31" height="40.18" style="fill:#c1b560; stroke-width:0px;"/><rect x="69.89" y="32.54" width="4.31" height="40.18" style="fill:#c1b560; stroke-width:0px;"/><rect x="53.32" y="32.54" width="4.31" height="40.18" style="fill:#c1b560; stroke-width:0px;"/><rect x="36.75" y="32.54" width="4.31" height="40.18" style="fill:#c1b560; stroke-width:0px;"/><rect x="20.18" y="32.54" width="4.31" height="40.18" style="fill:#c1b560; stroke-width:0px;"/><rect x="101.7" y="32.54" width="4.31" height="40.18" style="fill:#c1b560; stroke-width:0px;"/><rect x="116.94" y="32.54" width="4.31" height="40.18" style="fill:#c1b560; stroke-width:0px;"/><rect x="132.18" y="32.54" width="4.31" height="40.18" style="fill:#c1b560; stroke-width:0px;"/><rect x="147.43" y="32.54" width="4.31" height="40.18" style="fill:#c1b560; stroke-width:0px;"/><rect x="162.67" y="32.54" width="4.31" height="40.18" style="fill:#c1b560; stroke-width:0px;"/><rect x="177.91" y="32.54" width="4.31" height="40.18" style="fill:#c1b560; stroke-width:0px;"/><rect x="193.82" y="32.54" width="4.31" height="40.18" style="fill:#c1b560; stroke-width:0px;"/><rect x="52.91" width="339.46" height="10.66" style="fill:#fde46e; stroke-width:0px;"/><rect x="209.04" y="10.66" width="6.64" height="61.96" style="fill:#fde46e; stroke-width:0px;"/><rect x="183.5" y="10.66" width="6.64" height="61.96" style="fill:#fde46e; stroke-width:0px;"/><rect x="157.95" y="10.66" width="6.64" height="61.96" style="fill:#fde46e; stroke-width:0px;"/><rect x="132.4" y="10.66" width="6.64" height="61.96" style="fill:#fde46e; stroke-width:0px;"/><rect x="106.86" y="10.66" width="6.64" height="61.96" style="fill:#fde46e; stroke-width:0px;"/><rect x="232.55" y="10.66" width="6.64" height="61.96" style="fill:#fde46e; stroke-width:0px;"/><rect x="256.05" y="10.66" width="6.64" height="61.96" style="fill:#fde46e; stroke-width:0px;"/><rect x="279.55" y="10.66" width="6.64" height="61.96" style="fill:#fde46e; stroke-width:0px;"/><rect x="303.06" y="10.66" width="6.64" height="61.96" style="fill:#fde46e; stroke-width:0px;"/><rect x="326.56" y="10.66" width="6.64" height="61.96" style="fill:#fde46e; stroke-width:0px;"/><rect x="350.06" y="10.66" width="6.64" height="61.96" style="fill:#fde46e; stroke-width:0px;"/><rect x="374.59" y="10.66" width="6.64" height="61.96" style="fill:#fde46e; stroke-width:0px;"/><path d="m78.59,10.16c0,.5,69.69.9,155.63.9s155.64-.4,155.64-.9-69.67-.9-155.64-.9-155.63.4-155.63.9Z" style="fill:#fde46e; stroke-width:0px;"/><rect x="384.94" y="10.3" width="7.43" height="15.47" style="fill:url(#_Безымянный_градиент_8); stroke-width:0px;"/></g></svg>