<?xml version="1.0" encoding="UTF-8"?><svg id="_Слой_2" xmlns="http://www.w3.org/2000/svg" width="204.87" height="202.22" viewBox="0 0 204.87 202.22"><g id="_Слой_1-2"><path d="m151.16,145.25h-2.75l-7.9,41.36,16.37,11.48,11.1-41.36c-1.25-2.05-2.79-3.91-4.58-5.52l-.47-.42c-1.27-1.14-2.65-2.17-4.11-3.07l-.91-.56c-2.03-1.25-4.37-1.91-6.75-1.91Z" style="fill:#dda46d; stroke:#614c39; stroke-linecap:round; stroke-miterlimit:11.47; stroke-width:1.55px;"/><path d="m173.47,146.67l3.68,2.26c.52-1.78,1.19-3.52,2-5.2-2.06.62-4,1.62-5.68,2.93Z" style="fill:#ebecef; stroke:#614c39; stroke-width:1.55px;"/><path d="m197.58,160.83l3.68,2.26c.52-1.78,1.19-3.52,2-5.2-2.06.62-4,1.62-5.68,2.93Z" style="fill:#ebecef; stroke:#614c39; stroke-width:1.55px;"/><path d="m187.37,151.98l3.68,2.26c.52-1.78,1.19-3.52,2-5.2-2.06.62-4,1.62-5.68,2.93Z" style="fill:#ebecef; stroke:#614c39; stroke-width:1.55px;"/><path d="m165.7,199.35l-.77-.14c-.58-.1-1.15-.28-1.68-.53-1.52-.7-2.75-1.92-3.45-3.44l-4.24-9.17c-1.96-4.24-2.67-8.96-2.04-13.59.25-1.81.69-3.59,1.34-5.3l1.87-4.99.21-.41c1.63-3.15,3.63-6.09,5.96-8.76l1.97-2.13c.58-.62,1.2-1.2,1.86-1.72l.89-.71c.63-.5,1.32-.91,2.06-1.22l.52-.21c1.22-.5,2.56-.64,3.85-.39.89.17,1.74.52,2.49,1.03l.38.26c1.19.8,2.17,1.88,2.86,3.14l.62,1.14.91-.42c1.49-.68,3.11-1.03,4.75-1.03h.3c.92,0,1.83.14,2.71.4l.29.09c.69.21,1.35.52,1.96.92.83.56,1.54,1.27,2.08,2.11l.06.1c.52.8.89,1.68,1.09,2.61l.36,1.65h2.48c.89,0,1.77.21,2.56.62.64.33,1.21.78,1.67,1.33l.19.23c.4.47.74,1,1,1.56l.43.92c.55,1.17.84,2.45.84,3.75,0,1.04-.18,2.08-.55,3.05l-.39,1.05c-.49,1.31-1.15,2.55-1.99,3.67-.83,1.12-1.81,2.11-2.91,2.96l-2.34,1.79-4.5,3.22-.79.6c-2.58,1.96-4.95,4.19-7.05,6.65l-2.24,2.52c-1.17,1.32-2.49,2.5-3.93,3.51l-1.24.87c-1.38.97-2.92,1.69-4.56,2.12l-.23.06c-1.85.49-3.79.57-5.67.23Z" style="fill:#ffe0c1; stroke:#614c39; stroke-width:1.55px;"/><path d="m165.16,199.43l-.74-.12c-.5-.08-.98-.23-1.44-.42-1.39-.59-2.52-1.66-3.19-3.02l-3.78-7.64c-1.74-3.52-2.37-7.48-1.81-11.37.22-1.51.62-3,1.19-4.42l1.69-4.21.16-.29c1.49-2.68,3.3-5.17,5.39-7.42l1.75-1.76c.53-.54,1.1-1.03,1.71-1.48l.76-.56c.59-.44,1.23-.79,1.91-1.05l.44-.17c1.1-.42,2.29-.54,3.45-.33.81.15,1.59.45,2.28.89l.27.17c1.1.69,2.01,1.64,2.66,2.76l.5.86.79-.34c1.36-.58,2.82-.88,4.29-.88h.28c.81,0,1.62.11,2.41.33l.31.09c.6.17,1.17.42,1.7.75.76.47,1.42,1.1,1.93,1.84.48.69.82,1.46,1.01,2.27l.31,1.34h2.27c.77,0,1.54.18,2.24.51.59.29,1.12.68,1.55,1.17l.13.14c.37.41.68.86.93,1.35l.38.76c.49.97.74,2.04.74,3.12,0,.87-.17,1.74-.49,2.55l-.12.29c-.59,1.48-1.57,2.76-2.84,3.72l-1,.75-3.8,2.78-3.4,2.65-2.51,2.42c-.94.91-1.81,1.9-2.59,2.95-.78,1.05-1.65,2.04-2.6,2.95l-.27.26c-1.4,1.35-2.97,2.52-4.67,3.48l-.94.53c-1.17.66-2.43,1.16-3.73,1.48l-.46.11c-1.66.41-3.39.47-5.08.19Z" style="fill:rgba(97,76,57,.21); stroke-width:0px;"/><path d="m171.15,156.15c-.46,1.45-.53,2.82-.29,3.87.24,1.06.73,1.62,1.25,1.77.52.15,1.25-.03,2.06-.79.8-.73,1.54-1.91,2-3.36.46-1.45.53-2.82.29-3.87-.24-1.06-.73-1.62-1.25-1.77-.52-.15-1.25.03-2.06.78-.8.74-1.54,1.91-2,3.36Z" style="fill:#8c8071; stroke:#614c39; stroke-width:1.55px;"/><path d="m193.98,169.29c-.73,1.04-1.09,2.14-1.11,3.05-.02.92.29,1.54.76,1.85.47.31,1.19.36,2.06,0,.87-.36,1.79-1.08,2.52-2.13.73-1.04,1.09-2.14,1.11-3.05.02-.92-.29-1.54-.76-1.85-.47-.31-1.19-.36-2.06,0-.87.36-1.79,1.09-2.52,2.13Z" style="fill:#8c8071; stroke:#614c39; stroke-width:1.55px;"/><path d="m185.09,160.33c-.79,1.31-1.17,2.64-1.18,3.71-.02,1.09.34,1.73.81,1.99s1.22.24,2.19-.32c.95-.54,1.95-1.53,2.73-2.84.79-1.31,1.17-2.64,1.18-3.71.02-1.09-.34-1.73-.81-1.99s-1.22-.24-2.19.32c-.95.54-1.95,1.53-2.73,2.84Z" style="fill:#8c8071; stroke:#614c39; stroke-width:1.55px;"/><path d="m169.63,176.36c-2.2,3.07-2.99,6.49-2.73,9.47.27,2.99,1.59,5.47,3.53,6.77,1.88,1.26,4.11,1.23,6.49.08,2.41-1.17,4.92-3.48,7.19-6.64,2.25-3.15,3.44-6.22,3.57-8.8.13-2.56-.76-4.61-2.68-5.88-3.88-2.59-10.92-1.22-15.37,5.01Z" style="fill:#8f806d; stroke:#614c39; stroke-width:1.55px;"/><path d="m157.25,180.9h-2.02c-1.04,0-2.02.46-2.69,1.26h0" style="fill:none; stroke:#614c39; stroke-linecap:round; stroke-width:1.55px;"/><path d="m188.11,170.76c-.41.13-.85-.09-.98-.5-.13-.41.09-.85.5-.98l.48,1.48Zm3.94-3.62l-.62-.47.62.47Zm3.66-8.62v.75h-1.55v-.75h1.55Zm-2.59,8.49l-.45.6-1.24-.93.45-.6,1.24.93Zm-4.78,3.68l-.24.08-.48-1.48.24-.08.48,1.48Zm2.68-1.41c-.81.62-1.71,1.1-2.68,1.41l-.48-1.48c.8-.26,1.54-.65,2.21-1.16l.95,1.23Zm1.65-1.67c-.47.63-1.03,1.19-1.65,1.67l-.95-1.23c.51-.4.97-.86,1.36-1.37l1.24.93Zm2.15-3.64c-.43,1.08-1,2.11-1.7,3.04l-1.24-.93c.62-.82,1.12-1.72,1.49-2.67l1.45.57Zm.89-4.7c0,1.61-.3,3.21-.89,4.7l-1.45-.57c.52-1.32.78-2.72.78-4.14h1.55Z" style="fill:#614c39; stroke-width:0px;"/><path d="m177.04,164.86c-.36.23-.84.13-1.07-.23-.23-.36-.13-.84.23-1.07l.84,1.3Zm3.01-5.25l.74.24-.74-.24Zm1.57-3.44l-.05.51-1.54-.17.05-.51,1.54.17Zm-.52,2.7l-.31.98-1.48-.47.31-.97,1.48.47Zm-3.59,5.69l-.47.3-.84-1.3.47-.3.84,1.3Zm2.04-2.06c-.52.83-1.22,1.53-2.04,2.06l-.84-1.3c.63-.41,1.17-.95,1.57-1.58l1.31.83Zm1.24-2.66c-.3.93-.71,1.83-1.24,2.66l-1.31-.83c.45-.72.81-1.49,1.07-2.3l1.48.47Zm.77-3.17c-.08.75-.24,1.48-.46,2.19l-1.48-.47c.2-.61.33-1.25.4-1.89l1.54.17Zm-.41-4.97c.46,1.44.62,2.96.46,4.46l-1.54-.17c.14-1.29,0-2.59-.39-3.82l1.48-.48Z" style="fill:#614c39; stroke-width:0px;"/><path d="m53.71,140.7h2.75l7.9,41.37-16.37,11.48-11.1-41.36c1.25-2.05,2.79-3.91,4.58-5.52l.47-.42c1.27-1.14,2.65-2.17,4.11-3.07l.92-.56c2.03-1.25,4.37-1.91,6.75-1.91Z" style="fill:#dda46d; stroke:#614c39; stroke-linecap:round; stroke-miterlimit:11.47; stroke-width:1.55px;"/><path d="m31.4,142.12l-3.68,2.26c-.52-1.78-1.19-3.52-2-5.2,2.06.62,4,1.62,5.68,2.93Z" style="fill:#ebecef; stroke:#614c39; stroke-width:1.55px;"/><path d="m7.29,156.28l-3.68,2.26c-.52-1.78-1.19-3.52-2-5.2,2.06.62,4,1.62,5.68,2.93Z" style="fill:#ebecef; stroke:#614c39; stroke-width:1.55px;"/><path d="m17.5,147.43l-3.68,2.26c-.52-1.78-1.19-3.52-2-5.2,2.06.62,4,1.62,5.68,2.93Z" style="fill:#ebecef; stroke:#614c39; stroke-width:1.55px;"/><path d="m39.17,194.79l.77-.14c.58-.1,1.15-.28,1.68-.53,1.52-.7,2.75-1.92,3.45-3.44l4.25-9.17c1.96-4.24,2.67-8.96,2.04-13.59-.25-1.81-.69-3.59-1.34-5.3l-1.87-4.99-.21-.41c-1.63-3.15-3.63-6.09-5.96-8.76l-1.97-2.13c-.58-.62-1.2-1.2-1.86-1.72l-.89-.71c-.63-.5-1.32-.91-2.07-1.21l-.52-.21c-1.22-.5-2.56-.64-3.85-.39-.89.17-1.74.52-2.49,1.03l-.38.26c-1.19.81-2.17,1.88-2.86,3.15l-.62,1.14-.91-.42c-1.49-.68-3.11-1.03-4.75-1.03h-.3c-.92,0-1.83.14-2.71.4l-.29.09c-.69.21-1.35.52-1.96.92-.83.55-1.54,1.27-2.08,2.11l-.06.1c-.52.8-.89,1.68-1.09,2.61l-.36,1.65h-2.48c-.89,0-1.77.21-2.56.62-.64.33-1.21.78-1.67,1.33l-.19.23c-.4.47-.74,1-1,1.56l-.43.92c-.55,1.17-.84,2.45-.84,3.75,0,1.04.19,2.07.55,3.05l.39,1.05c.49,1.31,1.15,2.55,1.99,3.67.83,1.12,1.81,2.11,2.91,2.96l2.34,1.79,4.5,3.22.79.6c2.58,1.96,4.95,4.19,7.05,6.65l2.24,2.52c1.17,1.32,2.49,2.5,3.94,3.51l1.24.87c1.38.97,2.92,1.69,4.56,2.12l.23.06c1.85.49,3.79.57,5.67.23Z" style="fill:#ffe0c1; stroke:#614c39; stroke-width:1.55px;"/><path d="m39.71,194.88l.74-.12c.5-.08.98-.22,1.44-.42,1.39-.59,2.52-1.66,3.19-3.01l3.78-7.64c1.74-3.52,2.37-7.48,1.81-11.37-.22-1.51-.62-3-1.19-4.42l-1.69-4.21-.16-.29c-1.49-2.68-3.3-5.17-5.39-7.42l-1.75-1.76c-.53-.54-1.1-1.03-1.71-1.48l-.75-.56c-.59-.44-1.23-.79-1.91-1.05l-.44-.17c-1.1-.42-2.29-.54-3.45-.33-.81.15-1.59.45-2.28.89l-.27.17c-1.1.69-2.01,1.64-2.66,2.76l-.5.86-.79-.34c-1.36-.58-2.82-.88-4.29-.88h-.28c-.81,0-1.62.11-2.41.33l-.31.09c-.6.17-1.17.42-1.7.75-.76.47-1.42,1.1-1.93,1.84-.48.69-.82,1.46-1.01,2.27l-.31,1.34h-2.27c-.77,0-1.54.18-2.24.51-.59.28-1.12.68-1.55,1.16l-.13.14c-.37.41-.68.86-.93,1.35l-.38.76c-.49.97-.74,2.04-.74,3.12,0,.87.17,1.74.49,2.55l.12.29c.59,1.48,1.57,2.76,2.84,3.72l1,.75,3.8,2.78,3.4,2.65,2.51,2.42c.94.91,1.81,1.9,2.59,2.95.78,1.05,1.65,2.04,2.59,2.95l.27.26c1.4,1.35,2.97,2.52,4.67,3.48l.94.53c1.17.66,2.43,1.16,3.73,1.48l.46.11c1.66.41,3.39.48,5.08.19Z" style="fill:rgba(97,76,57,.21); stroke-width:0px;"/><path d="m33.72,151.6c.46,1.45.53,2.82.29,3.87-.24,1.06-.73,1.62-1.25,1.77-.52.15-1.25-.03-2.06-.78-.8-.74-1.54-1.91-2-3.36-.46-1.45-.53-2.82-.29-3.87.24-1.06.73-1.62,1.25-1.77.52-.15,1.25.03,2.06.79.8.73,1.54,1.91,2,3.36Z" style="fill:#8c8071; stroke:#614c39; stroke-width:1.55px;"/><path d="m10.89,164.74c.73,1.04,1.09,2.14,1.11,3.05.02.92-.29,1.54-.76,1.85-.47.31-1.19.36-2.06,0-.87-.36-1.79-1.09-2.52-2.13-.73-1.04-1.09-2.14-1.11-3.05-.02-.92.29-1.54.76-1.85.47-.31,1.19-.36,2.06,0,.87.36,1.79,1.09,2.52,2.13Z" style="fill:#8c8071; stroke:#614c39; stroke-width:1.55px;"/><path d="m19.78,155.78c.79,1.31,1.17,2.64,1.18,3.71.02,1.09-.34,1.73-.81,1.99-.46.26-1.22.24-2.19-.32-.95-.54-1.95-1.53-2.73-2.84-.79-1.31-1.17-2.64-1.18-3.71-.02-1.09.34-1.73.81-1.99.46-.26,1.22-.24,2.19.32.95.54,1.95,1.53,2.73,2.84Z" style="fill:#8c8071; stroke:#614c39; stroke-width:1.55px;"/><path d="m35.24,171.81c2.2,3.07,2.99,6.49,2.73,9.47-.27,2.99-1.59,5.47-3.53,6.77-1.88,1.26-4.11,1.23-6.49.08-2.41-1.17-4.92-3.48-7.18-6.64-2.25-3.15-3.44-6.22-3.57-8.8-.13-2.56.76-4.61,2.68-5.88,3.88-2.59,10.92-1.22,15.37,5.01Z" style="fill:#8f806d; stroke:#614c39; stroke-width:1.55px;"/><path d="m143.92,146.76c0,24.03-18.89,43.47-42.14,43.47s-42.14-19.44-42.14-43.47,18.89-43.47,42.14-43.47,42.14,19.44,42.14,43.47Z" style="fill:#ba8b5e; stroke:#7f7974; stroke-width:1.55px;"/><path d="m63.86,99.68l2.86-2.48,20,6.56,3.81,20.83v4.61l-1.71,10.14-.76,8.3v1.02c0,3.25.31,6.49.92,9.68l.6,3.13.95,7.37v12.11c0,1.51-.12,3.02-.37,4.51l-.16.96c-.28,1.67-.77,3.3-1.46,4.84l-.62,1.38c-.54,1.2-1.29,2.3-2.21,3.25-1.09,1.12-2.41,2.01-3.86,2.59l-.87.35c-1,.4-2.04.7-3.1.89l-1.24.22c-1.53.27-3.09.24-4.6-.09-1.26-.28-2.46-.76-3.56-1.42l-1.38-.84-2.41,1.29c-.68.36-1.4.65-2.14.85-1.52.41-3.11.45-4.65.13l-.22-.05c-1.2-.25-2.36-.71-3.41-1.34l-1.46-.88-.33.21c-.54.35-1.14.57-1.77.66-.25.03-.5.05-.76.04l-2.53-.09c-1.47-.05-2.92-.41-4.25-1.05l-.2-.1c-.56-.27-1.08-.6-1.57-.98-1.5-1.18-2.57-2.83-3.03-4.68l-.13-.54c-.2-.8-.3-1.63-.3-2.46v-.52c0-1.27.18-2.54.54-3.76l.17-.58c.28-.96.72-1.88,1.29-2.7.93-1.36,2.21-2.45,3.69-3.16l.96-.47c.39-.19.79-.33,1.21-.43,1.99-.48,3.59-1.93,4.28-3.85l.34-.97c.31-.86.46-1.76.46-2.67v-33.47l.76-9.03,1.08-4.95c.68-3.09,1.58-6.12,2.7-9.08l1.03-2.7c.48-1.26,1.05-2.48,1.71-3.65,1.48-2.62,3.41-4.96,5.68-6.93Z" style="fill:#dda46d; stroke:#614c39; stroke-width:1.55px;"/><path d="m66.46,177.31l-1.51-.61c-1.4-.57-2.93-.76-4.42-.56h0c-1.28.17-2.5.61-3.59,1.31l-.24.15c-1.04.66-1.95,1.51-2.68,2.51l-.52.71c-.45.61-.84,1.27-1.16,1.96h0c-.7,1.5-1.06,3.13-1.06,4.79v3.2h0c.25,2.32.77,4.61,1.54,6.82h0" style="fill:none; stroke:#614c39; stroke-linecap:round; stroke-width:1.55px;"/><path d="m66.98,197.59h0c-1.01-1.09-1.73-2.42-2.09-3.86l-.42-1.68c-.25-.98-.37-2-.37-3.01h0c0-1.91.46-3.82,1.31-5.53h0c.53-1.07,1.22-2.07,2.03-2.94l.05-.05c1.19-1.29,2.65-2.32,4.26-3.02l.65-.28c.49-.21,1.01-.37,1.54-.46h0c1.59-.27,3.23.04,4.61.88l1.51.92" style="fill:none; stroke:#614c39; stroke-linecap:round; stroke-width:1.55px;"/><path d="m47.62,176.35h2.02c1.04,0,2.02.46,2.69,1.26h0" style="fill:none; stroke:#614c39; stroke-linecap:round; stroke-width:1.55px;"/><path d="m68.77,200l-.03.11c-1.34-2.61-2.04-5.52-2.04-8.47,0-.05.04-.09.08-.09l.76-.1c1.48-.2,2.98-.05,4.38.43l-.62,1.34c-1.02,2.19-1.86,4.46-2.52,6.78Z" style="fill:#ebecef; stroke:#614c39; stroke-width:1.55px;"/><path d="m68.55,200.37l-.22-.45c-1.23-2.45-1.87-5.15-1.87-7.89h0c0-.43.33-.79.76-.82l.37-.03c.72-.06,1.45-.06,2.17,0h0c.57.05.94.63.73,1.17l-.19.48c-.9,2.3-1.48,4.72-1.71,7.18l-.03.36Z" style="fill:rgba(255,255,255,.77); stroke-width:0px;"/><path d="m40.51,199.49l-.03.11c-1.34-2.61-2.04-5.52-2.04-8.47,0-.05.04-.09.08-.09l.76-.1c1.48-.2,2.98-.05,4.38.43l-.62,1.34c-1.02,2.19-1.86,4.46-2.52,6.78Z" style="fill:#ebecef; stroke:#614c39; stroke-width:1.55px;"/><path d="m40.29,199.86l-.22-.45c-1.23-2.45-1.87-5.15-1.87-7.89h0c0-.43.33-.79.76-.82l.37-.03c.72-.06,1.45-.06,2.17,0h0c.57.05.94.63.73,1.17l-.19.48c-.9,2.3-1.48,4.72-1.71,7.18l-.03.36Z" style="fill:rgba(255,255,255,.77); stroke-width:0px;"/><path d="m55.42,200l-.03.11c-1.34-2.61-2.04-5.52-2.04-8.47,0-.05.04-.09.08-.09l.76-.1c1.48-.2,2.98-.05,4.38.43l-.62,1.34c-1.02,2.19-1.86,4.46-2.52,6.78Z" style="fill:#ebecef; stroke:#614c39; stroke-width:1.55px;"/><path d="m55.2,200.37l-.22-.45c-1.23-2.45-1.87-5.15-1.87-7.89h0c0-.43.33-.79.76-.82l.37-.03c.72-.06,1.45-.06,2.17,0h0c.57.05.94.63.73,1.17l-.19.48c-.9,2.3-1.48,4.72-1.71,7.18l-.03.36Z" style="fill:rgba(255,255,255,.77); stroke-width:0px;"/><path d="m137.09,97.91l-2.86-2.48-20,6.56-3.81,20.83v4.61l1.71,10.14.76,8.3v1.02c0,3.25-.31,6.49-.92,9.68l-.6,3.13-.95,7.37v12.11c0,1.51.12,3.02.37,4.51l.16.96c.28,1.67.77,3.3,1.46,4.84l.62,1.38c.54,1.2,1.29,2.3,2.21,3.25,1.09,1.12,2.41,2.01,3.86,2.59l.87.35c1,.4,2.04.7,3.1.89l1.24.22c1.53.27,3.09.24,4.6-.09,1.26-.28,2.46-.76,3.56-1.42l1.38-.84,2.41,1.29c.68.36,1.4.65,2.14.85,1.52.41,3.11.45,4.65.13l.22-.05c1.2-.25,2.36-.71,3.41-1.34l1.46-.88.33.21c.54.35,1.14.57,1.77.66.25.03.5.05.76.04l2.53-.09c1.47-.05,2.92-.41,4.25-1.05l.2-.1c.56-.27,1.08-.6,1.57-.98,1.5-1.18,2.57-2.83,3.03-4.68l.13-.54c.2-.8.3-1.63.3-2.46v-.52c0-1.27-.18-2.54-.54-3.76l-.17-.58c-.28-.96-.72-1.88-1.29-2.7-.94-1.36-2.21-2.45-3.69-3.16l-.96-.47c-.39-.19-.79-.33-1.21-.43-1.98-.48-3.59-1.93-4.28-3.85l-.34-.97c-.31-.86-.46-1.76-.46-2.67v-33.47l-.76-9.03-1.08-4.95c-.68-3.09-1.58-6.12-2.7-9.08l-1.03-2.7c-.48-1.26-1.05-2.48-1.71-3.65-1.48-2.62-3.4-4.96-5.68-6.93Z" style="fill:#dda46d; stroke:#614c39; stroke-width:1.55px;"/><path d="m134.49,175.55l1.51-.61c1.4-.57,2.93-.76,4.42-.56h0c1.28.17,2.5.61,3.59,1.31l.24.15c1.04.66,1.95,1.51,2.68,2.51l.52.71c.45.61.84,1.27,1.16,1.96h0c.7,1.5,1.06,3.13,1.06,4.79v3.2h0c-.25,2.32-.77,4.61-1.54,6.82h0" style="fill:none; stroke:#614c39; stroke-linecap:round; stroke-width:1.55px;"/><path d="m133.96,195.82h0c1.01-1.09,1.73-2.42,2.09-3.86l.42-1.68c.25-.98.37-2,.37-3.01h0c0-1.91-.46-3.82-1.31-5.53h0c-.53-1.07-1.22-2.07-2.03-2.94l-.05-.05c-1.19-1.29-2.65-2.32-4.26-3.02l-.65-.28c-.5-.21-1.01-.37-1.54-.46h0c-1.59-.27-3.23.04-4.61.88l-1.51.92" style="fill:none; stroke:#614c39; stroke-linecap:round; stroke-width:1.55px;"/><path d="m154.11,174.58h-2.52c-1.12,0-2.2.46-2.98,1.26h0" style="fill:none; stroke:#614c39; stroke-linecap:round; stroke-width:1.55px;"/><path d="m132.18,198.23l.03.11c1.34-2.61,2.04-5.52,2.04-8.47,0-.05-.04-.09-.08-.09l-.76-.1c-1.48-.2-2.98-.06-4.38.43l.62,1.34c1.02,2.19,1.86,4.46,2.52,6.78Z" style="fill:#ebecef; stroke:#614c39; stroke-width:1.55px;"/><path d="m132.4,198.6l.23-.45c1.23-2.45,1.87-5.15,1.87-7.89h0c0-.43-.33-.79-.76-.82l-.37-.03c-.72-.06-1.45-.06-2.17,0h0c-.57.05-.94.63-.73,1.17l.19.48c.9,2.3,1.48,4.72,1.71,7.18l.03.36Z" style="fill:rgba(255,255,255,.77); stroke-width:0px;"/><path d="m160.44,197.72l.03.11c1.34-2.61,2.04-5.52,2.04-8.47,0-.05-.04-.09-.08-.09l-.76-.1c-1.48-.2-2.98-.05-4.38.43l.62,1.34c1.02,2.19,1.86,4.46,2.52,6.78Z" style="fill:#ebecef; stroke:#614c39; stroke-width:1.55px;"/><path d="m160.66,198.09l.22-.45c1.23-2.45,1.87-5.15,1.87-7.89h0c0-.43-.33-.79-.76-.82l-.37-.03c-.72-.06-1.45-.06-2.17,0h0c-.57.05-.94.63-.73,1.17l.19.48c.9,2.3,1.48,4.72,1.71,7.18l.03.36Z" style="fill:rgba(255,255,255,.77); stroke-width:0px;"/><path d="m145.52,198.23l.03.11c1.34-2.61,2.04-5.52,2.04-8.47,0-.05-.04-.09-.08-.09l-.76-.1c-1.48-.2-2.98-.06-4.38.43l.62,1.34c1.02,2.19,1.86,4.46,2.52,6.78Z" style="fill:#ebecef; stroke:#614c39; stroke-width:1.55px;"/><path d="m145.74,198.6l.23-.45c1.23-2.45,1.87-5.15,1.87-7.89h0c0-.43-.33-.79-.76-.82l-.37-.03c-.72-.06-1.45-.06-2.17,0h0c-.57.05-.94.63-.73,1.17l.19.48c.9,2.3,1.48,4.72,1.71,7.18l.03.36Z" style="fill:rgba(255,255,255,.77); stroke-width:0px;"/><path d="m63.32,107.97l7.77-8.84,57.85-.66c.74,2.71,2.41,5.07,4.73,6.67l7.62,5.26-3.85-.95c-3.9-.96-7.42-3.07-10.12-6.05l-.67-.74.33,2.22c.54,3.63,1.87,7.1,3.91,10.16l1.48,2.21-7.09-6.19,1.93,4.78c.08.2.18.4.29.59,1.64,2.77,2.01,6.11,1.02,9.18l-.73,2.25c0-3.34-1.57-6.48-4.24-8.49l-1.93-1.45,1.6,5.51c1.36,4.67,1.67,9.58.92,14.38l-.91-3.54-1.6-6.41v4.54c0,3.59-.44,7.16-1.32,10.64l-.96,3.82-.69-6.41-1.14-6.19-.42,3.64c-.48,4.16-1.78,8.19-3.82,11.86l-1.71,3.07.45-5.66c.16-1.97.13-3.95-.08-5.91l-.37-3.46-.56,1.09c-2.05,3.96-3.43,8.23-4.08,12.65l-.39,2.62-4.12-16.35c-.74,5.88-3.4,11.35-7.56,15.56l-2.96,3,.79-1.98c1.74-4.38,2.64-9.06,2.64-13.78v-5.23c-3.87,3.31-6.64,7.72-7.94,12.65l-.98,3.71c-2.41-5.98-4.14-12.28-5.08-18.66l-.18-1.23-1.37,5.3-2.29,7.07-1.14-17.24-3.43,10.83-.69-5.97v-6.19l1.6-10.83-4.34,9.5.05-.49c.42-4.38,1.27-8.7,2.51-12.92l.87-2.94-5.03,4.86,4.34-8.4-4.34,1.55-4.57,1.99Z" style="fill:#ffe2c5; stroke:#614c39; stroke-linecap:round; stroke-miterlimit:11.47; stroke-width:1.55px;"/><path d="m133.56,12.16l-.65,1.47c-1.37,3.1-2.08,6.45-2.08,9.84l8.97,7.93,3.34,4.26,3.04,4.41h3.25c1.68,0,3.34-.22,4.96-.65l.7-.19c1.54-.41,3.01-1.08,4.34-1.97l.38-.25c1.33-.89,2.48-2.02,3.38-3.35,1.01-1.48,1.68-3.17,1.97-4.94l.09-.58c.25-1.53.26-3.09.04-4.63l-.25-1.69c-.21-1.44-.57-2.85-1.08-4.21l-.09-.25c-.84-2.27-2.12-4.38-3.73-6.18-.89-.99-1.89-1.9-2.96-2.69-2.24-1.64-4.81-2.77-7.53-3.3l-.9-.18c-1.1-.22-2.23-.33-3.35-.33h-1.44c-1.44,0-2.86.3-4.18.88-1.96.86-3.61,2.31-4.72,4.15l-1.49,2.47Z" style="fill:#dda46d; stroke:#614c39; stroke-width:1.55px;"/><path d="m138.3,28.17l-.41,1.12,3.93,4.7h4.82c.72,0,1.43-.07,2.13-.21l1.85-.36c1.06-.21,2.03-.73,2.78-1.51.63-.66,1.08-1.48,1.3-2.36l.22-.89c.33-1.33.34-2.71.03-4.04l-.42-1.82c-.11-.47-.28-.92-.51-1.34l-.13-.24c-.75-1.39-2.12-2.33-3.68-2.52-.65-.08-1.31-.03-1.94.15l-1.76.5c-.6.17-1.18.43-1.71.76l-.06.04c-1.13.71-2.17,1.57-3.07,2.56l-.11.13c-1.42,1.55-2.52,3.37-3.25,5.34Z" style="fill:#c9af95; stroke:#6c5b4c; stroke-width:1.55px;"/><path d="m139.73,29.3l-.27.65,3.53,3.8h3.34c.74,0,1.47-.06,2.2-.19l1.97-.35c.82-.14,1.6-.5,2.25-1.02.88-.71,1.49-1.7,1.73-2.81v-.05c.19-.83.16-1.7-.08-2.52l-.51-1.72c-.11-.38-.27-.73-.48-1.07-.71-1.15-1.92-1.91-3.26-2.06h-.07c-.53-.07-1.07-.03-1.59.1l-1.56.39c-.52.13-1.03.33-1.51.59l-.04.02c-.97.53-1.87,1.19-2.68,1.96-1.27,1.21-2.28,2.67-2.96,4.29Z" style="fill:#ffdebd; stroke-width:0px;"/><path d="m73.4,12.16l.65,1.47c1.37,3.1,2.08,6.45,2.08,9.84l-8.97,7.93-3.34,4.26-3.04,4.41h-3.25c-1.67,0-3.34-.22-4.96-.65l-.7-.19c-1.54-.41-3.01-1.08-4.34-1.97l-.38-.25c-1.33-.89-2.48-2.02-3.38-3.35-1.01-1.48-1.68-3.17-1.97-4.94l-.1-.58c-.25-1.53-.26-3.09-.04-4.63l.25-1.69c.21-1.44.57-2.85,1.08-4.21l.09-.25c.84-2.27,2.12-4.38,3.73-6.18.89-.99,1.89-1.9,2.96-2.69,2.24-1.64,4.81-2.77,7.53-3.3l.9-.18c1.1-.22,2.23-.33,3.35-.33h1.44c1.44,0,2.86.3,4.18.88,1.96.86,3.61,2.31,4.72,4.15l1.49,2.47Z" style="fill:#dda46d; stroke:#614c39; stroke-width:1.55px;"/><path d="m68.66,28.17l.41,1.12-3.93,4.7h-4.82c-.72,0-1.43-.07-2.13-.21l-1.85-.36c-1.06-.21-2.03-.73-2.78-1.51-.63-.66-1.08-1.48-1.3-2.36l-.22-.89c-.33-1.33-.34-2.71-.03-4.04l.42-1.82c.11-.47.28-.92.51-1.34l.13-.24c.75-1.39,2.12-2.33,3.68-2.52.65-.08,1.31-.03,1.94.15l1.76.5c.6.17,1.18.43,1.71.76l.06.04c1.13.71,2.17,1.57,3.07,2.56l.12.13c1.42,1.55,2.52,3.37,3.25,5.34Z" style="fill:#c9af95; stroke:#6c5b4c; stroke-width:1.55px;"/><path d="m67.23,29.3l.27.65-3.53,3.8h-3.34c-.74,0-1.47-.06-2.2-.19l-1.97-.35c-.82-.14-1.6-.5-2.25-1.02-.88-.71-1.49-1.7-1.73-2.81v-.05c-.19-.83-.16-1.7.08-2.52l.51-1.72c.11-.38.27-.73.48-1.07.71-1.15,1.92-1.91,3.26-2.06h.07c.53-.07,1.07-.03,1.59.1l1.56.39c.53.13,1.03.33,1.51.59l.04.02c.97.53,1.87,1.19,2.68,1.96,1.27,1.21,2.28,2.67,2.96,4.29Z" style="fill:#ffdebd; stroke-width:0px;"/><path d="m48.61,60.55l-1.41,7.44-.48.79c-.79,1.29-1.2,2.78-1.2,4.29,0,2.3.73,4.54,2.08,6.4l3.04,4.18c.84,1.15,1.8,2.21,2.86,3.17l3.68,3.31c2.75,2.47,5.73,4.65,8.92,6.52,2.52,1.48,5.15,2.76,7.87,3.82l4.05,1.59c4.52,1.77,9.27,2.88,14.1,3.3l2.51.22c.97.08,1.93.24,2.87.48l1.1.27c2.64.65,5.4.56,7.99-.27.72-.23,1.46-.41,2.22-.53l5.09-.8,4.72-1.36c5.46-1.58,10.75-3.72,15.77-6.39l1.42-.76c2.97-1.58,5.81-3.4,8.49-5.44l4.68-3.57c1.58-1.2,2.98-2.63,4.16-4.22l2.28-3.09c1.18-1.6,1.82-3.54,1.82-5.52,0-2.32-.87-4.55-2.43-6.27l-.09-.1c0-2.59-.28-5.18-.84-7.71l-1.52-6.92c-2.45-7.44-5.89-14.53-10.22-21.06l-.37-.56c-4.21-4.93-9.39-8.95-15.21-11.81l-2.1-1.03-9.41-3.58c4.25-.86,8.57-1.3,12.9-1.3h5.08c-2.22-1.61-4.73-2.76-7.4-3.39l-.74-.17c-1.85-.44-3.74-.66-5.64-.66h-.2c-2.65,0-5.28.4-7.81,1.19l-6.1,1.9,2.73-3.06c2.4-2.69,4.06-5.94,4.83-9.46l-1.07,2c-.84,1.56-2.05,2.9-3.53,3.88-3.07,2.03-6.44,3.54-10,4.48l-5.73,1.52c-4.46,1.18-8.79,2.83-12.91,4.91l-4.14,2.1c-5.04,2.55-9.53,6.08-13.2,10.38-2.66,3.12-4.87,6.61-6.54,10.36l-1.86,4.17c-2.34,5.25-4.06,10.75-5.13,16.39Z" style="fill:#dda46d; stroke:#614c39; stroke-miterlimit:1.56; stroke-width:1.55px;"/><path d="m98.56,61.97c1.59-1.63,4.19-1.65,5.81-.06h0c3.31,3.24,5.82,7.2,7.36,11.57l.78,2.24h-21.98l.98-2.65c1.52-4.11,3.89-7.85,6.95-10.99l.1-.11Z" style="fill:#e2bf8f; stroke-width:0px;"/><path d="m131.37,36.83c13.19,8.07,9.93,35.98-5.51,36.81-.64.03-1.3.05-1.97.05-4.18,0-11.38-4.13-11.38-16.02s6.28-22.16,14.23-22.16c1.7,0,3.25.47,4.64,1.32Z" style="fill:#e2bf8f; stroke-width:0px;"/><path d="m133.74,38.6c-1.82-1.4-4.28-2.25-7.27-2.25-1.99,0-3.85.38-5.49,1.04,1.75-1.15,3.82-1.87,6.05-1.87,3.13,0,5.31,1.23,6.71,3.08Z" style="fill:#303030; fill-rule:evenodd; stroke-width:0px;"/><path d="m133.32,49.2c2.43,6.4,2.66,14.6-2.12,19.5-2.31,2.36-5.34,2.73-8.88,3.4-3.62.68-9.28-3.3-9.28-12.8s5.12-17.72,11.6-17.72c3.96,0,6.95,3.07,8.68,7.62Z" style="fill:#303030; stroke-width:0px;"/><path d="m133.18,60.25c-1.75,10.53-6.01,10.77-11.64,11.85-3.31.63-8.51-3.06-8.51-11.85s4.69-16.4,10.64-16.4,9.51,7.61,9.51,16.4Z" style="fill:#fefefe; stroke-width:0px;"/><path d="m126.65,61.44c0,3.26-.58,5.79-1.6,7.47-1,1.64-2.42,2.49-4.29,2.49s-3.54-1.13-4.85-3.01c-1.3-1.88-2.1-4.41-2.1-6.95s.72-4.34,1.76-5.49c1.04-1.14,2.46-1.71,4.02-1.71,1.99,0,3.75.67,5,1.88,1.25,1.2,2.06,2.98,2.06,5.32Z" style="fill:#63564a; stroke:#000; stroke-width:1.55px;"/><ellipse cx="118.66" cy="65.47" rx="4.58" ry="4.93" style="fill:#171717; stroke-width:0px;"/><ellipse cx="115.91" cy="61.68" rx="1.83" ry="2.65" style="fill:#fcfcfc; stroke-width:0px;"/><ellipse cx="120.88" cy="69.52" rx="1.05" ry=".88" style="fill:#fcfcfc; stroke-width:0px;"/><path d="m71.64,36.74c-13.5,7.83-10.06,36.14,5.53,36.91.61.03,1.23.04,1.87.04,4.23,0,11.49-4.13,11.49-16.02s-6.34-22.16-14.37-22.16c-1.65,0-3.16.43-4.52,1.22Z" style="fill:#e2bf8f; stroke-width:0px;"/><path d="m69.66,49.31c-2.35,6.35-2.57,14.39,2.07,19.32,2.29,2.43,5.32,2.8,8.84,3.48,3.57.68,9.17-3.3,9.17-12.8s-5.06-17.72-11.47-17.72c-3.94,0-6.92,3.12-8.62,7.73Z" style="fill:#303030; stroke-width:0px;"/><path d="m69.6,60.25c1.75,10.53,6.01,10.77,11.64,11.85,3.31.63,8.51-3.06,8.51-11.85s-4.69-16.4-10.64-16.4-9.51,7.61-9.51,16.4Z" style="fill:#fefefe; stroke-width:0px;"/><path d="m76.13,61.44c0,3.26.58,5.79,1.6,7.47,1,1.64,2.42,2.49,4.29,2.49s3.54-1.13,4.85-3.01c1.3-1.88,2.1-4.41,2.1-6.95s-.72-4.34-1.76-5.49c-1.04-1.14-2.46-1.71-4.02-1.71-1.99,0-3.75.67-5,1.88-1.25,1.2-2.06,2.98-2.06,5.32Z" style="fill:#63564a; stroke:#000; stroke-width:1.55px;"/><ellipse cx="84.25" cy="65.47" rx="4.45" ry="4.93" style="fill:#171717; stroke-width:0px;"/><ellipse cx="86.87" cy="61.68" rx="1.83" ry="2.65" style="fill:#fcfcfc; stroke-width:0px;"/><ellipse cx="82.02" cy="69.52" rx=".92" ry=".88" style="fill:#fcfcfc; stroke-width:0px;"/><path d="m123.15,79.73c2.69-3.09,6.56-5.85,11.19-7.72,3.53-1.42,7.07-2.15,10.31-2.23-3.5-1.57-7.84-1.7-12.01-.02-4.74,1.91-8.16,5.72-9.49,9.96Z" style="fill:#614c39; fill-rule:evenodd; stroke-width:0px;"/><path d="m80.47,79.73c-2.69-3.09-6.56-5.85-11.19-7.72-3.53-1.42-7.07-2.15-10.31-2.23,3.5-1.57,7.84-1.7,12.01-.02,4.74,1.91,8.16,5.72,9.49,9.96Z" style="fill:#614c39; fill-rule:evenodd; stroke-width:0px;"/><path d="m108.92,12.83c-2.16.15-3.69.26-3.74.26l6.39-2c1.54-.48,3.12-.82,4.73-1.01l.83-.1c1.52-.18,3.05-.17,4.56.02l1.06.13c1.23.15,2.44.4,3.63.74.7.2,1.39.46,2.04.79l1.53.75,2.18,1.35c-7.68-1.18-15.46-1.49-23.21-.94Z" style="fill:#e2bf8f; stroke-width:0px;"/><ellipse cx="136.92" cy="77.81" rx="7.36" ry="3.42" transform="translate(-18.48 52.26) rotate(-20.27)" style="fill:rgba(228,204,159,.67); stroke-width:0px;"/><ellipse cx="66.8" cy="77.9" rx="3.42" ry="7.36" transform="translate(-29.42 113.57) rotate(-69.73)" style="fill:rgba(228,204,159,.67); stroke-width:0px;"/><path d="m69.07,38.6c1.83-1.4,4.3-2.25,7.31-2.25,1.99,0,3.87.38,5.51,1.04-1.75-1.15-3.83-1.87-6.08-1.87-3.15,0-5.33,1.23-6.74,3.08Z" style="fill:#303030; fill-rule:evenodd; stroke-width:0px;"/><path d="m91.18,71.51l.11-.05c.54-.28,1.11-.51,1.69-.7l.61-.2c1.88-.6,3.84-.91,5.81-.91h3.02c1.23,0,2.46.11,3.67.34l2.89.54c1.8.34,3.47,1.17,4.82,2.41.37.34.71.7,1.02,1.1l1.75,2.19,1.5.41c.83.23,1.65.52,2.44.87l.06.02c1.09.48,2.11,1.08,3.05,1.8l.24.19c.55.42,1.06.88,1.52,1.39l.41.45c.56.62,1.02,1.32,1.36,2.09.44.99.67,2.06.67,3.14v.53c0,1.07-.19,2.14-.57,3.15-.4,1.08-1.01,2.08-1.79,2.93l-1,1.1c-1.16,1.27-2.5,2.35-3.99,3.2l-3.91,2.25-2.82,1.19c-2.12.89-4.34,1.52-6.62,1.88-1.47.23-2.95.35-4.43.35h-.2c-1.78,0-3.56-.15-5.31-.46h-.06c-1.6-.29-3.18-.69-4.72-1.21l-3.31-1.12-4.45-1.52-2.34-1.17c-.97-.49-1.88-1.07-2.72-1.76l-.73-.59c-.84-.68-1.56-1.51-2.13-2.44-.9-1.48-1.37-3.2-1.37-4.93,0-.99.15-1.99.46-2.93l.08-.24c.42-1.32,1.09-2.55,1.97-3.63l.11-.13c.95-1.17,2.13-2.17,3.45-2.91.75-.42,1.55-.77,2.37-1.02l2.82-.88.43-.76c.58-1.01,1.32-1.9,2.21-2.66.59-.5,1.24-.94,1.93-1.29Z" style="fill:#fde1c0; stroke:#614c39; stroke-width:1.55px;"/><path d="m85.69,83.68l.57,1.64c.14.42.32.83.52,1.22l.29.56c.47.9,1.14,1.69,1.96,2.28h0c.56.4,1.17.72,1.83.93l.58.19" style="fill:none; stroke:#6c5b4c; stroke-width:1.55px;"/><path d="m84.12,85.45c.03-.06.14-.21.29-.4.82-1.06,1.96-1.84,3.24-2.25h0" style="fill:none; stroke:#6c5b4c; stroke-linecap:round; stroke-width:1.55px;"/><path d="m117.61,83.68l-.57,1.64c-.15.42-.32.83-.52,1.22l-.29.56c-.47.9-1.14,1.69-1.96,2.28h0c-.56.4-1.17.72-1.83.93l-.58.19" style="fill:none; stroke:#6c5b4c; stroke-width:1.55px;"/><path d="m119.18,85.45c-.03-.06-.14-.21-.29-.4-.82-1.06-1.96-1.84-3.24-2.25h0" style="fill:none; stroke:#6c5b4c; stroke-linecap:round; stroke-width:1.55px;"/><path d="m101.65,80.77v5.31" style="fill:none; stroke:#6c5b4c; stroke-width:1.55px;"/><path d="m92.42,90.38h-1.11l1.18,1.77,1.83,2.78,1.96,2.65,1.28,1.3c.62.64,1.39,1.12,2.23,1.4,1.12.38,2.33.39,3.46.04h.05c.98-.32,1.85-.87,2.55-1.62l1.04-1.13,1.96-2.65,1.83-2.78,1.44-1.77h-.3c-1.96,0-3.91-.39-5.72-1.14l-.59-.33c-1.43-.79-2.77-1.74-3.99-2.83l-.24.24c-.62.6-1.29,1.15-2,1.65l-.64.45c-.78.55-1.63.99-2.53,1.32-1.18.43-2.43.65-3.68.65Z" style="fill:#3c0000; stroke:#6c5b4c; stroke-width:1.55px;"/><path d="m95.03,92.7c-.28.27-.58.56-.81.81-.29.32-.31.77-.11,1.15.05.1.11.19.19.27l.67.76,1.05,1.39.16.23c.5.69,1.09,1.31,1.75,1.84l.23.18c.23.18.47.35.73.5l.18.1c.49.29,1.04.48,1.6.57.47.08.96.08,1.43,0l.14-.02c.56-.08,1.1-.25,1.61-.5l.16-.08c.42-.2.83-.45,1.2-.74l.17-.13c.38-.29.74-.62,1.07-.97l.68-.73.81-1.13c.24-.34.37-.74.37-1.15,0-.17-.02-.33-.06-.49l-.12-.46c-.05-.2-.13-.4-.23-.59l-.02-.03c-.24-.46-.6-.84-1.04-1.09-.41-.24-.88-.36-1.35-.36h-.84c-1.23,0-2.4.59-3.13,1.58l-.14.19-.48-.7c-.37-.53-.88-.95-1.48-1.2-.6-.25-1.25-.32-1.89-.2l-.8.15c-.64.12-1.24.4-1.7.85Z" style="fill:#dc7276; stroke:#7b2629; stroke-linejoin:round; stroke-width:.78px;"/><path d="m111.46,72.17c0,3.21-2.35,9.36-9.68,9.36-8.5,0-10.07-6.14-10.07-9.36s4.8-4.8,10.07-4.8,9.68,1.59,9.68,4.8Z" style="fill:#581606; stroke-width:0px;"/><ellipse cx="101.52" cy="69.52" rx="4.71" ry="1.14" style="fill:rgba(107,32,14,.85); stroke-width:0px;"/><path d="m16.76,166.21c.41.13.85-.09.98-.5.13-.41-.09-.85-.5-.98l-.48,1.48Zm-3.94-3.62l.62-.47-.62.47Zm-3.66-8.62v.75h1.55v-.75h-1.55Zm2.59,8.49l.45.6,1.24-.93-.45-.6-1.24.93Zm4.78,3.68l.24.08.48-1.48-.24-.08-.48,1.48Zm-2.68-1.41c.81.62,1.71,1.1,2.68,1.41l.48-1.48c-.8-.26-1.54-.65-2.21-1.16l-.95,1.23Zm-1.65-1.67c.47.63,1.03,1.19,1.65,1.67l.95-1.23c-.51-.4-.97-.86-1.36-1.37l-1.24.93Zm-2.15-3.64c.43,1.08,1,2.11,1.7,3.04l1.24-.93c-.62-.82-1.12-1.72-1.49-2.67l-1.45.57Zm-.89-4.7c0,1.61.3,3.21.89,4.7l1.45-.57c-.52-1.32-.78-2.72-.78-4.14h-1.55Z" style="fill:#614c39; stroke-width:0px;"/><path d="m27.83,160.31c.36.23.84.13,1.07-.23.23-.36.13-.84-.23-1.07l-.84,1.3Zm-3.01-5.25l-.74.24.74-.24Zm-1.57-3.44l.05.51,1.54-.17-.05-.51-1.54.17Zm.52,2.7l.31.97,1.48-.47-.31-.97-1.48.47Zm3.59,5.69l.47.3.84-1.3-.47-.3-.84,1.3Zm-2.04-2.06c.52.83,1.22,1.53,2.04,2.06l.84-1.3c-.63-.41-1.17-.95-1.57-1.58l-1.31.83Zm-1.24-2.66c.3.94.71,1.83,1.24,2.66l1.31-.83c-.45-.72-.81-1.49-1.07-2.3l-1.48.47Zm-.77-3.17c.08.75.23,1.48.46,2.19l1.48-.47c-.2-.61-.33-1.25-.4-1.89l-1.54.17Zm.41-4.97c-.46,1.44-.62,2.96-.46,4.46l1.54-.17c-.14-1.29,0-2.59.39-3.81l-1.48-.48Z" style="fill:#614c39; stroke-width:0px;"/></g></svg>