<?xml version="1.0" encoding="UTF-8"?><svg id="_Слой_2" xmlns="http://www.w3.org/2000/svg" width="208.18" height="201.08" xmlns:xlink="http://www.w3.org/1999/xlink" viewBox="0 0 208.18 201.08"><defs><mask id="mask" x="25.07" y="156.37" width="9.99" height="16.2" maskUnits="userSpaceOnUse"><g id="path-53-inside-1_19_302"><path d="m25.65,171.94c-.23-5.42,1.37-10.68,4.46-14.85,2.59,1.28,4.38,3.96,4.38,7.06,0,4.34-3.51,7.86-7.83,7.86-.34,0-.68-.02-1.01-.06Z" style="fill:#fff; fill-rule:evenodd; stroke-width:0px;"/></g></mask><mask id="mask-1" x="47.76" y="147.95" width="15.96" height="11.77" maskUnits="userSpaceOnUse"><g id="path-55-inside-2_19_302"><path d="m48.82,148.55c5.23.42,10.27,2.74,14.19,6.56-1.34,2.42-3.9,4.05-6.85,4.05-4.33,0-7.83-3.52-7.83-7.86,0-.97.17-1.89.49-2.75Z" style="fill:#fff; fill-rule:evenodd; stroke-width:0px;"/></g></mask><mask id="mask-2" x="30.46" y="147.98" width="15.56" height="11.74" maskUnits="userSpaceOnUse"><g id="path-57-inside-3_19_302"><path d="m37.62,159.16c4.33,0,7.83-3.52,7.83-7.86,0-.95-.17-1.86-.48-2.71-2.13.22-4.26.76-6.31,1.66-2.96,1.29-5.48,3.2-7.49,5.51,1.41,2.05,3.78,3.4,6.45,3.4Z" style="fill:#fff; fill-rule:evenodd; stroke-width:0px;"/></g></mask><mask id="mask-3" x="174.56" y="154.53" width="9.99" height="16.2" maskUnits="userSpaceOnUse"><g id="path-67-inside-4_19_302"><path d="m183.97,170.1c.23-5.42-1.37-10.68-4.46-14.85-2.59,1.28-4.38,3.96-4.38,7.06,0,4.34,3.51,7.86,7.83,7.86.34,0,.68-.02,1.01-.06Z" style="fill:#fff; fill-rule:evenodd; stroke-width:0px;"/></g></mask><mask id="mask-4" x="145.9" y="146.12" width="15.96" height="11.77" maskUnits="userSpaceOnUse"><g id="path-69-inside-5_19_302"><path d="m160.8,146.72c-5.23.42-10.28,2.74-14.19,6.56,1.34,2.42,3.91,4.05,6.85,4.05,4.33,0,7.83-3.52,7.83-7.86,0-.97-.17-1.89-.49-2.75Z" style="fill:#fff; fill-rule:evenodd; stroke-width:0px;"/></g></mask><mask id="mask-5" x="163.6" y="146.15" width="15.56" height="11.74" maskUnits="userSpaceOnUse"><g id="path-71-inside-6_19_302"><path d="m171.99,157.33c-4.33,0-7.83-3.52-7.83-7.86,0-.95.17-1.87.48-2.71,2.13.22,4.26.76,6.31,1.66,2.96,1.29,5.48,3.19,7.49,5.51-1.41,2.05-3.78,3.4-6.45,3.4Z" style="fill:#fff; fill-rule:evenodd; stroke-width:0px;"/></g></mask></defs><g id="_Слой_1-2"><path d="m61.81,141.71l-2.7,1.37c-3.21,1.62-6,3.97-8.15,6.85l3.62,1.18c4.2,1.37,7.88,3.98,10.57,7.48,1.17,1.52,2.13,3.18,2.86,4.95l.25.61c1.35,3.26,2.04,6.75,2.04,10.28v6.02c0,4.23,3.43,7.67,7.67,7.67h28.57c14.58,0,27.77-8.66,33.56-22.04l2.49-5.21c.95-1.99,2.23-3.8,3.79-5.36,2.31-2.32,5.18-4.01,8.32-4.92l2.27-.66c-2.6-2.9-5.63-5.38-8.99-7.35l-1.46-.86c0-2.09-.24-4.18-.73-6.21l-1.75-7.34-1.44-4.35c-.52-1.57-1.19-3.08-2-4.52l-1.46-2.57c-.99-1.75-2.37-3.24-4.04-4.36l-.75-.51c-1.19-.8-2.17-1.87-2.87-3.12-2-3.57-6.13-5.37-10.1-4.41l-3.99.97-14.32,2.67c-3.1.58-6.29.17-9.15-1.16l-.23-.11c-5.22-2.44-11.39-1.59-15.77,2.16l-1.99,1.55c-1.72,1.34-3.29,2.84-4.71,4.5-1.54,1.8-2.88,3.77-3.99,5.87l-.29.54c-.96,1.82-1.77,3.71-2.42,5.66l-.55,1.66c-1.41,4.21-2.13,8.63-2.13,13.07Z" style="fill:#97a8b2; stroke:#58666c; stroke-width:1.13px;"/><path d="m67.93,163.34c5.12,11.8,2.4,25.67-8.45,30.42-5.46,2.39-11.99,2.06-17.82-.35-5.83-2.41-10.89-6.88-13.42-12.7-5.08-11.69-.26-25.02,10.67-29.8,10.93-4.78,23.94.74,29.02,12.44Z" style="fill:#97a8b2; stroke:#58666c; stroke-width:1.13px;"/><path d="m68.97,142.92v-.85c0-3.43.62-6.82,1.83-10.03l28.46,22.4v.71c0,6.83,1.03,13.62,3.05,20.14l.08.25,1.24,5.74c.3,1.41.46,2.85.46,4.3v1.46c0,1.59-.3,3.16-.88,4.63l-.26.65c-.37.95-.91,1.83-1.59,2.6-1.36,1.54-3.22,2.54-5.25,2.85l-1.8.27c-.78.12-1.53.41-2.18.87-.47.33-.99.57-1.54.73l-1.35.38c-2.5.71-5.15.68-7.63-.07l-1.81-.55-4.46-.9c-.94-.19-1.85-.5-2.71-.93-2.36-1.19-4.21-3.2-5.18-5.66l-.15-.38c-.54-1.38-.82-2.85-.82-4.34v-2c0-1.8.22-3.58.65-5.33l1.84-7.46,1.5-9.16c.22-1.31.32-2.64.32-3.97v-.49c0-2.09-.31-4.16-.91-6.16-.61-2-.91-4.07-.91-6.16v-3.53Z" style="fill:#97a8b2; stroke:#58666c; stroke-width:1.13px;"/><path d="m82.94,120.64l3.66-9.7,31.46-1.97-.04.12c-.76,2.19-1.7,4.31-2.82,6.34-1.05,1.9-2.25,3.7-3.6,5.41l-2.94,3.73-1.86,2.34c-2.47,3.11-4.2,6.75-5.06,10.63l-.18.83c-.57,2.57-.66,5.23-.28,7.83v.08c.31,2.03.9,4,1.77,5.85l1,2.14c.46.98,1.1,1.87,1.88,2.61l.41.38c.5.47.91,1.03,1.2,1.66l.24.5c.56,1.17.58,2.52.05,3.7-.47,1.07-1.35,1.91-2.45,2.34l-1.08.42c-.83.32-1.72.49-2.62.49h-.82c-1.5,0-2.98.29-4.37.85l-2.15.87c-.39.16-.8.24-1.22.24-1.47,0-2.76-1-3.13-2.42l-.16-.62c-.09-.33-.13-.67-.13-1.01v-.36c0-1.71.64-3.37,1.8-4.63l1.2-1.31-3.8-4.67c-2.15-2.64-3.91-5.58-5.22-8.72l-.34-.81c-1.57-3.78-2.39-7.83-2.39-11.92,0-2.84.39-5.67,1.16-8.4l.8-2.82Z" style="fill:#97a8b2; stroke:#5e6f76; stroke-width:1.13px;"/><path d="m97.56,166.63l2.74-1.44,2.09-.92" style="fill:none; stroke:#5e6f76; stroke-linecap:round; stroke-width:1.13px;"/><path d="m99.65,157.07l2.61-.79h2.61" style="fill:none; stroke:#5e6f76; stroke-linecap:round; stroke-width:1.13px;"/><path d="m92.86,126.28h1.82c.87,0,1.73.18,2.52.53h0c1.17.51,2.16,1.36,2.83,2.45l.27.43" style="fill:none; stroke:#5e6f76; stroke-linecap:round; stroke-width:1.13px;"/><path d="m98.22,116.19l1.04-.2c1.53-.3,3.11-.1,4.52.56h0c.98.46,1.85,1.12,2.54,1.95l1.04,1.23" style="fill:none; stroke:#5e6f76; stroke-linecap:round; stroke-width:1.13px;"/><path d="m157.88,4.83l-1.4.77c-5.14,2.8-9.97,6.15-14.39,9.98l6.66,73.1,2.48,7.86,3.04,1.48c.84.41,1.71.76,2.61,1.04,3.22,1.01,6.66,1.14,9.95.36l3.33-.78,3.41-1.17c1.81-.62,3.54-1.45,5.16-2.47l.73-.46c.93-.59,1.8-1.27,2.6-2.04l.42-.4c1.18-1.14,2.13-2.48,2.81-3.97l.86-1.87c.22-.48.33-1,.33-1.53,0-1.36.75-2.61,1.96-3.24l4.31-2.27c1.12-.59,2.14-1.36,3.02-2.28l2.35-2.46c1.64-1.71,3.08-3.6,4.31-5.63l.05-.07c1.43-2.36,2.56-4.89,3.37-7.53l.67-2.2c.74-2.42,1.12-4.94,1.12-7.47,0-2.25-.3-4.49-.88-6.66l-.81-3.02-.1-.25c-1.76-4.37-3.95-8.54-6.56-12.46l-4.83-5.5-1.4-1.84c-1.92-2.51-3.34-5.36-4.2-8.4l-.2-.69c-.31-1.1-.72-2.16-1.24-3.18l-.57-1.13c-1.65-3.26-4.48-5.77-7.91-7.02-2.15-.79-4.46-1.05-6.73-.76l-2.62.33c-2.2.28-4.36.84-6.41,1.68l-5.26,2.14Z" style="fill:#97a8b2; stroke:#5e6f76; stroke-width:1.13px;"/><path d="m156.87,22.45l-.2.32c-1.37,2.18-3.06,4.14-5.01,5.81l-.17.15,2.08,68.55,1.95,1.07c2.49,1.14,5.19,1.73,7.93,1.73h1.96l3.91-.53c2.85-.8,5.6-1.94,8.17-3.42l.56-.32,3.39-2,.16-.11c1.68-1.14,2.97-2.77,3.7-4.66l.35-.89c.23-.58.34-1.2.34-1.82,0-1.74.89-3.36,2.42-4.18,1.28-.69,2.69-1.38,3.7-1.68,1.77-.53,3.86-2.18,4.69-2.93,2.72-3.31,4.44-7.33,4.96-11.58l.12-.96v-2.98c0-3.06-.44-6.11-1.29-9.05l-.38-1.32c-.62-2.11-1.53-4.12-2.72-5.97-1.14-1.78-2.53-3.39-4.11-4.79l-.46-.4c-1.22-1.08-2.54-2.05-3.94-2.89l-.21-.13c-1.84-1.11-3.79-2.02-5.82-2.72l-3.97-1.36-1.65-.82c-1.71-.85-3.08-2.27-3.86-4.01-.73-1.63-.92-3.45-.54-5.19l.97-4.39,1.28-4.33c.26-.88.09-1.84-.46-2.58-.48-.65-1.34-.9-2.09-.61l-5.4,2.03c-1.44.54-2.8,1.3-4.01,2.25l-.94.73c-2.13,1.66-3.95,3.68-5.38,5.96Z" style="fill:#fcb0be; stroke:#5e6f76; stroke-width:1.13px;"/><path d="m154.61,59.72l2.28-1.15c1.6-.8,3.32-1.35,5.09-1.62l1.7-.26c1.08-.17,2.18-.12,3.24.14l.37.09c1.18.29,2.27.88,3.15,1.72h0c.75.71,1.33,1.58,1.7,2.54l1,2.6" style="fill:none; stroke:#7b2629; stroke-linecap:round; stroke-width:1.13px;"/><path d="m155.4,53.7l3.66-3.93,2.41-2.25c2.11-1.97,4.62-3.45,7.36-4.35h0c2-.66,4.09-.99,6.2-.99h2.03c1.73,0,3.43.39,4.99,1.15h0c1.62.79,3.04,1.96,4.12,3.41l.4.54c.72.96,1.31,2.01,1.77,3.13l1.67,4.09" style="fill:none; stroke:#7b2629; stroke-linecap:round; stroke-width:1.13px;"/><path d="m166.09,4.86l-.61.12c-1.35.26-1.94-1.63-.68-2.19.08-.04.17-.06.26-.08l3.75-.67c1.33-.24,2.67-.36,4.02-.36h2.12c1.66,0,3.3.33,4.83.98l.17.07c1.63.69,3.07,1.74,4.23,3.07.65.74,1.2,1.57,1.64,2.45l2.21,4.43.97,2.71c.66,1.86,1.5,3.64,2.5,5.34l1.31,2.22c.9,1.53,2.06,2.89,3.41,4.03,1.32,1.11,2.45,2.44,3.34,3.91l2.05,3.4,2.87,4.98,2.14,5.05c.05.13.08.26.08.4,0,1.1-1.5,1.41-1.94.41l-.28-.62-1.91-3.7c-1.32-2.57-3.18-4.83-5.45-6.62-1.35-1.07-2.84-1.96-4.42-2.65-1.55-.68-3.16-1.38-3.63-1.58-4.1-1.76-5.09-7.21-5.09-11.67v-.12c0-4.45-2.08-8.68-5.75-11.19-1.06-.73-1.9-1.27-2.21-1.38-.82-.31-6.68-.64-9.65-.78-.1,0-.19,0-.28.02Z" style="fill:rgba(141,158,167,.72); stroke-width:0px;"/><path d="m189.47,15.57l.2,3.16c.04.69.14,1.37.29,2.04l.16.69c.43,1.89,1.38,3.61,2.75,4.98h0" style="fill:none; stroke:#5e6f76; stroke-linecap:round; stroke-width:1.13px;"/><path d="m166.75,39.46c-.55.21-2.94,1.6-5.2,2.95-2.08,1.24-3.8,2.99-5.02,5.07-1.01,1.71-1.66,3.61-1.91,5.57l-1.05,8.15-3.83,16.13c-2.96,12.48,5.06,2.58,13.62,12.12,1.17,1.31,5.22-14.37,9.27-16.2,4.12-1.87,2.86-4.06,2.21-6.18-.38-1.22.26-2.41,1.2-3.27l.05-.04c1.68-1.54,4.15-1.86,6.17-.81,2.41,1.25,5.37.53,6.94-1.68l1.57-2.22c1.34-1.89,1.85-4.24,1.43-6.51l-.27-1.42c-.65-3.49-2.81-6.5-5.91-8.24l-2.32-1.3c-2.47-1.39-5.24-2.17-8.08-2.23-3.92-.08-8.28-.11-8.87.11Z" style="fill:rgba(183,97,113,.34); stroke-width:0px;"/><path d="m50.3,4.83l1.4.77c5.14,2.8,9.97,6.15,14.39,9.98l-6.66,73.1-2.48,7.86-3.04,1.48c-.84.41-1.71.76-2.6,1.04-3.22,1.01-6.66,1.14-9.95.36l-3.33-.78-3.41-1.17c-1.81-.62-3.54-1.45-5.16-2.47l-.73-.46c-.93-.59-1.8-1.27-2.6-2.04l-.42-.4c-1.18-1.14-2.13-2.48-2.81-3.97l-.86-1.87c-.22-.48-.33-1-.33-1.53,0-1.36-.75-2.61-1.96-3.24l-4.31-2.27c-1.12-.59-2.14-1.36-3.02-2.28l-2.35-2.46c-1.64-1.71-3.08-3.6-4.31-5.63l-.04-.07c-1.43-2.36-2.56-4.89-3.37-7.53l-.67-2.2c-.74-2.42-1.12-4.94-1.12-7.47,0-2.25.3-4.49.88-6.66l.81-3.02.1-.25c1.76-4.37,3.95-8.54,6.56-12.46l4.83-5.5,1.4-1.84c1.92-2.51,3.34-5.36,4.2-8.4l.2-.69c.31-1.1.72-2.16,1.24-3.18l.57-1.13c1.65-3.26,4.48-5.77,7.91-7.02,2.15-.79,4.46-1.05,6.73-.76l2.62.33c2.2.28,4.36.84,6.41,1.68l5.26,2.14Z" style="fill:#97a8b2; stroke:#5e6f76; stroke-width:1.13px;"/><path d="m51.31,22.45l.2.32c1.37,2.18,3.06,4.14,5.01,5.81l.17.15-2.08,68.55-1.95,1.07c-2.49,1.14-5.19,1.73-7.93,1.73h-1.96l-3.91-.53c-2.85-.8-5.6-1.94-8.17-3.42l-.56-.32-3.39-2-.16-.11c-1.68-1.14-2.97-2.77-3.7-4.66l-.35-.89c-.23-.58-.34-1.2-.34-1.82,0-1.74-.89-3.36-2.42-4.18-1.28-.69-2.69-1.38-3.7-1.68-1.77-.53-3.86-2.18-4.69-2.93-2.72-3.31-4.44-7.33-4.96-11.58l-.12-.96v-2.98c0-3.06.44-6.11,1.29-9.05l.38-1.32c.62-2.11,1.53-4.12,2.72-5.97,1.14-1.78,2.53-3.39,4.11-4.79l.46-.4c1.22-1.08,2.54-2.05,3.94-2.89l.21-.13c1.84-1.11,3.79-2.02,5.82-2.72l3.97-1.36,1.65-.82c1.71-.85,3.08-2.27,3.86-4.01.73-1.63.92-3.45.54-5.19l-.97-4.39-1.28-4.33c-.26-.88-.09-1.84.46-2.58.48-.65,1.34-.9,2.09-.61l5.4,2.03c1.44.54,2.79,1.3,4.01,2.25l.94.73c2.13,1.66,3.95,3.68,5.38,5.96Z" style="fill:#fcb0be; stroke:#5e6f76; stroke-width:1.13px;"/><path d="m53.57,59.72l-2.28-1.15c-1.6-.8-3.32-1.35-5.09-1.62l-1.7-.26c-1.08-.17-2.18-.12-3.24.14l-.37.09c-1.18.29-2.27.88-3.15,1.72h0c-.75.71-1.33,1.58-1.7,2.54l-1,2.6" style="fill:none; stroke:#7b2629; stroke-linecap:round; stroke-width:1.13px;"/><path d="m52.79,53.7l-3.66-3.93-2.41-2.25c-2.11-1.97-4.62-3.45-7.36-4.35h0c-2-.66-4.09-.99-6.2-.99h-2.03c-1.73,0-3.43.39-4.99,1.15h0c-1.62.79-3.04,1.96-4.12,3.41l-.4.54c-.72.96-1.31,2.01-1.77,3.13l-1.67,4.09" style="fill:none; stroke:#7b2629; stroke-linecap:round; stroke-width:1.13px;"/><path d="m42.09,4.86l.61.12c1.35.26,1.94-1.63.68-2.19-.08-.04-.17-.06-.26-.08l-3.75-.67c-1.33-.24-2.67-.36-4.02-.36h-2.12c-1.66,0-3.31.33-4.84.98l-.17.07c-1.63.69-3.07,1.74-4.23,3.07-.65.74-1.2,1.57-1.64,2.45l-2.21,4.43-.97,2.71c-.66,1.86-1.5,3.64-2.5,5.34l-1.31,2.22c-.9,1.53-2.06,2.89-3.41,4.03-1.32,1.11-2.45,2.44-3.34,3.91l-2.05,3.4-2.87,4.98-2.14,5.05c-.05.13-.08.26-.08.4,0,1.1,1.5,1.41,1.94.41l.28-.62,1.91-3.7c1.32-2.57,3.18-4.83,5.45-6.62,1.35-1.07,2.84-1.96,4.42-2.65,1.55-.68,3.16-1.38,3.63-1.58,4.1-1.76,5.09-7.21,5.09-11.67v-.12c0-4.45,2.08-8.68,5.75-11.19,1.06-.73,1.9-1.27,2.21-1.38.82-.31,6.68-.64,9.65-.78.1,0,.19,0,.28.02Z" style="fill:rgba(141,158,167,.72); stroke-width:0px;"/><path d="m41.43,39.46c.55.21,2.94,1.6,5.2,2.95,2.08,1.24,3.8,2.99,5.02,5.07,1.01,1.71,1.66,3.61,1.91,5.57l1.05,8.15,3.83,16.13c2.96,12.48-5.06,2.58-13.62,12.12-1.17,1.31-5.22-14.37-9.27-16.2-4.12-1.87-2.86-4.06-2.21-6.18.37-1.22-.26-2.41-1.2-3.27l-.05-.04c-1.68-1.54-4.15-1.86-6.17-.81-2.41,1.25-5.37.53-6.94-1.68l-1.57-2.22c-1.34-1.89-1.85-4.24-1.43-6.51l.27-1.42c.65-3.49,2.81-6.5,5.91-8.24l2.32-1.3c2.47-1.39,5.24-2.17,8.08-2.23,3.92-.08,8.28-.11,8.87.11Z" style="fill:rgba(183,97,113,.34); stroke-width:0px;"/><path d="m89.1,112.18l-2.63-.71-4.57-1.44-6.4-2.88-8.88-3.41-6.31-2.95c-2.13-1-4.09-2.34-5.78-3.98-2.93-2.83-4.99-6.45-5.93-10.42l-.06-.27c-.9-3.82-.77-7.81.36-11.56l.91-3.01c1.27-4.18,1.72-8.56,1.32-12.91l-1.1-12.15v-6.66c0-3.47.69-6.91,2.04-10.12,1.24-2.94,3.01-5.63,5.22-7.93l.94-.98c1.67-1.74,3.52-3.29,5.52-4.63l1.22-.82c3.94-2.64,8.26-4.66,12.81-6l1.11-.33c5.01-1.48,10.21-2.23,15.44-2.23h14.96l10.76,1.03c4.72.45,9.34,1.63,13.7,3.49l3.48,1.49c4.29,1.83,8.09,4.63,11.1,8.18,2.41,2.84,4.26,6.1,5.48,9.61l.58,1.67c1.43,4.14,2.16,8.48,2.16,12.85v7.66c0,1.66-.17,3.32-.5,4.95l-1.13,5.47c-.46,2.24-.1,4.57,1.02,6.57.41.73.72,1.51.92,2.31l.85,3.37c.53,2.08.79,4.22.79,6.37v1.77c0,4.24-1.32,8.38-3.78,11.84-1.81,2.54-4.17,4.63-6.91,6.11l-1.13.61c-1.94,1.05-4.01,1.85-6.16,2.38l-10.61,2.61-7.31,2.88-2.44.88c-5.64,2.02-11.59,3.05-17.58,3.05-4.56,0-9.11-.6-13.51-1.78Z" style="fill:#97a8b2; stroke:#5e6f76; stroke-width:1.13px;"/><path d="m124.33,104.49c-1.26-1.3-2.67-2.45-4.2-3.43l5.01-8.6,1.14,2.9c1.33,3.38,1.45,7.11.35,10.57-.1.31-.5.41-.72.17l-1.57-1.62Z" style="fill:#f4eee1; stroke:#e8ddc7; stroke-width:1.13px;"/><path d="m95.08,85.14l3.47-1.48c1.16-.5,2.38-.85,3.63-1.04l.58-.09c1.14-.18,2.3-.18,3.45-.02h0c1.78.26,3.48.94,4.95,1.99l2.2,1.56" style="fill:none; stroke:#5e6f76; stroke-linecap:round; stroke-width:1.13px;"/><path d="m91.43,72.69l1.83-1.22c2.15-1.44,4.58-2.41,7.13-2.85l.66-.11c2.01-.35,4.06-.29,6.05.18h0c1.73.4,3.37,1.1,4.85,2.07l2.98,1.94" style="fill:none; stroke:#5e6f76; stroke-linecap:round; stroke-width:1.13px;"/><path d="m117.02,112.13l1.31-6.72.03-.14c.76-3.41,2.16-6.65,4.15-9.52h0l2.61-5.01h0c1.03-2.21,1.57-4.62,1.57-7.06v-1.42" style="fill:none; stroke:#5e6f76; stroke-width:1.13px;"/><path d="m123.54,79.9l1.06,1.2c.67.76,1.56,1.28,2.55,1.5h0c.55.12,1.12.15,1.68.07l3.07-.41" style="fill:none; stroke:#5e6f76; stroke-linecap:round; stroke-width:1.13px;"/><path d="m80.45,102.2c.97-1.01,2.05-1.91,3.2-2.71l-4.48-8.78-1.11,2.82c-1.33,3.38-1.45,7.11-.35,10.57.1.31.5.41.73.17l2.01-2.08Z" style="fill:#f4eee1; stroke:#e8ddc7; stroke-width:1.13px;"/><path d="m86.54,111.34l-1.31-6.72-.23-1.04c-.63-2.83-1.58-5.58-2.83-8.2l-.14-.29-2.61-5.11h0c-.95-2.25-1.44-4.66-1.44-7.1v-1.54" style="fill:none; stroke:#5e6f76; stroke-width:1.13px;"/><path d="m80.98,78.59l-1.06,1.2c-.67.76-1.56,1.28-2.55,1.5h0c-.55.12-1.12.15-1.68.07l-3.07-.41" style="fill:none; stroke:#5e6f76; stroke-linecap:round; stroke-width:1.13px;"/><ellipse cx="131.9" cy="54.75" rx="11.75" ry="13.36" style="fill:#58666c; stroke-width:0px;"/><ellipse cx="130.46" cy="56.19" rx="9.53" ry="10.87" style="fill:#cfd7db; stroke-width:0px;"/><path d="m133.7,57.5c0,4.18-2.62,7.45-5.72,7.45s-5.72-3.26-5.72-7.45,2.62-7.45,5.72-7.45,5.72,3.26,5.72,7.45Z" style="fill:#389cc3; stroke:#000; stroke-width:.57px;"/><ellipse cx="127.07" cy="58.81" rx="3.26" ry="3.28" style="fill:#0d0d0d; stroke-width:0px;"/><path d="m133.07,72.83c1.28-2.66,3.64-4.92,6.76-6.15,3.55-1.39,7.29-1.13,10.23.42-1.82-1.65-4.25-2.66-6.93-2.66-5.08,0-9.29,3.64-10.06,8.39Z" style="fill:#58666c; fill-rule:evenodd; stroke-width:0px;"/><path d="m141.49,35.26c.07-.4.11-.8.11-1.22,0-4.34-4.21-7.86-9.4-7.86-3.67,0-6.86,1.76-8.4,4.33,1.89-1.23,4.37-1.98,7.1-1.98,5.38,0,9.84,2.92,10.59,6.72Z" style="fill:#58666c; fill-rule:evenodd; stroke-width:0px;"/><ellipse cx="129.16" cy="56.32" rx="1.17" ry="1.83" style="fill:#f7f7f7; stroke-width:0px;"/><circle cx="125.37" cy="61.3" r=".78" style="fill:#fafafa; stroke-width:0px;"/><ellipse cx="76.95" cy="54.75" rx="11.75" ry="13.36" style="fill:#58666c; stroke-width:0px;"/><ellipse cx="78.39" cy="56.19" rx="9.53" ry="10.87" style="fill:#cfd7db; stroke-width:0px;"/><path d="m75.15,57.5c0,4.18,2.62,7.45,5.72,7.45s5.72-3.26,5.72-7.45-2.62-7.45-5.72-7.45-5.72,3.26-5.72,7.45Z" style="fill:#389cc3; stroke:#000; stroke-width:.57px;"/><ellipse cx="81.78" cy="58.81" rx="3.26" ry="3.28" style="fill:#0d0d0d; stroke-width:0px;"/><path d="m75.78,72.83c-1.28-2.66-3.65-4.92-6.76-6.15-3.55-1.39-7.29-1.13-10.23.42,1.82-1.65,4.25-2.66,6.93-2.66,5.08,0,9.29,3.64,10.06,8.39Z" style="fill:#58666c; fill-rule:evenodd; stroke-width:0px;"/><path d="m67.35,35.26c-.07-.4-.11-.8-.11-1.22,0-4.34,4.21-7.86,9.4-7.86,3.67,0,6.86,1.76,8.4,4.33-1.89-1.23-4.37-1.98-7.1-1.98-5.38,0-9.84,2.92-10.59,6.72Z" style="fill:#58666c; fill-rule:evenodd; stroke-width:0px;"/><ellipse cx="79.69" cy="56.32" rx="1.17" ry="1.83" style="fill:#f7f7f7; stroke-width:0px;"/><circle cx="83.48" cy="61.3" r=".78" style="fill:#fafafa; stroke-width:0px;"/><path d="m18.71,15.57l-.2,3.16c-.04.69-.14,1.37-.29,2.04l-.16.69c-.43,1.89-1.38,3.61-2.75,4.98h0" style="fill:none; stroke:#5e6f76; stroke-linecap:round; stroke-width:1.13px;"/><path d="m98.35,105.45l2.41-1.03c1.25-.53,2.6-.81,3.96-.81h0c.88,0,1.76.12,2.62.34l.14.04c1.64.44,3.17,1.26,4.45,2.37h0" style="fill:none; stroke:#5e6f76; stroke-linecap:round; stroke-width:1.13px;"/><path d="m86.99,108.98h30.55l-2.48,5.76h-14.1l-14.75-2.11.78-3.65Z" style="fill:#97a8b2; stroke-width:0px;"/><path d="m71.32,126.28l9.14,10.22,1.7,4.72.78,3.54-12.53-8.25.91-10.22Z" style="fill:#97a8b2; stroke-width:0px;"/><path d="m67.72,185.24l-.21.42c-.41.79-.62,1.68-.62,2.57,0,.75.15,1.48.44,2.17l.61,1.45.96,1.63c.49.83,1.1,1.58,1.82,2.22.92.83,2,1.47,3.18,1.88l1.23.43,2.61.79,2.22.52,2.61.79.89.14c1.66.26,3.35.21,4.99-.14l2.61-.79c2.08-.87,4.25-1.53,6.46-1.98l.59-.12s.11-.03.17-.05c1.84-.69,3.06-2.42,4-4.14l.17-.39c.67-1.57,1.09-3.23,1.25-4.92l.21-2.18c.05-.51,0-1.02-.12-1.51-.5-1.88-2.2-3.19-4.15-3.19h-.88c-1.65-.04-5.09-.1-5.61,0-.38.08-1.78.58-2.94,1.02-.74.28-1.5.5-2.27.66l-1.63.33c-1.92.39-3.91.17-5.69-.65-1.2-.55-2.52-.84-3.84-.84h-2.67c-1.04,0-2.08.23-3.02.67-1.44.67-2.61,1.8-3.34,3.21Z" style="fill:rgba(126,144,154,.78); stroke-width:0px;"/><path d="m28.61,174.23h-.35c-1.17,0-2.12-.95-2.12-2.12,0-.16.02-.32.06-.48l2.76-11.85c.3-1.27.87-2.46,1.67-3.49.75-.96,1.68-1.75,2.74-2.34l6.78-3.76c1.95-1.08,4.13-1.64,6.36-1.64,1.3,0,2.59.19,3.84.57l1.65.51c1.64.5,3.18,1.27,4.57,2.28l5.89,4.28c.31.23.5.59.5.98,0,.43-.23.83-.6,1.04l-2.2,1.28c-.39.23-.81.41-1.24.53l-2.07.6c-.87.25-1.78.28-2.66.08l-1.38-.31c-1.48-.33-3.01.35-3.75,1.67-.38.67-.97,1.2-1.68,1.49l-3.04,1.27c-.8.33-1.66.5-2.52.5-2.2,0-4.25,1.1-5.47,2.93l-.4.61c-.52.78-1.17,1.46-1.93,2.01l-3.95,2.88c-.42.31-.93.47-1.45.47Z" style="fill:rgba(120,141,153,.51); stroke-width:0px;"/><path d="m25.65,171.94c-.23-5.42,1.37-10.68,4.46-14.85,2.59,1.28,4.38,3.96,4.38,7.06,0,4.34-3.51,7.86-7.83,7.86-.34,0-.68-.02-1.01-.06Z" style="fill:#d2d2d2; fill-rule:evenodd; stroke-width:0px;"/><g style="mask:url(#mask);"><path d="m25.65,171.94l-.57.02.02.48.47.06.07-.56Zm4.46-14.85l.25-.51-.42-.21-.28.38.45.34Zm-3.9,14.83c-.22-5.3,1.34-10.43,4.35-14.49l-.91-.67c-3.17,4.28-4.8,9.67-4.57,15.21l1.13-.05Zm3.64-14.32c2.41,1.19,4.06,3.68,4.06,6.55h1.13c0-3.32-1.91-6.19-4.69-7.56l-.5,1.01Zm4.06,6.55c0,4.03-3.26,7.3-7.27,7.3v1.13c4.64,0,8.4-3.77,8.4-8.43h-1.13Zm-7.27,7.3c-.32,0-.63-.02-.93-.06l-.14,1.12c.35.05.71.07,1.08.07v-1.13Z" style="fill:#58666c; stroke-width:0px;"/></g><path d="m48.82,148.55c5.23.42,10.27,2.74,14.19,6.56-1.34,2.42-3.9,4.05-6.85,4.05-4.33,0-7.83-3.52-7.83-7.86,0-.97.17-1.89.49-2.75Z" style="fill:#d2d2d2; fill-rule:evenodd; stroke-width:0px;"/><g style="mask:url(#mask-1);"><path d="m48.82,148.55l.04-.56-.43-.03-.15.4.53.2Zm14.19,6.56l.5.27.21-.38-.31-.3-.39.41Zm-14.24-5.99c5.09.41,10.02,2.67,13.85,6.4l.79-.81c-4.01-3.91-9.18-6.29-14.54-6.72l-.09,1.13Zm13.74,5.72c-1.24,2.24-3.62,3.76-6.36,3.76v1.13c3.16,0,5.92-1.76,7.35-4.35l-.99-.55Zm-6.36,3.76c-4.01,0-7.27-3.26-7.27-7.29h-1.13c0,4.65,3.76,8.43,8.4,8.43v-1.13Zm-7.27-7.29c0-.9.16-1.76.46-2.55l-1.06-.39c-.34.92-.53,1.91-.53,2.95h1.13Z" style="fill:#58666c; stroke-width:0px;"/></g><path d="m37.62,159.16c4.33,0,7.83-3.52,7.83-7.86,0-.95-.17-1.86-.48-2.71-2.13.22-4.26.76-6.31,1.66-2.96,1.29-5.48,3.2-7.49,5.51,1.41,2.05,3.78,3.4,6.45,3.4Z" style="fill:#d2d2d2; fill-rule:evenodd; stroke-width:0px;"/><g style="mask:url(#mask-2);"><path d="m44.98,148.59l.53-.19-.15-.41-.44.04.06.56Zm-6.31,1.66l.23.52h0l-.23-.52Zm-7.49,5.51l-.43-.37-.29.33.25.36.47-.32Zm13.72-4.46c0,4.03-3.26,7.3-7.27,7.3v1.13c4.64,0,8.4-3.77,8.4-8.43h-1.13Zm-.44-2.51c.29.78.44,1.63.44,2.51h1.13c0-1.02-.18-2-.51-2.9l-1.06.39Zm-5.55,1.98c2-.88,4.07-1.4,6.14-1.62l-.11-1.13c-2.19.22-4.37.78-6.48,1.7l.45,1.04Zm-7.29,5.36c1.96-2.25,4.41-4.1,7.29-5.36l-.45-1.04c-3.04,1.33-5.63,3.28-7.69,5.66l.85.74Zm6.02,2.46c-2.48,0-4.67-1.25-5.98-3.15l-.93.64c1.51,2.2,4.05,3.64,6.92,3.64v-1.13Z" style="fill:#58666c; stroke-width:0px;"/></g><path d="m79.32,198.97l.14-.51c.84-2.99,2.43-5.72,4.62-7.92.68-.69,1.79-.69,2.49-.02l.13.13c2.19,2.14,3.85,4.76,4.87,7.65l.22.62c.06.17-.03.36-.19.42l-.37.15c-3.78,1.49-8,1.44-11.73-.16-.14-.06-.21-.21-.17-.36Z" style="fill:#d2d2d2; stroke:#58666c; stroke-width:.57px;"/><path d="m69.39,194.38l-.68-.86c-.44-.56-.47-1.35-.06-1.94l.89-1.29,1.29-.89c1.86-1.28,4.4-.76,5.63,1.13.81,1.25,1.36,2.64,1.63,4.1l.35,1.9c.22,1.21-.83,2.28-2.04,2.06-2.77-.5-5.26-1.99-7.01-4.2Z" style="fill:#d2d2d2; stroke:#58666c; stroke-width:.57px;"/><path d="m100.78,194.92l-.06.05c-1.45,1.37-3.3,2.23-5.27,2.47l-.54.07c-1.09.13-2.07-.64-2.21-1.72l-.05-.4c-.37-2.91,1.13-5.73,3.75-7.04.69-.35,1.52-.22,2.08.32l1.35,1.31c.5.48.94,1.02,1.32,1.59.7,1.06.54,2.48-.38,3.35Z" style="fill:#d2d2d2; stroke:#58666c; stroke-width:.57px;"/><path d="m141.69,161.5c-5.12,11.8-2.4,25.67,8.45,30.42,5.46,2.39,11.99,2.06,17.82-.35,5.83-2.41,10.89-6.88,13.42-12.7,5.08-11.69.26-25.02-10.67-29.8-10.93-4.78-23.94.74-29.02,12.44Z" style="fill:#97a8b2; stroke:#58666c; stroke-width:1.13px;"/><path d="m140.64,141.08v-.85c0-3.43-.62-6.82-1.83-10.03l-28.46,22.4v.71c0,6.83-1.03,13.62-3.05,20.14l-.08.25-1.24,5.74c-.3,1.41-.46,2.85-.46,4.3v1.46c0,1.59.3,3.16.88,4.63l.25.65c.37.95.91,1.83,1.59,2.6,1.36,1.54,3.22,2.54,5.25,2.85l1.8.27c.78.12,1.53.41,2.18.87.47.33.99.57,1.54.73l1.35.38c2.5.71,5.15.68,7.64-.07l1.81-.55,4.46-.89c.94-.19,1.85-.5,2.7-.93,2.36-1.19,4.21-3.2,5.18-5.66l.15-.38c.54-1.38.82-2.85.82-4.33v-2c0-1.8-.22-3.58-.65-5.33l-1.84-7.46-1.5-9.16c-.22-1.31-.32-2.64-.32-3.97v-.49c0-2.09.31-4.16.91-6.16.61-2,.91-4.07.91-6.16v-3.53Z" style="fill:#97a8b2; stroke:#58666c; stroke-width:1.13px;"/><path d="m138.3,124.44l-9.14,10.22-19.19,15.33,1.04,4.59,28.2-19.91-.91-10.22Z" style="fill:#97a8b2; stroke-width:0px;"/><path d="m141.9,183.41l.21.42c.41.79.62,1.68.62,2.57,0,.75-.15,1.48-.44,2.17l-.61,1.45-.96,1.63c-.49.83-1.1,1.58-1.82,2.22-.92.83-2,1.47-3.18,1.88l-1.23.43-2.61.79-2.22.52-2.61.79-.89.14c-1.66.26-3.35.21-4.99-.14l-2.61-.79c-2.08-.87-4.25-1.53-6.46-1.98l-.59-.12s-.11-.03-.17-.05c-1.84-.69-3.06-2.42-4-4.14l-.17-.39c-.67-1.57-1.09-3.23-1.25-4.92l-.21-2.18c-.05-.51,0-1.02.13-1.51.5-1.88,2.2-3.19,4.15-3.19h.88c1.65-.04,5.09-.1,5.61,0,.38.08,1.78.58,2.94,1.02.74.28,1.5.5,2.27.66l1.63.33c1.92.39,3.91.17,5.69-.65,1.2-.55,2.52-.84,3.84-.84h2.67c1.04,0,2.08.23,3.02.67,1.44.67,2.61,1.8,3.34,3.21Z" style="fill:rgba(126,144,154,.78); stroke-width:0px;"/><path d="m181,172.39h.35c1.17,0,2.12-.95,2.12-2.12,0-.16-.02-.32-.06-.48l-2.76-11.85c-.3-1.27-.87-2.47-1.67-3.5-.75-.96-1.68-1.75-2.74-2.34l-6.78-3.76c-1.95-1.08-4.14-1.64-6.36-1.64-1.3,0-2.59.19-3.83.57l-1.65.51c-1.64.5-3.18,1.27-4.57,2.28l-5.89,4.28c-.31.23-.5.59-.5.98,0,.43.23.83.6,1.04l2.2,1.28c.39.23.81.41,1.24.53l2.07.6c.87.25,1.78.28,2.66.08l1.38-.31c1.48-.33,3.01.35,3.75,1.67.38.67.97,1.2,1.68,1.49l3.04,1.27c.8.33,1.66.5,2.52.5,2.2,0,4.25,1.1,5.47,2.93l.4.61c.52.78,1.17,1.46,1.93,2.01l3.95,2.88c.42.31.93.47,1.45.47Z" style="fill:rgba(120,141,153,.51); stroke-width:0px;"/><path d="m183.97,170.1c.23-5.42-1.37-10.68-4.46-14.85-2.59,1.28-4.38,3.96-4.38,7.06,0,4.34,3.51,7.86,7.83,7.86.34,0,.68-.02,1.01-.06Z" style="fill:#d2d2d2; fill-rule:evenodd; stroke-width:0px;"/><g style="mask:url(#mask-3);"><path d="m183.97,170.1l.57.02-.02.48-.47.06-.07-.56Zm-4.46-14.85l-.25-.51.42-.21.28.38-.45.34Zm3.9,14.83c.22-5.3-1.34-10.43-4.35-14.49l.91-.67c3.17,4.28,4.8,9.67,4.57,15.21l-1.13-.05Zm-3.64-14.32c-2.41,1.19-4.06,3.68-4.06,6.55h-1.13c0-3.32,1.91-6.19,4.69-7.56l.5,1.01Zm-4.06,6.55c0,4.03,3.26,7.29,7.27,7.29v1.13c-4.64,0-8.4-3.77-8.4-8.43h1.13Zm7.27,7.29c.32,0,.63-.02.93-.06l.14,1.12c-.35.05-.71.07-1.08.07v-1.13Z" style="fill:#58666c; stroke-width:0px;"/></g><path d="m160.8,146.72c-5.23.42-10.28,2.74-14.19,6.56,1.34,2.42,3.91,4.05,6.85,4.05,4.33,0,7.83-3.52,7.83-7.86,0-.97-.17-1.89-.49-2.75Z" style="fill:#d2d2d2; fill-rule:evenodd; stroke-width:0px;"/><g style="mask:url(#mask-4);"><path d="m160.8,146.72l-.04-.56.43-.03.15.4-.53.2Zm-14.19,6.56l-.49.27-.21-.38.31-.3.39.41Zm14.24-5.99c-5.09.41-10.02,2.67-13.85,6.4l-.79-.81c4.01-3.91,9.18-6.29,14.55-6.72l.09,1.13Zm-13.75,5.72c1.24,2.25,3.62,3.76,6.36,3.76v1.13c-3.16,0-5.92-1.76-7.35-4.35l.99-.55Zm6.36,3.76c4.01,0,7.27-3.26,7.27-7.29h1.13c0,4.65-3.76,8.43-8.4,8.43v-1.13Zm7.27-7.29c0-.9-.16-1.76-.46-2.55l1.06-.39c.34.92.53,1.91.53,2.95h-1.13Z" style="fill:#58666c; stroke-width:0px;"/></g><path d="m171.99,157.33c-4.33,0-7.83-3.52-7.83-7.86,0-.95.17-1.87.48-2.71,2.13.22,4.26.76,6.31,1.66,2.96,1.29,5.48,3.19,7.49,5.51-1.41,2.05-3.78,3.4-6.45,3.4Z" style="fill:#d2d2d2; fill-rule:evenodd; stroke-width:0px;"/><g style="mask:url(#mask-5);"><path d="m164.64,146.76l-.53-.19.15-.41.44.04-.06.56Zm6.31,1.66l-.23.52h0l.23-.52Zm7.49,5.51l.43-.37.29.33-.25.36-.47-.32Zm-13.72-4.46c0,4.03,3.26,7.29,7.27,7.29v1.13c-4.64,0-8.4-3.77-8.4-8.43h1.13Zm.44-2.52c-.29.78-.44,1.63-.44,2.52h-1.13c0-1.02.18-2,.51-2.9l1.06.39Zm5.55,1.98c-2-.88-4.07-1.41-6.14-1.62l.11-1.13c2.19.22,4.37.78,6.48,1.7l-.45,1.04Zm7.29,5.36c-1.96-2.25-4.41-4.1-7.29-5.36l.45-1.04c3.04,1.33,5.63,3.28,7.69,5.66l-.85.74Zm-6.02,2.46c2.48,0,4.67-1.25,5.98-3.15l.93.64c-1.51,2.2-4.05,3.64-6.92,3.64v-1.13Z" style="fill:#58666c; stroke-width:0px;"/></g><path d="m130.3,197.13l-.14-.51c-.84-2.99-2.43-5.72-4.62-7.92-.68-.69-1.79-.69-2.49-.02l-.13.13c-2.19,2.14-3.85,4.76-4.87,7.65l-.22.62c-.06.17.03.36.19.42l.37.15c3.78,1.49,8,1.44,11.73-.16.14-.06.21-.21.17-.36Z" style="fill:#d2d2d2; stroke:#58666c; stroke-width:.57px;"/><path d="m140.23,192.55l.68-.86c.44-.56.47-1.35.06-1.94l-.89-1.29-1.29-.89c-1.86-1.28-4.4-.77-5.63,1.13-.81,1.25-1.36,2.64-1.63,4.1l-.35,1.9c-.22,1.21.83,2.28,2.04,2.06,2.77-.5,5.26-1.99,7.01-4.2Z" style="fill:#d2d2d2; stroke:#58666c; stroke-width:.57px;"/><path d="m108.84,193.09l.06.05c1.45,1.37,3.29,2.23,5.27,2.47l.54.07c1.08.13,2.07-.64,2.21-1.72l.05-.4c.37-2.91-1.13-5.73-3.75-7.04-.69-.35-1.52-.22-2.08.32l-1.35,1.31c-.5.48-.94,1.02-1.32,1.59-.7,1.06-.54,2.48.38,3.35Z" style="fill:#d2d2d2; stroke:#58666c; stroke-width:.57px;"/></g></svg>