<?xml version="1.0" encoding="UTF-8"?><svg id="_Слой_2" xmlns="http://www.w3.org/2000/svg" width="158.02" height="200" viewBox="0 0 158.02 200"><g id="_Слой_1-2"><path d="m73.26,17.62c1.08-2.19,2.4-4.24,3.86-6.19,2.26-3.02,4.82-5.75,7.95-7.89,2.04-1.39,4.2-2.53,6.63-3.1.62-.15,1.26-.21,1.88-.32.1-.02.19-.08.28-.11.19,0,.39,0,.58,0,.07.04.13.1.21.12.37.1.76.15,1.11.3.67.29.98.81.89,1.53-.05.43-.17.88-.36,1.28-.56,1.23-1.16,2.44-1.76,3.66-2.34,4.76-4.07,9.72-5.05,14.94-.15.78-.26,1.56-.4,2.34-.15-.1-.3-.2-.45-.3.13-.7.25-1.41.38-2.11.94-5.05,2.57-9.87,4.8-14.49.6-1.24,1.22-2.46,1.81-3.7.2-.42.37-.85.49-1.3.23-.83-.09-1.35-.93-1.56-.3-.08-.61-.12-.91-.13-1.41-.05-2.76.29-4.08.77-3.24,1.18-6,3.11-8.46,5.48-2.72,2.62-4.99,5.6-6.91,8.85-.4.68-.74,1.4-1.11,2.09-.16-.06-.32-.11-.48-.17Z" style="fill:#5a3515; stroke-width:0px;"/><path d="m155.78,189.19c.06,1.62-.15,3.2-.62,4.75-.93,3.01-2.93,4.88-6.01,5.58-.69.16-1.41.24-2.11.35-.4,0-.79,0-1.19.02-.22.01-.43.07-.65.11h-.7c-.09-.04-.17-.1-.26-.1-.6-.02-1.2-.02-1.8-.03-1.06-.18-2.13-.33-3.19-.54-.49-.1-.59-.26-.45-.75.14-.5.36-.97.58-1.53-.62.07-1.2.15-1.78.21-.6.06-1.19.14-1.79.16-.53.02-.7-.17-.55-.67.21-.7.43-1.41.75-2.06,1.39-2.85,3.55-4.98,6.28-6.56.23,0,.36.12.39.35-1.95,1.03-3.51,2.52-4.87,4.22-.86,1.07-1.5,2.3-1.93,3.61-.06.19-.06.39-.1.66,1.36-.17,2.64-.32,3.88-.48.19-.31.34-.58.51-.84.69-1.1,1.38-2.19,2.37-3.06.31-.27.61-.56,1.16-.62-1.98,1.99-3.42,4.22-4.49,6.77.23.08.38.15.54.19,1.46.37,2.96.48,4.46.56.75.04,1.5-.07,2.25-.09,1.36-.05,2.68-.32,3.94-.83,1.26-.51,2.33-1.25,3.11-2.41,1.36-2.02,1.77-4.28,1.77-6.66.16-.11.33-.22.49-.33Z" style="fill:#271c1a; stroke-width:0px;"/><path d="m142.45,199.87c.6,0,1.2.01,1.8.03.09,0,.17.07.26.1h-2.09s.04-.05.05-.08c0-.01-.01-.03-.02-.05Z" style="fill:#624d3e; stroke-width:0px;"/><path d="m145.2,200c.22-.04.43-.1.65-.11.39-.02.79-.01,1.19-.02,0,.04.02.08.02.13h-1.86Z" style="fill:#624d3e; stroke-width:0px;"/><path d="m0,54.5c.06,0,.12,0,.18,0-.02.42-.05.83-.07,1.25-.04,0-.07.01-.11.02,0-.43,0-.85,0-1.28Z" style="fill:#f8a4a4; stroke-width:0px;"/><path d="m.11,55.76c.02-.42.05-.83.07-1.25.13-.78.48-1.47.95-2.1.72-.96,1.46-1.91,2.21-2.84,2.35-2.93,4.3-6.1,5.84-9.53.84-1.87,1.76-3.71,2.71-5.52.86-1.63,1.91-3.14,3.27-4.41,1.26-1.18,2.72-1.98,4.46-2.18,1.33-.15,2.62.08,3.89.47,1.17.36,2.28.87,3.34,1.47.2.11.4.23.72.44.08-.13.14-.28.24-.4,1.18-1.34,2.49-2.54,3.88-3.66.16-.12.26-.31.39-.47.2.04.35-.02.44-.21.13-.08.27-.15.39-.24,2.02-1.44,4.16-2.66,6.42-3.66.33-.15.65-.3,1.02-.47-.51-1.22-.87-2.43-1.09-3.69l-.13-.46c0-.21,0-.42.02-.63.03-.73.07-1.46.1-2.19,0-.1,0-.19,0-.29.07-.35.13-.7.22-1.17,1.28,1.25,2.6,2.22,4.08,2.96.15.08.29.17.44.22.07.02.18-.04.27-.07.18.13.34.31.54.4,1.89.76,3.86,1.09,5.9,1,.15,0,.31-.03.46-.05.05,0,.1-.04.17-.07-2.34-3.9-2.9-8.03-1.62-12.41.05.32.1.64.15.96.37,2.35,1.53,4.27,3.22,5.9,2.25,2.16,4.95,3.55,7.88,4.53,1.61.54,3.26.79,4.96.81,2.3.03,4.59.28,6.87.66.15.02.3,0,.46,0,.16.06.32.11.48.17.89.2,1.78.37,2.66.59,3.3.83,6.45,2.04,9.4,3.73.97.56,1.91,1.18,2.86,1.77.15.1.3.2.45.3.11.1.22.22.34.31,2.04,1.53,3.85,3.29,5.46,5.27.1.12.2.23.32.36.21-.12.41-.24.61-.35,2.05-1.19,4.23-1.9,6.62-1.87,2.49.02,4.75.81,6.82,2.15,2.03,1.32,3.71,3.04,5.22,4.92,1.67,2.07,3.09,4.31,4.49,6.56,1.06,1.69,2.18,3.33,3.67,4.7,1.17,1.08,2.43,2.03,3.81,2.84.53.31,1.06.64,1.59.97,1.93,1.2,1.91,3.5,1.12,4.86-.55.94-1.31,1.67-2.21,2.27-1.43.96-3.03,1.55-4.71,1.88-5.32,1.04-10.4.32-15.22-2.15-1.46-.75-2.82-1.68-4.23-2.53-.16-.1-.32-.2-.54-.35-.05.69-.1,1.32-.15,1.94-.66,7.54-3.11,14.41-7.71,20.47-.17.22-.31.5-.38.77-1.42,5.37-2.04,10.84-1.65,16.39.24,3.41.83,6.76,2.2,9.93,1.97,4.56,5.15,7.97,9.72,9.99,3.42,1.51,7,1.93,10.67,1.26,2.49-.46,4.97-1,7.45-1.5,2.6-.52,5.22-.9,7.89-.76,3.07.16,5.94.98,8.55,2.63.37.23.72.32,1.14.29,4.56-.37,8.36-2.25,11.38-5.68,1.9-2.16,3.12-4.69,4.02-7.4.06-.16.11-.33.17-.49,0-.02.02-.03.09-.11.18.19.38.36.54.56.73.9,1.1,1.95,1.32,3.06.3,1.56.23,3.12,0,4.68-.04.24-.03.5.04.73,1.12,3.74.23,6.95-2.57,9.64-.33.32-.47.63-.48,1.1-.04,1.55-.8,2.72-2.07,3.57-1.12.76-2.4,1.04-3.73,1.15-.42.03-.84.04-1.3.06.01.15,0,.27.03.37.7,2.77.85,5.58.7,8.42-.14,2.55-.38,5.1-.54,7.65-.07,1.06-.07,2.13-.08,3.19-.01,1.13.37,2.14,1.05,3.02.52.67,1.09,1.31,1.7,1.9.65.64,1.36,1.21,2.04,1.82.45.4.88.81,1.31,1.23,2.1,2.05,3.16,4.56,3.21,7.48.03,1.76-.09,3.52-.06,5.28.03,1.84.1,3.68.25,5.51.28,3.4.66,6.78.94,10.18.09,1.13.07,2.29.02,3.43-.05,1.09-.55,2-1.33,2.76-.26.25-.56.47-.85.7-.16.11-.33.22-.49.33-.11.02-.24.03-.33.08-1.26.65-2.64.86-4.01.95-1.49.11-3,.11-4.48-.21-1.29-.28-2.5-.75-3.48-1.69-.08-.08-.19-.11-.29-.17-.03-.23-.16-.35-.39-.35,0-.09.02-.21-.02-.27-.67-.86-.75-1.87-.61-2.88.22-1.59.51-3.17.81-4.74.35-1.82.77-3.64.92-5.49.14-1.76.13-3.53-.3-5.25-.15-.59-.41-1.17-.7-1.71-.39-.71-.98-1.25-1.77-1.51-1.1-.37-2.2-.75-3.31-1.07-3.02-.86-5.97-1.88-8.79-3.27-.06,0-.12-.02-.18-.03.02.04.03.09.05.14.49.58.97,1.15,1.46,1.73.32.39.66.76.96,1.17.65.88.79,1.87.51,2.92-.24.93-.66,1.77-1.14,2.59-.47.8-.95,1.6-1.47,2.37-1.64,2.38-2.82,4.97-3.6,7.75-.19.69-.45,1.36-.68,2.03-.41,1.19-1.21,2-2.37,2.47-.11.04-.21.1-.31.15-.19.08-.39.15-.58.23-.59.08-1.17.2-1.76.24-.86.06-1.73.14-2.59.07-1.16-.1-2.31-.32-3.44-.66-1.01-.31-2.02-.63-2.88-1.28-.42-.31-.83-.64-.97-1.18l-.09-.56c.26-1.3.96-2.39,1.7-3.46.9-1.29,1.81-2.56,2.69-3.86.84-1.25,1.55-2.59,2.08-4.01.07-.19.13-.39.21-.63-.21-.06-.37-.11-.53-.15-3.39-.91-6.58-2.26-9.47-4.27-1.18-.82-2.26-1.75-3.2-2.85-.11-.13-.3-.25-.47-.28-1.27-.25-2.54-.47-3.82-.7-.05,0-.11,0-.26,0,.07.45.13.88.2,1.31.14.9.32,1.79.43,2.69.21,1.84-.2,3.54-1.25,5.07-.07.1-.12.2-.19.29-.88,1.19-1.3,2.53-1.28,4.02.04,2.51.07,5.03.06,7.54,0,1.62-.05,3.25-.11,4.87-.03.86-.24,1.68-.87,2.33-.19.15-.38.3-.57.45-.32.14-.64.27-.95.43-1.18.57-2.43.85-3.72.96-1.53.13-3.04-.04-4.51-.48-1.14-.34-2.2-.84-3-1.77-.22-.26-.46-.51-.69-.76,0-.21.05-.44-.26-.48.02-.09.08-.19.06-.27-.32-1.13-.11-2.23.16-3.32.51-2.04,1.06-4.08,1.58-6.12.46-1.8.87-3.61,1.06-5.46.13-1.3.13-2.59-.16-3.87-.18-.77-.51-1.46-.89-2.13-.49-.87-.74-1.8-.63-2.79.06-.59.25-1.17.39-1.75.19-.79.4-1.57.6-2.36.04-.14.02-.3.03-.5-.7-.12-1.38-.23-2.07-.35-4.81-.87-9.25-2.6-13.22-5.49-.23-.17-.46-.24-.75-.21-3.01.33-5.89-.22-8.68-1.32-.11-.04-.22-.07-.33-.11-.04-.02-.08-.03-.13-.05.01.04.03.08.04.13.43.55.86,1.09,1.28,1.65.57.76,1.01,1.6,1.35,2.48l.02.55c-.16.61-.23,1.26-.49,1.83-.87,1.95-2.03,3.71-3.58,5.21-1.09,1.05-2.28,1.89-3.75,2.29-.2.03-.4.07-.6.1-1.71.24-2.97-.5-3.92-1.85-.39-.55-.76-1.13-1.05-1.73-.5-1.07-.98-2.15-1.39-3.25-.65-1.74-1.24-3.5-1.83-5.26-.82-2.45-1.97-4.74-3.37-6.92-.76-1.19-1.48-2.41-2.15-3.65-1.17-2.15-1.18-4.37-.24-6.6,1.05-2.48,2.74-4.42,4.94-5.95,1.31-.91,2.76-1.02,4.28-.88.79.07,1.58.13,2.37.23,1.07.13,2.12.04,3.16-.25.74-.2,1.48-.42,2.23-.63-.03-.51-.06-.95-.09-1.39-.19-3.72.39-7.33,1.44-10.89.79-2.69,1.65-5.36,2.45-8.05.64-2.15,1.15-4.34,1.39-6.58.25-2.29.18-4.56-.3-6.82-.01-.05-.04-.1-.1-.23-.18.16-.33.29-.48.42-2.19,2-4.53,3.81-7.13,5.27-2.33,1.31-4.78,2.28-7.44,2.65-2.46.35-4.87.16-7.19-.74-2.01-.78-3.52-2.14-4.58-4.01-.89-1.57-1.38-3.27-1.75-5.02-.21-1.02-.39-2.05-.59-3.08-.02-.11-.06-.22-.1-.36-1.51.14-2.96.02-4.18-.99-1.2-1-1.6-2.37-1.76-3.81-.78-.48-1.54-.91-2.25-1.39-1.8-1.22-3.31-2.73-4.42-4.62-.95-1.64-1.44-3.41-1.58-5.29-.19-2.49.3-4.85,1.2-7.15.54-1.37,1.07-2.74,1.52-4.14.48-1.49.61-3.04.49-4.59-.16-1.93-.36-3.85-.54-5.78,0-.03-.04-.06-.08-.13-.13.1-.26.2-.39.31-3.3,2.93-7.15,4.63-11.53,5.14-1.58.19-3.17.14-4.72-.29-.19-.05-.37-.11-.55-.17-1.17-.43-2.14-1.08-2.59-2.31Zm33.67,30.26l.49-.02c.23.76.58,1.42,1.22,1.92.88.68,1.82,1.24,2.84,1.67,3.01,1.28,6.12,1.58,9.33,1.01,2.2-.39,4.25-1.15,6.07-2.49,2.03-1.5,3.44-3.49,4.56-5.71.03-.06.02-.14.03-.2-.56-.41-1.24-.37-1.93-.59,1.08-.28,2-.18,2.74.55.57.56.64,1.27.46,2.02-.13-.58-.17-1.21-.74-1.57-.07.04-.11.05-.13.08-.48.8-.96,1.59-1.42,2.39-.07.11-.09.25-.12.39-.56,2.23-1.39,4.35-2.46,6.38-1.13,2.16-2.5,4.15-4.32,5.79-1.92,1.73-4.12,2.86-6.75,3.01-2.27.13-4.18-.6-5.68-2.34-.66-.77-1.18-1.63-1.58-2.56-.93-2.13-1.37-4.39-1.63-6.68-.02-.14-.05-.27-.1-.55-.65,1.17-1.5,1.9-2.65,2.3.14.8.27,1.56.42,2.32.32,1.67.7,3.33,1.38,4.91,1.15,2.67,3.07,4.46,5.88,5.27,2.2.63,4.42.68,6.67.27,2.7-.5,5.16-1.6,7.5-3.01,2.24-1.36,4.3-2.98,6.21-4.76,1.61-1.51,3.22-3.02,4.57-4.78.99-1.29,1.92-2.63,2.87-3.94.11-.15.21-.3.31-.45-.53,2.03-1.97,3.5-3.19,5.25,4.84.04,9.12-1.4,13.16-3.72-.75.82-1.65,1.42-2.64,1.87-3.34,1.52-6.82,2.4-10.51,2.32-.32,0-.54.07-.76.31-.78.83-1.58,1.65-2.39,2.46-.23.22-.25.42-.18.72.59,2.7.61,5.41.2,8.14-.35,2.3-.94,4.55-1.61,6.77-.8,2.67-1.65,5.32-2.41,8-.67,2.35-1.06,4.76-1.14,7.21-.1,2.77.22,5.49.91,8.17.06.22.09.44.14.65-.22-.22-.36-.47-.47-.73-.4-1.01-.65-2.07-.8-3.14-.03-.2-.08-.4-.13-.64-.5.14-.92.26-1.35.38-1.25.36-2.52.62-3.83.49-.92-.09-1.85-.17-2.77-.27-1.57-.18-2.99.13-4.26,1.11-1.64,1.25-2.98,2.76-3.94,4.59-1.32,2.52-1.41,5.03.04,7.53.51.87,1,1.75,1.55,2.59,1.78,2.68,3.13,5.55,4.14,8.61.7,2.13,1.5,4.23,2.3,6.33.46,1.19,1.08,2.32,1.94,3.28.55.6,1.18,1.07,2.02,1.16.64.07,1.27.01,1.89-.19.82-.27,1.57-.67,2.24-1.21,2.11-1.68,3.6-3.81,4.63-6.29.43-1.02.33-1.96-.24-2.88-1.19-1.92-2.55-3.68-4.46-4.97-1.72-1.16-3.35-2.44-4.75-3.98-.44-.48-.8-1.04-1.16-1.59-.17-.25-.29-.56-.24-.93.08.06.12.07.14.1.85,1.39,1.92,2.59,3.18,3.6,1.45,1.16,2.92,2.31,4.46,3.33,1.61,1.07,3.47,1.61,5.36,1.98,1.28.25,2.56.39,3.87.33.25-.01.53.03.79-.17-.17-.15-.29-.27-.43-.38-1.69-1.41-3.2-2.98-4.49-4.76-.66-.91-1.18-1.9-1.42-3.02,2.35,4.09,5.57,7.3,9.56,9.77,3.56,2.2,10.86,4.66,13.04,4.35.05-.38-.08-.72-.24-1.04-.56-1.1-1.12-2.21-1.74-3.28-2.73-4.69-4.73-9.65-5.65-15.02-.37-2.18-.56-4.38-.28-6.59.13-1,.28-2,.79-2.89.18-.32.47-.59.71-.88h0c-.15.43-.31.87-.45,1.3-.78,2.35-.84,4.75-.55,7.18.33,2.78.99,5.48,1.89,8.13.99,2.93,2.35,5.68,3.88,8.36.58,1.03,1.14,2.07,1.69,3.11.51.96.66,1.99.43,3.04-.2.92-.47,1.83-.74,2.74-.25.84-.32,1.68-.07,2.52.15.5.38.97.63,1.43.43.81.74,1.66.88,2.57.27,1.73.1,3.44-.19,5.14-.41,2.41-1.1,4.75-1.71,7.11-.36,1.4-.7,2.82-.96,4.24-.22,1.19.15,2.26,1.02,3.13.64.65,1.44,1.05,2.29,1.33,2.05.68,4.13.81,6.24.34,1.14-.25,2.23-.64,3.18-1.36.45-.34.77-.76.84-1.33.07-.59.18-1.19.19-1.79.03-1.57.02-3.14.02-4.7,0-2.46-.02-4.92-.01-7.37,0-.93.25-1.8.72-2.6.25-.43.51-.87.8-1.28.93-1.39,1.35-2.91,1.18-4.57-.1-.96-.26-1.92-.44-2.87-.31-1.65-.27-3.25.4-4.84.65-1.53,1.22-3.1,1.78-4.66,1.09-3.06,1.81-6.21,2.05-9.45.24-3.2.02-6.38-.7-9.52-.03-.11-.03-.23-.05-.34.2.18.34.37.41.58.18.55.38,1.1.48,1.67.48,2.7.56,5.43.31,8.16-.27,2.96-.91,5.85-1.91,8.65-.67,1.9-1.43,3.76-2.11,5.66-.19.54-.29,1.12-.37,1.69-.06.45-.02.46.43.58,1.54.41,3.11.65,4.69.78,2.99.24,5.95.07,8.89-.57,3.23-.7,6.25-1.9,8.95-3.84.15-.11.29-.23.52-.41-.19-.15-.35-.24-.46-.36-.59-.64-1.21-1.26-1.74-1.95-2.1-2.71-3.36-5.81-4.18-9.12-.57-2.3-.88-4.64-1.01-7-.07-1.16-.07-2.32.19-3.47.03-.13.1-.26.15-.38.08.16.08.29.08.43-.06,2.44.09,4.88.46,7.29.45,2.96,1.23,5.83,2.56,8.53,1.04,2.12,2.37,4.04,4.14,5.62,2.02,1.8,4.26,3.28,6.67,4.51,2.58,1.32,5.3,2.25,8.07,3.07,1.34.39,2.66.83,3.98,1.26.78.26,1.37.77,1.86,1.43.59.8.91,1.71,1.07,2.67.38,2.28.34,4.55-.06,6.82-.35,1.98-.8,3.94-1.15,5.93-.18,1.03-.27,2.07-.36,3.11-.07.86.28,1.58.86,2.2.88.94,1.96,1.49,3.19,1.79,1.91.45,3.84.44,5.77.18.96-.13,1.9-.36,2.79-.77,1.82-.84,2.86-2.2,2.82-4.27-.02-.77.01-1.55-.06-2.32-.3-3.35-.62-6.71-.94-10.06-.21-2.16-.36-4.32-.29-6.49.07-1.9.19-3.79-.01-5.69-.19-1.79-.77-3.43-1.87-4.87-.84-1.1-1.86-2.02-2.89-2.93-.87-.77-1.74-1.54-2.54-2.38-1.33-1.38-2.07-3.03-1.95-4.99.14-2.2.28-4.4.45-6.6.24-2.92.38-5.83.07-8.76-.21-1.99-.64-3.94-1.49-5.76-.93-1.98-2.17-3.75-3.64-5.36-3.29-3.61-7.38-5.55-12.26-5.77-2.16-.1-4.29.13-6.41.54-2.26.44-4.51.91-6.76,1.39-2.69.56-5.38.86-8.12.41-2.85-.46-5.49-1.46-7.87-3.11-3.85-2.66-6.29-6.34-7.68-10.76-1-3.16-1.4-6.42-1.49-9.73-.11-4.47.4-8.89,1.41-13.24.04-.18.07-.35.1-.53-.06-.03-.11-.07-.17-.1-.08.13-.15.28-.25.38-.67.67-1.33,1.35-2.05,1.97-.62.54-1.29,1.05-2.11,1.3h0c.15-.14.29-.29.44-.43.86-.78,1.77-1.51,2.58-2.34,3-3.07,5.25-6.64,6.92-10.58,1.89-4.47,2.89-9.14,3.08-13.99.01-.35-.09-.57-.37-.77-2.32-1.63-4.68-3.16-7.24-4.38-.11-.05-.2-.12-.41-.25,1.14.17,2.08.53,2.95,1.05,1.41.85,2.79,1.74,4.17,2.64,1.72,1.12,3.38,2.34,5.14,3.38,4.83,2.85,10.05,3.81,15.59,2.89,1.69-.28,3.31-.81,4.78-1.72.95-.59,1.78-1.3,2.35-2.28.72-1.22.76-3.21-.96-4.28-.36-.23-.72-.46-1.09-.67-3.12-1.77-5.71-4.1-7.59-7.18-.33-.55-.68-1.08-1.02-1.62-1.47-2.33-2.98-4.62-4.8-6.69-1.53-1.74-3.22-3.3-5.28-4.4-2.86-1.54-5.85-1.93-8.98-.97-2.28.7-4.26,1.94-5.95,3.61-.71.7-1.32,1.51-1.98,2.27h0c.16-.39.27-.8.48-1.16.5-.86,1.21-1.56,1.98-2.19.42-.34.84-.67,1.32-1.05-.65-.74-1.25-1.47-1.9-2.15-3.61-3.78-7.95-6.44-12.86-8.2-4.78-1.72-9.73-2.49-14.8-2.59-.58-.01-1.16-.04-1.73-.15-3.43-.61-6.55-1.96-9.34-4.06-2-1.51-3.59-3.35-4.42-5.77-.02-.07-.1-.12-.18-.21-.44,2.67.26,6.33,1.54,8.67.37.67.82,1.26,1.4,1.76.91.79,1.87,1.5,2.91,2.11.51.29,1.02.57,1.54.86-.27,0-.51-.06-.75-.13-1.57-.49-2.86-1.44-4.06-2.53-.25-.23-.48-.32-.83-.27-1.2.16-2.4.11-3.59-.09-2.88-.47-5.42-1.67-7.64-3.55-.11-.09-.23-.15-.37-.25-.42,2.35-.03,5.03,1.09,7.36.52,1.09,1.11,2.13,2.04,2.93,1.87,1.61,3.97,2.82,6.25,3.73.09.04.18.06.27.1.08.04.16.09.35.2-.95-.13-1.73-.35-2.48-.67-1.64-.69-3.09-1.68-4.46-2.8-.24-.19-.46-.31-.78-.25-1.18.23-2.34.51-3.47.94-2.27.88-4.12,2.28-5.38,4.4-.08.13-.13.26-.22.44.21,0,.36,0,.52,0,2.11-.05,4.11.39,5.96,1.44,1.5.85,2.73,1.97,3.46,3.56.18.39.28.82.42,1.24-.04.01-.08.03-.11.04-.07-.13-.14-.27-.2-.4-.74-1.54-1.85-2.76-3.27-3.69-1.91-1.25-4.02-1.76-6.29-1.72-.42,0-.84,0-1.29,0,.03-.07.05-.14.08-.21.86-1.71,2.04-3.14,3.64-4.22,1.66-1.12,3.52-1.76,5.47-2.17.18-.04.36-.09.58-.14-.48-.76-.93-1.47-1.4-2.2-.13.05-.26.09-.38.15-1.42.71-2.87,1.37-4.24,2.15-3.48,1.99-6.5,4.53-8.99,7.69-2.59,3.29-4.34,6.98-5.47,11-.98,3.51-1.31,7.07-1.01,10.7.14,1.7.33,3.39.49,5.09.15,1.63.09,3.26-.38,4.84-.42,1.39-.92,2.75-1.45,4.1-.76,1.96-1.37,3.95-1.39,6.08-.02,2.29.39,4.47,1.57,6.46,1.45,2.43,3.54,4.17,6.01,5.49.06.03.13.01.19.02.04-.48.04-.93.13-1.36.21-1,.46-2,.7-2.99.12.18.25.37.37.55-.52,1.45-.8,2.95-.67,4.5.05.59.18,1.19.38,1.75.63,1.74,2.07,2.64,4.09,2.63,1.78,0,3.22-.98,3.89-2.62.08-.2.07-.35-.03-.54-.22-.45-.4-.92-.6-1.38Zm2.92,9.27c.36.68.67,1.4,1.1,2.04,1.06,1.59,2.54,2.6,4.46,2.82,1.58.18,3.12-.1,4.58-.74,2.07-.91,3.7-2.37,5.08-4.13.37-.47.68-.98,1.01-1.47.09-.12.18-.24.27-.36.06-.07.13-.14.18-.22,1.32-2.13,2.32-4.4,3.05-6.8.01-.04-.02-.09-.04-.13-.54.52-1.06,1.04-1.6,1.52-1.21,1.08-2.6,1.87-4.12,2.43-1.4.52-2.84.82-4.33.98-1.61.17-3.2.1-4.78-.19-2.17-.39-4.19-1.2-5.99-2.5-.1-.07-.22-.13-.37-.21,0,.32-.03.59,0,.86.18,1.45.4,2.9.84,4.31.14.45.35.89.53,1.33.04.15.08.3.12.44Zm85.48,62.49c-2.67,2.02-5.66,3.33-8.89,4.12-3.21.79-6.46,1.04-9.78.86.28.37.58.7.9.99,2.18,2.01,4.73,3.41,7.46,4.52,1.54.63,3.13,1.13,4.76,1.48.57.12,1.07.35,1.48.88-.55-.15-1.02-.28-1.5-.42-.14.39-.25.7-.37,1-.79,1.97-1.92,3.75-3.14,5.48-.7,1-1.42,1.98-2.09,3-.36.55-.66,1.14-.9,1.75-.36.92-.19,1.45.63,2,.51.34,1.07.62,1.65.84,1.58.62,3.23.94,4.92,1.04,1.48.09,2.94-.09,4.34-.59,1.1-.4,1.91-1.09,2.3-2.22.32-.93.63-1.87.93-2.81.5-1.59,1.04-3.17,1.89-4.61.81-1.37,1.68-2.7,2.5-4.05.63-1.02,1.23-2.06,1.56-3.23.26-.93.17-1.81-.42-2.59-.31-.42-.65-.82-1-1.21-.73-.8-1.45-1.61-2.03-2.54-.11-.17-.29-.3-.46-.42-1.22-.82-2.45-1.63-3.66-2.46-.37-.25-.7-.54-1.08-.83ZM19.9,49.94l-.12-.04c-.07.08-.15.16-.22.25-.78.9-1.62,1.72-2.61,2.38-3.11,2.05-6.53,2.61-10.16,2.02-.46-.07-.91-.1-1.37.02-.77.21-1.57.22-2.36.16-.2-.02-.4-.08-.6-.12.21-.09.42-.1.62-.11,1.22-.1,2.42-.22,3.51-.88,1.29-.78,2.44-1.7,3.44-2.83,1.58-1.79,2.93-3.74,4.09-5.84.53-.96,1.11-1.91,1.77-2.79,1.06-1.43,2.54-1.96,4.29-1.76.47.05.95.13,1.47.2,1.26-3.66,3.06-6.99,5.52-9.94-.09-.09-.13-.14-.17-.17-1.4-.84-2.88-1.49-4.47-1.89-2.82-.69-5.23.05-7.27,2.09-.98.98-1.77,2.1-2.49,3.27-1.16,1.91-2.1,3.92-3,5.96-1.38,3.11-3.04,6.05-5.12,8.75-.93,1.21-1.92,2.39-2.82,3.61-.41.55-.77,1.17-1.01,1.81-.51,1.34-.11,2.32,1.12,3.05.22.13.44.24.67.34.9.37,1.85.55,2.82.61,3.35.18,6.48-.64,9.46-2.12,1.75-.86,3.32-1.99,4.73-3.33.17-.16.33-.31.32-.58-.02-.71,0-1.43,0-2.14Zm135.93,52.63c-.12.31-.21.52-.29.74-.48,1.31-1.04,2.59-1.75,3.79-2.91,4.92-7.13,7.9-12.84,8.67-.27.04-.54.08-.87.14,3.29,2.69,5.74,5.89,7.14,9.84,1.4.07,2.74-.06,4.02-.6,1.4-.59,2.39-1.56,2.72-3.09.06-.27.05-.55.08-.9-1.19.56-2.34.78-3.54.68.24-.07.48-.12.72-.17,1.09-.22,2.16-.54,3.02-1.26,1.22-1.02,2.17-2.26,2.76-3.75.67-1.69.69-3.42.22-5.28-.27.63-.47,1.17-.73,1.68-.26.52-.55,1.02-.86,1.51-.3.47-.62.94-1.1,1.26.09-.24.23-.44.36-.65,1.92-3,2.76-6.24,2.15-9.8-.17-1-.52-1.93-1.22-2.82ZM21.41,41.16c-.71-.3-1.39-.28-2.06-.29-1.28-.02-2.28.53-3.06,1.51-.42.53-.8,1.09-1.14,1.68-1.01,1.74-1.97,3.51-3.2,5.11-1.36,1.78-2.83,3.44-4.75,4.63-.09.05-.16.14-.27.25.12.04.19.08.26.09,1.33.16,2.66.21,3.99.03,3.56-.48,6.42-2.14,8.55-5.03.12-.16.22-.37.23-.57.11-1.76.41-3.49.84-5.2.18-.73.4-1.45.61-2.22Z" style="fill:#736657; stroke-width:0px;"/><path d="m94.78,190.46c.19-.15.38-.3.57-.45-.12,1.75-.51,3.44-1.3,5.01-1.19,2.36-3.15,3.7-5.68,4.27-1.9.43-3.82.57-5.76.4-1.27-.11-2.53-.32-3.79-.49-.04,0-.08-.01-.11-.02-.79-.19-.88-.36-.58-1.13.14-.35.31-.7.49-1.12-.66.08-1.26.15-1.85.21-.56.06-1.11.13-1.67.15-.59.03-.75-.16-.6-.73.13-.5.31-1,.53-1.47,1.43-3.01,3.72-5.18,6.63-6.74.31.04.26.27.26.48-.26.12-.53.21-.78.36-1.25.75-2.33,1.71-3.35,2.74-1.19,1.2-2.05,2.6-2.65,4.17-.07.18-.05.39-.08.6.22.01.35.04.48.02.94-.1,1.87-.23,2.81-.3.47-.03.72-.28.94-.65.32-.53.66-1.04,1.02-1.54.55-.75,1.16-1.45,1.94-1.97.18-.12.37-.25.67-.06-.11.14-.27.22-.4.34-1.53,1.4-2.64,3.11-3.61,4.92-.14.25-.24.53-.34.8-.09.23,0,.38.25.42,1.06.16,2.12.4,3.19.45.97.04,1.95.11,2.94.06,1.65-.08,3.25-.31,4.81-.87,1.26-.46,2.23-1.28,3.07-2.29.82-.99,1.27-2.16,1.59-3.38.19-.72.25-1.47.37-2.21Z" style="fill:#281d1b; stroke-width:0px;"/><path d="m121.15,185.47c.19-.08.39-.15.58-.23-.31,2.5-1.19,4.71-3.24,6.32-1.27,1-2.75,1.55-4.33,1.82-2.74.46-5.43.16-8.08-.58-.09-.03-.18-.06-.27-.09-.46-.17-.56-.33-.42-.78.12-.38.32-.75.48-1.12.03-.07.05-.14.11-.29-.73.08-1.41.17-2.09.24-.52.05-1.04.1-1.56.12-.44,0-.55-.13-.48-.57.04-.27.1-.53.2-.78,1.37-3.56,3.9-5.96,7.39-7.41.03.19.06.37.09.56-.52.04-.93.35-1.37.59-.97.53-1.85,1.19-2.67,1.92-1.18,1.07-2.05,2.36-2.69,3.81-.18.41-.44.81-.42,1.32.13.02.24.05.35.04,1.13-.11,2.26-.23,3.38-.37.12-.01.24-.17.32-.29.35-.51.65-1.05,1.02-1.54.41-.56.84-1.11,1.32-1.6.41-.41.9-.76,1.51-.88-1.95,1.84-3.42,3.99-4.49,6.5.31.11.55.21.81.28,1.35.33,2.71.52,4.1.63.92.08,1.81,0,2.7-.08,1.43-.11,2.81-.55,4.03-1.32.6-.37,1.17-.83,1.66-1.34.66-.68,1.13-1.51,1.47-2.41.29-.79.57-1.6.59-2.46Z" style="fill:#281d1b; stroke-width:0px;"/><path d="m52.94,166.54c.2-.03.4-.07.6-.11.11.16.19.34.33.46.56.5,1.1,1.04,1.71,1.47.82.58,1.66,1.14,2.55,1.59,1.35.69,2.83,1.01,4.33,1.2.41.05.84,0,1.3,0,0-.16.03-.29,0-.38-.19-.44-.39-.89-.6-1.32-.21-.43-.55-.64-1.02-.75-1.04-.23-2.05-.56-2.98-1.09-.2-.12-.44-.2-.59-.53.21.06.33.09.45.13.46.16.9.34,1.36.47.91.26,1.81.53,2.73.75.94.22,1.86.53,2.83.53.5,0,.55-.01.63-.48.14-.93.29-1.87.34-2.81.04-.71-.04-1.43-.1-2.14-.08-.89-.29-1.75-.61-2.58-.41-1.05-1.13-1.86-1.98-2.54-.83-.67-1.76-1.19-2.85-1.34l-.02-.55c1.17.26,2.22.76,3.17,1.49,1.41,1.09,2.24,2.53,2.59,4.27.42,2.09.4,4.19-.06,6.28-.2.92-.35,1.02-1.28.89-.61-.08-1.22-.21-1.83-.31-.11-.02-.21-.02-.39-.04.17.35.32.64.45.94.12.3.24.61.32.93.12.49-.02.71-.54.72-.54.01-1.08-.03-1.62-.1-3.37-.42-6.2-1.94-8.57-4.34-.23-.23-.43-.49-.64-.74Z" style="fill:#281d1b; stroke-width:0px;"/><path d="m32.52,25.58c-.09.19-.24.26-.44.21-.57-2.07-.94-4.18-1.2-6.32-.22-1.79-.3-3.59-.2-5.39.17-3.27.75-6.46,2.3-9.39.41-.78.93-1.52,1.48-2.21.33-.41.78-.76,1.24-1.02.8-.46,1.57-.28,2.08.47.32.47.58,1,.8,1.54.74,1.81,1.42,3.64,2.17,5.44.95,2.29,2.08,4.49,3.33,6.63.07.12.13.24.19.36-.09.02-.19.09-.27.07-.15-.05-.29-.14-.44-.22-.07-.18-.12-.36-.22-.52-1.26-2.22-2.39-4.51-3.36-6.88-.65-1.59-1.24-3.21-1.89-4.8-.18-.45-.4-.88-.67-1.28-.42-.62-.98-.75-1.61-.33-.43.28-.85.63-1.16,1.03-.5.64-.96,1.32-1.33,2.03-1.44,2.78-2.02,5.79-2.2,8.88-.14,2.54.05,5.07.49,7.57.24,1.39.59,2.76.89,4.13Z" style="fill:#5a3515; stroke-width:0px;"/><path d="m88.64,23.87c-.95-.59-1.89-1.21-2.86-1.77-2.95-1.7-6.1-2.9-9.4-3.73-.88-.22-1.77-.4-2.66-.59.37-.7.71-1.41,1.11-2.09,1.91-3.25,4.18-6.23,6.91-8.85,2.46-2.37,5.22-4.3,8.46-5.48,1.31-.48,2.66-.82,4.08-.77.31.01.62.05.91.13.84.22,1.15.74.93,1.56-.12.44-.3.88-.49,1.3-.59,1.24-1.21,2.47-1.81,3.7-2.23,4.62-3.86,9.44-4.8,14.49-.13.7-.25,1.4-.38,2.11Zm.16-11.92c-.03-.83-.36-1.36-.91-1.79-.75-.57-1.58-.96-2.49-1.19-.75-.19-1.35-.14-1.93.13,2.13.26,4.06.81,5.34,2.85Zm-1.51,3.18c-.01-.63-.27-1.13-.71-1.54-.8-.76-1.74-1.27-2.8-1.55-.52-.14-1.04-.1-1.58.03,2.06.44,3.9,1.19,5.09,3.07Zm3.53-7.14c-.05-.64-.19-.98-.57-1.28-.78-.61-1.65-1.01-2.65-1.04-.37-.01-.75.08-1.12.13.8.25,1.59.4,2.35.64.78.25,1.41.77,2,1.54Z" style="fill:#f0bf7c; stroke-width:0px;"/><path d="m142.69,188.49c.1.05.21.09.29.17.98.94,2.19,1.4,3.48,1.69,1.48.32,2.99.32,4.48.21,1.37-.1,2.75-.31,4.01-.95.1-.05.22-.05.33-.08,0,2.38-.4,4.64-1.77,6.66-.78,1.16-1.85,1.9-3.11,2.41-1.26.51-2.58.79-3.94.83-.75.03-1.51.13-2.25.09-1.5-.08-3-.19-4.46-.56-.16-.04-.31-.11-.54-.19,1.06-2.56,2.51-4.79,4.49-6.77-.55.05-.85.35-1.16.62-.99.86-1.68,1.96-2.37,3.06-.16.26-.32.53-.51.84-1.25.15-2.52.31-3.88.48.04-.27.04-.47.1-.66.43-1.32,1.07-2.54,1.93-3.61,1.36-1.7,2.93-3.19,4.87-4.22Z" style="fill:#563e3a; stroke-width:0px;"/><path d="m91.07,34.74c.66-.76,1.26-1.57,1.98-2.27,1.69-1.67,3.66-2.91,5.95-3.61,3.13-.96,6.12-.57,8.98.97,2.06,1.11,3.75,2.66,5.28,4.4,1.82,2.07,3.33,4.37,4.8,6.69.34.54.69,1.07,1.02,1.62,1.88,3.08,4.48,5.41,7.59,7.18.37.21.73.44,1.09.67,1.73,1.08,1.69,3.07.96,4.28-.58.98-1.4,1.69-2.35,2.28-1.47.91-3.09,1.44-4.78,1.72-5.54.92-10.75-.05-15.59-2.89-1.76-1.04-3.42-2.26-5.14-3.38-1.38-.9-2.76-1.79-4.17-2.64-.86-.52-1.81-.88-2.95-1.05.21.13.3.2.41.25,2.56,1.22,4.93,2.76,7.24,4.38.29.2.39.42.37.77-.19,4.85-1.19,9.52-3.08,13.99-1.66,3.94-3.92,7.52-6.92,10.58-.81.83-1.72,1.56-2.58,2.34-.15.14-.3.29-.44.44-.03.02-.06.03-.08.05.03-.02.05-.04.08-.06.82-.25,1.48-.75,2.11-1.3.71-.62,1.37-1.31,2.05-1.97.11-.1.17-.25.25-.38.06.03.11.07.17.1-.03.18-.06.35-.1.53-1.01,4.36-1.52,8.77-1.41,13.24.08,3.3.49,6.56,1.49,9.73,1.39,4.42,3.83,8.1,7.68,10.76,2.38,1.65,5.01,2.65,7.87,3.11,2.74.44,5.44.15,8.12-.41,2.25-.47,4.5-.95,6.76-1.39,2.11-.41,4.25-.64,6.41-.54,4.89.22,8.97,2.16,12.26,5.77,1.47,1.61,2.71,3.38,3.64,5.36.85,1.83,1.28,3.77,1.49,5.76.31,2.92.16,5.84-.07,8.76-.18,2.2-.32,4.4-.45,6.6-.12,1.96.62,3.61,1.95,4.99.8.83,1.68,1.61,2.54,2.38,1.03.92,2.05,1.83,2.89,2.93,1.1,1.44,1.68,3.08,1.87,4.87.2,1.9.08,3.79.01,5.69-.08,2.17.08,4.33.29,6.49.32,3.35.64,6.71.94,10.06.07.77.04,1.55.06,2.32.04,2.07-1,3.43-2.82,4.27-.89.41-1.83.64-2.79.77-1.93.26-3.86.27-5.77-.18-1.23-.29-2.32-.85-3.19-1.79-.58-.63-.93-1.34-.86-2.2.08-1.04.17-2.08.36-3.11.35-1.98.79-3.94,1.15-5.93.41-2.27.45-4.54.06-6.82-.16-.96-.48-1.87-1.07-2.67-.48-.66-1.08-1.17-1.86-1.43-1.32-.43-2.64-.87-3.98-1.26-2.77-.81-5.49-1.74-8.07-3.07-2.4-1.23-4.65-2.71-6.67-4.51-1.77-1.58-3.1-3.5-4.14-5.62-1.33-2.7-2.1-5.57-2.56-8.53-.37-2.42-.51-4.85-.46-7.29,0-.13,0-.27-.08-.43-.05.13-.12.25-.15.38-.26,1.15-.25,2.31-.19,3.47.13,2.36.44,4.7,1.01,7,.81,3.3,2.07,6.41,4.18,9.12.53.69,1.15,1.31,1.74,1.95.12.13.27.22.46.36-.23.18-.37.31-.52.41-2.7,1.94-5.72,3.14-8.95,3.84-2.93.63-5.9.81-8.89.57-1.58-.13-3.15-.37-4.69-.78-.45-.12-.5-.13-.43-.58.08-.57.17-1.15.37-1.69.68-1.89,1.44-3.76,2.11-5.66.99-2.8,1.63-5.69,1.91-8.65.25-2.73.17-5.46-.31-8.16-.1-.57-.3-1.12-.48-1.67-.07-.21-.21-.4-.41-.58.02.11.02.23.05.34.72,3.14.94,6.32.7,9.52-.25,3.24-.96,6.39-2.05,9.45-.56,1.57-1.13,3.13-1.78,4.66-.67,1.58-.71,3.18-.4,4.84.18.95.35,1.9.44,2.87.17,1.66-.25,3.19-1.18,4.57-.28.42-.54.85-.8,1.28-.47.8-.71,1.68-.72,2.6,0,2.46,0,4.92.01,7.37,0,1.57.01,3.14-.02,4.7-.01.6-.12,1.19-.19,1.79-.07.58-.39.99-.84,1.33-.95.72-2.04,1.11-3.18,1.36-2.11.47-4.19.34-6.24-.34-.85-.28-1.64-.68-2.29-1.33-.87-.87-1.24-1.93-1.02-3.13.26-1.42.6-2.84.96-4.24.61-2.36,1.29-4.7,1.71-7.11.29-1.7.46-3.41.19-5.14-.14-.91-.45-1.76-.88-2.57-.24-.46-.48-.93-.63-1.43-.25-.84-.18-1.68.07-2.52.27-.91.54-1.82.74-2.74.23-1.06.08-2.08-.43-3.04-.55-1.04-1.11-2.08-1.69-3.11-1.53-2.68-2.89-5.43-3.88-8.36-.9-2.65-1.56-5.35-1.89-8.13-.29-2.43-.23-4.83.55-7.18.15-.44.3-.87.45-1.31,0,0,.02-.01.02-.01l-.02.02c-.24.29-.53.56-.71.88-.51.89-.66,1.89-.79,2.89-.28,2.21-.09,4.4.28,6.59.92,5.37,2.92,10.33,5.65,15.02.62,1.07,1.18,2.18,1.74,3.28.16.32.3.67.24,1.04-2.18.3-9.48-2.15-13.04-4.35-3.99-2.47-7.21-5.69-9.56-9.77.24,1.12.76,2.11,1.42,3.02,1.29,1.78,2.8,3.36,4.49,4.76.13.11.26.23.43.38-.26.2-.54.16-.79.17-1.3.06-2.59-.08-3.87-.33-1.89-.37-3.75-.91-5.36-1.98-1.54-1.03-3.01-2.17-4.46-3.33-1.26-1.01-2.33-2.21-3.18-3.6-.02-.03-.06-.04-.14-.1-.05.37.07.67.24.93.36.55.72,1.11,1.16,1.59,1.4,1.54,3.03,2.83,4.75,3.98,1.91,1.28,3.27,3.05,4.46,4.97.57.92.67,1.86.24,2.88-1.04,2.48-2.53,4.61-4.63,6.29-.67.53-1.42.94-2.24,1.21-.62.2-1.25.26-1.89.19-.84-.09-1.47-.55-2.02-1.16-.87-.96-1.48-2.09-1.94-3.28-.81-2.09-1.6-4.2-2.3-6.33-1.01-3.05-2.35-5.93-4.14-8.61-.56-.84-1.05-1.72-1.55-2.59-1.46-2.5-1.37-5.01-.04-7.53.96-1.83,2.3-3.33,3.94-4.59,1.28-.98,2.7-1.28,4.26-1.11.92.1,1.85.18,2.77.27,1.32.13,2.58-.13,3.83-.49.43-.12.85-.24,1.35-.38.05.24.1.44.13.64.16,1.08.4,2.13.8,3.14.1.26.24.51.47.73-.05-.22-.08-.44-.14-.65-.69-2.68-1.01-5.4-.91-8.17.08-2.45.47-4.86,1.14-7.21.76-2.68,1.6-5.34,2.41-8,.67-2.23,1.26-4.47,1.61-6.77.41-2.73.4-5.44-.2-8.14-.07-.3-.04-.5.18-.72.81-.8,1.61-1.62,2.39-2.46.22-.23.44-.32.76-.31,3.69.08,7.17-.79,10.51-2.32.99-.45,1.89-1.05,2.64-1.87-4.04,2.32-8.33,3.76-13.16,3.72,1.23-1.74,2.66-3.22,3.19-5.25-.1.15-.21.3-.31.45-.95,1.32-1.88,2.65-2.87,3.94-1.35,1.76-2.96,3.27-4.57,4.78-1.91,1.79-3.96,3.4-6.21,4.76-2.33,1.42-4.8,2.51-7.5,3.01-2.24.42-4.46.36-6.67-.27-2.81-.81-4.74-2.6-5.88-5.27-.68-1.58-1.05-3.23-1.38-4.91-.15-.76-.28-1.52-.42-2.32,1.15-.41,1.99-1.14,2.65-2.3.05.28.09.42.1.55.26,2.3.69,4.55,1.63,6.68.41.93.92,1.79,1.58,2.56,1.5,1.74,3.41,2.47,5.68,2.34,2.63-.15,4.83-1.28,6.75-3.01,1.82-1.64,3.19-3.63,4.32-5.79,1.07-2.03,1.9-4.15,2.46-6.38.03-.13.06-.27.12-.39.47-.8.95-1.6,1.42-2.39.02-.03.06-.04.13-.08.58.36.61.98.74,1.57.18-.75.11-1.47-.46-2.02-.74-.73-1.66-.84-2.74-.55.69.22,1.37.18,1.93.59,0,.06,0,.14-.03.2-1.12,2.22-2.53,4.21-4.56,5.71-1.81,1.34-3.87,2.1-6.07,2.49-3.21.57-6.32.27-9.33-1.01-1.02-.43-1.96-.99-2.84-1.67-.65-.5-1-1.17-1.22-1.92.67-.2,1.21-.59,1.7-1.07.25-.24.51-.47.77-.7.71-.62,1.52-1.06,2.44-1.27.32-.07.64-.14.95-.24.44-.13.9-.25,1.31-.45.85-.4,1.18-1.14.96-2.06-.16-.66-.59-1.12-1.11-1.51-.69-.52-1.47-.85-2.29-1.09-3.07-.89-6.17-.88-9.3-.38-.22.04-.44.04-.67.06.07-.17.11-.36.21-.5.82-1.2,1.64-2.39,2.49-3.57,1.3-1.83,2.62-3.65,3.66-5.64,1.01-1.93,1.8-3.94,1.94-6.15.09-1.4-.11-2.74-.86-3.96-.21-.34-.41-.7-.82-.87-.03,0-.06,0-.08-.01.03,0,.06,0,.09,0,.08.2.14.42.24.61.53.93.87,1.91.93,2.98,0,.14.09.32-.14.37-.61-1.87-1.75-3.33-3.4-4.4-3.05-1.97-6.72-.64-8.27,1.12-1.31,1.5-1.99,3.28-2,5.25-.02,3.11,1.47,5.36,4.15,6.86-.1.05-.19.12-.29.14-.4.08-.8.12-1.2.21-1.15.25-2.22.68-3.11,1.48-.22.2-.52.35-.5.72-.02.01-.04.02-.07.03.01,0,.03,0,.03,0,.01-.01.02-.03.03-.04.76-.5,1.51-1.01,2.37-1.33,2.52-.93,4.99-.93,7.38.43.19.11.37.26.57.4-.13.19-.21.34-.31.48-.84,1.18-1.69,2.36-2.51,3.56-.48.7-.91,1.43-1.37,2.15-.49.33-1.04.61-1.47,1.01-.72.68-.83,1.63-.4,2.49-.24,1-.49,1.99-.7,2.99-.09.43-.09.88-.13,1.36-.06,0-.14,0-.19-.02-2.47-1.32-4.56-3.05-6.01-5.49-1.19-1.99-1.6-4.17-1.57-6.46.02-2.13.62-4.12,1.39-6.08.53-1.35,1.03-2.71,1.45-4.1.47-1.57.53-3.2.38-4.84-.16-1.7-.35-3.39-.49-5.09-.3-3.62.02-7.19,1.01-10.7,1.13-4.02,2.88-7.71,5.47-11,2.49-3.16,5.51-5.7,8.99-7.69,1.38-.78,2.83-1.44,4.24-2.15.12-.06.25-.1.38-.15.46.73.91,1.44,1.4,2.2-.22.05-.4.1-.58.14-1.95.41-3.8,1.04-5.47,2.17-1.6,1.08-2.78,2.51-3.64,4.22-.03.06-.05.13-.08.21.45,0,.87,0,1.29,0,2.26-.04,4.38.47,6.29,1.72,1.42.93,2.53,2.15,3.27,3.69.06.13.13.27.2.4.04-.01.08-.03.11-.04-.14-.41-.24-.84-.42-1.24-.72-1.6-1.96-2.72-3.46-3.56-1.85-1.05-3.85-1.48-5.96-1.44-.15,0-.31,0-.52,0,.09-.17.14-.31.22-.44,1.27-2.11,3.11-3.51,5.38-4.4,1.12-.44,2.29-.72,3.47-.94.33-.06.55.06.78.25,1.37,1.12,2.82,2.11,4.46,2.8.75.32,1.53.54,2.48.67-.19-.11-.27-.17-.35-.2-.09-.04-.18-.07-.27-.1-2.28-.91-4.38-2.13-6.25-3.73-.94-.8-1.52-1.84-2.04-2.93-1.11-2.33-1.51-5-1.09-7.36.14.09.26.16.37.25,2.22,1.88,4.76,3.09,7.64,3.55,1.19.19,2.39.25,3.59.09.34-.05.58.04.83.27,1.2,1.08,2.49,2.03,4.06,2.53.24.07.48.14.75.13-.51-.29-1.03-.56-1.54-.86-1.04-.6-2-1.32-2.91-2.11-.58-.5-1.03-1.09-1.4-1.76-1.28-2.34-1.98-5.99-1.54-8.67.08.09.15.14.18.21.83,2.42,2.42,4.26,4.42,5.77,2.79,2.09,5.91,3.44,9.34,4.06.57.1,1.15.13,1.73.15,5.07.1,10.02.88,14.8,2.59,4.9,1.76,9.24,4.41,12.86,8.2.65.68,1.25,1.41,1.9,2.15-.48.38-.9.71-1.32,1.05-.77.63-1.47,1.33-1.98,2.19-.21.36-.32.77-.48,1.16,0,0-.01.01-.01.01h.01Zm-18.35,39.27c-.36-.82-.98-1.42-1.67-1.96-1.22-.94-2.6-1.57-4.08-1.99.17-.12.34-.24.52-.36,2.9-1.98,4.11-4.74,3.74-8.19-.18-1.74-.84-3.3-2.02-4.6-2.33-2.56-6.5-3.33-9.61-1.8-1.79.88-3.05,2.29-3.95,4.03-1.35,2.61-1.94,5.41-1.96,8.33,0,.59.12,1.19.22,1.78.07.43.34.73.75.89,1.1.45,2.25.65,3.41.85-.33.23-.67.45-.99.69-.84.63-1.64,1.3-2.14,2.26-.24.45-.27.59-.26.9.55-.64,1.1-1.38,1.75-2,1.8-1.71,3.98-2.58,6.44-2.72,3.32-.2,6.27.75,8.75,3.01.34.31.65.66.98.98.11.16.22.32.33.47.03-.02.06-.04.09-.06-.1-.18-.21-.36-.31-.54Zm-50.66-23.37c.08-.1.17-.2.24-.31,1.73-2.86,4.31-4.02,7.59-3.77.26.02.53.04.79.06-.07-1.57-1.11-2.51-2.61-2.39-.98.07-1.9.38-2.7.96-1.86,1.35-2.82,3.27-3.3,5.47,0,.02-.02.04-.03.06,0-.02.02-.05.03-.07Zm52.77,1.04c-.66-2.08-1.68-3.94-3.22-5.5-1-1.01-2.18-1.73-3.56-2.09-.93-.24-1.87-.33-2.81-.05-1.24.37-2,1.23-2.49,2.48.17-.02.24-.03.31-.04,1.18-.25,2.35-.18,3.51.08,3.36.74,6.12,2.42,8.13,5.26.08.14.16.27.23.41.04-.02.07-.03.11-.05-.07-.16-.14-.33-.21-.49Zm17.4-10.78l-.03-.03.03.02c.15.14.27.34.45.42.55.27,1.11.56,1.7.73.95.27,1.94.44,2.92.36,1.02-.08,1.85.26,2.64.82.33.23.67.46.99.71,1.36,1.08,2.46,2.4,3.5,3.78,1.12,1.48,2.18,3.01,3.38,4.42,2.1,2.48,4.72,4.22,7.89,5.06,2.53.67,5.07.85,7.61.07,1.44-.44,2.77-1.1,3.85-2.17.46-.46.82-.98.97-1.62.19-.83-.09-1.42-.9-1.7-.43-.15-.9-.25-1.35-.3-1.54-.17-3.08-.26-4.62-.48-3.12-.44-5.9-1.7-8.29-3.76-1.16-1-2.27-2.05-3.41-3.07-1.42-1.27-3.04-2.12-4.93-2.43-1.52-.25-3.05-.2-4.57.03-1.92.28-3.82.26-5.7-.21-.73-.18-1.44-.44-2.15-.67Zm-20.62,18.13c.02-.1.05-.2.05-.31.06-.94-.19-1.79-.68-2.6-1.75-2.92-5.29-3.83-7.66-3.46-.59.09-1.17.25-1.69.81,2.26-.68,4.35-.55,6.35.49,2.05,1.06,3.15,2.82,3.62,5.06Zm-48.41.23c.39-1.98,1.39-3.42,3.17-4.25,1.7-.8,3.47-.85,5.36-.28-.48-.43-.76-.59-1.31-.7-2.08-.39-3.96.08-5.6,1.41-.86.7-1.5,1.56-1.74,2.67-.08.36-.13.72.13,1.15Z" style="fill:#efe4d3; stroke-width:0px;"/><path d="m122.18,157.78c.38.29.71.59,1.08.83,1.22.83,2.44,1.64,3.66,2.46.17.12.36.25.46.42.58.93,1.3,1.73,2.03,2.54.35.39.69.79,1,1.21.59.79.68,1.66.42,2.59-.33,1.17-.93,2.21-1.56,3.23-.83,1.35-1.7,2.68-2.5,4.05-.85,1.44-1.38,3.02-1.89,4.61-.3.94-.61,1.88-.93,2.81-.39,1.13-1.2,1.82-2.3,2.22-1.41.51-2.86.68-4.34.59-1.69-.1-3.34-.42-4.92-1.04-.57-.22-1.14-.5-1.65-.84-.82-.55-.99-1.08-.63-2,.24-.61.54-1.2.9-1.75.66-1.02,1.39-2.01,2.09-3,1.22-1.73,2.35-3.5,3.14-5.48.12-.3.23-.61.37-1,.48.13.95.26,1.5.42-.41-.53-.91-.76-1.48-.88-1.63-.35-3.22-.85-4.76-1.48-2.72-1.11-5.28-2.51-7.46-4.52-.32-.3-.62-.62-.9-.99,3.32.18,6.57-.07,9.78-.86,3.23-.79,6.22-2.1,8.89-4.12Z" style="fill:#eee3d2; stroke-width:0px;"/><path d="m19.9,49.94c0,.71-.01,1.43,0,2.14,0,.28-.16.42-.32.58-1.41,1.34-2.98,2.46-4.73,3.33-2.98,1.48-6.11,2.3-9.46,2.12-.97-.05-1.92-.23-2.82-.61-.23-.1-.46-.21-.67-.34-1.23-.73-1.63-1.71-1.12-3.05.24-.64.6-1.26,1.01-1.81.91-1.23,1.89-2.4,2.82-3.61,2.08-2.7,3.74-5.64,5.12-8.75.9-2.03,1.85-4.05,3-5.96.72-1.18,1.51-2.29,2.49-3.27,2.04-2.04,4.45-2.79,7.27-2.09,1.59.39,3.07,1.05,4.47,1.89.05.03.08.08.17.17-2.46,2.95-4.27,6.28-5.52,9.94-.52-.07-.99-.15-1.47-.2-1.75-.2-3.23.33-4.29,1.76-.66.88-1.24,1.83-1.77,2.79-1.16,2.09-2.5,4.05-4.09,5.84-.99,1.13-2.15,2.05-3.44,2.83-1.09.66-2.29.78-3.51.88-.2.02-.41.02-.62.11.2.04.4.1.6.12.79.06,1.59.05,2.36-.16.46-.12.91-.1,1.37-.02,3.64.59,7.05.03,10.16-2.02.99-.66,1.84-1.48,2.61-2.38.07-.08.15-.16.22-.25l.12.04Z" style="fill:#eee3d2; stroke-width:0px;"/><path d="m155.83,102.57c.69.89,1.04,1.83,1.22,2.82.61,3.55-.22,6.8-2.15,9.8-.13.21-.27.41-.36.65.48-.32.79-.79,1.1-1.26.31-.49.6-.99.86-1.51.26-.51.46-1.05.73-1.68.48,1.87.45,3.59-.22,5.28-.59,1.49-1.55,2.73-2.76,3.75-.87.72-1.93,1.04-3.02,1.26-.24.05-.49.1-.72.17,1.2.1,2.35-.12,3.54-.68-.03.35-.02.63-.08.9-.33,1.53-1.32,2.5-2.72,3.09-1.27.54-2.61.67-4.02.6-1.4-3.95-3.85-7.15-7.14-9.84.33-.05.6-.1.87-.14,5.71-.77,9.93-3.75,12.84-8.67.71-1.2,1.27-2.48,1.75-3.79.08-.22.17-.43.29-.74Zm-1.46,13.52s.05-.03.07-.05c-.02,0-.04-.02-.06-.03,0,.03,0,.06,0,.09-.02.02-.04.05-.07.07.02-.03.04-.05.06-.08Z" style="fill:#eee3d2; stroke-width:0px;"/><path d="m32.52,25.58c-.3-1.38-.65-2.75-.89-4.13-.44-2.5-.63-5.03-.49-7.57.17-3.1.76-6.1,2.2-8.88.37-.72.83-1.4,1.33-2.03.31-.4.73-.75,1.16-1.03.63-.41,1.18-.29,1.61.33.27.4.49.83.67,1.28.64,1.6,1.24,3.21,1.89,4.8.96,2.37,2.1,4.65,3.36,6.88.09.16.15.35.22.52-1.48-.75-2.8-1.72-4.08-2.96-.09.47-.16.82-.22,1.17-.62-.28-1.27-.29-1.92-.11-1.19.33-2.3.79-3.08,1.81-.11.14-.16.33-.23.5-.02.03-.04.06-.06.09.02-.03.04-.06.06-.08.14-.1.29-.18.42-.29.64-.51,1.32-.95,2.08-1.26.87-.36,1.77-.54,2.72-.36-.03.73-.07,1.46-.1,2.19,0,.21-.01.42-.02.63-1.8.16-3.5,1.12-3.86,2.22.24-.17.45-.33.68-.48,1.01-.67,2.08-1.19,3.31-1.28.22,1.25.58,2.47,1.09,3.69-.36.17-.69.33-1.02.47-2.26,1-4.41,2.22-6.42,3.66-.12.09-.26.16-.39.24Zm1.16-13.73c.18-.14.37-.27.55-.41,1.08-.88,2.26-1.46,3.71-1.33.02,0,.05-.03.11-.08-.35-.27-.73-.42-1.13-.36-1.22.17-2.3.63-3.05,1.67-.1.14-.13.34-.19.51-.02.03-.04.05-.06.08.02-.03.04-.06.05-.08Z" style="fill:#efbf7c; stroke-width:0px;"/><path d="m94.78,190.46c-.12.74-.18,1.49-.37,2.21-.32,1.22-.78,2.39-1.59,3.38-.84,1.01-1.8,1.84-3.07,2.29-1.56.56-3.16.79-4.81.87-.99.05-1.96-.02-2.94-.06-1.07-.05-2.13-.29-3.19-.45-.24-.04-.34-.19-.25-.42.1-.27.21-.54.34-.8.97-1.81,2.08-3.52,3.61-4.92.13-.12.29-.19.4-.34-.3-.19-.49-.06-.67.06-.78.52-1.4,1.22-1.94,1.97-.36.5-.7,1.02-1.02,1.54-.22.36-.47.61-.94.65-.94.07-1.87.2-2.81.3-.13.01-.27-.01-.48-.02.02-.22,0-.43.08-.6.6-1.57,1.46-2.97,2.65-4.17,1.02-1.04,2.1-1.99,3.35-2.74.24-.15.52-.24.78-.36.23.25.47.5.69.76.8.93,1.86,1.42,3,1.77,1.47.44,2.99.61,4.51.48,1.29-.11,2.55-.39,3.72-.96.31-.15.63-.28.95-.43Z" style="fill:#563e3a; stroke-width:0px;"/><path d="m121.15,185.47c-.02.86-.3,1.67-.59,2.46-.33.89-.81,1.72-1.47,2.41-.49.51-1.06.96-1.66,1.34-1.23.77-2.6,1.21-4.03,1.32-.89.07-1.79.15-2.7.08-1.39-.12-2.75-.3-4.1-.63-.26-.06-.5-.17-.81-.28,1.08-2.5,2.55-4.66,4.49-6.5-.61.13-1.1.47-1.51.88-.49.49-.91,1.05-1.32,1.6-.37.5-.67,1.03-1.02,1.54-.08.12-.2.27-.32.29-1.13.14-2.25.25-3.38.37-.11.01-.22-.03-.35-.04-.02-.51.24-.91.42-1.32.63-1.45,1.51-2.74,2.69-3.81.82-.74,1.7-1.39,2.67-1.92.44-.24.84-.55,1.37-.59.14.54.55.87.97,1.18.86.64,1.87.97,2.88,1.28,1.12.34,2.27.57,3.44.66.86.07,1.73,0,2.59-.07.59-.04,1.17-.16,1.76-.24Z" style="fill:#563e3a; stroke-width:0px;"/><path d="m61.35,157.1c1.09.15,2.02.67,2.85,1.34.84.68,1.57,1.49,1.98,2.54.33.83.54,1.69.61,2.58.06.71.14,1.43.1,2.14-.05.94-.19,1.87-.34,2.81-.07.47-.13.48-.63.48-.98,0-1.9-.31-2.83-.53-.92-.21-1.83-.48-2.73-.75-.46-.13-.91-.32-1.36-.47-.12-.04-.24-.07-.45-.13.15.33.38.42.59.53.93.53,1.95.86,2.98,1.09.47.11.82.32,1.02.75.21.43.41.88.6,1.32.04.09,0,.22,0,.38-.46,0-.88.05-1.3,0-1.5-.2-2.97-.52-4.33-1.2-.89-.45-1.73-1.01-2.55-1.59-.61-.43-1.15-.97-1.71-1.47-.14-.12-.22-.31-.33-.46,1.47-.41,2.66-1.24,3.75-2.29,1.55-1.5,2.71-3.25,3.58-5.21.25-.57.33-1.22.49-1.83Z" style="fill:#563e3a; stroke-width:0px;"/><path d="m21.41,41.16c-.21.77-.43,1.49-.61,2.22-.43,1.71-.73,3.44-.84,5.2-.01.19-.11.41-.23.57-2.14,2.89-5,4.55-8.55,5.03-1.33.18-2.66.13-3.99-.03-.07,0-.14-.05-.26-.09.12-.11.19-.2.27-.25,1.93-1.19,3.4-2.85,4.75-4.63,1.23-1.61,2.18-3.38,3.2-5.11.34-.58.72-1.15,1.14-1.68.77-.98,1.78-1.53,3.06-1.51.67.01,1.35-.01,2.06.29Z" style="fill:#f8a4a4; stroke-width:0px;"/><path d="m36.58,94.85c-.18-.44-.39-.87-.53-1.33-.44-1.4-.66-2.85-.84-4.31-.03-.26,0-.53,0-.86.15.08.27.14.37.21,1.8,1.3,3.82,2.1,5.99,2.5,1.58.29,3.17.36,4.78.19,1.49-.16,2.93-.46,4.33-.98,1.51-.57,2.91-1.35,4.12-2.43.54-.49,1.06-1,1.6-1.52.01.04.05.09.04.13-.73,2.39-1.73,4.67-3.05,6.8-.05.08-.12.15-.18.22-.41-.08-.83-.21-1.24-.24-1.87-.14-3.69.17-5.47.74-1.09.34-2.13.79-3.11,1.35-.35-.23-.66-.46-.99-.64-1.32-.69-2.72-.81-4.16-.47-.58.13-1.17.25-1.65.65Z" style="fill:#820101; stroke-width:0px;"/><path d="m52.94,93.81c-.34.49-.64,1-1.01,1.47-1.38,1.76-3.01,3.22-5.08,4.13-1.46.64-3,.92-4.58.74-1.92-.22-3.39-1.24-4.46-2.82-.43-.64-.74-1.35-1.1-2.04,2.13-1.28,5.04-.9,6.17.37-.4.39-.85.75-.99,1.34.26-.16.49-.35.72-.54,1.08-.88,2.31-1.47,3.62-1.91,1.58-.54,3.19-.92,4.87-.89.62.01,1.23.1,1.84.15Z" style="fill:#fea3a3; stroke-width:0px;"/><path d="m33.78,86.02c.2.46.38.93.6,1.38.09.19.11.34.03.54-.68,1.64-2.12,2.61-3.89,2.62-2.02,0-3.46-.89-4.09-2.63-.2-.56-.33-1.16-.38-1.75-.12-1.54.15-3.04.67-4.5.71.54,1.5.95,2.31,1.32.8.36,1.51.87,2.14,1.48.25.24.5.49.75.72.53.49,1.13.8,1.87.82Z" style="fill:#eee3d2; stroke-width:0px;"/><path d="m33.78,86.02c-.73-.02-1.34-.33-1.87-.82-.25-.24-.5-.48-.75-.72-.63-.61-1.33-1.12-2.14-1.48-.81-.36-1.6-.77-2.31-1.32-.12-.18-.25-.37-.37-.55-.43-.87-.32-1.81.4-2.49.43-.4.97-.68,1.47-1.01.23-.07.47-.14.7-.22.05-.04.09-.08.14-.12h0c.22,0,.45-.02.67-.05,3.12-.5,6.23-.51,9.3.38.82.24,1.6.58,2.29,1.09.52.39.96.85,1.11,1.51.22.92-.11,1.66-.96,2.06-.42.19-.87.31-1.31.45-.31.1-.63.17-.95.24-.93.21-1.73.64-2.44,1.27-.26.23-.52.46-.77.7-.49.47-1.03.87-1.7,1.07-.16,0-.33.01-.49.02Zm1.95-1.58c.25-.2.41-.3.54-.43.9-.84,1.97-1.34,3.17-1.61.54-.12,1.09-.26,1.61-.46,1.03-.4,1.29-1.4.58-2.24-.3-.36-.7-.67-1.11-.92-.88-.55-1.87-.82-2.88-1.03-1.93-.42-3.88-.43-5.83-.32-1.16.07-2.32.2-3.4.67-.44.19-.88.43-1.22.75-.91.83-.85,1.96.14,2.67.48.35,1.02.62,1.56.88.75.36,1.49.75,2.12,1.3.09.08.2.12.38.22-.46-2.06-1.54-3.28-3.73-3.31.47-.37.75-.45,1.22-.33,1.25.33,2.1,1.12,2.58,2.3.22.54.36,1.1.52,1.66.2.71.72,1.09,1.4,1.25.9.22,1.52-.14,1.79-1.02.11-.35.16-.72.26-1.07.16-.54.28-1.09.53-1.59.49-.99,1.34-1.53,2.42-1.68.51-.07.98.08,1.48.48-.19,0-.24,0-.3,0-.08-.01-.15-.04-.23-.05-1.07-.09-2,.19-2.69,1.04-.63.78-.74,1.75-.92,2.82Z" style="fill:#6c1c1c; stroke-width:0px;"/><path d="m52.94,93.81c-.61-.05-1.23-.14-1.84-.15-1.68-.04-3.29.35-4.87.89-1.3.44-2.54,1.04-3.62,1.91-.23.19-.46.38-.72.54.14-.59.59-.95.99-1.34-1.12-1.26-4.04-1.64-6.17-.37-.04-.15-.08-.3-.12-.44.48-.4,1.07-.51,1.65-.65,1.44-.34,2.84-.22,4.16.47.34.18.65.41.99.64.98-.57,2.02-1.01,3.11-1.35,1.78-.57,3.6-.87,5.47-.74.42.03.83.16,1.24.24-.09.12-.18.24-.27.36Z" style="fill:#af4c4c; stroke-width:0px;"/><path d="m39.25,14.24c-.95-.18-1.85,0-2.72.36-.76.31-1.44.75-2.08,1.26-.13.11-.28.19-.42.29h0c.08-.17.13-.36.24-.51.78-1.02,1.89-1.48,3.08-1.81.65-.18,1.29-.17,1.92.11,0,.1,0,.19,0,.29Z" style="fill:#5a3515; stroke-width:0px;"/><path d="m39.26,17.53c-1.23.09-2.3.61-3.31,1.28-.22.15-.44.31-.68.48.36-1.1,2.06-2.06,3.86-2.22.04.15.08.31.13.46Z" style="fill:#5a3515; stroke-width:0px;"/><path d="m58.71,152.41s-.03-.08-.04-.13c.04.02.08.03.13.05-.03.03-.06.05-.09.08Z" style="fill:#fff; stroke-width:0px;"/><path d="m128.39,162.06s-.03-.09-.05-.13c.06,0,.12.02.18.03-.04.04-.09.07-.13.11Z" style="fill:#fff; stroke-width:0px;"/><path d="m88.8,11.95c-1.28-2.04-3.21-2.59-5.34-2.85.58-.26,1.19-.31,1.93-.13.91.23,1.74.62,2.49,1.19.55.42.88.96.91,1.79Z" style="fill:#5a3515; stroke-width:0px;"/><path d="m87.3,15.12c-1.19-1.88-3.03-2.63-5.09-3.07.54-.13,1.06-.16,1.58-.03,1.06.28,2,.79,2.8,1.55.43.41.69.91.71,1.54Z" style="fill:#5a3515; stroke-width:0px;"/><path d="m90.82,7.98c-.58-.77-1.21-1.29-2-1.54-.76-.25-1.56-.39-2.35-.64.37-.05.75-.14,1.12-.13,1,.03,1.87.43,2.65,1.04.38.3.52.64.57,1.28Z" style="fill:#5a3515; stroke-width:0px;"/><path d="m92.23,40.91c.72.23,1.43.49,2.15.67,1.88.47,3.79.49,5.7.21,1.52-.22,3.04-.28,4.57-.03,1.89.31,3.52,1.15,4.93,2.43,1.14,1.02,2.25,2.07,3.41,3.07,2.39,2.06,5.16,3.32,8.29,3.76,1.53.21,3.08.3,4.62.48.46.05.92.14,1.35.3.8.28,1.09.87.9,1.7-.15.65-.51,1.17-.97,1.62-1.08,1.08-2.41,1.74-3.85,2.17-2.54.77-5.08.6-7.61-.07-3.18-.84-5.79-2.58-7.89-5.06-1.2-1.41-2.27-2.94-3.38-4.42-1.04-1.38-2.14-2.7-3.5-3.78-.32-.25-.66-.48-.99-.71-.79-.56-1.63-.9-2.64-.82-.99.08-1.98-.08-2.92-.36-.59-.17-1.14-.46-1.7-.73-.18-.09-.3-.28-.45-.42h0Zm7.4,1.41c0,.06-.01.09,0,.1.04.04.08.09.13.12,1.97,1.2,3.5,2.84,4.88,4.66,1.21,1.59,2.27,3.28,3.62,4.76,1.08,1.18,2.25,2.24,3.61,3.08,1.94,1.21,4.06,1.88,6.31,2.17,2.55.32,4.97-.04,7.23-1.33.8-.45,1.53-1,2.01-1.81.67-1.14.36-1.79-.86-2-.7-.12-1.42-.17-2.13-.24-1.19-.13-2.39-.2-3.57-.39-3.42-.57-6.37-2.1-8.89-4.46-.83-.78-1.68-1.55-2.53-2.31-.68-.6-1.4-1.16-2.22-1.58-1.09-.55-2.24-.83-3.44-.96-1.39-.15-2.76.02-4.13.19Z" style="fill:#736355; stroke-width:0px;"/><path d="m58.07,71.01c-1.16-.2-2.31-.4-3.41-.85-.41-.17-.68-.46-.75-.89-.1-.59-.22-1.19-.22-1.78.02-2.92.61-5.72,1.96-8.33.9-1.74,2.16-3.15,3.95-4.03,3.12-1.53,7.28-.76,9.61,1.8,1.18,1.3,1.84,2.86,2.02,4.6.36,3.46-.85,6.22-3.74,8.19-.17.12-.34.24-.52.36-.21-.04-.42-.09-.64-.13.09-.18.44-.14.38-.45.15.1.21.05.19-.12,0,0-.01.01-.01.01.11-.02.24,0,.33-.06.94-.59,1.69-1.35,2.22-2.32.98-1.81,1.41-3.73,1.03-5.77-.44-2.36-1.69-4.16-3.89-5.24-.92-.45-1.89-.68-2.9-.75-2.29-.16-4.33.41-5.97,2.1-.87.9-1.54,1.93-2.08,3.06-1.02,2.15-1.47,4.43-1.51,6.8,0,.54.05,1.08.12,1.62.05.41.19.78.64.95,1.25.48,2.56.66,3.87.87-.24.12-.47.24-.71.36Z" style="fill:#0d0d0c; stroke-width:0px;"/><path d="m74.71,51.82c-2.01-2.84-4.76-4.52-8.13-5.26-1.16-.25-2.33-.32-3.51-.08-.07.01-.14.02-.31.04.49-1.25,1.25-2.11,2.49-2.48.93-.28,1.88-.19,2.81.05,1.38.36,2.56,1.08,3.56,2.09,1.54,1.56,2.56,3.43,3.22,5.5-.04.04-.09.09-.13.13Z" style="fill:#373636; stroke-width:0px;"/><path d="m27.17,69.39c-2.68-1.5-4.17-3.75-4.15-6.86.01-1.97.69-3.75,2-5.25,1.55-1.77,5.22-3.09,8.27-1.12,1.65,1.07,2.79,2.53,3.4,4.4.01.11-.02.25.04.33.17.26.2.52.12.82-.05.18-.03.38-.05.57-.07-.1-.17-.2-.22-.31-.1-.26-.16-.53-.24-.8-.69-2.68-2.84-4.68-5.57-4.96-2.31-.24-4.34.45-5.76,2.41-2.59,3.58-1.49,8.94,3.07,10.69.14.05.28.13.42.19-.45.01-.91.11-1.34-.1Z" style="fill:#0d0d0c; stroke-width:0px;"/><path d="m27.17,69.39c.43.2.89.11,1.34.1.95.2,1.9.4,2.86.61.14.39.52.43.83.58.09.07.16.16.26.22.26.16.27.15.39-.21.1-.14.21-.27.31-.41.14-.2.28-.39.43-.59.26-.45.53-.9.79-1.36.73-1.02,1.22-2.16,1.65-3.33.15-.4.14-.78.01-1.18-.1-.31-.19-.62-.28-.93.1-.01.22-.06.3-.02.17.08.32.2.53.34.08-.34.15-.63.22-.93.01-.19,0-.39.05-.57.08-.3.05-.56-.12-.82-.05-.08-.03-.22-.04-.33.22-.06.15-.24.14-.37-.07-1.07-.4-2.06-.93-2.98-.11-.19-.16-.4-.24-.61h0c.4.17.61.53.82.88.75,1.22.96,2.56.86,3.96-.15,2.21-.93,4.22-1.94,6.15-1.04,1.99-2.36,3.81-3.66,5.64-.84,1.18-1.66,2.38-2.49,3.57-.1.15-.14.33-.21.5,0,0,0-.01,0-.01-.05.04-.09.08-.14.12-.23.07-.47.14-.7.22.45-.72.89-1.45,1.37-2.15.82-1.2,1.67-2.37,2.51-3.56.1-.14.19-.29.31-.48-.2-.14-.38-.29-.57-.4-2.39-1.35-4.86-1.35-7.38-.43-.86.32-1.61.82-2.37,1.33h0c-.02-.36.29-.52.5-.71.89-.8,1.95-1.23,3.11-1.48.4-.09.8-.13,1.2-.21.1-.02.19-.09.29-.14Z" style="fill:#6f6253; stroke-width:0px;"/><path d="m22.06,50.66c.48-2.2,1.44-4.11,3.31-5.47.8-.58,1.71-.88,2.7-.96,1.51-.11,2.54.82,2.61,2.39-.27-.02-.53-.04-.79-.06-3.28-.25-5.85.91-7.59,3.77-.07.11-.16.21-.24.31h0Z" style="fill:#373636; stroke-width:0px;"/><path d="m58.07,71.01c.24-.12.47-.24.71-.36.31-.11.63-.23.94-.34.19-.08.39-.15.58-.23.08,0,.16,0,.23-.01.72-.17,1.43-.38,2.19-.36.08,0,.17-.12.25-.18.27-.01.54-.02.8-.03.6.24,1.22.23,1.85.23.24.07.48.15.72.22.21.04.42.09.64.13,1.48.41,2.86,1.04,4.08,1.99.69.53,1.31,1.14,1.67,1.96-.04.04-.08.08-.12.13-.33-.33-.64-.67-.98-.98-2.49-2.25-5.43-3.21-8.75-3.01-2.46.15-4.64,1.02-6.44,2.72-.65.62-1.2,1.36-1.75,2,0-.32.02-.45.26-.9.5-.95,1.3-1.63,2.14-2.26.32-.24.66-.46.99-.69Z" style="fill:#6f6253; stroke-width:0px;"/><path d="m71.61,59.04c-.47-2.24-1.57-4-3.62-5.06-2-1.04-4.09-1.16-6.35-.49.52-.57,1.11-.72,1.69-.81,2.36-.38,5.9.54,7.66,3.46.48.8.73,1.66.68,2.6,0,.1-.03.2-.05.31Z" style="fill:#736657; stroke-width:0px;"/><path d="m23.2,59.27c-.26-.43-.21-.79-.13-1.15.24-1.11.88-1.97,1.74-2.67,1.64-1.33,3.52-1.8,5.6-1.41.55.1.83.27,1.31.7-1.89-.57-3.66-.52-5.36.28-1.77.83-2.78,2.28-3.17,4.25Z" style="fill:#736657; stroke-width:0px;"/><path d="m72.61,74.14s.08-.08.12-.13c.1.18.21.36.31.54-.03.02-.06.04-.09.06-.11-.16-.22-.32-.33-.47Z" style="fill:#736657; stroke-width:0px;"/><path d="m74.71,51.82s.09-.09.13-.13c.07.16.14.33.21.49-.04.02-.07.03-.11.05-.08-.14-.16-.27-.23-.41Z" style="fill:#736657; stroke-width:0px;"/><path d="m88.75,81.46s-.05.04-.08.06c.03-.02.06-.03.08-.05,0,0,0,0,0,0Z" style="fill:#736657; stroke-width:0px;"/><path d="m22.06,50.65s-.02.05-.03.07c0-.02.02-.04.03-.06,0,0,0,0,0,0Z" style="fill:#373636; stroke-width:0px;"/><path d="m22.07,71.93s-.02.03-.03.04c0,0-.02,0-.03,0,.02-.01.04-.02.07-.03,0,0,0,0,0,0Z" style="fill:#6f6253; stroke-width:0px;"/><polygon points="92.24 40.9 92.2 40.88 92.23 40.91 92.24 40.9" style="fill:#736355; stroke-width:0px;"/><polygon points="91.07 34.74 91.06 34.76 91.07 34.75 91.07 34.74" style="fill:#736657; stroke-width:0px;"/><polygon points="77.36 129.46 77.38 129.44 77.36 129.46 77.36 129.46" style="fill:#736657; stroke-width:0px;"/><path d="m35.67,56.59s-.06,0-.09,0c.03,0,.06,0,.08.01,0,0,0,0,0,0Z" style="fill:#6f6253; stroke-width:0px;"/><path d="m154.38,116.1s0-.06,0-.09c.02,0,.04.02.06.03-.02.02-.05.03-.07.05h0Z" style="fill:#736657; stroke-width:0px;"/><path d="m154.37,116.09s-.04.05-.06.08c.02-.02.04-.05.07-.07,0,0,0-.01,0-.01Z" style="fill:#736657; stroke-width:0px;"/><path d="m33.69,11.86c.06-.17.09-.37.19-.52.74-1.05,1.83-1.5,3.05-1.67.4-.06.78.09,1.13.36-.06.05-.09.08-.11.08-1.44-.13-2.63.46-3.71,1.33-.18.14-.36.27-.55.41h0Z" style="fill:#5a3515; stroke-width:0px;"/><path d="m33.68,11.85s-.04.06-.05.08c.02-.03.04-.05.06-.08,0,0,0,0,0,0Z" style="fill:#5a3515; stroke-width:0px;"/><path d="m34.04,16.15s-.04.06-.06.08c.02-.03.04-.06.06-.09,0,0,0,0,0,0Z" style="fill:#5a3515; stroke-width:0px;"/><path d="m35.73,84.44c.18-1.08.28-2.04.92-2.82.69-.86,1.63-1.13,2.69-1.04.08,0,.15.04.23.05.06,0,.11,0,.3,0-.5-.4-.96-.55-1.48-.48-1.09.15-1.93.69-2.42,1.68-.25.49-.37,1.05-.53,1.59-.1.35-.15.72-.26,1.07-.27.88-.89,1.23-1.79,1.02-.68-.16-1.19-.54-1.4-1.25-.16-.56-.3-1.12-.52-1.66-.48-1.18-1.33-1.98-2.58-2.3-.48-.12-.76-.05-1.22.33,2.18.03,3.27,1.26,3.73,3.31-.17-.1-.29-.14-.38-.22-.63-.55-1.37-.94-2.12-1.3-.54-.26-1.08-.53-1.56-.88-.99-.72-1.05-1.85-.14-2.67.35-.32.79-.56,1.22-.75,1.08-.47,2.24-.6,3.4-.67,1.95-.11,3.91-.1,5.83.32,1.01.22,2,.49,2.88,1.03.4.25.8.56,1.11.92.71.85.45,1.85-.58,2.24-.52.2-1.07.34-1.61.46-1.19.27-2.27.77-3.17,1.61-.14.13-.29.23-.54.43Z" style="fill:#fa7d7b; stroke-width:0px;"/><path d="m28.91,77.4s.09-.08.14-.12c-.05.04-.09.08-.14.12Z" style="fill:#efe4d3; stroke-width:0px;"/><path d="m99.63,42.32c1.37-.17,2.73-.34,4.13-.19,1.21.13,2.36.41,3.44.96.82.41,1.54.97,2.22,1.58.86.76,1.7,1.53,2.53,2.31,2.53,2.36,5.48,3.89,8.89,4.46,1.18.2,2.38.26,3.57.39.71.08,1.43.12,2.13.24,1.22.21,1.53.86.86,2-.47.8-1.21,1.35-2.01,1.81-2.25,1.28-4.67,1.65-7.23,1.33-2.26-.29-4.38-.96-6.31-2.17-1.36-.85-2.53-1.9-3.61-3.08-1.35-1.48-2.41-3.17-3.62-4.76-1.38-1.82-2.92-3.46-4.88-4.66-.05-.03-.09-.07-.13-.12,0,0,0-.04,0-.1Z" style="fill:#f8a4a4; stroke-width:0px;"/><path d="m59.72,70.31c-.31.11-.63.23-.94.34-1.31-.22-2.62-.4-3.87-.87-.45-.17-.59-.54-.64-.95-.07-.54-.13-1.08-.12-1.62.04-2.37.49-4.65,1.51-6.8.53-1.13,1.21-2.16,2.08-3.06,1.64-1.7,3.68-2.27,5.97-2.1,1.01.07,1.98.3,2.9.75,2.2,1.08,3.45,2.88,3.89,5.24.38,2.04-.06,3.96-1.03,5.77-.53.97-1.28,1.74-2.22,2.32-.09.06-.22.04-.33.06.09-.14.17-.29.28-.42,1.67-2.06,1.93-4.92.64-7.23-1.56-2.8-4.91-3.87-7.68-2.46-4.02,2.05-4.5,7.9-.87,10.66.15.11.29.24.44.36Z" style="fill:#fcfcfb; stroke-width:0px;"/><path d="m59.72,70.31c-.15-.12-.29-.25-.44-.36-3.63-2.76-3.16-8.61.87-10.66,2.77-1.41,6.12-.34,7.68,2.46,1.29,2.31,1.03,5.17-.64,7.23-.1.13-.19.28-.28.42,0,0,.01-.01.01-.01-.06.04-.13.08-.19.12.06.31-.29.26-.38.45-.24-.07-.48-.15-.72-.22.34-.28.73-.52,1.01-.85,1.27-1.49,1.79-3.23,1.41-5.16-.4-2.06-2-4.05-4.38-4.47-2.06-.36-3.75.33-5.03,1.9-1.07,1.31-1.55,2.85-1.26,4.59.28,1.68,1.02,3.06,2.47,4.01.16.11.31.23.46.34-.19.08-.39.15-.58.23Z" style="fill:#3b3129; stroke-width:0px;"/><path d="m66.72,69.5c.06-.04.13-.08.19-.12.02.17-.04.22-.19.12Z" style="fill:#fcfcfb; stroke-width:0px;"/><path d="m31.37,70.09c-.95-.2-1.9-.4-2.86-.61-.14-.06-.27-.14-.42-.19-4.56-1.75-5.66-7.11-3.07-10.69,1.42-1.96,3.45-2.65,5.76-2.41,2.73.28,4.88,2.28,5.57,4.96-.16-.17-.31-.34-.47-.51-1.01-1.03-2.24-1.51-3.67-1.35-1.91.21-3.63,1.78-4.11,3.69-.47,1.44-.38,2.86.28,4.22.73,1.49,1.92,2.41,3.6,2.58.53.05,1.07-.06,1.61-.1-.14.2-.28.39-.43.59-.6-.06-1.2-.12-1.79-.18Z" style="fill:#fcfcfb; stroke-width:0px;"/><path d="m28.1,62.99c.48-1.91,2.21-3.47,4.11-3.69,1.44-.16,2.66.32,3.67,1.35.16.17.32.34.47.51.08.27.15.54.24.8.04.11.14.21.22.31-.07.29-.14.59-.22.93-.22-.14-.36-.27-.53-.34-.08-.04-.2.01-.3.02-.15-.2-.31-.39-.45-.59-.85-1.2-2.43-1.7-3.8-1.27-.19.06-.34.23-.51.34-.33-.3-.67-.58-1.17-.38-.48.19-.67.59-.73,1.07-.01.11-.02.23-.04.34-.18.12-.37.24-.55.35-.14.08-.28.16-.42.23Z" style="fill:#4b3c30; stroke-width:0px;"/><path d="m31.01,61.37c.17-.12.32-.29.51-.34,1.37-.43,2.95.07,3.8,1.27.14.2.3.39.45.59.09.31.18.62.28.93.13.4.13.79-.01,1.18-.44,1.17-.92,2.31-1.65,3.33-.17.05-.33.1-.5.16-1.44.51-2.68.14-3.69-.93-1.01-1.06-1.2-2.39-1-3.78.02-.16.15-.3.22-.45.07.02.15.04.21.08.81.44,1.54.04,1.64-.87.04-.42-.06-.79-.26-1.15Z" style="fill:#1b1b1b; stroke-width:0px;"/><path d="m29.42,63.31c-.08.15-.2.29-.22.45-.2,1.4-.01,2.72,1,3.78,1.02,1.07,2.26,1.44,3.69.93.16-.06.33-.1.5-.16-.26.45-.53.91-.79,1.36-.54.04-1.08.15-1.61.1-1.67-.17-2.86-1.09-3.6-2.58-.67-1.35-.76-2.77-.28-4.22.14-.08.28-.15.42-.23.19-.11.37-.24.55-.35.11.3.23.61.34.91Z" style="fill:#624d3e; stroke-width:0px;"/><path d="m31.37,70.09c.6.06,1.2.12,1.79.18-.1.14-.21.27-.31.41-.22,0-.43,0-.65,0-.31-.15-.69-.19-.83-.58Z" style="fill:#0d0d0c; stroke-width:0px;"/><path d="m32.2,70.67c.22,0,.43,0,.65,0-.12.36-.13.37-.39.21-.1-.06-.17-.15-.26-.22Z" style="fill:#f8a4a4; stroke-width:0px;"/><path d="m63.77,69.5c-.27.01-.54.02-.8.03-.34-.04-.69-.06-1.03-.14-.97-.24-1.75-.78-2.35-1.58-.7-.93-1.04-1.99-1.01-3.13,0-.36-.07-.83.31-1.12.04.04.08.08.12.13.33.38.75.56,1.24.41.51-.15.78-.54.88-1.05.14-.76-.1-1.36-.73-1.81.14-.4.52-.5.84-.63,2.05-.82,4.13.07,5.17,1.86.65,1.1.89,2.29.6,3.55-.25,1.1-.74,2.08-1.72,2.71-.47.31-1.01.52-1.52.77Z" style="fill:#1b1b1b; stroke-width:0px;"/><path d="m63.77,69.5c.51-.25,1.05-.46,1.52-.77.98-.63,1.47-1.61,1.72-2.71.29-1.26.04-2.45-.6-3.55-1.04-1.78-3.11-2.68-5.17-1.86-.32.13-.71.23-.84.63-1-.31-1.77.23-1.77,1.28,0,.35.16.69.25,1.04-.39.29-.3.75-.31,1.12-.03,1.15.31,2.2,1.01,3.13.6.8,1.38,1.35,2.35,1.58.33.08.68.09,1.03.14-.08.06-.17.18-.25.18-.75-.03-1.47.19-2.19.36-.07.02-.15,0-.23.01-.15-.12-.3-.24-.46-.34-1.45-.95-2.18-2.33-2.47-4.01-.29-1.73.18-3.28,1.26-4.59,1.28-1.57,2.97-2.26,5.03-1.9,2.39.42,3.98,2.41,4.38,4.47.38,1.93-.14,3.67-1.41,5.16-.28.33-.67.57-1.01.85-.63,0-1.25.02-1.85-.22Z" style="fill:#5f4a3b; stroke-width:0px;"/><path d="m29.42,63.31c-.11-.3-.23-.61-.34-.91.01-.11.02-.23.04-.34.06-.48.25-.88.73-1.07.5-.2.84.08,1.17.38.2.36.3.74.26,1.15-.1.91-.83,1.31-1.64.87-.06-.04-.14-.05-.21-.08Z" style="fill:#fcfcfb; stroke-width:0px;"/><path d="m58.89,63.57c-.09-.35-.25-.69-.25-1.04,0-1.05.76-1.59,1.77-1.28.63.45.87,1.06.73,1.81-.1.51-.37.9-.88,1.05-.49.15-.91-.03-1.24-.41-.04-.04-.08-.09-.12-.13Z" style="fill:#fcfcfb; stroke-width:0px;"/></g></svg>