<?xml version="1.0" encoding="UTF-8"?><svg id="_Слой_2" xmlns="http://www.w3.org/2000/svg" width="100.46" height="200.63" xmlns:xlink="http://www.w3.org/1999/xlink" viewBox="0 0 100.46 200.63"><defs><radialGradient id="_Безымянный_градиент_3" cx="24.03" cy="4562.69" fx="24.03" fy="4562.69" r="17.99" gradientTransform="translate(0 4603.25) scale(1 -1)" gradientUnits="userSpaceOnUse"><stop offset="0" stop-color="#f6b8c0"/><stop offset="1" stop-color="#e69a9b"/></radialGradient><radialGradient id="_Безымянный_градиент_3-2" cx="52" cy="4573.48" fx="52" fy="4573.48" r="18.61" xlink:href="#_Безымянный_градиент_3"/><radialGradient id="_Безымянный_градиент_3-3" cx="65.23" cy="4515.28" fx="65.23" fy="4515.28" r="4.12" xlink:href="#_Безымянный_градиент_3"/></defs><g id="_Слой_1-2"><g id="_Слой_1-2"><path d="m12.62,186.36c-1.98,1.34-4.18,2.81-4.54,5.15-.22,1.43.23,3.34,1.23,3.68.32.11.63.02.77-.02.9-.25,1.23-1.2,1.82-2.16,1.03-1.68,2.29-2.51,2.32-2.48.04.04-4.06,2.99-3.68,6.13.18,1.52,1.38,2.97,2.82,3.46,1.86.63,3.7-.48,4.78-1.13.51-.31,1.06-.63,1.6-1.25.79-.9.8-1.53,1.79-3.24.59-1.02,1.1-1.67,1.14-1.65.13.08-3.36,4.75-2.2,6.13.2.25.7.58,2.95.12,2.27-.46,8.49-1.71,11.03-7.23.58-1.25.87-1.89.73-2.7-.75-4.58-12.82-7.1-19.37-4.54-1.44.56-2.77,1.44-3.19,1.72h0Z" style="fill:#efefef; stroke:#1d1d1b; stroke-miterlimit:10; stroke-width:.63px;"/><path d="m48.59,53.64c-.68-2.46-1.72-6.12-3.07-10.55-2.69-8.85-3.05-9.12-3.92-12.75-.39-1.63-1.96-8.44-1.84-17.41.1-6.76.16-11.3,2.57-12.38,2.88-1.29,7.43,3.1,9.81,5.4,7.65,7.38,10.77,15.94,11.89,19.49,3.91,12.33,2.57,23.36,1.23,29.67-2.18-.83-5.33-1.74-9.2-1.96-2.97-.17-5.52.12-7.48.49h0Z" style="fill:#bbb; stroke:#1d1d1b; stroke-miterlimit:10; stroke-width:.63px;"/><path d="m24.03,144.29c-1.87-1.67-3.45-2.06-4.54-2.12-2.25-.13-2.84,1.16-6.54,1.63-1.82.23-3.18.12-3.35.7-.22.71,1.68,1.46,1.51,2.33-.23,1.22-4.23,1-4.45,2.17-.18.98,2.5,1.7,2.45,3.07-.04,1.3-2.48,1.32-3.31,3.27-.56,1.32-.03,2.69.9,5.07.5,1.28,1.3,2.96,2.62,4.78,4.9-6.96,9.81-13.92,14.71-20.88h0Z" style="fill:#aaaaab; stroke:#1d1d1b; stroke-miterlimit:10; stroke-width:.63px;"/><path d="m46.19,188c.15,1.98,1.81,3.33,2.08,3.55,2.55,2.08,5.61,1.1,10.3,1.23,2.23.06,1.34.28,10.17,1.96,11.09,2.11,14.01,2.06,15.69,1.96,3.62-.21,9.01-.53,9.93-3.31.65-1.95-1.05-4.73-3.07-5.88-1.82-1.04-3.92-.76-3.92-.73s1.99-.3,3.92.73c2.69,1.44,2.53,4.06,4.54,4.41,1.32.23,2.7-.66,3.43-1.6.08-.1,1.01-1.34.86-2.7-.43-3.72-8.75-5.78-8.7-5.88.02-.04,1.27.27,2.88,1.05.96.46,1.44.79,1.6.63.25-.24-.41-1.46-.97-2.17-1.3-1.65-3.37-2.27-6.85-2.7-6.73-.82-10.2-.22-10.2-.22-15.48,1.93-19.26-1.63-26.15,2.62-1.26.78-5.82,3.59-5.56,7.05h0Z" style="fill:#efefef; stroke:#1d1d1b; stroke-miterlimit:10; stroke-width:.63px;"/><path d="m36.75,60.27c-2.12-.25-5.26-.86-8.75-2.45-4.19-1.92-6.69-4.28-10.46-7.85-5.15-4.86-8.37-9.29-9.81-11.36-1.75-2.54-3.16-5.48-5.97-11.36-1.15-2.41-1.91-4.14-1.15-5.31.82-1.26,2.98-1.23,6.45-.9,7.52.71,11.28,1.06,15.28,2.62,1.2.46,6.11,2.44,11.93,7.27,8.86,7.35,13.76,16.27,16.43,22.56-2.08.45-4.76,1.24-7.68,2.7-2.66,1.32-4.75,2.81-6.3,4.09h0Z" style="fill:#bbb; stroke:#1d1d1b; stroke-miterlimit:10; stroke-width:.63px;"/><path d="m37.03,103.37c1.05,2.64.72,5.49-.91,7.39-1.08,1.26-2.45,1.76-3.19,1.96,0,0-2.77,1.35-4.9,3.68,0,0-.1.1-.18.2-1.64,1.9-6.22,9.51-3.55,16.22,1.24,3.1,3.12,3.72,3,6.38-.08,1.72-.82,3.14-2.2,4.66-3.83,4.2-7.21,7.07-8.34,8.09-6.15,5.61-7.44,13.42-7.6,14.47-.27,1.8-1.33,8.79,2.95,14.71.48.67,1.68,2.23,3.68,3.68,5.12,3.73,10.67,3.24,24.03,2.7,14.7-.6,13.67-.23,17.65-.73,9.49-1.19,14.9-1.94,19.86-6.13,1.63-1.37,5.76-4.97,6.87-11.03.37-2.03,1.1-6.01-.99-9.49-3.01-5-9.28-4.71-10.53-9.63-.13-.53-.41-1.67,0-2.95.91-2.82,4.18-3.02,6.37-4.9,3.81-3.27,4.02-11.29,1.47-16.43-2.6-5.24-6.25-5.06-10.55-11.77-2.18-3.41-3.23-6.64-3.77-8.77-9.72-.77-19.44-1.53-29.16-2.3h-.01Z" style="fill:#bebebe; stroke:#1d1d1b; stroke-miterlimit:10; stroke-width:.63px;"/><path d="m5.11,23.56c.52,1.33,1.28,3.2,2.29,5.4,1.68,3.66,3.53,7.71,5.97,11.12,3.39,4.74,7.16,7.21,13.24,11.2,3.03,1.98,6.84,4.21,11.44,6.3,1.63-1.17,3.27-2.34,4.9-3.52-.47-.8-1.18-2.03-2.05-3.52-6.56-11.33-6.36-11.44-7.52-13.08-4.72-6.68-11.43-9.69-14.14-10.87-5.71-2.48-10.88-2.98-14.14-3.02h0Z" style="fill:url(#_Безымянный_градиент_3); stroke:#1d1d1b; stroke-linecap:round; stroke-linejoin:round; stroke-width:.63px;"/><path d="m55.1,53.8c-.72-5.48-1.91-9.72-2.82-12.5-1.09-3.33-1.64-4.14-6.62-16.18-2.08-5.02-2.93-7.17-3.43-10.42-.59-3.77-.4-6.99-.12-9.2,5.16,3.03,13.04,8.89,16.92,18.64,2.56,6.44,2.85,13.27,3.07,18.27.2,4.79-.06,8.81-.37,11.65-2.2-.08-4.41-.16-6.62-.25h0Z" style="fill:url(#_Безымянный_градиент_3-2); stroke:#1d1d1b; stroke-linecap:round; stroke-linejoin:round; stroke-width:.63px;"/><path d="m36.01,57.11c-3.55,2.08-5.39,3.99-6.37,5.15-3.79,4.46-4.73,9.25-5.15,11.52-1.33,7.23.63,13.05,1.47,15.2,3.32,8.51,9.84,12.78,12.5,14.47,3.44,2.18,12.26,7.78,23.05,4.9,11.74-3.12,16.66-13.84,17.65-16.18,4.81-11.34.51-21.57-.49-23.78-.99-2.19-6.35-13.33-18.64-16.43-10.62-2.68-19.37,2.43-24.03,5.15h0Z" style="fill:#bebebe; stroke:#1d1d1b; stroke-miterlimit:10; stroke-width:.63px;"/><path d="m53.53,70.38c2.31,5.05.91,16.85-1.29,17.86-1.84.84-11.92-1.21-14.23-6.27-2.31-5.06-3.4-16.61,1.65-18.91,5.05-2.31,11.56,2.27,13.87,7.33Z" style="fill:#efefef; stroke:#1d1d1b; stroke-miterlimit:10; stroke-width:.63px;"/><path d="m39.45,86.78c-2.19-.83-3.46-1.4-5.64-1.72-1.85-.27-4.34-.6-7.11.49-.65.25-4.56,1.86-5.64,5.4-.34,1.12-.42,2.51,0,2.7.65.28,2.2-2.45,2.7-2.2.65.32-1.53,5.24-.49,5.88.66.41,2.06-1.24,2.7-.8.66.46-.66,2.36,0,4.78.39,1.44,1.38,2.64,1.78,2.51.41-.13-.06-1.71.49-2.02.68-.39,2.28,1.53,3.52,2.63,3.71,3.27,8.96,3.49,12.43,3.71,1.32.08,2.61.06,5.28.3,2.41.22,3.64.31,4.52.68,1.33.56,2.17,1.32,3.84,1.44.77.06,1.32-.06,2.07-.18,1.06-.18,2.38-.63,5.16-1.9,7.01-3.21,8.65-1.17,11.89-4.05,3.07-2.71,3.88-6.54,4.9-6.25.51.14.68,1.2.73,2.08.13-1.35.42-2.32.73-2.33.3,0,.64.89.86,2.08-.46-5.6-.32-6.71-.12-6.75.39-.06,1.31,4.49,1.84,4.41.37-.06.63-2.34.03-4.66-.71-2.71-2.25-4.1-1.87-4.53.54-.6,3.77,1.77,4.05,1.4.3-.39-3.74-2.77-5.9-7.13-2.24-4.52-1.53-9.29-1.78-9.29-.24,0,.61,4.27-1.52,8.15-1.77,3.22-5.48,5.99-7.97,5.15-1.06-.35-.97-1.03-2.2-1.96-2.78-2.09-7.23-1.67-10.17-.25-3.81,1.84-2.85,4.27-5.88,5.4-2.45.91-6.04-.46-13.24-3.19h0Z" style="fill:#e4e5e4; stroke:#1d1d1b; stroke-miterlimit:10; stroke-width:.63px;"/><line x1="74.11" y1="93.02" x2="72.23" y2="92.93" style="fill:none; stroke:#1d1d1b; stroke-linecap:round; stroke-linejoin:round; stroke-width:.63px;"/><path d="m53.11,91.72c-.53.53-1.06,1.05-1.6,1.57.92.36,2.25.94,3.8,1.84,1.53.89,1.56,1.09,2.2,1.23,2.08.43,2.93-1.48,5.27-1.23,1.11.12,1.03.56,2.7.86.79.14,1.91.34,3.19,0,.28-.08,3.33-.92,3.55-3.07.1-.94-.37-1.74-.73-2.2" style="fill:none; stroke:#1d1d1b; stroke-linecap:round; stroke-linejoin:round; stroke-width:.63px;"/><path d="m51.25,73.91c2.57,3.32,2.84,13.08,1.4,14.2-1.21.94-10.84-1.56-13.41-4.88s-1.97-8.09,1.34-10.67c3.31-2.58,8.09-1.97,10.67,1.34h0Z" style="fill:#fefefc; stroke:#1d1d1b; stroke-miterlimit:10; stroke-width:.63px;"/><path d="m49.95,94.16c.52-.29,1.04-.58,1.56-.86" style="fill:none; stroke:#1d1d1b; stroke-linecap:round; stroke-linejoin:round; stroke-width:.63px;"/><path d="m61.45,88.78c-.33-.57-1.21-2.06-.61-3.19.92-1.72,4.54-1.09,5.15-.98,1.25.22,3.24.57,3.74,1.9.67,1.78-1.78,5.03-4.1,5.03-1.29,0-3.97-2.41-4.17-2.76h0Z" style="fill:url(#_Безымянный_градиент_3-3); stroke:#1d1d1b; stroke-linecap:round; stroke-linejoin:round; stroke-width:.63px;"/><path d="m57.52,96.36c-.49.44.3,2.05.77,3,.61,1.24.91,1.86,1.47,2.08.75.3,1.13-.21,2.6-.02.86.11.98.32,1.38.2.7-.21.83-.96,1.47-2.2,1.07-2.08,2.13-2.8,1.84-3.25-.18-.27-.61-.09-1.56-.18-1.58-.15-1.57-.76-2.7-.86-1.87-.16-2.51,1.46-4.52,1.18-.29-.04-.57-.12-.76.05h0Z" style="fill:#fff; stroke:#1d1d1b; stroke-miterlimit:10; stroke-width:.63px;"/><path d="m63.35,95.58c-.33,1.95-.67,3.9-.99,5.85" style="fill:none; stroke:#1d1d1b; stroke-linecap:round; stroke-miterlimit:10; stroke-width:.63px;"/><path d="m44.18,108.14c-.47,1.01-1.01,2.24-1.56,3.65-.76,1.96-1.25,3.52-1.47,4.23-1.06,3.48-1.6,5.23-1.61,6.85,0,.52.03,5.41,3.42,8.59,1.4,1.32,1.67.73,5.88,3.14,3.01,1.72,4.54,2.61,5.99,4.29,1.89,2.18,2.61,4.38,2.99,5.57,0,0,.9,2.84.45,5.88-.06.45-.18.99-.39,1.02-.46.05-1.15-2.38-1.12-2.39.02,0,.33.67.53,1.46,0,0,.16.64.2,1.24.04.71-.01,2.56-1.33,3.97-.32.35-1.46,1.57-2.31,1.26-1.41-.52-1.04-5-1.11-5-.04,0-.04,1.13-.06,1.91-.03,1.58-.06,1.8-.23,1.92-.53.39-1.81-.4-2.53-1.07-1.4-1.29-1.7-3-1.72-3.14-.27-1.67.48-2.24-.08-3.32-.5-.97-1.54-1.36-1.84-1.47-.85-.32-1.41-.17-2.88-.08-2.87.18-3.17-.22-3.59.13-1.31,1.08.9,5.61,3.04,10.71,2.79,6.65,4.19,9.98,4.6,12.75.57,3.84-.13,9.51-6.13,17.2,2.99-.07,6.02-.17,9.09-.29,2.1-.08,4.19-.18,6.26-.29,2.95-1.13,9.45-4.16,12.86-10.91,1.93-3.81,2.08-7.4,2.39-14.59.22-4.95-.15-9.34-.96-9.44-.68-.08-1.44,2.88-2.07,2.74-.6-.13-.53-2.97-.56-2.97-.02,0,.12.75-.06,1.56-.03.11-.54,2.25-2.26,2.6-1.06.22-1.91-.39-1.99-.45-.78-.57-.96-1.41-1.01-1.62-.16-.77.06-1.5.31-2.36.03-.11.18-.59.3-1.24.06-.34.1-.59.08-.59-.04,0-.45,3.57-1.06,3.6-.5.02-1.25-2.36-1.32-4.72-.03-1.08.01-4.14,2.82-8.95,2.35-4.03,3.09-3.2,5.12-6.76.37-.65,2.7-4.83,3.05-10.52.21-3.36-.42-4.91-.61-5.37-.67-1.56-1.43-2.01-2.59-3.82-.73-1.14-1.67-2.88-2.34-5.31l-22.61.38h.01Z" style="fill:#fff; stroke:#1d1d1b; stroke-miterlimit:10; stroke-width:.63px;"/><path d="m51.72,76.73c2.04,2.63,2.25,10.36,1.11,11.26-.96.75-8.59-1.24-10.63-3.87-2.04-2.63-1.56-6.41,1.06-8.45,2.63-2.04,6.41-1.56,8.45,1.06h0Z" style="fill:#2a6eb6; stroke:#1d1d1b; stroke-miterlimit:10; stroke-width:.63px;"/><path d="m52.1,81.25c1.24,1.59,1.36,6.26.67,6.8-.58.45-5.19-.75-6.42-2.34-1.24-1.59-.94-3.88.65-5.11s3.88-.94,5.11.65h0Z" style="fill:#1d1d1b; stroke:#1d1d1b; stroke-linecap:round; stroke-miterlimit:10; stroke-width:.63px;"/><circle cx="47.53" cy="85.4" r="1.22" style="fill:#fff; stroke-width:0px;"/><path d="m67.04,74.06c-.58,3.9,2.48,11.69,4.1,11.96,1.36.22,7.53-3.12,8.11-7.02.58-3.9-.82-12.01-4.53-12.62-3.71-.61-7.1,3.78-7.68,7.68Z" style="fill:#efefef; stroke:#1d1d1b; stroke-miterlimit:10; stroke-width:.63px;"/><path d="m69.16,76.04c-1.07,2.76.54,9.49,1.68,9.98.96.41,6.76-3.15,7.82-5.91,1.07-2.76-.2-5.91-2.82-7.03s-5.62.2-6.69,2.96Z" style="fill:#fefefc; stroke:#1d1d1b; stroke-miterlimit:10; stroke-width:.63px;"/><path d="m69.37,78.06c-.85,2.19.42,7.52,1.33,7.91.76.32,5.36-2.5,6.2-4.69s-.15-4.69-2.24-5.57-4.45.16-5.3,2.35h0Z" style="fill:#2a6eb6; stroke:#1d1d1b; stroke-miterlimit:10; stroke-width:.63px;"/><path d="m69.95,81.22c-.51,1.32.26,4.54.8,4.78.46.2,3.24-1.51,3.75-2.83.51-1.32-.1-2.83-1.35-3.37s-2.69.1-3.21,1.42h0Z" style="fill:#1d1d1b; stroke:#1d1d1b; stroke-linecap:round; stroke-miterlimit:10; stroke-width:.63px;"/><ellipse cx="71.33" cy="83.99" rx=".82" ry=".87" style="fill:#fff; stroke-width:0px;"/><path d="m44.18,108.14c-1.62,3.47-2.64,6.49-3.29,8.74-1.1,3.77-1.64,5.7-1.23,8.09.12.71.77,4.05,3.55,6.75,2.86,2.76,5.13,2.08,8.46,4.29,1.22.8,4.59,3.5,6,7.97,1.13,3.58.68,7.32.2,7.39-.41.06-1.15-2.59-1.2-2.57-.04.01.98,1.81.78,3.76-.26,2.45-2.39,4.71-3.46,4.42-1.27-.34-1.08-5.28-1.23-5.27-.04,0-.06.92-.08,1.75-.05,2.03-.11,2.19-.25,2.28-.6.42-2.7-.7-3.72-2.57-1.29-2.36.15-4.06-.9-5.5-1.28-1.75-4.57-.8-7.48-.86-3.24-.06-7.72-1.4-13.12-7.03" style="fill:none; stroke:#1d1d1b; stroke-miterlimit:10; stroke-width:.63px;"/><path d="m71.41,116.5c.58,1.86,1.32,5.14.64,9.07-.57,3.29-1.88,5.68-2.78,7.19-2.69,4.54-3.96,4.2-5.88,8.09-1.75,3.53-1.88,6.18-1.88,7.27,0,2.45.63,5.07,1.15,5.07.6,0,1.06-3.6,1.06-3.6,0,0-.23,1.09-.38,1.82-.27,1.32-.39,1.99-.31,2.36.22.98,1.13,2.09,2.29,2.17,1.03.07,1.81-.79,1.96-.95,1.18-1.3,1-3.31,1.07-3.31.09,0-.33,2.81.25,3.03.43.16,1.49-1.06,3.86-5.4" style="fill:none; stroke:#1d1d1b; stroke-miterlimit:10; stroke-width:.63px;"/></g></g></svg>