<?xml version="1.0" encoding="UTF-8"?><svg xmlns="http://www.w3.org/2000/svg" width="148.11" height="233.75" xmlns:xlink="http://www.w3.org/1999/xlink" viewBox="0 0 148.11 233.75"><defs><linearGradient id="linear-gradient" x1="-6659.21" y1="197.06" x2="-6622.58" y2="197.06" gradientTransform="translate(-6569.82) rotate(-180) scale(1 -1)" gradientUnits="userSpaceOnUse"><stop offset="0" stop-color="#a92b04"/><stop offset=".98" stop-color="#6e0000"/></linearGradient><linearGradient id="linear-gradient-2" x1="-6607.58" y1="237.16" x2="-6624.9" y2="214.85" gradientTransform="translate(-6569.82) rotate(-180) scale(1 -1)" gradientUnits="userSpaceOnUse"><stop offset="0" stop-color="#fbf9f2"/><stop offset="1" stop-color="#dd442d"/></linearGradient><linearGradient id="linear-gradient-3" x1="-6603.53" y1="184.95" x2="-6674.61" y2="95.04" gradientTransform="translate(-6569.82) rotate(-180) scale(1 -1)" gradientUnits="userSpaceOnUse"><stop offset="0" stop-color="#fdec98"/><stop offset=".99" stop-color="#fbeed8"/></linearGradient><clipPath id="clippath"><path d="m125.88,107.65c-1.04,1.68-12.03,76.13-12.03,76.13l-76.59.81-16.36-75.84L77.08,29.9l48.8,77.76Z" style="fill:none; stroke-width:0px;"/></clipPath><linearGradient id="linear-gradient-4" x1="-6649.19" y1="59.61" x2="-6658.03" y2="17.37" gradientTransform="translate(-6569.82) rotate(-180) scale(1 -1)" gradientUnits="userSpaceOnUse"><stop offset="0" stop-color="#f6b95d"/><stop offset=".99" stop-color="#e08c69"/></linearGradient><linearGradient id="linear-gradient-5" x1="-6651.71" y1="58.59" x2="-6660.56" y2="16.35" xlink:href="#linear-gradient-3"/><linearGradient id="linear-gradient-6" x1="-6647.35" y1="81.22" x2="-6586.56" y2="122.63" gradientTransform="translate(-6569.82) rotate(-180) scale(1 -1)" gradientUnits="userSpaceOnUse"><stop offset="0" stop-color="#f5b74f"/><stop offset="1" stop-color="#ea882c"/></linearGradient><linearGradient id="linear-gradient-7" x1="-6665.57" y1="31.97" x2="-6668.07" y2="56.39" xlink:href="#linear-gradient-2"/><linearGradient id="linear-gradient-8" x1="-6709.69" y1="52.88" x2="-6686.24" y2="87.57" xlink:href="#linear-gradient-2"/></defs><g style="isolation:isolate;"><g id="_Слой_2"><g id="_Слой_1-2"><path d="m58.91,175.49l30.19-11.61-7.71,44.8c.88-.81,2.9-2.19,4.25-4.04.38-.52,1.14-.56,1.57-.08l1.96,2.19c.32.36.24,2.06.1,2.53-2.97,9.43-10.69,12.74-10.69,12.74l-1.54,8.21h-19.57l-4.7-41.89,6.14-12.85Z" style="fill:url(#linear-gradient); stroke-width:0px;"/><path d="m82.75,199.8l-2.29-.79c-5.56-1.91-11.55,1.38-12.93,7.1-2.28,9.47-5.04,22.07-3.98,23.67l13.47.46,5.72-30.44Z" style="fill:#fbe170; mix-blend-mode:soft-light; opacity:.4; stroke-width:0px;"/><path d="m53.68,196.55c.03.29,9.21,9.1,7.63,33.68h4.75s2.77-25.45,15.33-21.55l.43-2.82s-12.04-9.32-15.77,7.52c0,0,4.65-18.75-13.29-25.05l.92,8.21Z" style="fill:url(#linear-gradient-2); mix-blend-mode:multiply; opacity:.3; stroke-width:0px;"/><path d="m125.88,107.65c-1.04,1.68-12.03,76.13-12.03,76.13l-76.59.81-16.36-75.84L77.08,29.9l48.8,77.76Z" style="fill:url(#linear-gradient-3); stroke-width:0px;"/><g style="clip-path:url(#clippath);"><rect x="114.09" y=".5" width="24.86" height="183.94" style="fill:#fde270; stroke:#f4b74f; stroke-miterlimit:10;"/><rect x="89.65" y=".5" width="24.86" height="183.94" style="fill:#fde270; stroke:#f4b74f; stroke-miterlimit:10;"/><rect x="40.71" y=".5" width="24.86" height="183.94" style="fill:#fde270; stroke:#f4b74f; stroke-miterlimit:10;"/><rect x="65.01" y=".5" width="24.86" height="183.94" style="fill:#fde270; stroke:#f4b74f; stroke-miterlimit:10;"/><rect x="15.69" y=".5" width="24.86" height="183.94" style="fill:#fde270; stroke:#f4b74f; stroke-miterlimit:10;"/></g><circle cx="72.11" cy="89.95" r="17.71" transform="translate(-42.48 77.33) rotate(-45)" style="fill:#cc8685; mix-blend-mode:multiply; opacity:.5; stroke-width:0px;"/><circle cx="73.43" cy="87.96" r="17.71" style="fill:url(#linear-gradient-4); stroke-width:0px;"/><circle cx="75.96" cy="86.93" r="17.71" style="fill:url(#linear-gradient-5); stroke-width:0px;"/><path d="m63.3,86.94c0,6.12,4.35,11.23,10.13,12.41.82.17,1.67.25,2.53.25,6.99,0,12.66-5.67,12.66-12.66s-5.67-12.67-12.66-12.67c-.86,0-1.71.09-2.53.25-5.78,1.17-10.13,6.28-10.13,12.41Z" style="fill:#da9288; mix-blend-mode:multiply; stroke-width:0px;"/><path d="m63.3,86.94c0,6.12,5.08,12.66,11.78,12.66,6.44-1.17,10.79-6.54,10.79-12.66s-4.84-11.5-11.28-12.67c-7.5.94-11.28,6.53-11.28,12.67Z" style="fill:#96cfe7; stroke-width:0px;"/><path d="m115.39,117.15c.62,2.65,2.61,31.64-1.81,28.76-4.42-2.88-6.19-27.65-4.87-28.76,1.33-1.11,6.68,0,6.68,0Z" style="fill:#fbe170; mix-blend-mode:screen; opacity:.2; stroke-width:0px;"/><circle cx="75.96" cy="146.09" r="22.64" style="fill:#db7e40; stroke-width:0px;"/><circle cx="75.92" cy="147.28" r="19.45" transform="translate(-49.72 39.26) rotate(-22.04)" style="fill:#db7e40; stroke-width:0px;"/><g style="opacity:.3;"><circle cx="75.92" cy="147.28" r="19.45" transform="translate(-49.72 39.26) rotate(-22.04)" style="stroke-width:0px;"/></g><circle cx="75.92" cy="146.1" r="19.45" transform="translate(-49.28 39.17) rotate(-22.04)" style="fill:#bc6c35; stroke-width:0px;"/><path d="m62.29,159.96c-.09,0-.16-6.2-.16-13.84s.07-13.84.16-13.84.16,6.19.16,13.84-.07,13.84-.16,13.84Z" style="fill:#e5d06b; stroke-width:0px;"/><path d="m68.02,163.68c-.09,0-.16-7.92-.16-17.68s.07-17.68.16-17.68.16,7.91.16,17.68-.07,17.68-.16,17.68Z" style="fill:#e5d06b; stroke-width:0px;"/><path d="m75.58,165.43c-.09,0-.16-8.7-.16-19.43s.07-19.43.16-19.43.16,8.7.16,19.43-.07,19.43-.16,19.43Z" style="fill:#e5d06b; stroke-width:0px;"/><path d="m83.05,164.71c-.09,0-.16-8.19-.16-18.28s.07-18.28.16-18.28.16,8.18.16,18.28-.07,18.28-.16,18.28Z" style="fill:#e5d06b; stroke-width:0px;"/><path d="m89.7,160.99c-.09,0-.16-6.35-.16-14.19s.07-14.19.16-14.19.16,6.35.16,14.19-.07,14.19-.16,14.19Z" style="fill:#e5d06b; stroke-width:0px;"/><path d="m79.69,136.26c0,2.08-1.69,3.77-3.77,3.77s-3.77-1.69-3.77-3.77,1.69-3.77,3.77-3.77,3.77,1.69,3.77,3.77Z" style="fill:#e5d06b; stroke-width:0px;"/><path d="m79.8,136.26c0,2-1.55,3.63-3.47,3.63s-3.47-1.62-3.47-3.63,1.55-3.63,3.47-3.63,3.47,1.62,3.47,3.63Z" style="fill:#2d2514; stroke-width:0px;"/><rect x="75.96" y="132.29" width=".74" height="7.94" style="fill:#bc6c35; stroke-width:0px;"/><rect x="75.55" y="132.6" width=".74" height="7.94" transform="translate(-60.65 212.5) rotate(-90)" style="fill:#bc6c35; stroke-width:0px;"/><path d="m53.64,142.29l2.92,1.19h3.56v.78h-3.64l-3.15,1.09c.03-1.02.13-2.04.31-3.06Z" style="fill:#3a1c0d; stroke-width:0px;"/><path d="m53.53,149.19l3.03.81,3.56-.08v.78l-3.64.08-2.33,1.39c-.24-.89-.51-2.01-.61-2.97Z" style="fill:#3a1c0d; stroke-width:0px;"/><polygon points="78.11 126.5 78.8 129.16 79.89 126.79 78.11 126.5" style="fill:#db7e40; stroke-width:0px;"/><polygon points="94.83 141.54 94.19 143.86 94.51 146 94.83 143.77 95.75 142.97 94.83 141.54" style="fill:#db7e40; stroke-width:0px;"/><path d="m59.67,130.16c.06-.07.69.38,1.42,1,.73.62,1.27,1.18,1.22,1.24-.06.07-.69-.38-1.42-1-.73-.62-1.27-1.18-1.22-1.24Z" style="fill:#e5d06b; stroke-width:0px;"/><path d="m66.73,125.47c.08-.03.43.6.79,1.42.36.82.58,1.51.5,1.55-.08.03-.43-.6-.79-1.42-.36-.82-.58-1.51-.5-1.55Z" style="fill:#e5d06b; stroke-width:0px;"/><path d="m75.35,123.58c.09,0,.22.68.3,1.53.08.86.07,1.55-.02,1.56-.09,0-.22-.68-.3-1.53-.08-.85-.07-1.55.02-1.56Z" style="fill:#e5d06b; stroke-width:0px;"/><path d="m85.13,125.47c.07.05-.32.7-.87,1.45-.55.75-1.06,1.31-1.13,1.26-.07-.05.32-.7.87-1.45.55-.75,1.06-1.31,1.13-1.26Z" style="fill:#e5d06b; stroke-width:0px;"/><path d="m92.31,130.64c.05.07-.48.55-1.19,1.08-.71.53-1.33.9-1.38.83-.05-.07.48-.55,1.19-1.08.71-.53,1.33-.9,1.38-.83Z" style="fill:#e5d06b; stroke-width:0px;"/><path d="m96.8,137.83c.03.08-.57.36-1.33.61-.76.25-1.4.39-1.43.31-.03-.08.57-.36,1.33-.61.76-.25,1.4-.39,1.43-.31Z" style="fill:#e5d06b; stroke-width:0px;"/><path d="m98.52,145.34c0,.09-.71.16-1.58.16s-1.58-.07-1.58-.16.71-.16,1.58-.16,1.58.07,1.58.16Z" style="fill:#e5d06b; stroke-width:0px;"/><path d="m97.65,153.05c-.03.08-.77-.16-1.64-.55-.87-.38-1.55-.75-1.52-.83.03-.08.77.16,1.64.55.87.38,1.55.75,1.52.83Z" style="fill:#e5d06b; stroke-width:0px;"/><path d="m92.13,162.23c-.06.06-.61-.43-1.21-1.1-.6-.67-1.04-1.25-.97-1.31.06-.06.61.43,1.21,1.1.6.67,1.04,1.25.97,1.31Z" style="fill:#e5d06b; stroke-width:0px;"/><path d="m84.2,167.17c-.08.03-.42-.56-.76-1.34-.34-.77-.55-1.43-.47-1.46s.42.56.76,1.34c.34.77.55,1.43.47,1.46Z" style="fill:#e5d06b; stroke-width:0px;"/><path d="m75.35,168.77c-.09-.01-.1-.44-.04-.97.07-.52.19-.94.28-.93.09.01.1.44.04.97-.07.52-.19.94-.28.93Z" style="fill:#e5d06b; stroke-width:0px;"/><path d="m67.47,164.6c.06.07-.32.47-.84.9-.52.43-.99.73-1.04.66-.06-.07.32-.47.84-.9.52-.43.99-.73,1.04-.66Z" style="fill:#e5d06b; stroke-width:0px;"/><path d="m61.88,159.93c.05.07-.49.48-1.18.9-.7.43-1.3.71-1.35.64-.05-.07.49-.48,1.19-.9.7-.42,1.3-.71,1.35-.64Z" style="fill:#e5d06b; stroke-width:0px;"/><path d="m58.71,138.25c-.03.08-.79-.15-1.69-.52-.9-.37-1.61-.73-1.57-.81.03-.08.79.15,1.69.52.9.37,1.61.73,1.57.81Z" style="fill:#e5d06b; stroke-width:0px;"/><path d="m28.84,117.71c.39-.73,1.13-.76,1.74-.9,1.89-.43,2.13-1.5,1.57-3.2-.54-1.65-1.57-2.85-2.79-3.98-.79-.73-1.47-.93-2.22.04-.23.3-.54.74-1.01.46-.41-.25-.29-.75-.22-1.13.23-1.28-.44-1.6-1.56-1.81-4.74-.89-10.04,2.04-12.17,6.84-1.19,2.69-1.11,2.86,1.74,3.65.26.07.54.13.78.25.22.12.54.29.58.49.09.44-.33.54-.65.62-.46.11-.94.24-1.41.24-1.71-.01-1.87.76-1.4,2.23,1.51,4.69,5.19,7.18,11.16,7.38,4.85.16,8.74-2.97,9.74-7.69.39-1.83-.03-2.77-2.01-2.81-.64-.01-1.36-.04-1.85-.67Z" style="fill:#ba661a; stroke:#f58a2c; stroke-miterlimit:10; stroke-width:.75px;"/><path d="m28.84,117.71c.5.63,1.22.66,1.85.67,1.98.04,2.4.98,2.01,2.81-1,4.72-4.89,7.85-9.74,7.69-5.97-.2-9.65-2.68-11.16-7.38-.47-1.47-.31-2.24,1.4-2.23.47,0,.95-.12,1.41-.24.32-.08.74-.18.65-.62-.04-.2-.35-.37-.58-.49-.24-.13-.52-.18-.78-.25-2.84-.79-2.93-.97-1.74-3.65,2.13-4.8,7.43-7.74,12.17-6.84,1.13.21,1.79.52,1.56,1.81-.07.37-.19.88.22,1.13.46.28.78-.16,1.01-.46.75-.96,1.43-.77,2.22-.04,1.22,1.13,2.24,2.34,2.79,3.98.56,1.7.32,2.76-1.57,3.2-.61.14-1.36.17-1.74.9Zm-8.36-4.71c-2.23.68-3.12,1.96-3.22,4.07-.13,2.94,1.29,5.38,3.65,6.29,2,.77,3.29.6,4.45-.76-2.67.24-5.2.29-6.47-2.48-1.16-2.53-.52-4.84,1.58-7.12Zm1.86,3.49c-.81.29-.61,1-.56,1.56.11,1.11.75,1.72,1.92,1.63.36-.03.85-.3.75-.55-.38-.95-2.49-.72-1.74-2.51-.12-.04-.24-.09-.38-.14Zm1.96-3.97c.48.99,1.53,1.05,2.09,1.71.37.44.57,1.71,1.32,1.03.73-.65-.36-1.27-.83-1.77-.64-.69-1.37-1.28-2.58-.98Z" style="fill:#fde46e; stroke:#f58a2c; stroke-miterlimit:10; stroke-width:.75px;"/><path d="m20.48,113c-2.1,2.28-2.74,4.59-1.58,7.12,1.27,2.77,3.8,2.72,6.47,2.48-1.16,1.36-2.45,1.53-4.45.76-2.36-.91-3.78-3.35-3.65-6.29.09-2.11.98-3.39,3.22-4.07Z" style="fill:#f58a2c; stroke:#f58a2c; stroke-miterlimit:10; stroke-width:.75px;"/><path d="m22.34,116.49c.13.05.25.09.38.14-.75,1.79,1.36,1.55,1.74,2.51.1.24-.4.52-.75.55-1.17.09-1.81-.52-1.92-1.63-.05-.56-.25-1.26.56-1.56Z" style="fill:#fbb74c; stroke:#f58a2c; stroke-miterlimit:10; stroke-width:.75px;"/><path d="m24.29,112.52c1.22-.31,1.95.29,2.58.98.47.51,1.56,1.12.83,1.77-.76.68-.96-.6-1.32-1.03-.56-.67-1.61-.73-2.09-1.71Z" style="fill:#f4b74f; stroke:#f58a2c; stroke-miterlimit:10; stroke-width:.75px;"/><path d="m30.78,131.25c-.24-.79.26-1.34.6-1.87,1.03-1.64.45-2.57-1.15-3.37-1.55-.78-3.12-.91-4.79-.84-1.08.04-1.7.39-1.55,1.6.05.37.14.91-.39,1.04-.46.11-.74-.33-.95-.64-.75-1.07-1.44-.82-2.38-.18-3.98,2.72-5.65,8.54-3.76,13.44,1.06,2.74,1.24,2.8,3.81,1.35.24-.13.47-.29.73-.37.24-.07.58-.17.75-.06.37.25.15.62-.02.9-.25.41-.5.83-.83,1.17-1.22,1.2-.79,1.86.59,2.56,4.38,2.25,8.74,1.41,13.1-2.67,3.54-3.31,4.08-8.28,1.45-12.32-1.02-1.57-1.98-1.93-3.41-.56-.46.44-.99.93-1.79.83Z" style="fill:#ba661a; stroke:#f58a2c; stroke-miterlimit:10; stroke-width:.75px;"/><path d="m30.78,131.25c.8.09,1.33-.39,1.79-.83,1.43-1.37,2.39-1.01,3.41.56,2.63,4.05,2.1,9.01-1.45,12.32-4.36,4.08-8.72,4.93-13.1,2.67-1.37-.7-1.8-1.36-.59-2.56.34-.33.58-.76.83-1.17.17-.28.39-.65.02-.9-.17-.11-.51-.01-.75.06-.26.08-.49.24-.73.37-2.57,1.45-2.75,1.39-3.81-1.35-1.89-4.9-.22-10.72,3.76-13.44.95-.65,1.64-.9,2.38.18.22.31.49.75.95.64.53-.13.44-.66.39-1.04-.15-1.21.47-1.56,1.55-1.6,1.66-.06,3.24.07,4.79.84,1.6.81,2.18,1.73,1.15,3.37-.34.53-.84,1.08-.6,1.87Zm-9.24,2.58c-1.1,2.06-.82,3.59.6,5.15,1.99,2.17,4.72,2.89,7.03,1.86,1.96-.87,2.75-1.9,2.61-3.68-1.72,2.05-3.47,3.88-6.33,2.82-2.61-.97-3.79-3.05-3.92-6.15Zm3.78,1.16c-.36.78.27,1.14.71,1.49.86.71,1.75.69,2.51-.2.23-.27.39-.82.15-.92-.94-.4-2.27,1.25-3-.54-.12.06-.24.11-.36.17Zm-1.42-4.19c1.04.36,1.82-.34,2.69-.26.57.05,1.61.81,1.67-.21.05-.98-1.15-.64-1.84-.67-.94-.03-1.87.06-2.52,1.14Z" style="fill:#fde46e; stroke:#f58a2c; stroke-miterlimit:10; stroke-width:.75px;"/><path d="m21.54,133.83c.13,3.1,1.31,5.18,3.92,6.15,2.85,1.06,4.61-.77,6.33-2.82.14,1.78-.65,2.81-2.61,3.68-2.31,1.03-5.05.31-7.03-1.86-1.43-1.56-1.7-3.09-.6-5.15Z" style="fill:#f58a2c; stroke:#f58a2c; stroke-miterlimit:10; stroke-width:.75px;"/><path d="m25.32,134.98c.13-.06.25-.11.36-.17.74,1.79,2.06.14,3,.54.24.1.08.65-.15.92-.76.89-1.65.91-2.51.2-.43-.36-1.07-.72-.71-1.49Z" style="fill:#fbb74c; stroke:#f58a2c; stroke-miterlimit:10; stroke-width:.75px;"/><path d="m23.9,130.79c.64-1.08,1.58-1.17,2.52-1.14.69.03,1.89-.31,1.84.67-.06,1.01-1.1.26-1.67.21-.87-.08-1.65.62-2.69.26Z" style="fill:#f4b74f; stroke:#f58a2c; stroke-miterlimit:10; stroke-width:.75px;"/><path d="m26.03,160.65c.24.79-.26,1.34-.6,1.87-1.03,1.64-.45,2.57,1.15,3.37,1.55.78,3.12.91,4.79.84,1.08-.04,1.7-.39,1.55-1.6-.05-.37-.14-.91.39-1.04.46-.11.74.33.95.64.75,1.07,1.44.82,2.38.18,3.98-2.72,5.65-8.54,3.76-13.44-1.06-2.74-1.24-2.8-3.81-1.35-.24.13-.47.29-.73.37-.24.07-.58.17-.75.06-.37-.25-.15-.62.02-.9.25-.41.5-.83.83-1.17,1.22-1.2.79-1.86-.59-2.56-4.38-2.25-8.74-1.41-13.1,2.67-3.54,3.31-4.08,8.28-1.45,12.32,1.02,1.57,1.98,1.93,3.41.56.46-.44.99-.93,1.79-.83Z" style="fill:#ba661a; stroke:#f58a2c; stroke-miterlimit:10; stroke-width:.75px;"/><path d="m26.03,160.65c-.8-.09-1.33.39-1.79.83-1.43,1.37-2.39,1.01-3.41-.56-2.63-4.05-2.1-9.01,1.45-12.32,4.36-4.08,8.72-4.93,13.1-2.67,1.37.7,1.8,1.36.59,2.56-.34.33-.58.76-.83,1.17-.17.28-.39.65-.02.9.17.11.51.01.75-.06.26-.08.49-.24.73-.37,2.57-1.45,2.75-1.39,3.81,1.35,1.89,4.9.22,10.72-3.76,13.44-.95.65-1.64.9-2.38-.18-.22-.31-.49-.75-.95-.64-.53.13-.44.66-.39,1.04.15,1.21-.47,1.56-1.55,1.6-1.66.06-3.24-.07-4.79-.84-1.6-.81-2.18-1.73-1.15-3.37.34-.53.84-1.08.6-1.87Zm9.24-2.58c1.1-2.06.82-3.59-.6-5.15-1.99-2.17-4.72-2.89-7.03-1.86-1.96.87-2.75,1.9-2.61,3.68,1.72-2.05,3.47-3.88,6.33-2.82,2.61.97,3.79,3.05,3.92,6.15Zm-3.78-1.16c.36-.78-.27-1.14-.71-1.49-.86-.71-1.75-.69-2.51.2-.23.27-.39.82-.15.92.94.4,2.27-1.25,3,.54.12-.06.24-.11.36-.17Zm1.42,4.19c-1.04-.36-1.82.34-2.69.26-.57-.05-1.61-.81-1.67.21-.05.98,1.15.64,1.84.67.94.03,1.87-.06,2.52-1.14Z" style="fill:#fde46e; stroke:#f58a2c; stroke-miterlimit:10; stroke-width:.75px;"/><path d="m35.28,158.07c-.13-3.1-1.31-5.18-3.92-6.15-2.85-1.06-4.61.77-6.33,2.82-.14-1.78.65-2.81,2.61-3.68,2.31-1.03,5.05-.31,7.03,1.86,1.43,1.56,1.7,3.09.6,5.15Z" style="fill:#f58a2c; stroke:#f58a2c; stroke-miterlimit:10; stroke-width:.75px;"/><path d="m31.5,156.91c-.13.06-.25.11-.36.17-.74-1.79-2.06-.14-3-.54-.24-.1-.08-.65.15-.92.76-.89,1.65-.91,2.51-.2.43.36,1.07.72.71,1.49Z" style="fill:#fbb74c; stroke:#f58a2c; stroke-miterlimit:10; stroke-width:.75px;"/><path d="m32.92,161.1c-.64,1.08-1.58,1.17-2.52,1.14-.69-.03-1.89.31-1.84-.67.06-1.01,1.1-.26,1.67-.21.87.08,1.65-.62,2.69-.26Z" style="fill:#f4b74f; stroke:#f58a2c; stroke-miterlimit:10; stroke-width:.75px;"/><path d="m36.64,181.95c.73.39.76,1.13.9,1.74.43,1.89,1.5,2.13,3.2,1.57,1.65-.54,2.85-1.57,3.98-2.79.73-.79.93-1.47-.04-2.22-.3-.23-.74-.54-.46-1.01.25-.41.75-.29,1.13-.22,1.28.23,1.6-.44,1.81-1.56.89-4.74-2.04-10.04-6.84-12.17-2.69-1.19-2.86-1.11-3.65,1.74-.07.26-.13.54-.25.78-.12.22-.29.54-.49.58-.44.09-.54-.33-.62-.65-.11-.46-.24-.94-.24-1.41.01-1.71-.76-1.87-2.23-1.4-4.69,1.51-7.18,5.19-7.38,11.16-.16,4.85,2.97,8.74,7.69,9.74,1.83.39,2.77-.03,2.81-2.01.01-.64.04-1.36.67-1.85Z" style="fill:#ba661a; stroke:#f58a2c; stroke-miterlimit:10; stroke-width:.75px;"/><path d="m36.64,181.95c-.63.5-.66,1.22-.67,1.85-.04,1.98-.98,2.4-2.81,2.01-4.72-1-7.85-4.89-7.69-9.74.2-5.97,2.68-9.65,7.38-11.16,1.47-.47,2.24-.31,2.23,1.4,0,.47.12.95.24,1.41.08.32.18.74.62.65.2-.04.37-.35.49-.58.13-.24.18-.52.25-.78.79-2.84.97-2.93,3.65-1.74,4.8,2.13,7.74,7.43,6.84,12.17-.21,1.13-.52,1.79-1.81,1.56-.37-.07-.88-.19-1.13.22-.28.46.16.78.46,1.01.96.75.77,1.43.04,2.22-1.13,1.22-2.34,2.24-3.98,2.79-1.7.56-2.76.32-3.2-1.57-.14-.61-.17-1.36-.9-1.74Zm4.71-8.36c-.68-2.23-1.96-3.12-4.07-3.22-2.94-.13-5.38,1.29-6.29,3.65-.77,2-.6,3.29.76,4.45-.24-2.67-.29-5.2,2.48-6.47,2.53-1.16,4.84-.52,7.12,1.58Zm-3.49,1.86c-.29-.81-1-.61-1.56-.56-1.11.11-1.72.75-1.63,1.92.03.36.3.85.55.75.95-.38.72-2.49,2.51-1.74.04-.12.09-.24.14-.38Zm3.97,1.96c-.99.48-1.05,1.53-1.71,2.09-.44.37-1.71.57-1.03,1.32.65.73,1.27-.36,1.77-.83.69-.64,1.28-1.37.98-2.58Z" style="fill:#fde46e; stroke:#f58a2c; stroke-miterlimit:10; stroke-width:.75px;"/><path d="m41.35,173.59c-2.28-2.1-4.59-2.74-7.12-1.58-2.77,1.27-2.72,3.8-2.48,6.47-1.36-1.16-1.53-2.45-.76-4.45.91-2.36,3.35-3.78,6.29-3.65,2.11.09,3.39.98,4.07,3.22Z" style="fill:#f58a2c; stroke:#f58a2c; stroke-miterlimit:10; stroke-width:.75px;"/><path d="m37.86,175.45c-.05.13-.09.25-.14.38-1.79-.75-1.55,1.36-2.51,1.74-.24.1-.52-.4-.55-.75-.09-1.17.52-1.81,1.63-1.92.56-.05,1.26-.25,1.56.56Z" style="fill:#fbb74c; stroke:#f58a2c; stroke-miterlimit:10; stroke-width:.75px;"/><path d="m41.83,177.4c.31,1.22-.29,1.95-.98,2.58-.51.47-1.12,1.56-1.77.83-.68-.76.6-.96,1.03-1.32.67-.56.73-1.61,1.71-2.09Z" style="fill:#f4b74f; stroke:#f58a2c; stroke-miterlimit:10; stroke-width:.75px;"/><path d="m113.02,166.07c-.73-.39-.76-1.13-.9-1.74-.43-1.89-1.5-2.13-3.2-1.57-1.65.54-2.85,1.57-3.98,2.79-.73.79-.93,1.47.04,2.22.3.23.74.54.46,1.01-.25.41-.75.29-1.13.22-1.28-.23-1.6.44-1.81,1.56-.89,4.74,2.04,10.04,6.84,12.17,2.69,1.19,2.86,1.11,3.65-1.74.07-.26.13-.54.25-.78.12-.22.29-.54.49-.58.44-.09.54.33.62.65.11.46.24.94.24,1.41-.01,1.71.76,1.87,2.23,1.4,4.69-1.51,7.18-5.19,7.38-11.16.16-4.85-2.97-8.74-7.69-9.74-1.83-.39-2.77.03-2.81,2.01-.01.64-.04,1.36-.67,1.85Z" style="fill:#ba661a; stroke:#f58a2c; stroke-miterlimit:10; stroke-width:.75px;"/><path d="m113.02,166.07c.63-.5.66-1.22.67-1.85.04-1.98.98-2.4,2.81-2.01,4.72,1,7.85,4.89,7.69,9.74-.2,5.97-2.68,9.65-7.38,11.16-1.47.47-2.24.31-2.23-1.4,0-.47-.12-.95-.24-1.41-.08-.32-.18-.74-.62-.65-.2.04-.37.35-.49.58-.13.24-.18.52-.25.78-.79,2.84-.97,2.93-3.65,1.74-4.8-2.13-7.74-7.43-6.84-12.17.21-1.13.52-1.79,1.81-1.56.37.07.88.19,1.13-.22.28-.46-.16-.78-.46-1.01-.96-.75-.77-1.43-.04-2.22,1.13-1.22,2.34-2.24,3.98-2.79,1.7-.56,2.76-.32,3.2,1.57.14.61.17,1.36.9,1.74Zm-4.71,8.36c.68,2.23,1.96,3.12,4.07,3.22,2.94.13,5.38-1.29,6.29-3.65.77-2,.6-3.29-.76-4.45.24,2.67.29,5.2-2.48,6.47-2.53,1.16-4.84.52-7.12-1.58Zm3.49-1.86c.29.81,1,.61,1.56.56,1.11-.11,1.72-.75,1.63-1.92-.03-.36-.3-.85-.55-.75-.95.38-.72,2.49-2.51,1.74-.04.12-.09.24-.14.38Zm-3.97-1.96c.99-.48,1.05-1.53,1.71-2.09.44-.37,1.71-.57,1.03-1.32-.65-.73-1.27.36-1.77.83-.69.64-1.28,1.37-.98,2.58Z" style="fill:#fde46e; stroke:#f58a2c; stroke-miterlimit:10; stroke-width:.75px;"/><path d="m108.31,174.43c2.28,2.1,4.59,2.74,7.12,1.58,2.77-1.27,2.72-3.8,2.48-6.47,1.36,1.16,1.53,2.45.76,4.45-.91,2.36-3.35,3.78-6.29,3.65-2.11-.09-3.39-.98-4.07-3.22Z" style="fill:#f58a2c; stroke:#f58a2c; stroke-miterlimit:10; stroke-width:.75px;"/><path d="m111.8,172.58c.05-.13.09-.25.14-.38,1.79.75,1.55-1.36,2.51-1.74.24-.1.52.4.55.75.09,1.17-.52,1.81-1.63,1.92-.56.05-1.26.25-1.56-.56Z" style="fill:#fbb74c; stroke:#f58a2c; stroke-miterlimit:10; stroke-width:.75px;"/><path d="m107.83,170.62c-.31-1.22.29-1.95.98-2.58.51-.47,1.12-1.56,1.77-.83.68.76-.6.96-1.03,1.32-.67.56-.73,1.61-1.71,2.09Z" style="fill:#f4b74f; stroke:#f58a2c; stroke-miterlimit:10; stroke-width:.75px;"/><path d="m116.85,147.58c-.73-.39-.76-1.13-.9-1.74-.43-1.89-1.5-2.13-3.2-1.57-1.65.54-2.85,1.57-3.98,2.79-.73.79-.93,1.47.04,2.22.3.23.74.54.46,1.01-.25.41-.75.29-1.13.22-1.28-.23-1.6.44-1.81,1.56-.89,4.74,2.04,10.04,6.84,12.17,2.69,1.19,2.86,1.11,3.65-1.74.07-.26.13-.54.25-.78.12-.22.29-.54.49-.58.44-.09.54.33.62.65.11.46.24.94.24,1.41-.01,1.71.76,1.87,2.23,1.4,4.69-1.51,7.18-5.19,7.38-11.16.16-4.85-2.97-8.74-7.69-9.74-1.83-.39-2.77.03-2.81,2.01-.01.64-.04,1.36-.67,1.85Z" style="fill:#ba661a; stroke:#f58a2c; stroke-miterlimit:10; stroke-width:.75px;"/><path d="m116.85,147.58c.63-.5.66-1.22.67-1.85.04-1.98.98-2.4,2.81-2.01,4.72,1,7.85,4.89,7.69,9.74-.2,5.97-2.68,9.65-7.38,11.16-1.47.47-2.24.31-2.23-1.4,0-.47-.12-.95-.24-1.41-.08-.32-.18-.74-.62-.65-.2.04-.37.35-.49.58-.13.24-.18.52-.25.78-.79,2.84-.97,2.93-3.65,1.74-4.8-2.13-7.74-7.43-6.84-12.17.21-1.13.52-1.79,1.81-1.56.37.07.88.19,1.13-.22.28-.46-.16-.78-.46-1.01-.96-.75-.77-1.43-.04-2.22,1.13-1.22,2.34-2.24,3.98-2.79,1.7-.56,2.76-.32,3.2,1.57.14.61.17,1.36.9,1.74Zm-4.71,8.36c.68,2.23,1.96,3.12,4.07,3.22,2.94.13,5.38-1.29,6.29-3.65.77-2,.6-3.29-.76-4.45.24,2.67.29,5.2-2.48,6.47-2.53,1.16-4.84.52-7.12-1.58Zm3.49-1.86c.29.81,1,.61,1.56.56,1.11-.11,1.72-.75,1.63-1.92-.03-.36-.3-.85-.55-.75-.95.38-.72,2.49-2.51,1.74-.04.12-.09.24-.14.38Zm-3.97-1.96c.99-.48,1.05-1.53,1.71-2.09.44-.37,1.71-.57,1.03-1.32-.65-.73-1.27.36-1.77.83-.69.64-1.28,1.37-.98,2.58Z" style="fill:#fde46e; stroke:#f58a2c; stroke-miterlimit:10; stroke-width:.75px;"/><path d="m112.13,155.94c2.28,2.1,4.59,2.74,7.12,1.58,2.77-1.27,2.72-3.8,2.48-6.47,1.36,1.16,1.53,2.45.76,4.45-.91,2.36-3.35,3.78-6.29,3.65-2.11-.09-3.39-.98-4.07-3.22Z" style="fill:#f58a2c; stroke:#f58a2c; stroke-miterlimit:10; stroke-width:.75px;"/><path d="m115.62,154.09c.05-.13.09-.25.14-.38,1.79.75,1.55-1.36,2.51-1.74.24-.1.52.4.55.75.09,1.17-.52,1.81-1.63,1.92-.56.05-1.26.25-1.56-.56Z" style="fill:#fbb74c; stroke:#f58a2c; stroke-miterlimit:10; stroke-width:.75px;"/><path d="m111.66,152.13c-.31-1.22.29-1.95.98-2.58.51-.47,1.12-1.56,1.77-.83.68.76-.6.96-1.03,1.32-.67.56-.73,1.61-1.71,2.09Z" style="fill:#f4b74f; stroke:#f58a2c; stroke-miterlimit:10; stroke-width:.75px;"/><path d="m126.8,135.67c.39-.73,1.13-.76,1.74-.9,1.89-.43,2.13-1.5,1.57-3.2-.54-1.65-1.57-2.85-2.79-3.98-.79-.73-1.47-.93-2.22.04-.23.3-.54.74-1.01.46-.41-.25-.29-.75-.22-1.13.23-1.28-.44-1.6-1.56-1.81-4.74-.89-10.04,2.04-12.17,6.84-1.19,2.69-1.11,2.86,1.74,3.65.26.07.54.13.78.25.22.12.54.29.58.49.09.44-.33.54-.65.62-.46.11-.94.24-1.41.24-1.71-.01-1.87.76-1.4,2.23,1.51,4.69,5.19,7.18,11.16,7.38,4.85.16,8.74-2.97,9.74-7.69.39-1.83-.03-2.77-2.01-2.81-.64-.01-1.36-.04-1.85-.67Z" style="fill:#ba661a; stroke:#f58a2c; stroke-miterlimit:10; stroke-width:.75px;"/><path d="m126.8,135.67c.5.63,1.22.66,1.85.67,1.98.04,2.4.98,2.01,2.81-1,4.72-4.89,7.85-9.74,7.69-5.97-.2-9.65-2.68-11.16-7.38-.47-1.47-.31-2.24,1.4-2.23.47,0,.95-.12,1.41-.24.32-.08.74-.18.65-.62-.04-.2-.35-.37-.58-.49-.24-.13-.52-.18-.78-.25-2.84-.79-2.93-.97-1.74-3.65,2.13-4.8,7.43-7.74,12.17-6.84,1.13.21,1.79.52,1.56,1.81-.07.37-.19.88.22,1.13.46.28.78-.16,1.01-.46.75-.96,1.43-.77,2.22-.04,1.22,1.13,2.24,2.34,2.79,3.98.56,1.7.32,2.76-1.57,3.2-.61.14-1.36.17-1.74.9Zm-8.36-4.71c-2.23.68-3.12,1.96-3.22,4.07-.13,2.94,1.29,5.38,3.65,6.29,2,.77,3.29.6,4.45-.76-2.67.24-5.2.29-6.47-2.48-1.16-2.53-.52-4.84,1.58-7.12Zm1.86,3.49c-.81.29-.61,1-.56,1.56.11,1.11.75,1.72,1.92,1.63.36-.03.85-.3.75-.55-.38-.95-2.49-.72-1.74-2.51-.12-.04-.24-.09-.38-.14Zm1.96-3.97c.48.99,1.53,1.05,2.09,1.71.37.44.57,1.71,1.32,1.03.73-.65-.36-1.27-.83-1.77-.64-.69-1.37-1.28-2.58-.98Z" style="fill:#fde46e; stroke:#f58a2c; stroke-miterlimit:10; stroke-width:.75px;"/><path d="m118.44,130.96c-2.1,2.28-2.74,4.59-1.58,7.12,1.27,2.77,3.8,2.72,6.47,2.48-1.16,1.36-2.45,1.53-4.45.76-2.36-.91-3.78-3.35-3.65-6.29.09-2.11.98-3.39,3.22-4.07Z" style="fill:#f58a2c; stroke:#f58a2c; stroke-miterlimit:10; stroke-width:.75px;"/><path d="m120.29,134.45c.13.05.25.09.38.14-.75,1.79,1.36,1.55,1.74,2.51.1.24-.4.52-.75.55-1.17.09-1.81-.52-1.92-1.63-.05-.56-.25-1.26.56-1.56Z" style="fill:#fbb74c; stroke:#f58a2c; stroke-miterlimit:10; stroke-width:.75px;"/><path d="m122.25,130.48c1.22-.31,1.95.29,2.58.98.47.51,1.56,1.12.83,1.77-.76.68-.96-.6-1.32-1.03-.56-.67-1.61-.73-2.09-1.71Z" style="fill:#f4b74f; stroke:#f58a2c; stroke-miterlimit:10; stroke-width:.75px;"/><path d="m129.06,113.18c-.24-.79.26-1.34.6-1.87,1.03-1.64.45-2.57-1.15-3.37-1.55-.78-3.12-.91-4.79-.84-1.08.04-1.7.39-1.55,1.6.05.37.14.91-.39,1.04-.46.11-.74-.33-.95-.64-.75-1.07-1.44-.82-2.38-.18-3.98,2.72-5.65,8.54-3.76,13.44,1.06,2.74,1.24,2.8,3.81,1.35.24-.13.47-.29.73-.37.24-.07.58-.17.75-.06.37.25.15.62-.02.9-.25.41-.5.83-.83,1.17-1.22,1.2-.79,1.86.59,2.56,4.38,2.25,8.74,1.41,13.1-2.67,3.54-3.31,4.08-8.28,1.45-12.32-1.02-1.57-1.98-1.93-3.41-.56-.46.44-.99.93-1.79.83Z" style="fill:#ba661a; stroke:#f58a2c; stroke-miterlimit:10; stroke-width:.75px;"/><path d="m129.06,113.18c.8.09,1.33-.39,1.79-.83,1.43-1.37,2.39-1.01,3.41.56,2.63,4.05,2.1,9.01-1.45,12.32-4.36,4.08-8.72,4.93-13.1,2.67-1.37-.7-1.8-1.36-.59-2.56.34-.33.58-.76.83-1.17.17-.28.39-.65.02-.9-.17-.11-.51-.01-.75.06-.26.08-.49.24-.73.37-2.57,1.45-2.75,1.39-3.81-1.35-1.89-4.9-.22-10.72,3.76-13.44.95-.65,1.64-.9,2.38.18.22.31.49.75.95.64.53-.13.44-.66.39-1.04-.15-1.21.47-1.56,1.55-1.6,1.66-.06,3.24.07,4.79.84,1.6.81,2.18,1.73,1.15,3.37-.34.53-.84,1.08-.6,1.87Zm-9.24,2.58c-1.1,2.06-.82,3.59.6,5.15,1.99,2.17,4.72,2.89,7.03,1.86,1.96-.87,2.75-1.9,2.61-3.68-1.72,2.05-3.47,3.88-6.33,2.82-2.61-.97-3.79-3.05-3.92-6.15Zm3.78,1.16c-.36.78.27,1.14.71,1.49.86.71,1.75.69,2.51-.2.23-.27.39-.82.15-.92-.94-.4-2.27,1.25-3-.54-.12.06-.24.11-.36.17Zm-1.42-4.19c1.04.36,1.82-.34,2.69-.26.57.05,1.61.81,1.67-.21.05-.98-1.15-.64-1.84-.67-.94-.03-1.87.06-2.52,1.14Z" style="fill:#fde46e; stroke:#f58a2c; stroke-miterlimit:10; stroke-width:.75px;"/><path d="m119.82,115.76c.13,3.1,1.31,5.18,3.92,6.15,2.85,1.06,4.61-.77,6.33-2.82.14,1.78-.65,2.81-2.61,3.68-2.31,1.03-5.05.31-7.03-1.86-1.43-1.56-1.7-3.09-.6-5.15Z" style="fill:#f58a2c; stroke:#f58a2c; stroke-miterlimit:10; stroke-width:.75px;"/><path d="m123.6,116.91c.13-.06.25-.11.36-.17.74,1.79,2.06.14,3,.54.24.1.08.65-.15.92-.76.89-1.65.91-2.51.2-.43-.36-1.07-.72-.71-1.49Z" style="fill:#fbb74c; stroke:#f58a2c; stroke-miterlimit:10; stroke-width:.75px;"/><path d="m122.18,112.72c.64-1.08,1.58-1.17,2.52-1.14.69.03,1.89-.31,1.84.67-.06,1.01-1.1.26-1.67.21-.87-.08-1.65.62-2.69.26Z" style="fill:#f4b74f; stroke:#f58a2c; stroke-miterlimit:10; stroke-width:.75px;"/><path d="m22.18,112.4c.44-.34,55.29-64.91,55.29-64.91l45.03,62.11,17.83-6.1S77.91,15.04,76.14,17.11C74.37,19.18,1.83,110.14,1.83,110.14l20.35,2.26Z" style="fill:url(#linear-gradient-6); stroke-width:0px;"/><polygon points="90.29 65.18 104.32 53.23 107.2 57.34 91.8 67.25 90.29 65.18" style="fill:url(#linear-gradient-7); mix-blend-mode:multiply; opacity:.65; stroke-width:0px;"/><polygon points="108.95 90.9 121.46 76.98 125.24 82.26 110.11 92.51 108.95 90.9" style="fill:url(#linear-gradient-8); mix-blend-mode:multiply; opacity:.65; stroke-width:0px;"/><path d="m52.4,76.98c.47-.55-.69-10.03-3.63-12.24-2.94-2.21-20.47,14.04-20.66,17.53-.19,3.48,9.28,12.35,11.75,9.45,2.47-2.9,12.53-14.73,12.53-14.73Z" style="fill:#fbe170; mix-blend-mode:screen; opacity:.2; stroke-width:0px;"/><path d="m102.89,51.27s-6.41,14.19-12.6,8.85c-6.19-5.33-11.94-15.29-12.83-15.29s-14.08,22.33-17.55,18.79c-3.46-3.53-9.82-9.75-7.41-15.27,2.4-5.51,22.38-30.65,24.93-29.05,2.55,1.61,25.46,31.96,25.46,31.96Z" style="fill:#fbe170; mix-blend-mode:screen; opacity:.2; stroke-width:0px;"/><path d="m108.95,89.95c1.37-.57,9.6-7.37,6.37-16.69-3.23-9.31-10.98-10.48-17.23-8.73-6.25,1.75-6.29,2.72-6.29,2.72l17.15,22.7Z" style="fill:#fbe170; mix-blend-mode:screen; opacity:.2; stroke-width:0px;"/><path d="m140.33,103.49c-1.29.44-12.16,4.42-17.83-3.9-5.67-8.32,2.74-17.33,2.74-17.33l15.09,21.23Z" style="fill:#fbe170; mix-blend-mode:screen; opacity:.2; stroke-width:0px;"/><path d="m25.88,105.87c-2.93,4.42-8.35,2.43-12.11.66-3.76-1.77,3.1-15.92,7.64-16.82,1.38-.27,3.06.45,4.75,1.58,4.64,3.12,5.09,9.79.92,13.51l-1.19,1.07Z" style="fill:#fbe170; mix-blend-mode:screen; opacity:.2; stroke-width:0px;"/><path d="m92.53,233.72c-.1.03-.2.04-.3.03-3.3-.36-59.13-6.48-81.19-15.88-4.53-1.93-8.14-3.8-9.92-6.29-.64-.89-1.8-7.24-.6-9.59,7.56-14.79,80.54-22.39,92.08-23.5.62-.06,1.04.63.7,1.16l-3.07,4.78c-.1.15-.23.26-.4.31-3.35,1.05-38.66,12.29-26.65,17.23,10.97,4.51,66.68,12.17,81.01,14.08.8.11.88,1.22.12,1.46l-51.77,16.22Z" style="fill:#c37d58; stroke-width:0px;"/><path d="m93.68,227.87s-.07.02-.11.01c-1.94-.2-57.45-6.04-79.57-15.56-49.43-21.28,55.02-33.99,56.17-34.13.01,0,.02,0,.03,0l22.73.26c.33,0,.4.46.09.56-7.81,2.51-38.34,12.84-27.4,17.39,11.48,4.77,72.52,13.06,82.24,14.36.31.04.33.47.04.56l-54.22,16.54Z" style="fill:#df432c; stroke-width:0px;"/><path d="m78.63,231.45c-.06,0-.18-.57-.35-1.6-.16-1.15-.38-2.63-.63-4.43l-.02-.13.2-.06c5.66-1.82,13.8-4.39,22.85-7.21,8.72-2.71,16.64-5.14,22.39-6.86,2.76-.82,5.06-1.5,6.83-2.02,1.62-.46,2.53-.7,2.56-.67s-.83.35-2.4.87c-1.73.57-3.99,1.3-6.7,2.19-5.67,1.82-13.54,4.31-22.26,7.02-9.05,2.81-17.24,5.32-22.98,7.04l.18-.2c.14,1.8.25,3.29.34,4.44.06,1.04.06,1.62,0,1.62Z" style="fill:#e5bc6a; stroke-width:0px;"/><path d="m46.47,225.99c-.06,0-.25-.58-.53-1.64-.29-1.17-.66-2.7-1.11-4.54l-.04-.14.22-.07c5.8-1.8,14.06-4.3,23.23-7.05,8.92-2.67,17.03-5.05,22.91-6.75,2.83-.8,5.18-1.47,6.99-1.99,1.66-.46,2.59-.69,2.62-.65.03.04-.85.34-2.46.86-1.77.56-4.08,1.28-6.86,2.16-5.81,1.8-13.87,4.24-22.79,6.91-9.17,2.74-17.48,5.19-23.36,6.88l.18-.21c.33,1.85.61,3.39.82,4.57.17,1.08.24,1.67.17,1.67Z" style="fill:#e5bc6a; stroke-width:0px;"/><path d="m16.37,219.36c-.06,0-.17-.53-.33-1.52-.15-1.09-.35-2.5-.6-4.23l-.02-.14.22-.05c6.17-1.51,15.41-3.71,25.74-6.13,9.51-2.22,18.13-4.21,24.39-5.61,3.02-.66,5.52-1.22,7.43-1.64,1.76-.37,2.75-.56,2.77-.52.02.04-.92.3-2.64.74-1.88.47-4.35,1.08-7.32,1.81-6.2,1.51-14.78,3.55-24.29,5.78-10.33,2.42-19.62,4.55-25.85,5.94l.2-.2c.13,1.73.23,3.15.31,4.24.05.99.05,1.53,0,1.53Z" style="fill:#e5bc6a; stroke-width:0px;"/><path d="m2.82,198.82c-.02-.16,13.31-1.05,29.78-1.98,16.48-.93,29.85-1.55,29.87-1.39.02.16-13.31,1.05-29.79,1.98-16.47.93-29.84,1.55-29.87,1.39Z" style="fill:#e5bc6a; stroke-width:0px;"/><path d="m63.78,194.5c-.06,0-.2-.3-.39-.86-.2-.64-.45-1.43-.74-2.36l.28.12c-4.57-.12-10.93-.33-17.97-.57-6.96-.25-13.26-.49-17.82-.69-2.13-.1-3.93-.18-5.39-.25-1.27-.07-1.97-.12-1.97-.15,0-.03.71-.03,1.99,0,1.47.03,3.28.08,5.41.13,4.57.13,10.88.33,17.84.57,7.03.25,13.39.49,17.94.69h.26s.02.12.02.12c.18.94.34,1.73.46,2.38.09.56.11.87.05.88Z" style="fill:#e5bc6a; stroke-width:0px;"/><path d="m69.91,191.28c-.06,0-.18-.34-.33-.94-.15-.61-.34-1.48-.55-2.56l.21.15c-2.67-.46-6.08-1.06-9.78-1.73-4.39-.8-8.36-1.55-11.21-2.11-2.86-.56-4.61-.94-4.57-.99.03-.06,1.85.22,4.75.7s6.89,1.19,11.29,1.99c3.69.67,7.08,1.31,9.72,1.82l.2.04v.11c.15,1.08.25,1.96.29,2.57.05.61.04.96-.02.96Z" style="fill:#e5bc6a; stroke-width:0px;"/><path d="m76.49,187.22c-.1,0-.36-1.02-.67-2.57l.13.11c-1.55-.4-3.41-.89-5.39-1.43-2.67-.72-5.08-1.4-6.81-1.9-1.73-.5-2.78-.83-2.74-.87.04-.04,1.15.22,2.93.67,1.78.45,4.21,1.09,6.89,1.81,1.99.54,3.83,1.05,5.35,1.48l.12.04v.07c.21,1.56.29,2.59.19,2.6Z" style="fill:#e5bc6a; stroke-width:0px;"/><path d="m84.33,184.32c-.08,0-.26-.88-.48-2.2l.08.09c-.88-.37-1.87-.77-2.92-1.21-1.6-.67-4.69-1.35-5.72-1.81-1.03-.46-5.12-.99-5.12-.99,0,0,4.43.51,5.5.93,1.07.42,3.97.97,5.57,1.65,1.04.45,2.01.86,2.88,1.24l.08.03v.06c.15,1.33.2,2.22.13,2.22Z" style="fill:#e5bc6a; stroke-width:0px;"/></g></g></g></svg>