<?xml version="1.0" encoding="UTF-8"?><svg id="_Слой_2" xmlns="http://www.w3.org/2000/svg" width="269.48" height="200" viewBox="0 0 269.48 200"><g id="_Слой_1-2"><path d="m0,37.59c.13-.35.32-.7.38-1.07.34-1.99.94-3.89,1.97-5.64,1.94-3.3,4.92-4.87,8.65-5.16,3.52-.27,6.83.53,9.94,2.16.32.17.65.33.98.49.19.11.38.23.58.34.77.61,1.58,1.19,2.31,1.85,1.31,1.18,2.47,2.49,3.35,4.04-.13.19-.26.38-.39.57-.07-.07-.16-.13-.21-.21-1.35-2.48-3.33-4.35-5.72-5.79-3.66-2.21-7.58-3.33-11.88-2.64-1.61.25-3.1.79-4.43,1.77-1.76,1.3-2.89,3.05-3.63,5.07-1.07,2.95-1.32,5.98-.95,9.09.46,3.88,1.73,7.42,4.28,10.43,2.85,3.36,6.49,5.17,10.9,5.44,1.76.1,3.46-.15,5.15-.63.06.2.11.4.17.6-2.44.8-4.93.75-7.44.44-.23-.01-.46-.03-.69-.04-.12-.06-.23-.14-.35-.18-5.63-1.59-9.35-5.25-11.38-10.64-.56-1.49-.81-3.09-1.21-4.64-.08-.29.07-.69-.38-.82,0-1.61,0-3.22,0-4.82Z" style="fill:#91481c; stroke-width:0px;"/><path d="m90.23,0h3.62s.06.1.07.16c-1.25,0-2.51,0-3.76,0,.01-.06.04-.11.07-.16Z" style="fill:#6d6966; stroke-width:0px;"/><path d="m93.16,199.83c0,.07.03.13.08.17h-2.81c.03-.06.07-.12.1-.18.87,0,1.75.01,2.63.02Z" style="fill:#fe8e8e; stroke-width:0px;"/><path d="m93.92.16c-.01-.06-.03-.11-.07-.16C94.45,0,95.05,0,95.66,0c-.03.06-.06.13-.09.19-.55,0-1.1-.02-1.65-.03Z" style="fill:#fe8e8e; stroke-width:0px;"/><path d="m90.23,0c-.03.05-.06.1-.07.16-.48,0-.97.01-1.45.02-.03-.06-.06-.12-.09-.18.54,0,1.07,0,1.61,0Z" style="fill:#fe8e8e; stroke-width:0px;"/><path d="m269.48,139.9c-.06,0-.11-.02-.16-.06,0-.43,0-.87,0-1.3.04-.06.1-.08.17-.05v1.41Z" style="fill:#fe8e8e; stroke-width:0px;"/><path d="m269.32,138.54c0,.44,0,.87,0,1.3-.14.72-.22,1.45-.43,2.15-.81,2.71-2.08,5.2-3.73,7.5-2.4,3.34-5.73,5.13-9.69,5.87-.79.15-1.59.2-2.39.26-2.07.15-3.98-.28-5.7-1.49-.18-.13-.35-.25-.53-.38-.51-.93-1.01-1.86-1.54-2.78-.36-.63-.76-1.24-1.14-1.86-.02-.21-.03-.42-.05-.62-.41-2-.39-3.98.23-5.95.5-1.58,1.35-2.92,2.72-3.87.93-.65,1.91-1.23,2.89-1.81,1-.6,2.04-1.15,3.03-1.77,1.53-.96,2.76-2.22,3.59-3.84.06-.11.14-.21.28-.43.69,1.85.56,3.59.05,5.45.32-.08.56-.1.73-.2.8-.47,1.67-.88,2.37-1.48,2.71-2.3,4.62-5.17,5.77-8.59.41.15.54.55.73.88.69,1.25.99,2.62,1.16,4.02.43,3.52.06,6.94-1.14,10.28,0,.11,0,.21,0,.32.07-.05.14-.1.21-.15.7-.77,1.39-1.55,2.09-2.32.16-.18.33-.35.49-.52Z" style="fill:#301202; stroke-width:0px;"/><path d="m13.32,58.68c.23.01.46.03.69.04-.18,1.39-.49,2.78-.51,4.17-.04,2.71.03,5.42.14,8.12.11,2.74.62,5.43,1.19,8.11,1.32,6.22,3.4,12.16,6.38,17.79.16.3.37.58.58.9.1-1.79.13-3.46.31-5.12.2-1.84.89-3.92,1.47-4.75.05.33.09.59.11.84.15,1.43.21,2.87.48,4.28,1.22,6.35,3.69,12.2,7.05,17.7,1.64,2.69,3.49,5.22,5.56,7.6,2.46,2.82,5.21,5.28,8.53,7.06.18.1.39.13.72.23-.94-3.48-.53-6.81,0-10.14.17.17.25.35.31.54,1.14,3.53,2.84,6.78,4.93,9.83,1.71,2.5,3.68,4.77,6.04,6.66,3.39,2.72,6.84,5.35,10.24,8.06,2.33,1.86,4.48,3.92,6.41,6.2.2.24.43.44.68.7,1.44-3.53,3.91-7.07,6.61-9.53,1.04-.94,2.05-1.92,3.16-2.78,2.09-1.61,4.2-3.2,6.37-4.71,1.81-1.26,3.73-2.37,5.56-3.59,2.46-1.63,4.41-3.76,5.97-6.27,1.18-1.92,2.11-3.95,2.97-6.02.08-.19.2-.35.42-.73.14,4-.29,7.67-1.64,11.37.71-.2,1.22-.32,1.72-.49,3.2-1.1,6.32-2.36,9.29-4,4.58-2.53,8.69-5.62,11.99-9.73,2.76-3.43,4.63-7.25,5.37-11.61.03-.16.12-.31.26-.65,1.66,3.27.99,6.64,1.22,9.97.21-.1.34-.14.43-.21.95-.74,1.93-1.44,2.82-2.25,3.82-3.42,6.99-7.37,9.38-11.93,1.58-3,2.8-6.15,3.69-9.42.73-2.68,1.25-5.4,1.5-8.17.1-1.16.09-2.34.25-3.5.33-2.35.02-4.68-.15-7-.15-2.13-.64-4.23-.5-6.38.02-.27,0-.54,0-.8.22-.14.44-.28.67-.42.02.17.08.33.07.49-.23,2.69.31,5.32.53,7.98.3,3.72.19,7.42-.31,11.11-.71,5.3-2.15,10.39-4.54,15.19-.49.98-1.05,1.93-1.58,2.9-.15.31-.31.63-.46.95-.21.3-.44.59-.64.89-2.96,4.49-6.62,8.32-11.02,11.42-.29.2-.59.39-1,.66.07-1.14.15-2.1.18-3.06.03-.97.01-1.94-.01-2.91-.05-1.71-.15-2.23-.42-2.62-.58,1.47-1.1,3.03-1.8,4.5-1.97,4.16-4.92,7.55-8.45,10.45-5.66,4.64-12.17,7.59-19.15,9.59-.14.04-.3,0-.53,0,1.3-2.76,1.93-5.59,1.99-8.56-.28.34-.49.7-.68,1.08-1.89,3.79-4.54,6.93-8.12,9.24-1.1.71-2.2,1.4-3.31,2.09-3.71,2.3-7.2,4.88-10.38,7.88-.27.26-.44.63-.65.94-.13.08-.25.16-.38.24-.14.07-.32.12-.42.23-2.55,2.69-4.85,5.55-5.83,9.23-.03.12-.11.24-.19.41-.2-.23-.37-.44-.54-.63-.95-1.08-1.86-2.2-2.86-3.23-3.32-3.43-7.13-6.28-10.91-9.17-.07-.06-.18-.07-.27-.1h0c-.08-.07-.15-.15-.23-.22-.33-.25-.66-.51-.99-.76-.25-.22-.5-.45-.76-.65-5.22-3.92-8.89-9.02-11.51-14.95-.11-.24-.22-.48-.34-.72-.01-.02-.05-.04-.21-.15-.14,2.94-.34,5.77,1.1,8.58-.36-.1-.6-.14-.82-.23-3.15-1.3-5.8-3.33-8.18-5.72-5.7-5.7-9.77-12.46-12.63-19.96-1.15-3.01-2-6.1-2.45-9.29-.01-.08-.06-.16-.18-.45-.98,3.22-.47,6.27-.31,9.37-.17-.22-.34-.44-.49-.67-3.04-4.74-5.15-9.9-6.75-15.27-1.76-5.94-2.75-12-2.82-18.2-.03-2.65.17-5.29.6-7.9Z" style="fill:#120e0a; stroke-width:0px;"/><path d="m145.7,97.3c.15-.32.31-.63.46-.95.23.06.47.19.7.17,2.03-.17,4.06-.41,6.1-.54,4.7-.3,9.37-.03,13.95,1.16,7.43,1.92,12.86,6.36,16.37,13.17,1.06,2.06,1.91,4.2,2.42,6.47.1.43.22.79.67,1.03,3.48,1.9,6.42,4.49,9.05,7.41,2.37,2.64,4.65,5.37,6.96,8.06,2.38,2.77,4.84,5.48,7.65,7.82,4.94,4.12,10.44,7.25,16.63,9.06,6.02,1.76,11.84,1.22,17.44-1.66.02.21.03.42.05.62-.07.07-.13.16-.21.2-2.63,1.31-5.41,2.16-8.34,2.4-3.54.29-7.01-.15-10.38-1.29-8.41-2.85-15.44-7.76-21.31-14.38-3.11-3.5-6.13-7.08-9.22-10.6-2.18-2.48-4.68-4.59-7.46-6.36-.34-.22-.7-.4-1.15-.65.39,2.73.59,5.29.58,7.87,0,1.34.02,2.68.03,4.02,0,.65.23,1.11.84,1.46,2.98,1.71,5.55,3.96,8.13,6.2,2.48,2.15,4.9,4.36,7.45,6.42,5.5,4.43,11.49,8.07,18.09,10.66,2.81,1.1,5.68,2.04,8.7,2.29,3.87.32,7.7.02,11.39-1.26,1.89-.66,3.7-1.54,5.54-2.32.18.13.35.25.53.38-3.24,1.92-6.75,3.05-10.44,3.66-5.73.95-11.16-.15-16.46-2.32-6.81-2.79-12.98-6.62-18.65-11.27-2.69-2.21-5.22-4.61-7.89-6.84-1.93-1.6-3.97-3.06-5.97-4.58-.29-.22-.62-.37-1.03-.62-.11,1.2.12,2.27.27,3.34,1.04,7.66,4.8,13.88,10.19,19.23,1.42,1.41,2.82,2.86,4.19,4.33,2.39,2.56,3.68,5.62,3.97,9.11.38,4.58.36,9.16-.23,13.72-.2.08-.4.15-.61.23.15-2.07.34-4.13.43-6.2.12-2.88-.02-5.75-.38-8.61-.25-1.94-.83-3.78-1.9-5.44-1.04-1.61-2.33-3.01-3.65-4.39-1.92-2-3.86-3.99-5.67-6.09-1.93-2.24-3.48-4.74-4.65-7.47-1.86-4.33-2.68-8.87-2.79-13.56-.06-2.64-.1-5.29-.23-7.92-.06-1.33-.23-2.67-.46-3.98-.58-3.26-1.75-6.3-3.42-9.16-3.14-5.36-7.6-9.07-13.53-11.02-3.79-1.24-7.7-1.66-11.65-1.77-1.73-.05-3.47.11-5.21.18-.17,0-.33.05-.5.06-1.79.18-3.59.35-5.38.52Z" style="fill:#934a1e; stroke-width:0px;"/><path d="m88.71.18c.48,0,.97-.01,1.45-.02,1.25,0,2.5,0,3.76,0,.55.01,1.1.02,1.65.03,3.97.36,7.89,1,11.64,2.41.25.09.52.16.75.29,1.82,1.08,3.88,1.3,5.89,1.75,11.45,2.58,20.76,8.46,27.54,18.14.36.52.68,1.07,1.01,1.61.05.08.08.18.18.44-1.79-.68-3.5-1.21-5.29-1.34-1.79-.13-3.58-.21-5.38-.32-.02.08-.04.16-.05.23.31.15.61.32.93.46,3.22,1.39,6.18,3.18,8.7,5.64.07.07.13.15.19.23-.27.07-.54.14-.81.21-1.06-1.17-2.33-2.09-3.64-2.95-2.53-1.67-5.31-2.82-8.12-3.9-.19-.07-.36-.19-.7-.37,2.22-.32,4.26-.25,6.29-.14,2.05.11,4.1.28,6.12.82-.15-.39-.33-.7-.53-1-2.17-3.13-4.79-5.84-7.78-8.19-5.3-4.18-11.18-7.16-17.77-8.73-2.73-.65-5.45-.99-8.22-.27-1,.26-1.99.55-2.99.83-.08-.08-.16-.15-.25-.23,1.68-.99,3.54-1.39,5.58-1.69-.23-.15-.33-.23-.45-.29-.37-.16-.73-.33-1.11-.47-4-1.54-8.17-2.29-12.41-2.54-4.35-.25-8.68-.03-12.92,1.15-2.93.82-5.54,2.14-7.59,4.45-1.06,1.19-1.78,2.58-2.47,4-.08,0-.16,0-.24,0,.09-.35.16-.72.28-1.06.69-1.81,1.74-3.38,3.19-4.68.26-.24.5-.49.82-.8-.5-.21-.87-.36-1.24-.51-2.97-1.17-6.05-1.95-9.22-2.15-2.16-.14-4.34,0-6.5.15-3.5.25-6.83,1.24-10.02,2.65-5.21,2.3-9.79,5.49-13.42,9.93-1.03,1.26-1.99,2.62-2.73,4.06-.77,1.51-1.07,3.22-1.31,4.91-.03.21-.12.4-.18.61-.07-.01-.14-.03-.2-.04.17-1.52.34-3.04.54-4.77-.73.61-1.33,1.08-1.88,1.59-2.72,2.54-5.15,5.34-7.31,8.37-.19-.11-.38-.23-.58-.34,2.1-2.99,4.47-5.76,7.14-8.27.54-.5,1.06-1.05,1.66-1.45,1.15-.76,1.9-1.81,2.66-2.93,3.16-4.63,7.36-8.09,12.25-10.77C51.11,1.97,56.96.4,63.21.46c4.4.04,8.63.94,12.67,2.69.62.27,1.07.25,1.66-.09,2.35-1.35,4.94-2.01,7.59-2.44,1.19-.19,2.39-.29,3.58-.44Z" style="fill:#120f0d; stroke-width:0px;"/><path d="m140.87,29.96c.27-.07.54-.14.81-.21,1.09-.16,2.18-.35,3.27-.47,1.58-.18,3.14,0,4.68.37,3.09.73,5.3,2.59,6.77,5.37,1.31,2.48,1.84,5.16,1.88,7.93.05,4.23-.84,8.25-3.14,11.85-.7,1.09-1.61,2.04-2.43,3.06-.23.28-.48.55-.71.83-.22.14-.44.28-.67.41-1.58,1.19-3.27,2.2-5.21,2.69-.84.21-1.68.42-2.53.57-1.42.25-2.85.25-4.27,0-.82-.15-1.63-.3-2.45-.45,0-.28.02-.56.03-.84,2.38.9,4.82,1.07,7.3.57,5.05-1.02,8.72-3.9,11.1-8.45,1.68-3.21,2.35-6.66,2.29-10.27-.04-2.27-.4-4.47-1.29-6.55-1.36-3.17-3.6-5.38-7.06-6.13-2.56-.56-5.12-.42-7.64.28-3.67,1.03-6.82,2.89-9.28,5.84-.6.71-1.11,1.5-1.66,2.25-.16-.2-.31-.41-.47-.61.11-.08.26-.13.31-.23.7-1.4,1.86-2.41,2.93-3.5,1.06-1.07,2.28-1.94,3.62-2.6,1.25-.61,2.53-1.14,3.8-1.71Z" style="fill:#91481c; stroke-width:0px;"/><path d="m93.16,199.83c-.88,0-1.75-.01-2.63-.02-1.38-.25-2.65-.72-3.61-1.8-.27-.31-.54-.27-.89-.25-.76.05-1.54.11-2.29.01-1.11-.14-2-.72-2.63-1.66-.76-1.12-1.32-2.33-1.57-3.66-.05-.26-.11-.52-.19-.86-.27.08-.51.14-.75.23-3.63,1.38-7.31,1.53-11.02.43-.56-.17-.99-.11-1.51.13-2.3,1.07-4.62.98-6.87-.13-.64-.32-1.18-.85-1.75-1.27-.91,0-1.84.07-2.76-.02-1.2-.11-2.11-.77-2.77-1.78-2.13-3.27-2.24-6.68-.49-10.1,1.76-3.44,4.63-5.27,8.52-5.44,1.76-.07,3.47.17,5.15.68.25.08.52.08.78.12.19.09.39.17.58.26,2.25,1.11,4.53,2.13,6.96,2.78,2.65.71,5.36.75,8.05.35,2.29-.34,4.51-.97,6.43-2.35.31-.22.56-.55.83-.83.22-.06.43-.12.65-.18-.19,1.97-.37,3.94-.56,5.94.2.02.4.05.59.05,1.71-.05,3.38.21,5,.75.18.06.39.03.58.05.2.09.39.18.59.27,2.1.86,4.15,1.84,6.3,2.55,2.43.8,4.96.95,7.52.68,2.05-.22,4.02-.63,5.89-1.49.94-.43,1.88-.87,2.53-1.74.22-.08.45-.16.67-.23-.18,1.69-.26,3.4-.56,5.07-1.5,8.54-8.83,12.67-14.15,13.26-2.47.27-4.87.13-7.23-.61-.44-.14-.8-.1-1.23.09-.69.31-1.45.48-2.18.71Zm-.17-9.41c.09,0,.17-.02.26-.03-.03.4-.07.79-.08,1.19-.04,1.49.12,2.94.82,4.29.71,1.38,1.74,2.34,3.3,2.7,1.9.44,3.81.61,5.77.48,5.64-.39,12.28-4.59,14-11.6.37-1.52.61-3.05.66-4.73-.45.26-.78.47-1.13.66-.35.19-.7.39-1.07.55-4.42,1.85-8.97,2.14-13.56.87-2.11-.59-4.13-1.55-6.18-2.37-2.04-.81-4.13-1.36-6.34-1.32-4.01.09-6.89,1.96-8.54,5.6-1.42,3.13-1.2,6.19.79,9.05.95,1.36,3.09,1.89,4.47,1.11-1.11-2.34-1.55-4.82-1.26-7.58.05.42.09.67.12.93.26,2.31.75,4.55,1.91,6.61.48.86,1.15,1.47,2.04,1.84,1.7.71,3.45.76,5.21.25.33-.09.63-.29.97-.45-2.29-2.38-3.29-4.96-2.16-8.05Zm-26.93,1.3c-2.67-3.14-3.37-6.17-1.95-8.22-.02.43-.05.79-.06,1.15-.04,1.25.02,2.48.48,3.66.69,1.79,1.83,3.03,3.8,3.5,2.9.68,5.77.68,8.63-.12.82-.23,1.61-.58,2.38-.86.08-2.63.86-4.86,2.43-6.81,1.6-2,3.74-3.06,6.18-3.5.4-1.55.59-3,.65-4.54-.94.48-1.74.98-2.6,1.31-4.77,1.84-9.6,1.96-14.44.32-1.68-.57-3.28-1.33-4.93-1.99-2.52-1.02-5.09-1.54-7.84-1.19-6.3.8-10.29,8.85-6.27,14.47.98,1.37,2.8,1.89,4.54,1.21-1.15-2.35-1.56-4.85-1.3-7.64.12.83.21,1.48.3,2.13.27,2.01.84,3.93,1.91,5.66.26.42.6.84,1.01,1.09,2.25,1.41,4.58,1.39,7.07.37Z" style="fill:#70706e; stroke-width:0px;"/><path d="m95.59,181.54c-.2-.09-.39-.18-.59-.27.04-.23.06-.47.11-.69.63-2.85.94-5.74,1.1-8.65.18-3.26-.16-6.48-.67-9.7-.16-1.01-.34-2.02-.51-3.03-1.17-.11-2.23-.21-3.34-.31-.07.32-.16.6-.19.89-.16,1.33-.28,2.66-.47,3.99-.53,3.57-1.09,7.14-1.64,10.71-.22.06-.43.12-.65.18.23-1.48.48-2.97.7-4.45.39-2.64.77-5.29,1.13-7.93.15-1.12.22-2.24.34-3.47-4.88-.71-9.53-1.89-13.93-3.92-4.42-2.04-8.3-4.81-11.69-8.61.06.37.08.53.12.68,1.13,4.31,1.93,8.69,2.25,13.12.36,4.92-.04,9.82-1.21,14.64-.19-.09-.39-.17-.58-.26.36-2.51.78-5.02,1.07-7.54.38-3.27.19-6.55-.27-9.81-.55-3.91-1.25-7.79-2.36-11.58-.15-.5-.39-1-.69-1.42-1.99-2.84-3.58-5.87-4.54-9.22.33.25.66.51.99.76.08.08.15.15.23.23,0,0,0,0,0,0-.29.38.04.68.16.98,2.78,7.07,7.55,12.4,14.16,16.1,5.85,3.28,12.22,4.82,18.85,5.44.45.04.9.05,1.43.08-.91-4.86-2.32-9.41-3.96-13.88-.8-.16-1.57-.27-2.3-.48-2.99-.83-5.47-2.44-7.3-4.99.13-.08.25-.16.38-.24.32.29.66.55.95.86,1.92,2.1,4.29,3.38,7.06,3.94.28.06.57,0,.77,0-.23-1.97-.53-3.85-.65-5.74-.12-1.9-.06-3.82.79-5.6.11.15.13.3.11.44-.09.63-.25,1.25-.29,1.88-.22,3.48.16,6.88,1.32,10.18,1.67,4.77,3.17,9.59,3.99,14.59.41,2.5.88,5.02,1.04,7.54.32,4.9-.09,9.76-1.21,14.55Z" style="fill:#934a1e; stroke-width:0px;"/><path d="m118.51,181.31c-.22.08-.45.16-.67.23.4-2.57.82-5.14,1.19-7.72.3-2.12.57-4.24.8-6.36.27-2.39.57-4.78.7-7.18.12-2.2.05-4.42.02-6.63-.02-1.44-.11-2.87-.14-4.31-.03-1.5.05-3-.04-4.5-.09-1.5-.3-2.99-.52-4.47-.16-1.04-.45-2.07-.67-3.1,1.45,2.94,1.74,6.13,2.02,9.32,2.36-.69,4.65-1.41,6.97-2.02,2.33-.61,4.73-.88,7.13-1.03,2.39-.15,4.75.26,7.21.59-.09-.29-.11-.42-.16-.54-.91-2.2-1.61-4.47-1.98-6.82-.41-2.58-.73-5.17-.28-7.78.18-1.02.29-2.06.97-3.17-.55,3.76-.6,7.28,0,10.81.89,5.31,3.05,10.05,6.59,14.08,4.3,4.89,9.49,8.49,15.74,10.52,3.97,1.29,7.89,2.76,11.81,4.2,1.76.65,3.46,1.44,4.99,2.55.74.53,1.27,1.19,1.39,2.11.17,1.36.44,2.71.46,4.08.03,2.04-.12,4.08-.19,6.11-.25,0-.51,0-.76,0,.43-3.37.49-6.73-.18-10.08-.13-.64-.42-1.13-.93-1.49-.65-.46-1.3-.96-2.03-1.28-2.36-1.02-4.73-2.03-7.14-2.92-2.94-1.09-5.93-2.06-8.9-3.08-.14-.05-.3-.07-.49-.12,1.56,6.13,1.36,12.24.67,18.37-.22.08-.44.15-.66.23.17-2.26.4-4.52.5-6.79.13-2.64-.05-5.29-.4-7.9-.16-1.25-.58-2.46-.9-3.69-.13-.48-.45-.78-.93-.97-2.5-1-4.74-2.48-6.89-4.08-.67-.5-1.31-1.02-2.01-1.56-3.96,2.09-8.13,3.46-12.48,4.34-4.34.88-8.72,1.22-13.15,1.24.15.16.29.24.44.29,1.79.66,3.58,1.31,5.36,1.99,2,.76,3.98,1.57,5.77,2.79.9.62,1.53,1.39,1.66,2.5.16,1.39.39,2.79.41,4.18.03,1.94-.11,3.87-.18,5.81-.27,0-.53,0-.8-.01.44-3.34.49-6.66-.13-9.99-.14-.75-.47-1.34-1.09-1.73-1.02-.63-2.03-1.33-3.14-1.77-3.67-1.44-7.37-2.79-11.07-4.16-.33-.12-.71-.15-1.15-.23-.62,7.13-1.45,14.16-2.75,21.12Zm2.82-21.72c10.02.64,19.71-.53,28.86-5.09-.11-.18-.14-.29-.21-.35-2.75-2.5-5.03-5.37-6.75-8.67-.13-.25-.48-.48-.76-.54-1.28-.25-2.56-.5-3.86-.61-3.74-.32-7.41.16-11.03,1.08-2.17.55-4.3,1.22-6.37,2.03-.07,1.26-.16,2.46-.19,3.66-.01.5.1,1,.12,1.5.07,2.27.12,4.54.19,7Z" style="fill:#934a1e; stroke-width:0px;"/><path d="m181.08,180.3c.25,0,.51,0,.76,0,2.84.1,5.65.47,8.41,1.15,2.36.59,4.71,1.22,7.09,1.76,1.46.34,2.95.58,4.46.3,1.1-.2,2.14-.52,2.93-1.38.2-.08.4-.15.61-.23-.05,1.8-.02,3.61-.16,5.41-.19,2.36-.9,4.58-2.11,6.64-.88,1.49-2.06,2.63-3.63,3.34-2.71,1.23-5.53,1.81-8.5,1.3-.78-.14-1.52-.46-2.41-.74-1.2.87-2.68,1.33-4.28,1.43-1.73.1-3.42-.12-4.97-.93-.49-.26-.91-.27-1.42-.13-2.35.64-4.59.33-6.65-.96-2.01-1.26-3.05-3.14-3.18-5.51-.12-2.12.37-4.12,1.38-5.99,1.04-1.93,2.57-3.31,4.63-4.1,2.28-.88,4.65-1.21,7.06-1.38Zm-4.44,8.26c-.05.37-.06.53-.09.68-.25,1.26-.33,2.52-.11,3.79.37,2.21,1.77,4.9,5.05,5.39,1.15.17,2.34.2,3.49.11,1.11-.09,2.21-.43,2.96-1.16-.54-1.11-1.1-2.1-1.5-3.15-.42-1.11-.48-2.29-.14-3.46.16-.55.34-1.11,1.04-1.48-.11.38-.18.63-.25.88-.61,2.09-.28,4.02.91,5.85.79,1.21,1.88,1.84,3.3,2.02,2.78.35,5.39-.18,7.9-1.36,1.44-.67,2.52-1.73,3.32-3.1,1.74-3,2.22-6.27,2.13-9.67,0-.18-.06-.36-.09-.57-.17.04-.27.04-.35.08-1.63.89-3.37,1.11-5.16.77-2-.38-3.99-.82-5.96-1.34-3.57-.94-7.15-1.75-10.85-1.82-2.73-.05-5.4.31-7.97,1.29-1.65.63-2.95,1.69-3.91,3.17-.85,1.31-1.34,2.76-1.57,4.3-.18,1.18-.2,2.35.16,3.48.87,2.72,2.87,4.1,5.6,4.52,1.11.17,2.23.14,3.44-.31-1.2-1.27-1.89-2.64-2.18-4.23-.29-1.59-.23-3.11.85-4.68Z" style="fill:#70706e; stroke-width:0px;"/><path d="m137.83,178.07c.27,0,.53,0,.8.01,2.58-.02,5.12.36,7.62.93,2.37.54,4.72,1.19,7.07,1.79,1.56.39,3.14.65,4.75.51,1.25-.11,2.42-.45,3.34-1.38.22-.08.44-.15.66-.23-.03,1.7,0,3.41-.12,5.11-.2,2.68-1,5.17-2.48,7.43-.72,1.09-1.64,1.94-2.79,2.54-2.71,1.4-5.59,2.02-8.63,1.61-.91-.12-1.79-.48-2.79-.77-2.42,1.63-5.18,1.75-8.04.96-.64-.18-1.21-.67-1.84-.74-.63-.07-1.29.28-1.95.35-1.84.19-3.61-.06-5.22-1.02-2.14-1.28-3.3-3.17-3.43-5.67-.13-2.6.56-4.97,2.06-7.08.95-1.34,2.2-2.31,3.74-2.92,2.33-.92,4.75-1.35,7.24-1.42Zm6.26,8.88s-.02-.02-.02-.02c-.07.32-.12.65-.21.96-.33,1.11-.47,2.24-.16,3.37.73,2.66,2.02,4.27,4.46,4.51,2.83.28,5.53-.2,8.07-1.52.96-.5,1.81-1.14,2.44-2.04,2.37-3.37,2.89-7.17,2.71-11.2-.17.04-.27.05-.35.09-1.45.82-3.02,1.08-4.65.85-1.39-.19-2.78-.41-4.14-.75-3.92-1-7.81-2.12-11.88-2.4-3.28-.23-6.48.12-9.56,1.33-1.31.51-2.39,1.33-3.25,2.44-1.57,2.06-2.25,4.41-2.12,6.96.13,2.44,1.37,4.21,3.57,5.31,1.39.69,2.87.87,4.4.71.41-.04.81-.17,1.27-.27-2.5-3.57-2.97-6.76-1.28-8.84-.28,1.52-.48,2.96-.18,4.43.45,2.18,1.46,3.98,3.6,4.87,2.08.87,4.24.89,6.38.19.59-.19,1.18-.44,1.63-.94-.21-.3-.39-.54-.55-.79-.97-1.43-1.5-2.99-1.37-4.73.07-.97.27-1.92,1.18-2.52Z" style="fill:#70706e; stroke-width:0px;"/><path d="m140.87,29.96c-1.27.57-2.55,1.09-3.8,1.71-1.35.66-2.56,1.53-3.62,2.6-1.07,1.09-2.23,2.1-2.93,3.5-.05.1-.21.16-.31.23-.13-.1-.27-.2-.38-.32-.99-1.04-1.96-2.09-2.96-3.13-.14-.14-.34-.22-.51-.33l-.13.16c.21.24.42.47.63.72.59.68,1.18,1.36,1.75,2.05,1.55,1.9,2.8,3.98,3.73,6.25.7,1.73,1.34,3.49,1.91,5.26.71,2.22,1.19,4.5,1.46,6.82.18,1.58.46,3.17.52,4.76.07,1.87-.19,3.72-.67,5.53-.05.19-.03.39-.04.59.93-1.38,1.14-2.92,1.37-4.46.82.15,1.63.31,2.45.45,1.42.25,2.85.26,4.27,0,.85-.15,1.69-.35,2.53-.57,1.94-.49,3.62-1.5,5.21-2.69,0,.27.03.54,0,.8-.14,2.15.35,4.25.5,6.38.17,2.33.48,4.66.15,7-.16,1.15-.15,2.33-.25,3.5-.25,2.77-.77,5.49-1.5,8.17-.89,3.27-2.11,6.42-3.69,9.42-2.39,4.55-5.56,8.5-9.38,11.93-.89.8-1.88,1.5-2.82,2.25-.09.07-.22.11-.43.21-.23-3.33.44-6.7-1.22-9.97-.14.34-.23.49-.26.65-.74,4.36-2.61,8.18-5.37,11.61-3.3,4.11-7.41,7.2-11.99,9.73-2.97,1.64-6.09,2.91-9.29,4-.5.17-1.01.29-1.72.49,1.35-3.7,1.78-7.37,1.64-11.37-.22.37-.34.54-.42.73-.86,2.07-1.79,4.1-2.97,6.02-1.55,2.52-3.51,4.64-5.97,6.27-1.84,1.22-3.75,2.33-5.56,3.59-2.17,1.51-4.28,3.09-6.37,4.71-1.11.86-2.12,1.84-3.16,2.78-2.7,2.45-5.16,6-6.61,9.53-.25-.26-.48-.47-.68-.7-1.93-2.29-4.08-4.34-6.41-6.2-3.39-2.71-6.85-5.34-10.24-8.06-2.36-1.9-4.33-4.17-6.04-6.66-2.09-3.05-3.79-6.3-4.93-9.83-.06-.19-.14-.37-.31-.54-.52,3.34-.94,6.66,0,10.14-.33-.1-.54-.13-.72-.23-3.31-1.78-6.06-4.24-8.53-7.06-2.07-2.38-3.92-4.91-5.56-7.6-3.35-5.5-5.83-11.36-7.05-17.7-.27-1.4-.32-2.85-.48-4.28-.03-.26-.07-.51-.11-.84-.58.83-1.28,2.91-1.47,4.75-.18,1.66-.21,3.33-.31,5.12-.21-.32-.42-.6-.58-.9-2.97-5.62-5.05-11.57-6.38-17.79-.57-2.68-1.08-5.37-1.19-8.11-.11-2.71-.18-5.42-.14-8.12.02-1.39.33-2.78.51-4.17,2.51.3,5,.35,7.44-.44.15,1.49.28,2.98,1.16,4.27.06-.21.03-.4,0-.6-.17-1.42-.49-2.84-.48-4.26,0-1.86.13-3.74.43-5.57.37-2.23.91-4.44,1.5-6.62,1.34-4.93,3.48-9.45,7.02-13.22.42-.45.72-1.02,1.07-1.53.07-.07.13-.14.2-.2.02-.02.04-.05.05-.07-.02.03-.03.05-.05.08-.07.07-.14.13-.2.2-.3.2-.63.36-.88.61-1.05,1.06-2.08,2.15-3.12,3.23-.88-1.54-2.04-2.86-3.35-4.04-.73-.66-1.54-1.24-2.31-1.85,2.16-3.03,4.58-5.83,7.31-8.37.55-.51,1.15-.98,1.88-1.59-.19,1.73-.37,3.25-.54,4.77.07.01.14.03.2.04.06-.2.15-.4.18-.61.23-1.69.53-3.4,1.31-4.91.74-1.44,1.7-2.8,2.73-4.06,3.63-4.43,8.21-7.63,13.42-9.93,3.19-1.41,6.53-2.4,10.02-2.65,2.16-.16,4.35-.28,6.5-.15,3.17.2,6.26.98,9.22,2.15.37.15.74.3,1.24.51-.31.31-.56.56-.82.8-1.44,1.3-2.5,2.87-3.19,4.68-.13.34-.19.7-.28,1.06-.22.32-.43.64-.25,1.17.14-.27.24-.44.31-.62.07-.18.12-.37.17-.56.69-1.41,1.41-2.8,2.47-4,2.06-2.31,4.67-3.63,7.59-4.45,4.24-1.19,8.57-1.4,12.92-1.15,4.24.25,8.42,1,12.41,2.54.37.14.74.31,1.11.47.11.05.21.13.45.29-2.03.3-3.9.7-5.58,1.69-.72.3-1.41.64-1.85,1.39.7-.39,1.4-.77,2.1-1.16,1-.28,1.99-.58,2.99-.83,2.76-.71,5.49-.38,8.22.27,6.59,1.57,12.47,4.55,17.77,8.73,2.99,2.35,5.61,5.06,7.78,8.19.2.29.38.6.53,1-2.02-.55-4.07-.71-6.12-.82-2.03-.11-4.07-.19-6.29.14.34.18.51.3.7.37,2.81,1.08,5.59,2.24,8.12,3.9,1.31.86,2.58,1.77,3.64,2.95Zm-106.91,24.31c-.06.15-.19.3-.18.44.08,1.02-.19,1.96-.61,2.88-.12.26-.15.57-.22.86,0,.08.01.15.02.23-.19.26-.46.5-.57.79-1.25,3.57-2.05,7.23-2.05,11.03,0,2.07-.11,4.14.23,6.19.43,2.56,1.01,5.08,1.99,7.51.91,2.24,2.04,4.37,3.66,6.16,2.12,2.36,4.42,4.55,7.11,6.27,1.91,1.22,3.84,2.42,5.82,3.5,1.64.89,3.38,1.59,5.07,2.37.01.43.02.87.04,1.3.06,1.12.36,2.16.89,3.15,1.2,2.25,3.13,3.59,5.45,4.47,2.63,1,5.4,1.13,8.16,1.31.82.05,1.66-.14,2.49-.16,2.16-.04,4.24-.48,6.25-1.25,2.99-1.15,5.09-3.14,5.72-6.41,2.27-.07,4.54.19,6.81-.18,1.21-.2,2.45-.23,3.66-.47,1.47-.3,2.91-.72,4.35-1.11,3.74-1.01,7.2-2.63,10.46-4.71,3.36-2.14,6.18-4.9,8.68-7.95,2.03-2.48,3.75-5.18,4.99-8.18,1.54-3.71,2.35-7.56,2.43-11.56.02-1.17,0-2.34,0-3.52,0-.6,0-1.21-.02-1.81-.05-1.5-.19-3-.15-4.5.06-2.13.32-4.25.35-6.38.03-2.03.2-4.08-.17-6.1-.22-1.21-.27-2.45-.54-3.64-.71-3.22-1.92-6.24-3.68-9.04-1.66-2.64-3.52-5.11-5.99-7.05-2.37-1.87-4.97-3.37-7.76-4.52-4.6-1.9-9.43-2.84-14.36-3.24-1.8-.15-3.64-.26-5.47-.07-1.42.15-2.86.11-4.29.23-1.29.11-2.58.25-3.85.48-2.23.4-4.44.92-6.57,1.71-.36.13-.67.13-1.05-.02-2.46-1-5.04-1.54-7.66-1.74-2.8-.22-5.59,0-8.34.67-2.36.58-4.56,1.53-6.63,2.75-1.17.69-2.29,1.51-3.3,2.42-2.24,2.02-4.13,4.35-5.74,6.91-1.6,2.54-2.73,5.28-3.55,8.15-.36,1.28-.62,2.59-.85,3.9-.24,1.37-.42,2.76-.6,4.14-.15,1.19-.27,2.38-.4,3.56,0,.07,0,.15,0,.22ZM71.31,12.18c-.03-.06-.05-.11-.08-.16-.02.02-.06.05-.06.07,0,.06.02.12.03.19.04-.03.07-.07.1-.1Z" style="fill:#75401d; stroke-width:0px;"/><path d="m21.29,57.68c-1.68.47-3.39.73-5.15.63-4.41-.26-8.05-2.08-10.9-5.44-2.55-3-3.82-6.54-4.28-10.43-.37-3.11-.12-6.14.95-9.09.73-2.02,1.87-3.77,3.63-5.07,1.32-.98,2.82-1.51,4.43-1.77,4.31-.68,8.23.44,11.88,2.64,2.39,1.44,4.36,3.32,5.72,5.79.05.08.14.14.21.21-.68,1.28-1.36,2.56-2.04,3.83-.31-.12-.62-.22-.92-.37-2.95-1.52-6.08-2.21-9.39-2.02-1.44.08-2.86.35-4.12,1.12-2.69,1.63-3.69,4.4-3.16,7.55.56,3.31,2.49,5.71,5.4,7.33,2.49,1.38,5.17,1.95,8.01,1.86-.09,1.07-.17,2.15-.26,3.22Z" style="fill:#feac36; stroke-width:0px;"/><path d="m25.73,39.01c.68-1.28,1.36-2.56,2.04-3.83.13-.19.26-.38.39-.57,1.04-1.08,2.06-2.17,3.12-3.23.25-.25.58-.41.88-.61,0,0,0,0,0,0-.35.51-.65,1.08-1.07,1.53-3.54,3.78-5.68,8.29-7.02,13.22-.59,2.18-1.13,4.39-1.5,6.62-.3,1.83-.43,3.71-.43,5.57,0,1.42.31,2.84.48,4.26.02.19.06.38,0,.6-.88-1.29-1-2.78-1.16-4.27-.06-.2-.11-.4-.17-.6.09-1.07.17-2.15.26-3.22.03-.22.06-.44.09-.66.02-.1.05-.19.06-.29.57-4.53,1.65-8.93,3.42-13.15.1-.24.14-.51.21-.76.14-.2.27-.4.41-.6Z" style="fill:#301202; stroke-width:0px;"/><path d="m246.85,153.76c-1.85.78-3.66,1.66-5.54,2.32-3.69,1.29-7.52,1.58-11.39,1.26-3.02-.25-5.89-1.19-8.7-2.29-6.6-2.59-12.58-6.23-18.09-10.66-2.55-2.05-4.97-4.27-7.45-6.42-2.58-2.23-5.15-4.49-8.13-6.2-.61-.35-.84-.81-.84-1.46,0-1.34-.04-2.68-.03-4.02,0-2.58-.2-5.14-.58-7.87.45.25.81.44,1.15.65,2.78,1.78,5.28,3.89,7.46,6.36,3.09,3.52,6.11,7.1,9.22,10.6,5.87,6.62,12.9,11.52,21.31,14.38,3.37,1.14,6.84,1.58,10.38,1.29,2.93-.24,5.7-1.09,8.34-2.4.08-.04.14-.14.21-.2.38.62.78,1.23,1.14,1.86.53.92,1.03,1.85,1.54,2.78Z" style="fill:#feac36; stroke-width:0px;"/><path d="m266.74,141.38c-.07.05-.14.1-.21.15,0-.11,0-.21,0-.32.07.06.13.12.2.17Z" style="fill:#fff; stroke-width:0px;"/><path d="m204.72,182.15c-.79.86-1.83,1.18-2.93,1.38-1.51.27-3,.04-4.46-.3-2.37-.55-4.72-1.18-7.09-1.76-2.76-.68-5.57-1.05-8.41-1.15.07-2.04.22-4.08.19-6.11-.02-1.36-.28-2.72-.46-4.08-.12-.92-.65-1.58-1.39-2.11-1.53-1.11-3.23-1.9-4.99-2.55-3.92-1.44-7.84-2.91-11.81-4.2-6.25-2.03-11.45-5.63-15.74-10.52-3.55-4.03-5.7-8.77-6.59-14.08-.59-3.53-.54-7.05,0-10.81-.68,1.11-.79,2.15-.97,3.17-.45,2.61-.13,5.2.28,7.78.37,2.35,1.07,4.62,1.98,6.82.05.12.08.25.16.54-2.46-.34-4.82-.74-7.21-.59-2.4.15-4.8.42-7.13,1.03-2.32.61-4.61,1.33-6.97,2.02-.28-3.19-.57-6.38-2.02-9.32.23,1.03.51,2.05.67,3.1.23,1.48.43,2.98.52,4.47.09,1.49.01,3,.04,4.5.03,1.44.12,2.87.14,4.31.02,2.21.1,4.42-.02,6.63-.13,2.4-.43,4.79-.7,7.18-.24,2.12-.5,4.24-.8,6.36-.37,2.58-.79,5.15-1.19,7.72-.64.87-1.59,1.31-2.53,1.74-1.87.85-3.85,1.27-5.89,1.49-2.57.27-5.1.12-7.52-.68-2.15-.71-4.2-1.69-6.3-2.55,1.12-4.79,1.54-9.65,1.21-14.55-.17-2.53-.63-5.04-1.04-7.54-.82-5-2.32-9.82-3.99-14.59-1.16-3.3-1.54-6.7-1.32-10.18.04-.63.19-1.25.29-1.88.02-.14,0-.29-.11-.44-.85,1.79-.91,3.7-.79,5.6.12,1.89.42,3.77.65,5.74-.2,0-.5.05-.77,0-2.77-.56-5.14-1.84-7.06-3.94-.29-.31-.63-.58-.95-.86.22-.32.38-.69.65-.94,3.17-3,6.66-5.58,10.38-7.88,1.11-.69,2.22-1.38,3.31-2.09,3.58-2.31,6.22-5.44,8.12-9.24.19-.37.4-.74.68-1.08-.06,2.97-.69,5.8-1.99,8.56.23,0,.39.04.53,0,6.98-2,13.5-4.94,19.15-9.59,3.53-2.9,6.49-6.29,8.45-10.45.7-1.47,1.22-3.03,1.8-4.5.27.39.38.92.42,2.62.03.97.04,1.94.01,2.91-.03.96-.11,1.92-.18,3.06.41-.27.71-.45,1-.66,4.41-3.1,8.06-6.92,11.02-11.42.2-.31.42-.6.64-.89,1.79-.17,3.59-.35,5.38-.52.17-.02.33-.06.5-.06,1.74-.07,3.48-.23,5.21-.18,3.95.11,7.86.52,11.65,1.77,5.93,1.95,10.39,5.65,13.53,11.02,1.67,2.86,2.85,5.9,3.42,9.16.23,1.31.4,2.65.46,3.98.13,2.64.16,5.28.23,7.92.12,4.69.93,9.23,2.79,13.56,1.17,2.73,2.72,5.23,4.65,7.47,1.81,2.1,3.75,4.09,5.67,6.09,1.32,1.38,2.61,2.77,3.65,4.39,1.08,1.67,1.66,3.5,1.9,5.44.36,2.86.51,5.73.38,8.61-.09,2.07-.28,4.13-.43,6.2Z" style="fill:#ffad36; stroke-width:0px;"/><path d="m81.33,139.12c1.83,2.55,4.31,4.15,7.3,4.99.74.21,1.5.32,2.3.48,1.64,4.47,3.05,9.02,3.96,13.88-.53-.03-.98-.04-1.43-.08-6.63-.62-12.99-2.16-18.85-5.44-6.61-3.7-11.37-9.04-14.16-16.1-.12-.3-.44-.6-.16-.98.09.03.2.04.27.1,3.78,2.89,7.59,5.74,10.91,9.17,1,1.03,1.91,2.15,2.86,3.23.17.2.34.4.54.63.08-.18.16-.29.19-.41.98-3.68,3.28-6.54,5.83-9.23.1-.11.28-.15.42-.23Z" style="fill:#fdfdfd; stroke-width:0px;"/><path d="m60.31,135.87c-.08-.08-.15-.15-.23-.23.08.08.15.15.23.23Z" style="fill:#fdfdfd; stroke-width:0px;"/><path d="m103.54,6.06c-.7.39-1.4.77-2.1,1.16.44-.75,1.13-1.09,1.85-1.39.08.08.16.15.25.23Z" style="fill:#19140d; stroke-width:0px;"/><path d="m71.92,10.45c-.06.19-.1.38-.17.56-.07.18-.17.35-.31.62-.19-.54.02-.86.25-1.17.08,0,.16,0,.24,0Z" style="fill:#301202; stroke-width:0px;"/><path d="m130.66,38.6c.55-.75,1.06-1.53,1.66-2.25,2.46-2.95,5.61-4.81,9.28-5.84,2.53-.71,5.08-.84,7.64-.28,3.46.75,5.7,2.96,7.06,6.13.89,2.08,1.26,4.28,1.29,6.55.06,3.61-.61,7.06-2.29,10.27-2.37,4.55-6.04,7.42-11.1,8.45-2.48.5-4.92.33-7.3-.57-.06-1.04-.12-2.08-.18-3.12,2.47.07,4.87-.27,7.14-1.3,3.92-1.79,6.83-5.43,6.46-10.03-.19-2.38-1.24-4.27-3.42-5.43-1.84-.97-3.8-1.1-5.83-1.03-2.69.1-5.2.82-7.59,2.02-.26.13-.56.16-.85.23-.44-.84-.87-1.69-1.31-2.53-.22-.43-.44-.86-.67-1.28Z" style="fill:#feac36; stroke-width:0px;"/><path d="m130.66,38.6c.22.43.44.85.67,1.28.44.84.87,1.69,1.31,2.53.17.2.34.4.5.61.04.26.03.53.13.77,1.81,4.32,2.83,8.84,3.41,13.48.02.23.03.46.05.69.06,1.04.12,2.08.18,3.12,0,.28-.02.56-.03.84-.23,1.54-.44,3.09-1.37,4.46.01-.2,0-.4.04-.59.48-1.81.74-3.67.67-5.53-.06-1.59-.33-3.17-.52-4.76-.27-2.32-.75-4.6-1.46-6.82-.57-1.78-1.21-3.53-1.91-5.26-.92-2.27-2.18-4.35-3.73-6.25-.57-.7-1.17-1.37-1.75-2.05-.21-.24-.42-.48-.63-.72l.13-.16c.17.11.38.18.51.33.99,1.04,1.97,2.09,2.96,3.13.11.12.25.21.38.32.16.2.31.41.47.61Z" style="fill:#301202; stroke-width:0px;"/><path d="m66.46,174.72c1.17-4.82,1.56-9.72,1.21-14.64-.32-4.43-1.12-8.81-2.25-13.12-.04-.15-.06-.32-.12-.68,3.38,3.8,7.27,6.57,11.69,8.61,4.4,2.03,9.04,3.21,13.93,3.92-.12,1.23-.19,2.36-.34,3.47-.36,2.65-.74,5.29-1.13,7.93-.22,1.49-.47,2.97-.7,4.45-.28.28-.52.6-.83.83-1.92,1.38-4.14,2.01-6.43,2.35-2.7.4-5.4.36-8.05-.35-2.43-.65-4.71-1.67-6.96-2.78Z" style="fill:#feac36; stroke-width:0px;"/><path d="m92.99,190.42c-1.13,3.09-.13,5.67,2.16,8.05-.35.16-.65.35-.97.45-1.76.5-3.5.46-5.21-.25-.89-.37-1.56-.98-2.04-1.84-1.16-2.06-1.65-4.29-1.91-6.61-.03-.25-.06-.51-.12-.93-.29,2.76.15,5.24,1.26,7.58-1.38.78-3.52.25-4.47-1.11-1.99-2.86-2.21-5.92-.79-9.05,1.65-3.64,4.53-5.51,8.54-5.6,2.22-.05,4.3.5,6.34,1.32,2.05.82,4.06,1.78,6.18,2.37,4.59,1.27,9.14.99,13.56-.87.37-.15.72-.36,1.07-.55.35-.19.68-.4,1.13-.66-.06,1.68-.29,3.21-.66,4.73-1.72,7.01-8.36,11.21-14,11.6-1.96.13-3.87-.04-5.77-.48-1.56-.36-2.59-1.32-3.3-2.7-.69-1.35-.86-2.8-.82-4.29.01-.4.05-.79.08-1.19-.09,0-.17.02-.26.03Z" style="fill:#fefefe; stroke-width:0px;"/><path d="m66.05,191.72c-2.49,1.03-4.83,1.04-7.07-.37-.41-.26-.75-.68-1.01-1.09-1.08-1.73-1.64-3.65-1.91-5.66-.09-.65-.18-1.3-.3-2.13-.25,2.79.16,5.28,1.3,7.64-1.74.68-3.56.15-4.54-1.21-4.03-5.62-.03-13.67,6.27-14.47,2.75-.35,5.32.17,7.84,1.19,1.64.66,3.25,1.43,4.93,1.99,4.84,1.64,9.67,1.52,14.44-.32.86-.33,1.66-.83,2.6-1.31-.06,1.53-.25,2.99-.65,4.54-2.44.43-4.58,1.5-6.18,3.5-1.56,1.95-2.35,4.18-2.43,6.81-.77.28-1.56.63-2.38.86-2.86.8-5.73.8-8.63.12-1.97-.46-3.12-1.71-3.8-3.5-.45-1.18-.52-2.41-.48-3.66.01-.36.04-.72.06-1.15-1.42,2.06-.72,5.08,1.95,8.22Z" style="fill:#fefefe; stroke-width:0px;"/><path d="m89.38,174.48c.55-3.57,1.11-7.13,1.64-10.71.2-1.32.31-2.66.47-3.99.04-.29.12-.58.19-.89,1.11.1,2.17.2,3.34.31.17,1.01.35,2.02.51,3.03.51,3.21.85,6.44.67,9.7-.16,2.91-.47,5.8-1.1,8.65-.05.23-.08.46-.11.69-.2-.01-.4.01-.59-.05-1.63-.54-3.29-.8-5-.75-.2,0-.39-.03-.59-.05.19-2,.38-3.97.56-5.94Z" style="fill:#fdfdfd; stroke-width:0px;"/><path d="m161.42,179.92c-.92.93-2.09,1.28-3.34,1.38-1.61.14-3.19-.12-4.75-.51-2.36-.59-4.7-1.24-7.07-1.79-2.5-.57-5.04-.95-7.62-.93.07-1.94.21-3.88.18-5.81-.02-1.4-.25-2.79-.41-4.18-.13-1.11-.75-1.89-1.66-2.5-1.78-1.22-3.76-2.03-5.77-2.79-1.78-.68-3.57-1.33-5.36-1.99-.15-.06-.29-.14-.44-.29,4.43-.02,8.81-.36,13.15-1.24,4.35-.88,8.52-2.25,12.48-4.34.69.54,1.34,1.07,2.01,1.56,2.15,1.6,4.39,3.07,6.89,4.08.48.19.8.49.93.97.32,1.22.74,2.44.9,3.69.34,2.62.52,5.26.4,7.9-.11,2.27-.33,4.53-.5,6.79Z" style="fill:#feac36; stroke-width:0px;"/><path d="m121.33,159.6c-.06-2.45-.12-4.72-.19-7-.02-.5-.13-1-.12-1.5.04-1.2.12-2.4.19-3.66,2.08-.81,4.21-1.48,6.37-2.03,3.62-.92,7.3-1.4,11.03-1.08,1.29.11,2.58.37,3.86.61.28.05.63.29.76.54,1.72,3.3,4,6.17,6.75,8.67.07.06.1.16.21.35-9.15,4.55-18.84,5.73-28.86,5.09Z" style="fill:#fefefe; stroke-width:0px;"/><path d="m176.64,188.56c-1.08,1.57-1.13,3.09-.85,4.68.28,1.59.98,2.96,2.18,4.23-1.21.45-2.33.48-3.44.31-2.73-.42-4.73-1.8-5.6-4.52-.36-1.13-.34-2.3-.16-3.48.23-1.55.72-2.99,1.57-4.3.95-1.48,2.25-2.54,3.91-3.17,2.57-.98,5.24-1.34,7.97-1.29,3.71.07,7.29.88,10.85,1.82,1.97.52,3.96.96,5.96,1.34,1.79.34,3.53.12,5.16-.77.08-.04.18-.05.35-.08.03.21.09.39.09.57.09,3.4-.39,6.67-2.13,9.67-.8,1.38-1.88,2.43-3.32,3.1-2.51,1.17-5.12,1.71-7.9,1.36-1.42-.18-2.51-.8-3.3-2.02-1.19-1.82-1.52-3.76-.91-5.85.07-.25.14-.5.25-.88-.7.37-.88.93-1.04,1.48-.34,1.16-.28,2.34.14,3.46.4,1.05.96,2.04,1.5,3.15-.76.74-1.85,1.07-2.96,1.16-1.15.09-2.34.06-3.49-.11-3.29-.49-4.68-3.18-5.05-5.39-.22-1.27-.14-2.53.11-3.79.03-.15.04-.31.09-.68Z" style="fill:#fefefe; stroke-width:0px;"/><path d="m144.09,186.94c-.91.6-1.11,1.55-1.18,2.52-.13,1.74.4,3.3,1.37,4.73.17.25.34.49.55.79-.46.5-1.04.75-1.63.94-2.15.7-4.31.68-6.38-.19-2.13-.89-3.14-2.69-3.6-4.87-.3-1.47-.1-2.91.18-4.43-1.69,2.09-1.22,5.27,1.28,8.84-.46.1-.86.23-1.27.27-1.53.16-3.01-.02-4.4-.71-2.19-1.09-3.44-2.87-3.57-5.31-.13-2.55.55-4.9,2.12-6.96.85-1.12,1.94-1.93,3.25-2.44,3.08-1.21,6.27-1.55,9.56-1.33,4.07.28,7.96,1.4,11.88,2.4,1.36.35,2.75.56,4.14.75,1.63.23,3.2-.04,4.65-.85.08-.04.18-.05.35-.09.18,4.03-.34,7.84-2.71,11.2-.63.9-1.48,1.54-2.44,2.04-2.54,1.31-5.23,1.79-8.07,1.52-2.45-.24-3.74-1.84-4.46-4.51-.31-1.13-.17-2.26.16-3.37.09-.31.14-.64.21-.96.04-.03.07-.06.11-.08-.02,0-.05,0-.06.01-.02.02-.02.06-.03.09Z" style="fill:#fefefe; stroke-width:0px;"/><path d="m83.22,104.92c-.63,3.28-2.73,5.26-5.72,6.41-2,.77-4.09,1.21-6.25,1.25-.83.01-1.67.21-2.49.16-2.76-.18-5.53-.31-8.16-1.31-2.32-.88-4.25-2.22-5.45-4.47-.53-.99-.83-2.03-.89-3.15-.02-.43-.03-.87-.04-1.3,0-.25,0-.5.01-.75-.03-.9,0-1.81-.09-2.7-.29-2.58-1.17-5-2.02-7.43-.42-1.21-1-2.21-2.03-3.1-3.14-2.73-3.77-7.99-1.84-11.54.83-1.52,1.96-2.79,3.72-3.3.1.16.21.33.31.49-1.69.63-2.9,1.81-3.61,3.42-1.45,3.33-1.1,6.52.97,9.5.28.41.62.84,1.04,1.07,1.68.9,3.36,1.81,5.31,2.01,1.47.15,2.9.06,4.31-.68-1.21-1.6-1.78-3.34-1.77-5.28.09,0,.19,0,.28,0,.09.46.17.92.28,1.37.86,3.58,3.5,5.85,7.15,6.08,4.63.3,8.49-1.4,11.68-4.68.76-.78,1.37-1.72,2.05-2.58.12,0,.25,0,.37,0-.53,2.24-1,4.5-1.6,6.73-.74,2.72-1.69,5.36-3.06,7.83-.79,1.42-1.74,2.72-3.14,3.59-3.48,2.18-7.15,2.42-10.94.93-1.24-.49-2.26-1.32-2.91-2.51-.58-1.05-1.11-2.14-1.59-3.23-.57-1.28-1.04-2.61-1.61-3.89-.62-1.39-1.48-2.62-2.59-3.67-.17-.16-.43-.24-.64-.36-.04-.04-.07-.08-.11-.12.04.04.07.08.11.12.09.32.16.64.26.96.41,1.2.86,2.39,1.25,3.6.81,2.5,1.31,5.05,1.1,7.7-.04.47-.02.94,0,1.41.13,1.95.84,3.63,2.26,5,1.36,1.31,2.96,2.17,4.78,2.64,3.81.99,7.67,1.11,11.55.55,1.76-.25,3.47-.74,5.05-1.58,2.13-1.14,3.52-2.85,4.02-5.23.27-1.25.39-2.54.15-3.79-.58-2.98-.19-5.85.82-8.68.63-1.76,1.2-3.55,1.79-5.33.56-1.7.85-3.44.78-5.23-.11-2.98-1.46-5.14-4.17-6.45-3.66-1.77-7.52-2.55-11.57-2.43.02-.21.03-.43.05-.64,1.5.08,3.01.07,4.49.26,2.67.34,5.21,1.13,7.61,2.37,3.43,1.77,4.42,4.73,4.26,8.18-.08,1.74-.54,3.42-1.11,5.07-.66,1.93-1.31,3.86-1.91,5.81-.44,1.44-.9,2.91-.68,4.42.28,1.96.41,3.92.33,5.89l-.17.59Zm-23.39-3.62c.55.8,1.35,1.27,2.22,1.64,1.6.67,3.28.93,5,.77,4.81-.44,7.1-2.8,8.69-6.38.05-.11.02-.26.03-.39.07-.14.14-.27.22-.41.19-.3.46-.58.57-.91.77-2.35,1.51-4.71,2.24-7.07.16-.52.26-1.05.39-1.57-.29.03-.41.13-.52.25-2.78,2.91-6.1,4.71-10.16,5.1-2.57.25-4.93-.2-7.02-1.72-.49-.36-.89-.41-1.47-.23-.82.25-1.69.44-2.54.47-.99.04-1.99-.12-2.99-.2-.04-.02-.08-.05-.12-.07.03.04.05.08.08.12.1.2.18.42.3.61.87,1.26,1.56,2.62,2.12,4.05.59,1.48,1.2,2.95,1.85,4.4.17.38.51.67.77,1.01.12.18.23.37.35.55Z" style="fill:#6d6966; stroke-width:0px;"/><path d="m83.22,104.92c.06-.2.11-.39.17-.59,4.17.15,8.28-.2,12.34-1.2,8.78-2.16,16.07-6.61,21.58-13.88,4.39-5.8,6.72-12.27,6.69-19.56,0-1.5-.17-3.01-.16-4.51.03-2.98.04-5.96.24-8.93.18-2.75.17-5.49-.12-8.22-.41-3.76-1.54-7.31-3.36-10.65-2.91-5.36-7.09-9.35-12.63-11.91-5.2-2.41-10.71-3.57-16.39-3.9-2.76-.16-5.55-.01-8.32.13-3.79.2-7.48,1-11.06,2.25-.44.15-.81.16-1.25-.02-2.69-1.11-5.51-1.61-8.4-1.78-3-.17-5.94.22-8.81,1.12-4.02,1.27-7.41,3.49-10.24,6.62-3.43,3.8-5.92,8.1-7.15,13.08-.57,2.33-.96,4.71-1.35,7.08-.22,1.38-.28,2.79-.41,4.18-.08.01-.16.02-.24.03,0,0,0,0,0,0-.14-.07-.27-.15-.41-.22.13-1.19.25-2.38.4-3.56.18-1.38.35-2.77.6-4.14.23-1.31.49-2.62.85-3.9.82-2.87,1.95-5.61,3.55-8.15,1.61-2.56,3.49-4.89,5.74-6.91,1.01-.91,2.13-1.73,3.3-2.42,2.07-1.22,4.27-2.18,6.63-2.75,2.75-.67,5.54-.89,8.34-.67,2.62.2,5.21.74,7.66,1.74.38.15.69.16,1.05.02,2.13-.8,4.34-1.31,6.57-1.71,1.27-.23,2.57-.37,3.85-.48,1.43-.12,2.87-.08,4.29-.23,1.83-.19,3.67-.08,5.47.07,4.92.4,9.76,1.34,14.36,3.24,2.79,1.15,5.39,2.65,7.76,4.52,2.47,1.94,4.33,4.41,5.99,7.05,1.76,2.8,2.97,5.82,3.68,9.04.27,1.2.32,2.44.54,3.64.36,2.03.19,4.07.17,6.1-.03,2.13-.29,4.25-.35,6.38-.04,1.5.1,3,.15,4.5.02.6.02,1.21.02,1.81,0,1.17.02,2.35,0,3.52-.08,4.01-.89,7.85-2.43,11.56-1.25,2.99-2.97,5.7-4.99,8.18-2.5,3.06-5.32,5.81-8.68,7.95-3.26,2.08-6.72,3.7-10.46,4.71-1.45.39-2.89.81-4.35,1.11-1.2.24-2.44.28-3.66.47-2.26.37-4.54.11-6.81.18Z" style="fill:#8c4113; stroke-width:0px;"/><path d="m34.36,54.27c.08-.01.16-.02.24-.03,1.51.42,3.02.52,4.55.06.66-.2,1.12-.53,1.24-1.24-2.37-.99-3.31-2.48-2.89-4.47.17.38.32.78.52,1.16.58,1.08,1.43,1.85,2.64,2.16.23.06.58.08.74-.04.6-.47,1.14-1.01,1.68-1.5-.56-2.08-.3-3.85.68-4.87-.37,2.09-.24,3.3.47,4.31,3.79-1.11,6.8-.1,9.16,3.09.24.32.47.66.66,1,1.69,2.98,2.16,6.15,1.49,9.5-.45,2.22-1.4,4.18-3.05,5.77-2.59,2.5-6.23,2.8-9.19.76-1.09-.75-1.98-1.7-2.69-2.81-1.35-2.11-2-4.44-2.03-6.94,0-.55,0-1.1,0-1.78-1.77.83-3.48.82-5.21.39-.13-.03-.26-.07-.4-.1,0-.08-.01-.15-.02-.23.22,0,.44-.01.66-.02,1.28.02,2.52-.22,3.74-.57,1.02-.29,1.73-.8,1.83-1.94.01-.18.08-.36.15-.63-1.65.34-3.13.05-4.56-.6-.11-.05-.26-.03-.39-.03,0-.13,0-.26-.01-.39Zm20.92,6.36c-.22-1.25-.33-2.52-.67-3.74-.64-2.28-1.84-4.23-3.81-5.63-2.66-1.89-5.87-1.7-8.3.48-.91.82-1.63,1.78-2.12,2.9-1.84,4.2-1.56,8.27.82,12.18.76,1.25,1.79,2.25,3.09,2.95,2.3,1.23,4.56,1.14,6.74-.28,1.03-.67,1.82-1.57,2.45-2.62,1.16-1.91,1.66-4,1.79-6.24Z" style="fill:#19140d; stroke-width:0px;"/><path d="m32.97,58.68c.13.03.26.07.4.1-1.34,3.42-2.12,6.97-2.37,10.62-.21,3.01,0,6.01.56,8.99,1.22,6.44,4.32,11.72,9.54,15.76,3.43,2.66,7.12,4.87,11.02,6.75.69.33,1.42.57,2.13.85,0,.25,0,.5-.01.75-1.69-.78-3.43-1.48-5.07-2.37-1.99-1.08-3.92-2.28-5.82-3.5-2.69-1.72-4.99-3.91-7.11-6.27-1.61-1.79-2.75-3.91-3.66-6.16-.98-2.42-1.56-4.95-1.99-7.51-.34-2.05-.23-4.13-.23-6.19,0-3.8.8-7.46,2.05-11.03.1-.29.37-.53.57-.79Z" style="fill:#8c4113; stroke-width:0px;"/><path d="m33.61,58.43c-.22,0-.44.01-.66.02.07-.29.1-.6.22-.86.42-.92.69-1.85.61-2.88-.01-.14.12-.29.18-.44.14,0,.28,0,.42,0,0,0,0,0,0,0,0,.13,0,.26.01.39.06,1.01-.02,2-.51,2.92-.14.26-.17.57-.26.85Z" style="fill:#8c4113; stroke-width:0px;"/><path d="m71.31,12.18s-.07.07-.1.1c-.01-.06-.03-.12-.03-.19,0-.02.04-.05.06-.07.02.05.05.1.08.16Z" style="fill:#301202; stroke-width:0px;"/><path d="m34.37,54.27c-.14,0-.28,0-.42,0,0-.07,0-.15,0-.22.14.07.27.15.41.22Z" style="fill:#19140d; stroke-width:0px;"/><path d="m32.36,30.56s.03-.05.05-.08c-.02.02-.04.05-.05.07,0,0,0,0,0,0Z" style="fill:#301202; stroke-width:0px;"/><path d="m32.35,30.55c-.07.07-.13.14-.2.2,0,0,0,0,0,0,.07-.07.14-.13.2-.2,0,0,0,0,0,0Z" style="fill:#301202; stroke-width:0px;"/><path d="m25.73,39.01c-.14.2-.27.4-.41.6-.24-.1-.5-.19-.73-.31-3.1-1.6-6.37-2.3-9.87-1.94-4.21.44-6.33,3.47-6.03,7.07.23,2.73,1.55,4.94,3.72,6.61,2.72,2.08,5.85,2.81,9.22,2.76-.03.22-.06.44-.09.66-2.83.09-5.52-.48-8.01-1.86-2.91-1.62-4.84-4.02-5.4-7.33-.53-3.15.47-5.92,3.16-7.55,1.26-.76,2.68-1.03,4.12-1.12,3.31-.19,6.44.51,9.39,2.02.29.15.61.25.92.37Z" style="fill:#91481c; stroke-width:0px;"/><path d="m21.63,53.81c-3.36.04-6.5-.68-9.22-2.76-2.18-1.67-3.5-3.88-3.72-6.61-.3-3.6,1.82-6.63,6.03-7.07,3.5-.37,6.76.34,9.87,1.94.23.12.49.21.73.31-.07.25-.1.52-.21.76-1.77,4.22-2.85,8.62-3.42,13.15-.01.1-.04.2-.06.29Z" style="fill:#fe8080; stroke-width:0px;"/><path d="m133.14,43.02c-.17-.2-.34-.4-.5-.61.28-.07.59-.1.85-.23,2.39-1.2,4.89-1.93,7.59-2.02,2.03-.07,4,.06,5.83,1.03,2.18,1.16,3.23,3.05,3.42,5.43.37,4.6-2.54,8.25-6.46,10.03-2.27,1.03-4.67,1.36-7.14,1.3-.02-.23-.03-.46-.05-.69,2.42.16,4.74-.25,6.93-1.27,3.2-1.48,5.41-3.83,6-7.4.44-2.67-.28-4.98-2.62-6.59-1.2-.82-2.59-1.08-3.99-1.18-3.14-.22-6.11.45-8.93,1.83-.3.15-.61.24-.92.36Z" style="fill:#91481c; stroke-width:0px;"/><path d="m133.14,43.02c.31-.12.63-.21.92-.36,2.82-1.39,5.79-2.06,8.93-1.83,1.4.1,2.8.36,3.99,1.18,2.33,1.61,3.06,3.93,2.62,6.59-.58,3.57-2.8,5.92-6,7.4-2.19,1.01-4.51,1.43-6.93,1.27-.58-4.63-1.6-9.15-3.41-13.48-.1-.23-.09-.51-.13-.77Z" style="fill:#fe8080; stroke-width:0px;"/><path d="m144.09,186.94s.02-.06.03-.09c0-.01.04,0,.06-.01-.04.03-.07.06-.11.08,0,0,.02.02.02.02Z" style="fill:#70706e; stroke-width:0px;"/><path d="m54.24,101.75c-.71-.28-1.45-.51-2.13-.85-3.89-1.89-7.58-4.09-11.02-6.75-5.22-4.04-8.32-9.32-9.54-15.76-.56-2.97-.77-5.98-.56-8.99.25-3.65,1.04-7.2,2.37-10.62,1.73.43,3.44.44,5.21-.39,0,.68,0,1.23,0,1.78.04,2.5.68,4.82,2.03,6.94.71,1.11,1.6,2.06,2.69,2.81,2.97,2.04,6.6,1.74,9.19-.76,1.65-1.59,2.6-3.55,3.05-5.77.68-3.35.2-6.52-1.49-9.5-.2-.35-.42-.68-.66-1-2.36-3.19-5.37-4.2-9.16-3.09-.71-1.01-.84-2.22-.47-4.31-.98,1.02-1.23,2.8-.68,4.87-.54.49-1.09,1.03-1.68,1.5-.16.13-.5.1-.74.04-1.21-.3-2.06-1.08-2.64-2.16-.2-.38-.35-.79-.52-1.16-.43,1.99.52,3.48,2.89,4.47-.12.71-.58,1.04-1.24,1.24-1.53.45-3.04.36-4.55-.06.13-1.4.18-2.8.41-4.18.39-2.37.78-4.75,1.35-7.08,1.23-4.97,3.72-9.28,7.15-13.08,2.83-3.13,6.22-5.36,10.24-6.62,2.86-.9,5.81-1.3,8.81-1.12,2.88.17,5.71.68,8.4,1.78.44.18.81.17,1.25.02,3.58-1.26,7.27-2.05,11.06-2.25,2.77-.14,5.56-.29,8.32-.13,5.68.33,11.19,1.5,16.39,3.9,5.54,2.56,9.71,6.55,12.63,11.91,1.82,3.34,2.94,6.89,3.36,10.65.3,2.73.31,5.47.12,8.22-.2,2.97-.21,5.95-.24,8.93-.02,1.5.15,3.01.16,4.51.03,7.29-2.29,13.76-6.69,19.56-5.51,7.27-12.8,11.72-21.58,13.88-4.06,1-8.17,1.35-12.34,1.2.08-1.97-.05-3.93-.33-5.89-.22-1.52.24-2.99.68-4.42.59-1.95,1.24-3.88,1.91-5.81.57-1.65,1.03-3.33,1.11-5.07.16-3.44-.82-6.4-4.26-8.18-2.4-1.24-4.95-2.03-7.61-2.37-1.48-.19-3-.18-4.49-.26-.72-1.52-2.01-2.37-3.51-2.96-2.33-.92-4.74-1.1-7.19-.73-1.94.29-3.78.86-5.38,2.03-1.07.78-1.96,1.72-2.32,3.04-1.76.51-2.89,1.77-3.72,3.3-1.93,3.55-1.3,8.81,1.84,11.54,1.03.89,1.6,1.89,2.03,3.1.85,2.43,1.73,4.85,2.02,7.43.1.89.06,1.8.09,2.7Zm40.4-53.71c-.15-.24-.29-.49-.44-.73-.05.03-.11.07-.16.1.08.2.16.4.24.61.37,1.27.58,2.54.06,3.88-.35-.05-.67-.13-1-.14-.63-.02-1.27-.08-1.9,0-2.46.34-4.27,1.74-5.52,3.79-2.37,3.88-2.48,7.97-.81,12.13.75,1.87,1.94,3.43,3.61,4.6,2.92,2.04,6.54,1.79,9.12-.66.62-.59,1.19-1.28,1.64-2.01,1.53-2.48,2.02-5.21,1.71-8.1-.06-.58-.16-1.16-.25-1.79.51.09.93.19,1.36.24,1.49.16,2.92-.02,4.21-.88.05-.02.09-.04.13-.06-.03.02-.07.05-.11.07-.6.02-1.2.04-1.8.06-1.21.05-2.41-.04-3.56-.45-.26-.09-.56-.27-.69-.49-.26-.45-.42-.95-.65-1.52,1.73.09,3.19-.33,4.49-1.24.26-.18.52-.37.79-.55-.04-.07-.09-.13-.13-.2-.3.16-.6.32-.9.49-1.35.44-2.71.71-4.14.5-.72-.11-1.26-.37-1.47-1.12,1.89-.74,2.91-2.32,2.34-4.89-.13.45-.23.9-.4,1.34-.43,1.15-1.17,2.02-2.33,2.48-.24.1-.62.12-.82,0-.63-.36-1.2-.81-1.81-1.24.39-1.55.04-2.94-.77-4.24Zm6.62-9.48c-.34-1.77-1.15-3.65-2.15-4.99-1.95-2.63-4.57-3.59-7.76-3-2.14.4-3.8,2.53-3.65,4.49,5.2-1.59,9.71-.54,13.56,3.5Zm-60.51,5.05c3.4-4.58,7.77-6.27,13.35-5.23-.46-.84-.85-1.65-1.34-2.39-.6-.91-1.51-1.44-2.58-1.58-2.33-.3-4.48.15-6.24,1.8-2.09,1.96-2.79,4.53-3.19,7.4Z" style="fill:#feac36; stroke-width:0px;"/><path d="m58.55,84.23c-.02,1.93.56,3.68,1.77,5.28-1.4.75-2.84.83-4.31.68-1.94-.19-3.63-1.11-5.31-2.01-.42-.22-.76-.66-1.04-1.07-2.07-2.98-2.42-6.17-.97-9.5.71-1.62,1.92-2.8,3.61-3.42.36.52.68,1.08,1.1,1.54,1.51,1.68,3.38,2.91,5.19,4.08.92-.68,1.73-1.39,2.65-1.92,1.04-.6,2.16-1.04,3.26-1.52,1.26-.54,2.54-1.03,3.79-1.58.87-.38,1.6-.96,2.05-1.84,4.05-.12,7.91.67,11.57,2.43,2.71,1.31,4.06,3.47,4.17,6.45.07,1.8-.22,3.53-.78,5.23-.59,1.78-1.16,3.56-1.79,5.33-1.01,2.83-1.4,5.7-.82,8.68.24,1.26.12,2.54-.15,3.79-.51,2.38-1.89,4.09-4.02,5.23-1.58.85-3.29,1.33-5.05,1.58-3.88.56-7.74.43-11.55-.55-1.82-.47-3.42-1.33-4.78-2.64-1.42-1.37-2.13-3.05-2.26-5-.03-.47-.04-.94,0-1.41.21-2.65-.29-5.2-1.1-7.7-.39-1.21-.84-2.4-1.25-3.6-.11-.31-.18-.64-.26-.96h0c.22.12.47.19.64.36,1.11,1.05,1.97,2.28,2.59,3.67.57,1.28,1.04,2.61,1.61,3.89.49,1.1,1.02,2.18,1.59,3.23.65,1.19,1.67,2.02,2.91,2.51,3.79,1.49,7.46,1.24,10.94-.93,1.4-.88,2.35-2.17,3.14-3.59,1.38-2.47,2.33-5.12,3.06-7.83.6-2.22,1.07-4.48,1.6-6.73.09-.21.18-.42.34-.81.58.85,1.07,1.57,1.56,2.3.13.21.25.41.38.62l.15-.1c-.06-.17-.13-.34-.19-.51-.17-.43-.3-.88-.5-1.3-.86-1.81-1.95-2.38-4.05-2.13.86.29,1.74.4,2.4,1.05-.15.3-.3.59-.45.88-.68.86-1.28,1.8-2.05,2.58-3.19,3.28-7.05,4.98-11.68,4.68-3.65-.24-6.29-2.51-7.15-6.08-.11-.45-.19-.91-.28-1.37-.03-.42-.06-.84-.09-1.25l.14-1.26s-.09-.01-.14-.02c-.05.37-.1.74-.15,1.12-.01.48-.02.95-.03,1.43Z" style="fill:#fefefe; stroke-width:0px;"/><path d="m59.47,100.75c-.26-.33-.6-.63-.77-1.01-.65-1.45-1.27-2.92-1.85-4.4-.56-1.43-1.25-2.79-2.12-4.05-.13-.18-.2-.4-.3-.61l.05-.05c1,.07,2,.23,2.99.2.85-.03,1.72-.22,2.54-.47.58-.18.97-.12,1.47.23,2.1,1.52,4.46,1.97,7.02,1.72,4.06-.4,7.38-2.19,10.16-5.1.11-.11.24-.21.52-.25-.13.53-.23,1.06-.39,1.57-.73,2.36-1.48,4.72-2.24,7.07-.11.33-.37.61-.57.91-.37-.21-.72-.48-1.11-.62-2.17-.76-4.38-.97-6.68-.66-2.31.3-4.39,1.08-6.25,2.44-1.09.8-1.97,1.78-2.47,3.07Z" style="fill:#6b0101; stroke-width:0px;"/><path d="m75.77,96.93c0,.13.02.28-.03.39-1.59,3.58-3.88,5.94-8.69,6.38-1.72.16-3.4-.1-5-.77-.87-.36-1.67-.83-2.22-1.64.49-.71.9-1.51,1.48-2.13,2.61-2.77,6-3.45,9.62-3.4,1.69.02,3.3.49,4.84,1.17Z" style="fill:#fe8e8e; stroke-width:0px;"/><path d="m70.34,72.97c-.44.88-1.17,1.46-2.05,1.84-1.25.55-2.53,1.03-3.79,1.58-1.1.48-2.23.92-3.26,1.52-.91.52-1.72,1.24-2.65,1.92-1.81-1.18-3.68-2.4-5.19-4.08-.42-.47-.74-1.03-1.1-1.54-.1-.16-.21-.33-.31-.49.36-1.33,1.25-2.26,2.32-3.04,1.61-1.17,3.45-1.74,5.38-2.03,2.45-.36,4.87-.19,7.19.73,1.5.59,2.79,1.44,3.51,2.96-.02.21-.03.43-.05.64Zm-14.69,3.66c.14.22.23.5.43.65.8.59,1.63,1.13,2.36,1.63,1.15-.71,2.14-1.46,3.24-1.98,1.68-.8,3.43-1.45,5.16-2.15.9-.37,1.78-.77,2.46-1.49.6-.64.49-1.05-.33-1.54-.29-.9-1.1-1.23-1.85-1.55-2.85-1.26-5.8-1.35-8.79-.61-1.56.39-3.04,1-4.27,2.1-1.48,1.32-1.54,2.2-.19,3.59.52.53.9,1.28,1.78,1.36Z" style="fill:#120e0a; stroke-width:0px;"/><path d="m75.77,96.93c-1.54-.68-3.15-1.14-4.84-1.17-3.62-.05-7.01.63-9.62,3.4-.59.62-.99,1.42-1.48,2.13-.12-.18-.23-.37-.35-.55.5-1.28,1.38-2.27,2.47-3.07,1.86-1.36,3.94-2.14,6.25-2.44,2.3-.3,4.51-.1,6.68.66.4.14.74.41,1.11.62-.07.14-.14.27-.22.41Z" style="fill:#934a1e; stroke-width:0px;"/><path d="m82.26,85.91c-.49-.72-.99-1.45-1.56-2.3-.17.4-.26.6-.34.81-.12,0-.25,0-.37,0,.15-.29.29-.58.45-.88-.66-.65-1.53-.76-2.4-1.05,2.11-.25,3.19.33,4.05,2.13.2.42.34.86.5,1.3-.11,0-.22,0-.33,0Z" style="fill:#70706e; stroke-width:0px;"/><path d="m58.55,84.23c.01-.48.02-.95.03-1.43.05.06.1.11.16.16.03.42.06.84.09,1.25-.09,0-.19,0-.28,0Z" style="fill:#70706e; stroke-width:0px;"/><path d="m52.25,89.85s-.07-.08-.11-.12c.04.04.07.08.11.12,0,0,0,0,0,0Z" style="fill:#fefefe; stroke-width:0px;"/><path d="m54.43,90.68s-.05-.08-.08-.12c.04.02.08.05.12.07,0,0-.05.05-.05.05Z" style="fill:#6b0101; stroke-width:0px;"/><path d="m55.28,60.62c-.13,2.24-.63,4.33-1.79,6.24-.63,1.04-1.43,1.95-2.45,2.62-2.18,1.42-4.44,1.51-6.74.28-1.3-.69-2.33-1.7-3.09-2.95-2.38-3.91-2.66-7.98-.82-12.18.49-1.11,1.21-2.08,2.12-2.9,2.43-2.18,5.63-2.37,8.3-.48,1.96,1.4,3.17,3.35,3.81,5.63.34,1.21.46,2.49.67,3.74Zm-.87,1.37c-.07-2.12-.67-4.02-2.22-5.53-2.24-2.19-5.41-2.01-7.41.39-2.42,2.89-2.07,7.89.73,10.42,2.22,2,5.27,1.81,7.21-.46,1.18-1.39,1.64-3.03,1.7-4.82Z" style="fill:#fafafa; stroke-width:0px;"/><path d="m33.61,58.43c.08-.29.12-.6.26-.85.49-.92.57-1.91.51-2.92.13,0,.28-.02.39.03,1.43.65,2.91.94,4.56.6-.07.27-.13.45-.15.63-.09,1.14-.81,1.65-1.83,1.94-1.23.35-2.46.59-3.74.57Z" style="fill:#feac36; stroke-width:0px;"/><path d="m106.49,59.09c-1.28.86-2.71,1.04-4.21.88-.43-.05-.85-.15-1.36-.24.09.62.19,1.2.25,1.79.31,2.88-.18,5.61-1.71,8.1-.45.73-1.02,1.42-1.64,2.01-2.58,2.45-6.19,2.7-9.12.66-1.67-1.16-2.86-2.72-3.61-4.6-1.67-4.16-1.56-8.25.81-12.13,1.26-2.06,3.06-3.45,5.52-3.79.62-.09,1.26-.03,1.9,0,.33.01.65.09,1,.14.52-1.34.31-2.61-.06-3.88.12,0,.24.01.36.02.81,1.3,1.16,2.69.77,4.24.61.43,1.19.88,1.81,1.24.21.12.58.09.82,0,1.16-.46,1.9-1.33,2.33-2.48.16-.44.27-.89.4-1.34.58,2.57-.45,4.15-2.34,4.89.21.75.74,1.01,1.47,1.12,1.43.22,2.79-.06,4.14-.5.08.09.16.17.24.26-1.31.91-2.76,1.32-4.49,1.24.24.57.39,1.08.65,1.52.13.22.43.4.69.49,1.15.41,2.35.5,3.56.45.6-.02,1.2-.04,1.8-.06h-.01Zm-5.84,3.55c-.09-.62-.17-1.66-.4-2.67-.62-2.62-1.87-4.87-4.14-6.43-2.57-1.76-5.61-1.58-7.98.43-.86.72-1.56,1.58-2.05,2.58-2.14,4.38-1.89,8.66.68,12.79.68,1.09,1.6,1.97,2.71,2.64,2.43,1.48,5.26,1.31,7.49-.46.96-.76,1.7-1.71,2.27-2.78.96-1.78,1.34-3.7,1.42-6.11Z" style="fill:#19140d; stroke-width:0px;"/><path d="m101.26,38.57c-3.86-4.04-8.37-5.08-13.56-3.5-.15-1.96,1.52-4.09,3.65-4.49,3.19-.6,5.8.37,7.76,3,1,1.35,1.81,3.22,2.15,4.99Zm-1.82-2.75s.09.05.13.07c-.02-.05-.04-.09-.07-.14-1.58-3.6-4.27-5.04-7.77-4.55-.54.07-1.11.31-1.57.61-.75.48-1.34,1.13-1.46,2.18.31-.05.54-.08.76-.11.76-.09,1.53-.29,2.28-.25,1.73.11,3.45.31,5.07,1.01.88.39,1.76.79,2.64,1.18Z" style="fill:#120e0a; stroke-width:0px;"/><path d="m40.75,43.62c.4-2.87,1.1-5.44,3.19-7.4,1.76-1.65,3.92-2.1,6.24-1.8,1.07.14,1.98.67,2.58,1.58.49.74.88,1.55,1.34,2.39-5.58-1.04-9.95.65-13.35,5.23Zm1.47-3c.15-.07.32-.11.44-.2,2.72-2.09,5.75-3.2,9.21-3.05.24.01.49-.05.86-.09-.53-.96-1.09-1.65-2.03-2-1.01-.38-2.01-.31-3.05-.14-2.69.43-4.88,2.68-5.48,5.45-.04.07-.09.14-.13.22,0,0,.04.04.07.06.03-.08.07-.16.1-.25Z" style="fill:#120e0a; stroke-width:0px;"/><path d="m104.29,55.47c-.08-.09-.16-.17-.24-.26.3-.16.6-.32.9-.49.04.07.09.13.13.2-.26.18-.52.37-.79.55Z" style="fill:#75401d; stroke-width:0px;"/><path d="m94.64,48.04c-.12,0-.24-.01-.36-.02-.08-.2-.16-.4-.24-.61.05-.03.11-.07.16-.1.15.24.29.49.44.73Z" style="fill:#75401d; stroke-width:0px;"/><path d="m106.51,59.11s.08-.06.11-.07c-.03.02-.08.04-.13.06,0,0,.01.01.01.01Z" style="fill:#19140d; stroke-width:0px;"/><path d="m58.73,82.97c-.05-.05-.1-.11-.16-.16.05-.37.1-.74.15-1.12.05,0,.09.01.14.02l-.14,1.26Z" style="fill:#fe8e8e; stroke-width:0px;"/><path d="m82.26,85.91c.11,0,.22,0,.33,0,.06.17.13.34.19.51l-.15.1c-.13-.21-.25-.41-.38-.62Z" style="fill:#fe8e8e; stroke-width:0px;"/><path d="m55.65,76.63c-.87-.08-1.26-.83-1.78-1.36-1.35-1.39-1.29-2.27.19-3.59,1.22-1.09,2.7-1.71,4.27-2.1,2.99-.74,5.94-.64,8.79.61.74.33,1.56.65,1.85,1.55.01.49-.3.66-.71.82-1.54.62-3.07,1.27-4.59,1.93-2.57,1.11-5.15,2.16-8.02,2.13Zm9.47-6.2c-1.16-.88-6.55-.57-7.85.45,1.15.88,6.55.57,7.85-.45Z" style="fill:#620101; stroke-width:0px;"/><path d="m55.65,76.63c2.87.04,5.45-1.01,8.02-2.13,1.52-.66,3.05-1.31,4.59-1.93.41-.16.72-.33.71-.82.83.48.94.9.33,1.54-.68.72-1.56,1.12-2.46,1.49-1.72.7-3.48,1.35-5.16,2.15-1.1.52-2.09,1.27-3.24,1.98-.73-.5-1.56-1.04-2.36-1.63-.2-.14-.29-.43-.43-.65Z" style="fill:#301202; stroke-width:0px;"/><path d="m54.41,61.99c-.06,1.78-.52,3.43-1.7,4.82-1.94,2.27-4.99,2.46-7.21.46-2.79-2.53-3.14-7.53-.73-10.42,2.01-2.4,5.18-2.57,7.41-.39,1.55,1.51,2.15,3.42,2.22,5.53Zm-.97-1.88c-.22-1.29-.86-2.37-1.79-3.26-1.33-1.26-2.97-1.65-4.61-.9-1.86.86-2.95,2.43-3.04,4.56-.69,2.4.61,5.65,2.77,6.89,1.73.99,3.77.77,5.15-.7,1.75-1.88,2.25-4.11,1.53-6.59Z" style="fill:#0e2652; stroke-width:0px;"/><path d="m100.65,62.64c-.08,2.41-.46,4.33-1.42,6.11-.58,1.07-1.32,2.02-2.27,2.78-2.23,1.77-5.06,1.94-7.49.46-1.11-.67-2.03-1.55-2.71-2.64-2.57-4.13-2.82-8.41-.68-12.79.49-1,1.19-1.86,2.05-2.58,2.37-2,5.41-2.19,7.98-.43,2.27,1.56,3.52,3.81,4.14,6.43.24,1,.31,2.05.4,2.67Zm-.75,1.5c-.05-2.08-.74-4.06-2.44-5.58-2.07-1.85-4.91-1.74-6.85.24-1.18,1.2-1.77,2.68-1.91,4.32-.22,2.61.5,4.92,2.55,6.65,2.13,1.79,4.97,1.56,6.83-.51,1.27-1.41,1.79-3.1,1.81-5.13Z" style="fill:#fafafa; stroke-width:0px;"/><path d="m99.44,35.82c-.88-.39-1.76-.8-2.64-1.18-1.61-.71-3.34-.9-5.07-1.01-.75-.05-1.52.15-2.28.25-.22.03-.45.06-.76.11.12-1.05.72-1.69,1.46-2.18.46-.3,1.03-.53,1.57-.61,3.5-.48,6.2.95,7.77,4.55l-.07.07Z" style="fill:#75401d; stroke-width:0px;"/><path d="m99.5,35.75l.07.14s-.09-.05-.13-.07c0,0,.07-.07.07-.07Z" style="fill:#75401d; stroke-width:0px;"/><path d="m42.18,40.59c.6-2.77,2.78-5.02,5.48-5.45,1.04-.17,2.04-.24,3.05.14.94.35,1.5,1.04,2.03,2-.38.04-.62.1-.86.09-3.46-.15-6.5.95-9.21,3.05-.13.1-.3.14-.44.2l-.04-.03Z" style="fill:#75401d; stroke-width:0px;"/><path d="m42.22,40.62c-.03.08-.07.16-.1.25-.02-.02-.07-.05-.07-.06.04-.08.09-.15.13-.22,0,0,.04.03.04.03Z" style="fill:#75401d; stroke-width:0px;"/><path d="m65.11,70.43c-1.3,1.02-6.7,1.33-7.85.45,1.3-1.02,6.7-1.33,7.85-.45Z" style="fill:#fe8e8e; stroke-width:0px;"/><path d="m44.01,60.52c.09-2.14,1.18-3.71,3.04-4.56,1.64-.75,3.28-.36,4.61.9.93.88,1.57,1.97,1.79,3.26-.44-.22-.88-.46-1.33-.67-.3-.14-.62-.28-.89.07-.19-.23-.36-.47-.57-.68-.89-.89-2.03-1.05-3.18-.47-1.16,0-1.46.22-1.99,1.53-.49.21-.98.42-1.47.62Z" style="fill:#0143bb; stroke-width:0px;"/><path d="m51.22,59.51c.27-.35.59-.21.89-.07.45.21.89.45,1.33.67.72,2.48.22,4.71-1.53,6.59-1.37,1.48-3.42,1.7-5.15.7-2.15-1.24-3.46-4.49-2.77-6.89.49-.21.98-.42,1.47-.62,0,.2,0,.4,0,.6-.74.37-1.24.91-1.18,1.79.09,1.3.58,2.46,1.35,3.5,1.24,1.68,3.79,2.11,5.46.9,1.82-1.31,2.33-3.47,2.1-5.33-.07-.57-.44-1.02-1.13-1.15,0,.15-.02.25,0,.34.3,1.17.22,2.31-.24,3.43-.77,1.88-2.84,2.61-4.43,1.79-1.53-.79-2.34-3.21-2.17-4.54.01-.11.21-.2.32-.31.07.19.13.38.2.57.02.07.04.14.06.21v-.02c-.22,1.44.38,2.55,1.48,3.39,1.05.8,2.48.69,3.38-.27.4-.42.73-.97.93-1.52.48-1.3.23-2.57-.4-3.77Z" style="fill:#057ce4; stroke-width:0px;"/><path d="m99.91,64.15c-.03,2.02-.54,3.72-1.81,5.13-1.86,2.07-4.7,2.3-6.83.51-2.06-1.73-2.77-4.04-2.55-6.65.14-1.64.73-3.12,1.91-4.32,1.94-1.98,4.78-2.1,6.85-.24,1.7,1.52,2.39,3.49,2.44,5.58Zm-1.02-1.83c-.14-1.3-.84-2.32-1.75-3.16-1.03-.95-2.27-1.41-3.75-1.17-1.92.31-3.94,2.78-3.93,4.95-.41,2.49.3,4.61,2.16,6.3,1.62,1.47,3.9,1.46,5.56.04,1.82-1.57,2.59-4.68,1.71-6.96Z" style="fill:#0e2652; stroke-width:0px;"/><path d="m51.22,59.51c.63,1.21.88,2.47.4,3.77-.2.55-.53,1.09-.93,1.52-.9.96-2.33,1.07-3.38.27-1.1-.84-1.7-1.95-1.49-3.39.08.05.17.1.24.16,1.14.92,2.29.52,2.63-.9.26-1.09-.12-1.9-1.22-2.58,1.15-.58,2.29-.42,3.18.47.21.21.38.45.57.68Z" style="fill:#020920; stroke-width:0px;"/><path d="m47.47,58.36c1.1.68,1.48,1.48,1.22,2.58-.34,1.42-1.49,1.82-2.63.9-.07-.06-.16-.1-.24-.16,0,0,.01.02.01.02-.02-.07-.04-.14-.06-.21-.07-.19-.13-.38-.2-.57-.03-.14-.06-.29-.09-.43,0-.2,0-.4,0-.6.54-1.31.83-1.53,1.99-1.53Z" style="fill:#fafafa; stroke-width:0px;"/><path d="m45.49,60.5c.03.14.06.29.09.43-.11.1-.31.19-.32.31-.17,1.33.63,3.75,2.17,4.54,1.59.82,3.67.09,4.43-1.79.46-1.12.54-2.26.24-3.43-.02-.09,0-.19,0-.34.69.13,1.06.58,1.13,1.15.23,1.86-.29,4.02-2.1,5.33-1.67,1.21-4.23.78-5.46-.9-.77-1.04-1.25-2.2-1.35-3.5-.06-.88.44-1.42,1.18-1.79Z" style="fill:#4ea7f5; stroke-width:0px;"/><path d="m45.78,61.5c.02.07.04.14.06.21-.02-.07-.04-.14-.06-.21Z" style="fill:#020920; stroke-width:0px;"/><path d="m89.46,62.94c-.01-2.17,2-4.64,3.93-4.95,1.49-.24,2.72.22,3.75,1.17.91.84,1.6,1.87,1.75,3.16-.78-.27-1.56-.53-2.34-.8-.33-.27-.64-.6-1.01-.81-.82-.46-1.68-.65-2.52-.02-1.1-.14-1.67.48-2.01,1.42-.52.28-1.04.56-1.55.84Z" style="fill:#0143bb; stroke-width:0px;"/><path d="m89.46,62.94c.52-.28,1.04-.56,1.55-.84.08.58.17,1.16.25,1.73-.12.72.05,1.4.34,2.05.59,1.32,1.78,2.13,2.95,2.03,1.23-.11,2.32-1.15,2.66-2.54.05-.19.06-.4.09-.6.14-1.18-.14-2.26-.75-3.26.78.27,1.56.53,2.34.8.88,2.28.12,5.39-1.71,6.96-1.66,1.42-3.94,1.44-5.56-.04-1.86-1.69-2.58-3.81-2.16-6.3Zm8.2-.38c.02.34-.02.56.04.73.37,1.07.07,2.08-.35,3.02-.99,2.22-3.32,3.01-5.28,1.12-.79-.76-1.18-1.77-1.23-2.88-.02-.49,0-.97,0-1.57-.77.41-1.09.93-1.01,1.68.16,1.47.65,2.8,1.7,3.87.76.77,1.69,1.21,2.77,1.23,1.63.03,2.77-.81,3.63-2.11.65-.99.83-2.12.89-3.25.04-.7-.16-1.47-1.16-1.83Z" style="fill:#057ce4; stroke-width:0px;"/><path d="m96.55,61.52c.61,1,.9,2.08.75,3.26-.02.2-.04.4-.09.6-.34,1.39-1.43,2.43-2.66,2.54-1.17.1-2.36-.71-2.95-2.03-.29-.65-.46-1.33-.34-2.05.85.87,1.37,1.04,2.05.68.72-.38,1.11-1.39.9-2.33-.16-.69-.58-1.17-1.19-1.5.85-.63,1.7-.44,2.52.02.37.21.67.54,1.01.81Z" style="fill:#020920; stroke-width:0px;"/><path d="m93.02,60.68c.61.33,1.04.81,1.19,1.5.22.94-.18,1.95-.9,2.33-.68.36-1.21.19-2.05-.68-.08-.58-.17-1.16-.25-1.73.34-.94.91-1.56,2.01-1.42Z" style="fill:#fafafa; stroke-width:0px;"/><path d="m97.66,62.55c1,.36,1.19,1.13,1.16,1.83-.06,1.12-.24,2.26-.89,3.25-.87,1.31-2.01,2.15-3.63,2.11-1.08-.02-2.01-.46-2.77-1.23-1.05-1.07-1.54-2.4-1.7-3.87-.08-.75.23-1.26,1.01-1.68,0,.59-.02,1.08,0,1.57.05,1.11.45,2.12,1.23,2.88,1.96,1.89,4.3,1.11,5.28-1.12.42-.94.72-1.95.35-3.02-.06-.18-.03-.39-.04-.73Z" style="fill:#4ea7f5; stroke-width:0px;"/></g></svg>