<?xml version="1.0" encoding="UTF-8"?><svg id="_Слой_2" xmlns="http://www.w3.org/2000/svg" width="168.53" height="201.11" xmlns:xlink="http://www.w3.org/1999/xlink" viewBox="0 0 168.53 201.11"><defs><mask id="mask" x="44.05" y="181.89" width="25.03" height="19.23" maskUnits="userSpaceOnUse"><g id="path-9-inside-1_19_303"><path d="m66.45,183.31l.41,1.75.85,4.14c.17.81.25,1.63.25,2.45v1.22c0,.82-.16,1.63-.48,2.39l-.26.61c-.24.56-.61,1.05-1.09,1.43-1.14.9-2.71,1.03-3.98.32l-.8-.45c-.53-.29-1.13-.45-1.73-.45-.91,0-1.78.34-2.44.96l-1.17,1.1-.34.32c-1.21,1.15-3.1,1.2-4.37.11-.34-.28-.61-.64-.81-1.03l-3.53-7.05c-.58-1.16-1.11-2.35-1.58-3.55,3.98-2.81,9.84-4.59,16.38-4.59,1.6,0,3.16.11,4.67.31Z" style="fill:#fff; fill-rule:evenodd; stroke-width:0px;"/></g></mask><mask id="mask-1" x="68.2" y="93.74" width="27.65" height="17.6" maskUnits="userSpaceOnUse"><g id="path-52-inside-2_19_303"><path d="m94.46,98.3l-1.45,3.27-.73,1.67c-.43.99-.99,1.91-1.66,2.76l-.14.18c-.69.86-1.51,1.61-2.42,2.22-.99.66-2.09,1.16-3.24,1.44-.84.2-1.64.38-1.82.38h-1.91c-1.01,0-2.01-.17-2.97-.5-1.4-.48-2.66-1.3-3.66-2.38l-.39-.41-.39-.5c-1.65-2.13-3.04-4.45-4.14-6.91l-.02-.06c3.12-2.81,7.88-4.61,13.2-4.61,4.56,0,8.7,1.31,11.75,3.45Z" style="fill:#fff; fill-rule:evenodd; stroke-width:0px;"/></g></mask><mask id="mask-2" x="92.05" y="180.92" width="25.03" height="19.23" maskUnits="userSpaceOnUse"><g id="path-62-inside-3_19_303"><path d="m94.67,182.34l-.41,1.75-.85,4.14c-.17.81-.25,1.63-.25,2.45v1.22c0,.82.16,1.63.48,2.39l.26.61c.24.56.61,1.05,1.09,1.43,1.14.9,2.71,1.03,3.98.32l.8-.45c.53-.29,1.13-.45,1.73-.45.91,0,1.78.34,2.44.96l1.17,1.1.34.32c1.21,1.15,3.1,1.2,4.37.11.34-.29.61-.64.81-1.03l3.53-7.05c.58-1.16,1.11-2.35,1.57-3.55-3.98-2.81-9.84-4.59-16.38-4.59-1.6,0-3.16.11-4.67.31Z" style="fill:#fff; fill-rule:evenodd; stroke-width:0px;"/></g></mask></defs><g id="_Слой_1-2"><path d="m124.14,145.51c0,27.03-19.59,48.73-43.51,48.73s-43.51-21.7-43.51-48.73,19.59-48.73,43.51-48.73,43.51,21.7,43.51,48.73Z" style="fill:#ffceda; stroke:#9e3b4e; stroke-width:2.22px;"/><path d="m106.57,165.7c0,15.73-11.42,28.27-25.25,28.27s-25.25-12.54-25.25-28.27,11.42-28.27,25.25-28.27,25.25,12.54,25.25,28.27Z" style="fill:#f9dae2; stroke:#9e3b4e; stroke-width:2.22px;"/><path d="m38.06,145.93l.42-.99c1.09-2.54,2.42-4.96,3.97-7.25l4.67,13.59,6.45,41.33h-20.6c-.69,0-4.53.14-5.22,0-.55-.11.87-1.14,1.65-1.65.87-.73,2.33-2.42,2.33-2.75,0-.13.21-.8.5-1.68.96-2.96,1.19-6.09.74-9.17-.64-2.28-1.56-4.47-2.76-6.51l-.13-.22c-1.09-2.46-2.54-4.79-4.26-6.86l.14-.09c1.19-.76,2.31-1.63,3.36-2.58l.04-.04c.94-.85,1.81-1.78,2.61-2.76,1.12-1.39,2.09-2.89,2.89-4.49l1.27-2.54,1.92-5.36Z" style="fill:#ffceda; stroke:#9e3b4e; stroke-width:2.22px;"/><path d="m25.84,194.26l1.31-.56c1.04-.45,2.01-1.06,2.86-1.81.7-.61,1.31-1.31,1.82-2.09l.46-.69c.45-.68.84-1.41,1.13-2.18.52-1.33.79-2.74.79-4.17v-2.6c0-1.4-.2-2.79-.61-4.13-.14-.48-.32-.95-.54-1.4l-.91-1.93-.76-1.64c-.68-1.46-1.51-2.85-2.48-4.15l-.82-1.1c-.4-.53-.85-1.03-1.35-1.47l-.26-.23c-.87-.77-1.9-1.35-3.02-1.69l-.27-.08c-1.06-.32-2.18-.4-3.26-.21l-.11.02c-.91.16-1.78.51-2.55,1.04-.95.65-1.71,1.54-2.2,2.57l-.49,1.02-2.67-1.2c-.87-.39-1.81-.59-2.76-.59h-.47c-.46,0-.91.08-1.35.23-.82.29-1.53.85-2.01,1.58l-.47.72c-.56.86-.91,1.85-1.02,2.87l-.12,1.1c-.08.79-.08,1.58,0,2.37l.28,2.66.23,1.66c.3,2.18.92,4.3,1.83,6.31.91,1.73,1.99,3.38,3.2,4.92l.78.98,1.15,1.21c.87.92,1.91,1.67,3.06,2.22.58.27,1.18.5,1.81.65,1.09.27,2.44.59,2.77.59h4.12c.44,0,2.11-.55,2.88-.82Z" style="fill:#b04e60; stroke:#9e3b4e; stroke-width:1.11px;"/><path d="m6.6,165.56h.36c.99,0,1.97.26,2.84.74.58.33,1.1.75,1.54,1.25l1.13,1.3c.47.59,1.4.41,1.63-.3l.52-1.62c.03-.09.07-.18.11-.26l.8-1.59c.25-.5.59-.94,1.02-1.29l.25-.22c.57-.49,1.3-.75,2.05-.75.59,0,1.16.16,1.66.47l.62.38c.72.44,1.33,1.02,1.79,1.72l.94,1.41,1.65,2.61c.91,1.83,1.69,3.72,2.31,5.67l.16.51c.55,1.64.92,3.34,1.1,5.06l.13,1.25v3.77c0,1.93-.55,3.82-1.58,5.46l-.2.31c-.37.59-.83,1.13-1.35,1.6-.39.35-.82.66-1.27.93l-1.45.84-.88.27h-3.72c-.33,0-1.68-.31-2.77-.59-.62-.15-1.23-.38-1.81-.65-1.15-.54-2.19-1.3-3.06-2.22l-1.15-1.21-.78-.98c-1.22-1.54-2.29-3.19-3.2-4.92-.91-2-1.53-4.13-1.83-6.31l-.23-1.66-.28-2.66c-.08-.79-.08-1.58,0-2.37l.12-1.1c.11-1.03.46-2.01,1.02-2.87l.47-.72c.34-.52.8-.95,1.33-1.27Z" style="fill:#a84d5e; fill-rule:evenodd; stroke-width:0px;"/><path d="m6.6,165.56v-1.11h-.3l-.26.15.56.96Zm3.2.74l-.55.97h0l.55-.97Zm1.54,1.25l-.84.73h0l.84-.73Zm1.13,1.3l.87-.7v-.02s-.03-.02-.03-.02l-.84.73Zm1.63-.3l-1.06-.34h0l1.06.34Zm.52-1.62l1.06.34h0l-1.06-.34Zm.11-.26l-.99-.5h0l.99.5Zm.8-1.59l.99.5h0l-.99-.5Zm1.02-1.29l.72.85h0l-.72-.85Zm.25-.22l-.72-.85h0l.72.85Zm3.71-.29l.58-.95h0l-.58.95Zm.62.38l-.58.95h0l.58-.95Zm1.79,1.72l-.93.62h0l.93-.62Zm.94,1.41l.94-.59h0s0-.02,0-.02l-.93.62Zm1.65,2.61l.99-.5-.02-.05-.03-.05-.94.59Zm2.31,5.67l-1.06.34h0l1.06-.34Zm.16.51l-1.06.34h0s1.06-.34,1.06-.34Zm1.1,5.06l1.11-.12h0l-1.11.12Zm.13,1.25h1.11v-.12s-1.11.12-1.11.12Zm-1.58,9.23l.94.59h0l-.94-.59Zm-.2.31l-.94-.59h0l.94.59Zm-1.35,1.6l-.74-.83h0l.74.83Zm-1.27.93l.56.96h0l-.56-.96Zm-1.45.84l.33,1.06.12-.04.11-.06-.56-.96Zm-.88.27v1.11h.17l.16-.05-.33-1.06Zm-6.49-.59l.27-1.08h0l-.27,1.08Zm-1.81-.65l.48-1.01h0l-.48,1.01Zm-3.06-2.22l.81-.77h0l-.81.77Zm-1.15-1.21l-.87.69.03.04.03.04.81-.77Zm-.78-.98l-.87.69h0l.87-.69Zm-3.2-4.92l-1.01.46v.03s.03.03.03.03l.98-.52Zm-1.83-6.31l1.1-.15h0l-1.1.15Zm-.23-1.66l-1.11.12v.02s0,.02,0,.02l1.1-.15Zm-.28-2.66l-1.11.12,1.11-.12Zm0-2.37l1.11.12-1.11-.12Zm.12-1.1l1.11.12h0l-1.11-.12Zm1.02-2.87l-.93-.61h0l.93.61Zm.47-.72l.93.61h0l-.93-.61Zm1.69-2.38h-.36v2.22h.36v-2.22Zm3.38.89c-1.03-.58-2.2-.89-3.38-.89v2.22c.8,0,1.59.21,2.29.6l1.09-1.94Zm1.83,1.49c-.52-.6-1.14-1.1-1.83-1.49l-1.09,1.94c.47.26.89.61,1.24,1.01l1.68-1.46Zm1.13,1.3l-1.13-1.3-1.68,1.46,1.13,1.3,1.68-1.46Zm-.27.09c.04-.13.21-.16.29-.05l-1.74,1.39c1.02,1.28,3.06.9,3.56-.66l-2.12-.68Zm.52-1.62l-.52,1.62,2.12.68.52-1.62-2.12-.68Zm.17-.42c-.07.14-.13.28-.17.42l2.12.68s.03-.07.04-.11l-1.99-1Zm.8-1.59l-.8,1.59,1.99,1,.8-1.59-1.99-.99Zm1.29-1.65c-.54.46-.98,1.02-1.29,1.65l1.99.99c.18-.36.43-.68.74-.94l-1.44-1.7Zm.25-.21l-.25.21,1.44,1.7.25-.22-1.44-1.7Zm2.77-1.02c-1.02,0-2,.36-2.77,1.02l1.44,1.7c.37-.32.85-.49,1.34-.49v-2.22Zm2.24.63c-.67-.41-1.45-.63-2.24-.63v2.22c.38,0,.75.11,1.08.3l1.16-1.9Zm.62.38l-.62-.38-1.16,1.9.62.38,1.16-1.9Zm2.14,2.06c-.55-.83-1.28-1.53-2.14-2.06l-1.16,1.9c.58.35,1.07.83,1.45,1.39l1.85-1.23Zm.94,1.41l-.94-1.41-1.85,1.23.94,1.41,1.85-1.23Zm1.66,2.63l-1.65-2.61-1.88,1.19,1.65,2.61,1.88-1.19Zm2.43,5.93c-.64-2-1.43-3.95-2.37-5.83l-1.99,1c.89,1.78,1.64,3.62,2.24,5.51l2.12-.68Zm.16.51l-.16-.51-2.12.68.16.51,2.12-.68Zm1.15,5.28c-.19-1.8-.58-3.58-1.15-5.29l-2.11.7c.52,1.57.87,3.19,1.05,4.83l2.21-.24Zm.13,1.25l-.13-1.25-2.21.24.13,1.25,2.21-.24Zm0,3.83v-3.71h-2.22v3.71h2.22Zm0,.06v-.06h-2.22v.06h2.22Zm-1.75,6.05c1.14-1.81,1.75-3.91,1.75-6.05h-2.22c0,1.72-.49,3.41-1.4,4.87l1.88,1.18Zm-.2.31l.2-.31-1.88-1.18-.2.31,1.88,1.18Zm-1.54,1.83c.6-.54,1.12-1.15,1.54-1.83l-1.88-1.18c-.32.51-.71.97-1.15,1.36l1.49,1.65Zm-1.46,1.06c.52-.3,1.01-.66,1.46-1.06l-1.49-1.65c-.33.3-.7.57-1.09.79l1.11,1.93Zm-1.45.84l1.45-.84-1.11-1.93-1.45.84,1.11,1.92Zm-1.1.37l.88-.27-.66-2.12-.88.27.66,2.12Zm-4.05.05h3.72v-2.22h-3.72v2.22Zm-3.04-.62c.55.14,1.17.29,1.7.4.26.06.51.11.72.15.18.03.42.07.61.07v-2.22s-.03,0-.23-.04c-.17-.03-.39-.07-.64-.13-.5-.11-1.1-.25-1.64-.39l-.54,2.16Zm-2.01-.72c.64.3,1.31.55,2.01.72l.54-2.16c-.55-.14-1.08-.33-1.6-.58l-.95,2.01Zm-3.39-2.46c.97,1.02,2.12,1.86,3.39,2.46l.95-2.01c-1.02-.48-1.95-1.16-2.73-1.98l-1.61,1.53Zm-1.15-1.21l1.15,1.21,1.61-1.53-1.15-1.21-1.61,1.53Zm-.84-1.06l.78.98,1.74-1.38-.78-.98-1.74,1.38Zm-3.32-5.09c.95,1.8,2.06,3.5,3.32,5.09l1.74-1.38c-1.17-1.48-2.21-3.07-3.09-4.75l-1.97,1.04Zm-1.95-6.67c.32,2.29.96,4.51,1.92,6.61l2.02-.92c-.87-1.91-1.45-3.93-1.74-6l-2.2.31Zm-.23-1.66l.23,1.66,2.2-.31-.23-1.66-2.2.31Zm-.29-2.69l.28,2.66,2.21-.24-.28-2.66-2.21.24Zm0-2.61c-.09.87-.09,1.74,0,2.61l2.21-.24c-.08-.71-.08-1.43,0-2.14l-2.21-.24Zm.12-1.1l-.12,1.1,2.21.24.12-1.1-2.21-.24Zm1.2-3.36c-.66,1.01-1.07,2.16-1.2,3.36l2.21.24c.09-.85.38-1.67.85-2.39l-1.86-1.21Zm.47-.72l-.47.72,1.86,1.21.47-.71-1.86-1.22Zm1.7-1.62c-.68.4-1.26.95-1.7,1.62l1.86,1.22c.25-.38.58-.69.96-.92l-1.12-1.92Z" style="fill:#9e3b4e; stroke-width:0px;"/><path d="m104.4,177.78c-6.53,4.27-15.24,6.88-24.81,6.88-7.96,0-15.33-1.81-21.35-4.88,4.62,8.52,13,14.21,22.58,14.21,10.31,0,19.24-6.6,23.57-16.22Z" style="fill:rgba(255,234,240,.61); fill-rule:evenodd; stroke-width:0px;"/><path d="m36.5,142.62l.04-.27c.71-4.75,4.92-8.17,9.71-7.9l2.24.13c6.69.38,12.33,5.1,13.88,11.62l.69,5.9.16,1.04c.72,4.79,1.08,9.63,1.08,14.47l.82,6.32.55,5.63,1.24,5.22.85,4.14c.17.81.25,1.63.25,2.45v1.22c0,.82-.16,1.63-.48,2.39l-.26.61c-.24.56-.61,1.05-1.09,1.43-1.14.9-2.71,1.03-3.98.32l-.8-.45c-.53-.29-1.13-.45-1.73-.45-.91,0-1.78.34-2.44.97l-1.17,1.09-.34.32c-1.21,1.15-3.1,1.2-4.37.11-.34-.29-.61-.64-.81-1.03l-3.53-7.05c-.93-1.86-1.72-3.78-2.36-5.75l-3.15-9.67-3.02-14.14-1.78-11.26-.25-6.3c-.01-.37,0-.75.06-1.12Z" style="fill:#ffceda; stroke:#9e3b4e; stroke-width:2.22px;"/><path d="m66.45,183.31l.41,1.75.85,4.14c.17.81.25,1.63.25,2.45v1.22c0,.82-.16,1.63-.48,2.39l-.26.61c-.24.56-.61,1.05-1.09,1.43-1.14.9-2.71,1.03-3.98.32l-.8-.45c-.53-.29-1.13-.45-1.73-.45-.91,0-1.78.34-2.44.96l-1.17,1.1-.34.32c-1.21,1.15-3.1,1.2-4.37.11-.34-.28-.61-.64-.81-1.03l-3.53-7.05c-.58-1.16-1.11-2.35-1.58-3.55,3.98-2.81,9.84-4.59,16.38-4.59,1.6,0,3.16.11,4.67.31Z" style="fill:#9e3b4e; fill-rule:evenodd; stroke-width:0px;"/><g style="mask:url(#mask);"><path d="m66.45,183.31l1.08-.26-.18-.74-.76-.1-.15,1.1Zm.41,1.75l1.09-.22v-.02s0-.02,0-.02l-1.08.26Zm.85,4.14l1.09-.22h0l-1.09.22Zm-.23,6.07l-1.03-.43h0l1.03.43Zm-.26.61l1.03.43h0l-1.03-.43Zm-1.09,1.43l-.69-.87h0l.69.87Zm-3.98.32l-.54.97h0l.54-.97Zm-.8-.45l-.54.97h0l.54-.97Zm-4.17.51l-.76-.81h0l.76.81Zm-1.17,1.1l-.76-.81h0s.76.81.76.81Zm-.34.32l-.76-.81h0l.76.81Zm-4.37.11l-.72.85h0l.72-.85Zm-.81-1.03l.99-.5h0l-.99.5Zm-3.53-7.05l-.99.5h0l.99-.5Zm-1.58-3.55l-.64-.91-.71.5.31.81,1.04-.4Zm19.97-4.02l.41,1.75,2.16-.51-.41-1.75-2.16.51Zm.41,1.72l.85,4.14,2.18-.45-.85-4.14-2.18.45Zm.85,4.14c.15.73.23,1.48.23,2.23h2.22c0-.9-.09-1.8-.27-2.68l-2.18.45Zm.23,2.23v1.22h2.22v-1.22h-2.22Zm0,1.22c0,.67-.13,1.34-.4,1.96l2.05.86c.38-.89.57-1.85.57-2.82h-2.22Zm-.4,1.96l-.26.61,2.05.86.26-.61-2.05-.86Zm-.26.61c-.16.39-.42.73-.75.99l1.38,1.74c.62-.49,1.11-1.14,1.42-1.87l-2.05-.86Zm-.75.99c-.79.62-1.87.71-2.75.22l-1.08,1.94c1.66.92,3.71.76,5.21-.42l-1.38-1.74Zm-2.75.22l-.8-.45-1.08,1.94.8.45,1.08-1.94Zm-.8-.45c-.69-.39-1.48-.59-2.27-.59v2.22c.42,0,.83.11,1.19.31l1.08-1.94Zm-2.27-.59c-1.19,0-2.33.45-3.2,1.27l1.52,1.62c.45-.43,1.05-.66,1.68-.66v-2.22Zm-3.2,1.27l-1.17,1.1,1.52,1.62,1.17-1.1-1.52-1.62Zm-1.17,1.1l-.34.32,1.53,1.62.34-.32-1.53-1.62Zm-.34.32c-.8.76-2.05.79-2.89.08l-1.44,1.69c1.71,1.45,4.23,1.38,5.85-.15l-1.53-1.62Zm-2.89.08c-.22-.19-.4-.42-.53-.68l-1.99,1c.26.53.63,1,1.08,1.38l1.44-1.69Zm-.53-.68l-3.53-7.05-1.99.99,3.53,7.05,1.99-1Zm-3.53-7.05c-.56-1.13-1.08-2.28-1.53-3.46l-2.07.81c.48,1.24,1.02,2.46,1.62,3.65l1.99-.99Zm-1.93-2.15c3.75-2.65,9.38-4.38,15.74-4.38v-2.22c-6.72,0-12.83,1.82-17.03,4.79l1.28,1.82Zm15.74-4.38c1.55,0,3.06.1,4.52.3l.3-2.2c-1.55-.21-3.16-.32-4.81-.32v2.22Z" style="fill:#9e3b4e; stroke-width:0px;"/></g><path d="m49.05,192.2l-1.27-2.36c-.45-.84-.18-1.87.62-2.38.87-.55,2.03-.27,2.55.63l.16.27.92,1.63c.56,1,1.41,1.8,2.43,2.31,1.29.64,2.77.78,4.15.39l.1-.03c.42-.12.86-.2,1.3-.22l3.44-.2c.37-.02.75.04,1.09.19l.32.13c1,.42,1.5,1.54,1.16,2.56-.14.42-.42.79-.78,1.05l-.12.08c-.69.47-1.56.58-2.34.28l-.58-.23c-.43-.17-.88-.25-1.34-.29-.73-.06-1.58-.17-2.19.04-.58.19-1.51.82-2.06,1.1-.49.25-1.37,1.37-2.2,1.51-.06.01-.13.02-.19.03-1.31.17-2.52-.77-3.11-1.95l-2.06-4.53Z" style="fill:rgba(139,50,67,.71); stroke-width:0px;"/><path d="m45.07,116.91c2.32-.12,4.64.51,6.59,1.87,1.47,1.03,2.71,1.91,2.94,2.12.1.09.43.3.91.59,4.53,2.76,10.17,2.88,14.97.64,2.43-.81,8.69-1.19,9.46-1.23.77-.04,7.46.48,11.31,1.38l2.98.83c4.01,1.11,8.29.72,12.03-1.1.78-.38,1.52-.81,2.23-1.3l.23-.16c2.19-1.51,4.64-2.58,7.22-3.17-8.15-12.02-21.06-19.78-35.6-19.78s-27.12,7.57-35.28,19.32Z" style="fill:rgba(255,176,196,.79); fill-rule:evenodd; stroke-width:0px;"/><path d="m125.63,18.26l-.93,1.34,11.26,44.21,4.12,2.61c1.97.05,6.07.11,6.73,0,.82-.14,4.81-1.1,5.77-1.37.39-.11,1.38-.6,2.45-1.16,1.94-1.02,3.63-2.44,5.05-4.11,1.13-1.33,2.07-2.82,2.78-4.41l.79-1.77c.68-1.52,1.24-3.08,1.67-4.69l.44-1.62c.73-2.71,1.23-5.47,1.48-8.27.3-3.32.25-6.67-.15-9.98l-.23-1.88-.69-5.35-.39-1.9c-.74-3.58-1.12-7.22-1.12-10.87l-.57-5.75c-.07-.71-.45-1.34-1.03-1.75-.78-.53-1.8-.57-2.6-.08l-.05.03-3.43,2.33c-1.6.82-4.91,2.5-5.35,2.61-.04,0-.09.03-.16.06-3.74,1.44-7.45,2.97-11.37,3.79l-5.38,1.51c-1.62.46-3.17,1.16-4.58,2.09-1.77,1.16-3.3,2.66-4.5,4.4Z" style="fill:#ffceda; stroke:#9e3b4e; stroke-width:2.22px;"/><path d="m134.18,27.43c-.44.44-2.47,2.01-3.43,2.75l3.43,24.85h3.59c.89,0,1.78.13,2.64.4l2.28.71c1.38.43,2.46,1.5,2.88,2.88l.22.6c.4,1.11,1.83,1.4,2.64.54.11-.12.2-.25.27-.4l.61-1.28c.52-1.09.79-2.3.79-3.51,0-.68-.09-1.36-.26-2.02-.28-1.07-.78-2.06-1.47-2.93l-1.7-2.12-.88-1.42c-.58-.94-.78-2.06-.55-3.14.22-1.04.81-1.96,1.67-2.59l.16-.12c.37-.27.79-.49,1.22-.65l2.77-1,4.67-1.1,2.33-.69.28-.09c1.28-.39,1.66-2.02.69-2.94-.19-.18-.41-.31-.66-.39l-3.34-1.09c-1.45-.47-2.84-1.12-4.1-2-.75-.52-1.41-1.01-1.52-1.19-.11-.17-.28-.85-.44-1.61-.27-1.27-.07-2.59.51-3.75.41-.81.99-1.52,1.7-2.08,1.34-1.06,3.1-2.46,3.86-3.13,2-1.78,3.46-4.08,4.28-6.63l.49-1.5c.02-.07.04-.15.06-.22l.06-.33c.22-1.29-1.24-2.2-2.3-1.43-.08.06-.15.12-.21.19l-3.61,3.88c-1.82,1.73-3.93,3.11-6.23,4.09l-2.01.85c-2.73,1.46-5.25,3.28-7.48,5.44-.33.32-.56.54-.62.6-.27.27-2.75,3.02-3.3,3.57Z" style="fill:rgba(255,189,205,.61); stroke-width:0px;"/><path d="m132.8,34.02l.45-.73c1.99-3.26,3.83-6.92,7.11-8.88h0c.69-.41,4.94-3.16,6.04-3.57.67-.25,2.82-1.73,4.69-2.95,1.07-.7,2.11-1.46,3.07-2.31h0c1.41-1.25,2.65-2.68,3.68-4.25l2.15-3.26" style="fill:none; stroke:#9e3b4e; stroke-linecap:round; stroke-width:2.22px;"/><path d="m135.27,43.09c.69-.69,2.2-2.2,3.16-2.75h0c3.03-1.73,6.44-2.71,9.9-3.17l.94-.13h3.02" style="fill:none; stroke:#9e3b4e; stroke-linecap:round; stroke-width:2.22px;"/><path d="m134.45,48.17h5.49c.48,0,1.69.53,2.83,1.1,1.22.6,2.24,1.54,3.03,2.65h0c.75,1.06,1.26,2.27,1.51,3.54l.31,1.64" style="fill:none; stroke:#9e3b4e; stroke-linecap:round; stroke-width:2.22px;"/><path d="m42.9,18.26l.93,1.34-11.26,44.21-4.12,2.61c-1.97.05-6.07.11-6.73,0-.82-.14-4.81-1.1-5.77-1.37-.39-.11-1.38-.6-2.45-1.16-1.94-1.02-3.63-2.44-5.05-4.11-1.13-1.33-2.07-2.82-2.78-4.41l-.79-1.77c-.68-1.52-1.24-3.08-1.67-4.69l-.44-1.62c-.73-2.71-1.23-5.47-1.48-8.27-.3-3.32-.25-6.67.15-9.98l.23-1.88.69-5.35.39-1.9c.74-3.58,1.12-7.22,1.12-10.87l.58-5.75c.07-.71.45-1.34,1.03-1.75.78-.53,1.79-.57,2.6-.08l.05.03,3.43,2.33c1.6.82,4.92,2.5,5.35,2.61.04,0,.09.03.16.06,3.74,1.44,7.45,2.97,11.37,3.79l5.38,1.51c1.62.46,3.17,1.16,4.58,2.09,1.77,1.16,3.3,2.66,4.5,4.4Z" style="fill:#ffceda; stroke:#9e3b4e; stroke-width:2.22px;"/><path d="m34.36,27.43c.44.44,2.47,2.01,3.43,2.75l-3.43,24.85h-3.59c-.89,0-1.78.13-2.64.4l-2.28.71c-1.38.43-2.46,1.5-2.89,2.88l-.22.6c-.4,1.11-1.83,1.4-2.64.54-.11-.12-.2-.25-.27-.4l-.61-1.28c-.52-1.09-.79-2.3-.79-3.51,0-.68.09-1.36.26-2.02.28-1.07.78-2.06,1.47-2.93l1.7-2.12.88-1.42c.58-.94.78-2.06.55-3.14-.22-1.04-.81-1.96-1.67-2.59l-.17-.12c-.37-.27-.79-.49-1.22-.65l-2.77-1-4.67-1.1-2.33-.69-.28-.09c-1.28-.39-1.67-2.02-.69-2.94.19-.18.41-.31.66-.39l3.34-1.09c1.45-.47,2.84-1.12,4.1-2,.75-.52,1.41-1.01,1.52-1.19.11-.17.28-.85.45-1.61.27-1.27.06-2.59-.52-3.75-.41-.81-.99-1.52-1.7-2.08-1.34-1.06-3.1-2.46-3.86-3.13-2-1.78-3.46-4.08-4.28-6.63l-.49-1.5c-.02-.07-.04-.15-.05-.22l-.06-.33c-.22-1.29,1.24-2.2,2.3-1.43.08.06.15.12.21.19l3.61,3.88c1.82,1.73,3.93,3.11,6.23,4.09l2.01.85c2.73,1.46,5.25,3.28,7.48,5.44.33.32.56.54.62.6.27.27,2.75,3.02,3.3,3.57Z" style="fill:rgba(255,189,205,.61); stroke-width:0px;"/><path d="m35.73,34.02l-.45-.73c-1.99-3.26-3.83-6.92-7.11-8.88h0c-.69-.41-4.94-3.16-6.04-3.57-.67-.25-2.82-1.73-4.69-2.95-1.07-.7-2.11-1.46-3.07-2.31h0c-1.41-1.25-2.65-2.68-3.68-4.25l-2.15-3.26" style="fill:none; stroke:#9e3b4e; stroke-linecap:round; stroke-width:2.22px;"/><path d="m33.26,43.09c-.69-.69-2.2-2.2-3.16-2.75h0c-3.03-1.73-6.44-2.71-9.9-3.17l-.94-.13h-3.02" style="fill:none; stroke:#9e3b4e; stroke-linecap:round; stroke-width:2.22px;"/><path d="m34.08,48.17h-5.49c-.48,0-1.69.53-2.84,1.1-1.22.6-2.24,1.54-3.03,2.65h0c-.75,1.06-1.26,2.27-1.51,3.54l-.31,1.64" style="fill:none; stroke:#9e3b4e; stroke-linecap:round; stroke-width:2.22px;"/><path d="m74.55,117.42l-2.65-.86c-.86-.28-1.64-.75-2.29-1.37-1.13-1.07-2.62-1.67-4.17-1.67h-1.56l-7.96-1.1-6.87-1.92-1.92-.65c-4.65-1.58-9.12-3.66-13.32-6.21l-1.67-1.25c-3.24-2.43-5.95-5.51-7.94-9.04l-.14-.26c-1.91-3.55-3.16-7.42-3.71-11.41v-2.59c0-2.02.21-4.04.61-6.01l.49-2.37c.45-2.18,1.32-4.25,2.55-6.11.94-1.42,1.68-2.97,2.17-4.6l1.04-3.45.23-1.52c.39-2.55.59-5.13.59-7.72v-.78c0-1.93.14-3.85.42-5.75l.07-.48c.41-2.8,1.14-5.54,2.19-8.16l.03-.08c.75-1.89,1.67-3.7,2.74-5.43l.18-.29c1.64-2.64,3.65-5.04,5.96-7.11,1.15-1.03,2.37-1.97,3.65-2.83l6.72-4.48c4.56-2.37,9.39-4.18,14.39-5.39l.99-.24c5.57-.91,11.21-1.37,16.86-1.37h2.09c4.84,0,9.66.46,14.41,1.37,5.3,1.37,10.45,3.24,15.4,5.57l.11.05,2.21,1.4c3,1.9,5.8,4.1,8.36,6.56l3.43,4.12,1.15,1.51c1.24,1.64,2.29,3.42,3.12,5.3.54,1.22.98,2.48,1.33,3.77l.85,3.14v.07c.64,4.16.96,8.36.96,12.56l.96,7,.07.39c.5,2.65,1.5,5.17,2.95,7.44l.63,1.38c1.04,2.28,1.84,4.65,2.39,7.09l.27,1.21c.28,1.23.44,2.48.5,3.74.12,2.56-.21,5.13-.98,7.58l-.4,1.28c-.51,1.62-1.16,3.19-1.94,4.69l-.97,1.87c-1.13,2.17-2.61,4.14-4.39,5.83-1.59,1.5-3.39,2.75-5.34,3.72l-9.27,4.58-9.26,3.05c-2.43.8-4.93,1.33-7.48,1.58l-3.85.38c-2.36.23-4.65.96-6.71,2.15-.94.54-1.93.99-2.95,1.33l-1.2.41c-2.46.84-5.04,1.26-7.63,1.26h-.84c-1.94,0-3.86-.31-5.71-.91Z" style="fill:#ffceda; stroke:#9e3b4e; stroke-width:2.22px;"/><path d="m66.07,92.38c-.11-.22-1.24-1.28-1.79-1.79l17.44-5.63,16.75,4.39,1.24.69-1.65,2.33c-1.1,1.37-2.06,2.84-2.86,4.4l-.57,1.09-1.65,3.71-.73,1.67c-.43.99-.99,1.91-1.66,2.76l-.14.18c-.69.86-1.51,1.61-2.42,2.22-.99.66-2.09,1.16-3.24,1.44-.84.2-1.64.38-1.82.38h-1.91c-1.01,0-2.01-.17-2.97-.5-1.4-.48-2.66-1.3-3.66-2.38l-.39-.41-.39-.5c-1.65-2.13-3.04-4.45-4.14-6.91l-.28-.76c-.82-2.23-2.09-4.25-3.15-6.38Z" style="fill:#b44d60; stroke:#9e3b4e; stroke-width:2.22px;"/><path d="m47.26,81.53h0c1.09,1.36,2.41,2.52,3.9,3.43l.9.55.18.1c1.88,1.03,3.9,1.78,6,2.23h0l6.04,1.65" style="fill:none; stroke:#9e3b4e; stroke-width:2.22px;"/><ellipse cx="113.99" cy="56.68" rx="12.36" ry="14" style="fill:#ffa5bb; stroke-width:0px;"/><ellipse cx="112.48" cy="58.19" rx="10.02" ry="11.4" style="fill:#ffdee6; stroke-width:0px;"/><path d="m115.63,59.56c0,4.3-2.7,7.54-5.76,7.54s-5.76-3.24-5.76-7.54,2.7-7.54,5.76-7.54,5.76,3.24,5.76,7.54Z" style="fill:#651e2c; stroke:#000; stroke-width:1.11px;"/><circle cx="108.91" cy="60.93" r="3.43" style="fill:#0d0d0d; stroke-width:0px;"/><path d="m115.22,75.64c1.35-2.78,3.83-5.16,7.11-6.44,3.73-1.46,7.67-1.18,10.76.44-1.91-1.73-4.47-2.79-7.29-2.79-5.34,0-9.77,3.81-10.58,8.8Z" style="fill:#9e3b4e; fill-rule:evenodd; stroke-width:0px;"/><path d="m124.09,36.26c.08-.42.12-.84.12-1.28,0-4.55-4.43-8.24-9.89-8.24-3.86,0-7.21,1.85-8.84,4.54,1.99-1.29,4.6-2.07,7.46-2.07,5.66,0,10.35,3.06,11.14,7.04Z" style="fill:#9e3b4e; fill-rule:evenodd; stroke-width:0px;"/><path d="m69.37,54.89l2.93-1.24c1.52-.64,3.1-1.13,4.71-1.47l1.31-.27c1.89-.39,3.84-.47,5.76-.23h0c1.72.21,3.4.68,4.98,1.39l4.07,1.82" style="fill:none; stroke:#9e3b4e; stroke-width:2.22px;"/><path d="m50.7,79.47l-1.83.87c-.69.33-1.31.8-1.8,1.38h0c-.59.68-.99,1.5-1.19,2.38l-.25,1.13" style="fill:none; stroke:#9e3b4e; stroke-linecap:round; stroke-width:2.22px;"/><path d="m116.74,81.53h0c-1.09,1.36-2.41,2.52-3.9,3.43l-.9.55-.18.1c-1.88,1.03-3.9,1.78-6,2.23h0l-6.04,1.65" style="fill:none; stroke:#9e3b4e; stroke-width:2.22px;"/><path d="m113.31,79.47l1.84.87c.69.33,1.31.8,1.8,1.38h0c.59.68.99,1.5,1.19,2.38l.25,1.13" style="fill:none; stroke:#9e3b4e; stroke-linecap:round; stroke-width:2.22px;"/><path d="m106.57,83.27c-.39,2.95-1.71,4.59-3.5,5.46-1.85.9-4.28,1.04-6.94.78-2.65-.26-5.45-.91-7.99-1.5l-.12-.03c-2.46-.57-4.73-1.1-6.29-1.1-1.2,0-2.52.26-3.87.62-1.05.28-2.15.63-3.26.98-.33.1-.66.21-.98.31-2.92.91-5.88,1.73-8.58,1.5-3.68-.31-5.96-3.08-6.91-6.79-.95-3.72-.52-8.24,1.16-11.75,4.17-8.71,13.22-12.58,22.47-12.87,13.18-.41,25.49,9.26,24.83,24.38Z" style="fill:#fd9393; stroke:#9e3b4e; stroke-width:1.11px;"/><ellipse cx="111.11" cy="58.33" rx="1.24" ry="1.92" style="fill:#f7f7f7; stroke-width:0px;"/><circle cx="107.13" cy="63.54" r=".82" style="fill:#fafafa; stroke-width:0px;"/><ellipse cx="50.16" cy="56.68" rx="12.36" ry="14" style="fill:#ffa5bb; stroke-width:0px;"/><ellipse cx="51.67" cy="58.19" rx="10.02" ry="11.4" style="fill:#ffdee6; stroke-width:0px;"/><path d="m48.52,59.56c0,4.3,2.7,7.54,5.76,7.54s5.76-3.24,5.76-7.54-2.7-7.54-5.76-7.54-5.76,3.24-5.76,7.54Z" style="fill:#651e2c; stroke:#000; stroke-width:1.11px;"/><circle cx="55.24" cy="60.93" r="3.43" style="fill:#0d0d0d; stroke-width:0px;"/><path d="m48.93,75.64c-1.35-2.78-3.83-5.16-7.11-6.44-3.73-1.46-7.67-1.18-10.76.44,1.91-1.73,4.48-2.79,7.29-2.79,5.34,0,9.77,3.81,10.58,8.8Z" style="fill:#9e3b4e; fill-rule:evenodd; stroke-width:0px;"/><path d="m40.07,36.26c-.08-.42-.12-.84-.12-1.28,0-4.55,4.43-8.24,9.89-8.24,3.86,0,7.21,1.85,8.84,4.54-1.99-1.29-4.6-2.07-7.46-2.07-5.66,0-10.35,3.06-11.14,7.04Z" style="fill:#9e3b4e; fill-rule:evenodd; stroke-width:0px;"/><ellipse cx="53.05" cy="58.33" rx="1.24" ry="1.92" style="fill:#f7f7f7; stroke-width:0px;"/><circle cx="57.03" cy="63.54" r=".82" style="fill:#fafafa; stroke-width:0px;"/><ellipse cx="68.41" cy="78.24" rx="3.84" ry="5.35" style="fill:#791515; stroke-width:0px;"/><path d="m72.19,77c-.33,2.5-1.9,4.39-3.78,4.39s-3.46-1.89-3.78-4.39c-.04.31-.06.63-.06.96,0,2.96,1.72,5.35,3.84,5.35s3.84-2.4,3.84-5.35c0-.33-.02-.65-.06-.96Z" style="fill:#641212; fill-rule:evenodd; stroke-width:0px;"/><ellipse cx="93.67" cy="78.24" rx="3.84" ry="5.35" style="fill:#791515; stroke-width:0px;"/><path d="m97.46,77c-.33,2.5-1.9,4.39-3.78,4.39s-3.46-1.89-3.78-4.39c-.04.31-.06.63-.06.96,0,2.96,1.72,5.35,3.84,5.35s3.84-2.4,3.84-5.35c0-.33-.02-.65-.06-.96Z" style="fill:#641212; fill-rule:evenodd; stroke-width:0px;"/><path d="m58.8,73.66v1.32c0,1.5.35,2.98,1.03,4.32l.3.58c.37.73.89,1.39,1.51,1.92,1.13.97,2.58,1.5,4.07,1.5h.81c.44,0,.89-.03,1.32-.1l3.4-.54c1.4-.3,4.36-.9,5.01-.9.29,0,.69-.1,1.22-.22.96-.23,2.31-.55,4.06-.55,1.91,0,3.13.21,4.1.41.2.04.41.08.61.13,1.37.28,2.75.56,4.08,1.01,1.52.51,3.12.77,4.73.77h2.19c1.58,0,3.15-.42,4.52-1.2.4-.23.77-.5,1.1-.81.99-.94,1.6-2.2,1.73-3.56l.2-2.14v-2.71c1.46,3.04,2.21,6.55,2.03,10.42-1.22,8.79-11.38,6.55-18.88,4.89-2.48-.55-4.67-1.03-6.14-1.03-1.98,0-4.34.71-6.85,1.47-2.81.85-5.8,1.75-8.61,1.76-7.63.03-10.29-9.91-7.53-17.16v.44Z" style="fill:rgba(254,132,132,.62); fill-rule:evenodd; stroke-width:0px;"/><path d="m94.46,98.3l-1.45,3.27-.73,1.67c-.43.99-.99,1.91-1.66,2.76l-.14.18c-.69.86-1.51,1.61-2.42,2.22-.99.66-2.09,1.16-3.24,1.44-.84.2-1.64.38-1.82.38h-1.91c-1.01,0-2.01-.17-2.97-.5-1.4-.48-2.66-1.3-3.66-2.38l-.39-.41-.39-.5c-1.65-2.13-3.04-4.45-4.14-6.91l-.02-.06c3.12-2.81,7.88-4.61,13.2-4.61,4.56,0,8.7,1.31,11.75,3.45Z" style="fill:#9e3b4e; fill-rule:evenodd; stroke-width:0px;"/><g style="mask:url(#mask-1);"><path d="m94.46,98.3l1.02.45.37-.84-.75-.53-.64.91Zm-1.45,3.27l-1.02-.45h0s1.02.45,1.02.45Zm-.73,1.67l1.02.44h0l-1.02-.44Zm-1.66,2.76l-.87-.69h0l.87.69Zm-.14.18l-.87-.69h0l.87.69Zm-2.42,2.22l-.62-.93h0l.62.93Zm-3.24,1.44l.26,1.08h0l-.26-1.08Zm-6.7-.12l.36-1.05h0l-.36,1.05Zm-3.66-2.38l.81-.76h0l-.81.76Zm-.39-.41l-.88.68.03.04.03.04.81-.76Zm-.39-.5l-.88.68h0l.88-.68Zm-4.14-6.91l-1.04.38v.03s.03.03.03.03l1.02-.45Zm-.02-.06l-.74-.83-.56.5.26.71,1.04-.38Zm23.94-1.6l-1.45,3.27,2.03.9,1.45-3.27-2.03-.9Zm-1.46,3.28l-.73,1.67,2.04.89.73-1.67-2.04-.89Zm-.73,1.67c-.39.9-.9,1.74-1.51,2.5l1.74,1.39c.73-.92,1.34-1.93,1.81-3.01l-2.04-.89Zm-1.51,2.5l-.14.18,1.74,1.39.14-.18-1.74-1.39Zm-.14.18c-.62.77-1.35,1.44-2.17,1.99l1.23,1.85c1.01-.68,1.92-1.5,2.68-2.45l-1.74-1.39Zm-2.17,1.99c-.89.59-1.87,1.04-2.89,1.28l.53,2.16c1.29-.31,2.51-.87,3.6-1.59l-1.23-1.85Zm-2.89,1.28c-.42.1-.82.19-1.13.26-.16.03-.28.06-.38.08-.12.02-.12.01-.05.01v2.22c.16,0,.33-.03.44-.05.13-.02.29-.05.46-.09.34-.07.76-.17,1.19-.28l-.53-2.16Zm-1.56.35h-1.91v2.22h1.91v-2.22Zm-1.91,0c-.89,0-1.77-.15-2.6-.44l-.73,2.1c1.07.37,2.2.56,3.33.56v-2.22Zm-2.6-.44c-1.23-.42-2.33-1.14-3.22-2.09l-1.63,1.52c1.13,1.21,2.55,2.13,4.11,2.68l.73-2.1Zm-3.22-2.09l-.39-.41-1.63,1.52.39.41,1.63-1.52Zm-.32-.34l-.39-.5-1.76,1.37.39.5,1.76-1.37Zm-.39-.5c-1.6-2.06-2.94-4.3-4-6.68l-2.03.9c1.13,2.54,2.57,4.94,4.28,7.14l1.76-1.37Zm-3.97-6.61l-.02-.06-2.09.77.02.06,2.09-.77Zm-.32,1.15c2.89-2.6,7.37-4.32,12.46-4.32v-2.22c-5.56,0-10.59,1.87-13.95,4.89l1.49,1.65Zm12.46-4.32c4.35,0,8.26,1.26,11.11,3.25l1.28-1.82c-3.26-2.28-7.63-3.66-12.39-3.66v2.22Z" style="fill:#791515; stroke-width:0px;"/></g><path d="m9.54,168.2l1.77,1.77c.08.08.15.16.22.26l.26.35c.69.92.45,2.24-.52,2.86-.73.46-1.07,1.34-.85,2.17l1.35,5.11c.23.87.57,1.72,1.14,2.42,1.46,1.82,3.7,3.79,4.15,3.84,2.61.27,3.65-.1,4.81-.27,1.78-.27,3.43-.41,4.12,1.37.23.59.29,1.05.24,1.44-.21,1.7-2.22,2.62-3.82,3.26-1.08.43-2.24.58-3.39.43-1.39-.18-2.89-.39-3.19-.46-.55-.14-3.57-2.33-4.39-2.75-.82-.41-2.61-3.02-2.61-3.3s-2.61-5.22-2.61-5.63-1.37-5.22-1.37-6.04v-3.7c0-.55.12-1.09.35-1.6l.37-.82c.4-.88,1.28-1.44,2.24-1.44.65,0,1.28.26,1.74.72Z" style="fill:rgba(151,70,86,.52); stroke-width:0px;"/><path d="m31.47,158.97h0c1.45,1.54,2.6,3.34,3.39,5.31l.22.55c.52,1.31.91,2.67,1.14,4.05l.47,2.72.69,5.77v6.76c0,.8-.08,1.6-.25,2.38h0c-.29,1.4-.84,2.73-1.61,3.94l-1.3,2.03" style="fill:none; stroke:#9e3b4e; stroke-width:2.22px;"/><path d="m48.3,137.75l6.73,3.22c.4.19.75.47,1.02.83l.39.52c.91,1.2.44,2.94-.96,3.51-.6.24-1.27.22-1.85-.06l-1.08-.52c-2.52-1.21-5.56-.11-6.65,2.46-.69,1.63-1.24,3.02-1.24,3.3,0,.55,1.01,5.9,1.51,8.51l.63,8.55c.04.5-.15.99-.5,1.34-.98.98-2.66.46-2.91-.91l-.65-3.63-.33-3.26c-.24-2.31-.72-4.58-1.44-6.78l-.44-1.33c-.54-1.65-.87-3.37-.99-5.11l-.24-3.43c-.09-1.26.14-2.52.67-3.66l.29-.63c.71-1.55,2.04-2.72,3.66-3.23,1.45-.45,3.02-.34,4.39.31Z" style="fill:rgba(255,221,230,.63); stroke-width:0px;"/><path d="m123.06,144.96l-.42-.99c-1.09-2.54-2.42-4.96-3.97-7.25l-4.67,13.59-6.45,41.33h20.6c.69,0,4.53.14,5.22,0,.55-.11-.87-1.14-1.65-1.65-.87-.73-2.33-2.42-2.33-2.75,0-.13-.21-.8-.5-1.68-.96-2.96-1.19-6.09-.74-9.17.64-2.28,1.56-4.47,2.76-6.51l.13-.22c1.09-2.46,2.54-4.79,4.26-6.87l-.14-.09c-1.19-.76-2.31-1.63-3.36-2.58l-.04-.04c-.94-.85-1.81-1.78-2.61-2.76-1.12-1.39-2.09-2.89-2.89-4.49l-1.27-2.54-1.92-5.36Z" style="fill:#ffceda; stroke:#9e3b4e; stroke-width:2.22px;"/><path d="m135.27,193.3l-1.31-.56c-1.05-.45-2.01-1.06-2.86-1.81-.7-.61-1.31-1.32-1.82-2.09l-.46-.69c-.45-.68-.84-1.41-1.13-2.18-.52-1.33-.79-2.74-.79-4.17v-2.6c0-1.4.2-2.79.61-4.13.14-.48.32-.95.54-1.41l.91-1.93.76-1.64c.68-1.46,1.51-2.85,2.48-4.15l.82-1.1c.4-.53.85-1.02,1.35-1.47l.26-.23c.87-.77,1.9-1.35,3.02-1.69l.27-.08c1.06-.33,2.18-.4,3.26-.21l.11.02c.91.16,1.78.51,2.55,1.04.95.65,1.7,1.54,2.2,2.57l.49,1.02,2.67-1.19c.87-.39,1.81-.59,2.76-.59h.47c.46,0,.91.08,1.35.23.82.29,1.53.85,2.01,1.58l.47.72c.56.86.91,1.85,1.02,2.87l.12,1.1c.08.79.08,1.58,0,2.37l-.28,2.66-.23,1.66c-.3,2.18-.92,4.3-1.83,6.31-.91,1.74-1.99,3.38-3.2,4.92l-.78.98-1.15,1.21c-.87.92-1.91,1.67-3.06,2.22-.58.27-1.18.49-1.81.65-1.09.27-2.44.59-2.77.59h-4.12c-.44,0-2.11-.55-2.88-.82Z" style="fill:#b04e60; stroke:#9e3b4e; stroke-width:1.11px;"/><path d="m154.52,164.6h-.36c-.99,0-1.97.26-2.83.74-.58.33-1.1.75-1.53,1.25l-1.13,1.3c-.47.59-1.4.41-1.63-.3l-.52-1.62c-.03-.09-.07-.18-.11-.26l-.8-1.59c-.25-.5-.59-.94-1.02-1.29l-.25-.22c-.57-.49-1.3-.75-2.05-.75-.58,0-1.16.16-1.66.47l-.62.38c-.72.44-1.33,1.03-1.79,1.72l-.94,1.41-1.65,2.61c-.91,1.83-1.69,3.72-2.31,5.67l-.16.51c-.55,1.64-.92,3.34-1.1,5.06l-.13,1.25v3.77c0,1.93.55,3.82,1.58,5.46l.2.31c.37.59.83,1.13,1.35,1.6.39.35.82.66,1.27.93l1.45.84.88.27h3.72c.33,0,1.68-.31,2.77-.59.62-.16,1.23-.38,1.81-.65,1.15-.54,2.19-1.3,3.06-2.22l1.15-1.21.78-.98c1.22-1.54,2.29-3.18,3.2-4.92.91-2,1.53-4.13,1.83-6.31l.23-1.66.28-2.66c.08-.79.08-1.58,0-2.37l-.12-1.1c-.11-1.03-.46-2.01-1.02-2.87l-.47-.72c-.34-.52-.8-.95-1.33-1.27Z" style="fill:#a84d5e; fill-rule:evenodd; stroke-width:0px;"/><path d="m154.52,164.6v-1.11h.3l.26.15-.56.96Zm-3.2.74l.54.97h0l-.54-.97Zm-1.53,1.25l.84.73h0l-.84-.73Zm-1.13,1.3l-.87-.69v-.02s.03-.02.03-.02l.84.73Zm-1.63-.3l1.06-.34h0l-1.06.34Zm-.52-1.62l-1.06.34h0l1.06-.34Zm-.11-.26l.99-.5h0l-.99.5Zm-.8-1.59l-.99.5h0l.99-.5Zm-1.02-1.29l-.72.85h0l.72-.85Zm-.25-.22l.72-.85h0l-.72.85Zm-3.71-.29l-.58-.95h0l.58.95Zm-.62.38l.58.95h0l-.58-.95Zm-1.79,1.72l.93.62h0l-.93-.62Zm-.94,1.41l-.94-.59h0s0-.02,0-.02l.93.62Zm-1.65,2.61l-1-.5.02-.05.03-.05.94.59Zm-2.31,5.67l1.06.34h0l-1.06-.34Zm-.16.51l1.06.34h0s-1.06-.34-1.06-.34Zm-1.1,5.06l-1.11-.12h0l1.11.12Zm-.13,1.25h-1.11v-.12s1.11.12,1.11.12Zm1.58,9.23l-.94.59h0l.94-.59Zm.2.31l.94-.59h0l-.94.59Zm1.35,1.6l.74-.83h0l-.74.83Zm1.27.93l-.56.96h0l.56-.96Zm1.45.84l-.33,1.06-.12-.04-.11-.06.56-.96Zm.88.27v1.11h-.17l-.16-.05.33-1.06Zm6.49-.59l-.27-1.08h0l.27,1.08Zm1.81-.65l-.48-1.01h0l.48,1.01Zm3.06-2.22l-.81-.77h0l.81.77Zm1.15-1.21l.87.69-.03.04-.03.04-.81-.77Zm.78-.98l.87.69h0l-.87-.69Zm3.2-4.92l1.01.46v.03s-.03.03-.03.03l-.98-.52Zm1.83-6.31l-1.1-.15h0l1.1.15Zm.23-1.66l1.11.12v.02s0,.02,0,.02l-1.1-.15Zm.28-2.66l1.11.12-1.11-.12Zm0-2.37l-1.11.12,1.11-.12Zm-.12-1.1l-1.11.12h0l1.11-.12Zm-1.02-2.87l.93-.61h0l-.93.61Zm-.47-.72l-.93.61h0l.93-.61Zm-1.69-2.38h.36v2.22h-.36v-2.22Zm-3.38.89c1.03-.58,2.2-.89,3.38-.89v2.22c-.8,0-1.59.21-2.29.6l-1.09-1.94Zm-1.83,1.49c.52-.6,1.14-1.11,1.83-1.49l1.09,1.94c-.47.26-.89.61-1.24,1.01l-1.68-1.46Zm-1.13,1.3l1.13-1.3,1.68,1.46-1.13,1.3-1.68-1.46Zm.27.09c-.04-.13-.21-.16-.29-.05l1.74,1.39c-1.02,1.28-3.06.9-3.56-.66l2.12-.68Zm-.52-1.62l.52,1.62-2.12.68-.52-1.62,2.12-.68Zm-.17-.42c.07.14.13.28.17.42l-2.12.68s-.03-.07-.04-.11l1.99-1Zm-.8-1.59l.8,1.59-1.99,1-.8-1.59,1.99-1Zm-1.29-1.64c.54.45.98,1.02,1.29,1.64l-1.99,1c-.18-.36-.43-.68-.74-.94l1.44-1.7Zm-.25-.22l.25.22-1.44,1.7-.25-.22,1.44-1.7Zm-2.77-1.02c1.02,0,2,.36,2.77,1.02l-1.44,1.7c-.37-.32-.85-.49-1.34-.49v-2.22Zm-2.24.63c.67-.41,1.45-.63,2.24-.63v2.22c-.38,0-.75.11-1.08.3l-1.16-1.9Zm-.62.38l.62-.38,1.16,1.9-.62.38-1.16-1.9Zm-2.14,2.06c.55-.83,1.28-1.53,2.14-2.06l1.16,1.9c-.58.35-1.07.83-1.45,1.39l-1.85-1.23Zm-.94,1.41l.94-1.41,1.85,1.23-.94,1.41-1.85-1.23Zm-1.66,2.63l1.65-2.61,1.88,1.19-1.65,2.61-1.88-1.19Zm-2.43,5.93c.64-2,1.43-3.95,2.37-5.83l1.99.99c-.89,1.78-1.64,3.62-2.24,5.51l-2.12-.68Zm-.16.51l.16-.51,2.12.68-.16.51-2.12-.68Zm-1.15,5.28c.19-1.8.58-3.58,1.15-5.3l2.11.7c-.52,1.57-.87,3.19-1.05,4.83l-2.21-.24Zm-.13,1.25l.13-1.25,2.21.24-.13,1.25-2.21-.24Zm0,3.83v-3.71h2.22v3.71h-2.22Zm0,.06v-.06h2.22v.06h-2.22Zm1.75,6.05c-1.14-1.81-1.75-3.91-1.75-6.05h2.22c0,1.72.49,3.41,1.4,4.87l-1.88,1.18Zm.2.31l-.2-.31,1.88-1.18.2.31-1.88,1.18Zm1.54,1.83c-.6-.54-1.12-1.15-1.54-1.83l1.88-1.18c.32.5.71.96,1.15,1.36l-1.49,1.65Zm1.46,1.06c-.52-.3-1.01-.66-1.46-1.06l1.49-1.65c.33.3.7.57,1.09.79l-1.12,1.93Zm1.45.84l-1.45-.84,1.12-1.93,1.45.84-1.12,1.93Zm1.1.37l-.88-.27.66-2.12.88.27-.66,2.12Zm4.05.05h-3.72v-2.22h3.72v2.22Zm3.04-.62c-.55.14-1.17.29-1.7.4-.26.06-.51.11-.73.15-.18.03-.42.07-.61.07v-2.22s.03,0,.23-.04c.17-.03.39-.07.64-.13.5-.11,1.1-.25,1.64-.39l.54,2.16Zm2.01-.73c-.64.3-1.31.55-2.01.73l-.54-2.16c.54-.14,1.08-.33,1.6-.58l.95,2.01Zm3.39-2.46c-.97,1.02-2.12,1.86-3.39,2.46l-.95-2.01c1.02-.48,1.95-1.16,2.73-1.98l1.61,1.53Zm1.15-1.21l-1.15,1.21-1.61-1.53,1.15-1.21,1.61,1.53Zm.84-1.06l-.78.98-1.74-1.38.78-.98,1.74,1.38Zm3.31-5.09c-.95,1.8-2.06,3.5-3.31,5.09l-1.74-1.38c1.18-1.48,2.21-3.07,3.09-4.75l1.97,1.04Zm1.95-6.67c-.32,2.29-.96,4.51-1.92,6.61l-2.03-.92c.87-1.91,1.45-3.93,1.74-6l2.2.31Zm.23-1.66l-.23,1.66-2.2-.31.23-1.66,2.2.31Zm.29-2.69l-.28,2.66-2.21-.24.28-2.66,2.21.24Zm0-2.61c.09.87.09,1.74,0,2.61l-2.21-.24c.08-.71.08-1.43,0-2.14l2.21-.24Zm-.12-1.1l.12,1.1-2.21.24-.12-1.1,2.21-.24Zm-1.2-3.36c.66,1.01,1.07,2.16,1.2,3.36l-2.21.24c-.09-.85-.38-1.67-.85-2.38l1.86-1.21Zm-.47-.72l.47.72-1.86,1.21-.47-.72,1.86-1.21Zm-1.7-1.62c.68.4,1.26.95,1.7,1.62l-1.86,1.21c-.25-.38-.57-.69-.96-.91l1.13-1.92Z" style="fill:#9e3b4e; stroke-width:0px;"/><path d="m124.62,141.66l-.04-.27c-.71-4.75-4.92-8.17-9.71-7.9l-2.24.13c-6.69.38-12.33,5.1-13.88,11.62l-.69,5.9-.16,1.04c-.72,4.79-1.08,9.63-1.08,14.47l-.82,6.32-.55,5.63-1.24,5.22-.85,4.14c-.17.81-.25,1.63-.25,2.45v1.22c0,.82.16,1.63.48,2.39l.26.61c.24.56.61,1.05,1.09,1.43,1.14.9,2.71,1.03,3.98.32l.8-.45c.53-.29,1.13-.45,1.73-.45.91,0,1.78.34,2.44.96l1.17,1.1.34.32c1.21,1.15,3.1,1.2,4.37.11.34-.29.61-.64.81-1.03l3.53-7.05c.93-1.86,1.72-3.78,2.36-5.75l3.15-9.67,3.02-14.14,1.79-11.26.25-6.3c.01-.37,0-.75-.06-1.12Z" style="fill:#ffceda; stroke:#9e3b4e; stroke-width:2.22px;"/><path d="m94.67,182.34l-.41,1.75-.85,4.14c-.17.81-.25,1.63-.25,2.45v1.22c0,.82.16,1.63.48,2.39l.26.61c.24.56.61,1.05,1.09,1.43,1.14.9,2.71,1.03,3.98.32l.8-.45c.53-.29,1.13-.45,1.73-.45.91,0,1.78.34,2.44.96l1.17,1.1.34.32c1.21,1.15,3.1,1.2,4.37.11.34-.29.61-.64.81-1.03l3.53-7.05c.58-1.16,1.11-2.35,1.57-3.55-3.98-2.81-9.84-4.59-16.38-4.59-1.6,0-3.16.11-4.67.31Z" style="fill:#9e3b4e; fill-rule:evenodd; stroke-width:0px;"/><g style="mask:url(#mask-2);"><path d="m94.67,182.34l-1.08-.26.18-.74.76-.1.15,1.1Zm-.41,1.75l-1.09-.22v-.02s0-.02,0-.02l1.08.26Zm-.85,4.14l-1.09-.22h0l1.09.22Zm.23,6.07l1.03-.43h0l-1.03.43Zm.26.61l-1.02.43h0l1.02-.43Zm1.09,1.43l.69-.87h0l-.69.87Zm3.98.32l.54.97h0l-.54-.97Zm.8-.45l.54.97h0l-.54-.97Zm4.17.51l.76-.81h0l-.76.81Zm1.17,1.1l.76-.81h0s-.76.81-.76.81Zm.34.32l.76-.81h0l-.76.81Zm4.37.11l.72.85h0l-.72-.85Zm.81-1.03l-.99-.5h0l.99.5Zm3.53-7.05l.99.5h0l-.99-.5Zm1.57-3.55l.64-.91.71.5-.31.81-1.04-.4Zm-19.97-4.02l-.41,1.75-2.16-.51.41-1.75,2.16.51Zm-.41,1.72l-.85,4.14-2.18-.45.85-4.14,2.18.45Zm-.85,4.14c-.15.73-.23,1.48-.23,2.23h-2.22c0-.9.09-1.8.27-2.68l2.18.45Zm-.23,2.23v1.22h-2.22v-1.22h2.22Zm0,1.22c0,.67.13,1.34.4,1.96l-2.05.86c-.38-.89-.57-1.85-.57-2.82h2.22Zm.4,1.96l.26.61-2.05.86-.26-.61,2.05-.86Zm.26.61c.16.39.42.73.75.99l-1.38,1.75c-.62-.49-1.11-1.14-1.42-1.87l2.05-.86Zm.75.99c.79.62,1.87.71,2.75.22l1.08,1.94c-1.66.92-3.71.76-5.21-.42l1.38-1.75Zm2.75.22l.8-.45,1.08,1.95-.8.45-1.08-1.94Zm.8-.45c.69-.39,1.48-.59,2.27-.59v2.22c-.42,0-.83.11-1.19.31l-1.08-1.95Zm2.27-.59c1.19,0,2.33.45,3.2,1.27l-1.52,1.62c-.45-.43-1.05-.66-1.68-.66v-2.22Zm3.2,1.27l1.17,1.09-1.52,1.62-1.17-1.09,1.52-1.62Zm1.17,1.1l.34.32-1.53,1.62-.34-.32,1.53-1.62Zm.34.32c.8.76,2.05.79,2.89.08l1.44,1.69c-1.71,1.45-4.23,1.38-5.85-.15l1.53-1.62Zm2.89.08c.22-.19.4-.42.53-.68l1.99.99c-.26.53-.63,1-1.08,1.38l-1.44-1.69Zm.53-.68l3.53-7.05,1.99,1-3.53,7.05-1.99-.99Zm3.53-7.05c.56-1.13,1.08-2.28,1.53-3.46l2.07.81c-.48,1.24-1.02,2.46-1.62,3.65l-1.99-1Zm1.93-2.15c-3.75-2.65-9.38-4.39-15.74-4.39v-2.22c6.72,0,12.82,1.82,17.03,4.79l-1.28,1.82Zm-15.74-4.39c-1.55,0-3.06.1-4.52.3l-.3-2.2c1.55-.21,3.16-.32,4.81-.32v2.22Z" style="fill:#9e3b4e; stroke-width:0px;"/></g><path d="m112.07,191.24l1.27-2.36c.45-.84.18-1.87-.62-2.38-.87-.55-2.03-.27-2.55.63l-.16.27-.92,1.63c-.56,1-1.41,1.8-2.43,2.31-1.29.64-2.77.78-4.15.38l-.1-.03c-.42-.12-.86-.19-1.3-.22l-3.44-.2c-.37-.02-.75.04-1.09.19l-.32.13c-1,.42-1.5,1.54-1.16,2.56.14.42.42.79.78,1.05l.12.08c.69.47,1.56.58,2.34.28l.58-.23c.43-.17.88-.25,1.34-.29.73-.06,1.58-.17,2.19.04.58.19,1.51.82,2.06,1.1.49.25,1.37,1.37,2.2,1.51.06.01.13.02.19.03,1.31.17,2.52-.77,3.11-1.95l2.06-4.53Z" style="fill:rgba(139,50,67,.71); stroke-width:0px;"/><path d="m151.58,167.24l-1.77,1.77c-.08.08-.15.16-.22.25l-.26.35c-.69.92-.45,2.24.52,2.86.73.46,1.07,1.34.85,2.17l-1.35,5.11c-.23.87-.57,1.72-1.14,2.42-1.46,1.82-3.7,3.79-4.15,3.84-2.61.27-3.65-.1-4.81-.27-1.78-.27-3.43-.41-4.12,1.37-.23.59-.29,1.06-.24,1.44.21,1.7,2.22,2.62,3.82,3.26,1.08.43,2.25.58,3.39.43,1.39-.18,2.89-.39,3.19-.46.55-.14,3.57-2.33,4.39-2.75.82-.41,2.61-3.02,2.61-3.3s2.61-5.22,2.61-5.63,1.37-5.22,1.37-6.04v-3.7c0-.55-.12-1.09-.35-1.6l-.37-.82c-.4-.88-1.28-1.44-2.24-1.44-.65,0-1.28.26-1.74.72Z" style="fill:rgba(151,70,86,.52); stroke-width:0px;"/><path d="m129.65,158.01h0c-1.45,1.54-2.6,3.34-3.39,5.31l-.22.55c-.52,1.31-.91,2.67-1.14,4.05l-.47,2.72-.69,5.77v6.76c0,.8.08,1.6.25,2.38h0c.29,1.4.84,2.73,1.61,3.93l1.3,2.03" style="fill:none; stroke:#9e3b4e; stroke-width:2.22px;"/><path d="m112.82,136.79l-6.73,3.22c-.4.19-.75.47-1.02.83l-.39.52c-.91,1.2-.44,2.94.96,3.51.6.24,1.27.22,1.85-.06l1.08-.52c2.52-1.21,5.56-.11,6.65,2.46.69,1.63,1.24,3.02,1.24,3.3,0,.55-1.01,5.9-1.51,8.51l-.63,8.55c-.04.5.15.99.5,1.34.98.98,2.66.46,2.91-.91l.65-3.63.33-3.26c.24-2.31.72-4.58,1.44-6.78l.44-1.33c.54-1.65.87-3.37.99-5.11l.24-3.43c.09-1.26-.14-2.52-.67-3.66l-.29-.63c-.71-1.55-2.04-2.72-3.66-3.23-1.45-.46-3.02-.34-4.39.31Z" style="fill:rgba(255,221,230,.63); stroke-width:0px;"/></g></svg>