<?xml version="1.0" encoding="UTF-8"?><svg id="_Слой_2" xmlns="http://www.w3.org/2000/svg" width="769.21" height="655.81" xmlns:xlink="http://www.w3.org/1999/xlink" viewBox="0 0 769.21 655.81"><defs><clipPath id="clippath"><polygon points="384.74 90.83 154.86 296.19 614.62 296.19 384.74 90.83" style="fill:none; stroke-width:0px;"/></clipPath></defs><g id="_Слой_1-2"><path d="m688.72,641.5H77.49c-2.26,0-4.28-1.35-5.21-3.42-6.57-14.68-5.26-28.31.08-40.32.9-2.02,2.94-3.3,5.15-3.3h611.7c2.47,0,4.65,1.6,5.41,3.95,3.68,11.35,3.01,24.48-.39,38.74-.61,2.55-2.9,4.34-5.52,4.34Z" style="fill:#f4b74f; stroke:#bc6330; stroke-miterlimit:10; stroke-width:3px;"/><path d="m690.15,613.26c-2.57,1.94-6.12,4.94-9.29,5.49-49.81,8.56-544.88,11.39-598.23-4.77-6.14-1.86-13.45-4.28-10.21-13.19.47-1.31,1.22-4.81,6.71-5.4h609.38c4.48.53,4.93,3.4,5.34,4.79,1.73,5.95.44,9.96-3.7,13.08Z" style="fill:#fde270; stroke-width:0px;"/><path d="m71.09,603.53c1.77.28,4.51.61,7.9.59,3.5-.02,5.97-.4,6.46.22.41.51-.8,1.43-1.61,1.88-3.19,1.8-8.23,1.07-10.45.75-2-.29-4.09-.59-4.36-1.43-.31-.94,1.81-1.89,2.07-2.01Z" style="fill:#bc6330; stroke-width:0px;"/><path d="m71.09,630.14c1.77-.29,4.51-.64,7.9-.62,3.5.02,5.97.42,6.46-.23.41-.54-.8-1.5-1.61-1.98-3.19-1.89-8.23-1.13-10.45-.79-2,.3-4.09.62-4.36,1.51-.31.99,1.81,1.99,2.07,2.12Z" style="fill:#bc6330; stroke-width:0px;"/><path d="m695.6,623.49l-17.02,3.01c-.22.04,1.12,1.23,1.35,1.27l15.26,2.27.41-6.56Z" style="fill:#f8d77e; stroke:#bc6330; stroke-miterlimit:10; stroke-width:2px;"/><path d="m688.72,594.98H77.49c-2.26,0-4.28-1.35-5.21-3.42-6.57-14.68-5.26-28.31.08-40.32.9-2.02,2.94-3.3,5.15-3.3h611.7c2.47,0,4.65,1.6,5.41,3.95,3.68,11.35,3.01,24.48-.39,38.74-.61,2.55-2.9,4.34-5.52,4.34Z" style="fill:#f4b74f; stroke:#bc6330; stroke-miterlimit:10; stroke-width:3px;"/><path d="m690.15,566.75c-2.57,1.94-6.12,4.94-9.29,5.49-49.81,8.56-544.88,11.39-598.23-4.77-6.14-1.86-13.45-4.28-10.21-13.19.47-1.31,1.22-4.81,6.71-5.4h609.38c4.48.53,4.93,3.4,5.34,4.79,1.73,5.95.44,9.96-3.7,13.08Z" style="fill:#fde270; stroke-width:0px;"/><path d="m71.09,557.01c1.77.28,4.51.61,7.9.59,3.5-.02,5.97-.4,6.46.22.41.51-.8,1.43-1.61,1.88-3.19,1.8-8.23,1.07-10.45.75-2-.29-4.09-.59-4.36-1.43-.31-.94,1.81-1.89,2.07-2.01Z" style="fill:#bc6330; stroke-width:0px;"/><path d="m71.09,583.62c1.77-.29,4.51-.64,7.9-.62,3.5.02,5.97.42,6.46-.23.41-.54-.8-1.5-1.61-1.98-3.19-1.89-8.23-1.13-10.45-.79-2,.3-4.09.62-4.36,1.51-.31.99,1.81,1.99,2.07,2.12Z" style="fill:#bc6330; stroke-width:0px;"/><path d="m695.6,576.97l-17.02,3.01c-.22.04,1.12,1.23,1.35,1.27l15.26,2.27.41-6.56Z" style="fill:#f8d77e; stroke:#bc6330; stroke-miterlimit:10; stroke-width:2px;"/><path d="m688.72,548.47H77.49c-2.26,0-4.28-1.35-5.21-3.42-6.57-14.68-5.26-28.31.08-40.32.9-2.02,2.94-3.3,5.15-3.3h611.7c2.47,0,4.65,1.6,5.41,3.95,3.68,11.35,3.01,24.48-.39,38.74-.61,2.55-2.9,4.34-5.52,4.34Z" style="fill:#f4b74f; stroke:#bc6330; stroke-miterlimit:10; stroke-width:3px;"/><path d="m690.15,520.23c-2.57,1.94-6.12,4.94-9.29,5.49-49.81,8.56-544.88,11.39-598.23-4.77-6.14-1.86-13.45-4.28-10.21-13.19.47-1.31,1.22-4.81,6.71-5.4h609.38c4.48.53,4.93,3.4,5.34,4.79,1.73,5.95.44,9.96-3.7,13.08Z" style="fill:#fde270; stroke-width:0px;"/><path d="m71.09,510.5c1.77.28,4.51.61,7.9.59,3.5-.02,5.97-.4,6.46.22.41.51-.8,1.43-1.61,1.88-3.19,1.8-8.23,1.07-10.45.75-2-.29-4.09-.59-4.36-1.43-.31-.94,1.81-1.89,2.07-2.01Z" style="fill:#bc6330; stroke-width:0px;"/><path d="m71.09,537.11c1.77-.29,4.51-.64,7.9-.62,3.5.02,5.97.42,6.46-.23.41-.54-.8-1.5-1.61-1.98-3.19-1.89-8.23-1.13-10.45-.79-2,.3-4.09.62-4.36,1.51-.31.99,1.81,1.99,2.07,2.12Z" style="fill:#bc6330; stroke-width:0px;"/><path d="m695.6,530.46l-17.02,3.01c-.22.04,1.12,1.23,1.35,1.27l15.26,2.27.41-6.56Z" style="fill:#f8d77e; stroke:#bc6330; stroke-miterlimit:10; stroke-width:2px;"/><path d="m688.72,504.05H77.49c-2.26,0-4.28-1.35-5.21-3.42-6.57-14.68-5.26-28.31.08-40.32.9-2.02,2.94-3.3,5.15-3.3h611.7c2.47,0,4.65,1.6,5.41,3.95,3.68,11.35,3.01,24.48-.39,38.74-.61,2.55-2.9,4.34-5.52,4.34Z" style="fill:#f4b74f; stroke:#bc6330; stroke-miterlimit:10; stroke-width:3px;"/><path d="m690.15,475.81c-2.57,1.94-6.12,4.94-9.29,5.49-49.81,8.56-544.88,11.39-598.23-4.77-6.14-1.86-13.45-4.28-10.21-13.19.47-1.31,1.22-4.81,6.71-5.4h609.38c4.48.53,4.93,3.4,5.34,4.79,1.73,5.95.44,9.96-3.7,13.08Z" style="fill:#fde270; stroke-width:0px;"/><path d="m71.09,466.08c1.77.28,4.51.61,7.9.59,3.5-.02,5.97-.4,6.46.22.41.51-.8,1.43-1.61,1.88-3.19,1.8-8.23,1.07-10.45.75-2-.29-4.09-.59-4.36-1.43-.31-.94,1.81-1.89,2.07-2.01Z" style="fill:#bc6330; stroke-width:0px;"/><path d="m71.09,492.69c1.77-.29,4.51-.64,7.9-.62,3.5.02,5.97.42,6.46-.23.41-.54-.8-1.5-1.61-1.98-3.19-1.89-8.23-1.13-10.45-.79-2,.3-4.09.62-4.36,1.51-.31.99,1.81,1.99,2.07,2.12Z" style="fill:#bc6330; stroke-width:0px;"/><path d="m695.6,486.04l-17.02,3.01c-.22.04,1.12,1.23,1.35,1.27l15.26,2.27.41-6.56Z" style="fill:#f8d77e; stroke:#bc6330; stroke-miterlimit:10; stroke-width:2px;"/><path d="m688.72,456.26H77.49c-2.26,0-4.28-1.35-5.21-3.42-6.57-14.68-5.26-28.31.08-40.32.9-2.02,2.94-3.3,5.15-3.3h611.7c2.47,0,4.65,1.6,5.41,3.95,3.68,11.35,3.01,24.48-.39,38.74-.61,2.55-2.9,4.34-5.52,4.34Z" style="fill:#f4b74f; stroke:#bc6330; stroke-miterlimit:10; stroke-width:3px;"/><path d="m690.15,428.02c-2.57,1.94-6.12,4.94-9.29,5.49-49.81,8.56-544.88,11.39-598.23-4.77-6.14-1.86-13.45-4.28-10.21-13.19.47-1.31,1.22-4.81,6.71-5.4h609.38c4.48.53,4.93,3.4,5.34,4.79,1.73,5.95.44,9.96-3.7,13.08Z" style="fill:#fde270; stroke-width:0px;"/><path d="m71.09,418.29c1.77.28,4.51.61,7.9.59,3.5-.02,5.97-.4,6.46.22.41.51-.8,1.43-1.61,1.88-3.19,1.8-8.23,1.07-10.45.75-2-.29-4.09-.59-4.36-1.43-.31-.94,1.81-1.89,2.07-2.01Z" style="fill:#bc6330; stroke-width:0px;"/><path d="m71.09,444.9c1.77-.29,4.51-.64,7.9-.62,3.5.02,5.97.42,6.46-.23.41-.54-.8-1.5-1.61-1.98-3.19-1.89-8.23-1.13-10.45-.79-2,.3-4.09.62-4.36,1.51-.31.99,1.81,1.99,2.07,2.12Z" style="fill:#bc6330; stroke-width:0px;"/><path d="m695.6,438.25l-17.02,3.01c-.22.04,1.12,1.23,1.35,1.27l15.26,2.27.41-6.56Z" style="fill:#f8d77e; stroke:#bc6330; stroke-miterlimit:10; stroke-width:2px;"/><path d="m688.72,409.71H77.49c-2.26,0-4.28-1.35-5.21-3.42-6.57-14.68-5.26-28.31.08-40.32.9-2.02,2.94-3.3,5.15-3.3h611.7c2.47,0,4.65,1.6,5.41,3.95,3.68,11.35,3.01,24.48-.39,38.74-.61,2.55-2.9,4.34-5.52,4.34Z" style="fill:#f4b74f; stroke:#bc6330; stroke-miterlimit:10; stroke-width:3px;"/><path d="m690.15,381.47c-2.57,1.94-6.12,4.94-9.29,5.49-49.81,8.56-544.88,11.39-598.23-4.77-6.14-1.86-13.45-4.28-10.21-13.19.47-1.31,1.22-4.81,6.71-5.4h609.38c4.48.53,4.93,3.4,5.34,4.79,1.73,5.95.44,9.96-3.7,13.08Z" style="fill:#fde270; stroke-width:0px;"/><path d="m71.09,371.74c1.77.28,4.51.61,7.9.59,3.5-.02,5.97-.4,6.46.22.41.51-.8,1.43-1.61,1.88-3.19,1.8-8.23,1.07-10.45.75-2-.29-4.09-.59-4.36-1.43-.31-.94,1.81-1.89,2.07-2.01Z" style="fill:#bc6330; stroke-width:0px;"/><path d="m71.09,398.35c1.77-.29,4.51-.64,7.9-.62,3.5.02,5.97.42,6.46-.23.41-.54-.8-1.5-1.61-1.98-3.19-1.89-8.23-1.13-10.45-.79-2,.3-4.09.62-4.36,1.51-.31.99,1.81,1.99,2.07,2.12Z" style="fill:#bc6330; stroke-width:0px;"/><path d="m695.6,391.7l-17.02,3.01c-.22.04,1.12,1.23,1.35,1.27l15.26,2.27.41-6.56Z" style="fill:#f8d77e; stroke:#bc6330; stroke-miterlimit:10; stroke-width:2px;"/><path d="m113.1,638.5c.65,2.11-.7,3.57-1.6,5-2.75,4.39-1.2,6.86,3.08,9.01,4.14,2.08,8.35,2.43,12.8,2.26,2.88-.11,4.54-1.04,4.13-4.27-.12-1-.36-2.42,1.04-2.77,1.24-.31,1.97.88,2.55,1.71,1.99,2.86,3.84,2.19,6.37.47,10.65-7.27,15.12-22.84,10.06-35.94-2.83-7.33-3.32-7.5-10.19-3.62-.64.36-1.26.78-1.95.99-.65.2-1.56.46-2.01.17-1-.66-.41-1.65.05-2.4.67-1.09,1.33-2.23,2.23-3.12,3.25-3.21,2.1-4.97-1.56-6.86-11.72-6.02-23.37-3.76-35.04,7.15-9.47,8.86-10.9,22.13-3.87,32.95,2.72,4.19,5.29,5.17,9.12,1.5,1.23-1.18,2.64-2.48,4.78-2.23Z" style="fill:#ba661a; stroke:#f58a2c; stroke-miterlimit:10; stroke-width:2.01px;"/><path d="m113.1,638.5c-2.14-.25-3.55,1.05-4.78,2.23-3.82,3.67-6.4,2.69-9.12-1.5-7.03-10.82-5.61-24.09,3.87-32.95,11.66-10.91,23.32-13.17,35.04-7.15,3.67,1.88,4.81,3.65,1.56,6.86-.9.88-1.56,2.03-2.23,3.12-.47.76-1.06,1.75-.05,2.4.45.29,1.37.03,2.01-.17.69-.21,1.31-.63,1.95-.99,6.87-3.88,7.36-3.7,10.19,3.62,5.05,13.1.59,28.67-10.06,35.94-2.53,1.73-4.38,2.39-6.37-.47-.58-.83-1.31-2.01-2.55-1.71-1.41.35-1.17,1.77-1.04,2.77.4,3.24-1.26,4.16-4.13,4.27-4.45.17-8.66-.17-12.8-2.26-4.28-2.15-5.83-4.63-3.08-9.01.9-1.43,2.25-2.89,1.6-5Zm24.71-6.9c2.94-5.5,2.2-9.61-1.61-13.77-5.31-5.79-12.61-7.73-18.8-4.98-5.23,2.32-7.36,5.09-6.98,9.85,4.59-5.49,9.28-10.38,16.91-7.54,6.98,2.6,10.14,8.17,10.48,16.44Zm-10.11-3.09c.97-2.08-.73-3.04-1.89-3.99-2.31-1.9-4.67-1.84-6.71.54-.62.72-1.04,2.18-.4,2.46,2.52,1.08,6.06-3.34,8.03,1.45.32-.15.63-.29.97-.45Zm3.8,11.2c-2.77-.96-4.87.91-7.19.71-1.52-.13-4.31-2.16-4.46.55-.15,2.61,3.07,1.72,4.92,1.78,2.51.09,5.01-.16,6.73-3.04Z" style="fill:#fde46e; stroke:#f58a2c; stroke-miterlimit:10; stroke-width:2.01px;"/><path d="m137.81,631.6c-.34-8.28-3.5-13.84-10.48-16.44-7.63-2.84-12.32,2.05-16.91,7.54-.38-4.76,1.75-7.52,6.98-9.85,6.19-2.75,13.49-.82,18.8,4.98,3.81,4.16,4.55,8.27,1.61,13.77Z" style="fill:#f58a2c; stroke:#f58a2c; stroke-miterlimit:10; stroke-width:2.01px;"/><path d="m127.7,628.51c-.34.16-.66.31-.97.45-1.97-4.78-5.51-.37-8.03-1.45-.65-.28-.22-1.73.4-2.46,2.04-2.38,4.4-2.45,6.71-.54,1.16.95,2.86,1.92,1.89,3.99Z" style="fill:#fbb74c; stroke:#f58a2c; stroke-miterlimit:10; stroke-width:2.01px;"/><path d="m131.5,639.72c-1.72,2.88-4.23,3.13-6.73,3.04-1.84-.07-5.06.83-4.92-1.78.15-2.71,2.94-.68,4.46-.55,2.32.2,4.42-1.67,7.19-.71Z" style="fill:#f4b74f; stroke:#f58a2c; stroke-miterlimit:10; stroke-width:2.01px;"/><path d="m113.1,598.34c.65,2.11-.7,3.57-1.6,5-2.75,4.39-1.2,6.86,3.08,9.01,4.14,2.08,8.35,2.43,12.8,2.26,2.88-.11,4.54-1.04,4.13-4.27-.12-1-.36-2.42,1.04-2.77,1.24-.31,1.97.88,2.55,1.71,1.99,2.86,3.84,2.19,6.37.47,10.65-7.27,15.12-22.84,10.06-35.94-2.83-7.33-3.32-7.5-10.19-3.62-.64.36-1.26.78-1.95.99-.65.2-1.56.46-2.01.17-1-.66-.41-1.65.05-2.4.67-1.09,1.33-2.23,2.23-3.12,3.25-3.21,2.1-4.97-1.56-6.86-11.72-6.02-23.37-3.76-35.04,7.15-9.47,8.86-10.9,22.13-3.87,32.95,2.72,4.19,5.29,5.17,9.12,1.5,1.23-1.18,2.64-2.48,4.78-2.23Z" style="fill:#ba661a; stroke:#f58a2c; stroke-miterlimit:10; stroke-width:2.01px;"/><path d="m113.1,598.34c-2.14-.25-3.55,1.05-4.78,2.23-3.82,3.67-6.4,2.69-9.12-1.5-7.03-10.82-5.61-24.09,3.87-32.95,11.66-10.91,23.32-13.17,35.04-7.15,3.67,1.88,4.81,3.65,1.56,6.86-.9.88-1.56,2.03-2.23,3.12-.47.76-1.06,1.75-.05,2.4.45.29,1.37.03,2.01-.17.69-.21,1.31-.63,1.95-.99,6.87-3.88,7.36-3.7,10.19,3.62,5.05,13.1.59,28.67-10.06,35.94-2.53,1.73-4.38,2.39-6.37-.47-.58-.83-1.31-2.01-2.55-1.71-1.41.35-1.17,1.77-1.04,2.77.4,3.24-1.26,4.16-4.13,4.27-4.45.17-8.66-.17-12.8-2.26-4.28-2.15-5.83-4.63-3.08-9.01.9-1.43,2.25-2.89,1.6-5Zm24.71-6.9c2.94-5.5,2.2-9.61-1.61-13.77-5.31-5.79-12.61-7.73-18.8-4.98-5.23,2.32-7.36,5.09-6.98,9.85,4.59-5.49,9.28-10.38,16.91-7.54,6.98,2.6,10.14,8.17,10.48,16.44Zm-10.11-3.09c.97-2.08-.73-3.04-1.89-3.99-2.31-1.9-4.67-1.84-6.71.54-.62.72-1.04,2.18-.4,2.46,2.52,1.08,6.06-3.34,8.03,1.45.32-.15.63-.29.97-.45Zm3.8,11.2c-2.77-.96-4.87.91-7.19.71-1.52-.13-4.31-2.16-4.46.55-.15,2.61,3.07,1.72,4.92,1.78,2.51.09,5.01-.16,6.73-3.04Z" style="fill:#fde46e; stroke:#f58a2c; stroke-miterlimit:10; stroke-width:2.01px;"/><path d="m137.81,591.45c-.34-8.28-3.5-13.84-10.48-16.44-7.63-2.84-12.32,2.05-16.91,7.54-.38-4.76,1.75-7.52,6.98-9.85,6.19-2.75,13.49-.82,18.8,4.98,3.81,4.16,4.55,8.27,1.61,13.77Z" style="fill:#f58a2c; stroke:#f58a2c; stroke-miterlimit:10; stroke-width:2.01px;"/><path d="m127.7,588.36c-.34.16-.66.31-.97.45-1.97-4.78-5.51-.37-8.03-1.45-.65-.28-.22-1.73.4-2.46,2.04-2.38,4.4-2.45,6.71-.54,1.16.95,2.86,1.92,1.89,3.99Z" style="fill:#fbb74c; stroke:#f58a2c; stroke-miterlimit:10; stroke-width:2.01px;"/><path d="m131.5,599.56c-1.72,2.88-4.23,3.13-6.73,3.04-1.84-.07-5.06.83-4.92-1.78.15-2.71,2.94-.68,4.46-.55,2.32.2,4.42-1.67,7.19-.71Z" style="fill:#f4b74f; stroke:#f58a2c; stroke-miterlimit:10; stroke-width:2.01px;"/><path d="m113.1,558.19c.65,2.11-.7,3.57-1.6,5-2.75,4.39-1.2,6.86,3.08,9.01,4.14,2.08,8.35,2.43,12.8,2.26,2.88-.11,4.54-1.04,4.13-4.27-.12-1-.36-2.42,1.04-2.77,1.24-.31,1.97.88,2.55,1.71,1.99,2.86,3.84,2.19,6.37.47,10.65-7.27,15.12-22.84,10.06-35.94-2.83-7.33-3.32-7.5-10.19-3.62-.64.36-1.26.78-1.95.99-.65.2-1.56.46-2.01.17-1-.66-.41-1.65.05-2.4.67-1.09,1.33-2.23,2.23-3.12,3.25-3.21,2.1-4.97-1.56-6.86-11.72-6.02-23.37-3.76-35.04,7.15-9.47,8.86-10.9,22.13-3.87,32.95,2.72,4.19,5.29,5.17,9.12,1.5,1.23-1.18,2.64-2.48,4.78-2.23Z" style="fill:#ba661a; stroke:#f58a2c; stroke-miterlimit:10; stroke-width:2.01px;"/><path d="m113.1,558.19c-2.14-.25-3.55,1.05-4.78,2.23-3.82,3.67-6.4,2.69-9.12-1.5-7.03-10.82-5.61-24.09,3.87-32.95,11.66-10.91,23.32-13.17,35.04-7.15,3.67,1.88,4.81,3.65,1.56,6.86-.9.88-1.56,2.03-2.23,3.12-.47.76-1.06,1.75-.05,2.4.45.29,1.37.03,2.01-.17.69-.21,1.31-.63,1.95-.99,6.87-3.88,7.36-3.7,10.19,3.62,5.05,13.1.59,28.67-10.06,35.94-2.53,1.73-4.38,2.39-6.37-.47-.58-.83-1.31-2.01-2.55-1.71-1.41.35-1.17,1.77-1.04,2.77.4,3.24-1.26,4.16-4.13,4.27-4.45.17-8.66-.17-12.8-2.26-4.28-2.15-5.83-4.63-3.08-9.01.9-1.43,2.25-2.89,1.6-5Zm24.71-6.9c2.94-5.5,2.2-9.61-1.61-13.77-5.31-5.79-12.61-7.73-18.8-4.98-5.23,2.32-7.36,5.09-6.98,9.85,4.59-5.49,9.28-10.38,16.91-7.54,6.98,2.6,10.14,8.17,10.48,16.44Zm-10.11-3.09c.97-2.08-.73-3.04-1.89-3.99-2.31-1.9-4.67-1.84-6.71.54-.62.72-1.04,2.18-.4,2.46,2.52,1.08,6.06-3.34,8.03,1.45.32-.15.63-.29.97-.45Zm3.8,11.2c-2.77-.96-4.87.91-7.19.71-1.52-.13-4.31-2.16-4.46.55-.15,2.61,3.07,1.72,4.92,1.78,2.51.09,5.01-.16,6.73-3.04Z" style="fill:#fde46e; stroke:#f58a2c; stroke-miterlimit:10; stroke-width:2.01px;"/><path d="m137.81,551.29c-.34-8.28-3.5-13.84-10.48-16.44-7.63-2.84-12.32,2.05-16.91,7.54-.38-4.76,1.75-7.52,6.98-9.85,6.19-2.75,13.49-.82,18.8,4.98,3.81,4.16,4.55,8.27,1.61,13.77Z" style="fill:#f58a2c; stroke:#f58a2c; stroke-miterlimit:10; stroke-width:2.01px;"/><path d="m127.7,548.2c-.34.16-.66.31-.97.45-1.97-4.78-5.51-.37-8.03-1.45-.65-.28-.22-1.73.4-2.46,2.04-2.38,4.4-2.45,6.71-.54,1.16.95,2.86,1.92,1.89,3.99Z" style="fill:#fbb74c; stroke:#f58a2c; stroke-miterlimit:10; stroke-width:2.01px;"/><path d="m131.5,559.41c-1.72,2.88-4.23,3.13-6.73,3.04-1.84-.07-5.06.83-4.92-1.78.15-2.71,2.94-.68,4.46-.55,2.32.2,4.42-1.67,7.19-.71Z" style="fill:#f4b74f; stroke:#f58a2c; stroke-miterlimit:10; stroke-width:2.01px;"/><path d="m113.1,518.04c.65,2.11-.7,3.57-1.6,5-2.75,4.39-1.2,6.86,3.08,9.01,4.14,2.08,8.35,2.43,12.8,2.26,2.88-.11,4.54-1.04,4.13-4.27-.12-1-.36-2.42,1.04-2.77,1.24-.31,1.97.88,2.55,1.71,1.99,2.86,3.84,2.19,6.37.47,10.65-7.27,15.12-22.84,10.06-35.94-2.83-7.33-3.32-7.5-10.19-3.62-.64.36-1.26.78-1.95.99-.65.2-1.56.46-2.01.17-1-.66-.41-1.65.05-2.4.67-1.09,1.33-2.23,2.23-3.12,3.25-3.21,2.1-4.97-1.56-6.86-11.72-6.02-23.37-3.76-35.04,7.15-9.47,8.86-10.9,22.13-3.87,32.95,2.72,4.19,5.29,5.17,9.12,1.5,1.23-1.18,2.64-2.48,4.78-2.23Z" style="fill:#ba661a; stroke:#f58a2c; stroke-miterlimit:10; stroke-width:2.01px;"/><path d="m113.1,518.04c-2.14-.25-3.55,1.05-4.78,2.23-3.82,3.67-6.4,2.69-9.12-1.5-7.03-10.82-5.61-24.09,3.87-32.95,11.66-10.91,23.32-13.17,35.04-7.15,3.67,1.88,4.81,3.65,1.56,6.86-.9.88-1.56,2.03-2.23,3.12-.47.76-1.06,1.75-.05,2.4.45.29,1.37.03,2.01-.17.69-.21,1.31-.63,1.95-.99,6.87-3.88,7.36-3.7,10.19,3.62,5.05,13.1.59,28.67-10.06,35.94-2.53,1.73-4.38,2.39-6.37-.47-.58-.83-1.31-2.01-2.55-1.71-1.41.35-1.17,1.77-1.04,2.77.4,3.24-1.26,4.16-4.13,4.27-4.45.17-8.66-.17-12.8-2.26-4.28-2.15-5.83-4.63-3.08-9.01.9-1.43,2.25-2.89,1.6-5Zm24.71-6.9c2.94-5.5,2.2-9.61-1.61-13.77-5.31-5.79-12.61-7.73-18.8-4.98-5.23,2.32-7.36,5.09-6.98,9.85,4.59-5.49,9.28-10.38,16.91-7.54,6.98,2.6,10.14,8.17,10.48,16.44Zm-10.11-3.09c.97-2.08-.73-3.04-1.89-3.99-2.31-1.9-4.67-1.84-6.71.54-.62.72-1.04,2.18-.4,2.46,2.52,1.08,6.06-3.34,8.03,1.45.32-.15.63-.29.97-.45Zm3.8,11.2c-2.77-.96-4.87.91-7.19.71-1.52-.13-4.31-2.16-4.46.55-.15,2.61,3.07,1.72,4.92,1.78,2.51.09,5.01-.16,6.73-3.04Z" style="fill:#fde46e; stroke:#f58a2c; stroke-miterlimit:10; stroke-width:2.01px;"/><path d="m137.81,511.14c-.34-8.28-3.5-13.84-10.48-16.44-7.63-2.84-12.32,2.05-16.91,7.54-.38-4.76,1.75-7.52,6.98-9.85,6.19-2.75,13.49-.82,18.8,4.98,3.81,4.16,4.55,8.27,1.61,13.77Z" style="fill:#f58a2c; stroke:#f58a2c; stroke-miterlimit:10; stroke-width:2.01px;"/><path d="m127.7,508.05c-.34.16-.66.31-.97.45-1.97-4.78-5.51-.37-8.03-1.45-.65-.28-.22-1.73.4-2.46,2.04-2.38,4.4-2.45,6.71-.54,1.16.95,2.86,1.92,1.89,3.99Z" style="fill:#fbb74c; stroke:#f58a2c; stroke-miterlimit:10; stroke-width:2.01px;"/><path d="m131.5,519.25c-1.72,2.88-4.23,3.13-6.73,3.04-1.84-.07-5.06.83-4.92-1.78.15-2.71,2.94-.68,4.46-.55,2.32.2,4.42-1.67,7.19-.71Z" style="fill:#f4b74f; stroke:#f58a2c; stroke-miterlimit:10; stroke-width:2.01px;"/><path d="m113.1,477.88c.65,2.11-.7,3.57-1.6,5-2.75,4.39-1.2,6.86,3.08,9.01,4.14,2.08,8.35,2.43,12.8,2.26,2.88-.11,4.54-1.04,4.13-4.27-.12-1-.36-2.42,1.04-2.77,1.24-.31,1.97.88,2.55,1.71,1.99,2.86,3.84,2.19,6.37.47,10.65-7.27,15.12-22.84,10.06-35.94-2.83-7.33-3.32-7.5-10.19-3.62-.64.36-1.26.78-1.95.99-.65.2-1.56.46-2.01.17-1-.66-.41-1.65.05-2.4.67-1.09,1.33-2.23,2.23-3.12,3.25-3.21,2.1-4.97-1.56-6.86-11.72-6.02-23.37-3.76-35.04,7.15-9.47,8.86-10.9,22.13-3.87,32.95,2.72,4.19,5.29,5.17,9.12,1.5,1.23-1.18,2.64-2.48,4.78-2.23Z" style="fill:#ba661a; stroke:#f58a2c; stroke-miterlimit:10; stroke-width:2.01px;"/><path d="m113.1,477.88c-2.14-.25-3.55,1.05-4.78,2.23-3.82,3.67-6.4,2.69-9.12-1.5-7.03-10.82-5.61-24.09,3.87-32.95,11.66-10.91,23.32-13.17,35.04-7.15,3.67,1.88,4.81,3.65,1.56,6.86-.9.88-1.56,2.03-2.23,3.12-.47.76-1.06,1.75-.05,2.4.45.29,1.37.03,2.01-.17.69-.21,1.31-.63,1.95-.99,6.87-3.88,7.36-3.7,10.19,3.62,5.05,13.1.59,28.67-10.06,35.94-2.53,1.73-4.38,2.39-6.37-.47-.58-.83-1.31-2.01-2.55-1.71-1.41.35-1.17,1.77-1.04,2.77.4,3.24-1.26,4.16-4.13,4.27-4.45.17-8.66-.17-12.8-2.26-4.28-2.15-5.83-4.63-3.08-9.01.9-1.43,2.25-2.89,1.6-5Zm24.71-6.9c2.94-5.5,2.2-9.61-1.61-13.77-5.31-5.79-12.61-7.73-18.8-4.98-5.23,2.32-7.36,5.09-6.98,9.85,4.59-5.49,9.28-10.38,16.91-7.54,6.98,2.6,10.14,8.17,10.48,16.44Zm-10.11-3.09c.97-2.08-.73-3.04-1.89-3.99-2.31-1.9-4.67-1.84-6.71.54-.62.72-1.04,2.18-.4,2.46,2.52,1.08,6.06-3.34,8.03,1.45.32-.15.63-.29.97-.45Zm3.8,11.2c-2.77-.96-4.87.91-7.19.71-1.52-.13-4.31-2.16-4.46.55-.15,2.61,3.07,1.72,4.92,1.78,2.51.09,5.01-.16,6.73-3.04Z" style="fill:#fde46e; stroke:#f58a2c; stroke-miterlimit:10; stroke-width:2.01px;"/><path d="m137.81,470.98c-.34-8.28-3.5-13.84-10.48-16.44-7.63-2.84-12.32,2.05-16.91,7.54-.38-4.76,1.75-7.52,6.98-9.85,6.19-2.75,13.49-.82,18.8,4.98,3.81,4.16,4.55,8.27,1.61,13.77Z" style="fill:#f58a2c; stroke:#f58a2c; stroke-miterlimit:10; stroke-width:2.01px;"/><path d="m127.7,467.9c-.34.16-.66.31-.97.45-1.97-4.78-5.51-.37-8.03-1.45-.65-.28-.22-1.73.4-2.46,2.04-2.38,4.4-2.45,6.71-.54,1.16.95,2.86,1.92,1.89,3.99Z" style="fill:#fbb74c; stroke:#f58a2c; stroke-miterlimit:10; stroke-width:2.01px;"/><path d="m131.5,479.1c-1.72,2.88-4.23,3.13-6.73,3.04-1.84-.07-5.06.83-4.92-1.78.15-2.71,2.94-.68,4.46-.55,2.32.2,4.42-1.67,7.19-.71Z" style="fill:#f4b74f; stroke:#f58a2c; stroke-miterlimit:10; stroke-width:2.01px;"/><path d="m113.1,437.73c.65,2.11-.7,3.57-1.6,5-2.75,4.39-1.2,6.86,3.08,9.01,4.14,2.08,8.35,2.43,12.8,2.26,2.88-.11,4.54-1.04,4.13-4.27-.12-1-.36-2.42,1.04-2.77,1.24-.31,1.97.88,2.55,1.71,1.99,2.86,3.84,2.19,6.37.47,10.65-7.27,15.12-22.84,10.06-35.94-2.83-7.33-3.32-7.5-10.19-3.62-.64.36-1.26.78-1.95.99-.65.2-1.56.46-2.01.17-1-.66-.41-1.65.05-2.4.67-1.09,1.33-2.23,2.23-3.12,3.25-3.21,2.1-4.97-1.56-6.86-11.72-6.02-23.37-3.76-35.04,7.15-9.47,8.86-10.9,22.13-3.87,32.95,2.72,4.19,5.29,5.17,9.12,1.5,1.23-1.18,2.64-2.48,4.78-2.23Z" style="fill:#ba661a; stroke:#f58a2c; stroke-miterlimit:10; stroke-width:2.01px;"/><path d="m113.1,437.73c-2.14-.25-3.55,1.05-4.78,2.23-3.82,3.67-6.4,2.69-9.12-1.5-7.03-10.82-5.61-24.09,3.87-32.95,11.66-10.91,23.32-13.17,35.04-7.15,3.67,1.88,4.81,3.65,1.56,6.86-.9.88-1.56,2.03-2.23,3.12-.47.76-1.06,1.75-.05,2.4.45.29,1.37.03,2.01-.17.69-.21,1.31-.63,1.95-.99,6.87-3.88,7.36-3.7,10.19,3.62,5.05,13.1.59,28.67-10.06,35.94-2.53,1.73-4.38,2.39-6.37-.47-.58-.83-1.31-2.01-2.55-1.71-1.41.35-1.17,1.77-1.04,2.77.4,3.24-1.26,4.16-4.13,4.27-4.45.17-8.66-.17-12.8-2.26-4.28-2.15-5.83-4.63-3.08-9.01.9-1.43,2.25-2.89,1.6-5Zm24.71-6.9c2.94-5.5,2.2-9.61-1.61-13.77-5.31-5.79-12.61-7.73-18.8-4.98-5.23,2.32-7.36,5.09-6.98,9.85,4.59-5.49,9.28-10.38,16.91-7.54,6.98,2.6,10.14,8.17,10.48,16.44Zm-10.11-3.09c.97-2.08-.73-3.04-1.89-3.99-2.31-1.9-4.67-1.84-6.71.54-.62.72-1.04,2.18-.4,2.46,2.52,1.08,6.06-3.34,8.03,1.45.32-.15.63-.29.97-.45Zm3.8,11.2c-2.77-.96-4.87.91-7.19.71-1.52-.13-4.31-2.16-4.46.55-.15,2.61,3.07,1.72,4.92,1.78,2.51.09,5.01-.16,6.73-3.04Z" style="fill:#fde46e; stroke:#f58a2c; stroke-miterlimit:10; stroke-width:2.01px;"/><path d="m137.81,430.83c-.34-8.28-3.5-13.84-10.48-16.44-7.63-2.84-12.32,2.05-16.91,7.54-.38-4.76,1.75-7.52,6.98-9.85,6.19-2.75,13.49-.82,18.8,4.98,3.81,4.16,4.55,8.27,1.61,13.77Z" style="fill:#f58a2c; stroke:#f58a2c; stroke-miterlimit:10; stroke-width:2.01px;"/><path d="m127.7,427.74c-.34.16-.66.31-.97.45-1.97-4.78-5.51-.37-8.03-1.45-.65-.28-.22-1.73.4-2.46,2.04-2.38,4.4-2.45,6.71-.54,1.16.95,2.86,1.92,1.89,3.99Z" style="fill:#fbb74c; stroke:#f58a2c; stroke-miterlimit:10; stroke-width:2.01px;"/><path d="m131.5,438.95c-1.72,2.88-4.23,3.13-6.73,3.04-1.84-.07-5.06.83-4.92-1.78.15-2.71,2.94-.68,4.46-.55,2.32.2,4.42-1.67,7.19-.71Z" style="fill:#f4b74f; stroke:#f58a2c; stroke-miterlimit:10; stroke-width:2.01px;"/><path d="m113.1,397.57c.65,2.11-.7,3.57-1.6,5-2.75,4.39-1.2,6.86,3.08,9.01,4.14,2.08,8.35,2.43,12.8,2.26,2.88-.11,4.54-1.04,4.13-4.27-.12-1-.36-2.42,1.04-2.77,1.24-.31,1.97.88,2.55,1.71,1.99,2.86,3.84,2.19,6.37.47,10.65-7.27,15.12-22.84,10.06-35.94-2.83-7.33-3.32-7.5-10.19-3.62-.64.36-1.26.78-1.95.99-.65.2-1.56.46-2.01.17-1-.66-.41-1.65.05-2.4.67-1.09,1.33-2.23,2.23-3.12,3.25-3.21,2.1-4.97-1.56-6.86-11.72-6.02-23.37-3.76-35.04,7.15-9.47,8.86-10.9,22.13-3.87,32.95,2.72,4.19,5.29,5.17,9.12,1.5,1.23-1.18,2.64-2.48,4.78-2.23Z" style="fill:#ba661a; stroke:#f58a2c; stroke-miterlimit:10; stroke-width:2.01px;"/><path d="m113.1,397.57c-2.14-.25-3.55,1.05-4.78,2.23-3.82,3.67-6.4,2.69-9.12-1.5-7.03-10.82-5.61-24.09,3.87-32.95,11.66-10.91,23.32-13.17,35.04-7.15,3.67,1.88,4.81,3.65,1.56,6.86-.9.88-1.56,2.03-2.23,3.12-.47.76-1.06,1.75-.05,2.4.45.29,1.37.03,2.01-.17.69-.21,1.31-.63,1.95-.99,6.87-3.88,7.36-3.7,10.19,3.62,5.05,13.1.59,28.67-10.06,35.94-2.53,1.73-4.38,2.39-6.37-.47-.58-.83-1.31-2.01-2.55-1.71-1.41.35-1.17,1.77-1.04,2.77.4,3.24-1.26,4.16-4.13,4.27-4.45.17-8.66-.17-12.8-2.26-4.28-2.15-5.83-4.63-3.08-9.01.9-1.43,2.25-2.89,1.6-5Zm24.71-6.9c2.94-5.5,2.2-9.61-1.61-13.77-5.31-5.79-12.61-7.73-18.8-4.98-5.23,2.32-7.36,5.09-6.98,9.85,4.59-5.49,9.28-10.38,16.91-7.54,6.98,2.6,10.14,8.17,10.48,16.44Zm-10.11-3.09c.97-2.08-.73-3.04-1.89-3.99-2.31-1.9-4.67-1.84-6.71.54-.62.72-1.04,2.18-.4,2.46,2.52,1.08,6.06-3.34,8.03,1.45.32-.15.63-.29.97-.45Zm3.8,11.2c-2.77-.96-4.87.91-7.19.71-1.52-.13-4.31-2.16-4.46.55-.15,2.61,3.07,1.72,4.92,1.78,2.51.09,5.01-.16,6.73-3.04Z" style="fill:#fde46e; stroke:#f58a2c; stroke-miterlimit:10; stroke-width:2.01px;"/><path d="m137.81,390.68c-.34-8.28-3.5-13.84-10.48-16.44-7.63-2.84-12.32,2.05-16.91,7.54-.38-4.76,1.75-7.52,6.98-9.85,6.19-2.75,13.49-.82,18.8,4.98,3.81,4.16,4.55,8.27,1.61,13.77Z" style="fill:#f58a2c; stroke:#f58a2c; stroke-miterlimit:10; stroke-width:2.01px;"/><path d="m127.7,387.59c-.34.16-.66.31-.97.45-1.97-4.78-5.51-.37-8.03-1.45-.65-.28-.22-1.73.4-2.46,2.04-2.38,4.4-2.45,6.71-.54,1.16.95,2.86,1.92,1.89,3.99Z" style="fill:#fbb74c; stroke:#f58a2c; stroke-miterlimit:10; stroke-width:2.01px;"/><path d="m131.5,398.79c-1.72,2.88-4.23,3.13-6.73,3.04-1.84-.07-5.06.83-4.92-1.78.15-2.71,2.94-.68,4.46-.55,2.32.2,4.42-1.67,7.19-.71Z" style="fill:#f4b74f; stroke:#f58a2c; stroke-miterlimit:10; stroke-width:2.01px;"/><path d="m623.73,638.5c.65,2.11-.7,3.57-1.6,5-2.75,4.39-1.2,6.86,3.08,9.01,4.14,2.08,8.35,2.43,12.8,2.26,2.88-.11,4.54-1.04,4.13-4.27-.12-1-.36-2.42,1.04-2.77,1.24-.31,1.97.88,2.55,1.71,1.99,2.86,3.84,2.19,6.37.47,10.65-7.27,15.12-22.84,10.06-35.94-2.83-7.33-3.32-7.5-10.19-3.62-.64.36-1.26.78-1.95.99-.65.2-1.56.46-2.01.17-1-.66-.41-1.65.05-2.4.67-1.09,1.33-2.23,2.23-3.12,3.25-3.21,2.1-4.97-1.56-6.86-11.72-6.02-23.37-3.76-35.04,7.15-9.47,8.86-10.9,22.13-3.87,32.95,2.72,4.19,5.29,5.17,9.12,1.5,1.23-1.18,2.64-2.48,4.78-2.23Z" style="fill:#ba661a; stroke:#f58a2c; stroke-miterlimit:10; stroke-width:2.01px;"/><path d="m623.73,638.5c-2.14-.25-3.55,1.05-4.78,2.23-3.82,3.67-6.4,2.69-9.12-1.5-7.03-10.82-5.61-24.09,3.87-32.95,11.66-10.91,23.32-13.17,35.04-7.15,3.67,1.88,4.81,3.65,1.56,6.86-.9.88-1.56,2.03-2.23,3.12-.47.76-1.06,1.75-.05,2.4.45.29,1.37.03,2.01-.17.69-.21,1.31-.63,1.95-.99,6.87-3.88,7.36-3.7,10.19,3.62,5.05,13.1.59,28.67-10.06,35.94-2.53,1.73-4.38,2.39-6.37-.47-.58-.83-1.31-2.01-2.55-1.71-1.41.35-1.17,1.77-1.04,2.77.4,3.24-1.26,4.16-4.13,4.27-4.45.17-8.66-.17-12.8-2.26-4.28-2.15-5.83-4.63-3.08-9.01.9-1.43,2.25-2.89,1.6-5Zm24.71-6.9c2.94-5.5,2.2-9.61-1.61-13.77-5.31-5.79-12.61-7.73-18.8-4.98-5.23,2.32-7.36,5.09-6.98,9.85,4.59-5.49,9.28-10.38,16.91-7.54,6.98,2.6,10.14,8.17,10.48,16.44Zm-10.11-3.09c.97-2.08-.73-3.04-1.89-3.99-2.31-1.9-4.67-1.84-6.71.54-.62.72-1.04,2.18-.4,2.46,2.52,1.08,6.06-3.34,8.03,1.45.32-.15.63-.29.97-.45Zm3.8,11.2c-2.77-.96-4.87.91-7.19.71-1.52-.13-4.31-2.16-4.46.55-.15,2.61,3.07,1.72,4.92,1.78,2.51.09,5.01-.16,6.73-3.04Z" style="fill:#fde46e; stroke:#f58a2c; stroke-miterlimit:10; stroke-width:2.01px;"/><path d="m648.44,631.6c-.34-8.28-3.5-13.84-10.48-16.44-7.63-2.84-12.32,2.05-16.91,7.54-.38-4.76,1.75-7.52,6.98-9.85,6.19-2.75,13.49-.82,18.8,4.98,3.81,4.16,4.55,8.27,1.61,13.77Z" style="fill:#f58a2c; stroke:#f58a2c; stroke-miterlimit:10; stroke-width:2.01px;"/><path d="m638.34,628.51c-.34.16-.66.31-.97.45-1.97-4.78-5.51-.37-8.03-1.45-.65-.28-.22-1.73.4-2.46,2.04-2.38,4.4-2.45,6.71-.54,1.16.95,2.86,1.92,1.89,3.99Z" style="fill:#fbb74c; stroke:#f58a2c; stroke-miterlimit:10; stroke-width:2.01px;"/><path d="m642.13,639.72c-1.72,2.88-4.23,3.13-6.73,3.04-1.84-.07-5.06.83-4.92-1.78.15-2.71,2.94-.68,4.46-.55,2.32.2,4.42-1.67,7.19-.71Z" style="fill:#f4b74f; stroke:#f58a2c; stroke-miterlimit:10; stroke-width:2.01px;"/><path d="m623.73,598.34c.65,2.11-.7,3.57-1.6,5-2.75,4.39-1.2,6.86,3.08,9.01,4.14,2.08,8.35,2.43,12.8,2.26,2.88-.11,4.54-1.04,4.13-4.27-.12-1-.36-2.42,1.04-2.77,1.24-.31,1.97.88,2.55,1.71,1.99,2.86,3.84,2.19,6.37.47,10.65-7.27,15.12-22.84,10.06-35.94-2.83-7.33-3.32-7.5-10.19-3.62-.64.36-1.26.78-1.95.99-.65.2-1.56.46-2.01.17-1-.66-.41-1.65.05-2.4.67-1.09,1.33-2.23,2.23-3.12,3.25-3.21,2.1-4.97-1.56-6.86-11.72-6.02-23.37-3.76-35.04,7.15-9.47,8.86-10.9,22.13-3.87,32.95,2.72,4.19,5.29,5.17,9.12,1.5,1.23-1.18,2.64-2.48,4.78-2.23Z" style="fill:#ba661a; stroke:#f58a2c; stroke-miterlimit:10; stroke-width:2.01px;"/><path d="m623.73,598.34c-2.14-.25-3.55,1.05-4.78,2.23-3.82,3.67-6.4,2.69-9.12-1.5-7.03-10.82-5.61-24.09,3.87-32.95,11.66-10.91,23.32-13.17,35.04-7.15,3.67,1.88,4.81,3.65,1.56,6.86-.9.88-1.56,2.03-2.23,3.12-.47.76-1.06,1.75-.05,2.4.45.29,1.37.03,2.01-.17.69-.21,1.31-.63,1.95-.99,6.87-3.88,7.36-3.7,10.19,3.62,5.05,13.1.59,28.67-10.06,35.94-2.53,1.73-4.38,2.39-6.37-.47-.58-.83-1.31-2.01-2.55-1.71-1.41.35-1.17,1.77-1.04,2.77.4,3.24-1.26,4.16-4.13,4.27-4.45.17-8.66-.17-12.8-2.26-4.28-2.15-5.83-4.63-3.08-9.01.9-1.43,2.25-2.89,1.6-5Zm24.71-6.9c2.94-5.5,2.2-9.61-1.61-13.77-5.31-5.79-12.61-7.73-18.8-4.98-5.23,2.32-7.36,5.09-6.98,9.85,4.59-5.49,9.28-10.38,16.91-7.54,6.98,2.6,10.14,8.17,10.48,16.44Zm-10.11-3.09c.97-2.08-.73-3.04-1.89-3.99-2.31-1.9-4.67-1.84-6.71.54-.62.72-1.04,2.18-.4,2.46,2.52,1.08,6.06-3.34,8.03,1.45.32-.15.63-.29.97-.45Zm3.8,11.2c-2.77-.96-4.87.91-7.19.71-1.52-.13-4.31-2.16-4.46.55-.15,2.61,3.07,1.72,4.92,1.78,2.51.09,5.01-.16,6.73-3.04Z" style="fill:#fde46e; stroke:#f58a2c; stroke-miterlimit:10; stroke-width:2.01px;"/><path d="m648.44,591.45c-.34-8.28-3.5-13.84-10.48-16.44-7.63-2.84-12.32,2.05-16.91,7.54-.38-4.76,1.75-7.52,6.98-9.85,6.19-2.75,13.49-.82,18.8,4.98,3.81,4.16,4.55,8.27,1.61,13.77Z" style="fill:#f58a2c; stroke:#f58a2c; stroke-miterlimit:10; stroke-width:2.01px;"/><path d="m638.34,588.36c-.34.16-.66.31-.97.45-1.97-4.78-5.51-.37-8.03-1.45-.65-.28-.22-1.73.4-2.46,2.04-2.38,4.4-2.45,6.71-.54,1.16.95,2.86,1.92,1.89,3.99Z" style="fill:#fbb74c; stroke:#f58a2c; stroke-miterlimit:10; stroke-width:2.01px;"/><path d="m642.13,599.56c-1.72,2.88-4.23,3.13-6.73,3.04-1.84-.07-5.06.83-4.92-1.78.15-2.71,2.94-.68,4.46-.55,2.32.2,4.42-1.67,7.19-.71Z" style="fill:#f4b74f; stroke:#f58a2c; stroke-miterlimit:10; stroke-width:2.01px;"/><path d="m623.73,558.19c.65,2.11-.7,3.57-1.6,5-2.75,4.39-1.2,6.86,3.08,9.01,4.14,2.08,8.35,2.43,12.8,2.26,2.88-.11,4.54-1.04,4.13-4.27-.12-1-.36-2.42,1.04-2.77,1.24-.31,1.97.88,2.55,1.71,1.99,2.86,3.84,2.19,6.37.47,10.65-7.27,15.12-22.84,10.06-35.94-2.83-7.33-3.32-7.5-10.19-3.62-.64.36-1.26.78-1.95.99-.65.2-1.56.46-2.01.17-1-.66-.41-1.65.05-2.4.67-1.09,1.33-2.23,2.23-3.12,3.25-3.21,2.1-4.97-1.56-6.86-11.72-6.02-23.37-3.76-35.04,7.15-9.47,8.86-10.9,22.13-3.87,32.95,2.72,4.19,5.29,5.17,9.12,1.5,1.23-1.18,2.64-2.48,4.78-2.23Z" style="fill:#ba661a; stroke:#f58a2c; stroke-miterlimit:10; stroke-width:2.01px;"/><path d="m623.73,558.19c-2.14-.25-3.55,1.05-4.78,2.23-3.82,3.67-6.4,2.69-9.12-1.5-7.03-10.82-5.61-24.09,3.87-32.95,11.66-10.91,23.32-13.17,35.04-7.15,3.67,1.88,4.81,3.65,1.56,6.86-.9.88-1.56,2.03-2.23,3.12-.47.76-1.06,1.75-.05,2.4.45.29,1.37.03,2.01-.17.69-.21,1.31-.63,1.95-.99,6.87-3.88,7.36-3.7,10.19,3.62,5.05,13.1.59,28.67-10.06,35.94-2.53,1.73-4.38,2.39-6.37-.47-.58-.83-1.31-2.01-2.55-1.71-1.41.35-1.17,1.77-1.04,2.77.4,3.24-1.26,4.16-4.13,4.27-4.45.17-8.66-.17-12.8-2.26-4.28-2.15-5.83-4.63-3.08-9.01.9-1.43,2.25-2.89,1.6-5Zm24.71-6.9c2.94-5.5,2.2-9.61-1.61-13.77-5.31-5.79-12.61-7.73-18.8-4.98-5.23,2.32-7.36,5.09-6.98,9.85,4.59-5.49,9.28-10.38,16.91-7.54,6.98,2.6,10.14,8.17,10.48,16.44Zm-10.11-3.09c.97-2.08-.73-3.04-1.89-3.99-2.31-1.9-4.67-1.84-6.71.54-.62.72-1.04,2.18-.4,2.46,2.52,1.08,6.06-3.34,8.03,1.45.32-.15.63-.29.97-.45Zm3.8,11.2c-2.77-.96-4.87.91-7.19.71-1.52-.13-4.31-2.16-4.46.55-.15,2.61,3.07,1.72,4.92,1.78,2.51.09,5.01-.16,6.73-3.04Z" style="fill:#fde46e; stroke:#f58a2c; stroke-miterlimit:10; stroke-width:2.01px;"/><path d="m648.44,551.29c-.34-8.28-3.5-13.84-10.48-16.44-7.63-2.84-12.32,2.05-16.91,7.54-.38-4.76,1.75-7.52,6.98-9.85,6.19-2.75,13.49-.82,18.8,4.98,3.81,4.16,4.55,8.27,1.61,13.77Z" style="fill:#f58a2c; stroke:#f58a2c; stroke-miterlimit:10; stroke-width:2.01px;"/><path d="m638.34,548.2c-.34.16-.66.31-.97.45-1.97-4.78-5.51-.37-8.03-1.45-.65-.28-.22-1.73.4-2.46,2.04-2.38,4.4-2.45,6.71-.54,1.16.95,2.86,1.92,1.89,3.99Z" style="fill:#fbb74c; stroke:#f58a2c; stroke-miterlimit:10; stroke-width:2.01px;"/><path d="m642.13,559.41c-1.72,2.88-4.23,3.13-6.73,3.04-1.84-.07-5.06.83-4.92-1.78.15-2.71,2.94-.68,4.46-.55,2.32.2,4.42-1.67,7.19-.71Z" style="fill:#f4b74f; stroke:#f58a2c; stroke-miterlimit:10; stroke-width:2.01px;"/><path d="m623.73,518.04c.65,2.11-.7,3.57-1.6,5-2.75,4.39-1.2,6.86,3.08,9.01,4.14,2.08,8.35,2.43,12.8,2.26,2.88-.11,4.54-1.04,4.13-4.27-.12-1-.36-2.42,1.04-2.77,1.24-.31,1.97.88,2.55,1.71,1.99,2.86,3.84,2.19,6.37.47,10.65-7.27,15.12-22.84,10.06-35.94-2.83-7.33-3.32-7.5-10.19-3.62-.64.36-1.26.78-1.95.99-.65.2-1.56.46-2.01.17-1-.66-.41-1.65.05-2.4.67-1.09,1.33-2.23,2.23-3.12,3.25-3.21,2.1-4.97-1.56-6.86-11.72-6.02-23.37-3.76-35.04,7.15-9.47,8.86-10.9,22.13-3.87,32.95,2.72,4.19,5.29,5.17,9.12,1.5,1.23-1.18,2.64-2.48,4.78-2.23Z" style="fill:#ba661a; stroke:#f58a2c; stroke-miterlimit:10; stroke-width:2.01px;"/><path d="m623.73,518.04c-2.14-.25-3.55,1.05-4.78,2.23-3.82,3.67-6.4,2.69-9.12-1.5-7.03-10.82-5.61-24.09,3.87-32.95,11.66-10.91,23.32-13.17,35.04-7.15,3.67,1.88,4.81,3.65,1.56,6.86-.9.88-1.56,2.03-2.23,3.12-.47.76-1.06,1.75-.05,2.4.45.29,1.37.03,2.01-.17.69-.21,1.31-.63,1.95-.99,6.87-3.88,7.36-3.7,10.19,3.62,5.05,13.1.59,28.67-10.06,35.94-2.53,1.73-4.38,2.39-6.37-.47-.58-.83-1.31-2.01-2.55-1.71-1.41.35-1.17,1.77-1.04,2.77.4,3.24-1.26,4.16-4.13,4.27-4.45.17-8.66-.17-12.8-2.26-4.28-2.15-5.83-4.63-3.08-9.01.9-1.43,2.25-2.89,1.6-5Zm24.71-6.9c2.94-5.5,2.2-9.61-1.61-13.77-5.31-5.79-12.61-7.73-18.8-4.98-5.23,2.32-7.36,5.09-6.98,9.85,4.59-5.49,9.28-10.38,16.91-7.54,6.98,2.6,10.14,8.17,10.48,16.44Zm-10.11-3.09c.97-2.08-.73-3.04-1.89-3.99-2.31-1.9-4.67-1.84-6.71.54-.62.72-1.04,2.18-.4,2.46,2.52,1.08,6.06-3.34,8.03,1.45.32-.15.63-.29.97-.45Zm3.8,11.2c-2.77-.96-4.87.91-7.19.71-1.52-.13-4.31-2.16-4.46.55-.15,2.61,3.07,1.72,4.92,1.78,2.51.09,5.01-.16,6.73-3.04Z" style="fill:#fde46e; stroke:#f58a2c; stroke-miterlimit:10; stroke-width:2.01px;"/><path d="m648.44,511.14c-.34-8.28-3.5-13.84-10.48-16.44-7.63-2.84-12.32,2.05-16.91,7.54-.38-4.76,1.75-7.52,6.98-9.85,6.19-2.75,13.49-.82,18.8,4.98,3.81,4.16,4.55,8.27,1.61,13.77Z" style="fill:#f58a2c; stroke:#f58a2c; stroke-miterlimit:10; stroke-width:2.01px;"/><path d="m638.34,508.05c-.34.16-.66.31-.97.45-1.97-4.78-5.51-.37-8.03-1.45-.65-.28-.22-1.73.4-2.46,2.04-2.38,4.4-2.45,6.71-.54,1.16.95,2.86,1.92,1.89,3.99Z" style="fill:#fbb74c; stroke:#f58a2c; stroke-miterlimit:10; stroke-width:2.01px;"/><path d="m642.13,519.25c-1.72,2.88-4.23,3.13-6.73,3.04-1.84-.07-5.06.83-4.92-1.78.15-2.71,2.94-.68,4.46-.55,2.32.2,4.42-1.67,7.19-.71Z" style="fill:#f4b74f; stroke:#f58a2c; stroke-miterlimit:10; stroke-width:2.01px;"/><path d="m623.73,477.88c.65,2.11-.7,3.57-1.6,5-2.75,4.39-1.2,6.86,3.08,9.01,4.14,2.08,8.35,2.43,12.8,2.26,2.88-.11,4.54-1.04,4.13-4.27-.12-1-.36-2.42,1.04-2.77,1.24-.31,1.97.88,2.55,1.71,1.99,2.86,3.84,2.19,6.37.47,10.65-7.27,15.12-22.84,10.06-35.94-2.83-7.33-3.32-7.5-10.19-3.62-.64.36-1.26.78-1.95.99-.65.2-1.56.46-2.01.17-1-.66-.41-1.65.05-2.4.67-1.09,1.33-2.23,2.23-3.12,3.25-3.21,2.1-4.97-1.56-6.86-11.72-6.02-23.37-3.76-35.04,7.15-9.47,8.86-10.9,22.13-3.87,32.95,2.72,4.19,5.29,5.17,9.12,1.5,1.23-1.18,2.64-2.48,4.78-2.23Z" style="fill:#ba661a; stroke:#f58a2c; stroke-miterlimit:10; stroke-width:2.01px;"/><path d="m623.73,477.88c-2.14-.25-3.55,1.05-4.78,2.23-3.82,3.67-6.4,2.69-9.12-1.5-7.03-10.82-5.61-24.09,3.87-32.95,11.66-10.91,23.32-13.17,35.04-7.15,3.67,1.88,4.81,3.65,1.56,6.86-.9.88-1.56,2.03-2.23,3.12-.47.76-1.06,1.75-.05,2.4.45.29,1.37.03,2.01-.17.69-.21,1.31-.63,1.95-.99,6.87-3.88,7.36-3.7,10.19,3.62,5.05,13.1.59,28.67-10.06,35.94-2.53,1.73-4.38,2.39-6.37-.47-.58-.83-1.31-2.01-2.55-1.71-1.41.35-1.17,1.77-1.04,2.77.4,3.24-1.26,4.16-4.13,4.27-4.45.17-8.66-.17-12.8-2.26-4.28-2.15-5.83-4.63-3.08-9.01.9-1.43,2.25-2.89,1.6-5Zm24.71-6.9c2.94-5.5,2.2-9.61-1.61-13.77-5.31-5.79-12.61-7.73-18.8-4.98-5.23,2.32-7.36,5.09-6.98,9.85,4.59-5.49,9.28-10.38,16.91-7.54,6.98,2.6,10.14,8.17,10.48,16.44Zm-10.11-3.09c.97-2.08-.73-3.04-1.89-3.99-2.31-1.9-4.67-1.84-6.71.54-.62.72-1.04,2.18-.4,2.46,2.52,1.08,6.06-3.34,8.03,1.45.32-.15.63-.29.97-.45Zm3.8,11.2c-2.77-.96-4.87.91-7.19.71-1.52-.13-4.31-2.16-4.46.55-.15,2.61,3.07,1.72,4.92,1.78,2.51.09,5.01-.16,6.73-3.04Z" style="fill:#fde46e; stroke:#f58a2c; stroke-miterlimit:10; stroke-width:2.01px;"/><path d="m648.44,470.98c-.34-8.28-3.5-13.84-10.48-16.44-7.63-2.84-12.32,2.05-16.91,7.54-.38-4.76,1.75-7.52,6.98-9.85,6.19-2.75,13.49-.82,18.8,4.98,3.81,4.16,4.55,8.27,1.61,13.77Z" style="fill:#f58a2c; stroke:#f58a2c; stroke-miterlimit:10; stroke-width:2.01px;"/><path d="m638.34,467.9c-.34.16-.66.31-.97.45-1.97-4.78-5.51-.37-8.03-1.45-.65-.28-.22-1.73.4-2.46,2.04-2.38,4.4-2.45,6.71-.54,1.16.95,2.86,1.92,1.89,3.99Z" style="fill:#fbb74c; stroke:#f58a2c; stroke-miterlimit:10; stroke-width:2.01px;"/><path d="m642.13,479.1c-1.72,2.88-4.23,3.13-6.73,3.04-1.84-.07-5.06.83-4.92-1.78.15-2.71,2.94-.68,4.46-.55,2.32.2,4.42-1.67,7.19-.71Z" style="fill:#f4b74f; stroke:#f58a2c; stroke-miterlimit:10; stroke-width:2.01px;"/><path d="m623.73,437.73c.65,2.11-.7,3.57-1.6,5-2.75,4.39-1.2,6.86,3.08,9.01,4.14,2.08,8.35,2.43,12.8,2.26,2.88-.11,4.54-1.04,4.13-4.27-.12-1-.36-2.42,1.04-2.77,1.24-.31,1.97.88,2.55,1.71,1.99,2.86,3.84,2.19,6.37.47,10.65-7.27,15.12-22.84,10.06-35.94-2.83-7.33-3.32-7.5-10.19-3.62-.64.36-1.26.78-1.95.99-.65.2-1.56.46-2.01.17-1-.66-.41-1.65.05-2.4.67-1.09,1.33-2.23,2.23-3.12,3.25-3.21,2.1-4.97-1.56-6.86-11.72-6.02-23.37-3.76-35.04,7.15-9.47,8.86-10.9,22.13-3.87,32.95,2.72,4.19,5.29,5.17,9.12,1.5,1.23-1.18,2.64-2.48,4.78-2.23Z" style="fill:#ba661a; stroke:#f58a2c; stroke-miterlimit:10; stroke-width:2.01px;"/><path d="m623.73,437.73c-2.14-.25-3.55,1.05-4.78,2.23-3.82,3.67-6.4,2.69-9.12-1.5-7.03-10.82-5.61-24.09,3.87-32.95,11.66-10.91,23.32-13.17,35.04-7.15,3.67,1.88,4.81,3.65,1.56,6.86-.9.88-1.56,2.03-2.23,3.12-.47.76-1.06,1.75-.05,2.4.45.29,1.37.03,2.01-.17.69-.21,1.31-.63,1.95-.99,6.87-3.88,7.36-3.7,10.19,3.62,5.05,13.1.59,28.67-10.06,35.94-2.53,1.73-4.38,2.39-6.37-.47-.58-.83-1.31-2.01-2.55-1.71-1.41.35-1.17,1.77-1.04,2.77.4,3.24-1.26,4.16-4.13,4.27-4.45.17-8.66-.17-12.8-2.26-4.28-2.15-5.83-4.63-3.08-9.01.9-1.43,2.25-2.89,1.6-5Zm24.71-6.9c2.94-5.5,2.2-9.61-1.61-13.77-5.31-5.79-12.61-7.73-18.8-4.98-5.23,2.32-7.36,5.09-6.98,9.85,4.59-5.49,9.28-10.38,16.91-7.54,6.98,2.6,10.14,8.17,10.48,16.44Zm-10.11-3.09c.97-2.08-.73-3.04-1.89-3.99-2.31-1.9-4.67-1.84-6.71.54-.62.72-1.04,2.18-.4,2.46,2.52,1.08,6.06-3.34,8.03,1.45.32-.15.63-.29.97-.45Zm3.8,11.2c-2.77-.96-4.87.91-7.19.71-1.52-.13-4.31-2.16-4.46.55-.15,2.61,3.07,1.72,4.92,1.78,2.51.09,5.01-.16,6.73-3.04Z" style="fill:#fde46e; stroke:#f58a2c; stroke-miterlimit:10; stroke-width:2.01px;"/><path d="m648.44,430.83c-.34-8.28-3.5-13.84-10.48-16.44-7.63-2.84-12.32,2.05-16.91,7.54-.38-4.76,1.75-7.52,6.98-9.85,6.19-2.75,13.49-.82,18.8,4.98,3.81,4.16,4.55,8.27,1.61,13.77Z" style="fill:#f58a2c; stroke:#f58a2c; stroke-miterlimit:10; stroke-width:2.01px;"/><path d="m638.34,427.74c-.34.16-.66.31-.97.45-1.97-4.78-5.51-.37-8.03-1.45-.65-.28-.22-1.73.4-2.46,2.04-2.38,4.4-2.45,6.71-.54,1.16.95,2.86,1.92,1.89,3.99Z" style="fill:#fbb74c; stroke:#f58a2c; stroke-miterlimit:10; stroke-width:2.01px;"/><path d="m642.13,438.95c-1.72,2.88-4.23,3.13-6.73,3.04-1.84-.07-5.06.83-4.92-1.78.15-2.71,2.94-.68,4.46-.55,2.32.2,4.42-1.67,7.19-.71Z" style="fill:#f4b74f; stroke:#f58a2c; stroke-miterlimit:10; stroke-width:2.01px;"/><path d="m623.73,397.57c.65,2.11-.7,3.57-1.6,5-2.75,4.39-1.2,6.86,3.08,9.01,4.14,2.08,8.35,2.43,12.8,2.26,2.88-.11,4.54-1.04,4.13-4.27-.12-1-.36-2.42,1.04-2.77,1.24-.31,1.97.88,2.55,1.71,1.99,2.86,3.84,2.19,6.37.47,10.65-7.27,15.12-22.84,10.06-35.94-2.83-7.33-3.32-7.5-10.19-3.62-.64.36-1.26.78-1.95.99-.65.2-1.56.46-2.01.17-1-.66-.41-1.65.05-2.4.67-1.09,1.33-2.23,2.23-3.12,3.25-3.21,2.1-4.97-1.56-6.86-11.72-6.02-23.37-3.76-35.04,7.15-9.47,8.86-10.9,22.13-3.87,32.95,2.72,4.19,5.29,5.17,9.12,1.5,1.23-1.18,2.64-2.48,4.78-2.23Z" style="fill:#ba661a; stroke:#f58a2c; stroke-miterlimit:10; stroke-width:2.01px;"/><path d="m623.73,397.57c-2.14-.25-3.55,1.05-4.78,2.23-3.82,3.67-6.4,2.69-9.12-1.5-7.03-10.82-5.61-24.09,3.87-32.95,11.66-10.91,23.32-13.17,35.04-7.15,3.67,1.88,4.81,3.65,1.56,6.86-.9.88-1.56,2.03-2.23,3.12-.47.76-1.06,1.75-.05,2.4.45.29,1.37.03,2.01-.17.69-.21,1.31-.63,1.95-.99,6.87-3.88,7.36-3.7,10.19,3.62,5.05,13.1.59,28.67-10.06,35.94-2.53,1.73-4.38,2.39-6.37-.47-.58-.83-1.31-2.01-2.55-1.71-1.41.35-1.17,1.77-1.04,2.77.4,3.24-1.26,4.16-4.13,4.27-4.45.17-8.66-.17-12.8-2.26-4.28-2.15-5.83-4.63-3.08-9.01.9-1.43,2.25-2.89,1.6-5Zm24.71-6.9c2.94-5.5,2.2-9.61-1.61-13.77-5.31-5.79-12.61-7.73-18.8-4.98-5.23,2.32-7.36,5.09-6.98,9.85,4.59-5.49,9.28-10.38,16.91-7.54,6.98,2.6,10.14,8.17,10.48,16.44Zm-10.11-3.09c.97-2.08-.73-3.04-1.89-3.99-2.31-1.9-4.67-1.84-6.71.54-.62.72-1.04,2.18-.4,2.46,2.52,1.08,6.06-3.34,8.03,1.45.32-.15.63-.29.97-.45Zm3.8,11.2c-2.77-.96-4.87.91-7.19.71-1.52-.13-4.31-2.16-4.46.55-.15,2.61,3.07,1.72,4.92,1.78,2.51.09,5.01-.16,6.73-3.04Z" style="fill:#fde46e; stroke:#f58a2c; stroke-miterlimit:10; stroke-width:2.01px;"/><path d="m648.44,390.68c-.34-8.28-3.5-13.84-10.48-16.44-7.63-2.84-12.32,2.05-16.91,7.54-.38-4.76,1.75-7.52,6.98-9.85,6.19-2.75,13.49-.82,18.8,4.98,3.81,4.16,4.55,8.27,1.61,13.77Z" style="fill:#f58a2c; stroke:#f58a2c; stroke-miterlimit:10; stroke-width:2.01px;"/><path d="m638.34,387.59c-.34.16-.66.31-.97.45-1.97-4.78-5.51-.37-8.03-1.45-.65-.28-.22-1.73.4-2.46,2.04-2.38,4.4-2.45,6.71-.54,1.16.95,2.86,1.92,1.89,3.99Z" style="fill:#fbb74c; stroke:#f58a2c; stroke-miterlimit:10; stroke-width:2.01px;"/><path d="m642.13,398.79c-1.72,2.88-4.23,3.13-6.73,3.04-1.84-.07-5.06.83-4.92-1.78.15-2.71,2.94-.68,4.46-.55,2.32.2,4.42-1.67,7.19-.71Z" style="fill:#f4b74f; stroke:#f58a2c; stroke-miterlimit:10; stroke-width:2.01px;"/><rect x="37.74" y="339.57" width="698.04" height="22.43" style="fill:#df432c; stroke-width:0px;"/><path d="m103.7,332.56c-1.71,11.01-11.98,13.69-18.7,11.01-9.75-3.89-7.82-5.97-7.46-12.45.36-6.48,3.4-14.01,10.63-13.61s16.53,8.65,15.54,15.06Z" style="fill:#f58a2c; stroke:#ba661a; stroke-miterlimit:10; stroke-width:3px;"/><circle cx="86.25" cy="330.46" r="13.1" style="fill:#f4b74f; stroke:#ba661a; stroke-miterlimit:10; stroke-width:3px;"/><ellipse cx="85.86" cy="330.07" rx="5.53" ry="4.37" style="fill:#ba661a; stroke-width:0px;"/><path d="m124.13,332.56c-1.71,11.01-11.98,13.69-18.7,11.01-9.75-3.89-7.82-5.97-7.46-12.45.36-6.48,3.4-14.01,10.63-13.61s16.53,8.65,15.54,15.06Z" style="fill:#f58a2c; stroke:#ba661a; stroke-miterlimit:10; stroke-width:3px;"/><circle cx="106.67" cy="330.46" r="13.1" style="fill:#f4b74f; stroke:#ba661a; stroke-miterlimit:10; stroke-width:3px;"/><ellipse cx="106.28" cy="330.07" rx="5.53" ry="4.37" style="fill:#ba661a; stroke-width:0px;"/><path d="m144.55,332.56c-1.71,11.01-11.98,13.69-18.7,11.01-9.75-3.89-7.82-5.97-7.46-12.45.36-6.48,3.4-14.01,10.63-13.61,7.22.4,16.53,8.65,15.54,15.06Z" style="fill:#f58a2c; stroke:#ba661a; stroke-miterlimit:10; stroke-width:3px;"/><circle cx="127.1" cy="330.46" r="13.1" style="fill:#f4b74f; stroke:#ba661a; stroke-miterlimit:10; stroke-width:3px;"/><ellipse cx="126.71" cy="330.07" rx="5.53" ry="4.37" style="fill:#ba661a; stroke-width:0px;"/><path d="m164.98,332.56c-1.71,11.01-11.98,13.69-18.7,11.01-9.75-3.89-7.82-5.97-7.46-12.45s3.4-14.01,10.63-13.61c7.22.4,16.53,8.65,15.54,15.06Z" style="fill:#f58a2c; stroke:#ba661a; stroke-miterlimit:10; stroke-width:3px;"/><circle cx="147.52" cy="330.46" r="13.1" style="fill:#f4b74f; stroke:#ba661a; stroke-miterlimit:10; stroke-width:3px;"/><ellipse cx="147.13" cy="330.07" rx="5.53" ry="4.37" style="fill:#ba661a; stroke-width:0px;"/><path d="m185.4,332.56c-1.71,11.01-11.98,13.69-18.7,11.01-9.75-3.89-7.82-5.97-7.46-12.45.36-6.48,3.4-14.01,10.63-13.61s16.53,8.65,15.54,15.06Z" style="fill:#f58a2c; stroke:#ba661a; stroke-miterlimit:10; stroke-width:3px;"/><circle cx="167.95" cy="330.46" r="13.1" style="fill:#f4b74f; stroke:#ba661a; stroke-miterlimit:10; stroke-width:3px;"/><ellipse cx="167.56" cy="330.07" rx="5.53" ry="4.37" style="fill:#ba661a; stroke-width:0px;"/><path d="m205.83,332.56c-1.71,11.01-11.98,13.69-18.7,11.01-9.75-3.89-7.82-5.97-7.46-12.45.36-6.48,3.4-14.01,10.63-13.61s16.53,8.65,15.54,15.06Z" style="fill:#f58a2c; stroke:#ba661a; stroke-miterlimit:10; stroke-width:3px;"/><circle cx="188.37" cy="330.46" r="13.1" style="fill:#f4b74f; stroke:#ba661a; stroke-miterlimit:10; stroke-width:3px;"/><ellipse cx="187.98" cy="330.07" rx="5.53" ry="4.37" style="fill:#ba661a; stroke-width:0px;"/><path d="m226.25,332.56c-1.71,11.01-11.98,13.69-18.7,11.01-9.75-3.89-7.82-5.97-7.46-12.45.36-6.48,3.4-14.01,10.63-13.61,7.22.4,16.53,8.65,15.54,15.06Z" style="fill:#f58a2c; stroke:#ba661a; stroke-miterlimit:10; stroke-width:3px;"/><circle cx="208.8" cy="330.46" r="13.1" style="fill:#f4b74f; stroke:#ba661a; stroke-miterlimit:10; stroke-width:3px;"/><ellipse cx="208.41" cy="330.07" rx="5.53" ry="4.37" style="fill:#ba661a; stroke-width:0px;"/><path d="m246.68,332.56c-1.71,11.01-11.98,13.69-18.7,11.01-9.75-3.89-7.82-5.97-7.46-12.45.36-6.48,3.4-14.01,10.63-13.61,7.22.4,16.53,8.65,15.54,15.06Z" style="fill:#f58a2c; stroke:#ba661a; stroke-miterlimit:10; stroke-width:3px;"/><circle cx="229.23" cy="330.46" r="13.1" style="fill:#f4b74f; stroke:#ba661a; stroke-miterlimit:10; stroke-width:3px;"/><ellipse cx="228.83" cy="330.07" rx="5.53" ry="4.37" style="fill:#ba661a; stroke-width:0px;"/><path d="m267.11,332.56c-1.71,11.01-11.98,13.69-18.7,11.01-9.75-3.89-7.82-5.97-7.46-12.45.36-6.48,3.4-14.01,10.63-13.61s16.53,8.65,15.54,15.06Z" style="fill:#f58a2c; stroke:#ba661a; stroke-miterlimit:10; stroke-width:3px;"/><circle cx="249.65" cy="330.46" r="13.1" style="fill:#f4b74f; stroke:#ba661a; stroke-miterlimit:10; stroke-width:3px;"/><ellipse cx="249.26" cy="330.07" rx="5.53" ry="4.37" style="fill:#ba661a; stroke-width:0px;"/><path d="m287.53,332.56c-1.71,11.01-11.98,13.69-18.7,11.01-9.75-3.89-7.82-5.97-7.46-12.45.36-6.48,3.4-14.01,10.63-13.61s16.53,8.65,15.54,15.06Z" style="fill:#f58a2c; stroke:#ba661a; stroke-miterlimit:10; stroke-width:3px;"/><circle cx="270.08" cy="330.46" r="13.1" style="fill:#f4b74f; stroke:#ba661a; stroke-miterlimit:10; stroke-width:3px;"/><ellipse cx="269.69" cy="330.07" rx="5.53" ry="4.37" style="fill:#ba661a; stroke-width:0px;"/><path d="m307.96,332.56c-1.71,11.01-11.98,13.69-18.7,11.01-9.75-3.89-7.82-5.97-7.46-12.45.36-6.48,3.4-14.01,10.63-13.61,7.22.4,16.53,8.65,15.54,15.06Z" style="fill:#f58a2c; stroke:#ba661a; stroke-miterlimit:10; stroke-width:3px;"/><circle cx="290.5" cy="330.46" r="13.1" style="fill:#f4b74f; stroke:#ba661a; stroke-miterlimit:10; stroke-width:3px;"/><ellipse cx="290.11" cy="330.07" rx="5.53" ry="4.37" style="fill:#ba661a; stroke-width:0px;"/><path d="m328.38,332.56c-1.71,11.01-11.98,13.69-18.7,11.01-9.75-3.89-7.82-5.97-7.46-12.45.36-6.48,3.4-14.01,10.63-13.61,7.22.4,16.53,8.65,15.54,15.06Z" style="fill:#f58a2c; stroke:#ba661a; stroke-miterlimit:10; stroke-width:3px;"/><circle cx="310.93" cy="330.46" r="13.1" style="fill:#f4b74f; stroke:#ba661a; stroke-miterlimit:10; stroke-width:3px;"/><ellipse cx="310.54" cy="330.07" rx="5.53" ry="4.37" style="fill:#ba661a; stroke-width:0px;"/><path d="m348.81,332.56c-1.71,11.01-11.98,13.69-18.7,11.01-9.75-3.89-7.82-5.97-7.46-12.45.36-6.48,3.4-14.01,10.63-13.61s16.53,8.65,15.54,15.06Z" style="fill:#f58a2c; stroke:#ba661a; stroke-miterlimit:10; stroke-width:3px;"/><circle cx="331.35" cy="330.46" r="13.1" style="fill:#f4b74f; stroke:#ba661a; stroke-miterlimit:10; stroke-width:3px;"/><ellipse cx="330.96" cy="330.07" rx="5.53" ry="4.37" style="fill:#ba661a; stroke-width:0px;"/><path d="m369.23,332.56c-1.71,11.01-11.98,13.69-18.7,11.01-9.75-3.89-7.82-5.97-7.46-12.45.36-6.48,3.4-14.01,10.63-13.61s16.53,8.65,15.54,15.06Z" style="fill:#f58a2c; stroke:#ba661a; stroke-miterlimit:10; stroke-width:3px;"/><circle cx="351.78" cy="330.46" r="13.1" style="fill:#f4b74f; stroke:#ba661a; stroke-miterlimit:10; stroke-width:3px;"/><ellipse cx="351.39" cy="330.07" rx="5.53" ry="4.37" style="fill:#ba661a; stroke-width:0px;"/><path d="m389.66,332.56c-1.71,11.01-11.98,13.69-18.7,11.01-9.75-3.89-7.82-5.97-7.46-12.45s3.4-14.01,10.63-13.61,16.53,8.65,15.54,15.06Z" style="fill:#f58a2c; stroke:#ba661a; stroke-miterlimit:10; stroke-width:3px;"/><circle cx="372.2" cy="330.46" r="13.1" style="fill:#f4b74f; stroke:#ba661a; stroke-miterlimit:10; stroke-width:3px;"/><ellipse cx="371.81" cy="330.07" rx="5.53" ry="4.37" style="fill:#ba661a; stroke-width:0px;"/><path d="m410.08,332.56c-1.71,11.01-11.98,13.69-18.7,11.01-9.75-3.89-7.82-5.97-7.46-12.45.36-6.48,3.4-14.01,10.63-13.61,7.22.4,16.53,8.65,15.54,15.06Z" style="fill:#f58a2c; stroke:#ba661a; stroke-miterlimit:10; stroke-width:3px;"/><circle cx="392.63" cy="330.46" r="13.1" style="fill:#f4b74f; stroke:#ba661a; stroke-miterlimit:10; stroke-width:3px;"/><ellipse cx="392.24" cy="330.07" rx="5.53" ry="4.37" style="fill:#ba661a; stroke-width:0px;"/><path d="m430.51,332.56c-1.71,11.01-11.98,13.69-18.7,11.01-9.75-3.89-7.82-5.97-7.46-12.45.36-6.48,3.4-14.01,10.63-13.61,7.22.4,16.53,8.65,15.54,15.06Z" style="fill:#f58a2c; stroke:#ba661a; stroke-miterlimit:10; stroke-width:3px;"/><circle cx="413.06" cy="330.46" r="13.1" style="fill:#f4b74f; stroke:#ba661a; stroke-miterlimit:10; stroke-width:3px;"/><ellipse cx="412.66" cy="330.07" rx="5.53" ry="4.37" style="fill:#ba661a; stroke-width:0px;"/><path d="m450.94,332.56c-1.71,11.01-11.98,13.69-18.7,11.01-9.75-3.89-7.82-5.97-7.46-12.45.36-6.48,3.4-14.01,10.63-13.61s16.53,8.65,15.54,15.06Z" style="fill:#f58a2c; stroke:#ba661a; stroke-miterlimit:10; stroke-width:3px;"/><circle cx="433.48" cy="330.46" r="13.1" style="fill:#f4b74f; stroke:#ba661a; stroke-miterlimit:10; stroke-width:3px;"/><ellipse cx="433.09" cy="330.07" rx="5.53" ry="4.37" style="fill:#ba661a; stroke-width:0px;"/><path d="m471.36,332.56c-1.71,11.01-11.98,13.69-18.7,11.01-9.75-3.89-7.82-5.97-7.46-12.45s3.4-14.01,10.63-13.61,16.53,8.65,15.54,15.06Z" style="fill:#f58a2c; stroke:#ba661a; stroke-miterlimit:10; stroke-width:3px;"/><circle cx="453.91" cy="330.46" r="13.1" style="fill:#f4b74f; stroke:#ba661a; stroke-miterlimit:10; stroke-width:3px;"/><ellipse cx="453.52" cy="330.07" rx="5.53" ry="4.37" style="fill:#ba661a; stroke-width:0px;"/><path d="m491.79,332.56c-1.71,11.01-11.98,13.69-18.7,11.01-9.75-3.89-7.82-5.97-7.46-12.45s3.4-14.01,10.63-13.61c7.22.4,16.53,8.65,15.54,15.06Z" style="fill:#f58a2c; stroke:#ba661a; stroke-miterlimit:10; stroke-width:3px;"/><circle cx="474.33" cy="330.46" r="13.1" style="fill:#f4b74f; stroke:#ba661a; stroke-miterlimit:10; stroke-width:3px;"/><ellipse cx="473.94" cy="330.07" rx="5.53" ry="4.37" style="fill:#ba661a; stroke-width:0px;"/><path d="m512.21,332.56c-1.71,11.01-11.98,13.69-18.7,11.01-9.75-3.89-7.82-5.97-7.46-12.45.36-6.48,3.4-14.01,10.63-13.61,7.22.4,16.53,8.65,15.54,15.06Z" style="fill:#f58a2c; stroke:#ba661a; stroke-miterlimit:10; stroke-width:3px;"/><circle cx="494.76" cy="330.46" r="13.1" style="fill:#f4b74f; stroke:#ba661a; stroke-miterlimit:10; stroke-width:3px;"/><ellipse cx="494.37" cy="330.07" rx="5.53" ry="4.37" style="fill:#ba661a; stroke-width:0px;"/><path d="m532.64,332.56c-1.71,11.01-11.98,13.69-18.7,11.01-9.75-3.89-7.82-5.97-7.46-12.45.36-6.48,3.4-14.01,10.63-13.61s16.53,8.65,15.54,15.06Z" style="fill:#f58a2c; stroke:#ba661a; stroke-miterlimit:10; stroke-width:3px;"/><circle cx="515.18" cy="330.46" r="13.1" style="fill:#f4b74f; stroke:#ba661a; stroke-miterlimit:10; stroke-width:3px;"/><ellipse cx="514.79" cy="330.07" rx="5.53" ry="4.37" style="fill:#ba661a; stroke-width:0px;"/><path d="m553.06,332.56c-1.71,11.01-11.98,13.69-18.7,11.01-9.75-3.89-7.82-5.97-7.46-12.45.36-6.48,3.4-14.01,10.63-13.61s16.53,8.65,15.54,15.06Z" style="fill:#f58a2c; stroke:#ba661a; stroke-miterlimit:10; stroke-width:3px;"/><circle cx="535.61" cy="330.46" r="13.1" style="fill:#f4b74f; stroke:#ba661a; stroke-miterlimit:10; stroke-width:3px;"/><ellipse cx="535.22" cy="330.07" rx="5.53" ry="4.37" style="fill:#ba661a; stroke-width:0px;"/><path d="m573.49,332.56c-1.71,11.01-11.98,13.69-18.7,11.01-9.75-3.89-7.82-5.97-7.46-12.45s3.4-14.01,10.63-13.61,16.53,8.65,15.54,15.06Z" style="fill:#f58a2c; stroke:#ba661a; stroke-miterlimit:10; stroke-width:3px;"/><circle cx="556.03" cy="330.46" r="13.1" style="fill:#f4b74f; stroke:#ba661a; stroke-miterlimit:10; stroke-width:3px;"/><ellipse cx="555.64" cy="330.07" rx="5.53" ry="4.37" style="fill:#ba661a; stroke-width:0px;"/><path d="m593.91,332.56c-1.71,11.01-11.98,13.69-18.7,11.01-9.75-3.89-7.82-5.97-7.46-12.45.36-6.48,3.4-14.01,10.63-13.61,7.22.4,16.53,8.65,15.54,15.06Z" style="fill:#f58a2c; stroke:#ba661a; stroke-miterlimit:10; stroke-width:3px;"/><circle cx="576.46" cy="330.46" r="13.1" style="fill:#f4b74f; stroke:#ba661a; stroke-miterlimit:10; stroke-width:3px;"/><ellipse cx="576.07" cy="330.07" rx="5.53" ry="4.37" style="fill:#ba661a; stroke-width:0px;"/><path d="m614.34,332.56c-1.71,11.01-11.98,13.69-18.7,11.01-9.75-3.89-7.82-5.97-7.46-12.45.36-6.48,3.4-14.01,10.63-13.61,7.22.4,16.53,8.65,15.54,15.06Z" style="fill:#f58a2c; stroke:#ba661a; stroke-miterlimit:10; stroke-width:3px;"/><circle cx="596.88" cy="330.46" r="13.1" style="fill:#f4b74f; stroke:#ba661a; stroke-miterlimit:10; stroke-width:3px;"/><ellipse cx="596.49" cy="330.07" rx="5.53" ry="4.37" style="fill:#ba661a; stroke-width:0px;"/><path d="m634.76,332.56c-1.71,11.01-11.98,13.69-18.7,11.01-9.75-3.89-7.82-5.97-7.46-12.45.36-6.48,3.4-14.01,10.63-13.61s16.53,8.65,15.54,15.06Z" style="fill:#f58a2c; stroke:#ba661a; stroke-miterlimit:10; stroke-width:3px;"/><circle cx="617.31" cy="330.46" r="13.1" style="fill:#f4b74f; stroke:#ba661a; stroke-miterlimit:10; stroke-width:3px;"/><ellipse cx="616.92" cy="330.07" rx="5.53" ry="4.37" style="fill:#ba661a; stroke-width:0px;"/><path d="m655.19,332.56c-1.71,11.01-11.98,13.69-18.7,11.01-9.75-3.89-7.82-5.97-7.46-12.45s3.4-14.01,10.63-13.61,16.53,8.65,15.54,15.06Z" style="fill:#f58a2c; stroke:#ba661a; stroke-miterlimit:10; stroke-width:3px;"/><circle cx="637.74" cy="330.46" r="13.1" style="fill:#f4b74f; stroke:#ba661a; stroke-miterlimit:10; stroke-width:3px;"/><ellipse cx="637.35" cy="330.07" rx="5.53" ry="4.37" style="fill:#ba661a; stroke-width:0px;"/><path d="m675.62,332.56c-1.71,11.01-11.98,13.69-18.7,11.01-9.75-3.89-7.82-5.97-7.46-12.45s3.4-14.01,10.63-13.61c7.22.4,16.53,8.65,15.54,15.06Z" style="fill:#f58a2c; stroke:#ba661a; stroke-miterlimit:10; stroke-width:3px;"/><circle cx="658.16" cy="330.46" r="13.1" style="fill:#f4b74f; stroke:#ba661a; stroke-miterlimit:10; stroke-width:3px;"/><ellipse cx="657.77" cy="330.07" rx="5.53" ry="4.37" style="fill:#ba661a; stroke-width:0px;"/><path d="m696.04,332.56c-1.71,11.01-11.98,13.69-18.7,11.01-9.75-3.89-7.82-5.97-7.46-12.45.36-6.48,3.4-14.01,10.63-13.61,7.22.4,16.53,8.65,15.54,15.06Z" style="fill:#f58a2c; stroke:#ba661a; stroke-miterlimit:10; stroke-width:3px;"/><circle cx="678.59" cy="330.46" r="13.1" style="fill:#f4b74f; stroke:#ba661a; stroke-miterlimit:10; stroke-width:3px;"/><ellipse cx="678.2" cy="330.07" rx="5.53" ry="4.37" style="fill:#ba661a; stroke-width:0px;"/><rect x="73.02" y="304.83" width="617.83" height="22.92" style="fill:#fbb74c; stroke-width:0px;"/><path d="m689.85,305.84v20.92H74.02v-20.92h615.83m2-2H72.02v24.92h619.83v-24.92h0Z" style="fill:#ba661a; stroke-width:0px;"/><rect x="154.64" y="112.33" width="26.62" height="114.06" rx="4.4" ry="4.4" style="fill:#934924; stroke-width:0px;"/><rect x="158.59" y="100.21" width="18.72" height="17.24" style="fill:#fefefd; stroke-width:0px;"/><rect x="154.64" y="114.16" width="26.62" height="114.06" rx="2.25" ry="2.25" style="fill:#bc6330; stroke-width:0px;"/><polygon points="167.95 81.37 147.88 102.37 188.02 102.37 167.95 81.37" style="fill:#bc6330; stroke-width:0px;"/><rect x="193.03" y="-9.2" width="12.89" height="466.74" rx="1.42" ry="1.42" transform="translate(159.66 521.6) rotate(-130.71)" style="fill:#fbb74c; stroke:#bc6330; stroke-linecap:round; stroke-linejoin:round; stroke-width:3px;"/><rect x="564.04" y="-6.49" width="12.89" height="464.91" transform="translate(27.1 511.01) rotate(-49.29)" style="fill:#fbb74c; stroke:#bc6330; stroke-linecap:round; stroke-linejoin:round; stroke-width:3px;"/><polygon points="384.74 72.35 114.65 305.43 654.82 305.43 384.74 72.35" style="fill:#f58a2c; stroke:#ba661a; stroke-linecap:round; stroke-linejoin:round; stroke-width:3.24px;"/><polygon points="384.74 90.83 154.86 296.19 614.62 296.19 384.74 90.83" style="fill:#f4b74f; stroke:#ba661a; stroke-miterlimit:10; stroke-width:3px;"/><g style="clip-path:url(#clippath);"><rect x="145.94" y="64.88" width="15.78" height="235.9" style="fill:#fde270; stroke-width:0px;"/><rect x="163.7" y="64.88" width="15.78" height="235.9" style="fill:#fde270; stroke-width:0px;"/><rect x="181.46" y="64.88" width="15.78" height="235.9" style="fill:#fde270; stroke-width:0px;"/><rect x="199.22" y="64.88" width="15.78" height="235.9" style="fill:#fde270; stroke-width:0px;"/><rect x="216.99" y="64.88" width="15.78" height="235.9" style="fill:#fde270; stroke-width:0px;"/><rect x="234.75" y="64.88" width="15.78" height="235.9" style="fill:#fde270; stroke-width:0px;"/><rect x="252.51" y="64.88" width="15.78" height="235.9" style="fill:#fde270; stroke-width:0px;"/><rect x="270.27" y="64.88" width="15.78" height="235.9" style="fill:#fde270; stroke-width:0px;"/><rect x="288.04" y="64.88" width="15.78" height="235.9" style="fill:#fde270; stroke-width:0px;"/><rect x="305.8" y="64.88" width="15.78" height="235.9" style="fill:#fde270; stroke-width:0px;"/><rect x="323.56" y="64.88" width="15.78" height="235.9" style="fill:#fde270; stroke-width:0px;"/><rect x="341.33" y="64.88" width="15.78" height="235.9" style="fill:#fde270; stroke-width:0px;"/><rect x="359.09" y="64.88" width="15.78" height="235.9" style="fill:#fde270; stroke-width:0px;"/><rect x="376.85" y="64.88" width="15.78" height="235.9" style="fill:#fde270; stroke-width:0px;"/><rect x="394.61" y="64.88" width="15.78" height="235.9" style="fill:#fde270; stroke-width:0px;"/><rect x="412.38" y="64.88" width="15.78" height="235.9" style="fill:#fde270; stroke-width:0px;"/><rect x="430.14" y="64.88" width="15.78" height="235.9" style="fill:#fde270; stroke-width:0px;"/><rect x="447.9" y="64.88" width="15.78" height="235.9" style="fill:#fde270; stroke-width:0px;"/><rect x="465.66" y="64.88" width="15.78" height="235.9" style="fill:#fde270; stroke-width:0px;"/><rect x="483.43" y="64.88" width="15.78" height="235.9" style="fill:#fde270; stroke-width:0px;"/><rect x="501.19" y="64.88" width="15.78" height="235.9" style="fill:#fde270; stroke-width:0px;"/><rect x="518.95" y="64.88" width="15.78" height="235.9" style="fill:#fde270; stroke-width:0px;"/><rect x="536.72" y="64.88" width="15.78" height="235.9" style="fill:#fde270; stroke-width:0px;"/><rect x="554.48" y="64.88" width="15.78" height="235.9" style="fill:#fde270; stroke-width:0px;"/><rect x="572.24" y="64.88" width="15.78" height="235.9" style="fill:#fde270; stroke-width:0px;"/><rect x="590" y="64.88" width="15.78" height="235.9" style="fill:#fde270; stroke-width:0px;"/><rect x="607.77" y="64.88" width="15.78" height="235.9" style="fill:#fde270; stroke-width:0px;"/></g><rect x="564.05" y="-34.95" width="24.81" height="480.97" transform="translate(45.43 509.77) rotate(-49.43)" style="fill:#df432c; stroke:#bc6330; stroke-linecap:round; stroke-linejoin:round; stroke-width:4px;"/><rect x="180.93" y="-35.62" width="24.81" height="482.03" transform="translate(163.03 485.84) rotate(-130.57)" style="fill:#df432c; stroke-width:0px;"/><path d="m18.31,373.74c-.61,0-1.22-.26-1.66-.76L.52,354.14c-.38-.44-.56-1.01-.52-1.58.04-.58.32-1.11.75-1.49L366.93,37.58c.91-.78,2.29-.68,3.07.24l16.13,18.85c.38.44.56,1.01.52,1.58-.04.58-.32,1.11-.75,1.49L19.73,373.22c-.41.35-.91.52-1.41.52Zm-11.61-19.09l10,11.69c1.02,1.19,2.81,1.33,4,.31L381.41,57.84l-13.3-15.54L6.94,351.51c-.94.8-1.05,2.21-.24,3.15Z" style="fill:#bc6330; stroke-width:0px;"/><path d="m400.9,0h-1.47c-.41.28-.98.68-1.43,1.48-.42.75-.51,1.44-.65,2.63-.19,1.61.09,1.97-.08,3.46-.21,1.87-.53,2.19-.63,3.88-.1,1.76-.18,3.08.63,4.17.6.8,1.22.86,1.36,1.58.18.92-.63,1.79-1.1,2.29-.49.53-1.59,1.7-3.11,1.54-1.09-.11-1.79-.84-2.06-1.12-.08-.08-1.41-1.51-1.07-3.14.18-.88.7-.77,1.14-1.9.57-1.46.46-2.79.37-3.78-.02-.22-.01-.06-.47-2.65-.35-2-.38-2.19-.36-2.53.04-.89.24-1.22.24-2.43,0-.99-.14-1.28-.28-1.47-.39-.53-1.06-.63-1.56-.71-.36-.05-1.87-.28-2.48.51-.36.48-.17,1.03-.06,2.02.09.84.02,1.8-.13,3.71-.29,3.67-1.35,4.11-.76,5.81.17.5.6,1.47,1.1,2.38.57,1.05.91,1.44.82,2.03-.07.44-.44.81-1.17,1.54-.88.87-1.32,1.31-1.98,1.42-.46.08-.85-.05-1.64-.3-1.13-.36-1.81-.56-2.13-1.17-.29-.57-.18-1.17-.05-1.81.22-1.11.61-1.37.99-2.35.56-1.43.48-2.76.42-3.7-.04-.55-.06-.31-.46-2.68-.28-1.67-.42-2.52-.38-3.03.08-1.15.4-1.41.31-2.5-.06-.65-.12-1.39-.67-1.81-.61-.47-1.45-.25-2.16-.07-.55.14-1.87.48-2.05,1.29-.12.58.47.84.74,1.76.24.8-.12,1.29-.39,2.79-.38,2.09-.68,2.69-.78,4.29-.09,1.45-.13,2.29.37,3.14.39.66.77.78,1.12,1.6.13.32.49,1.15.25,2.11-.35,1.42-1.71,2.05-1.95,2.16-.08.04-1.77.79-3.4-.11-.28-.15-1.16-.64-1.51-1.63-.11-.32-.22-.83.1-2.11.51-2.08,1.15-2.11,1.36-3.5.08-.53-.05-1.47-.33-3.34-.24-1.64-.34-1.68-.34-2.42,0-1.09.23-1.52.23-2.74,0-.78-.09-1.4-.16-1.8l-1.54-1.29c-.93-.38-2.14-.97-2.12-1.51h-.95c-2.68,0-4.85,2.17-4.85,4.85v113.67c0,2.68,2.17,4.85,4.85,4.85h.58c-.02-.54,1.19-1.13,2.12-1.51l1.54-1.29c.07-.39.16-1.02.16-1.8,0-1.23-.22-1.66-.23-2.74,0-.74.1-.78.34-2.42.28-1.87.41-2.81.33-3.34-.22-1.39-.85-1.43-1.36-3.5-.31-1.28-.21-1.79-.1-2.11.35-.99,1.23-1.48,1.51-1.63,1.64-.9,3.33-.15,3.4-.11.23.11,1.6.74,1.95,2.16.23.96-.12,1.79-.25,2.11-.35.82-.73.94-1.12,1.6-.5.85-.46,1.69-.37,3.14.1,1.6.4,2.2.78,4.29.27,1.5.63,1.99.39,2.79-.27.91-.87,1.17-.74,1.76.17.81,1.5,1.15,2.05,1.29.71.18,1.55.4,2.16-.07.55-.42.61-1.16.67-1.81.09-1.09-.22-1.35-.31-2.5-.04-.51.1-1.36.38-3.03.39-2.37.42-2.13.46-2.68.06-.94.15-2.26-.42-3.7-.38-.98-.77-1.24-.99-2.35-.13-.63-.24-1.23.05-1.81.31-.61,1-.81,2.13-1.17.79-.25,1.18-.37,1.64-.3.65.11,1.09.54,1.98,1.42.74.73,1.11,1.1,1.17,1.54.09.6-.24.98-.82,2.03-.5.91-.93,1.88-1.1,2.38-.58,1.71.47,2.14.76,5.81.15,1.91.23,2.87.13,3.71-.11.99-.3,1.55.06,2.02.6.79,2.11.56,2.48.51.5-.08,1.17-.17,1.56-.71.14-.19.28-.48.28-1.47,0-1.21-.2-1.54-.24-2.43-.01-.34,0-.53.36-2.53.46-2.59.45-2.43.47-2.65.09-.99.2-2.32-.37-3.78-.44-1.13-.95-1.02-1.14-1.9-.34-1.63.99-3.05,1.07-3.14.27-.28.97-1.01,2.06-1.12,1.52-.15,2.62,1.01,3.11,1.54.47.5,1.28,1.37,1.1,2.29-.14.73-.76.78-1.36,1.58-.82,1.09-.74,2.4-.63,4.17.1,1.69.42,2.01.63,3.88.17,1.49-.11,1.85.08,3.46.14,1.2.23,1.88.65,2.63.46.81,1.02,1.21,1.43,1.48h1.84c2.68,0,4.85-2.17,4.85-4.85V4.85c0-2.68-2.17-4.85-4.85-4.85Z" style="fill:#df432c; stroke-width:0px;"/><circle cx="384.96" cy="61.69" r="14.78" style="fill:#fde270; stroke-width:0px;"/><circle cx="384.96" cy="61.69" r="3.19" style="fill:#df432c; stroke-width:0px;"/><path d="m61.81,328v105.56c0,2.49-1.66,4.51-3.7,4.51h-1.4c-.31-.26-.75-.63-1.09-1.38-.32-.7-.39-1.34-.5-2.45-.14-1.49.07-1.83-.06-3.21-.16-1.74-.4-2.04-.48-3.6-.08-1.64-.14-2.86.48-3.87.46-.74.93-.8,1.04-1.47.14-.86-.48-1.66-.84-2.12-.38-.49-1.21-1.57-2.37-1.43-.83.1-1.37.78-1.57,1.04-.06.08-1.07,1.4-.82,2.91.14.81.53.71.87,1.76.43,1.36.35,2.59.28,3.51-.01.2,0,.05-.36,2.46-.27,1.86-.29,2.03-.27,2.35.03.82.18,1.13.18,2.25,0,.92-.11,1.19-.22,1.36-.3.49-.81.59-1.19.66-.28.05-1.43.26-1.89-.47-.28-.44-.13-.96-.05-1.88.07-.78.01-1.67-.1-3.44-.22-3.41-1.02-3.81-.58-5.4.13-.46.46-1.36.84-2.21.44-.98.69-1.33.62-1.89-.05-.41-.33-.76-.89-1.43-.67-.81-1.01-1.21-1.5-1.31-.35-.07-.65.05-1.25.28-.86.33-1.38.52-1.62,1.09-.22.53-.14,1.09-.04,1.68.17,1.03.46,1.27.76,2.18.43,1.33.36,2.56.32,3.43-.03.51-.05.29-.35,2.49-.21,1.55-.32,2.34-.29,2.82.06,1.07.31,1.31.23,2.32-.04.61-.09,1.29-.51,1.68-.46.43-1.1.23-1.64.06-.42-.13-1.43-.45-1.56-1.2-.09-.54.36-.78.57-1.63.18-.74-.09-1.2-.3-2.59-.29-1.94-.52-2.5-.59-3.98-.07-1.35-.1-2.12.28-2.91.29-.61.59-.72.85-1.48.1-.3.37-1.07.19-1.96-.26-1.32-1.3-1.91-1.48-2.01-.06-.03-1.35-.73-2.59.11-.21.14-.88.59-1.15,1.51-.08.29-.17.77.07,1.96.39,1.93.87,1.96,1.04,3.25.06.5-.04,1.37-.25,3.1-.18,1.52-.26,1.56-.26,2.25,0,1.01.18,1.41.18,2.55,0,.72-.07,1.3-.12,1.67l-1.18,1.2c-.71.35-1.63.9-1.62,1.4h-.44c-2.04,0-3.7-2.02-3.7-4.51v-98.65c0-3.82,3.09-6.91,6.91-6.91h25.09Z" style="fill:#df432c; stroke-width:0px;"/><circle cx="45.99" cy="341.67" r="10.28" style="fill:#fde270; stroke-width:0px;"/><circle cx="45.99" cy="341.67" r="2.21" style="fill:#df432c; stroke-width:0px;"/><path d="m733.16,329.03c2.55,0,4.61,2.06,4.61,4.61v100.95c0,2.49-1.66,4.51-3.7,4.51h-1.4c-.31-.26-.75-.63-1.09-1.38-.32-.7-.39-1.34-.5-2.45-.14-1.49.07-1.83-.06-3.21-.16-1.74-.4-2.04-.48-3.6-.08-1.64-.14-2.86.48-3.87.46-.74.93-.8,1.04-1.47.14-.86-.48-1.66-.84-2.12-.38-.49-1.21-1.57-2.37-1.43-.83.1-1.37.78-1.57,1.04-.06.08-1.07,1.4-.82,2.91.14.81.53.71.87,1.76.43,1.36.35,2.59.28,3.51-.01.2,0,.05-.36,2.46-.27,1.86-.29,2.03-.27,2.35.03.82.18,1.13.18,2.25,0,.92-.11,1.19-.22,1.36-.3.49-.81.59-1.19.66-.28.05-1.43.26-1.89-.47-.28-.44-.13-.96-.05-1.88.07-.78.01-1.67-.1-3.44-.22-3.41-1.02-3.81-.58-5.4.13-.46.46-1.36.84-2.21.44-.98.69-1.33.62-1.89-.05-.41-.33-.76-.89-1.43-.67-.81-1.01-1.21-1.5-1.31-.35-.07-.65.05-1.25.28-.86.33-1.38.52-1.62,1.09-.22.53-.14,1.09-.04,1.68.17,1.03.46,1.27.76,2.18.43,1.33.36,2.56.32,3.43-.03.51-.05.29-.35,2.49-.21,1.55-.32,2.34-.29,2.82.06,1.07.31,1.31.23,2.32-.04.61-.09,1.29-.51,1.68-.46.43-1.1.23-1.64.06-.42-.13-1.43-.45-1.56-1.2-.09-.54.36-.78.57-1.63.18-.74-.09-1.2-.3-2.59-.29-1.94-.52-2.5-.59-3.98-.07-1.35-.1-2.12.28-2.91.29-.61.59-.72.85-1.48.1-.3.37-1.07.19-1.96-.26-1.32-1.3-1.91-1.48-2.01-.06-.03-1.35-.73-2.59.11-.21.14-.88.59-1.15,1.51-.08.29-.17.77.07,1.96.39,1.93.87,1.96,1.04,3.25.06.5-.04,1.37-.25,3.1-.18,1.52-.26,1.56-.26,2.25,0,1.01.18,1.41.18,2.55,0,.72-.07,1.3-.12,1.67l-1.18,1.2c-.71.35-1.63.9-1.62,1.4h-.44c-2.04,0-3.7-2.02-3.7-4.51v-105.56h27.39Z" style="fill:#df432c; stroke-width:0px;"/><circle cx="721.95" cy="342.7" r="10.28" style="fill:#fde270; stroke-width:0px;"/><circle cx="721.95" cy="342.7" r="2.21" style="fill:#df432c; stroke-width:0px;"/></g></svg>