<?xml version="1.0" encoding="UTF-8"?><svg id="_Слой_2" xmlns="http://www.w3.org/2000/svg" width="159.66" height="183.94" xmlns:xlink="http://www.w3.org/1999/xlink" viewBox="0 0 159.66 183.94"><defs><clipPath id="clippath"><rect x="50.38" y="45.09" width="56.97" height="83.46" rx="1.19" ry="1.19" transform="translate(157.73 173.64) rotate(180)" style="fill:none; stroke-width:0px;"/></clipPath></defs><g id="_Слой_1-2"><path d="m159.66,40.76v92.52c0,4.83-3.94,8.74-8.78,8.69l-29.78-.31V40.32l30.83-5.94c4.01-.77,7.73,2.3,7.73,6.38Z" style="fill:#df432c; stroke-width:0px;"/><path d="m156.16,49.35v75.75c0,3.96-3.23,7.15-7.19,7.11l-18.6-.19c-3.2-.03-5.79-2.64-5.79-5.85V55.26c0-3.64,2.59-6.78,6.16-7.46l19.08-3.68c3.28-.63,6.33,1.88,6.33,5.22Z" style="fill:#f4b74f; stroke-width:0px;"/><path d="m146.51,132.23c-5.51-5.03-8.41-15.91-5.82-21.9,6.49,4.65,9.2,14.83,5.82,21.9Z" style="fill:#4a8625; stroke-width:0px;"/><path d="m147.18,48.05c1.52,8.34.75,14.77-4.06,20.32-.47.55-1.4,1.05-2.07,1-1.05-.08-.92-1.2-.92-1.98-.01-6.79,1.79-12.93,7.05-19.34Z" style="fill:#4a8625; stroke-width:0px;"/><path d="m130.48,129.77c-1.31-6.9.21-12.22,3.98-16.94.79-.99,1.76-2.39,3.2-1.68,1.15.57.72,2.1.53,3.16-1.01,5.57-3.01,10.69-7.7,15.45Z" style="fill:#4a8625; stroke-width:0px;"/><path d="m131.29,51.66c5.36,4.07,6.47,9.41,7.59,14.73.17.78.19,1.77-.81,2.09-1.13.36-1.89-.47-2.53-1.19-3.82-4.23-4.87-9.27-4.24-15.63Z" style="fill:#4a8625; stroke-width:0px;"/><path d="m145.79,79.85c-2.58-1.49-3.07.61-6.06.61s-3.32-1.84-5.9-.35c-2.58,1.49-1.15,2.7-2.65,5.29-1.49,2.58-3.59,1.95-3.59,4.94,0,2.98,1.62,2.63,3.12,5.21,1.49,2.58.37,3.81,2.96,5.3,2.58,1.49,3.08-.14,6.07-.14s3.34,1.38,5.92-.11c2.58-1.49,1.67-2.42,3.17-5.01s2.91-2.26,2.91-5.25c0-2.98-1.58-2.53-2.6-5.33-1.08-2.95-.75-3.67-3.34-5.16Z" style="fill:#fefefd; stroke-width:0px;"/><circle cx="139.73" cy="89.86" r="1.85" style="fill:#fde46e; stroke-width:0px;"/><path d="m0,40.76v92.52c0,4.83,3.94,8.74,8.78,8.69l29.78-.31V40.32l-30.83-5.94c-4.01-.77-7.73,2.3-7.73,6.38Z" style="fill:#df432c; stroke-width:0px;"/><path d="m3.49,49.35v75.75c0,3.96,3.23,7.15,7.19,7.11l18.6-.19c3.2-.03,5.79-2.64,5.79-5.85V55.26c0-3.64-2.59-6.78-6.16-7.46l-19.08-3.68c-3.28-.63-6.33,1.88-6.33,5.22Z" style="fill:#f4b74f; stroke-width:0px;"/><path d="m13.15,132.23c5.51-5.03,8.41-15.91,5.82-21.9-6.49,4.65-9.2,14.83-5.82,21.9Z" style="fill:#4a8625; stroke-width:0px;"/><path d="m12.48,48.05c-1.52,8.34-.75,14.77,4.06,20.32.47.55,1.4,1.05,2.07,1,1.05-.08.92-1.2.92-1.98.01-6.79-1.79-12.93-7.05-19.34Z" style="fill:#4a8625; stroke-width:0px;"/><path d="m29.18,129.77c1.31-6.9-.21-12.22-3.98-16.94-.79-.99-1.76-2.39-3.2-1.68-1.15.57-.72,2.1-.53,3.16,1.01,5.57,3.01,10.69,7.7,15.45Z" style="fill:#4a8625; stroke-width:0px;"/><path d="m28.36,51.66c-5.36,4.07-6.47,9.41-7.59,14.73-.17.78-.19,1.77.81,2.09,1.13.36,1.89-.47,2.53-1.19,3.82-4.23,4.87-9.27,4.24-15.63Z" style="fill:#4a8625; stroke-width:0px;"/><path d="m14.04,80.15c2.58-1.49,2.9-.61,5.88-.61s3.45-1.14,6.04.35c2.58,1.49,1.83,2.47,3.32,5.05,1.49,2.58,2.38,2.42,2.38,5.4,0,2.98-1.36,2.54-2.85,5.13-1.49,2.58-.43,3.55-3.01,5.04-2.58,1.49-2.89.14-5.87.14-2.98,0-3.43,1.6-6.02.11s-1.31-2.75-2.8-5.33c-1.49-2.58-3.06-2.11-3.06-5.09s2.25-2.23,3.36-5c1.13-2.82.05-3.7,2.64-5.19Z" style="fill:#fefefd; stroke-width:0px;"/><circle cx="19.93" cy="89.86" r="1.85" style="fill:#fde46e; stroke-width:0px;"/><path d="m27.98,17.36l9.44,28.22h84.7l8.13-28.22h-16.03C105.22,5.39,93.58-.91,79.48.11c-15.63,1.12-29.86,3.12-33.5,17.26h-18Z" style="fill:#ba661a; stroke-width:0px;"/><path d="m27.98,166.57l9.44-28.22h84.7l8.13,28.22h-16.03c-9.01,11.98-20.64,18.27-34.74,17.26-15.63-1.12-29.86-3.12-33.5-17.26h-18Z" style="fill:#ba661a; stroke-width:0px;"/><rect x="36.82" y="30.49" width="85.99" height="120.99" style="fill:#ba661a; stroke-width:0px;"/><rect x="18.43" y="99.06" width="50.23" height="8.74" rx="2.33" ry="2.33" transform="translate(146.98 59.89) rotate(90)" style="fill:#fbb74c; stroke-width:0px;"/><rect x="89.28" y="99.06" width="50.23" height="8.74" rx="2.33" ry="2.33" transform="translate(217.82 -10.96) rotate(90)" style="fill:#fbb74c; stroke-width:0px;"/><rect x="38.83" y="34.2" width="81.07" height="7.38" rx="2.72" ry="2.72" transform="translate(158.73 75.78) rotate(180)" style="fill:#fbb74c; stroke-width:0px;"/><rect x="50.38" y="45.09" width="56.97" height="83.46" rx="1.19" ry="1.19" transform="translate(157.73 173.64) rotate(180)" style="fill:#442c16; stroke-width:0px;"/><rect x="28.91" y="55.51" width="29.26" height="8.74" rx="1.78" ry="1.78" transform="translate(103.42 16.33) rotate(90)" style="fill:#fbb74c; stroke-width:0px;"/><rect x="99.76" y="55.51" width="29.26" height="8.74" rx="1.78" ry="1.78" transform="translate(174.27 -54.51) rotate(90)" style="fill:#fbb74c; stroke-width:0px;"/><path d="m37.84,27.12c.08.91.85,1.61,1.76,1.61h77.85c.77,0,1.45-.49,1.68-1.22l.35-1.08c.37-1.14-.48-2.32-1.68-2.32h-11.22c-.71,0-1.34-.43-1.63-1.08-4.72-10.54-15.29-17.26-26.63-16.89-10.43.34-19.87,6.62-24.45,16.15-.3.62-.91,1.03-1.6,1.03h-10.97c-2.04,0-3.65,1.75-3.47,3.79h0Z" style="fill:#f8d77e; stroke-width:0px;"/><path d="m64.33,22.26c-2.57-3.63,1.93-7.63,3.17-8.37,11.52-6.88,22.5-1.16,26.54,2.8.66.65,2.32,2.27,2.01,4.01-.23,1.28-1.37,2.22-1.91,2.35-3.81.96-24.14,2.52-29.81-.79Z" style="fill:#ba661a; stroke-width:0px;"/><path d="m66.73,21.52c-2.17-3.07,1.63-6.44,2.68-7.07,9.73-5.81,19.01-.98,22.42,2.37.56.55,1.96,1.92,1.69,3.38-.2,1.08-1.16,1.87-1.61,1.99-3.22.81-20.39,2.13-25.18-.67Z" style="fill:#df432c; stroke-width:0px;"/><path d="m37.84,155.32c.08-.91.85-1.61,1.76-1.61h77.85c.77,0,1.45.49,1.68,1.22l.35,1.08c.37,1.14-.48,2.32-1.68,2.32h-11.22c-.71,0-1.34.43-1.63,1.08-4.72,10.54-15.29,17.26-26.63,16.89-10.43-.34-19.87-6.62-24.45-16.15-.3-.62-.91-1.03-1.6-1.03h-10.97c-2.04,0-3.65-1.75-3.47-3.79h0Z" style="fill:#f8d77e; stroke-width:0px;"/><path d="m64.33,160.18c-2.57,3.63,1.93,7.63,3.17,8.37,11.52,6.88,22.5,1.16,26.54-2.8.66-.65,2.32-2.27,2.01-4.01-.23-1.28-1.37-2.22-1.91-2.35-3.81-.96-24.14-2.52-29.81.79Z" style="fill:#ba661a; stroke-width:0px;"/><path d="m66.73,160.92c-2.17,3.07,1.63,6.44,2.68,7.07,9.73,5.81,19.01.98,22.42-2.37.56-.55,1.96-1.92,1.69-3.38-.2-1.08-1.16-1.87-1.61-1.99-3.22-.81-20.39-2.13-25.18.67Z" style="fill:#df432c; stroke-width:0px;"/><rect x="38.16" y="129.62" width="81.07" height="17.91" rx="4.24" ry="4.24" transform="translate(157.4 277.15) rotate(180)" style="fill:#fbb74c; stroke-width:0px;"/><g style="clip-path:url(#clippath);"><path d="m74.31,164.76s.01.05.02.07h-1.28s0-.05,0-.07c.42,0,.84,0,1.25,0Z" style="fill:#a1a2a2; stroke-width:0px;"/><path d="m74.31,164.76c-.42,0-.84,0-1.25,0-.51-.11-1.03-.19-1.52-.35-.83-.27-1.56-.72-2.02-1.43-.5-.02-.95,0-1.4-.06-1.46-.2-2.53-1.2-2.85-2.64-.06-.25-.14-.48-.25-.72-.63-1.31-.74-2.65-.13-4,.37-.82.95-1.45,1.77-1.85,1.01-.49,2.08-.66,3.19-.6.97.05,1.91.27,2.84.56.08.03.16.05.27.09.08-.1.15-.19.23-.29,1.69-2.3,2.99-4.82,4.02-7.48.8-2.06,1.42-4.16,1.82-6.33.04-.23.06-.46.09-.69.02-.12.04-.24.06-.37.13-.95.19-1.91-.01-2.86-.17-.79-.38-1.57-.61-2.34-.43-1.39-.92-2.76-1.27-4.18-.56-2.27-.57-4.54-.02-6.82.12-.5.27-1,.41-1.51.16-.27.32-.54.49-.81.22-.17.35-.44.67-.54-.03.06-.04.09-.05.12-.53.77-.89,1.61-1.15,2.51-.3,1.07-.45,2.16-.49,3.26-.01.45.02.91.05,1.37.03.44.07.89.15,1.33.23,1.23.59,2.43.97,3.63.26.83.54,1.66.8,2.49.22.7.39,1.42.43,2.15.03.6,0,1.21-.05,1.81-.06,1.01-.28,1.99-.5,2.97-.33,1.45-.77,2.87-1.29,4.27-.6,1.63-1.3,3.21-2.12,4.74-.66,1.23-1.4,2.4-2.23,3.52-.04.05-.06.11-.09.17,1.27.64,2.35,1.5,3.22,2.62.46.59.84,1.23,1.04,1.96.07.25.13.5.1.83-.05-.11-.08-.15-.1-.2-.11-.29-.21-.58-.34-.86-.57-1.19-1.35-2.21-2.38-3.03-.55-.44-1.13-.83-1.79-1.09-.93-.37-1.9-.6-2.9-.69-1-.09-2,0-2.95.38-.89.35-1.56.93-1.98,1.8-.39.81-.53,1.65-.36,2.54.06.31.16.61.25.91.07-.12.1-.23.12-.35.08-.69.39-1.28.83-1.8.63-.73,1.44-1.18,2.37-1.42.58-.15,1.16-.15,1.71.13.06.03.1.07.2.14-.32-.04-.58-.11-.84-.1-1.01.01-1.92.34-2.71.97-.49.39-.87.87-1.09,1.47-.33.91-.3,1.82.07,2.71.32.77.86,1.32,1.64,1.64.57.24,1.15.26,1.75.24.07,0,.14-.03.18-.03-.03-.45-.09-.87-.08-1.29.01-1.3.54-2.36,1.58-3.16.53-.41,1.14-.62,1.82-.57.31.02.62.08.89.28-.29-.01-.58-.03-.86-.03-.75-.01-1.4.28-1.93.79-.93.88-1.31,1.97-1.19,3.25.07.77.43,1.34,1.07,1.74,1.24.77,2.59.98,4.01.78,1.28-.17,2.39-.75,3.34-1.6.63-.56,1.2-1.18,1.71-1.84.95-1.23,1.81-2.52,2.58-3.87.86-1.51,1.71-3.01,2.52-4.55.85-1.62,1.81-3.18,2.77-4.73,1.02-1.64,2.07-3.26,3.1-4.91.74-1.19,1.45-2.41,2.04-3.68.48-1.02.74-2.11.74-3.23,0-.79-.06-1.59-.13-2.38-.08-.9-.22-1.79-.29-2.68-.08-.98.02-1.95.33-2.89.41-1.23.99-2.37,1.63-3.49.43-.76.86-1.52,1.28-2.28.03-.05.06-.09.09-.14.02.1.01.18,0,.26-.14.63-.46,1.18-.78,1.74-.67,1.15-1.29,2.32-1.78,3.56-.46,1.17-.54,2.38-.45,3.6.05.74.16,1.47.25,2.21.03.27.06.55.08.82.03.47.08.93.08,1.4,0,.45-.06.91-.11,1.36-.06.54-.19,1.07-.38,1.57-.46,1.23-1.12,2.36-1.79,3.48-.65,1.1-1.34,2.17-2.01,3.25-.14.22-.14.26.05.43.48.44.94.89,1.45,1.3,1.19.95,2.43,1.81,3.77,2.55,1.33.73,2.7,1.35,4.16,1.75.24.06.48.1.73.16-.1-.24-.24-.43-.37-.62-1.1-1.57-1.82-3.31-2.28-5.16-.22-.88-.39-1.76-.45-2.66-.06-.82-.14-1.65-.17-2.47-.02-.57.04-1.15.04-1.72,0-.8.1-1.59.19-2.38.12-1.06.32-2.09.58-3.12.29-1.17.66-2.31,1.14-3.41.4-.93.86-1.83,1.39-2.69.57-.92,1.22-1.76,1.95-2.55.39-.42.83-.79,1.27-1.16.99-.8,2.1-1.4,3.34-1.74.83-.23,1.68-.28,2.53-.2,1.18.12,2.26.56,3.27,1.18,1.3.81,2.36,1.87,3.34,3.03.64.77,1.2,1.6,1.71,2.45.51.85.94,1.74,1.17,2.71.02.09.04.19.05.28.01.09.03.18.04.27-.06-.02-.08-.05-.09-.08-.34-1.05-.83-2.02-1.39-2.97-.95-1.58-2.04-3.05-3.44-4.28-.78-.68-1.61-1.29-2.56-1.71-1.06-.47-2.16-.73-3.34-.61-.61.06-1.2.18-1.77.38-1.27.44-2.36,1.17-3.33,2.07-.9.83-1.66,1.79-2.33,2.82-.87,1.34-1.54,2.76-2.06,4.27-.51,1.47-.86,2.97-1.1,4.51-.15.98-.25,1.96-.28,2.94-.03.96,0,1.93.05,2.9.03.67.11,1.33.19,1.99.14,1.09.39,2.15.74,3.19.28.86.64,1.68,1.07,2.48.54,1.01,1.22,1.92,2,2.75.34.36.73.68,1.12,1,.57.45,1.17.85,1.86,1.09,1.49.53,3.02.95,4.58,1.22.82.15,1.66.24,2.5.26.33,0,.66-.04.98-.05.57-.02,1.11-.14,1.64-.35.06-.02.13-.02.19-.03-.51.46-1.14.65-1.78.68-.77.03-1.55,0-2.32-.05-.95-.06-1.89-.25-2.81-.49-1-.27-1.99-.59-2.99-.88-.17-.05-.36-.1-.53-.08-.54.06-1.07.14-1.6.24-.63.12-1.22.36-1.75.73-.73.51-1.17,1.22-1.4,2.07-.24.9-.17,1.77.31,2.58.46.78,1.13,1.32,1.94,1.69.27.12.54.23.87.23-.02-.09-.02-.16-.04-.23-.24-.8-.32-1.63-.2-2.45.22-1.52,1-2.68,2.45-3.28.92-.38,1.87-.44,2.83-.13.1.03.19.08.28.12-.32.02-.62-.04-.92-.04-.36,0-.72.02-1.08.06-.45.06-.9.17-1.3.39-1.31.74-1.94,1.9-2.02,3.36-.05.79.13,1.56.37,2.31.11.35.33.64.62.87.53.44,1.14.7,1.82.77.46.05.9-.07,1.36-.22-.05-.13-.1-.22-.14-.31-.21-.48-.36-.98-.39-1.5-.05-.7.04-1.38.28-2.04.52-1.41,1.5-2.26,3-2.48.32-.05.63.02.92.15-.45,0-.88.08-1.31.21-.97.29-1.71.87-2.14,1.78-.54,1.13-.61,2.31-.18,3.5.23.64.63,1.08,1.32,1.19.47.07.94.16,1.42.17.71.02,1.42-.07,2.12-.17,1.23-.18,2.44-.47,3.6-.91.42-.16.83-.35,1.21-.57.61-.35,1.07-.88,1.47-1.44.4-.56.77-1.15,1.14-1.73.95-1.46,2.09-2.76,3.26-4.03.72-.77,1.44-1.54,2.13-2.33.67-.76,1.13-1.63,1.26-2.67.11-.9.01-1.76-.36-2.58-.13-.28-.3-.55-.59-.72-.03.04-.05.07-.06.1-.4,1.01-.92,1.96-1.51,2.88-.5.78-1.02,1.55-1.7,2.18-.29.27-.59.54-.98.67.05-.08.11-.15.17-.21.29-.3.6-.58.87-.89.59-.7,1.12-1.44,1.6-2.22.86-1.41,1.54-2.89,1.92-4.49.28-1.14.5-2.3.64-3.47.11-.9.19-1.79.18-2.7,0-1.1.03-2.21-.13-3.31-.08-.56-.14-1.11-.23-1.67-.17-1.02-.44-2.01-.74-2.99-.12-.4-.27-.8-.41-1.2l-.09-.13h0c-.02-.06-.04-.13-.07-.19h0c-.02-.09-.04-.18-.07-.27-.38-.97-.83-1.91-1.34-2.82-1.21-2.17-2.67-4.14-4.53-5.81-.85-.76-1.77-1.43-2.79-1.95-1.31-.67-2.7-1.14-4.1-1.59-1.59-.51-3.18-1.02-4.71-1.7-2.17-.96-4.02-2.34-5.53-4.17-1.46-1.76-2.61-3.7-3.47-5.81-.27-.66-.52-1.33-.64-2.03.02-.13.03-.26.2-.27.94,3.63,2.8,6.74,5.47,9.36,1.36,1.34,3.01,2.25,4.76,2.97,1.38.57,2.8.99,4.21,1.47.88.29,1.75.6,2.61.93,1.93.74,3.58,1.92,5,3.4,2.58,2.68,4.43,5.8,5.6,9.33.17.52.32,1.06.48,1.59.02.07.05.13.09.25.09-.13.16-.22.22-.31.46-.7.66-1.49.75-2.31.12-1.15.08-2.3-.04-3.44-.16-1.48-.35-2.96-.51-4.44-.19-1.76-.2-3.52.03-5.29.21-1.64.5-3.26,1.04-4.82,1.43-4.08,3.73-7.56,7.11-10.28,1.7-1.37,3.6-2.37,5.67-3.05.05-.02.1-.02.23-.05-.23.19-.4.34-.58.49-.5.43-.98.89-1.39,1.41-.41.52-.73,1.09-.97,1.71-.02.05-.03.1-.05.17,4.1-2.69,8.48-3.52,13.22-2.2-2.57,1.32-4.64,3.18-6.23,5.58-.62.94-1.13,1.94-1.52,3.02.36-.13,1.32-1.15,2.07-2.18.59-.81,1.1-1.66,1.52-2.58.05.42.03.83,0,1.25-.23,2.53-.95,4.94-1.85,7.3-.03.08-.06.16-.09.24,0,.02,0,.04.02.07.78-.81,1.57-1.59,2.64-2.14-.07.13-.11.22-.15.29-.9,1.6-1.44,3.33-1.76,5.13-.24,1.41-.33,2.84-.23,4.26.06,1.02.19,2.03.34,3.04.28,1.9.56,3.79.57,5.71.01,2.58-.39,5.11-1.09,7.58-.41,1.44-.83,2.88-1.5,4.23-1.62,3.26-4.08,5.63-7.51,6.91-1.45.54-2.96.77-4.51.66-2.07-.15-3.9-.9-5.46-2.27-.06-.06-.13-.11-.19-.17,0,0-.02,0-.06-.02-.1.3-.2.61-.3.91.01.03.01.06.03.07.71.62,1,1.44,1.1,2.34.16,1.42-.19,2.71-1.09,3.82-.5.62-1.03,1.22-1.58,1.8-1.02,1.1-2.08,2.16-2.98,3.37-.55.73-1.04,1.5-1.56,2.26-.26.39-.52.78-.8,1.15-.64.85-1.46,1.47-2.47,1.84-1.52.56-3.07.92-4.68,1.08-.79.08-1.57.1-2.36,0-.55-.08-1.08-.23-1.51-.62-.25.06-.49.15-.74.19-1.18.2-2.21-.11-3.06-.97-.15-.15-.27-.33-.38-.51-.07-.12-.15-.18-.29-.2-1.59-.21-3.13-1.64-3.42-3.21-.18-.97.04-1.88.52-2.73.05-.08.09-.17.14-.25,0,0,0-.02,0-.06-.44.12-.88.25-1.32.34-1,.22-1.99.47-2.99.63-1.22.19-2.46.23-3.68-.03-.72-.15-1.39-.41-1.92-.95-.04-.05-.1-.09-.13-.14-.19-.36-.52-.52-.87-.69-1.12-.54-1.66-1.64-1.46-2.85.01-.09.02-.19,0-.28-.16-.48-.19-.96-.09-1.45.01-.05,0-.1-.03-.18-.06.1-.12.19-.17.29-.7,1.28-1.39,2.56-2.08,3.84-.97,1.78-1.98,3.55-3.15,5.22-.63.9-1.31,1.76-2.08,2.54-1.21,1.23-2.63,2.04-4.37,2.23Zm20.19-12.31c-.06-.03-.13-.06-.19-.1-.19-.12-.37-.26-.57-.35-.54-.25-1.1-.34-1.7-.27-.64.08-1.25.25-1.81.56-.28.15-.54.35-.76.57-.53.56-.85,1.24-.96,2.01-.05.34.02.65.23.93.31.41.72.68,1.2.87.68.26,1.39.38,2.12.38.52,0,1.04-.02,1.56-.06.46-.04.93-.08,1.38-.18,1.27-.29,2.54-.61,3.8-.92.1-.02.21-.06.28-.13.72-.66,1.58-1.02,2.53-1.21.37-.08.75-.13,1.15-.2-.28-.19-.54-.35-.79-.53-.68-.46-1.26-1.04-1.83-1.64-.15-.16-.31-.26-.53-.25-.05,0-.11,0-.16-.02-1.26-.26-2.45-.7-3.6-1.25-1.14-.55-2.23-1.19-3.28-1.9-.12-.08-.25-.18-.39-.2-.58-.08-1.16-.15-1.74-.2-.5-.04-1,.02-1.49.12-1.3.27-2.14,1.04-2.48,2.32-.09.33-.15.68.01,1.04.03-.04.06-.06.08-.1.37-.67.93-1.15,1.6-1.5.66-.34,1.36-.53,2.09-.62.53-.06,1.04-.07,1.54.08.28.08.54.21.73.44-.79-.28-1.59-.32-2.42-.2-.96.13-1.84.46-2.58,1.07-.59.48-.98,1.1-1.02,1.88-.06,1.09.55,1.96,1.6,2.35.02,0,.06-.01.1-.02,0-.06.01-.13.02-.19.05-1.19.6-2.1,1.53-2.81.44-.34.96-.5,1.48-.66.54-.17,1.09-.18,1.64-.13.43.03.83.18,1.18.45.19.15.39.3.44.56,0,0,0,0,0,0Zm50.25-40.89c-.12.08-.26.14-.37.24-.41.4-.81.81-1.22,1.21-.59.59-1.01,1.28-1.26,2.08-.43,1.32-.7,2.67-.78,4.05,0,.07-.02.13-.04.19-.02,0-.04,0-.06,0-.03-.21-.07-.43-.08-.64,0-.84.12-1.67.32-2.49.22-.88.48-1.74.95-2.52.09-.15.16-.3.23-.46.47-1.12.88-2.26,1.23-3.42.39-1.29.7-2.6.89-3.94.03-.23.05-.45.07-.68-1.03,1.68-2.26,3.15-3.85,4.31,1.25-4.13,3.83-7.21,7.56-9.39-1-.23-1.96-.4-2.94-.41-.63,0-1.25.01-1.88.06-.54.04-1.08.11-1.61.22-.94.18-1.85.47-2.74.82-1.16.46-2.25,1.05-3.26,1.79-.12.09-.24.23-.28.37-.13.46-.23.92-.35,1.39-.02.09-.03.19-.06.28-.02.08-.05.15-.08.23-.03-2.19.75-4.04,2.29-5.58-.06,0-.1,0-.13.02-.62.31-1.25.59-1.85.92-1.41.77-2.66,1.75-3.82,2.85-.28.27-.54.57-.81.86-.62.64-1.17,1.34-1.69,2.07-.84,1.19-1.58,2.44-2.18,3.78-.48,1.07-.88,2.16-1.18,3.3-.34,1.27-.56,2.57-.71,3.87-.1.9-.13,1.79-.13,2.7,0,.95.07,1.89.2,2.82.1.77.19,1.54.27,2.3.09.78.2,1.56.23,2.34.04.97.09,1.94-.06,2.9-.07.47-.19.93-.33,1.39-.14.45-.37.86-.67,1.22-.1.12-.11.25-.09.41.15.8.29,1.61.4,2.41.09.71.16,1.43.18,2.15.03,1.14.03,2.27-.11,3.41-.08.62-.11,1.25-.22,1.86-.15.85-.33,1.68-.52,2.52-.03.15-.01.25.09.34.35.29.69.6,1.06.87,1.52,1.07,3.23,1.53,5.06,1.56.59.01,1.18-.08,1.77-.17,1.69-.24,3.23-.89,4.64-1.83.96-.64,1.82-1.38,2.58-2.26.79-.91,1.47-1.89,2.01-2.97.78-1.54,1.26-3.18,1.71-4.83.36-1.33.65-2.68.78-4.05.07-.73.15-1.46.17-2.19.02-.73-.03-1.47-.05-2.2-.02-.83-.13-1.65-.25-2.47-.17-1.14-.33-2.29-.46-3.43-.09-.79-.14-1.58-.18-2.38-.02-.35.02-.7.05-1.05.04-.53.07-1.06.13-1.58.12-1.17.37-2.3.75-3.41.2-.59.44-1.17.66-1.76.01-.03.03-.05.04-.08,0,0-.01-.01-.02-.02-.02.03-.03.05-.05.08Zm-57.61,37.45s.04.03.06.04c.52-.47,1.13-.75,1.82-.87.71-.12,1.42-.1,2.13-.04.17.02.35.03.58.05-.91-.77-1.77-1.5-2.65-2.24-.64,1.02-1.29,2.03-1.93,3.05Z" style="fill:#484747; stroke-width:0px;"/><path d="m59.06,102.63c-.06,1.82.8,3.05,2.45,3.82-.11.02-.18.04-.26.05-1.32.11-2.53-.23-3.67-.87-1.49-.84-2.57-2.04-3.09-3.71-.2-.65-.26-1.31-.24-1.99,0-.11,0-.23,0-.38-1.45,1.13-3.11,1.44-4.92,1.35,1.36-1.45,2.36-3.07,3.06-4.89-.17-.08-.27.02-.38.08-.96.48-1.68,1.21-2.23,2.13-.08.13-.15.25-.25.43-.09-.51-.08-.96-.04-1.41.19-2.07.84-3.99,1.99-5.72.02-.03.03-.06.05-.1-1.01-.88-1.86-1.92-2.59-3.05-.73-1.12-1.32-2.29-1.55-3.64.94.91,2.03,1.54,3.28,1.9.44.12.88.23,1.4.25-.09-.06-.12-.1-.16-.12-1.98-.83-3.62-2.13-5.07-3.69-1.7-1.82-3.04-3.88-4.18-6.08-1.59-3.09-2.71-6.35-3.48-9.73-.48-2.1-.82-4.22-1-6.36-.09-1.06-.13-2.12-.17-3.19-.05-1.31.01-2.62.15-3.92.15-1.4.39-2.78.89-4.1.21-.56.47-1.09.86-1.56.21-.26.46-.48.76-.62.42-.19.86-.19,1.26.03.33.18.67.39.94.65.61.58,1.2,1.17,1.77,1.79,3.02,3.27,6.68,5.49,10.95,6.73,1.51.44,3.02.87,4.52,1.35,1.93.62,3.76,1.48,5.44,2.61.8.54,1.58,1.12,2.19,1.89.01.02.04.02.08.04.22-.08.46-.17.69-.26,1.43-.54,2.92-.9,4.4-1.29,3.55-.92,6.48-2.84,8.77-5.7.06-.07.12-.15.21-.26.05,1.05-.02,2.04-.21,3.03-.18.97-.48,1.91-.91,2.82.18.1.27.07.37-.1.64-1.13,1.54-2,2.62-2.7.98-.63,2.01-1.16,3.06-1.64,2.71-1.23,5.25-2.75,7.58-4.62,1.06-.85,2.06-1.75,2.99-2.73.19-.21.31-.43.39-.71.37-1.3,1.18-2.23,2.46-2.69,1.28-.46,2.51-.01,3.25,1.13.36.56.58,1.18.74,1.83.21.84.31,1.69.37,2.55.12,1.81.05,3.62-.09,5.42-.16,2.16-.41,4.32-.73,6.47-.39,2.64-.87,5.27-1.72,7.81-.26.76-.56,1.51-.86,2.29.5-.2,1.01-.36,1.6-.41-.06.06-.09.1-.12.13-.85.57-1.48,1.34-2,2.2-1.01,1.68-1.6,3.51-1.86,5.46.07.42.1.85.22,1.25.22.76.61,1.45,1.03,2.11.35.55.71,1.09,1.06,1.63.06.09.1.19.15.28-.05,0-.12.03-.16,0-.12-.08-.22-.18-.34-.27-.45-.71-.9-1.41-1.34-2.13-.59-.96-.9-2.01-.97-3.13-.04-.74-.09-1.48-.12-2.22-.04-.94-.19-1.85-.44-2.76-.41-1.46-1.07-2.8-1.9-4.05-.58-.87-1.26-1.66-2.03-2.37-.07-.07-.14-.15-.21-.22.09-.01.16,0,.21.04.53.37,1.01.8,1.44,1.29.74.84,1.31,1.78,1.81,2.76.42.82.77,1.68,1,2.58.01.05.05.1.09.16.63-.85,1.37-1.53,2.25-2.04.1-.06.19-.17.24-.28.27-.62.55-1.25.78-1.88.5-1.4.9-2.83,1.18-4.29.2-1.01.39-2.02.56-3.03.13-.76.23-1.53.33-2.3.1-.76.21-1.51.3-2.27.1-.87.18-1.75.25-2.63.06-.75.12-1.5.13-2.26,0-1.09-.03-2.19-.05-3.28-.01-.73-.11-1.46-.27-2.17-.17-.8-.41-1.58-.89-2.27-.6-.87-1.64-1.22-2.66-.93-.71.2-1.28.62-1.74,1.18-.27.33-.51.68-.59,1.11,0,.01-.02.02-.02.04.01,0,.02-.02.03-.02.06-.03.12-.05.17-.08.42-.32.89-.53,1.42-.59.32-.03.66.11.8.37,0,0-.02.02-.03.01-.07-.01-.15-.02-.22-.04-.48-.13-.93-.02-1.35.21-.27.15-.52.33-.75.54-.28.26-.52.56-.79.83-.47.46-.94.93-1.43,1.37-.58.52-1.16,1.03-1.78,1.49-.91.68-1.85,1.32-2.79,1.95-1.3.87-2.71,1.56-4.11,2.25-.91.44-1.82.88-2.7,1.36-1.15.63-2.17,1.42-2.91,2.52-.12.18-.27.35-.31.56.04.03.05.04.07.05,1.07.22,2.12.54,3.14.93,1.01.38,1.98.82,2.86,1.45.26.19.55.35.72.65h0s-.09-.02-.12-.04c-.85-.54-1.74-.98-2.66-1.38-1.41-.62-2.86-1.07-4.36-1.38-.14-.03-.29-.05-.36-.06-.48.66-.93,1.27-1.39,1.88.3.04.61.05.91.11,1.28.24,2.46.72,3.48,1.56.66.55,1.22,1.19,1.58,1.97.02.05.02.11.04.19-2.79-.87-5.13-.19-7.05,1.97.04-.33.24-.55.43-.77.75-.85,1.7-1.37,2.78-1.66.77-.21,1.56-.29,2.36-.16.29.05.58.08.89.12-.06-.27-.24-.45-.39-.63-.79-.94-1.8-1.57-2.96-1.99-.67-.24-1.37-.35-2.08-.43-.25-.03-.46.03-.68.19-.58.45-1.23.8-1.9,1.09-.23.1-.47.16-.71.24.41-.29.86-.53,1.27-.8.62-.42,1.25-.81,1.8-1.31.85-.77,1.37-1.78,1.78-2.84.46-1.2.67-2.45.76-3.73,0-.1,0-.2-.01-.29-.02,0-.05-.02-.07-.03-.06.07-.12.15-.18.22-.63.77-1.37,1.43-2.14,2.04-1.09.87-2.28,1.59-3.55,2.17-.7.32-1.41.6-2.15.8-.64.16-1.28.29-1.91.47-.92.26-1.83.56-2.74.85-.3.1-.59.22-.89.34.09.23.17.44.25.64-.1-.02-.15-.07-.19-.13-.21-.26-.41-.55-.64-.79-.55-.58-1.17-1.08-1.82-1.54-1.62-1.13-3.38-1.97-5.24-2.59-1.58-.52-3.19-.98-4.78-1.45-1.99-.59-3.91-1.36-5.71-2.41-1.55-.91-2.96-1.99-4.25-3.24-.93-.9-1.82-1.85-2.73-2.78-.32-.33-.68-.61-1.11-.78-.33-.13-.66-.14-.99.01-.4.19-.67.52-.9.88-.43.67-.68,1.42-.89,2.18-.26.94-.44,1.9-.52,2.88-.07.82-.15,1.65-.18,2.47-.04,1.25-.01,2.51.11,3.76.04.43.04.87.08,1.3.07.62.15,1.24.24,1.86.13.86.25,1.72.41,2.57.27,1.36.59,2.71.97,4.05.72,2.5,1.64,4.91,2.85,7.22.6,1.14,1.26,2.24,1.98,3.3.67.98,1.42,1.91,2.24,2.77.63.66,1.31,1.28,2.04,1.83.71.54,1.47,1.01,2.28,1.4.56.26,1.13.5,1.73.66.16.04.21.12.15.29-.55.08-1.1.03-1.64-.05-1.4-.21-2.68-.7-3.83-1.6.3,1.56,2.61,4.82,3.82,5.57.3-.28.57-.6.96-.78-.02.07-.05.12-.09.17-.1.14-.2.28-.3.41-.82.97-1.4,2.07-1.83,3.26-.27.74-.47,1.5-.6,2.27-.06.37-.14.74-.08,1.14.3-.32.56-.63.86-.91.45-.43.95-.79,1.55-.98.23-.07.33-.21.38-.42.07-.32.15-.64.23-.96.06.12.1.25.09.37-.04.38-.07.76-.17,1.13-.42,1.47-1.21,2.76-2.09,3.99-.19.27-.41.53-.67.85.31-.03.54-.05.78-.08.25-.03.51-.05.76-.1.24-.05.47-.11.71-.19.23-.07.47-.15.69-.25.22-.1.44-.22.64-.35.21-.14.41-.3.61-.45.18-.14.28-.38.52-.52-.42,2.26.11,3.76,1.11,5.07.97,1.26,3.65,2.67,4.56,2.35-.16-.15-.33-.27-.47-.43-.55-.59-.91-1.28-1.07-2.07-.11-.53-.12-1.07.11-1.59.14.17.12.37.12.57Zm42.61-29.18c-.09,0-.14,0-.17.01-1.22.55-2.23,1.34-2.96,2.48-.08.13-.07.25-.05.39.08.65.16,1.3.23,1.95.03.3.05.6.07.91.54-2.11,1.36-4.08,2.88-5.74Z" style="fill:#494848; stroke-width:0px;"/><path d="m59.06,102.63c0-.2.02-.4-.12-.57,0-.12-.02-.23-.02-.35-.01-.5-.08-1-.02-1.49.1-.89.38-1.73.83-2.51.36-.62.78-1.18,1.27-1.7.32-.34.69-.63,1.04-.93.82-.68,1.75-1.19,2.76-1.55.93-.32,1.89-.46,2.87-.43.13,0,.26-.04.39-.06.11.13.21.25.32.38-1.32-.09-2.62.02-3.85.53-1.53.63-2.83,1.6-3.86,2.9-1.09,1.37-1.66,2.9-1.49,4.68.08.78.32,1.49.79,2.12.55.74,1.28,1.27,2.07,1.72.95.55,1.97.94,3,1.34,1.26.49,2.55.89,3.75,1.67-.34-1.26-1.13-2.13-2.08-2.88.41.11.75.31,1.05.59.11.1.22.15.37.14.64-.04,1.27-.07,1.91-.1,1.64-.07,3.28-.05,4.91.06.37.02.74.05,1.11.08-.03-.04-.07-.05-.11-.06-.74-.19-1.49-.37-2.22-.57-.4-.11-.78-.26-1.17-.42-.19-.08-.36-.2-.53-.42.1.02.14.03.18.04.72.23,1.43.49,2.16.67,2.56.62,5.09,1.36,7.59,2.22,1.35.46,2.71.87,4.12,1.11,0,.09,0,.19.01.28-.51-.11-1.02-.2-1.53-.33-1.46-.35-2.87-.87-4.29-1.33-.75-.24-1.5-.5-2.27-.65-1.42-.27-2.87-.36-4.32-.41-1.69-.05-3.38-.03-5.07.07-.13,0-.26.03-.43.05.56.78.97,1.57.94,2.52-.46-.45-1-.77-1.57-1.02-.57-.25-1.15-.48-1.73-.72-.42.35-.81.67-1.2,1-1.23,1.04-2.12,2.32-2.56,3.88-.21.75-.42,1.5-.63,2.24-.18.63-.39,1.24-.75,1.79-.13.2-.29.38-.45.59.04.01.07.03.09.03.08,0,.17,0,.25-.02.73-.12,1.37-.44,1.92-.94.15-.13.24-.29.31-.47.24-.64.48-1.27.75-1.9.16-.36.37-.7.66-.97.24-.22.51-.36.86-.35-.02.03-.02.06-.03.07-.51.24-.84.65-1.09,1.12-.75,1.4-1.23,2.87-1.25,4.47,0,.81.02,1.62.13,2.42.2,1.51.61,2.95,1.35,4.29.54.97,1.06,1.94,1.57,2.92.35.68.64,1.39.76,2.16.01.09.03.18.05.33.11-.14.19-.23.25-.32.45-.62.72-1.33.87-2.07.07-.34.14-.68.12-1.04-.04-.54-.06-1.08-.04-1.63.02-.4.1-.8.19-1.19.05-.22.13-.44.35-.63-.05.19-.08.33-.11.48-.16.83-.19,1.67-.15,2.51.02.57.11,1.12.28,1.66.31.97.75,1.87,1.18,2.79.54,1.15,1.1,2.3,1.6,3.48.37.86.59,1.78.58,2.73,0,.02.03.04.06.08.48-.72.8-1.5,1.02-2.31.22-.81.29-1.65.35-2.49.88,1.16,1.46,2.45,1.93,3.8.46,1.35.79,2.72.86,4.15.66-1.34,1.11-2.74,1.21-4.24.09.12.15.25.21.37.31.66.69,1.27,1.16,1.83.21.25.46.46.69.69-.02.12-.04.24-.06.37-.08-.04-.17-.07-.25-.11,0-.13-.03-.23-.19-.2-.04-.07-.07-.15-.12-.22-.43-.5-.83-1.02-1.14-1.6-.03-.05-.07-.08-.1-.12-.14.53-.25,1.04-.4,1.55-.25.85-.61,1.65-1.02,2.43-.06.12-.1.25-.16.38-.06.02-.12.04-.19.06.02-.27.06-.55.05-.82,0-.35-.03-.7-.06-1.05-.02-.26-.04-.53-.09-.79-.21-1.05-.46-2.09-.85-3.09-.31-.78-.63-1.55-1.06-2.28-.05-.09-.09-.21-.21-.24-.15,1.97-.87,3.68-2.16,5.14,0-.14.02-.27.07-.4.23-.69.19-1.38.05-2.07-.21-1.05-.64-2.02-1.08-2.98-.63-1.37-1.29-2.72-1.93-4.08-.05-.15-.09-.3-.14-.45-.04-.1-.11-.15-.24-.09-.04.15-.09.31-.14.47-.19.39-.36.79-.56,1.17-.23.41-.57.72-.96,1.02.07-.9-.12-1.73-.53-2.51-.11-.21-.21-.43-.32-.64.04-.21-.13-.23-.25-.31.03,0,.06-.01.12-.03-.03-.07-.05-.13-.09-.19-.44-.82-.89-1.65-1.34-2.47-.69-1.26-1.05-2.62-1.26-4.02-.15-1.04-.21-2.09-.13-3.15.03-.36.08-.72.12-1.12-.98.75-2.04,1.08-3.3.87.1-.06.16-.1.22-.13.54-.27.9-.7,1.17-1.23.29-.58.46-1.21.64-1.83.17-.61.34-1.23.52-1.84.43-1.48,1.25-2.71,2.4-3.73.33-.29.66-.57,1-.85.09-.07.17-.15.29-.25-.32-.12-.59-.23-.87-.34-.99-.38-1.97-.79-2.89-1.33-.6-.35-1.15-.76-1.63-1.27-.39-.42-.7-.88-.91-1.41-.03-.07-.09-.14-.13-.2Z" style="fill:#656464; stroke-width:0px;"/><path d="m100.84,85.64c.11.09.22.19.34.27.04.02.1,0,.16,0,.11.13.21.27.32.39.35.38.6.83.76,1.32.28.86.52,1.73.77,2.6.19.65.36,1.31.58,1.96.28.84.64,1.62,1.42,2.24-1.08.09-2.05-.07-3.04-.43.01,1.43-.25,2.77-.81,4.05-.56,1.29-1.37,2.38-2.54,3.29.23-1.26.34-2.45.05-3.72-.23.72-.42,1.37-.65,2.01-.4,1.13-.93,2.19-1.7,3.12-.12.14-.23.28-.35.42-.18.01-.18.15-.2.27-.3.1-.56.25-.6.6-.04.3-.06.61-.08.91-.02.05-.05.09-.07.14-.11.36-.19.74-.32,1.09-.15.4-.33.8-.69,1.08,0-.16,0-.31,0-.47.32-.37.48-.82.61-1.28.32-1.19.39-2.41.25-3.64-.03-.25-.07-.5-.11-.78-.22.17-.4.32-.58.46-.4.3-.87.48-1.34.66-.09.03-.18.05-.27.08-.04,0-.08,0-.13.01-.44.04-.88.12-1.32.12-.67,0-1.32-.16-1.95-.39l-.22.27c-.48.67-1.07,1.23-1.8,1.62-.47.25-.98.43-1.48.65-.08.02-.17.04-.25.06-.23.02-.46.04-.69.07-.22.03-.44.06-.73.1.59.38,1.12.69,1.74.82.03.11.05.21.08.32-.77-.18-1.46-.53-2.08-1-.15-.11-.3-.18-.49-.2-.58-.07-1.15-.22-1.69-.45-1.02-.44-1.79-1.18-2.43-2.06-.44-.6-.85-1.22-1.3-1.82-.84-1.11-1.94-1.83-3.29-2.16-.07-.02-.14-.05-.26-.1.63-.08,1.15.05,1.66.31.92.47,1.66,1.15,2.27,1.97.43.59.85,1.2,1.28,1.79.44.6.95,1.12,1.6,1.5,1.41.82,2.9.99,4.46.57,1.95-.53,3.26-1.76,3.89-3.7.02-.05,0-.1.01-.16.3.02.6.04.91.06-.2.03-.39.05-.6.08-.16.38-.32.76-.48,1.14.04.03.05.04.07.05.04.02.08.04.12.05,1.08.38,2.18.44,3.29.11,1.13-.34,2.04-.99,2.5-2.11.57-1.4.52-2.8-.25-4.14-.18-.31-.38-.61-.68-.82-.02-.15-.04-.29-.07-.44.13.11.27.21.38.33.72.76,1.14,1.66,1.23,2.7.1,1.13-.07,2.21-.74,3.16-.09.13-.11.26-.1.42.07.7.12,1.4.18,2.1,0,.08.02.15.03.28.14-.12.23-.2.33-.28.77-.71,1.31-1.58,1.75-2.53.55-1.19.91-2.45,1.21-3.72.02-.08.05-.15.07-.23.14.27.25.54.32.81.23.91.24,1.83.15,2.76-.01.11-.01.21-.02.32,1.19-1.09,1.9-2.41,2.31-3.92.41-1.5.43-3-.08-4.49.3.37.47.75.57,1.31.03.18.11.29.28.34.41.11.81.24,1.23.33.28.06.57.12.9.06-.74-.95-1.06-2.05-1.36-3.16-.17-.62-.32-1.23-.49-1.85-.19-.68-.39-1.35-.71-1.98-.41-.79-1.06-1.27-1.92-1.44-.81-.16-1.58-.03-2.34.27.02-.13.03-.26.05-.38.26-.05.52-.1.77-.16.49-.1.98-.16,1.47-.04.31.08.61.17.91.26Z" style="fill:#656464; stroke-width:0px;"/><path d="m78.67,138.66c.16-.03.2.07.19.2-.61.8-1.33,1.49-2.16,2.06-.98.66-2.05.83-3.2.58-1.26-.27-2.42-.78-3.55-1.39-1.19-.64-2.33-1.37-3.38-2.22-.03-.03-.07-.05-.14-.1-.16.57-.46,1.01-1.02,1.19-.07.39-.13.77-.22,1.14-.11.47-.31.9-.6,1.3-.25.34-.54.63-.93.81-.17.08-.29.19-.41.34-1.03,1.31-2.38,1.89-4.03,1.74-1.4-.13-2.57-.77-3.54-1.78-.65-.68-1.17-1.46-1.62-2.28-.83-1.51-1.46-3.09-1.8-4.79-.08-.42-.12-.84-.16-1.26-.07-.72.13-1.39.48-2.02.47-.86,1.09-1.6,1.78-2.28,1.13-1.1,2.39-2.01,3.83-2.66.92-.41,1.87-.61,2.88-.56,1.14.06,2.27.21,3.39.37.22.03.44.07.66.11.12.07.3.1.25.31-.07,0-.15-.01-.22-.02-.53-.08-1.07-.16-1.6-.23-.68-.09-1.37-.18-2.05-.23-.46-.03-.94-.04-1.4,0-.77.07-1.48.35-2.17.69-1.06.52-2.01,1.19-2.89,1.97-.92.82-1.73,1.72-2.3,2.83-.04.07-.05.16-.07.24,0,0,0,0,0,0l-.08.13c-.19.41-.25.86-.22,1.3.03.49.12.99.22,1.47.23,1.11.61,2.16,1.08,3.19.54,1.2,1.18,2.33,2.05,3.32.58.67,1.28,1.17,2.09,1.52.79.35,1.62.44,2.46.36.78-.08,1.47-.4,2.08-.9.22-.18.45-.38.62-.68-.14-.03-.25-.05-.36-.07-.15-.02-.3-.03-.44-.05-.79-.12-1.48-.46-2.1-.94-.44-.34-.84-.72-1.07-1.25-.06-.13-.09-.27-.13-.4.02-.01.05-.02.07-.03.06.09.13.18.19.27.34.5.74.92,1.24,1.27.67.48,1.42.75,2.24.86.58.08,1.07-.08,1.48-.51.43-.45.7-.99.85-1.58.08-.3.18-.61.1-.97-.13,0-.26,0-.38,0-.15,0-.3,0-.44-.03-.64-.09-1.22-.34-1.78-.66-.63-.35-1.16-.83-1.58-1.41-.11-.16-.22-.32-.24-.51.43.4.83.82,1.28,1.19.56.47,1.19.83,1.91.99.34.08.69.15,1.03.16.81.02,1.27-.48,1.33-1.2.06-.7-.11-1.35-.41-1.97-.49-1.03-1.18-1.91-2.02-2.68-.55-.5-1.14-.96-1.78-1.33-.16-.09-.31-.2-.47-.3.48.03.89.23,1.27.48,1.25.83,2.27,1.88,3.02,3.19.35.6.65,1.24.68,1.94.02.44.16.72.51.94.05.03.1.08.15.12.84.62,1.7,1.2,2.62,1.7,1.39.76,2.81,1.46,4.42,1.65.49.06.95.02,1.41-.15.06-.02.12-.04.19-.06.23-.11.47-.2.68-.34.89-.55,1.61-1.29,2.27-2.09Z" style="fill:#484747; stroke-width:0px;"/><path d="m94.2,107.23c.36-.28.54-.67.69-1.08.13-.35.21-.73.32-1.09.01-.05.04-.09.07-.14.04.07.09.14.12.22.19.49.35,1.01.57,1.48.38.82.79,1.62,1.23,2.41.49.89,1.07,1.73,1.72,2.52.42.51.83,1.02,1.28,1.5.51.56,1.09,1.04,1.68,1.51.96.75,2.02,1.32,3.14,1.81.92.4,1.86.71,2.82.99,1,.29,2,.55,2.99.86.85.27,1.7.55,2.52.89,1.41.58,2.63,1.47,3.74,2.49.76.71,1.49,1.45,2.16,2.26.69.82,1.34,1.67,1.92,2.57.59.91,1.12,1.85,1.68,2.77.08.13.19.25.28.37,0,0,0,0,0,0,.02.06.04.13.07.19,0,0,0,0,0,0,.03.04.06.09.09.13.14.4.28.8.41,1.2.3.98.58,1.98.74,2.99.09.55.15,1.11.23,1.67.16,1.1.13,2.2.13,3.31,0,.9-.08,1.8-.18,2.7-.14,1.17-.36,2.32-.64,3.47-.39,1.61-1.07,3.09-1.92,4.49-.48.78-1.01,1.52-1.6,2.22-.27.32-.58.59-.87.89-.06.06-.12.13-.17.21.39-.13.69-.4.98-.67.69-.63,1.2-1.4,1.7-2.18.59-.91,1.11-1.86,1.51-2.88.01-.03.03-.05.06-.1.29.17.46.43.59.72.37.82.47,1.68.36,2.58-.13,1.04-.59,1.9-1.26,2.67-.69.79-1.41,1.56-2.13,2.33-1.18,1.27-2.32,2.57-3.26,4.03-.38.58-.74,1.16-1.14,1.73-.4.57-.86,1.09-1.47,1.44-.38.22-.79.41-1.21.57-1.17.44-2.37.72-3.6.91-.7.1-1.41.19-2.12.17-.47-.01-.95-.1-1.42-.17-.69-.11-1.09-.55-1.32-1.19-.43-1.19-.35-2.37.18-3.5.43-.91,1.17-1.49,2.14-1.78.43-.13.86-.2,1.31-.21-.3-.13-.6-.2-.92-.15-1.5.22-2.48,1.07-3,2.48-.24.66-.33,1.34-.28,2.04.04.52.18,1.02.39,1.5.04.09.08.19.14.31-.47.15-.9.27-1.36.22-.68-.07-1.29-.32-1.82-.77-.28-.24-.5-.53-.62-.87-.24-.75-.42-1.52-.37-2.31.08-1.47.71-2.63,2.02-3.36.4-.23.85-.34,1.3-.39.36-.04.72-.06,1.08-.06.3,0,.6.06.92.04-.09-.04-.18-.09-.28-.12-.96-.31-1.91-.26-2.83.13-1.46.61-2.23,1.76-2.45,3.28-.12.82-.04,1.65.2,2.45.02.07.03.14.04.23-.33,0-.6-.11-.87-.23-.81-.37-1.48-.91-1.94-1.69-.48-.81-.56-1.68-.31-2.58.23-.85.67-1.56,1.4-2.07.53-.37,1.12-.6,1.75-.73.53-.1,1.06-.18,1.6-.24.17-.02.36.03.53.08,1,.29,1.99.61,2.99.88.92.25,1.86.43,2.81.49.77.05,1.55.08,2.32.05.65-.03,1.27-.21,1.78-.68-.06,0-.13,0-.19.03-.53.21-1.07.33-1.64.35-.33.01-.66.06-.98.05-.84-.02-1.67-.12-2.5-.26-1.56-.28-3.08-.69-4.58-1.22-.69-.24-1.3-.64-1.86-1.09-.39-.31-.77-.64-1.12-1-.79-.83-1.46-1.74-2-2.75-.43-.8-.79-1.62-1.07-2.48-.34-1.04-.6-2.1-.74-3.19-.08-.66-.16-1.33-.19-1.99-.04-.97-.08-1.93-.05-2.9.04-.98.14-1.96.28-2.94.23-1.54.59-3.04,1.1-4.51.52-1.5,1.19-2.93,2.06-4.27.67-1.03,1.43-1.99,2.33-2.82.98-.9,2.07-1.63,3.33-2.07.57-.2,1.16-.32,1.77-.38,1.18-.12,2.28.15,3.34.61.95.42,1.78,1.02,2.56,1.71,1.4,1.23,2.49,2.7,3.44,4.28.56.94,1.05,1.92,1.39,2.97,0,.03.03.05.09.08-.01-.09-.03-.18-.04-.27-.02-.09-.03-.19-.05-.28-.24-.97-.66-1.86-1.17-2.71-.51-.86-1.07-1.69-1.71-2.45-.97-1.16-2.04-2.22-3.34-3.03-1.01-.63-2.09-1.07-3.27-1.18-.85-.08-1.69-.03-2.53.2-1.24.34-2.34.94-3.34,1.74-.44.36-.88.74-1.27,1.16-.73.78-1.39,1.63-1.95,2.55-.53.86-.99,1.76-1.39,2.69-.48,1.1-.85,2.24-1.14,3.41-.25,1.03-.46,2.07-.58,3.12-.09.79-.19,1.58-.19,2.38,0,.57-.06,1.15-.04,1.72.03.83.11,1.65.17,2.47.07.9.24,1.79.45,2.66.46,1.85,1.18,3.59,2.28,5.16.13.19.27.37.37.62-.24-.05-.49-.09-.73-.16-1.46-.4-2.84-1.02-4.16-1.75-1.33-.74-2.58-1.6-3.77-2.55-.5-.41-.97-.86-1.45-1.3-.19-.18-.19-.21-.05-.43.67-1.08,1.36-2.15,2.01-3.25.67-1.12,1.33-2.25,1.79-3.48.19-.51.32-1.03.38-1.57.05-.45.1-.91.11-1.36,0-.47-.04-.93-.08-1.4-.02-.27-.05-.55-.08-.82-.08-.74-.19-1.47-.25-2.21-.09-1.23-.01-2.43.45-3.6.49-1.24,1.11-2.41,1.78-3.56.32-.55.65-1.1.78-1.74.02-.08.03-.16,0-.26-.03.05-.07.09-.09.14-.43.76-.86,1.52-1.28,2.28-.63,1.12-1.22,2.26-1.63,3.49-.31.94-.41,1.91-.33,2.89.07.9.22,1.79.29,2.68.07.79.13,1.59.13,2.38,0,1.13-.26,2.21-.74,3.23-.6,1.27-1.3,2.49-2.04,3.68-1.02,1.64-2.07,3.26-3.1,4.91-.97,1.55-1.92,3.11-2.77,4.73-.81,1.53-1.66,3.04-2.52,4.55-.77,1.35-1.63,2.64-2.58,3.87-.52.66-1.08,1.29-1.71,1.84-.96.85-2.07,1.42-3.34,1.6-1.42.19-2.77-.01-4.01-.78-.65-.4-1-.97-1.07-1.74-.12-1.28.26-2.37,1.19-3.25.53-.5,1.17-.8,1.93-.79.28,0,.57.02.86.03-.26-.19-.57-.25-.89-.28-.68-.05-1.28.16-1.82.57-1.04.79-1.57,1.85-1.58,3.16,0,.42.05.84.08,1.29-.04,0-.11.03-.18.03-.6.02-1.18,0-1.75-.24-.78-.32-1.33-.88-1.64-1.64-.37-.89-.4-1.79-.07-2.71.22-.6.6-1.08,1.09-1.47.79-.63,1.7-.96,2.71-.97.26,0,.52.06.84.1-.09-.07-.14-.11-.2-.14-.55-.28-1.12-.28-1.71-.13-.93.24-1.74.68-2.37,1.42-.44.52-.75,1.11-.83,1.8-.01.11-.05.23-.12.35-.08-.3-.19-.6-.25-.91-.17-.88-.03-1.73.36-2.54.42-.86,1.09-1.45,1.98-1.8.95-.38,1.94-.47,2.95-.38,1,.09,1.97.32,2.9.69.66.26,1.24.66,1.79,1.09,1.03.82,1.81,1.85,2.38,3.03.13.28.23.57.34.86.02.05.04.09.1.2.02-.33-.04-.58-.1-.83-.2-.73-.58-1.36-1.04-1.96-.86-1.12-1.94-1.98-3.22-2.62.03-.06.05-.12.09-.17.83-1.12,1.57-2.3,2.23-3.52.83-1.53,1.52-3.11,2.12-4.74.51-1.4.95-2.82,1.29-4.27.23-.98.44-1.97.5-2.97.04-.6.08-1.21.05-1.81-.04-.73-.21-1.45-.43-2.15-.26-.83-.54-1.66-.8-2.49-.38-1.19-.75-2.39-.97-3.63-.08-.44-.12-.88-.15-1.33-.03-.45-.07-.91-.05-1.37.03-1.11.18-2.2.49-3.26.26-.9.62-1.74,1.15-2.51.02-.02.02-.05.05-.12-.32.1-.45.38-.67.54,0-.1-.01-.2.01-.29.25-.94.53-1.86,1-2.71.12-.22.26-.42.39-.63.06.07.07.12.07.16-.02.32-.03.63-.06.95-.04.4-.09.8-.15,1.19-.09.54-.16,1.07.01,1.6.03.08.04.16.05.24.25-.56.56-1.05.9-1.53.65-.88,1.34-1.72,1.91-2.66.42-.68.78-1.38,1.01-2.16.12-.41.22-.82.34-1.23.31.77.29,1.57.31,2.39.27-.24.53-.47.73-.75.61-.81,1.04-1.72,1.34-2.7.11-.35.21-.71.32-1.06.01.03.03.06.04.09.35.95,1.03,1.54,2,1.78.72.18,1.45.16,2.18.06,1.09-.15,1.93-.72,2.58-1.59.4-.54.62-1.15.8-1.79.2-.73.27-1.48.27-2.23Z" style="fill:gray; stroke-width:0px;"/><path d="m144.78,111.58c-.22.59-.46,1.16-.66,1.76-.38,1.11-.63,2.24-.75,3.41-.05.53-.09,1.06-.13,1.58-.02.35-.07.7-.05,1.05.04.79.09,1.59.18,2.38.13,1.15.3,2.29.46,3.43.12.82.23,1.64.25,2.47.02.73.07,1.47.05,2.2-.02.73-.1,1.46-.17,2.19-.13,1.38-.42,2.72-.78,4.05-.45,1.65-.93,3.29-1.71,4.83-.54,1.08-1.22,2.06-2.01,2.97-.76.87-1.62,1.62-2.58,2.26-1.42.94-2.95,1.59-4.64,1.83-.59.08-1.18.18-1.77.17-1.83-.03-3.55-.49-5.06-1.56-.37-.26-.71-.58-1.06-.87-.11-.09-.13-.19-.09-.34.19-.84.37-1.68.52-2.52.11-.62.14-1.24.22-1.86.14-1.13.15-2.27.11-3.41-.02-.72-.09-1.44-.18-2.15-.1-.81-.25-1.61-.4-2.41-.03-.16-.02-.28.09-.41.3-.36.53-.78.67-1.22.14-.45.26-.92.33-1.39.15-.96.09-1.93.06-2.9-.03-.78-.15-1.56-.23-2.34-.08-.77-.17-1.54-.27-2.3-.13-.94-.2-1.88-.2-2.82,0-.9.03-1.8.13-2.7.15-1.31.37-2.6.71-3.87.3-1.13.7-2.23,1.18-3.3.6-1.33,1.34-2.59,2.18-3.78.52-.73,1.07-1.43,1.69-2.07.27-.28.53-.59.81-.86,1.16-1.1,2.41-2.09,3.82-2.85.61-.33,1.24-.62,1.85-.92.03-.02.07-.03.13-.02-1.54,1.54-2.32,3.39-2.29,5.58.03-.08.06-.15.08-.23.02-.09.04-.19.06-.28.11-.46.21-.93.35-1.39.04-.14.16-.28.28-.37,1.01-.74,2.1-1.33,3.26-1.79.89-.35,1.8-.64,2.74-.82.53-.1,1.07-.17,1.61-.22.62-.05,1.25-.07,1.88-.06.98.01,1.94.17,2.94.41-3.74,2.18-6.31,5.26-7.56,9.39,1.59-1.16,2.82-2.63,3.85-4.31-.02.23-.04.46-.07.68-.19,1.34-.5,2.65-.89,3.94-.35,1.16-.77,2.3-1.23,3.42-.07.16-.14.31-.23.46-.47.78-.74,1.65-.95,2.52-.2.82-.33,1.64-.32,2.49,0,.21.05.43.08.64.02,0,.04,0,.06,0,.01-.06.03-.13.04-.19.08-1.38.35-2.73.78-4.05.26-.79.67-1.49,1.26-2.08.41-.4.81-.81,1.22-1.21.1-.1.24-.16.37-.24,0,0,.02.01.03.02Zm-14.06-3.27c-.09.1-.21.18-.26.3-.16.37-.33.74-.44,1.13-.25.89-.42,1.79-.53,2.71-.09.74-.18,1.47-.17,2.22.01.93,0,1.87.08,2.8.07.95.24,1.89.47,2.82.13.53.3,1.04.57,1.51.06.11.11.24.3.32-.06-.19-.11-.32-.16-.46-.36-1.02-.61-2.07-.77-3.14-.15-1.04-.25-2.08-.24-3.13,0-.39.03-.78.05-1.18.04-.6.06-1.21.14-1.81.14-1.03.34-2.05.65-3.04.11-.34.2-.69.3-1.04,0-.03.01-.06.02-.08,0,.03-.02.05-.03.08Zm11.03,21.12s-.04,0-.07,0c-.01.03-.03.05-.03.08-.1,1.06-.31,2.1-.55,3.12-.38,1.56-.91,3.07-1.67,4.5-.71,1.33-1.57,2.54-2.71,3.55-.8.71-1.68,1.29-2.67,1.71-.07.03-.14.08-.26.14.77-.07,1.39-.35,1.97-.73,1.05-.7,1.95-1.58,2.71-2.58.85-1.13,1.51-2.36,2.02-3.67.43-1.12.77-2.27,1.03-3.44.17-.78.3-1.56.25-2.36,0-.1-.01-.2-.02-.3Zm-5.36.02s.04.02.06.03c.07-.07.14-.15.2-.22.31-.38.53-.82.69-1.28.3-.86.6-1.72.86-2.6.27-.92.5-1.86.63-2.82.07-.56.13-1.11.2-1.67.09-.69.08-1.37-.08-2.05-.02-.08-.06-.16-.09-.24.02,3.82-.89,7.41-2.48,10.86Zm-7.89-10.49c-.04.08-.1.16-.12.25-.08.37-.17.75-.21,1.12-.06.74.01,1.49.14,2.22.17,1.03.43,2.03.81,3.01.23.6.5,1.17.91,1.67.08.09.14.2.31.22-1.48-2.66-2.16-5.46-1.84-8.49Zm5.79,16.14c.38-.1.71-.28,1-.54.57-.52,1.03-1.13,1.45-1.77.39-.6.76-1.2,1.1-1.83.33-.61.67-1.23.88-1.91.08-.26.15-.53.1-.86-.05.11-.09.19-.12.26-.49,1.21-1.07,2.39-1.76,3.5-.56.9-1.16,1.78-1.94,2.52-.23.22-.47.42-.71.64Zm2.34-.49c-1.45,2.3-3.43,3.83-6.17,4.28.35.01.69.03,1.02-.02,1.19-.19,2.18-.79,3.11-1.51.57-.45,1.07-.97,1.52-1.53.28-.35.49-.74.51-1.21Zm-11.03,5.26s-.02.05-.03.07c.13.1.26.21.41.29.75.4,1.57.52,2.39.57.6.04,1.21,0,1.81-.05.63-.05,1.2-.27,1.7-.65.05-.04.09-.09.13-.14-2.16.95-4.29.69-6.41-.09Z" style="fill:gray; stroke-width:0px;"/><path d="m79.18,138.6c-.23-.23-.48-.44-.69-.69-.47-.55-.85-1.17-1.16-1.83-.06-.12-.12-.25-.21-.37-.1,1.5-.55,2.9-1.21,4.24-.08-1.43-.4-2.81-.86-4.15-.47-1.35-1.05-2.64-1.93-3.8-.06.84-.12,1.68-.35,2.49-.22.81-.54,1.59-1.02,2.31-.03-.04-.06-.06-.06-.08,0-.95-.21-1.86-.58-2.73-.5-1.17-1.06-2.32-1.6-3.48-.43-.91-.88-1.82-1.18-2.79-.17-.54-.26-1.09-.28-1.66-.04-.84-.02-1.68.15-2.51.03-.14.07-.29.11-.48-.22.19-.3.41-.35.63-.09.39-.17.79-.19,1.19-.02.54,0,1.08.04,1.63.02.36-.05.7-.12,1.04-.15.75-.42,1.45-.87,2.07-.07.09-.14.18-.25.32-.03-.15-.04-.24-.05-.33-.12-.77-.41-1.48-.76-2.16-.51-.98-1.03-1.96-1.57-2.92-.75-1.34-1.15-2.78-1.35-4.29-.11-.8-.14-1.61-.13-2.42.02-1.6.5-3.08,1.25-4.47.25-.47.59-.89,1.09-1.12.01,0,.02-.04.03-.07-.34,0-.62.13-.86.35-.29.27-.51.61-.66.97-.27.62-.51,1.26-.75,1.9-.07.19-.16.34-.31.47-.55.5-1.19.81-1.92.94-.08.01-.17.02-.25.02-.03,0-.05-.01-.09-.03.16-.2.31-.39.45-.59.37-.55.57-1.16.75-1.79.21-.75.42-1.49.63-2.24.44-1.57,1.33-2.84,2.56-3.88.39-.33.78-.65,1.2-1,.57.24,1.16.47,1.73.72.57.25,1.11.57,1.57,1.02.03-.95-.39-1.73-.94-2.52.17-.02.3-.04.43-.05,1.69-.1,3.38-.12,5.07-.07,1.45.05,2.89.14,4.32.41.77.14,1.52.41,2.27.65,1.43.46,2.83.98,4.29,1.33.51.12,1.02.22,1.53.33.02.37.05.75.07,1.12-.17.79-.35,1.58-.65,2.33-.27.68-.59,1.32-1.03,1.9-.06.08-.11.2-.25.22-.05-.73-.16-1.43-.44-2.09-.08-.19-.14-.4-.19-.6-.12-.46-.29-.89-.6-1.25.05.21.12.4.17.61.08.36.21.73.2,1.09,0,.43-.1.86-.21,1.29-.3,1.24-.91,2.33-1.65,3.36-.59.83-1.2,1.65-1.8,2.47-.01.02-.05.02-.12.05.1-.68.22-1.31.28-1.96.06-.64.06-1.29-.04-2.01-1.3,1.57-1.84,3.37-2.15,5.27-.14.5-.28,1-.41,1.51-.56,2.27-.54,4.55.02,6.82.35,1.42.84,2.79,1.27,4.18.24.77.45,1.55.61,2.34.2.95.15,1.9.01,2.86Z" style="fill:#e4e5e5; stroke-width:0px;"/><path d="m94.5,152.45c-.05-.26-.25-.41-.44-.56-.34-.27-.75-.41-1.18-.45-.55-.04-1.11-.03-1.64.13-.52.16-1.04.32-1.48.66-.93.71-1.48,1.62-1.53,2.81,0,.06-.01.13-.02.19-.04.01-.07.03-.1.02-1.04-.39-1.66-1.26-1.6-2.35.04-.77.44-1.4,1.02-1.88.75-.61,1.62-.94,2.58-1.07.82-.11,1.62-.07,2.42.2-.19-.24-.45-.36-.73-.44-.51-.15-1.02-.14-1.54-.08-.74.09-1.44.29-2.09.62-.68.35-1.23.83-1.6,1.5-.02.03-.05.06-.08.1-.16-.36-.1-.71-.01-1.04.35-1.28,1.18-2.06,2.48-2.32.49-.1.99-.16,1.49-.12.58.05,1.16.12,1.74.2.14.02.27.12.39.2,1.05.71,2.14,1.35,3.28,1.9,1.15.55,2.34.99,3.6,1.25.05.01.11.02.16.02.22-.01.38.09.53.25.56.6,1.14,1.17,1.83,1.64.25.17.51.34.79.53-.4.07-.78.12-1.15.2-.94.19-1.81.54-2.53,1.21-.07.07-.18.11-.28.13-1.27.31-2.53.63-3.8.92-.45.1-.92.15-1.38.18-.52.04-1.04.06-1.56.06-.73,0-1.44-.12-2.12-.38-.48-.18-.88-.45-1.2-.87-.21-.28-.28-.59-.23-.93.11-.77.43-1.45.96-2.01.22-.23.48-.42.76-.57.56-.31,1.17-.49,1.81-.56.6-.07,1.16.02,1.7.27.2.09.38.23.57.35.06.04.13.07.19.1.02.02.03.04.05.07-.02-.02-.03-.05-.05-.07Z" style="fill:#7f8080; stroke-width:0px;"/><path d="m123.12,129.58c-.09-.12-.2-.24-.28-.37-.56-.92-1.1-1.87-1.68-2.77-.58-.9-1.23-1.75-1.92-2.57-.67-.8-1.39-1.55-2.16-2.26-1.11-1.03-2.33-1.91-3.74-2.49-.82-.34-1.67-.62-2.52-.89-.99-.31-2-.57-2.99-.86-.96-.28-1.91-.59-2.82-.99-1.11-.48-2.18-1.05-3.14-1.81-.59-.47-1.17-.95-1.68-1.51-.44-.48-.86-.99-1.28-1.5-.65-.79-1.22-1.63-1.72-2.52-.44-.79-.84-1.6-1.23-2.41-.23-.48-.38-.99-.57-1.48-.03-.08-.08-.14-.12-.22.03-.3.04-.61.08-.91.04-.35.3-.5.6-.6.12.71.37,1.37.64,2.03.86,2.12,2.01,4.06,3.47,5.81,1.51,1.83,3.36,3.2,5.53,4.17,1.53.68,3.12,1.18,4.71,1.7,1.4.45,2.79.92,4.1,1.59,1.02.52,1.94,1.19,2.79,1.95,1.85,1.67,3.32,3.64,4.53,5.81.51.91.96,1.85,1.34,2.82.03.09.05.18.07.27Z" style="fill:#a1a2a2; stroke-width:0px;"/><path d="m77.67,120.9c.31-1.89.85-3.69,2.15-5.27.1.72.1,1.37.04,2.01-.06.64-.18,1.28-.28,1.96.07-.03.11-.04.12-.05.6-.82,1.21-1.64,1.8-2.47.73-1.03,1.35-2.12,1.65-3.36.1-.42.2-.86.21-1.29,0-.36-.12-.73-.2-1.09-.05-.2-.12-.4-.17-.61.31.36.48.79.6,1.25.05.2.11.41.19.6.28.67.4,1.36.44,2.09.14-.01.19-.13.25-.22.44-.58.76-1.23,1.03-1.9.3-.75.48-1.54.65-2.33.06.23.12.46.17.7-.11.35-.21.71-.32,1.06-.3.97-.73,1.88-1.34,2.7-.21.27-.47.51-.73.75-.02-.82,0-1.62-.31-2.39-.11.41-.22.82-.34,1.23-.22.77-.59,1.47-1.01,2.16-.57.93-1.26,1.78-1.91,2.66-.35.47-.65.96-.9,1.53-.02-.08-.03-.17-.05-.24-.18-.53-.1-1.06-.01-1.6.07-.4.11-.79.15-1.19.03-.32.04-.63.06-.95,0-.05,0-.1-.07-.16-.13.21-.27.41-.39.63-.46.86-.75,1.78-1,2.71-.02.09,0,.19-.01.29-.16.27-.32.54-.49.81Z" style="fill:#656464; stroke-width:0px;"/><path d="m87.14,149.01c.65-1.02,1.29-2.04,1.93-3.05.88.74,1.74,1.47,2.65,2.24-.23-.02-.4-.04-.58-.05-.71-.06-1.42-.08-2.13.04-.69.12-1.3.4-1.82.87-.02-.01-.04-.03-.06-.04Z" style="fill:#fcfcfc; stroke-width:0px;"/><path d="m123.18,129.78c-.02-.06-.04-.13-.07-.19.02.06.04.13.07.19Z" style="fill:#a1a2a2; stroke-width:0px;"/><path d="m144.75,111.56s.03-.05.05-.08c0,0,.02.02.02.02-.01.03-.03.05-.04.08,0,0-.02-.01-.03-.02Z" style="fill:gray; stroke-width:0px;"/><path d="m123.27,129.9s-.06-.09-.09-.13c.03.04.06.09.09.13Z" style="fill:#a1a2a2; stroke-width:0px;"/><path d="m100.84,85.64c-.3-.09-.61-.18-.91-.26-.49-.13-.98-.06-1.47.04-.26.05-.52.1-.77.16.02-.74.04-1.49-.11-2.22-.23-1.08-.73-1.99-1.59-2.69-.94-.77-2.05-.93-3.22-.79-.95.12-1.78.55-2.53,1.14-.23.19-.45.38-.68.57-.02-.02-.04-.03-.05-.05.01-.03.02-.06.03-.09.95-1.7,2.87-2.72,4.75-2.46,1.1.15,1.99.65,2.61,1.58.04.06.08.11.13.17.01-.11,0-.2-.04-.28-.23-.54-.59-.95-1.1-1.24-1.11-.62-2.29-.7-3.49-.36-1.71.49-2.82,1.64-3.5,3.25-.42,1-.56,2.04-.52,3.12.05,1.13.29,2.22.87,3.2.35.59.78,1.14,1.21,1.68.7.86,1.43,1.69,2.14,2.54.14.17.25.36.38.55-.15-.02-.31-.03-.46-.06-.85-.17-1.71-.17-2.56-.07-1.25.14-2.43.47-3.53,1.09-.53.3-1.02.64-1.43,1.1-.04-.07-.1-.14-.12-.21-.27-1.31-.76-2.52-1.44-3.66-.57-.96-1.24-1.84-2.07-2.58-1.26-1.11-2.72-1.89-4.33-2.38-.26-.08-.48-.2-.69-.37-1.48-1.21-3.17-1.76-5.08-1.68-.94.04-1.8.32-2.6.78-.65.37-1.18.88-1.49,1.57-.5,1.11-.62,2.26-.4,3.46.19,1.07.65,2.02,1.3,2.88-.13.02-.26.06-.39.06-.98-.03-1.95.11-2.87.43-1.01.35-1.93.86-2.76,1.55-.36.3-.72.59-1.04.93-.49.51-.91,1.08-1.27,1.7-.45.78-.73,1.62-.83,2.51-.06.49.01.99.02,1.49,0,.12.01.23.02.35-.23.52-.23,1.06-.11,1.59.17.78.53,1.48,1.07,2.07.14.15.31.28.47.43-.91.32-3.6-1.09-4.56-2.35-1-1.31-1.54-2.81-1.11-5.07-.24.14-.34.38-.52.52-.2.15-.4.31-.61.45-.2.13-.42.25-.64.35-.22.1-.45.18-.69.25-.23.07-.47.14-.71.19-.25.05-.5.07-.76.1-.24.03-.48.05-.78.08.26-.32.47-.58.67-.85.88-1.23,1.67-2.52,2.09-3.99.1-.36.13-.75.17-1.13.01-.12-.03-.25-.09-.37-.08.32-.15.64-.23.96-.05.21-.15.35-.38.42-.6.19-1.1.55-1.55.98-.3.28-.56.6-.86.91-.06-.4.01-.77.08-1.14.13-.78.33-1.53.6-2.27.43-1.19,1.01-2.29,1.83-3.26.11-.13.2-.27.3-.41.04-.05.07-.1.09-.17-.39.18-.66.5-.96.78-1.2-.76-3.52-4.02-3.82-5.57,1.14.89,2.43,1.39,3.83,1.6.54.08,1.09.13,1.64.05.06-.17,0-.25-.15-.29-.6-.16-1.17-.39-1.73-.66-.81-.38-1.56-.86-2.28-1.4-.73-.55-1.4-1.17-2.04-1.83-.82-.86-1.57-1.79-2.24-2.77-.73-1.06-1.39-2.16-1.98-3.3-1.21-2.31-2.13-4.72-2.85-7.22-.39-1.34-.71-2.69-.97-4.05-.17-.85-.29-1.71-.41-2.57-.09-.62-.18-1.24-.24-1.86-.05-.43-.04-.87-.08-1.3-.12-1.25-.15-2.5-.11-3.76.02-.83.11-1.65.18-2.47.08-.97.26-1.93.52-2.88.21-.76.46-1.5.89-2.18.23-.36.5-.69.9-.88.33-.15.66-.14.99-.01.43.17.79.46,1.11.78.91.92,1.8,1.87,2.73,2.78,1.28,1.25,2.7,2.33,4.25,3.24,1.8,1.06,3.72,1.82,5.71,2.41,1.6.47,3.2.93,4.78,1.45,1.86.62,3.62,1.46,5.24,2.59.66.46,1.27.96,1.82,1.54.23.24.43.53.64.79.04.05.09.1.19.13-.08-.2-.16-.41-.25-.64.3-.11.59-.24.89-.34.91-.29,1.82-.58,2.74-.85.63-.18,1.28-.31,1.91-.47.74-.19,1.45-.48,2.15-.8,1.27-.58,2.46-1.3,3.55-2.17.77-.62,1.51-1.28,2.14-2.04.06-.07.12-.15.18-.22.02,0,.05.02.07.03,0,.1.02.2.01.29-.09,1.28-.3,2.53-.76,3.73-.41,1.06-.93,2.07-1.78,2.84-.55.5-1.19.89-1.8,1.31-.41.28-.86.51-1.27.8.24-.08.48-.15.71-.24.67-.29,1.32-.65,1.9-1.09.22-.17.43-.22.68-.19.71.08,1.41.19,2.08.43,1.15.41,2.16,1.04,2.96,1.99.15.18.33.36.39.63-.31-.04-.6-.07-.89-.12-.8-.14-1.59-.05-2.36.16-1.08.29-2.03.82-2.78,1.66-.19.22-.39.44-.43.77,1.92-2.16,4.26-2.84,7.05-1.97-.01-.08-.01-.14-.04-.19-.36-.79-.91-1.42-1.58-1.97-1.02-.84-2.2-1.32-3.48-1.56-.3-.06-.6-.07-.91-.11.45-.61.9-1.22,1.39-1.88.08.01.22.03.36.06,1.5.31,2.96.76,4.36,1.38.92.4,1.81.85,2.66,1.38.03.02.08.03.12.04.02.02.04.03,0,0,.04.01.01,0-.01,0-.17-.29-.46-.46-.72-.65-.88-.63-1.86-1.07-2.86-1.45-1.02-.39-2.07-.71-3.14-.93-.02,0-.03-.02-.07-.05.04-.22.19-.38.31-.56.74-1.11,1.76-1.9,2.91-2.52.89-.48,1.8-.92,2.7-1.36,1.4-.69,2.81-1.37,4.11-2.25.94-.63,1.88-1.27,2.79-1.95.62-.46,1.2-.98,1.78-1.49.49-.44.96-.9,1.43-1.37.27-.27.51-.58.79-.83.22-.21.48-.39.75-.54.42-.23.87-.35,1.35-.21.07.02.14.03.22.04,0,0,.02,0,.03-.01-.14-.26-.48-.41-.8-.37-.53.06-1,.27-1.42.59-.05.04-.11.06-.17.08,0,0-.01-.01-.01-.01.08-.43.32-.79.59-1.11.46-.56,1.03-.98,1.74-1.18,1.02-.29,2.06.05,2.66.93.47.69.71,1.47.89,2.27.15.72.25,1.44.27,2.17.02,1.09.06,2.19.05,3.28,0,.75-.07,1.51-.13,2.26-.07.88-.16,1.75-.25,2.63-.09.76-.19,1.51-.3,2.27-.11.77-.2,1.53-.33,2.3-.17,1.01-.36,2.02-.56,3.03-.28,1.46-.68,2.89-1.18,4.29-.23.64-.51,1.26-.78,1.88-.05.11-.14.23-.24.28-.89.51-1.63,1.18-2.25,2.04-.04-.07-.08-.11-.09-.16-.23-.9-.57-1.76-1-2.58-.5-.98-1.07-1.93-1.81-2.76-.43-.49-.91-.92-1.44-1.29-.05-.04-.12-.06-.21-.04.07.07.14.15.21.22.77.71,1.45,1.5,2.03,2.37.83,1.26,1.49,2.6,1.9,4.05.26.9.4,1.82.44,2.76.03.74.08,1.48.12,2.22.07,1.12.38,2.17.97,3.13.44.72.89,1.42,1.34,2.13Zm-59.34-17.82c.04.12.08.24.11.36.4,1.66.97,3.26,1.65,4.82.77,1.78,1.66,3.49,2.73,5.12.92,1.41,1.93,2.75,3.2,3.87.44.39.91.74,1.46.97.4.17.8.27,1.24.12.28-.1.48-.3.69-.5.36,1.01.4,2-.29,2.92.51-.21.73-.62.78-1.12.08-.84-.06-1.65-.35-2.44-.4-1.06-.9-2.06-1.47-3.04-.06-.1-.1-.2-.15-.3.09-.02.14,0,.18.02.38.19.74.41,1.14.57.36.15.74.24,1.15.13.52-.15.91-.71.78-1.22-.09-.35-.22-.69-.39-1-.3-.55-.64-1.08-.96-1.62-.1-.17-.19-.34-.28-.51.02-.02.03-.03.05-.05.12.07.25.14.37.21.58.3,1.18.52,1.84.59.45.05.87-.02,1.24-.28.34-.24.47-.62.32-1.01-.07-.19-.16-.38-.29-.53-.32-.39-.66-.75-.98-1.13-.36-.43-.71-.87-1.06-1.31-.03-.04-.05-.1-.09-.21.11.06.15.08.19.1.69.39,1.4.73,2.19.84.53.08,1.06.08,1.55-.2.44-.26.76-.93.65-1.39-.09-.35-.26-.66-.55-.87-.3-.23-.63-.44-.96-.62-.62-.33-1.26-.62-1.88-.95-.42-.22-.83-.47-1.24-.72-.1-.06-.19-.14-.33-.26,1.16-.07,2.17-.35,3.15-.95-.14,0-.2-.01-.27,0-.67.14-1.31.02-1.94-.19-1.07-.36-2.03-.92-2.9-1.63-.18-.15-.37-.31-.5-.51.47,0,.91.04,1.35.02.44-.02.88-.06,1.31-.2-1.12-.21-2.14-.66-3.08-1.26-1.63-1.04-3.1-2.27-4.39-3.72-.59-.66-1.14-1.35-1.71-2.01-.49-.57-1-1.14-1.59-1.6-.31-.24-.64-.45-1.04-.54-.31-.07-.61-.08-.9.08-.42.22-.68.56-.84,1-.21.59-.29,1.2-.31,1.81-.04,1.18-.04,2.36.11,3.53.11.88.21,1.77.32,2.65.13,1.02.32,2.03.59,3.02.11.4.19.81.44,1.15Zm22.4,16.99c.05-.07.1-.14.15-.21.87-1.26,1.9-2.37,3.16-3.26.94-.66,1.96-1.15,3.1-1.36.15-.03.31-.04.46-.06-.1-.13-.21-.22-.34-.29-1.47-.79-3.53-.49-4.81.7-.77.72-1.24,1.61-1.5,2.62-.16.6-.27,1.22-.21,1.86Zm32.76-8.95c-.31-.66-1.33-1.77-2.21-2.23-1.74-.91-3.62-.31-4.7.92-.18.21-.35.44-.44.72.05,0,.07.01.09,0,1.01-.43,2.06-.57,3.14-.51.8.04,1.58.18,2.34.43.59.19,1.17.44,1.77.67Zm-25.39,7.74c-.39-.18-.8-.18-1.19-.11-1.65.3-2.97,1.13-3.86,2.57-.49.78-.75,1.64-.65,2.57.01.13.03.25.14.35.03-1.51.51-2.83,1.63-3.86,1.1-1,2.44-1.47,3.93-1.53Z" style="fill:gray; stroke-width:0px;"/><path d="m101.67,73.45c-1.52,1.67-2.33,3.64-2.88,5.74-.02-.3-.04-.61-.07-.91-.07-.65-.14-1.3-.23-1.95-.02-.14-.04-.26.05-.39.73-1.13,1.74-1.93,2.96-2.48.03-.02.08,0,.17-.01Z" style="fill:#7f8080; stroke-width:0px;"/><path d="m98.21,48.29s-.02.02-.03.02c0-.01.02-.02.02-.04,0,0,.01.01.01.01Z" style="fill:gray; stroke-width:0px;"/><path d="m89.64,100.4c0,.05,0,.11-.01.16-.63,1.94-1.94,3.17-3.89,3.7-1.56.43-3.06.25-4.46-.57-.65-.37-1.16-.9-1.6-1.5-.44-.59-.85-1.2-1.28-1.79-.61-.83-1.34-1.51-2.27-1.97-.51-.26-1.03-.39-1.66-.31.12.05.19.08.26.1,1.35.33,2.46,1.05,3.29,2.16.45.59.86,1.21,1.3,1.82.64.88,1.41,1.62,2.43,2.06.54.23,1.1.38,1.69.45.19.02.34.09.49.2.63.47,1.31.82,2.08,1,.02.08.04.16.06.25.14.89.07,1.78,0,2.67-1.41-.24-2.77-.65-4.12-1.11-2.49-.86-5.02-1.6-7.59-2.22-.73-.18-1.44-.45-2.16-.67-.04-.01-.08-.02-.18-.04.17.22.34.35.53.42.38.15.77.3,1.17.42.74.21,1.48.38,2.22.57.04,0,.07.02.11.06-.37-.03-.74-.05-1.11-.08-1.64-.11-3.27-.14-4.91-.06-.64.03-1.28.06-1.91.1-.15,0-.26-.03-.37-.14-.3-.28-.64-.48-1.05-.59.95.76,1.74,1.62,2.08,2.88-1.2-.78-2.49-1.18-3.75-1.67-1.02-.39-2.04-.79-3-1.34-.79-.45-1.52-.98-2.07-1.72-.47-.63-.72-1.34-.79-2.12-.17-1.77.4-3.31,1.49-4.68,1.03-1.3,2.33-2.27,3.86-2.9,1.23-.51,2.53-.61,3.85-.53.86.96,1.92,1.59,3.19,1.86.07.02.13.03.2.05.04,0,.08.01.11.02.09.02.18.04.27.06.2.03.4.06.59.08,1.05.13,2.08.05,3.1-.21.83-.21,1.61-.54,2.29-1.07.49-.37.8-.85.88-1.46.05-.38.09-.76.06-1.14-.12-1.75-.74-3.3-1.85-4.67-.05-.06-.09-.12-.15-.2.07.01.11.01.15.03,1.5.53,2.89,1.26,4.05,2.35,1.18,1.11,2.04,2.44,2.67,3.93.33.79.55,1.61.72,2.44-.08.15-.15.3-.24.44-.46.78-.38,1.31.34,1.85.32.24.67.45,1.02.65.88.49,1.76.98,2.65,1.45.38.2.79.36,1.18.54Z" style="fill:#e4e5e5; stroke-width:0px;"/><path d="m75.54,141.15c-.46.17-.92.2-1.41.15-1.61-.18-3.02-.89-4.42-1.65-.92-.5-1.78-1.08-2.62-1.7-.05-.04-.1-.08-.15-.12-.35-.21-.49-.5-.51-.94-.03-.69-.33-1.34-.68-1.94-.75-1.3-1.77-2.36-3.02-3.19-.38-.25-.79-.45-1.27-.48.16.1.31.2.47.3.64.38,1.23.83,1.78,1.33.84.77,1.53,1.64,2.02,2.68.3.63.47,1.27.41,1.97-.06.72-.53,1.23-1.33,1.2-.35-.01-.69-.09-1.03-.16-.72-.16-1.35-.52-1.91-.99-.44-.37-.85-.79-1.28-1.19.01.19.12.36.24.51.42.59.95,1.06,1.58,1.41.56.31,1.14.57,1.78.66.15.02.3.02.44.03.13,0,.25,0,.38,0,.08.36-.02.66-.1.97-.15.6-.42,1.13-.85,1.58-.4.42-.9.58-1.48.51-.81-.11-1.56-.38-2.24-.86-.49-.35-.9-.78-1.24-1.27-.06-.09-.13-.18-.19-.27-.02.01-.05.02-.07.03.04.13.08.27.13.4.22.53.63.91,1.07,1.25.62.48,1.31.82,2.1.94.15.02.3.03.44.05.11.02.22.04.36.07-.17.3-.4.5-.62.68-.6.5-1.3.82-2.08.9-.84.08-1.67,0-2.46-.36-.81-.35-1.51-.85-2.09-1.52-.87-1-1.51-2.13-2.05-3.32-.47-1.03-.84-2.09-1.08-3.19-.1-.49-.19-.98-.22-1.47-.03-.44.03-.89.22-1.3.03-.04.05-.09.08-.13,0,0,0,0,0,0,.07-.07.14-.13.2-.2.42-.49.83-.99,1.26-1.47.16-.18.36-.33.54-.49.45-.38.88-.79,1.36-1.14.81-.58,1.64-1.13,2.58-1.49.63-.25,1.28-.44,1.97-.44.16,0,.31.04.47.06.73.07,1.45.11,2.18.2.83.1,1.65.25,2.47.37.41.78.6,1.61.53,2.51.38-.3.73-.61.96-1.02.21-.38.38-.78.56-1.17.17.02.34.05.52.07.64,1.36,1.3,2.72,1.93,4.08.44.96.88,1.93,1.08,2.98.14.69.18,1.38-.05,2.07-.04.13-.06.26-.07.4,1.3-1.47,2.01-3.18,2.16-5.14.13.03.16.15.21.24.42.72.75,1.49,1.06,2.28.39,1,.65,2.04.85,3.09.05.26.07.52.09.79.03.35.06.7.06,1.05,0,.27-.03.55-.05.82Z" style="fill:gray; stroke-width:0px;"/><path d="m71.89,95.35s-.08-.01-.11-.02c-.07-.02-.13-.03-.2-.05-1.27-.27-2.33-.89-3.19-1.86-.11-.13-.21-.25-.32-.38-.65-.86-1.11-1.81-1.3-2.88-.22-1.2-.1-2.35.4-3.46.31-.69.84-1.2,1.49-1.57.8-.46,1.66-.74,2.6-.78,1.91-.09,3.6.47,5.08,1.68.21.17.43.29.69.37,1.61.49,3.07,1.27,4.33,2.38.83.74,1.5,1.62,2.07,2.58.68,1.14,1.18,2.36,1.44,3.66.02.08.08.14.12.21-.1.08-.2.16-.31.25-.17-.83-.39-1.65-.72-2.44-.63-1.49-1.49-2.82-2.67-3.93-1.16-1.09-2.55-1.83-4.05-2.35-.04-.01-.08-.01-.15-.03.06.09.11.15.15.2,1.1,1.36,1.72,2.92,1.85,4.67.03.38,0,.77-.06,1.14-.08.61-.4,1.09-.88,1.46-.69.53-1.46.86-2.29,1.07-1.02.26-2.05.34-3.1.21-.2-.02-.4-.05-.59-.08,0-.02,0-.04,0-.06.3.02.59.07.89.05.42-.02.84-.09,1.25-.13.27-.04.55-.06.82-.11.92-.16,1.79-.45,2.58-.95.84-.52,1.18-1.28,1.11-2.24,0-.11.02-.21.01-.32-.09-1.54-.61-2.92-1.5-4.17-.68-.94-1.52-1.69-2.6-2.14-1.2-.5-2.47-.62-3.75-.44-.71.1-1.39.32-1.98.73-.67.47-1.17,1.07-1.42,1.86-.02.04-.04.07-.06.11-.31.84-.36,1.7-.2,2.58.27,1.44.91,2.69,2.01,3.69.2.18.45.32.67.47,0,0,0,0,0,0,0,0,0,.02,0,.02,0,.01.01.02.02.03.14.08.28.15.42.23.34.17.68.35,1.03.5.23.1.48.16.71.24-.09,0-.18,0-.27,0Z" style="fill:#242424; stroke-width:0px;"/><path d="m65.7,128.11c-.82-.13-1.64-.27-2.47-.37-.72-.09-1.45-.14-2.18-.2-.16-.01-.31-.06-.47-.06-.69,0-1.34.2-1.97.44-.94.36-1.77.91-2.58,1.49-.48.35-.91.76-1.36,1.14-.19.16-.38.31-.54.49-.43.48-.84.98-1.26,1.47-.06.07-.13.13-.2.2.02-.08.04-.16.07-.24.57-1.1,1.38-2.01,2.3-2.83.88-.78,1.83-1.45,2.89-1.97.69-.34,1.4-.62,2.17-.69.46-.04.94-.04,1.4,0,.69.05,1.37.14,2.05.23.54.07,1.07.15,1.6.23.07.01.15.02.22.02.11.21.21.43.32.64Z" style="fill:#a1a2a2; stroke-width:0px;"/><path d="m86.07,108.83c.07-.89.14-1.78,0-2.67-.01-.08-.04-.16-.06-.25-.03-.11-.05-.21-.08-.32-.04-.13-.07-.27-.11-.39-.07-.2-.14-.4-.22-.59.08-.02.17-.04.25-.06.45.95.61,1.96.58,3-.02.65-.04,1.29-.05,1.94,0,.47.08.93.22,1.38.3.91.93,1.45,1.85,1.67.62.15,1.24.16,1.87.07,1.28-.17,2.23-.82,2.85-1.96.52-.97.7-2.02.74-3.1.02-.52-.02-1.04-.05-1.56-.05-.82-.24-1.62-.53-2.38-.17-.46-.39-.9-.58-1.34.09-.03.18-.05.27-.08.75,1.43,1.15,2.96,1.17,4.58,0,.16,0,.31,0,.47,0,.76-.07,1.5-.27,2.23-.17.64-.4,1.26-.8,1.79-.65.87-1.49,1.44-2.58,1.59-.73.1-1.46.12-2.18-.06-.98-.24-1.66-.82-2-1.78-.01-.03-.03-.06-.04-.09-.06-.23-.12-.46-.17-.7-.02-.37-.05-.75-.07-1.12,0-.09,0-.19-.01-.28Z" style="fill:#a95050; stroke-width:0px;"/><path d="m78.67,138.66c-.65.81-1.38,1.54-2.27,2.09-.21.13-.45.22-.68.34.05-.13.09-.26.16-.38.41-.78.77-1.58,1.02-2.43.15-.51.27-1.02.4-1.55.03.04.07.07.1.12.31.58.71,1.1,1.14,1.6.05.06.08.14.12.22Z" style="fill:#7f8080; stroke-width:0px;"/><path d="m68.26,128.5c-.17-.02-.34-.05-.52-.07.05-.16.09-.32.14-.47.13-.06.2-.02.24.09.05.15.09.3.14.45Z" style="fill:#a1a2a2; stroke-width:0px;"/><path d="m97.63,85.96c.76-.3,1.54-.43,2.34-.27.86.17,1.51.65,1.92,1.44.33.63.53,1.3.71,1.98.17.61.32,1.23.49,1.85.3,1.11.62,2.21,1.36,3.16-.33.06-.62,0-.9-.06-.41-.09-.82-.22-1.23-.33-.18-.05-.25-.16-.28-.34-.1-.56-.27-.93-.57-1.31.51,1.49.49,2.99.08,4.49-.41,1.51-1.13,2.84-2.31,3.92,0-.11,0-.21.02-.32.09-.93.08-1.85-.15-2.76-.07-.28-.17-.54-.32-.81-.02.08-.05.15-.07.23-.3,1.28-.66,2.53-1.21,3.72-.44.94-.98,1.82-1.75,2.53-.09.09-.19.16-.33.28-.01-.12-.03-.2-.03-.28-.06-.7-.12-1.4-.18-2.1-.02-.16,0-.28.1-.42.67-.95.84-2.02.74-3.16-.09-1.05-.51-1.95-1.23-2.7-.12-.12-.26-.22-.38-.33-.2-.32-.42-.61-.75-.81-.07-.04-.13-.1-.2-.16-.07-.12-.13-.24-.21-.35-.44-.56-.89-1.11-1.34-1.66-.06-.08-.13-.16-.21-.26.16-.03.28-.05.4-.07,1.26-.16,2.39-.63,3.41-1.37.79-.57,1.35-1.31,1.71-2.21.2-.5.31-1.01.38-1.54Z" style="fill:#e4e4e4; stroke-width:0px;"/><path d="m92.75,102.27c.2.45.41.89.58,1.34.29.77.48,1.56.53,2.38.03.52.07,1.04.05,1.56-.05,1.08-.22,2.13-.74,3.1-.61,1.14-1.56,1.78-2.85,1.96-.63.08-1.25.07-1.87-.07-.92-.22-1.55-.76-1.85-1.67-.15-.45-.23-.91-.22-1.38,0-.65.03-1.29.05-1.94.04-1.05-.13-2.05-.58-3,.49-.21,1-.4,1.48-.65.73-.39,1.32-.94,1.8-1.62.04.07.09.14.13.22.77,1.59,1.2,3.26,1.16,5.04-.02.74-.13,1.46-.37,2.15-.03.1-.06.2-.1.36.25-.2.35-.43.45-.66.23-.52.28-1.09.31-1.65.06-.95-.07-1.88-.28-2.81-.24-1.02-.62-1.98-1.08-2.92.63.24,1.28.39,1.95.39.44,0,.88-.08,1.32-.12.04,0,.08,0,.13-.01Z" style="fill:#fe9f9f; stroke-width:0px;"/><path d="m97.63,85.96c-.07.53-.18,1.04-.38,1.54-.36.9-.92,1.64-1.71,2.21-1.02.74-2.16,1.22-3.41,1.37-.12.02-.24.04-.4.07.08.11.15.19.21.26.45.55.9,1.1,1.34,1.66.08.11.14.23.21.35-.17-.06-.35-.12-.52-.17,0-.03,0-.05,0-.08h0c-.12-.18-.23-.37-.38-.54-.71-.85-1.44-1.68-2.14-2.54-.43-.54-.86-1.09-1.21-1.68-.59-.98-.82-2.07-.87-3.2-.05-1.08.1-2.12.52-3.12.68-1.6,1.79-2.76,3.5-3.25,1.2-.34,2.38-.26,3.49.36.51.28.88.7,1.1,1.24.04.08.05.18.04.28-.04-.06-.09-.11-.13-.17-.62-.94-1.51-1.43-2.61-1.58-1.88-.26-3.8.76-4.75,2.46-.02.03-.02.06-.03.09,0,.04-.02.08-.02.12l.08-.07c.23-.19.45-.39.68-.57.74-.59,1.57-1.02,2.53-1.14,1.17-.14,2.28.02,3.22.79.85.7,1.36,1.62,1.59,2.69.16.74.13,1.48.11,2.22-.02.13-.03.26-.05.38Zm-8.82-2.62c-.04.23-.08.47-.12.7-.1.92-.06,1.73.11,2.25.03-.16.05-.31.08-.45.11-.55.33-1.05.71-1.48.63-.72,1.64-1.02,2.6-.51-.05.08-.1.16-.14.25-.19.46-.16.91.15,1.31.32.4.77.44,1.16.11.04-.03.08-.06.12-.09.07.35.19.7.21,1.06.06.88-.17,1.68-.76,2.36-.69.79-1.7.95-2.51.55-.05-.03-.11-.05-.17-.07.28.41.59.79.9,1.15.03.04.09.05.14.08.15.32.15.32.47.29.26-.03.52-.07.78-.11.16-.03.32-.08.48-.12.26-.09.52-.16.78-.26.66-.25,1.26-.6,1.81-1.05,1.23-1.02,1.74-2.37,1.79-3.93.02-.72-.05-1.44-.33-2.12-.15-.61-.46-1.14-.84-1.63-.6-.77-1.4-1.17-2.35-1.24-1.91-.15-3.46.59-4.68,2.04-.22.26-.34.56-.37.89Z" style="fill:#1c1c1c; stroke-width:0px;"/><path d="m94.5,94.84c.31.21.5.51.68.82.78,1.33.82,2.73.25,4.14-.46,1.11-1.37,1.76-2.5,2.11-1.1.33-2.2.28-3.29-.11-.04-.01-.08-.03-.12-.05-.02,0-.03-.02-.07-.05.16-.38.32-.77.48-1.14.21-.03.41-.06.6-.08.58-.09,1.03-.42,1.45-.81.78-.73,1.34-1.61,1.79-2.56.34-.72.64-1.45.71-2.26Z" style="fill:#e4e4e4; stroke-width:0px;"/><path d="m94.5,94.84c-.07.81-.37,1.54-.71,2.26-.46.95-1.01,1.84-1.79,2.56-.41.39-.87.71-1.45.81-.3-.02-.6-.04-.91-.06-.4-.18-.8-.33-1.18-.54-.89-.47-1.77-.95-2.65-1.45-.35-.2-.7-.41-1.02-.65-.72-.54-.8-1.07-.34-1.85.08-.14.16-.29.24-.44.1-.08.2-.16.31-.25.41-.46.9-.8,1.43-1.1,1.1-.62,2.28-.95,3.53-1.09.86-.09,1.71-.1,2.56.07.15.03.31.04.46.06,0,0,0,0,0,0,0,0-.01.02-.01.03,0,.02,0,.03.01.05.17.06.35.12.52.17.07.05.13.11.2.16.33.2.55.49.75.81.02.15.04.29.07.44Zm-5.62,3.96c-.04-.1-.07-.2-.13-.28-.21-.29-.42-.58-.64-.87-.3-.4-.69-.69-1.16-.84-.39-.12-.72.11-.75.52-.01.21.01.4.13.58.04.11.09.21.13.32.09.24.26.39.49.51.58.29,1.13.63,1.7.93.24.13.48.3.81.33-.17-.44-.28-.86-.58-1.19Zm-2.81-.57v.03s.03-.01.03-.01c0,0-.03-.01-.03-.01-.05-.24-.11-.47-.16-.71-.08-.34.14-.78.45-.93.31-.15.62-.09.92.04.62.27,1.03.77,1.41,1.3.45.63.86,1.29,1.04,2.06.03.13.11.22.27.23.39.02.77,0,1.1-.22.26-.18.51-.37.76-.57.06-.05.12-.13.14-.21.1-.42.23-.84.2-1.28,0-.18.03-.36.05-.54,0-.06.01-.13,0-.19-.13-.54,0-1.08.03-1.61,0-.07.04-.15.07-.21.12-.25.29-.44.59-.47.31-.03.52.13.65.37.1.18.14.4.21.6.02.05.03.11.06.2.22-.25.19-.55.32-.79,0-.18.01-.36,0-.54,0-.1-.03-.21-.08-.3-.13-.23-.3-.43-.53-.58-.5-.34-1.07-.49-1.65-.53-.92-.06-1.84-.06-2.76.13-1.29.27-2.5.72-3.54,1.57-.44.36-.82.77-1.07,1.29-.19.39-.14.74.16,1.05.13.13.3.24.44.36.3.17.6.34.89.51Zm6.35.52c.4-.44.69-.95.98-1.45.11-.19.16-.39.15-.61-.01-.19-.01-.38,0-.57.01-.24-.07-.46-.17-.67-.08-.15-.19-.27-.36-.27-.19,0-.36.14-.41.35-.04.18-.08.37-.08.56-.02.89.05,1.77-.1,2.66Z" style="fill:#110708; stroke-width:0px;"/><path d="m94.2,106.77c-.02-1.62-.42-3.15-1.17-4.58.46-.18.93-.36,1.34-.66.18-.14.36-.29.58-.46.04.29.08.53.11.78.14,1.23.07,2.44-.25,3.64-.12.46-.28.91-.61,1.28Z" style="fill:#e1e3e3; stroke-width:0px;"/><path d="m89.36,102.01c.46.94.84,1.9,1.08,2.92.21.92.34,1.86.28,2.81-.03.56-.08,1.12-.31,1.65-.1.23-.2.46-.45.66.05-.16.07-.26.1-.36.24-.7.35-1.42.37-2.15.04-1.78-.39-3.45-1.16-5.04-.04-.08-.09-.15-.13-.22.07-.09.15-.18.22-.27Z" style="fill:#a95050; stroke-width:0px;"/><path d="m85.61,104.61c.07.2.15.39.22.59.04.13.07.26.11.39-.63-.13-1.16-.45-1.74-.82.28-.04.5-.07.73-.1.23-.03.46-.05.69-.07Z" style="fill:#461d21; stroke-width:0px;"/><path d="m52.67,132.71s-.05.09-.08.13c.03-.04.05-.09.08-.13Z" style="fill:#a1a2a2; stroke-width:0px;"/><path d="m141.75,129.44c0,.1.01.2.02.3.05.8-.08,1.58-.25,2.36-.26,1.17-.59,2.32-1.03,3.44-.51,1.31-1.18,2.55-2.02,3.67-.76,1.01-1.66,1.88-2.71,2.58-.58.39-1.2.67-1.97.73.12-.07.19-.11.26-.14.99-.41,1.87-.99,2.67-1.71,1.14-1.01,2-2.22,2.71-3.55.76-1.42,1.29-2.93,1.67-4.5.25-1.03.45-2.07.55-3.12,0-.03.02-.05.03-.08.02,0,.04,0,.07,0Z" style="fill:#454545; stroke-width:0px;"/><path d="m130.72,108.32c-.1.35-.19.69-.3,1.04-.31,1-.51,2.01-.65,3.04-.08.6-.1,1.2-.14,1.81-.03.39-.05.78-.05,1.18,0,1.05.08,2.09.24,3.13.16,1.07.4,2.12.77,3.14.05.14.09.27.16.46-.19-.08-.24-.21-.3-.32-.27-.48-.44-.99-.57-1.51-.24-.93-.4-1.87-.47-2.82-.07-.93-.06-1.87-.08-2.8,0-.74.09-1.48.17-2.22.11-.92.28-1.82.53-2.71.11-.39.27-.76.44-1.13.05-.11.17-.2.26-.3h0Z" style="fill:#454545; stroke-width:0px;"/><path d="m136.38,129.46c1.59-3.44,2.5-7.04,2.48-10.86.03.08.07.16.09.24.16.68.17,1.36.08,2.05-.07.56-.13,1.11-.2,1.67-.13.96-.35,1.9-.63,2.82-.26.87-.56,1.74-.86,2.6-.16.46-.38.9-.69,1.28-.06.08-.13.15-.2.22-.02-.01-.04-.02-.06-.03Z" style="fill:#454545; stroke-width:0px;"/><path d="m128.49,118.97c-.32,3.03.36,5.83,1.84,8.49-.17-.02-.23-.13-.31-.22-.42-.49-.68-1.07-.91-1.67-.37-.97-.63-1.98-.81-3.01-.12-.73-.2-1.48-.14-2.22.03-.38.13-.75.21-1.12.02-.09.08-.17.12-.25Z" style="fill:#454545; stroke-width:0px;"/><path d="m134.29,135.11c.24-.21.48-.42.71-.64.78-.73,1.38-1.61,1.94-2.52.69-1.11,1.26-2.29,1.76-3.5.03-.07.07-.15.12-.26.05.33-.02.59-.1.86-.2.68-.54,1.29-.88,1.91-.34.62-.71,1.23-1.1,1.83-.42.64-.88,1.25-1.45,1.77-.29.26-.62.44-1,.54Z" style="fill:#454545; stroke-width:0px;"/><path d="m136.63,134.62c-.02.47-.23.86-.51,1.21-.46.56-.95,1.09-1.52,1.53-.93.73-1.93,1.32-3.11,1.51-.33.05-.67.04-1.02.02,2.74-.45,4.72-1.98,6.17-4.28Z" style="fill:#454545; stroke-width:0px;"/><path d="m125.6,139.88c2.12.78,4.25,1.04,6.41.09-.04.05-.08.1-.13.14-.51.38-1.08.6-1.7.65-.6.05-1.21.09-1.81.05-.82-.05-1.65-.17-2.39-.57-.15-.08-.27-.19-.41-.29.01-.02.02-.05.03-.07Z" style="fill:#454545; stroke-width:0px;"/><path d="m130.71,108.31s.02-.05.03-.08c0,.03-.01.06-.02.08,0,0,0,0,0,0Z" style="fill:#454545; stroke-width:0px;"/><path d="m94.5,152.45s.03.05.05.07c-.02-.02-.03-.04-.05-.07,0,0,0,0,0,0Z" style="fill:#484747; stroke-width:0px;"/><path d="m52.55,82.58c-.2.2-.41.4-.69.5-.43.15-.84.05-1.24-.12-.54-.23-1.01-.58-1.46-.97-1.27-1.12-2.28-2.46-3.2-3.87-1.06-1.62-1.96-3.33-2.73-5.12-.67-1.56-1.24-3.16-1.65-4.82-.03-.12-.07-.24-.11-.36,0-.06-.01-.13-.03-.19-.35-1.31-.58-2.65-.74-4-.13-1.05-.24-2.11-.34-3.16-.11-1.13-.14-2.27-.03-3.4.05-.47.11-.95.29-1.4.09-.22.18-.43.4-.56.15.01.3,0,.44.03.63.11,1.09.51,1.51.95.32.33.6.71.87,1.09.7.96,1.45,1.88,2.31,2.71.47.46.94.92,1.43,1.36.34.31.7.59,1.05.87.26.21.53.41.79.61,0,.02-.02.04-.02.06-.39-.07-.79-.13-1.21-.2.14.43,1.39,1.73,2.14,2.29.84.62,1.69,1.22,2.67,1.61-.25.07-.48.07-.72.03-.24-.04-.48-.07-.72-.1,0,0-.02-.01-.03-.02,0,0,.02,0,.03.01.16.19.3.39.47.56.73.72,1.52,1.36,2.41,1.86.52.3,1.08.53,1.63.79.48.23.98.42,1.43.69.35.21.66.51.72.96-.14.37-.44.53-.79.62-.38.1-.76.06-1.14-.03-1.02-.23-1.94-.68-2.73-1.37-.09-.08-.18-.14-.28-.21-.01,0-.02-.02-.03-.03,0,0,.01.02.02.03,0,.04,0,.09,0,.13-.14.26,0,.5.06.73.32,1.16,1.01,2.1,1.89,2.89.33.3.66.59.88.98-.15.26-.4.35-.67.37-.25.02-.51.03-.76-.02-.99-.18-1.85-.61-2.54-1.35-.07-.08-.16-.15-.26-.24-.01.08-.02.11-.02.14,0,.2-.04.4,0,.59.15.77.55,1.44.91,2.12.19.35.4.7.57,1.06.18.38.32.78.32,1.21-.15.05-.3.15-.44.14-.27-.02-.55-.05-.81-.15-.75-.29-1.42-.72-2-1.28-.14-.13-.26-.28-.38-.42l-.06.04c.03.07.07.15.11.22.26.47.52.95.79,1.42.55.97,1.09,1.95,1.48,3,.08.22.13.45.19.67Z" style="fill:#ff9f9f; stroke-width:0px;"/><path d="m53.31,70.31c.09.07.19.14.28.21.79.69,1.71,1.14,2.73,1.37.37.08.75.13,1.14.03.35-.09.65-.26.79-.62.22-.4.17-.78-.13-1.12-.16-.18-.35-.36-.55-.47-.56-.32-1.14-.63-1.72-.91-.87-.43-1.74-.85-2.48-1.49-.14-.12-.27-.26-.43-.42.34,0,.61.01.89,0,.26-.01.53-.04.79-.08.26-.04.51-.12.77-.19-.07-.07-.13-.09-.19-.11-1.74-.42-3.19-1.32-4.41-2.6-.13-.13-.23-.29-.34-.43.01-.02.03-.04.04-.06.62.19,1.25.26,1.9.22-.05-.06-.11-.1-.18-.13-.53-.28-1.07-.52-1.58-.84-2.17-1.37-4-3.12-5.6-5.12-.55-.68-1.12-1.34-1.77-1.93-.32-.29-.65-.55-1.06-.7-.42-.16-.81-.15-1.14.2-.21.13-.31.34-.4.56-.18.45-.25.92-.29,1.4-.11,1.13-.08,2.27.03,3.4.1,1.06.21,2.11.34,3.16.17,1.35.39,2.69.74,4,.02.06.02.13.03.19-.25-.34-.34-.75-.44-1.15-.26-.99-.46-2-.59-3.02-.11-.88-.21-1.77-.32-2.65-.15-1.17-.15-2.35-.11-3.53.02-.61.1-1.23.31-1.81.16-.44.42-.78.84-1,.29-.15.59-.15.9-.08.39.09.72.3,1.04.54.6.47,1.1,1.03,1.59,1.6.58.67,1.13,1.36,1.71,2.01,1.29,1.45,2.76,2.67,4.39,3.72.95.61,1.96,1.05,3.08,1.26-.43.13-.87.17-1.31.2-.44.02-.89,0-1.35-.02.13.2.32.36.5.51.87.71,1.83,1.27,2.9,1.63.63.21,1.27.33,1.94.19.06-.01.13,0,.27,0-.99.6-2,.88-3.15.95.15.12.23.2.33.26.41.24.82.5,1.24.72.62.33,1.26.62,1.88.95.34.18.66.39.96.62.29.22.47.52.55.87.11.46-.21,1.13-.65,1.39-.49.29-1.02.28-1.55.2-.79-.11-1.5-.45-2.19-.84-.04-.02-.09-.05-.19-.1.05.11.06.17.09.21.35.44.7.88,1.06,1.31.32.38.67.74.98,1.13.13.15.22.34.29.53.15.38.02.77-.32,1.01-.37.26-.79.32-1.24.28-.66-.07-1.26-.28-1.84-.59-.13-.07-.25-.14-.37-.21-.02.02-.03.03-.05.05.09.17.18.35.28.51.32.54.66,1.06.96,1.62.17.31.3.66.39,1,.13.52-.25,1.07-.78,1.22-.4.12-.79.02-1.15-.13-.39-.16-.76-.38-1.14-.57-.04-.02-.09-.04-.18-.02.05.1.09.2.15.3.57.97,1.08,1.98,1.47,3.04.29.79.44,1.6.35,2.44-.05.5-.27.91-.78,1.12.69-.92.65-1.9.29-2.92-.06-.22-.11-.45-.19-.67-.38-1.05-.92-2.03-1.48-3-.27-.47-.53-.95-.79-1.42-.04-.07-.07-.14-.11-.22l.06-.04c.13.14.25.29.38.42.58.56,1.25.99,2,1.28.25.1.53.14.81.15.14,0,.29-.09.44-.14.03-.02.06-.03.08-.05.29-.28.32-.62.2-.97-.12-.34-.28-.66-.46-.97-.4-.71-.83-1.41-1.23-2.12-.15-.28-.26-.58-.39-.87,0-.03,0-.06.02-.14.1.09.18.16.26.24.7.73,1.56,1.17,2.54,1.35.25.04.51.04.76.02.27-.02.52-.11.67-.37.18-.18.15-.39.07-.59-.08-.19-.2-.38-.34-.54-.37-.43-.75-.84-1.13-1.25-.48-.53-.92-1.09-1.21-1.74-.07-.16-.15-.33-.22-.49,0-.04,0-.09,0-.13,0,0,.01,0,.01,0Z" style="fill:#494545; stroke-width:0px;"/><path d="m63.9,84.81c-.06-.64.05-1.25.21-1.86.27-1.01.73-1.9,1.5-2.62,1.28-1.19,3.33-1.49,4.81-.7.12.07.24.15.34.29-.15.02-.31.04-.46.06-1.14.21-2.16.7-3.1,1.36-1.26.89-2.29,2-3.16,3.26-.05.07-.1.14-.15.21Z" style="fill:#1c1c1c; stroke-width:0px;"/><path d="m96.65,75.87c-.6-.23-1.18-.47-1.77-.67-.76-.25-1.54-.39-2.34-.43-1.09-.06-2.14.08-3.14.51-.02,0-.04,0-.09,0,.08-.29.25-.51.44-.72,1.08-1.23,2.96-1.82,4.7-.92.89.46,1.9,1.58,2.21,2.23Z" style="fill:#1c1c1c; stroke-width:0px;"/><path d="m71.27,83.6c-1.49.06-2.82.53-3.93,1.53-1.12,1.02-1.6,2.34-1.63,3.86-.11-.1-.13-.23-.14-.35-.1-.94.17-1.79.65-2.57.89-1.44,2.21-2.27,3.86-2.57.39-.07.8-.08,1.19.11Z" style="fill:#242424; stroke-width:0px;"/><path d="m88.24,64.12s.05.01.01,0c.03.02.01,0,0,0,0,0,0,0,0,0Z" style="fill:#494848; stroke-width:0px;"/><path d="m71.89,95.35c.09,0,.18,0,.27,0,0,0,0,0,0,0,0,.02,0,.04,0,.06-.09-.02-.18-.04-.27-.06Z" style="fill:#386f6c; stroke-width:0px;"/><path d="m71.57,95.28c.07.02.13.03.2.05-.07-.02-.13-.03-.2-.05Z" style="fill:#386f6c; stroke-width:0px;"/><path d="m67.55,87.5c.24-.79.74-1.39,1.42-1.86.6-.42,1.27-.63,1.98-.73,1.29-.18,2.55-.06,3.75.44,1.08.45,1.92,1.2,2.6,2.14.9,1.24,1.42,2.63,1.5,4.17,0,.1,0,.21-.01.32-.12,0-.13-.09-.15-.17-.27-.76-.57-1.5-.97-2.2-.34-.6-.74-1.15-1.19-1.68-.05-.05-.15-.07-.22-.1-.08-.09-.16-.17-.23-.26-.5-.57-1.11-.99-1.82-1.25-.14-.05-.28-.1-.42-.15.07-.11-.05-.1-.09-.11-.46-.15-.94-.27-1.43-.27-.51,0-1.02.02-1.52.06-.84.07-1.61.37-2.29.86-.24.18-.44.42-.66.63-.07.07-.17.12-.25.17Z" style="fill:#e1e3e3; stroke-width:0px;"/><path d="m67.55,87.5c.09-.06.18-.1.25-.17.22-.21.42-.45.66-.63.68-.49,1.45-.79,2.29-.86.51-.04,1.01-.06,1.52-.06.49,0,.96.12,1.43.27.04.01.15,0,.09.11-.06,0-.13-.01-.19-.02-1.43-.26-2.68.1-3.73,1.09-1.88,1.79-1.92,4.92-.09,6.81.07.07.14.13.2.21.01.02,0,.06-.02.1-.22-.16-.47-.29-.67-.47-1.09-1-1.73-2.25-2.01-3.69-.16-.87-.11-1.74.2-2.58.01-.04.04-.07.06-.11Z" style="fill:#fcfcfc; stroke-width:0px;"/><path d="m76.27,87.82c.07.03.17.04.22.1.44.53.84,1.08,1.19,1.68.4.7.7,1.44.97,2.2.03.08.04.17.15.17.07.96-.27,1.72-1.11,2.24-.8.5-1.66.79-2.58.95-.27.05-.55.07-.82.11.02-.04.04-.09.07-.11.19-.09.39-.17.58-.27,1.73-.96,2.64-3.04,2.23-5.04-.15-.74-.46-1.41-.9-2.02Z" style="fill:#fcfcfc; stroke-width:0px;"/><path d="m76.27,87.82c.44.61.75,1.28.9,2.02.41,2-.5,4.08-2.23,5.04-.18.1-.39.18-.58.27-.03.02-.05.07-.07.11-.42.05-.84.11-1.25.13-.29.01-.59-.03-.89-.05,0,0,0,0,0,0-.24-.08-.48-.14-.71-.24-.35-.15-.69-.33-1.03-.5-.1-.09-.2-.19-.3-.28-.04,0-.09,0-.13,0,0,0,0,0,0,0,0-.03.03-.08.02-.1-.06-.07-.13-.14-.2-.21-1.83-1.89-1.79-5.01.09-6.81,1.05-1,2.3-1.36,3.73-1.09.06.01.13.02.19.02.14.05.28.1.42.15.71.26,1.32.68,1.82,1.25.08.09.16.17.23.26Zm.7,3.07c-.02-1.5-.54-2.68-1.61-3.6-1.68-1.46-4.24-1.22-5.63.51-1.56,1.96-1.25,4.85.7,6.44,1.34,1.09,3.26,1.2,4.66.22,1.26-.88,1.84-2.13,1.87-3.56Z" style="fill:#386f6c; stroke-width:0px;"/><path d="m70.11,94.34c.1.09.2.19.3.28-.14-.08-.28-.15-.42-.23.04-.02.08-.03.12-.05Z" style="fill:#a1a2a2; stroke-width:0px;"/><path d="m70.11,94.34s-.08.03-.12.05c0-.01-.02-.02-.02-.03,0,0,0-.01,0-.02.04,0,.09,0,.13,0Z" style="fill:#fcfcfc; stroke-width:0px;"/><path d="m97.07,83.27c.28.68.35,1.4.33,2.12-.05,1.55-.56,2.91-1.79,3.93-.54.45-1.15.8-1.81,1.05-.25.1-.52.18-.78.26.03-.04.05-.1.09-.12.8-.42,1.36-1.06,1.7-1.87.72-1.73.57-3.4-.5-4.94-.76-1.09-1.81-1.68-3.18-1.62-.04-.02-.07-.03-.13-.06.05-.04.08-.07.11-.09.98-.4,1.97-.72,3.04-.5.4.08.8.2,1.18.36.63.27,1.08.76,1.5,1.29.06.08.15.13.23.19Z" style="fill:#fdfdfd; stroke-width:0px;"/><path d="m91.3,90.58s-.1-.04-.14-.08c-.31-.37-.62-.74-.9-1.15.06.02.11.04.17.07.81.39,1.82.24,2.51-.55.59-.68.82-1.48.76-2.36-.02-.35-.14-.7-.21-1.06.02-.05.05-.1.07-.14.21-.46.19-.91-.08-1.33-.27-.42-.77-.5-1.16-.2-.04.03-.09.06-.13.09-.96-.51-1.96-.21-2.6.51-.37.42-.6.92-.71,1.48-.03.15-.05.29-.08.45-.17-.53-.2-1.33-.11-2.25.11-.16.21-.32.33-.47.51-.64,1.15-1.08,1.97-1.19.99-.14,1.85.18,2.57.86,1.5,1.41,1.85,3.89.81,5.66-.49.83-1.18,1.43-2.15,1.61-.3.06-.61.04-.92.06Z" style="fill:#73fcf4; stroke-width:0px;"/><path d="m97.07,83.27c-.08-.06-.17-.12-.23-.19-.42-.53-.88-1.02-1.5-1.29-.37-.16-.78-.28-1.18-.36-1.07-.22-2.07.1-3.04.5-.04.01-.06.05-.11.09.06.03.09.04.13.06-.03.01-.06.03-.09.03-.81.08-1.47.46-2.03,1.04-.07.07-.14.13-.21.19.03-.34.15-.63.37-.89,1.22-1.46,2.77-2.19,4.68-2.04.95.07,1.76.47,2.35,1.24.38.49.7,1.01.84,1.63Z" style="fill:#e1e3e3; stroke-width:0px;"/><path d="m88.81,83.35c.07-.06.14-.12.21-.19.56-.58,1.21-.96,2.03-1.04.03,0,.06-.02.09-.03,1.36-.06,2.42.53,3.18,1.62,1.07,1.54,1.22,3.21.5,4.94-.34.82-.9,1.46-1.7,1.87-.04.02-.06.08-.09.12-.16.04-.32.09-.48.12-.26.05-.52.09-.78.11-.32.03-.32.03-.47-.29.31-.02.62,0,.92-.06.97-.19,1.66-.78,2.15-1.61,1.05-1.78.69-4.25-.81-5.66-.72-.68-1.58-.99-2.57-.86-.82.11-1.46.55-1.97,1.19-.12.15-.22.31-.33.47.04-.23.08-.47.12-.7Z" style="fill:#386f6c; stroke-width:0px;"/><path d="m92.18,83.87s.09-.06.13-.09c.39-.3.89-.22,1.16.2.27.42.3.87.08,1.33-.02.05-.05.1-.07.14-.04.03-.08.06-.12.09-.39.33-.85.29-1.16-.11-.31-.4-.34-.85-.15-1.31.03-.09.09-.17.14-.25Z" style="fill:#fdfdfd; stroke-width:0px;"/><path d="m89.55,81.58l-.08.07s.02-.08.02-.12c.02.02.04.03.05.05Z" style="fill:gray; stroke-width:0px;"/><path d="m92.97,93.25s-.01-.03-.01-.05c0,0,0-.02.01-.03,0,.03,0,.05,0,.08Z" style="fill:gray; stroke-width:0px;"/><path d="m85.18,97.72c-.15-.12-.31-.22-.44-.36-.3-.3-.35-.65-.16-1.05.25-.52.63-.93,1.07-1.29,1.04-.85,2.24-1.3,3.54-1.57.91-.19,1.84-.19,2.76-.13.58.04,1.15.19,1.65.53.23.15.4.35.53.58.05.09.07.2.08.3.01.18,0,.36,0,.54-.16,0-.14-.15-.17-.23-.17-.43-.49-.65-.95-.66-.57-.01-.96.3-1.25.74-.19.28-.33.6-.55.86-.5.63-1.19.75-1.93.59-.53-.11-1.03-.32-1.55-.48-.62-.2-1.24-.25-1.86.01-.11.05-.23.11-.32.19-.34.31-.46.69-.38,1.14.02.08-.03.18-.05.26Zm4.9-4.05c-.49-.01-.95.11-1.4.26-.27.09-.53.22-.76.39-.21.15-.16.33.09.41.1.03.21.04.31.05.45.04.89-.04,1.32-.14.38-.1.76-.21,1.07-.47.07-.06.13-.18.13-.26,0-.06-.12-.14-.2-.16-.18-.04-.38-.05-.56-.07Z" style="fill:#461d21; stroke-width:0px;"/><path d="m85.18,97.72c.02-.09.06-.18.05-.26-.09-.45.03-.84.38-1.14.09-.08.21-.14.32-.19.62-.27,1.24-.21,1.86-.01.51.16,1.02.37,1.55.48.73.15,1.43.03,1.93-.59.21-.26.36-.58.55-.86.3-.44.68-.75,1.25-.74.46,0,.78.23.95.66.03.09.02.23.17.23-.13.24-.1.54-.32.79-.03-.09-.05-.15-.06-.2-.07-.2-.1-.42-.21-.6-.13-.24-.34-.41-.65-.37-.3.03-.47.23-.59.47-.03.07-.06.14-.07.21-.03.54-.17,1.07-.03,1.61.01.06,0,.13,0,.19-.01.18-.06.36-.05.54.02.44-.1.86-.2,1.28-.02.08-.07.16-.14.21-.25.2-.5.39-.76.57-.33.23-.72.24-1.1.22-.16,0-.24-.1-.27-.23-.18-.77-.59-1.43-1.04-2.06-.38-.53-.79-1.03-1.41-1.3-.3-.13-.61-.2-.92-.04-.31.15-.52.59-.45.93.05.24.11.47.16.71-.3-.17-.6-.34-.89-.51Z" style="fill:#2d0f11; stroke-width:0px;"/><path d="m86.33,97.9c-.12-.18-.14-.37-.13-.58.03-.41.37-.64.75-.52.48.15.86.45,1.16.84.22.28.43.57.64.87.06.08.09.19.13.28-.3.11-.6.1-.9,0-.55-.18-1.05-.44-1.49-.82-.04-.04-.11-.05-.17-.08Z" style="fill:#1c080a; stroke-width:0px;"/><path d="m92.43,98.75c.15-.88.08-1.77.1-2.66,0-.19.03-.38.08-.56.05-.21.22-.35.41-.35.17,0,.28.12.36.27.11.21.19.42.17.67,0,.19-.01.38,0,.57.02.22-.04.42-.15.61-.29.5-.58,1-.98,1.45Z" style="fill:#1c080a; stroke-width:0px;"/><path d="m86.33,97.9c.06.03.12.04.17.08.44.38.94.64,1.49.82.3.1.6.1.9,0,.29.33.41.75.58,1.19-.33-.03-.57-.19-.81-.33-.57-.3-1.13-.64-1.7-.93-.23-.12-.4-.26-.49-.51-.04-.11-.09-.22-.13-.32Z" style="fill:#2d0f11; stroke-width:0px;"/><polygon points="86.07 98.22 86.1 98.24 86.09 98.25 86.07 98.22" style="fill:#2d0f11; stroke-width:0px;"/><path d="m41.05,55.11c.33-.35.73-.35,1.14-.2.4.15.74.41,1.06.7.65.59,1.22,1.25,1.77,1.93,1.6,2,3.43,3.75,5.6,5.12.5.32,1.05.56,1.58.84.06.03.12.07.18.13-.65.03-1.28-.03-1.9-.22-.01.02-.03.04-.04.06.11.14.21.3.34.43,1.22,1.29,2.68,2.18,4.41,2.6.06.01.12.04.19.11-.26.06-.51.14-.77.19-.26.05-.53.07-.79.08-.27.01-.55,0-.89,0,.17.16.29.3.43.42.74.64,1.61,1.06,2.48,1.49.58.29,1.15.59,1.72.91.21.12.39.29.55.47.3.33.34.72.13,1.12-.06-.46-.37-.75-.72-.96-.45-.27-.95-.46-1.43-.69-.54-.26-1.11-.5-1.63-.79-.89-.51-1.68-1.14-2.41-1.86-.17-.17-.31-.37-.47-.56h0c.24.03.48.07.72.1.24.04.47.04.72-.03-.98-.4-1.83-.99-2.67-1.61-.75-.56-1.99-1.86-2.14-2.29.42.07.81.13,1.21.2,0-.02.02-.04.02-.06-.26-.2-.53-.4-.79-.61-.35-.29-.71-.57-1.05-.87-.49-.44-.96-.9-1.43-1.36-.85-.83-1.61-1.74-2.31-2.71-.27-.38-.55-.76-.87-1.09-.42-.43-.88-.84-1.51-.95-.15-.02-.29-.02-.44-.03Z" style="fill:#e37f7f; stroke-width:0px;"/><path d="m53.3,70.44c.07.16.15.33.22.49.3.65.74,1.21,1.21,1.74.38.42.76.83,1.13,1.25.14.16.25.34.34.54.09.19.12.41-.07.59-.22-.39-.55-.68-.88-.98-.88-.79-1.58-1.72-1.89-2.89-.06-.23-.2-.48-.06-.73Z" style="fill:#e37f7f; stroke-width:0px;"/><path d="m51.89,73.95c.13.29.24.59.39.87.4.71.83,1.41,1.23,2.12.18.31.34.64.46.97.12.35.09.69-.2.97-.02.02-.05.03-.08.05,0-.43-.14-.83-.32-1.21-.17-.36-.38-.7-.57-1.06-.36-.68-.76-1.35-.91-2.12-.04-.19,0-.39,0-.59Z" style="fill:#e37f7f; stroke-width:0px;"/><path d="m53.3,70.31s-.01-.02-.02-.03c.01,0,.02.02.03.03,0,0-.01,0-.01,0Z" style="fill:#e37f7f; stroke-width:0px;"/><path d="m51.59,66.42s-.02,0-.03-.01c0,0,.02.01.03.02,0,0,0,0,0,0Z" style="fill:#e37f7f; stroke-width:0px;"/><path d="m76.97,90.89c-.03,1.43-.61,2.68-1.87,3.56-1.4.98-3.32.88-4.66-.22-1.95-1.58-2.26-4.47-.7-6.44,1.38-1.74,3.95-1.97,5.63-.51,1.06.93,1.59,2.1,1.61,3.6Zm-2.94-2.99c-.09-.03-.18-.06-.27-.09-1.08-.32-2.05-.12-2.86.65-.98.94-1.22,2.11-.84,3.4.38,1.3,1.57,2.18,2.86,2.18,1.31,0,2.44-.88,2.83-2.21.24-.79.17-1.57-.15-2.33.36-.6.35-1.13,0-1.62-.32-.46-1.09-.54-1.4-.11-.04.06-.11.09-.17.14Z" style="fill:#73fcf4; stroke-width:0px;"/><path d="m90.08,93.67c.19.02.38.03.56.07.08.02.2.1.2.16,0,.09-.06.2-.13.26-.31.26-.69.37-1.07.47-.43.11-.87.19-1.32.14-.1,0-.21-.02-.31-.05-.25-.08-.31-.26-.09-.41.23-.16.49-.3.76-.39.45-.15.92-.27,1.4-.26Z" style="fill:#494545; stroke-width:0px;"/><path d="m75.6,89.5c.32.76.38,1.54.15,2.33-.39,1.33-1.52,2.21-2.83,2.21-1.3,0-2.48-.87-2.86-2.18-.38-1.28-.14-2.45.84-3.4.81-.78,1.79-.97,2.86-.65.09.03.18.06.27.08-.02.07-.03.14-.05.21-.09.25-.09.5-.03.75.12.56.6.95,1.11.87.19-.03.36-.15.54-.24Z" style="fill:#181818; stroke-width:0px;"/><path d="m75.6,89.5c-.18.08-.35.21-.54.24-.51.08-.99-.31-1.11-.87-.05-.25-.05-.5.03-.75.02-.07.04-.14.05-.21.06-.05.13-.08.17-.14.32-.42,1.08-.35,1.4.11.35.5.36,1.02,0,1.62Z" style="fill:#fdfdfd; stroke-width:0px;"/></g></g></svg>