<?xml version="1.0" encoding="UTF-8"?><svg id="_Слой_2" xmlns="http://www.w3.org/2000/svg" width="82.28" height="107.44" viewBox="0 0 82.28 107.44"><g id="_Слой_1-2"><path d="m6.45,23.24C.97,50.93,2.89,103.58,2.94,104.33c24.78-.09,50.54-.19,75.32-.28.7-23.8,1.41-47.59,2.11-71.39C75.32,15.13,59.84,2.93,42.57,2.45c-14.64-.41-28.53,7.66-36.12,20.8Z" style="fill:#442c16; stroke-width:0px;"/><path d="m82.28,107.44H.27l-.27-75.35.11-.39C5.27,12.77,22.49-.29,42,0c19.79.27,35.87,14.6,40,34.08l.28,73.36Zm-76.03-6h70.11l-.17-66.44c-3.68-16.59-17.37-28.77-34.28-29-.17,0-.34,0-.51,0-16.42,0-30.88,10.97-35.4,26.89l.25,68.55Z" style="fill:#ba661a; stroke-width:0px;"/><path d="m51.04,93.11c-.32.43-2.02,2.3-3.15,3.54-.3.33-.58.69-.82,1.07h4.24c.64.26,1.3.47,1.97.61l2.13.45,3.06.35,1.78.39,3.33.35,2.19.35,2.14.53,2.01.61,1.33.24c.42.07.84.07,1.25-.01l.74-.15c.24-.05.46-.18.62-.36h0c.29-.34.36-.8.18-1.2-.1-.23-.29-.42-.51-.53l-.27-.13c-.34-.17-.72-.24-1.1-.19l-.57.06c-.27.03-.55.03-.82,0l-1.37-.13c-1-.12-1.99-.34-2.94-.67l-.21-.07,4.56-.09,2.51.31,1.8.46c.17.04.35.07.52.07h.32c.38,0,.75-.16,1.01-.44.23-.25.37-.59.37-.93,0-.41-.18-.8-.5-1.06l-.36-.29c-.21-.17-.46-.31-.72-.4l-.88-.3-.2-.04c-.89-.2-1.82-.22-2.72-.06-.4.07-.8.11-1.21.11h-2.1c-1.48,0-2.95-.12-4.41-.35l-2.24-.31c1.22-.44,2.4-.97,3.53-1.58l2.26-1.22,1.45-.97c1.03-.69,1.95-1.54,2.71-2.52l.05-.07c.47-.6.88-1.25,1.21-1.94l.54-1.12c.36-.75.55-1.56.55-2.39v-.09c0-.73-.16-1.45-.46-2.11v-.03c-.36-.76-.9-1.42-1.57-1.91-.62-.45-1.33-.76-2.09-.89l-.45-.08c-.96-.17-1.95-.12-2.9.12l-.87.23c-.8.21-1.58.51-2.31.89l-1.3.68c-1.13.59-2.16,1.34-3.08,2.22-.81.78-1.52,1.65-2.11,2.61l-1.8,2.9c-1.31,1.64-4.02,5.03-4.38,5.52Z" style="fill:#93c63a; stroke:#15582a;"/><path d="m72.45,84.21l-.07.13c-.22.43-.59.76-1.03.95h0c-.24.1-.5.15-.75.15h-.26c-.53,0-1.05.13-1.52.38l-.98.52c-.42.22-.82.48-1.2.78l-3.36,2.67-2.69,2.19-3.56,2.85" style="fill:none; stroke:#15582a; stroke-linecap:round;"/><path d="m75.82,95.83h0c-.55-.18-1.16-.08-1.73.02l-.69.12c-.44.1-1.37.31-1.55.31h-2.19l-1.92-.09-3.01-.22-2.15-.26" style="fill:none; stroke:#15582a; stroke-linecap:round;"/><path d="m66.42,98.24l-1.32-.53-1.41-.57-1.14-.39-1.64-.57" style="fill:none; stroke:#15582a; stroke-linecap:round;"/><path d="m21.8,78.82l3.96,3.03,6.66,12.23.44.98c.07.17.11.35.11.53v.02c0,.29-.1.57-.29.8-.17.2-.4.35-.65.41-.61.15-1.41.34-1.52.34-.76,0-1.49-.29-2.04-.82l-.2-.19c-.27-.26-.58-.48-.92-.64l-2.09-1.02-1.73-.96-1.1-.48-1.64-.96-.29-.2c-.96-.68-1.86-1.45-2.68-2.29l-1.14-1.53-.87-1.53-.32-.57-1.37-1.89-.52-.86c-.37-.61-.52-1.32-.43-2.02.06-.44.21-.86.44-1.24l.06-.1c.3-.48.7-.89,1.18-1.19l.19-.12c.51-.32,1.07-.53,1.66-.63l.21-.04c.6-.1,1.21-.11,1.82-.03l1.04.15c.31.05.62.12.91.23.4.15.78.36,1.12.62Z" style="fill:#93c63a; stroke:#15582a;"/><path d="m17.68,86.23h0c.72,0,1.42.19,2.04.55l.42.24,1.41.92.68.39,3.02,1.62c1.36.73,2.64,1.6,3.83,2.59h0l2.37,1.67h0c.51.35.97.78,1.34,1.27l.16.22" style="fill:none; stroke:#15582a; stroke-linecap:round;"/><path d="m52.28,65.62l-1.87-3.03-27.52.79c-.46.72-.58,1.61-.33,2.43l.74,2.35c.81,1.94,1.23,4.02,1.23,6.12v1.9l.1.99c.23,2.23.7,4.42,1.4,6.55l1.55,3.16.33.54c1.54,2.56,3.28,4.99,5.2,7.29l.09.11,1.27,1.26c.85.85,1.84,1.54,2.92,2.06l.35.17c1.22.59,2.55.89,3.9.89h.93c.9,0,1.79-.12,2.66-.34,2.17-.57,4.1-1.83,5.5-3.59l.51-.64c.68-.86,1.26-1.8,1.7-2.81l.77-1.73c.68-1.54,1.51-3.02,2.46-4.42l.58-.84,2.1-2.59c-.39-2.39-1.09-4.72-2.06-6.93l-.04-.09-1.23-3.24-1.64-3.38-1.6-2.98Z" style="fill:#93c63a; stroke:#15582a;"/><path d="m30.29,67.27l-1.3-.34c-1.62-.43-3.15-1.15-4.51-2.14l.33,1.17c.77,2.75.88,5.64.31,8.43l-.06.3c-.38,1.86-.42,3.78-.12,5.65.12.74.29,1.47.52,2.18l.48,1.53c.4,1.27.92,2.5,1.57,3.67.51.93,1.1,1.82,1.75,2.66l1.44,1.85,3.61,3.55,2.07,1.58c.86.66,1.84,1.16,2.88,1.48.86.26,1.76.4,2.66.4h.9c.96,0,1.9-.14,2.82-.42l.69-.21c1.64-.5,3.07-1.54,4.05-2.96.72-1.04,1.17-2.24,1.3-3.5l.43-3.96v-1.69c0-2.58-.6-5.13-1.76-7.43-.53-1.05-1.16-2.04-1.9-2.95l-.76-.94c-.95-1.17-1.99-2.27-3.11-3.27l-.32-.29-1.49-1.46c-.76-.74-1.12-1.79-.97-2.84l-.38.08c-2.5.55-5.07.71-7.62.46l-.27-.03c-1.09-.11-2.16-.3-3.22-.58Z" style="fill:#fef495; stroke:#15582a;"/><path d="m21.42,64.45v-.89l2.28,1.27,2.14,16.48v.31c0,1.08-.08,2.15-.23,3.22-.15,1.07-.23,2.14-.23,3.22v.79l.46,3.77.46,2.63c.35,0,.68.15.91.41l.6.68.88,1.24c.2.28.45.53.73.73.53.37,1.15.57,1.8.57h.63c.34,0,.61.28.61.61,0,.19-.09.37-.25.49l-.38.29c-.27.21-.61.32-.95.32h-1.16c-.44,0-.6-.63-.94-.89l-.19-.15c-.13-.1-.26-.18-.4-.26l-.05-.03c-.49-.26-1.03-.39-1.58-.39h-.26l-.48.64c-.29.39-.62.74-.99,1.06l-.79.68c-.26.22-.46.5-.59.82l-.06.13c-.24.58-.75,1-1.36,1.13l-.18.04c-.31.07-.64.02-.92-.12l-.32-.17c-.26-.13-.42-.4-.42-.69,0-.28.15-.53.38-.67l.56-.33c.16-.1.31-.21.44-.35l.86-.93.59-.7-8.99.13-1.51.74c-.42.21-.87.35-1.34.43l-.33.05c-.38.06-.76.05-1.14-.03l-.42-.09c-.16-.03-.31-.1-.44-.2l-.29-.22c-.1-.07-.15-.18-.15-.3,0-.21-.17-.38-.38-.38h-.75c-.21,0-.42-.06-.6-.19-.4-.28-.56-.79-.39-1.25v-.03c.1-.24.28-.44.51-.57l.47-.26c.56-.3,1.21-.39,1.83-.24l1.19.29,1.08.22c.59.12,1.19.18,1.79.18.85,0,1.7-.12,2.52-.36l3.46-1,3.7-1.1-1.12-3.44c-1.01-3.12-1.53-6.38-1.53-9.67,0-1.81.17-3.61.52-5.39l.71-3.69.46-3.81c.12-.96.05-1.93-.2-2.86-.17-.64-.26-1.29-.26-1.95Z" style="fill:#93c63a; stroke:#15582a; stroke-linejoin:round;"/><path d="m10.52,98.64v-.49h-.05s.05.49.05.49Zm5.02-.7l-.12-.47h-.02s-.02.01-.02.01l.16.46Zm2.51-.66l.12.47h.01s.01,0,.01,0l-.15-.47Zm1.93-.1c.26-.08.4-.36.32-.61-.08-.26-.36-.4-.61-.32l.3.93Zm-10.96,1.75l-.25-.42.25.42Zm.11.5l.13-.08-.5-.84-.13.08.5.84Zm.51-.2l.93-.1-.1-.97-.93.1.1.97Zm.88-.1h1.37v-.98h-1.37v.98Zm4.72-.57l.46-.16-.32-.92-.46.16.32.92Zm.42-.15l2.51-.66-.25-.95-2.51.66.25.95Zm2.54-.66l1.78-.57-.3-.93-1.78.57.3.93Zm-6.31,1.38c1.14,0,2.28-.19,3.36-.57l-.32-.92c-.97.34-2,.51-3.03.51v.98Zm-2.62.22c.11-.07.24-.11.37-.12l-.1-.97c-.27.03-.53.11-.76.25l.5.84Zm-.42.48c.03-.17.13-.31.28-.4l-.5-.84c-.39.23-.66.62-.75,1.06l.96.18Z" style="fill:#15582a; stroke-width:0px;"/><path d="m17.87,49.52l1.23-.52-.23-.73c-.09-.28-.16-.56-.2-.84-.1-.62-.11-1.25-.02-1.86v-.1c.07-.36.15-.72.26-1.07l.34-1.08c.11-.36.28-.7.5-1l.33-.46c.22-.31.34-.68.34-1.07,0-.25.05-.49.15-.72l.19-.43c.2-.47.49-.9.85-1.26l.14-.14c.54-.55,1.2-.98,1.93-1.24l.2-.07c.65-.24,1.33-.36,2.02-.36.52,0,1.04.07,1.54.21l.08.02c.83.23,1.61.62,2.29,1.15l.66.51,1.37,1.4c.78-.35,1.63-.53,2.48-.53h4.82l1.6-1.18c.98-.66,2.14-1.01,3.32-1.01h1.18c.86,0,1.7.2,2.47.57.59.29,1.12.68,1.57,1.15l.23.24c.48.5.89,1.07,1.22,1.68.4.75.67,1.56.8,2.39l.08.54c.09.55.13,1.11.13,1.67v1.4l1.69,2.24,1.32,2.32.69,1.3c.36.68.62,1.4.76,2.15.19.96.19,1.95,0,2.91v.03c-.15.79-.42,1.55-.79,2.25l-.03.07c-.42.79-.96,1.51-1.61,2.13l-.54.52c-.72.7-1.52,1.3-2.39,1.82l-.38.23c-.95.56-1.94,1.03-2.98,1.4l-2.27.81-3.79.96-4.2.48h-1.19c-2,0-4-.16-5.97-.48l-.75-.21c-1.75-.5-3.43-1.21-5-2.11l-1.55-1.1-1.69-1.14-1.64-1.45c-1-.82-1.93-1.72-2.77-2.7l-.24-.28-.57-.86c-.26-.39-.48-.81-.67-1.24l-.17-.42c-.28-.66-.42-1.36-.42-2.07v-.13c0-.74.17-1.46.5-2.12.25-.5.58-.95.97-1.33l.1-.1c.5-.48,1.08-.86,1.71-1.13Z" style="fill:#93c63a; stroke:#15582a; stroke-linejoin:round;"/><ellipse cx="44.79" cy="46.11" rx="6.53" ry="7.63" style="fill:#1c6a35; stroke-width:0px;"/><ellipse cx="44.56" cy="46.9" rx="5.34" ry="6.23" style="fill:#fef495; stroke-width:0px;"/><ellipse cx="22.36" cy="44.74" rx="6.07" ry="3.37" transform="translate(-26.75 54.23) rotate(-74.38)" style="fill:#1c6a35; stroke-width:0px;"/><ellipse cx="22.21" cy="45.17" rx="4.91" ry="2.97" transform="translate(-27.3 54.28) rotate(-74.24)" style="fill:#fef495; stroke-width:0px;"/><ellipse cx="22.23" cy="46.09" rx="3.53" ry="2.13" transform="translate(-28.17 54.96) rotate(-74.24)" style="fill:#d67c2e; stroke-width:0px;"/><ellipse cx="22.26" cy="46.13" rx="2.19" ry="1.49" transform="translate(-28.24 54.73) rotate(-73.91)" style="fill:#1d1d1d; stroke-width:0px;"/><path d="m33.57,49.62c-.16.48-.83.95-.92.92-.09-.03-.37-.79-.21-1.27.16-.48.55-.8.86-.7.31.1.43.57.27,1.05Z" style="fill:#15582a; stroke-width:0px;"/><path d="m30.23,49.45c-.16.48-.83.95-.92.92-.09-.03-.37-.79-.21-1.27.16-.48.55-.8.86-.7.31.1.43.57.27,1.05Z" style="fill:#15582a; stroke-width:0px;"/><path d="m15.27,54.63l.13.81c.06.39.15.77.28,1.15l.05.15c.29.86.72,1.68,1.27,2.41l.25.33c.44.59.94,1.14,1.49,1.63l1.46,1.32c1.58,1.37,3.29,2.58,5.11,3.6l.14.08,1.15.54c.84.4,1.72.72,2.61.98.87.24,1.75.42,2.64.52l1.72.2h2.56l3.19-.35,3.61-.75.6-.17c2.24-.64,4.41-1.51,6.47-2.59l1.44-.96c.74-.49,1.36-1.13,1.84-1.87.36-.56.64-1.17.81-1.82l.22-.81c.13-.47.16-.96.1-1.45l-.03-.23c-.09-.71-.44-1.36-.97-1.85-.56-.51-1.29-.79-2.04-.79h-.81c-.38,0-.76.04-1.13.13l-1.28.29c-.45.1-.88.24-1.31.42-.73.31-1.5.51-2.29.58l-.37.03c-.57.05-1.14.05-1.71,0l-.48-.04c-.87-.07-1.73-.24-2.57-.51-.71-.23-1.4-.53-2.06-.89l-.84-.46c-1.43-.55-2.9-.99-4.4-1.31l-.62-.13c-.49-.07-1.57-.24-2.01-.31-1.08-.17-2.19-.13-3.26.12l-.8.19-1.87.61-1.38.51c-.55.21-1.16.2-1.71,0-.19-.07-.37-.17-.54-.29l-.62-.44c-.36-.26-.77-.45-1.2-.58l-.81-.23c-.36-.1-.74-.07-1.07.08-.47.21-.81.64-.91,1.15l-.05.28c-.04.24-.05.48-.01.72Z" style="fill:#fef495; stroke:#15582a;"/><ellipse cx="44.61" cy="47.08" rx="4.02" ry="3.86" style="fill:#d67c2e; stroke-width:0px;"/><ellipse cx="44.56" cy="47.12" rx="2.51" ry="2.41" style="fill:#1d1d1d; stroke-width:0px;"/><path d="m46.02,69.26v.16c0,.55.14,1.1.41,1.59l1.74,3.16,1.6,3.55,1.83,3.6c-.46,1.08-.82,2.2-1.08,3.34l-.74,3.2-1.6,5.44-.78,2.1c-.42,1.13-1.08,2.16-1.94,3.01-.94.94-2.1,1.63-3.37,2.03l-.3.1-2.09.5c-.19.05-.38.07-.57.07h-1.15c-.21,0-.4.12-.5.3-.14.27-.04.6.23.75l.46.25c.07.04.14.07.21.09l.29.08c.89.26,1.85.2,2.7-.18l.65-.29c.33-.15.67-.26,1.01-.34l1.15-.28c.34-.08.69-.12,1.04-.12.99,0,1.95.33,2.73.93l.21.16,1.88,1.41c.56.42,1.24.65,1.94.65h.31c.14,0,.28-.02.41-.07l.34-.11c.56-.18.84-.82.59-1.35l2.46,1.01,1.16.31c.5.13,1.04.02,1.44-.32l.02-.02c.46-.39,1.11-.47,1.66-.22l.2.09c.2.09.43.11.65.05l.17-.05c.54-.15.77-.78.46-1.24-.07-.1-.16-.19-.26-.25l-.66-.4c-.66-.4-1.41-.61-2.18-.61h-.08c-.41,0-.81-.06-1.21-.16l-2.42-.67c-1.68-.46-3.27-1.29-4.61-2.41l2.75-4.05c1.23-1.82,2.22-3.8,2.93-5.88l.3-.87c.4-1.16.66-2.35.79-3.57l.08-.76c.12-1.1.09-2.21-.07-3.31-.14-.88-.38-1.75-.72-2.58l-1.45-3.53-2.36-4.61c-.13-.26-.29-.51-.47-.74l-.51-.65c-.78-1-2.06-1.46-3.3-1.19l-.09.02c-.47.1-.91.32-1.28.63-.66.56-1.04,1.38-1.04,2.24Z" style="fill:#93c63a; stroke:#15582a;"/><path d="m59.12,103.72h0c.33-.27.28-.79-.1-.99l-.36-.19-1.23-.48-1.46-.35h0c-1.06-.29-2.1-.66-3.11-1.11l-.27-.12-1.92-1.14" style="fill:none; stroke:#15582a; stroke-linecap:round;"/><path d="m53.69,103.02l-.16-.16c-.47-.45-1.02-.8-1.62-1.03h0l-1.32-.44h0c-.6-.17-1.16-.48-1.63-.89l-.34-.29" style="fill:none; stroke:#15582a; stroke-linecap:round;"/><path d="m51.94,54.75c-.64-.47-1.42-.73-2.23-.73h-.27c-.25,0-.49.02-.74.06l-1.43.25c-.43.07-.85.18-1.27.32-.71.23-1.44.38-2.19.43l-1.24.09-1.35-.09c-.82-.05-1.62-.17-2.42-.37-.72-.17-1.42-.41-2.1-.69l-.76-.32-2.09-.62-2.8-.46c-.47-.05-1.53-.18-1.96-.23-1.06-.13-2.14-.1-3.19.09l-.77.14-1.82.46-1.37.39c-.53.15-1.09.15-1.62,0-.2-.06-.39-.14-.58-.24l-.5-.27c-.4-.22-.82-.37-1.27-.47l-.86-.19c-.28-.06-.58-.04-.85.05l-.08.03c-.46.16-.81.54-.93,1.01-.05.18-.05.37-.03.56.09-.09.2-.17.32-.23.54-.26,1.15-.33,1.72-.18l.82.21c.25.06.49.14.72.24l.93.39c.27.12.56.2.85.26.68.14,1.37.11,2.04-.08l.59-.17c.33-.09.66-.16,1-.2l2.83-.36h2.4c.32,0,1.5.28,2.05.42l1.26.31c.76.19,1.5.43,2.23.72.82.33,1.66.6,2.52.79l.89.2,2.09.19c.77.07,1.54.07,2.31,0,1.42-.13,2.83-.36,4.22-.71l1.21-.3,1.63-.5c.24-.08.5-.12.75-.14l.94-.07c.13,0,.27,0,.4.02Z" style="fill:#748937; fill-rule:evenodd; stroke-width:0px;"/><path d="m51.94,54.75l-.04.24.18-.44-.15.2Zm-3.24-.67l-.04-.24h0l.04.24Zm-1.43.25l.04.24h0l-.04-.24Zm-1.27.32l-.08-.23h0l.08.23Zm-2.19.43l-.02-.24h0l.02.24Zm-1.24.09l-.02.24h.02s.02,0,.02,0l-.02-.24Zm-1.35-.09l.02-.24h0l-.02.24Zm-2.42-.37l.06-.24h0l-.06.24Zm-2.1-.69l-.09.23h0l.09-.23Zm-.76-.32l.09-.23h-.01s-.01,0-.01,0l-.07.23Zm-2.09-.62l.07-.23h-.01s-.02,0-.02,0l-.04.24Zm-2.8-.46l.04-.24h0s0,0,0,0l-.03.24Zm-1.96-.23l.03-.24h0l-.03.24Zm-3.19.09l-.04-.24h0l.04.24Zm-.77.14l-.04-.24h0s0,0,0,0l.06.24Zm-1.82.46l-.06-.24h0s0,0,0,0l.07.24Zm-1.37.39l.07.24-.07-.24Zm-1.62,0l-.07.23h0l.07-.23Zm-.58-.24l.12-.21h0l-.12.21Zm-.5-.27l.12-.21h0l-.12.21Zm-1.27-.47l-.05.24.05-.24Zm-.86-.19l.05-.24h0l-.05.24Zm-.85.05l.08.23h0l-.08-.23Zm-.08.03l-.08-.23h0l.08.23Zm-.93,1.01l.24.06h0l-.24-.06Zm-.03.56l-.24.04.07.48.34-.35-.17-.17Zm.32-.23l.11.22h0l-.11-.22Zm1.72-.18l.06-.24h0l-.06.24Zm.82.21l-.06.24h0l.06-.24Zm.72.24l.1-.23h0l-.1.23Zm.93.39l.1-.23h0l-.1.23Zm.85.26l-.05.24h0l.05-.24Zm2.04-.08l.07.24h0l-.07-.24Zm.59-.17l-.07-.24h0l.07.24Zm1-.2l.03.24h0l-.03-.24Zm2.83-.36v-.24h-.03s.03.24.03.24Zm4.45.42l-.06.24h0s.06-.24.06-.24Zm1.26.31l.06-.24h0l-.06.24Zm2.23.72l.09-.23h0l-.09.23Zm2.52.79l-.05.24h0l.05-.24Zm.89.2l-.05.24h.02s.02,0,.02,0l.02-.24Zm2.09.19l-.02.24h0l.02-.24Zm2.31,0l.02.24h0l-.02-.24Zm4.22-.71l.06.24h0l-.06-.24Zm1.21-.3l.06.24h0s0,0,0,0l-.07-.23Zm1.63-.5l-.07-.23h0l.07.23Zm.75-.14l.02.24h0l-.02-.24Zm.94-.07l-.02-.24h0l.02.24Zm.54-.18c-.68-.5-1.51-.78-2.38-.78v.49c.76,0,1.49.25,2.08.69l.29-.39Zm-2.38-.78h-.27v.49h.27v-.49Zm-.27,0c-.26,0-.52.02-.78.07l.08.48c.23-.04.46-.06.69-.06v-.49Zm-.78.07l-1.43.25.08.48,1.43-.25-.08-.48Zm-1.43.25c-.44.08-.88.18-1.3.32l.15.46c.4-.13.82-.24,1.23-.31l-.08-.48Zm-1.3.32c-.69.23-1.4.37-2.13.42l.03.49c.76-.05,1.52-.2,2.25-.44l-.15-.46Zm-2.13.42l-1.24.09.03.49,1.24-.09-.03-.49Zm-1.2.09l-1.35-.09-.03.49,1.35.09.03-.49Zm-1.35-.09c-.8-.05-1.6-.17-2.37-.36l-.12.47c.81.2,1.63.32,2.46.37l.03-.49Zm-2.37-.36c-.7-.17-1.39-.4-2.06-.68l-.19.45c.69.29,1.4.53,2.13.7l.12-.47Zm-2.06-.68l-.76-.32-.19.45.76.32.19-.45Zm-.78-.33l-2.09-.62-.14.47,2.09.62.14-.47Zm-2.12-.63l-2.8-.46-.08.48,2.8.46.08-.48Zm-2.81-.46c-.47-.05-1.53-.18-1.95-.23l-.06.49c.43.05,1.48.17,1.96.23l.06-.49Zm-1.95-.23c-1.09-.13-2.18-.1-3.26.09l.09.48c1.03-.18,2.08-.21,3.11-.09l.06-.49Zm-3.26.09l-.77.14.09.48.77-.14-.09-.48Zm-.79.14l-1.82.46.12.47,1.82-.46-.12-.47Zm-1.83.46l-1.37.39.13.47,1.37-.39-.13-.47Zm-1.37.39c-.49.14-1,.14-1.49,0l-.14.47c.57.17,1.18.17,1.76,0l-.13-.47Zm-1.49,0c-.18-.05-.36-.13-.53-.22l-.23.43c.2.11.41.19.62.26l.14-.47Zm-.53-.22l-.5-.27-.23.43.5.27.23-.43Zm-.5-.27c-.42-.23-.87-.39-1.33-.49l-.1.48c.42.09.82.24,1.2.45l.23-.43Zm-1.33-.49l-.86-.19-.1.48.86.19.1-.48Zm-.86-.19c-.33-.07-.67-.05-.98.06l.16.46c.23-.08.48-.09.72-.04l.1-.48Zm-.98.06l-.08.03.16.46.08-.03-.16-.46Zm-.08.03c-.54.18-.95.63-1.09,1.18l.47.12c.1-.39.39-.71.77-.84l-.16-.46Zm-1.09,1.18c-.05.21-.06.44-.03.65l.48-.07c-.02-.15-.02-.31.02-.46l-.47-.12Zm.42.17c-.14.07-.27.16-.39.28l.35.34c.07-.07.16-.14.25-.18l-.21-.44Zm1.89-.2c-.63-.16-1.3-.09-1.89.2l.21.44c.48-.24,1.04-.29,1.56-.16l.12-.47Zm.82.21l-.82-.21-.12.47.82.21.12-.47Zm.76.25c-.25-.1-.5-.19-.76-.25l-.12.47c.23.06.46.14.69.23l.19-.45Zm.93.39l-.93-.39-.19.45.93.39.19-.45Zm.8.25c-.28-.05-.54-.14-.8-.25l-.19.45c.29.12.59.22.9.28l.1-.48Zm1.92-.07c-.63.18-1.29.2-1.92.07l-.1.48c.71.14,1.45.11,2.15-.08l-.13-.47Zm.59-.17l-.59.17.13.47.59-.17-.13-.47Zm1.03-.21c-.35.04-.69.11-1.03.21l.13.47c.32-.09.64-.15.96-.2l-.06-.48Zm2.83-.36l-2.83.36.06.48,2.83-.36-.06-.48Zm2.43,0h-2.4v.49h2.4v-.49Zm2.11.43c-.28-.07-.71-.18-1.12-.27-.2-.04-.4-.08-.57-.11-.16-.03-.32-.05-.42-.05v.49c.06,0,.17.01.34.04.16.03.35.07.55.11.4.09.83.19,1.1.26l.12-.47Zm1.26.31l-1.26-.31-.12.47,1.26.31.12-.47Zm2.26.73c-.73-.3-1.49-.55-2.26-.73l-.12.47c.75.18,1.48.42,2.19.71l.18-.45Zm2.48.78c-.85-.19-1.68-.45-2.48-.78l-.18.45c.83.34,1.68.61,2.56.8l.11-.48Zm.89.2l-.89-.2-.11.48.89.2.11-.48Zm2.06.18l-2.09-.19-.04.49,2.09.19.04-.49Zm2.26,0c-.75.07-1.51.07-2.26,0l-.04.49c.78.07,1.57.07,2.35,0l-.04-.49Zm4.18-.7c-1.37.34-2.77.57-4.18.7l.04.49c1.43-.13,2.86-.37,4.26-.71l-.12-.47Zm1.21-.3l-1.21.3.12.47,1.21-.3-.12-.47Zm1.62-.5l-1.63.5.14.47,1.63-.5-.14-.47Zm.81-.15c-.27.02-.54.07-.81.15l.14.47c.23-.07.46-.11.7-.13l-.04-.49Zm.94-.07l-.94.07.04.49.94-.07-.04-.49Zm.45.02c-.15-.02-.3-.03-.45-.02l.04.49c.11,0,.23,0,.34.01l.08-.48Z" style="fill:#15582a; stroke-width:0px;"/><path d="m48.62,62.07c0,4.43-8.81,5.48-13.37,5.48-5.7,0-13.65-3.74-13.65-5.48s8.13.9,12.69.9,14.33-6.07,14.33-.9Z" style="fill:rgba(255,249,195,.8); stroke-width:0px;"/><path d="m45.11,80c2.08,4.41,4.34,10.9-2.24,13.77-5.61,2.45-11.56-4.23-13.65-8.64-2.08-4.41-3.29-12.67,3.74-13.68,9.9-.53,10.06,4.14,12.14,8.55Z" style="fill:rgba(255,249,195,.8); stroke-width:0px;"/><ellipse cx="43.47" cy="45.67" rx=".78" ry="1.23" style="fill:#f3f3f3; stroke-width:0px;"/><ellipse cx="23.24" cy="45" rx="1.23" ry=".77" transform="translate(-25.49 58.8) rotate(-78.5)" style="fill:#f3f3f3; stroke-width:0px;"/><ellipse cx="45.43" cy="48.83" rx=".64" ry=".61" style="fill:#f5f5f5; stroke-width:0px;"/><ellipse cx="20.97" cy="47.52" rx=".64" ry=".61" style="fill:#f5f5f5; stroke-width:0px;"/><path d="m49.06,66.57h-.06c-.26,0-.51.05-.75.14-.32.12-.6.32-.82.57l-.11.12c-.31.35-.48.8-.48,1.27,0,.32.08.63.23.91l.75,1.4c.19.34.42.66.7.93.55.52.92,1.2,1.07,1.94l.15.74c.13.63.36,1.24.68,1.81l.95,1.66.76,1.03c.71.96,1.09,2.12,1.09,3.31,0,.39-.04.78-.12,1.17l-.14.66c-.21,1-.56,1.97-1.02,2.89l-.65,1.29-1.35,3.07-1.18,2.75-1.18,2.43-.32.64c-.51,1.01-1.27,1.87-2.22,2.49l-.3.2c-.07.05-.14.09-.22.12l-1.18.54c-.17.08-.25.28-.17.45.07.15.23.23.39.19l1.4-.34c.44-.11.91-.06,1.33.12l.62.28.78.43c.26.14.56.18.85.11l.13-.03c.06-.02.13-.04.18-.08.29-.21.28-.64,0-.84l-.43-.29c-.09-.06-.15-.17-.15-.28v-.06c0-.26.3-.41.51-.24l.71.44c.3.19.67.24,1.01.15l.25-.07c.09-.02.17-.07.23-.14l.12-.13c.11-.13.09-.33-.05-.43l-.36-.26c-.17-.12-.05-.39.15-.35.2.04.32-.22.16-.35l-1.03-.79.93-1.46,2.53-3.64c.78-1.18,1.43-2.45,1.92-3.78l.34-.92c.4-1.07.71-2.18.92-3.3l.15-.81c.13-.7.2-1.42.2-2.13,0-1-.13-2-.39-2.97l-.28-1.05-1.18-3.32-1.18-2.67-1.26-2.27-.78-1.4c-.31-.56-.78-1.03-1.34-1.36l-.27-.15c-.37-.21-.78-.32-1.21-.32Z" style="fill:rgba(165,212,83,.62); stroke-width:0px;"/><path d="m23.32,71.09l-.31-1.12c-.12-.44-.75-.41-.83.04,0,.03,0,.05,0,.08v.91c0,.5-.04,1-.11,1.5l-.23,1.6-.51,2.35-.34,2.43-.34,2.59v1.94l.34,2.91.34,2.18.51,2.18c.22.97.53,1.92.92,2.83l.17.4.76,1.62-.76.24-1.58.4c-.23.06-.42.2-.54.4-.1.16-.25.29-.43.36l-.74.29-1.88.6c-.09.03-.17.09-.22.18-.15.26.04.6.34.6h3.81c.09,0,.17,0,.26-.02l1.25-.2c.34-.05.65.21.65.55,0,.31.25.56.56.56h.11c.26,0,.49-.15.61-.38l.11-.23c.18-.37.56-.61.97-.61h.21c.08,0,.16-.01.24-.04.54-.17.73-.84.35-1.27l-.06-.07c-.05-.05-.1-.1-.16-.14l-.27-.18c-.32-.21-.59-.48-.82-.78l-.09-.12c-.43-.57-.71-1.25-.83-1.96-.19-1.13-.44-2.45-.59-2.64-1.07-1.37-.11-3.46-.34-5.18v-1.86c.11-1.21.34-3.69.34-3.88,0-1.4-.11-2.8-.32-4.18l-.02-.11-.32-1.61c-.12-.6-.18-1.21-.18-1.81v-1.17c0-.06,0-.13-.03-.19Z" style="fill:rgba(165,212,83,.62); stroke-width:0px;"/></g></svg>