<?xml version="1.0" encoding="UTF-8"?><svg id="_Слой_2" xmlns="http://www.w3.org/2000/svg" width="159.66" height="183.94" viewBox="0 0 159.66 183.94"><g id="_Слой_1-2"><path d="m159.66,40.76v92.52c0,4.83-3.94,8.74-8.78,8.69l-29.78-.31V40.32l30.83-5.94c4.01-.77,7.73,2.3,7.73,6.38Z" style="fill:#df432c; stroke-width:0px;"/><path d="m156.16,49.35v75.75c0,3.96-3.23,7.15-7.19,7.11l-18.6-.19c-3.2-.03-5.79-2.64-5.79-5.85V55.26c0-3.64,2.59-6.78,6.16-7.46l19.08-3.68c3.28-.63,6.33,1.88,6.33,5.22Z" style="fill:#f4b74f; stroke-width:0px;"/><path d="m146.51,132.23c-5.51-5.03-8.41-15.91-5.82-21.9,6.49,4.65,9.2,14.83,5.82,21.9Z" style="fill:#4a8625; stroke-width:0px;"/><path d="m147.18,48.05c1.52,8.34.75,14.77-4.06,20.32-.47.55-1.4,1.05-2.07,1-1.05-.08-.92-1.2-.92-1.98-.01-6.79,1.79-12.93,7.05-19.34Z" style="fill:#4a8625; stroke-width:0px;"/><path d="m130.48,129.77c-1.31-6.9.21-12.22,3.98-16.94.79-.99,1.76-2.39,3.2-1.68,1.15.57.72,2.1.53,3.16-1.01,5.57-3.01,10.69-7.7,15.45Z" style="fill:#4a8625; stroke-width:0px;"/><path d="m131.29,51.66c5.36,4.07,6.47,9.41,7.59,14.73.17.78.19,1.77-.81,2.09-1.13.36-1.89-.47-2.53-1.19-3.82-4.23-4.87-9.27-4.24-15.63Z" style="fill:#4a8625; stroke-width:0px;"/><path d="m145.79,79.85c-2.58-1.49-3.07.61-6.06.61s-3.32-1.84-5.9-.35c-2.58,1.49-1.15,2.7-2.65,5.29-1.49,2.58-3.59,1.95-3.59,4.94s1.62,2.63,3.12,5.21c1.49,2.58.37,3.81,2.96,5.3,2.58,1.49,3.08-.14,6.07-.14s3.34,1.38,5.92-.11,1.67-2.42,3.17-5.01,2.91-2.26,2.91-5.25-1.58-2.53-2.6-5.33c-1.08-2.95-.75-3.67-3.34-5.16Z" style="fill:#fefefd; stroke-width:0px;"/><circle cx="139.73" cy="89.86" r="1.85" style="fill:#fde46e; stroke-width:0px;"/><path d="m0,40.76v92.52c0,4.83,3.94,8.74,8.78,8.69l29.78-.31V40.32l-30.83-5.94c-4.01-.77-7.73,2.3-7.73,6.38Z" style="fill:#df432c; stroke-width:0px;"/><path d="m3.49,49.35v75.75c0,3.96,3.23,7.15,7.19,7.11l18.6-.19c3.2-.03,5.79-2.64,5.79-5.85V55.26c0-3.64-2.59-6.78-6.16-7.46l-19.08-3.68c-3.28-.63-6.33,1.88-6.33,5.22Z" style="fill:#f4b74f; stroke-width:0px;"/><path d="m13.15,132.23c5.51-5.03,8.41-15.91,5.82-21.9-6.49,4.65-9.2,14.83-5.82,21.9Z" style="fill:#4a8625; stroke-width:0px;"/><path d="m12.48,48.05c-1.52,8.34-.75,14.77,4.06,20.32.47.55,1.4,1.05,2.07,1,1.05-.08.92-1.2.92-1.98.01-6.79-1.79-12.93-7.05-19.34Z" style="fill:#4a8625; stroke-width:0px;"/><path d="m29.18,129.77c1.31-6.9-.21-12.22-3.98-16.94-.79-.99-1.76-2.39-3.2-1.68-1.15.57-.72,2.1-.53,3.16,1.01,5.57,3.01,10.69,7.7,15.45Z" style="fill:#4a8625; stroke-width:0px;"/><path d="m28.36,51.66c-5.36,4.07-6.47,9.41-7.59,14.73-.17.78-.19,1.77.81,2.09,1.13.36,1.89-.47,2.53-1.19,3.82-4.23,4.87-9.27,4.24-15.63Z" style="fill:#4a8625; stroke-width:0px;"/><path d="m14.04,80.15c2.58-1.49,2.9-.61,5.88-.61s3.45-1.14,6.04.35c2.58,1.49,1.83,2.47,3.32,5.05,1.49,2.58,2.38,2.42,2.38,5.4s-1.36,2.54-2.85,5.13c-1.49,2.58-.43,3.55-3.01,5.04-2.58,1.49-2.89.14-5.87.14-2.98,0-3.43,1.6-6.02.11-2.58-1.49-1.31-2.75-2.8-5.33-1.49-2.58-3.06-2.11-3.06-5.09s2.25-2.23,3.36-5,.05-3.7,2.64-5.19Z" style="fill:#fefefd; stroke-width:0px;"/><circle cx="19.93" cy="89.86" r="1.85" style="fill:#fde46e; stroke-width:0px;"/><path d="m27.98,17.36l9.44,28.22h84.7l8.13-28.22h-16.03C105.22,5.39,93.58-.91,79.48.11c-15.63,1.12-29.86,3.12-33.5,17.26h-18Z" style="fill:#ba661a; stroke-width:0px;"/><path d="m27.98,166.57l9.44-28.22h84.7l8.13,28.22h-16.03c-9.01,11.98-20.64,18.27-34.74,17.26-15.63-1.12-29.86-3.12-33.5-17.26h-18Z" style="fill:#ba661a; stroke-width:0px;"/><rect x="36.82" y="30.49" width="85.99" height="120.99" style="fill:#ba661a; stroke-width:0px;"/><rect x="49.96" y="44.84" width="58.03" height="29.83" rx="4.63" ry="4.63" style="fill:#96cfe7; stroke-width:0px;"/><rect x="38.4" y="90.21" width="50.23" height="26.44" rx="4.06" ry="4.06" transform="translate(166.95 39.91) rotate(90)" style="fill:#96cfe7; stroke-width:0px;"/><rect x="18.43" y="99.06" width="50.23" height="8.74" rx="2.33" ry="2.33" transform="translate(146.98 59.89) rotate(90)" style="fill:#fbb74c; stroke-width:0px;"/><rect x="89.28" y="99.06" width="50.23" height="8.74" rx="2.33" ry="2.33" transform="translate(217.82 -10.96) rotate(90)" style="fill:#fbb74c; stroke-width:0px;"/><rect x="38.83" y="34.2" width="81.07" height="7.38" rx="2.72" ry="2.72" transform="translate(158.73 75.78) rotate(180)" style="fill:#fbb74c; stroke-width:0px;"/><rect x="38.83" y="129.62" width="81.07" height="17.91" rx="4.24" ry="4.24" transform="translate(158.73 277.15) rotate(180)" style="fill:#fbb74c; stroke-width:0px;"/><rect x="28.91" y="55.51" width="29.26" height="8.74" rx="1.78" ry="1.78" transform="translate(103.42 16.33) rotate(90)" style="fill:#fbb74c; stroke-width:0px;"/><rect x="99.76" y="55.51" width="29.26" height="8.74" rx="1.78" ry="1.78" transform="translate(174.27 -54.51) rotate(90)" style="fill:#fbb74c; stroke-width:0px;"/><rect x="70.1" y="90.21" width="50.23" height="26.44" rx="4.06" ry="4.06" transform="translate(198.64 8.22) rotate(90)" style="fill:#96cfe7; stroke-width:0px;"/><path d="m37.84,27.12c.08.91.85,1.61,1.76,1.61h77.85c.77,0,1.45-.49,1.68-1.22l.35-1.08c.37-1.14-.48-2.32-1.68-2.32h-11.22c-.71,0-1.34-.43-1.63-1.08-4.72-10.54-15.29-17.26-26.63-16.89-10.43.34-19.87,6.62-24.45,16.15-.3.62-.91,1.03-1.6,1.03h-10.97c-2.04,0-3.65,1.75-3.47,3.79h0Z" style="fill:#f8d77e; stroke-width:0px;"/><path d="m64.33,22.26c-2.57-3.63,1.93-7.63,3.17-8.37,11.52-6.88,22.5-1.16,26.54,2.8.66.65,2.32,2.27,2.01,4.01-.23,1.28-1.37,2.22-1.91,2.35-3.81.96-24.14,2.52-29.81-.79Z" style="fill:#ba661a; stroke-width:0px;"/><path d="m66.73,21.52c-2.17-3.07,1.63-6.44,2.68-7.07,9.73-5.81,19.01-.98,22.42,2.37.56.55,1.96,1.92,1.69,3.38-.2,1.08-1.16,1.87-1.61,1.99-3.22.81-20.39,2.13-25.18-.67Z" style="fill:#df432c; stroke-width:0px;"/><path d="m37.84,155.32c.08-.91.85-1.61,1.76-1.61h77.85c.77,0,1.45.49,1.68,1.22l.35,1.08c.37,1.14-.48,2.32-1.68,2.32h-11.22c-.71,0-1.34.43-1.63,1.08-4.72,10.54-15.29,17.26-26.63,16.89-10.43-.34-19.87-6.62-24.45-16.15-.3-.62-.91-1.03-1.6-1.03h-10.97c-2.04,0-3.65-1.75-3.47-3.79h0Z" style="fill:#f8d77e; stroke-width:0px;"/><path d="m64.33,160.18c-2.57,3.63,1.93,7.63,3.17,8.37,11.52,6.88,22.5,1.16,26.54-2.8.66-.65,2.32-2.27,2.01-4.01-.23-1.28-1.37-2.22-1.91-2.35-3.81-.96-24.14-2.52-29.81.79Z" style="fill:#ba661a; stroke-width:0px;"/><path d="m66.73,160.92c-2.17,3.07,1.63,6.44,2.68,7.07,9.73,5.81,19.01.98,22.42-2.37.56-.55,1.96-1.92,1.69-3.38-.2-1.08-1.16-1.87-1.61-1.99-3.22-.81-20.39-2.13-25.18.67Z" style="fill:#df432c; stroke-width:0px;"/></g></svg>