<?xml version="1.0" encoding="UTF-8"?><svg id="_Слой_2" xmlns="http://www.w3.org/2000/svg" width="159.66" height="183.94" xmlns:xlink="http://www.w3.org/1999/xlink" viewBox="0 0 159.66 183.94"><defs><radialGradient id="_Безымянный_градиент_3" cx="70.43" cy="3791.24" fx="70.43" fy="3791.24" r="6.67" gradientTransform="translate(160.29 3864.06) rotate(-180)" gradientUnits="userSpaceOnUse"><stop offset="0" stop-color="#f6b8c0"/><stop offset="1" stop-color="#e69a9b"/></radialGradient><radialGradient id="_Безымянный_градиент_3-2" cx="80.8" cy="3795.24" fx="80.8" fy="3795.24" r="6.9" xlink:href="#_Безымянный_градиент_3"/><radialGradient id="_Безымянный_градиент_3-3" cx="85.71" cy="3773.66" fx="85.71" fy="3773.66" r="1.53" xlink:href="#_Безымянный_градиент_3"/></defs><g id="_Слой_1-2"><path d="m159.66,40.76v92.52c0,4.83-3.94,8.74-8.78,8.69l-29.78-.31V40.32l30.83-5.94c4.01-.77,7.73,2.3,7.73,6.38Z" style="fill:#df432c; stroke-width:0px;"/><path d="m156.16,49.35v75.75c0,3.96-3.23,7.15-7.19,7.11l-18.6-.19c-3.2-.03-5.79-2.64-5.79-5.85V55.26c0-3.64,2.59-6.78,6.16-7.46l19.08-3.68c3.28-.63,6.33,1.88,6.33,5.22Z" style="fill:#f4b74f; stroke-width:0px;"/><path d="m146.51,132.23c-5.51-5.03-8.41-15.91-5.82-21.9,6.49,4.65,9.2,14.83,5.82,21.9Z" style="fill:#4a8625; stroke-width:0px;"/><path d="m147.18,48.05c1.52,8.34.75,14.77-4.06,20.32-.47.55-1.4,1.05-2.07,1-1.05-.08-.92-1.2-.92-1.98-.01-6.79,1.79-12.93,7.05-19.34Z" style="fill:#4a8625; stroke-width:0px;"/><path d="m130.48,129.77c-1.31-6.9.21-12.22,3.98-16.94.79-.99,1.76-2.39,3.2-1.68,1.15.57.72,2.1.53,3.16-1.01,5.57-3.01,10.69-7.7,15.45Z" style="fill:#4a8625; stroke-width:0px;"/><path d="m131.29,51.66c5.36,4.07,6.47,9.41,7.59,14.73.17.78.19,1.77-.81,2.09-1.13.36-1.89-.47-2.53-1.19-3.82-4.23-4.87-9.27-4.24-15.63Z" style="fill:#4a8625; stroke-width:0px;"/><path d="m145.79,79.85c-2.58-1.49-3.07.61-6.06.61s-3.32-1.84-5.9-.35c-2.58,1.49-1.15,2.7-2.65,5.29-1.49,2.58-3.59,1.95-3.59,4.94,0,2.98,1.62,2.63,3.12,5.21,1.49,2.58.37,3.81,2.96,5.3,2.58,1.49,3.08-.14,6.07-.14s3.34,1.38,5.92-.11c2.58-1.49,1.67-2.42,3.17-5.01s2.91-2.26,2.91-5.25c0-2.98-1.58-2.53-2.6-5.33-1.08-2.95-.75-3.67-3.34-5.16Z" style="fill:#fefefd; stroke-width:0px;"/><circle cx="139.73" cy="89.86" r="1.85" style="fill:#fde46e; stroke-width:0px;"/><path d="m0,40.76v92.52c0,4.83,3.94,8.74,8.78,8.69l29.78-.31V40.32l-30.83-5.94c-4.01-.77-7.73,2.3-7.73,6.38Z" style="fill:#df432c; stroke-width:0px;"/><path d="m3.49,49.35v75.75c0,3.96,3.23,7.15,7.19,7.11l18.6-.19c3.2-.03,5.79-2.64,5.79-5.85V55.26c0-3.64-2.59-6.78-6.16-7.46l-19.08-3.68c-3.28-.63-6.33,1.88-6.33,5.22Z" style="fill:#f4b74f; stroke-width:0px;"/><path d="m13.15,132.23c5.51-5.03,8.41-15.91,5.82-21.9-6.49,4.65-9.2,14.83-5.82,21.9Z" style="fill:#4a8625; stroke-width:0px;"/><path d="m12.48,48.05c-1.52,8.34-.75,14.77,4.06,20.32.47.55,1.4,1.05,2.07,1,1.05-.08.92-1.2.92-1.98.01-6.79-1.79-12.93-7.05-19.34Z" style="fill:#4a8625; stroke-width:0px;"/><path d="m29.18,129.77c1.31-6.9-.21-12.22-3.98-16.94-.79-.99-1.76-2.39-3.2-1.68-1.15.57-.72,2.1-.53,3.16,1.01,5.57,3.01,10.69,7.7,15.45Z" style="fill:#4a8625; stroke-width:0px;"/><path d="m28.36,51.66c-5.36,4.07-6.47,9.41-7.59,14.73-.17.78-.19,1.77.81,2.09,1.13.36,1.89-.47,2.53-1.19,3.82-4.23,4.87-9.27,4.24-15.63Z" style="fill:#4a8625; stroke-width:0px;"/><path d="m14.04,80.15c2.58-1.49,2.9-.61,5.88-.61s3.45-1.14,6.04.35c2.58,1.49,1.83,2.47,3.32,5.05,1.49,2.58,2.38,2.42,2.38,5.4,0,2.98-1.36,2.54-2.85,5.13-1.49,2.58-.43,3.55-3.01,5.04-2.58,1.49-2.89.14-5.87.14-2.98,0-3.43,1.6-6.02.11s-1.31-2.75-2.8-5.33c-1.49-2.58-3.06-2.11-3.06-5.09s2.25-2.23,3.36-5c1.13-2.82.05-3.7,2.64-5.19Z" style="fill:#fefefd; stroke-width:0px;"/><circle cx="19.93" cy="89.86" r="1.85" style="fill:#fde46e; stroke-width:0px;"/><path d="m27.98,17.36l9.44,28.22h84.7l8.13-28.22h-16.03C105.22,5.39,93.58-.91,79.48.11c-15.63,1.12-29.86,3.12-33.5,17.26h-18Z" style="fill:#ba661a; stroke-width:0px;"/><path d="m27.98,166.57l9.44-28.22h84.7l8.13,28.22h-16.03c-9.01,11.98-20.64,18.27-34.74,17.26-15.63-1.12-29.86-3.12-33.5-17.26h-18Z" style="fill:#ba661a; stroke-width:0px;"/><rect x="36.82" y="30.49" width="85.99" height="120.99" style="fill:#ba661a; stroke-width:0px;"/><rect x="18.43" y="99.06" width="50.23" height="8.74" rx="2.33" ry="2.33" transform="translate(146.98 59.89) rotate(90)" style="fill:#fbb74c; stroke-width:0px;"/><rect x="89.28" y="99.06" width="50.23" height="8.74" rx="2.33" ry="2.33" transform="translate(217.82 -10.96) rotate(90)" style="fill:#fbb74c; stroke-width:0px;"/><rect x="38.83" y="34.2" width="81.07" height="7.38" rx="2.72" ry="2.72" transform="translate(158.73 75.78) rotate(180)" style="fill:#fbb74c; stroke-width:0px;"/><rect x="50.38" y="45.09" width="56.97" height="83.46" rx="1.19" ry="1.19" transform="translate(157.73 173.64) rotate(180)" style="fill:#442c16; stroke-width:0px;"/><rect x="28.91" y="55.51" width="29.26" height="8.74" rx="1.78" ry="1.78" transform="translate(103.42 16.33) rotate(90)" style="fill:#fbb74c; stroke-width:0px;"/><rect x="99.76" y="55.51" width="29.26" height="8.74" rx="1.78" ry="1.78" transform="translate(174.27 -54.51) rotate(90)" style="fill:#fbb74c; stroke-width:0px;"/><path d="m37.84,27.12c.08.91.85,1.61,1.76,1.61h77.85c.77,0,1.45-.49,1.68-1.22l.35-1.08c.37-1.14-.48-2.32-1.68-2.32h-11.22c-.71,0-1.34-.43-1.63-1.08-4.72-10.54-15.29-17.26-26.63-16.89-10.43.34-19.87,6.62-24.45,16.15-.3.62-.91,1.03-1.6,1.03h-10.97c-2.04,0-3.65,1.75-3.47,3.79h0Z" style="fill:#f8d77e; stroke-width:0px;"/><path d="m64.33,22.26c-2.57-3.63,1.93-7.63,3.17-8.37,11.52-6.88,22.5-1.16,26.54,2.8.66.65,2.32,2.27,2.01,4.01-.23,1.28-1.37,2.22-1.91,2.35-3.81.96-24.14,2.52-29.81-.79Z" style="fill:#ba661a; stroke-width:0px;"/><path d="m66.73,21.52c-2.17-3.07,1.63-6.44,2.68-7.07,9.73-5.81,19.01-.98,22.42,2.37.56.55,1.96,1.92,1.69,3.38-.2,1.08-1.16,1.87-1.61,1.99-3.22.81-20.39,2.13-25.18-.67Z" style="fill:#df432c; stroke-width:0px;"/><path d="m37.84,155.32c.08-.91.85-1.61,1.76-1.61h77.85c.77,0,1.45.49,1.68,1.22l.35,1.08c.37,1.14-.48,2.32-1.68,2.32h-11.22c-.71,0-1.34.43-1.63,1.08-4.72,10.54-15.29,17.26-26.63,16.89-10.43-.34-19.87-6.62-24.45-16.15-.3-.62-.91-1.03-1.6-1.03h-10.97c-2.04,0-3.65-1.75-3.47-3.79h0Z" style="fill:#f8d77e; stroke-width:0px;"/><path d="m64.33,160.18c-2.57,3.63,1.93,7.63,3.17,8.37,11.52,6.88,22.5,1.16,26.54-2.8.66-.65,2.32-2.27,2.01-4.01-.23-1.28-1.37-2.22-1.91-2.35-3.81-.96-24.14-2.52-29.81.79Z" style="fill:#ba661a; stroke-width:0px;"/><path d="m66.73,160.92c-2.17,3.07,1.63,6.44,2.68,7.07,9.73,5.81,19.01.98,22.42-2.37.56-.55,1.96-1.92,1.69-3.38-.2-1.08-1.16-1.87-1.61-1.99-3.22-.81-20.39-2.13-25.18.67Z" style="fill:#df432c; stroke-width:0px;"/><rect x="38.16" y="129.62" width="81.07" height="17.91" rx="4.24" ry="4.24" transform="translate(157.4 277.15) rotate(180)" style="fill:#fbb74c; stroke-width:0px;"/><g id="_Слой_1-2"><path d="m94.09,126.89c.74.5,1.55,1.04,1.68,1.91.08.53-.08,1.24-.46,1.36-.12.04-.23,0-.28,0-.33-.09-.46-.44-.67-.8-.38-.62-.85-.93-.86-.92-.02.02,1.51,1.11,1.36,2.27-.07.56-.51,1.1-1.05,1.28-.69.23-1.37-.18-1.77-.42-.19-.12-.39-.23-.59-.46-.29-.33-.3-.57-.66-1.2-.22-.38-.41-.62-.42-.61-.05.03,1.24,1.76.82,2.27-.08.09-.26.21-1.09.04-.84-.17-3.15-.63-4.09-2.68-.21-.47-.32-.7-.27-1,.28-1.7,4.75-2.63,7.18-1.68.53.21,1.03.53,1.18.64h0Z" style="fill:#efefef; stroke:#1d1d1b; stroke-miterlimit:10; stroke-width:.23px;"/><path d="m80.75,77.67c.25-.91.64-2.27,1.14-3.91,1-3.28,1.13-3.38,1.45-4.73.15-.6.73-3.13.68-6.45-.04-2.51-.06-4.19-.95-4.59-1.07-.48-2.76,1.15-3.64,2-2.84,2.74-3.99,5.91-4.41,7.23-1.45,4.57-.95,8.66-.46,11,.81-.31,1.98-.65,3.41-.73,1.1-.06,2.05.04,2.77.18h0Z" style="fill:#bbb; stroke:#1d1d1b; stroke-miterlimit:10; stroke-width:.23px;"/><path d="m89.86,111.28c.7-.62,1.28-.77,1.68-.79.83-.05,1.05.43,2.42.61.67.09,1.18.04,1.24.26.08.26-.62.54-.56.86.09.45,1.57.37,1.65.8.07.36-.93.63-.91,1.14.02.48.92.49,1.23,1.21.21.49,0,1-.33,1.88-.19.47-.48,1.1-.97,1.77-1.82-2.58-3.64-5.16-5.46-7.74h0Z" style="fill:#aaaaab; stroke:#1d1d1b; stroke-miterlimit:10; stroke-width:.23px;"/><path d="m81.64,127.49c-.06.73-.67,1.24-.77,1.32-.95.77-2.08.41-3.82.46-.83.02-.5.1-3.77.73-4.11.78-5.2.76-5.82.73-1.34-.08-3.34-.19-3.68-1.23-.24-.72.39-1.75,1.14-2.18.67-.39,1.45-.28,1.45-.27s-.74-.11-1.45.27c-1,.54-.94,1.51-1.68,1.64-.49.09-1-.24-1.27-.59-.03-.04-.38-.5-.32-1,.16-1.38,3.24-2.14,3.23-2.18,0-.02-.47.1-1.07.39-.35.17-.53.29-.59.23-.09-.09.15-.54.36-.8.48-.61,1.25-.84,2.54-1,2.49-.31,3.78-.08,3.78-.08,5.74.72,7.14-.61,9.7.97.47.29,2.16,1.33,2.06,2.61h0Z" style="fill:#efefef; stroke:#1d1d1b; stroke-miterlimit:10; stroke-width:.23px;"/><path d="m85.14,80.13c.78-.09,1.95-.32,3.24-.91,1.55-.71,2.48-1.59,3.88-2.91,1.91-1.8,3.11-3.44,3.64-4.21.65-.94,1.17-2.03,2.21-4.21.43-.89.71-1.54.43-1.97-.3-.47-1.1-.46-2.39-.33-2.79.26-4.18.39-5.67.97-.44.17-2.26.9-4.43,2.7-3.28,2.72-5.1,6.03-6.09,8.36.77.17,1.77.46,2.85,1,.99.49,1.76,1.04,2.33,1.52h0Z" style="fill:#bbb; stroke:#1d1d1b; stroke-miterlimit:10; stroke-width:.23px;"/><path d="m85.04,96.11c-.39.98-.27,2.03.34,2.74.4.47.91.65,1.18.73,0,0,1.03.5,1.82,1.36,0,0,.04.04.07.08.61.7,2.31,3.53,1.32,6.01-.46,1.15-1.16,1.38-1.11,2.37.03.64.31,1.17.82,1.73,1.42,1.56,2.68,2.62,3.09,3,2.28,2.08,2.76,4.97,2.82,5.36.1.67.49,3.26-1.09,5.46-.18.25-.62.83-1.36,1.36-1.9,1.38-3.96,1.2-8.91,1-5.45-.22-5.07-.09-6.55-.27-3.52-.44-5.52-.72-7.36-2.27-.6-.51-2.14-1.84-2.55-4.09-.14-.75-.41-2.23.37-3.52,1.12-1.86,3.44-1.75,3.91-3.57.05-.19.15-.62,0-1.09-.34-1.05-1.55-1.12-2.36-1.82-1.41-1.21-1.49-4.19-.54-6.09.96-1.94,2.32-1.88,3.91-4.36.81-1.26,1.2-2.46,1.4-3.25,3.6-.28,7.21-.57,10.81-.85h0Z" style="fill:#bebebe; stroke:#1d1d1b; stroke-miterlimit:10; stroke-width:.23px;"/><path d="m96.87,66.51c-.19.49-.47,1.19-.85,2-.62,1.36-1.31,2.86-2.21,4.12-1.26,1.76-2.65,2.68-4.91,4.15-1.12.74-2.54,1.56-4.24,2.33-.61-.43-1.21-.87-1.82-1.3.17-.3.44-.75.76-1.3,2.43-4.2,2.36-4.24,2.79-4.85,1.75-2.48,4.24-3.59,5.24-4.03,2.12-.92,4.03-1.1,5.24-1.12h0Z" style="fill:url(#_Безымянный_градиент_3); stroke:#1d1d1b; stroke-linecap:round; stroke-linejoin:round; stroke-width:.23px;"/><path d="m78.34,77.73c.27-2.03.71-3.61,1.05-4.64.4-1.24.61-1.53,2.45-6,.77-1.86,1.09-2.66,1.27-3.86.22-1.4.15-2.59.04-3.41-1.91,1.13-4.84,3.3-6.27,6.91-.95,2.39-1.06,4.92-1.14,6.77-.08,1.78.02,3.27.14,4.32.82-.03,1.64-.06,2.45-.09h0Z" style="fill:url(#_Безымянный_градиент_3-2); stroke:#1d1d1b; stroke-linecap:round; stroke-linejoin:round; stroke-width:.23px;"/><path d="m85.42,78.96c1.32.77,2,1.48,2.36,1.91,1.4,1.65,1.75,3.43,1.91,4.27.49,2.68-.23,4.84-.54,5.64-1.23,3.16-3.65,4.74-4.64,5.36-1.28.81-4.55,2.88-8.55,1.82-4.35-1.16-6.18-5.13-6.55-6-1.79-4.2-.19-8,.18-8.82.37-.81,2.35-4.94,6.91-6.09,3.94-.99,7.18.9,8.91,1.91h0Z" style="fill:#bebebe; stroke:#1d1d1b; stroke-miterlimit:10; stroke-width:.23px;"/><path d="m78.92,83.88c-.85,1.87-.34,6.25.48,6.62.68.31,4.42-.45,5.28-2.33s1.26-6.16-.61-7.01c-1.87-.85-4.29.84-5.14,2.72Z" style="fill:#efefef; stroke:#1d1d1b; stroke-miterlimit:10; stroke-width:.23px;"/><path d="m84.14,89.96c.81-.31,1.28-.52,2.09-.64.69-.1,1.61-.22,2.64.18.24.09,1.69.69,2.09,2,.13.42.16.93,0,1-.24.1-.82-.91-1-.82-.24.12.57,1.94.18,2.18-.24.15-.77-.46-1-.3-.24.17.24.88,0,1.77-.15.54-.51.98-.66.93-.15-.05.02-.63-.18-.75-.25-.15-.85.57-1.31.97-1.38,1.21-3.32,1.29-4.61,1.37-.49.03-.97.02-1.96.11-.89.08-1.35.12-1.68.25-.49.21-.81.49-1.43.54-.28.02-.49-.02-.77-.07-.39-.07-.88-.23-1.91-.7-2.6-1.19-3.21-.43-4.41-1.5-1.14-1.01-1.44-2.42-1.82-2.32-.19.05-.25.44-.27.77-.05-.5-.16-.86-.27-.86-.11,0-.24.33-.32.77.17-2.08.12-2.49.04-2.5-.14-.02-.49,1.67-.68,1.64-.14-.02-.23-.87-.01-1.73.26-1.01.84-1.52.69-1.68-.2-.22-1.4.66-1.5.52-.11-.14,1.39-1.03,2.19-2.64.83-1.68.57-3.45.66-3.44.09,0-.23,1.58.56,3.02.66,1.2,2.03,2.22,2.95,1.91.39-.13.36-.38.82-.73,1.03-.78,2.68-.62,3.77-.09,1.41.68,1.06,1.58,2.18,2,.91.34,2.24-.17,4.91-1.18h0Z" style="fill:#e4e5e4; stroke:#1d1d1b; stroke-miterlimit:10; stroke-width:.23px;"/><line x1="71.29" y1="92.27" x2="71.99" y2="92.24" style="fill:none; stroke:#1d1d1b; stroke-linecap:round; stroke-linejoin:round; stroke-width:.23px;"/><path d="m79.08,91.79c.2.19.39.39.59.58-.34.13-.84.35-1.41.68-.57.33-.58.4-.82.46-.77.16-1.09-.55-1.95-.46-.41.04-.38.21-1,.32-.29.05-.71.12-1.18,0-.1-.03-1.23-.34-1.32-1.14-.04-.35.14-.64.27-.82" style="fill:none; stroke:#1d1d1b; stroke-linecap:round; stroke-linejoin:round; stroke-width:.23px;"/><path d="m79.76,85.19c-.95,1.23-1.05,4.85-.52,5.27.45.35,4.02-.58,4.97-1.81s.73-3-.5-3.96-3-.73-3.96.5h0Z" style="fill:#fefefc; stroke:#1d1d1b; stroke-miterlimit:10; stroke-width:.23px;"/><path d="m80.25,92.69c-.19-.11-.39-.21-.58-.32" style="fill:none; stroke:#1d1d1b; stroke-linecap:round; stroke-linejoin:round; stroke-width:.23px;"/><path d="m75.98,90.7c.12-.21.45-.77.23-1.18-.34-.64-1.68-.4-1.91-.36-.46.08-1.2.21-1.39.7-.25.66.66,1.86,1.52,1.86.48,0,1.47-.89,1.55-1.02h0Z" style="fill:url(#_Безымянный_градиент_3-3); stroke:#1d1d1b; stroke-linecap:round; stroke-linejoin:round; stroke-width:.23px;"/><path d="m77.44,93.51c.18.16-.11.76-.28,1.11-.23.46-.34.69-.54.77-.28.11-.42-.08-.97,0-.32.04-.36.12-.51.08-.26-.08-.31-.36-.54-.82-.4-.77-.79-1.04-.68-1.2.07-.1.23-.03.58-.07.58-.06.58-.28,1-.32.69-.06.93.54,1.67.44.11-.02.21-.04.28.02h0Z" style="fill:#fff; stroke:#1d1d1b; stroke-miterlimit:10; stroke-width:.23px;"/><path d="m75.28,93.22c.12.72.25,1.44.37,2.17" style="fill:none; stroke:#1d1d1b; stroke-linecap:round; stroke-miterlimit:10; stroke-width:.23px;"/><path d="m82.39,97.88c.17.37.37.83.58,1.35.28.73.47,1.31.54,1.57.39,1.29.59,1.94.6,2.54,0,.19-.01,2.01-1.27,3.19-.52.49-.62.27-2.18,1.17-1.12.64-1.68.97-2.22,1.59-.7.81-.97,1.62-1.11,2.07,0,0-.33,1.05-.17,2.18.02.17.07.37.14.38.17.02.43-.88.42-.89,0,0-.12.25-.19.54,0,0-.06.24-.07.46-.02.26,0,.95.49,1.47.12.13.54.58.85.47.52-.19.39-1.85.41-1.85.01,0,.02.42.02.71,0,.59.02.67.09.71.19.14.67-.15.94-.4.52-.48.63-1.11.64-1.16.1-.62-.18-.83.03-1.23.19-.36.57-.51.68-.54.31-.12.52-.06,1.07-.03,1.06.07,1.17-.08,1.33.05.49.4-.33,2.08-1.13,3.97-1.04,2.47-1.55,3.7-1.71,4.73-.21,1.43.05,3.53,2.27,6.38-1.11-.03-2.23-.06-3.37-.11-.78-.03-1.55-.07-2.32-.11-1.09-.42-3.5-1.54-4.77-4.04-.71-1.41-.77-2.74-.89-5.41-.08-1.83.05-3.46.36-3.5.25-.03.54,1.07.77,1.02.22-.05.19-1.1.21-1.1,0,0-.04.28.02.58,0,.04.2.84.84.97.39.08.71-.15.74-.17.29-.21.36-.52.37-.6.06-.28-.02-.56-.12-.88-.01-.04-.07-.22-.11-.46-.02-.12-.04-.22-.03-.22.02,0,.17,1.32.39,1.33.19,0,.46-.88.49-1.75.01-.4,0-1.53-1.05-3.32-.87-1.5-1.15-1.19-1.9-2.51-.14-.24-1-1.79-1.13-3.9-.08-1.24.16-1.82.23-1.99.25-.58.53-.74.96-1.42.27-.42.62-1.07.87-1.97l8.39.14h0Z" style="fill:#fff; stroke:#1d1d1b; stroke-miterlimit:10; stroke-width:.23px;"/><path d="m79.59,86.23c-.76.97-.84,3.84-.41,4.17.35.28,3.19-.46,3.94-1.44s.58-2.38-.39-3.13c-.97-.76-2.38-.58-3.13.39h0Z" style="fill:#2a6eb6; stroke:#1d1d1b; stroke-miterlimit:10; stroke-width:.23px;"/><path d="m79.45,87.91c-.46.59-.51,2.32-.25,2.52.22.17,1.92-.28,2.38-.87s.35-1.44-.24-1.89-1.44-.35-1.89.24h0Z" style="fill:#1d1d1b; stroke:#1d1d1b; stroke-linecap:round; stroke-miterlimit:10; stroke-width:.23px;"/><circle cx="81.15" cy="89.44" r=".45" style="fill:#fff; stroke-width:0px;"/><path d="m73.91,85.24c.21,1.45-.92,4.34-1.52,4.43-.5.08-2.79-1.16-3.01-2.6s.3-4.45,1.68-4.68c1.37-.23,2.63,1.4,2.85,2.85Z" style="fill:#efefef; stroke:#1d1d1b; stroke-miterlimit:10; stroke-width:.23px;"/><path d="m73.12,85.98c.4,1.02-.2,3.52-.62,3.7-.35.15-2.51-1.17-2.9-2.19-.4-1.02.07-2.19,1.05-2.61s2.08.08,2.48,1.1Z" style="fill:#fefefc; stroke:#1d1d1b; stroke-miterlimit:10; stroke-width:.23px;"/><path d="m73.05,86.72c.31.81-.16,2.79-.49,2.93-.28.12-1.99-.93-2.3-1.74s.06-1.74.83-2.07,1.65.06,1.97.87h0Z" style="fill:#2a6eb6; stroke:#1d1d1b; stroke-miterlimit:10; stroke-width:.23px;"/><path d="m72.83,87.9c.19.49-.1,1.68-.3,1.77-.17.07-1.2-.56-1.39-1.05s.04-1.05.5-1.25,1,.04,1.19.53h0Z" style="fill:#1d1d1b; stroke:#1d1d1b; stroke-linecap:round; stroke-miterlimit:10; stroke-width:.23px;"/><ellipse cx="72.32" cy="88.92" rx=".31" ry=".32" style="fill:#fff; stroke-width:0px;"/><path d="m82.39,97.88c.6,1.29.98,2.41,1.22,3.24.41,1.4.61,2.11.46,3-.04.26-.28,1.5-1.32,2.5-1.06,1.02-1.9.77-3.14,1.59-.45.3-1.7,1.3-2.23,2.95-.42,1.33-.25,2.72-.08,2.74.15.02.43-.96.44-.95.01,0-.36.67-.29,1.4.1.91.89,1.75,1.28,1.64.47-.12.4-1.96.46-1.95.02,0,.02.34.03.65.02.75.04.81.09.85.22.16,1-.26,1.38-.95.48-.88-.06-1.51.33-2.04.47-.65,1.69-.3,2.77-.32,1.2-.02,2.86-.52,4.86-2.61" style="fill:none; stroke:#1d1d1b; stroke-miterlimit:10; stroke-width:.23px;"/><path d="m72.29,100.98c-.22.69-.49,1.9-.24,3.36.21,1.22.7,2.11,1.03,2.67,1,1.68,1.47,1.56,2.18,3,.65,1.31.7,2.29.7,2.7,0,.91-.23,1.88-.43,1.88-.22,0-.39-1.33-.39-1.33,0,0,.09.4.14.68.1.49.15.74.12.88-.08.36-.42.78-.85.8-.38.03-.67-.29-.73-.35-.44-.48-.37-1.23-.4-1.23-.03,0,.12,1.04-.09,1.13-.16.06-.55-.39-1.43-2" style="fill:none; stroke:#1d1d1b; stroke-miterlimit:10; stroke-width:.23px;"/></g></g></svg>