<?xml version="1.0" encoding="UTF-8"?><svg id="_Слой_2" xmlns="http://www.w3.org/2000/svg" width="159.66" height="183.94" xmlns:xlink="http://www.w3.org/1999/xlink" viewBox="0 0 159.66 183.94"><defs><clipPath id="clippath"><rect x="50.38" y="45.09" width="56.97" height="83.46" rx="1.19" ry="1.19" transform="translate(157.73 173.64) rotate(180)" style="fill:none; stroke-width:0px;"/></clipPath></defs><g id="_Слой_1-2"><path d="m159.66,40.76v92.52c0,4.83-3.94,8.74-8.78,8.69l-29.78-.31V40.32l30.83-5.94c4.01-.77,7.73,2.3,7.73,6.38Z" style="fill:#df432c; stroke-width:0px;"/><path d="m156.16,49.35v75.75c0,3.96-3.23,7.15-7.19,7.11l-18.6-.19c-3.2-.03-5.79-2.64-5.79-5.85V55.26c0-3.64,2.59-6.78,6.16-7.46l19.08-3.68c3.28-.63,6.33,1.88,6.33,5.22Z" style="fill:#f4b74f; stroke-width:0px;"/><path d="m146.51,132.23c-5.51-5.03-8.41-15.91-5.82-21.9,6.49,4.65,9.2,14.83,5.82,21.9Z" style="fill:#4a8625; stroke-width:0px;"/><path d="m147.18,48.05c1.52,8.34.75,14.77-4.06,20.32-.47.55-1.4,1.05-2.07,1-1.05-.08-.92-1.2-.92-1.98-.01-6.79,1.79-12.93,7.05-19.34Z" style="fill:#4a8625; stroke-width:0px;"/><path d="m130.48,129.77c-1.31-6.9.21-12.22,3.98-16.94.79-.99,1.76-2.39,3.2-1.68,1.15.57.72,2.1.53,3.16-1.01,5.57-3.01,10.69-7.7,15.45Z" style="fill:#4a8625; stroke-width:0px;"/><path d="m131.29,51.66c5.36,4.07,6.47,9.41,7.59,14.73.17.78.19,1.77-.81,2.09-1.13.36-1.89-.47-2.53-1.19-3.82-4.23-4.87-9.27-4.24-15.63Z" style="fill:#4a8625; stroke-width:0px;"/><path d="m145.79,79.85c-2.58-1.49-3.07.61-6.06.61s-3.32-1.84-5.9-.35-1.15,2.7-2.65,5.29-3.59,1.95-3.59,4.94,1.62,2.63,3.12,5.21.37,3.81,2.96,5.3,3.08-.14,6.07-.14,3.34,1.38,5.92-.11,1.67-2.42,3.17-5.01,2.91-2.26,2.91-5.25c0-2.98-1.58-2.53-2.6-5.33-1.08-2.95-.75-3.67-3.34-5.16Z" style="fill:#fefefd; stroke-width:0px;"/><circle cx="139.73" cy="89.86" r="1.85" style="fill:#fde46e; stroke-width:0px;"/><path d="m0,40.76v92.52c0,4.83,3.94,8.74,8.78,8.69l29.78-.31V40.32l-30.83-5.94c-4.01-.77-7.73,2.3-7.73,6.38Z" style="fill:#df432c; stroke-width:0px;"/><path d="m3.49,49.35v75.75c0,3.96,3.23,7.15,7.19,7.11l18.6-.19c3.2-.03,5.79-2.64,5.79-5.85V55.26c0-3.64-2.59-6.78-6.16-7.46l-19.08-3.68c-3.28-.63-6.33,1.88-6.33,5.22Z" style="fill:#f4b74f; stroke-width:0px;"/><path d="m13.15,132.23c5.51-5.03,8.41-15.91,5.82-21.9-6.49,4.65-9.2,14.83-5.82,21.9Z" style="fill:#4a8625; stroke-width:0px;"/><path d="m12.48,48.05c-1.52,8.34-.75,14.77,4.06,20.32.47.55,1.4,1.05,2.07,1,1.05-.08.92-1.2.92-1.98.01-6.79-1.79-12.93-7.05-19.34Z" style="fill:#4a8625; stroke-width:0px;"/><path d="m29.18,129.77c1.31-6.9-.21-12.22-3.98-16.94-.79-.99-1.76-2.39-3.2-1.68-1.15.57-.72,2.1-.53,3.16,1.01,5.57,3.01,10.69,7.7,15.45Z" style="fill:#4a8625; stroke-width:0px;"/><path d="m28.36,51.66c-5.36,4.07-6.47,9.41-7.59,14.73-.17.78-.19,1.77.81,2.09,1.13.36,1.89-.47,2.53-1.19,3.82-4.23,4.87-9.27,4.24-15.63Z" style="fill:#4a8625; stroke-width:0px;"/><path d="m14.04,80.15c2.58-1.49,2.9-.61,5.88-.61s3.45-1.14,6.04.35,1.83,2.47,3.32,5.05,2.38,2.42,2.38,5.4-1.36,2.54-2.85,5.13-.43,3.55-3.01,5.04-2.89.14-5.87.14-3.43,1.6-6.02.11-1.31-2.75-2.8-5.33-3.06-2.11-3.06-5.09c0-2.98,2.25-2.23,3.36-5s.05-3.7,2.64-5.19Z" style="fill:#fefefd; stroke-width:0px;"/><circle cx="19.93" cy="89.86" r="1.85" style="fill:#fde46e; stroke-width:0px;"/><path d="m27.98,17.36l9.44,28.22h84.7l8.13-28.22h-16.03C105.22,5.39,93.58-.91,79.48.11c-15.63,1.12-29.86,3.12-33.5,17.26h-18Z" style="fill:#ba661a; stroke-width:0px;"/><path d="m27.98,166.57l9.44-28.22h84.7l8.13,28.22h-16.03c-9.01,11.98-20.64,18.27-34.74,17.26-15.63-1.12-29.86-3.12-33.5-17.26h-18Z" style="fill:#ba661a; stroke-width:0px;"/><rect x="36.82" y="30.49" width="85.99" height="120.99" style="fill:#ba661a; stroke-width:0px;"/><rect x="18.43" y="99.06" width="50.23" height="8.74" rx="2.33" ry="2.33" transform="translate(146.98 59.89) rotate(90)" style="fill:#fbb74c; stroke-width:0px;"/><rect x="89.28" y="99.06" width="50.23" height="8.74" rx="2.33" ry="2.33" transform="translate(217.82 -10.96) rotate(90)" style="fill:#fbb74c; stroke-width:0px;"/><rect x="38.83" y="34.2" width="81.07" height="7.38" rx="2.72" ry="2.72" transform="translate(158.73 75.78) rotate(180)" style="fill:#fbb74c; stroke-width:0px;"/><rect x="50.38" y="45.09" width="56.97" height="83.46" rx="1.19" ry="1.19" transform="translate(157.73 173.64) rotate(180)" style="fill:#442c16; stroke-width:0px;"/><rect x="28.91" y="55.51" width="29.26" height="8.74" rx="1.78" ry="1.78" transform="translate(103.42 16.33) rotate(90)" style="fill:#fbb74c; stroke-width:0px;"/><rect x="99.76" y="55.51" width="29.26" height="8.74" rx="1.78" ry="1.78" transform="translate(174.27 -54.51) rotate(90)" style="fill:#fbb74c; stroke-width:0px;"/><path d="m37.84,27.12c.08.91.85,1.61,1.76,1.61h77.85c.77,0,1.45-.49,1.68-1.22l.35-1.08c.37-1.14-.48-2.32-1.68-2.32h-11.22c-.71,0-1.34-.43-1.63-1.08-4.72-10.54-15.29-17.26-26.63-16.89-10.43.34-19.87,6.62-24.45,16.15-.3.62-.91,1.03-1.6,1.03h-10.97c-2.04,0-3.65,1.75-3.47,3.79h0Z" style="fill:#f8d77e; stroke-width:0px;"/><path d="m64.33,22.26c-2.57-3.63,1.93-7.63,3.17-8.37,11.52-6.88,22.5-1.16,26.54,2.8.66.65,2.32,2.27,2.01,4.01-.23,1.28-1.37,2.22-1.91,2.35-3.81.96-24.14,2.52-29.81-.79Z" style="fill:#ba661a; stroke-width:0px;"/><path d="m66.73,21.52c-2.17-3.07,1.63-6.44,2.68-7.07,9.73-5.81,19.01-.98,22.42,2.37.56.55,1.96,1.92,1.69,3.38-.2,1.08-1.16,1.87-1.61,1.99-3.22.81-20.39,2.13-25.18-.67Z" style="fill:#df432c; stroke-width:0px;"/><path d="m37.84,155.32c.08-.91.85-1.61,1.76-1.61h77.85c.77,0,1.45.49,1.68,1.22l.35,1.08c.37,1.14-.48,2.32-1.68,2.32h-11.22c-.71,0-1.34.43-1.63,1.08-4.72,10.54-15.29,17.26-26.63,16.89-10.43-.34-19.87-6.62-24.45-16.15-.3-.62-.91-1.03-1.6-1.03h-10.97c-2.04,0-3.65-1.75-3.47-3.79h0Z" style="fill:#f8d77e; stroke-width:0px;"/><path d="m64.33,160.18c-2.57,3.63,1.93,7.63,3.17,8.37,11.52,6.88,22.5,1.16,26.54-2.8.66-.65,2.32-2.27,2.01-4.01-.23-1.28-1.37-2.22-1.91-2.35-3.81-.96-24.14-2.52-29.81.79Z" style="fill:#ba661a; stroke-width:0px;"/><path d="m66.73,160.92c-2.17,3.07,1.63,6.44,2.68,7.07,9.73,5.81,19.01.98,22.42-2.37.56-.55,1.96-1.92,1.69-3.38-.2-1.08-1.16-1.87-1.61-1.99-3.22-.81-20.39-2.13-25.18.67Z" style="fill:#df432c; stroke-width:0px;"/><rect x="38.16" y="129.62" width="81.07" height="17.91" rx="4.24" ry="4.24" transform="translate(157.4 277.15) rotate(180)" style="fill:#fbb74c; stroke-width:0px;"/><g style="clip-path:url(#clippath);"><path d="m57.51,87.77c.99-.43,1.92-.96,2.85-1.53-.07-.15-.13-.27-.18-.39-1.08-2.22-1.49-4.56-1.28-7.02.23-2.64,1.08-5.08,2.26-7.42,2.96-5.88,7.58-10.01,13.5-12.75.47-.22.98-.36,1.47-.55.09-.03.16-.09.25-.14.3,0,.6,0,.9,0,.03.04.05.1.08.12.32.18.46.47.46.82,0,.42,0,.84-.09,1.25-.32,1.6-.08,3.16.31,4.71.39,1.56.93,3.06,1.54,4.54.64,1.55,1.16,3.14,1.56,4.77.03.11.07.23.1.36.56.05,1.11.16,1.66.15,1.38-.04,2.67.3,3.92.84.16.07.32.13.58.25-.38-.85-.83-1.54-1.36-2.3.42.09.75.14,1.08.23,2.17.59,3.61,1.93,4.19,4.13.06.24.18.41.4.55,1.75,1.08,3.41,2.28,4.89,3.72.43.42.83.86,1.28,1.31.11-.08.23-.16.35-.25,2.04-1.51,4.3-2.47,6.81-2.82,1.88-.26,3.76-.54,5.65-.79,2.07-.27,4.05-.8,5.88-1.81.43-.24.89-.43,1.36-.59.92-.32,1.36-.02,1.35.96-.01.73-.1,1.46-.22,2.19-.42,2.68-1.01,5.32-1.78,7.92-1.43,4.82-3.83,9.09-7.19,12.82-1.2,1.33-2.52,2.52-4.07,3.43-1.71,1.01-3.54,1.53-5.54,1.33-.1,0-.21,0-.33,0-.08.21-.15.42-.23.62-.06-.05-.13-.1-.19-.15.04-.1.08-.19.12-.29,1.13-3.41,1.7-6.91,1.73-10.5.01-1.88-.15-3.74-.6-5.57-.71-2.83-2.12-5.26-4.17-7.33-1.53-1.54-3.26-2.82-5.1-3.96-.06-.03-.13-.04-.21-.07,0,.27,0,.51,0,.75,0,.22-.02.44-.03.66-.12-1.44-.35-2.83-1.23-4.03-.81-1.11-2.63-2.16-3.58-2.03.42.74.88,1.45,1.24,2.32-.36-.16-.62-.28-.88-.38-.59-.23-1.17-.48-1.77-.65-1.36-.39-2.72-.41-4.06.09-.7.26-1.35.63-1.96,1.17,1.3.28,2.54.56,3.75,1-1.55.22-2.87.91-4.06,1.88-1.19.97-2.05,2.18-2.59,3.73.82-.42,1.53-.81,2.26-1.16.71-.34,1.43-.69,2.2-.88-1.6.83-3.2,1.66-4.87,2.52.97-3.17,3.06-5.11,6.08-6.22-1.08-.25-2.15-.49-3.26-.75.44-.44.9-.79,1.42-1.06.5-.26,1.03-.48,1.63-.76-1.19-.02-2.26-.06-3.34.06-1.24.15-2.45.41-3.61.86-1.52.58-2.92,1.38-4.26,2.3-2.11,1.44-4.02,3.13-5.82,4.94-1.63,1.63-3.42,3.05-5.44,4.16-.5.27-1,.54-1.5.8-.12,0-.28.05-.3-.15Zm61.33-10.38c-.25-.18-.52-.11-.77-.01-.41.15-.8.32-1.2.5-.71.32-1.4.69-2.12.97-1.54.62-3.18.83-4.81,1.06-1.69.24-3.38.48-5.06.71-2.4.34-4.53,1.3-6.47,2.72-.11.08-.21.19-.3.27.46.68.92,1.29,1.31,1.95.39.67.75,1.37,1.05,2.08.29.69.5,1.41.77,2.17.07-.14.12-.22.15-.3,1.06-2.18,2.69-3.78,4.85-4.88,1.57-.8,3.18-1.46,4.84-2.03,1.49-.51,2.99-.98,4.4-1.68.63-.31.89-.13.92.57.05,1.22-.08,2.42-.3,3.62-.61,3.39-1.74,6.59-3.45,9.58-1.89,3.29-4.42,5.95-7.67,7.91-1.04.63-2.14,1.15-3.35,1.37-.3.06-.62.07-.94.11-.08.3-.15.57-.22.85-.06.19-.12.38-.19.61.19.04.31.08.44.09,1.04.06,2.06-.05,3.06-.37,1.78-.56,3.28-1.59,4.64-2.83,1.53-1.4,2.85-2.99,4.04-4.68,1.24-1.77,2.34-3.62,3.18-5.62.97-2.29,1.74-4.65,2.28-7.08.37-1.66.68-3.34.98-5.01.11-.63.14-1.28.19-1.92.02-.27-.01-.54-.25-.73Zm-2.73,3.56c-.25.08-.41.12-.55.19-1.31.66-2.71,1.11-4.1,1.58-1.86.63-3.68,1.35-5.41,2.28-2.1,1.12-3.61,2.78-4.61,4.93-.1.21-.13.4-.08.64.28,1.29.43,2.6.47,3.92.09,3-.25,5.95-.96,8.86-.04.15-.06.31-.1.5.23-.02.41-.02.59-.05,1.07-.16,2.05-.56,2.98-1.08,2.91-1.61,5.27-3.83,7.14-6.57,2.08-3.04,3.42-6.41,4.2-10,.31-1.41.51-2.83.52-4.27,0-.28-.05-.56-.09-.92Zm-41.55-20s-.08-.01-.11,0c-.18.07-.36.14-.54.23-6.22,3.06-10.19,7.96-11.93,14.66-.59,2.29-.68,4.62-.17,6.94.14.66.32,1.3.65,1.97.46-.41.9-.79,1.33-1.18,1.42-1.31,2.81-2.66,4.27-3.92,1.75-1.51,3.66-2.81,5.79-3.75.38-.17.57-.4.68-.79.5-1.76.9-3.54.86-5.39-.03-1.32-.3-2.62-.49-3.92-.16-1.08-.32-2.16-.41-3.25-.05-.53.04-1.07.07-1.61Zm.09,14.6c2.08-.8,4.16-1.07,6.32-1.02-.03-.15-.04-.25-.06-.35-.37-1.55-.86-3.05-1.47-4.52-.77-1.87-1.45-3.77-1.84-5.77-.22-1.11-.33-2.22-.14-3.35.07-.4.14-.8.16-1.2.06-.95-.34-1.29-1.25-1.05-.52.14-1.03.32-1.52.53-1.84.78-3.55,1.81-5.16,2.98-2.1,1.52-3.98,3.27-5.57,5.32-1.48,1.92-2.68,4.01-3.61,6.25-.84,2.03-1.38,4.14-1.42,6.36-.04,2.09.37,4.08,1.27,5.96.06.13.14.25.24.41.59-.43,1.13-.82,1.68-1.21-.6-1.4-.89-2.81-.98-4.27-.1-1.67.09-3.32.49-4.94.77-3.05,2.1-5.82,4.03-8.3,2.17-2.78,4.85-4.92,8.03-6.43.36-.17.73-.3,1.15-.47-.09.37-.17.67-.24.97-.17.76-.07,1.53.04,2.28.19,1.38.46,2.74.65,4.12.11.81.19,1.64.18,2.46-.02,1.26-.24,2.5-.56,3.72-.13.47-.25.95-.4,1.52Z" style="fill:#662a0f; stroke-width:0px;"/><path d="m57.51,87.77c.02.21.18.15.3.15.4.15.81.28,1.2.45.61.26,1.21.56,1.81.84.42.27.83.55,1.25.81.06.04.15.02.23.03l-.03.02c-.05.16.05.19.17.19.43.3.85.59,1.28.89-.12.06-.23.13-.35.19-.06-.08-.12-.17-.19-.23-.25-.19-.5-.38-.76-.56-1.33-.94-2.7-1.78-4.27-2.25-.96-.28-1.83-.73-2.66-1.28-.09-.06-.2-.11-.4-.22.17.58.3,1.05.46,1.58-.66-.22-1.16-.57-1.65-.93-.49-.36-.96-.76-1.45-1.14.24,2.14,1.34,3.76,2.91,5.14-.69-.18-1.38-.37-2.13-.57.07.18.1.28.15.37,1.31,2.79,2.59,5.6,3.94,8.37,1.53,3.14,3.73,5.77,6.37,8.04.32.28.68.52,1.06.81.05-.17.1-.26.1-.36,0-.48,0-.96,0-1.44.04-.04.07-.09.11-.13.06.29.16.58.17.87,0,.42-.05.84-.1,1.25-.13,1.02.04,2,.43,2.94.64,1.51,1.83,2.4,3.33,2.95,1.4.51,2.84.58,4.3.34,1.68-.28,3.29-.79,4.72-1.76.47-.32.99-.48,1.55-.54,0,.04,0,.09,0,.13-.86.19-1.57.66-2.34,1.21.31.1.53.17.76.24,2.18.62,4.39,1.06,6.63,1.38,1.75.25,3.5.41,5.28.27,2.12-.16,4.17-.63,6.15-1.41.49-.19.97-.41,1.46-.57,1.12-.36,2.27-.36,3.43-.27.16.01.31.04.46.06-.12-.28-.28-.49-.46-.69-.18-.2-.39-.38-.64-.63,1.91.1,3.7,0,5.43-.76-.06-.05-.07-.07-.08-.07-.18-.04-.35-.07-.53-.1-1.35-.28-2.62-.75-3.76-1.52-.16-.11-.3-.26-.49-.42.5-.09.91-.15,1.32-.24.39-.09.79-.17,1.17-.38-.06-.05-.08-.08-.1-.09-2.05-1.06-3.86-2.46-5.52-4.05-1.25-1.2-2.69-2.1-4.28-2.75-2.23-.9-4.57-1.3-6.95-1.52-1.34-.12-2.68-.28-3.99-.58-1.94-.45-3.76-1.21-5.44-2.29-.14-.09-.31-.12-.47-.18h0s0-.09,0-.14c-.16-.1-.17.1-.27.14-.07-.1-.15-.19-.21-.29-.71-1.09-1.55-2.05-2.54-2.89-1.32-1.12-2.82-1.84-4.56-2.01-.12-.01-.25.04-.38.06-.08-.09-.15-.18-.23-.27,1.5-.05,2.85.42,4.12,1.19,1.31.8,2.36,1.87,3.28,3.08.25.33.52.62.9.79.93.65,1.92,1.22,2.97,1.66,2.28.97,4.68,1.4,7.15,1.49.08.02.17.05.25.07,1.25.21,2.51.37,3.75.64,1.86.4,3.6,1.11,5.2,2.15.77.5,1.44,1.12,2.12,1.73.59.53,1.21,1.02,1.81,1.53.06.05.13.1.19.15,1.03.86,2.15,1.56,3.35,2.16.11.05.21.1.38.19-.76.54-1.62.6-2.51.83,1.55,1.02,3.18,1.55,5.01,1.71-.24.26-.49.39-.74.51-.77.35-1.59.54-2.42.63-.73.08-1.46.1-2.23.15.33.43.65.86,1.04,1.37-.52-.07-.94-.14-1.36-.19-1.33-.14-2.63.02-3.86.56-3.18,1.4-6.5,1.93-9.95,1.7-.82-.06-1.63-.19-2.45-.29-.13-.02-.27-.02-.4-.02-.08-.03-.16-.06-.23-.09-.43-.07-.86-.13-1.28-.2-1.6-.3-3.2-.61-4.75-1.11-.57-.18-1.07-.26-1.63.03-.35.18-.75.27-1.13.41,0,.09,0,.15,0,.21.26,1.34.38,2.7.41,4.05.04,1.84-.04,3.68-.08,5.52,0,.37-.05.75-.1,1.12-.14,1.04-.27,2.07-.43,3.1-.17,1.03-.4,2.05-.78,3.03-.24.61-.47,1.23-.71,1.84-.01.03-.03.05-.04.08,0,0,0,0,0,0-.05.03-.1.07-.14.1-.01,0-.03.02-.04.02-.01,0-.02,0-.03,0,.07-.25.1-.52.2-.76.43-1.04.85-2.07,1.1-3.18.6-2.69.8-5.42.87-8.16.03-1.03-.02-2.07-.07-3.1-.04-.82-.12-1.64-.2-2.46-.04-.43-.13-.85-.21-1.31-1.36.3-2.69.54-4.05.34-.06.12-.12.22-.17.33-.2.47-.39.94-.6,1.41-.6,1.31-1.26,2.59-2.2,3.69-.57.67-1.18,1.31-1.76,1.98-.73.84-1.43,1.7-1.91,2.71-.07.14-.11.29-.17.44l.08.06c.13-.08.26-.17.4-.25.51-.31,1.02-.62,1.53-.93,0,0,0,0,0,0-.07.11-.13.23-.21.33-.42.6-.89,1.17-1.25,1.81-1.08,1.91-1.39,3.93-.79,6.06.03.12.09.22.17.42.35-.85.68-1.59,1.13-2.27.04.14.04.27.04.39,0,.33,0,.66.03.99.13,1.26.44,2.47.88,3.65.97,2.59,2.38,4.9,4.43,6.78.35.32.75.59,1.12.89,0,.09,0,.19,0,.28-.11-.07-.23-.14-.34-.22-1.28-.96-2.33-2.13-3.24-3.44-.62-.9-1.14-1.86-1.63-2.83-.12-.3-.24-.61-.36-.91-.06-.12-.01-.33-.24-.32-.03-.19-.04-.39-.1-.57-.37-1.16-.68-2.33-.75-3.55,0-.06-.03-.11-.06-.22-.27.3-.37.64-.5.95-.14.33-.25.67-.39,1.08-.08-.15-.14-.26-.19-.37-.83-2.15-.7-4.25.28-6.32.21-.45.48-.86.72-1.29.06-.1.11-.2.15-.32-.5.19-.9.54-1.39.89.1-.51.26-.92.45-1.32.45-.96,1.1-1.78,1.79-2.58.44-.51.87-1.03,1.34-1.51,1.12-1.14,1.91-2.49,2.57-3.93.3-.64.56-1.29.86-1.97-.14-.04-.25-.09-.36-.11-.9-.18-1.75-.5-2.54-.99-1.55-.97-2.33-2.4-2.53-4.19-.03-.3-.05-.6-.03-.9.01-.21-.07-.32-.23-.44-2.97-2.21-5.34-4.95-7.07-8.21-1.11-2.09-2.08-4.25-3.1-6.38-.46-.97-.88-1.97-1.32-2.95-.07-.15-.13-.3-.23-.53.57.15,1.07.29,1.58.42.01-.02.02-.04.03-.07-.07-.09-.14-.18-.22-.27-.93-1.05-1.64-2.21-1.95-3.59-.02-.09-.1-.17-.16-.25,0-.33,0-.66,0-.99.2.14.41.28.61.43.65.5,1.3,1,1.95,1.5.13.1.28.16.5.29-.15-.62-.29-1.16-.45-1.79.17.11.25.18.35.24.64.4,1.29.81,1.94,1.2.14.09.33.09.5.14Z" style="fill:#8f776a; stroke-width:0px;"/><path d="m69.83,167.72s0,.05,0,.08h-1.71s0-.05,0-.08c.57,0,1.14,0,1.72,0Z" style="fill:#d9c4b7; stroke-width:0px;"/><path d="m140.06,135.77v1.53s-.05,0-.08.01c0-.52,0-1.03,0-1.55.03,0,.05,0,.08.01Z" style="fill:#907b70; stroke-width:0px;"/><path d="m140.06,135.77s-.05,0-.08-.01c0-.24,0-.48,0-.71.03,0,.05,0,.08,0v.72Z" style="fill:#d9c4b7; stroke-width:0px;"/><path d="m139.98,137.31s.05,0,.08-.01v.63h-.04s-.04,0-.04,0c0-.21,0-.42,0-.62Z" style="fill:#d9c4b7; stroke-width:0px;"/><path d="m139.98,137.31c0,.21,0,.42,0,.62-.26,4.08-1.28,7.94-3.22,11.54-2.88,5.34-7.24,8.96-12.92,11.03-3.18,1.16-6.47,1.75-9.86,1.69-2.27-.04-4.51-.36-6.63-1.24-.59-.25-1.16-.56-1.79-.86-1.1,1.24-2.53,2.04-4.17,2.47,0,.14,0,.24,0,.34.06,1.15-.62,1.99-1.55,2.34-.56.21-1.14.38-1.73.46-1.63.22-3.27.42-4.91.56-2.15.18-4.3.28-6.46.42-.22.01-.44.08-.65.15-1.95.72-3.94.99-6,.68-.45-.07-.91-.2-1.34-.37-.26-.1-.5-.15-.78-.15-.58.01-1.14-.06-1.59-.48-.06-.06-.16-.08-.24-.11-1.19-.42-1.7-1.38-1.34-2.69.39-1.43,1.29-2.48,2.55-3.23.09-.05.18-.1.27-.16.21-.07.42-.15.63-.22.62-.11,1.24-.18,1.87-.08.68.11,1.35.23,2.03.34.58.09,1.16.17,1.81.1-.38-.32-.71-.6-1.05-.86-.11-.08-.27-.11-.41-.1-.88.03-1.76.09-2.64.13-.56.02-1.1.11-1.6.35-.21.07-.42.13-.64.2-.64.14-1.28.28-1.91.41-.29.81-.55,1.64-.88,2.44-.31.73-.7,1.42-1.06,2.12-.12.22-.28.42-.43.63-.83,1.15-1.94,1.78-3.35,1.92-.06,0-.12.01-.18.02-.57,0-1.14,0-1.72,0-.62-.11-1.23-.25-1.74-.67-.07-.06-.22-.06-.33-.04-.97.18-1.8-.11-2.53-.74-.07-.06-.16-.15-.25-.15-.48-.03-.71-.34-.87-.74-.03-.07-.06-.14-.06-.16-.43-.22-.83-.42-1.27-.64-.99.24-1.92.03-2.73-.7-.06-.06-.15-.11-.23-.11-.5-.03-.76-.34-.88-.77-.09-.31-.15-.65-.14-.97.02-1.02.27-1.99.79-2.87.15-.26.34-.5.54-.71.63-.67,1.39-.91,2.28-.64.37.11.75.21,1.12.31.7.17,1.27-.04,1.72-.59.39-.48.66-1.03.88-1.61.49-1.25.78-2.55.98-3.86.38-2.52.55-5.07.44-7.62-.06-1.48-.21-2.96-.36-4.43-.13-1.26-.18-2.51-.04-3.77.23,0,.18.2.24.32-.02.08-.07.17-.07.25-.05,1.11-.06,2.22.11,3.32.27,1.8.38,3.6.37,5.41,0,1.48-.11,2.96-.22,4.44-.11,1.52-.35,3.03-.74,4.51-.28,1.03-.61,2.04-1.22,2.93-.6.89-1.28,1.14-2.33.88-.36-.09-.72-.19-1.08-.3-.71-.21-1.29.04-1.81.5-.06.05-.07.15-.11.22,0,0,0,0,0,0-.08.06-.15.12-.23.19-.06.07-.13.12-.18.2-.48.77-.77,1.61-.84,2.52-.03.44.02.89.1,1.32.06.28.21.57.59.56.02.01.03.02.05.03-.01-.02-.02-.03-.03-.05,0-.04,0-.09,0-.13-.27-1.13.26-1.97.98-2.73.02-.02.06-.01.09-.02,0,0,.01.01.01.01-.1.16-.21.32-.3.5-.19.39-.4.77-.55,1.17-.13.36-.12.74.03,1.1.34.83,1.79,1.34,2.63.93-.27-.76-.1-1.46.37-2.1.13-.18.28-.35.42-.52,0,.06.02.13.03.19-.34.46-.62.96-.72,1.53-.13.71.47,1.4,1.22,1.4,0-.15,0-.3,0-.44.06-1.16.38-2.24,1.08-3.18.73-1,1.62-1.29,2.79-.92.36.11.71.23,1.08.31.55.13,1.04,0,1.44-.41.19-.2.38-.43.53-.66.64-1,.98-2.12,1.26-3.25.67-2.72.9-5.49.97-8.27.03-1.17-.05-2.33-.08-3.5,0-.16-.05-.32-.08-.49,0-.09,0-.19,0-.28,0-.15-.01-.3-.02-.45-.05-.95-.15-1.91-.15-2.86,0-1.86.37-3.65,1.17-5.33.15-.31.35-.6.53-.9-.03.14-.05.28-.1.41-.14.36-.29.71-.43,1.06-.03.08-.06.17-.09.25,0,0,0,0,0,0-.13.38-.29.75-.39,1.13-.51,1.86-.58,3.75-.39,5.66.1,1,.2,2,.24,3,.09,2.5-.02,5-.36,7.49-.2,1.48-.47,2.96-.94,4.38-.28.83-.59,1.63-1.11,2.35-.62.86-1.28,1.11-2.3.84-.38-.1-.74-.24-1.12-.33-.74-.18-1.39-.03-1.89.58h0s-.06.06-.09.09c0,0,0,0,0,0-.04.03-.08.06-.12.09-.07.08-.14.16-.2.24-.74,1.08-1.07,2.27-.94,3.57.04.39.14.78.61.89.02,0,.04.02.07.02,0-.02-.01-.05-.02-.07,0-.03,0-.06,0-.09-.22-1.21.36-2.09,1.16-2.88.04-.04.11-.04.16-.06,0,0,0,0,0,0-.07.11-.14.23-.22.33-.41.54-.77,1.1-.9,1.79-.11.58.1,1.18.62,1.47.34.2.73.35,1.12.44.3.07.64.12.94-.08-.21-1.1.22-2.26.98-2.58-.08.11-.14.19-.18.28-.19.34-.41.66-.55,1.02-.3.8-.02,1.42.76,1.75.27.12.57.19.86.25.8.16,1.61.12,2.41-.01.91-.15,1.72-.51,2.33-1.23.35-.41.7-.83.98-1.28.91-1.46,1.47-3.07,1.92-4.72.83-3.01,1.66-6.03,2.48-9.04.81-2.97,1.61-5.95,2.42-8.92.24-.89.2-1.75-.15-2.59-.22-.53-.54-1-.91-1.43-.09-.11-.16-.24-.24-.36h0c.19.16.4.3.57.48.24.28.45.58.68.87.08.21.21.42.22.63.04.77.56,1.11,1.17,1.4.77.36,1.53.74,2.3,1.1.14.07.29.13.46.02.51-.31,1.03-.59,1.55-.89.17-.06.34-.12.5-.19,1.44-.59,2.94-.89,4.5-.89,1.14,0,2.27.15,3.37.44,2.75.73,5.18,2,7.08,4.18.75.86,1.37,1.81,1.8,2.88.15.37.27.74.27,1.15-.07-.08-.11-.17-.14-.26-.35-1.01-.83-1.95-1.47-2.81-.6-.81-1.24-1.57-2.07-2.16-.04-.04-.07-.07-.11-.11h0c-.06-.03-.12-.06-.18-.1h0s-.06-.06-.1-.09h0c-.14-.11-.26-.24-.41-.34-1.35-.94-2.84-1.6-4.42-2.04-2.21-.62-4.42-.72-6.65-.12-1.91.51-3.59,1.47-5.08,2.77-2.59,2.26-3.86,5.09-3.67,8.54.03.5.17,1,.25,1.49.05.23.1.47.17.7.63,2.08,1.88,3.72,3.51,5.11.68.58,1.43,1.02,2.32,1.21.25.05.49.11.73.17-.53.07-1.03-.11-1.54-.22-.22-.05-.44-.08-.66-.09-.63-.04-1.26-.03-1.88-.1-.64-.07-1.27-.23-1.9-.31-.65-.09-1.32-.11-1.97.04-1.59.37-3.26,2.23-3.45,3.85-.05.44,0,.87.24,1.26.23.38.53.58.92.61-.29-.86-.26-1.68.22-2.46.47-.78,1.17-1.24,2.04-1.43-.39.27-.81.5-1.18.79-.8.64-1.14,1.49-.98,2.51.08.5.26.97.78,1.18.39.16.8.22,1.25.15-.23-.55-.2-1.07.05-1.58.36-.75.91-1.33,1.66-1.71.32-.16.65-.32,1.03-.26h0c-.31.15-.62.28-.91.45-.75.43-1.37,1-1.62,1.85-.3,1,.06,1.33.77,1.57.11.04.23.07.34.1,1.03.24,2.06.3,3.12.2,1.03-.1,2.04-.3,3.03-.62.69-.22,1.21-.65,1.57-1.26.04-.07.09-.14.19-.29-.07.54-.41.84-.61,1.23.21,0,.37,0,.53,0,1.22-.08,2.45-.17,3.67-.24,2.06-.11,4.12-.26,6.17-.57.82-.12,1.65-.3,2.45-.55.83-.26,1.37-.86,1.51-1.74.05-.3,0-.62,0-.95.18-.05.37-.11.55-.16.65-.19,1.28-.42,1.86-.78,1.83-1.13,3-2.76,3.64-4.79.52-1.65.64-3.34.47-5.06-.2-1.94-.71-3.79-1.6-5.53-.91-1.78-2.14-3.32-3.49-4.78-1.72-1.86-3.6-3.56-5.46-5.28-1.61-1.48-3.24-2.94-4.85-4.42-1.65-1.51-3.19-3.12-4.54-4.91-1-1.32-1.9-2.7-2.56-4.21-.96-2.17-1.41-4.47-1.64-6.82.08.03.16.06.23.09.16,1.61.44,3.2.91,4.75.61,2.04,1.64,3.85,2.87,5.56,1.51,2.1,3.31,3.94,5.21,5.69,2.47,2.27,4.96,4.53,7.41,6.81,1.65,1.53,3.21,3.14,4.56,4.95,1.63,2.17,2.68,4.59,3.08,7.28.22,1.51.24,3.01-.04,4.52-.01.06-.01.12-.02.19.04.02.08.05.12.05,3.08.2,5.81-.65,8.07-2.79,1.79-1.68,2.95-3.76,3.66-6.09.74-2.39.93-4.84.75-7.33-.18-2.56-.75-5.03-1.6-7.44-.82-2.35-1.52-4.73-1.99-7.17-.28-1.47-.45-2.96-.55-4.45-.01-.22,0-.45.01-.67.22-.26.27-.59.32-.91.57-2.07,1.42-4.07,1.93-4.47-.12,1.07-.13,2.09.23,3.19.05-.15.06-.18.07-.22.43-2.26,1.51-4.18,3.12-5.81.22-.22.48-.41.74-.58.13-.09.32-.1.55-.17-.37.92-.55,1.78-.55,2.67,0,.86.09,1.7.46,2.5.06.12.14.24.21.35.07-.15.08-.27.09-.38.1-1.65.56-3.18,1.51-4.54.4-.57.86-1.08,1.43-1.48.22-.15.44-.29.77-.31-.29,1.32-.3,2.62-.04,3.91.25,1.28.66,2.49,1.39,3.58.04-.2.02-.39.04-.58.06-.58.09-1.16.2-1.73.14-.72.42-1.41.87-2,.16-.22.33-.46.67-.51-.11,2.07.58,3.85,1.74,5.49-.17-1.18-.03-2.32.35-3.48.04.1.07.15.08.21.26.99.71,1.9,1.17,2.81.05.11.15.2.23.29h0c0,.05,0,.11.01.17.2.31.4.61.6.92,1.07,2.53,2.15,5.06,3.22,7.59.85,2.03,1.58,4.1,1.98,6.27.16.88.23,1.78.33,2.67,0,.24,0,.48,0,.71,0,.52,0,1.03,0,1.55Zm-60.1,21.13s.06.03.09.05c-.18.3-.36.6-.57.95,1.03-.06,2.04-.12,3.04-.18,0-.08,0-.1,0-.11-.1-.11-.2-.22-.31-.33-.75-.76-1.37-1.62-1.87-2.57-.73-1.39-1.1-2.87-1.15-4.43-.02-.52-.36-.79-.68-1.21-.29,1.06-.55,2.02-.82,3.02.46.13.87.24,1.28.35,0,.02,0,.04,0,.05-.42-.06-.85-.13-1.3-.2-.06.16-.12.31-.16.46-.51,1.86-1.02,3.72-1.53,5.58-.03.12-.03.25-.06.46.76-.18,1.44-.34,2.11-.5.84-.21,1.5-.66,1.94-1.41Zm38.24-43.2c-.04.06-.08.13-.11.19-.65,1.37-1.14,2.8-1.43,4.29-.07.38-.08.77-.07,1.16.02.45.09.89.14,1.34.23,2.09.65,4.14,1.25,6.15.47,1.56,1,3.11,1.49,4.66.86,2.76,1.33,5.58,1.25,8.48-.03,1.19-.14,2.36-.38,3.52-.5,2.49-1.48,4.77-3.1,6.75-2.28,2.78-5.25,4.08-8.82,4.02-.2,0-.41-.03-.63-.04-.36,1.53-.97,2.9-1.97,4.14.47.25.9.49,1.34.69,1.81.82,3.73,1.2,5.7,1.33,2.11.14,4.22.03,6.31-.36,2.95-.55,5.76-1.49,8.39-2.95,1.49-.82,2.87-1.8,4.13-2.93,2.44-2.2,4.33-4.79,5.68-7.79,1.54-3.41,2.37-6.99,2.51-10.73.06-1.7-.09-3.38-.43-5.04-.48-2.31-1.3-4.51-2.23-6.68-.76-1.78-1.53-3.55-2.3-5.32-.17-.38-.33-.77-.51-1.14-.6-1.22-1.2-2.44-1.81-3.66-.04-.09-.09-.17-.16-.3-.28,1.22-.16,2.38.11,3.54-1.47-1.73-2.41-3.66-2.44-5.97-.49.31-.91,1.2-1.17,2.51-.19.94-.16,1.88.08,2.83-.98-1.11-1.53-2.42-1.89-3.82-.37-1.41-.47-2.84-.19-4.36-.64.33-1.06.78-1.43,1.27-1.16,1.49-1.72,3.2-1.74,5.09,0,.22,0,.43,0,.72-.4-.25-.58-.56-.72-.88-.73-1.59-.62-3.22-.15-4.88-.34.14-.71.43-1.04.81-1.6,1.81-2.63,3.87-2.87,6.3-.6-.89-.64-1.9-.77-2.92Zm-39.11,35.84s.07-.02.1-.03c.02-.1.04-.2.05-.3.11-1.41.51-2.73,1.16-3.98.82-1.57,2.04-2.8,3.43-3.87.12-.1.24-.19.37-.3-1.1-.55-2.15-1.07-3.23-1.6-.02.2-.02.4-.06.58-.17.71-.34,1.43-.53,2.13-.56,2.09-1.14,4.19-1.7,6.28-.04.15-.07.34-.01.47.1.22.28.41.42.62Z" style="fill:#662a0f; stroke-width:0px;"/><path d="m116.59,118.69c-.05.32-.1.65-.32.91-.01-.67-.05-1.35-.02-2.02.1-2.35.53-4.63,1.27-6.87.78-2.38,2.18-4.32,4.07-5.92,2.97-2.51,6.41-4,10.23-4.62,1.19-.19,2.38-.25,3.58-.02.07.01.15.03.22.06.03,0,.05.03.11.08-.18.08-.33.15-.49.21-1.2.48-2.35,1.06-3.35,1.89-.3.24-.55.54-.82.82-.02.02-.04.04-.06.06.04,0,.07,0,.11-.01.37-.15.74-.32,1.12-.45,1.1-.37,2.23-.61,3.4-.4.27.05.53.14.91.24-2.72,1.24-4.68,2.96-5.09,6,.94-.91,1.99-1.57,3.37-1.59,0,.06,0,.11-.02.13-.73.93-1.04,2.02-1.2,3.15-.38,2.64-.03,5.22.77,7.75.04.14.07.29.1.43-.2-.31-.4-.61-.6-.92.12-.07.11-.12-.01-.18,0,0,0,0,0,0-.01-.13,0-.27-.04-.39-.46-1.78-.67-3.59-.58-5.43.07-1.42.3-2.8,1.02-4.06.03-.05.04-.11.07-.23-.18.03-.33.05-.47.09-1.01.28-1.79.89-2.42,1.7-.06.07-.13.13-.25.25-.05-.97.13-1.81.48-2.61.84-1.88,2.32-3.12,4.16-4.05-.52-.2-1-.16-1.47-.12-1.49.12-2.85.6-4.08,1.47.04-.15.09-.29.16-.41.31-.56.76-1,1.25-1.4.83-.68,1.75-1.2,2.72-1.64.14-.06.28-.14.42-.2-.18-.11-.34-.13-.5-.14-.83-.03-1.65.03-2.46.15-3.4.52-6.48,1.8-9.24,3.85-1.77,1.31-3.23,2.9-4.22,4.89-.5,1.01-.83,2.09-1.12,3.17-.54,1.98-.8,3.99-.82,6.03,0,.12-.06.28.12.34Z" style="fill:#907b70; stroke-width:0px;"/><path d="m77.65,160.18c.21-.07.42-.13.64-.2,0,.04,0,.08,0,.12-.21.07-.42.15-.63.22,0-.05,0-.09,0-.14Z" style="fill:#d9c4b7; stroke-width:0px;"/><path d="m60.83,89.21c-.6-.28-1.2-.57-1.81-.84-.39-.17-.8-.3-1.2-.45.5-.27,1-.53,1.5-.8,2.03-1.11,3.81-2.53,5.44-4.16,1.8-1.8,3.71-3.49,5.82-4.94,1.34-.92,2.74-1.71,4.26-2.3,1.17-.45,2.37-.72,3.61-.86,1.08-.13,2.15-.08,3.34-.06-.61.28-1.13.5-1.63.76-.52.27-.99.62-1.42,1.06,1.11.25,2.19.5,3.26.75-3.02,1.11-5.11,3.06-6.08,6.22,1.67-.87,3.27-1.69,4.87-2.52-.78.19-1.49.53-2.2.88-.73.35-1.44.74-2.26,1.16.54-1.55,1.4-2.76,2.59-3.73,1.19-.97,2.51-1.66,4.06-1.88-1.2-.44-2.44-.73-3.75-1,.62-.54,1.26-.9,1.96-1.17,1.34-.5,2.7-.49,4.06-.09.6.17,1.18.43,1.77.65.26.1.52.22.88.38-.37-.88-.82-1.59-1.24-2.32.95-.13,2.77.93,3.58,2.03.88,1.2,1.11,2.59,1.23,4.03,0-.22.02-.44.03-.66,0-.24,0-.48,0-.75.08.02.16.03.21.07,1.84,1.14,3.57,2.42,5.1,3.96,2.05,2.06,3.47,4.5,4.17,7.33.46,1.83.62,3.68.6,5.57-.03,3.59-.6,7.09-1.73,10.5-.03.1-.08.19-.12.29-.61-.51-1.22-1.01-1.82-1.53-.68-.61-1.35-1.23-2.12-1.73-1.6-1.04-3.35-1.74-5.2-2.15-1.24-.27-2.5-.43-3.75-.64-.09-.01-.17-.05-.25-.07.55-.29.86-.78,1.1-1.31,1.63-3.58,2.61-7.3,2.5-11.27.03-.05.07-.1.09-.16.39-1.79.13-3.45-.93-4.97-.18-.25-.41-.48-.66-.66-.71-.52-1.94-.33-2.18.48-.83-.15-1.57.08-2.27.5-.9.54-1.62,1.27-2.29,2.06-1.24,1.47-2.24,3.1-3.12,4.81-.92,1.78-1.73,3.61-2.24,5.56-.15.59-.33,1.19-.12,1.8-.38-.17-.65-.46-.9-.79-.92-1.21-1.98-2.28-3.28-3.08-1.26-.77-2.61-1.25-4.12-1.19-.15-.11-.3-.22-.45-.33.25-.21.51-.41.76-.64,2.04-1.88,3.73-4.05,5.18-6.4.67-1.08,1.27-2.21,1.65-3.43.16-.53.29-1.07.21-1.63.37-.42.41-.83.14-1.31-.25-.44-.66-.66-1.13-.72-1.62-.23-3.01.28-4.19,1.38-.02.01,0,.05-.02.1.11,0,.23-.01.34-.02-.31.18-.62.35-.93.53-1.71.98-3.23,2.22-4.67,3.55-1.45,1.35-2.8,2.78-4.02,4.34-.34.44-.42.91-.32,1.44.03.13.06.26.09.39Zm30.52-8.8c.02-.05.03-.07.03-.08,0-.02,0-.04-.01-.06,0,.03,0,.06-.01.13Z" style="fill:#fe6f0d; stroke-width:0px;"/><path d="m116.12,80.95c.04.37.09.64.09.92-.01,1.44-.21,2.87-.52,4.27-.78,3.59-2.13,6.95-4.2,10-1.87,2.74-4.23,4.96-7.14,6.57-.93.52-1.91.92-2.98,1.08-.18.03-.35.03-.59.05.04-.19.07-.35.1-.5.71-2.91,1.05-5.86.96-8.86-.04-1.32-.19-2.63-.47-3.92-.05-.24-.02-.43.08-.64,1-2.15,2.51-3.81,4.61-4.93,1.74-.93,3.55-1.65,5.41-2.28,1.39-.47,2.79-.91,4.1-1.58.14-.07.3-.1.55-.19Z" style="fill:#f3e8e0; stroke-width:0px;"/><path d="m74.56,60.95c-.03.54-.12,1.08-.07,1.61.1,1.09.25,2.17.41,3.25.19,1.3.45,2.6.49,3.92.05,1.85-.36,3.63-.86,5.39-.11.39-.3.62-.68.79-2.13.94-4.04,2.24-5.79,3.75-1.46,1.26-2.85,2.61-4.27,3.92-.43.39-.86.77-1.33,1.18-.33-.67-.51-1.31-.65-1.97-.51-2.33-.42-4.65.17-6.94,1.74-6.7,5.71-11.6,11.93-14.66.17-.09.36-.16.54-.23.04-.01.08,0,.11,0Z" style="fill:#f3e8e0; stroke-width:0px;"/><path d="m74.66,75.55c.15-.57.28-1.04.4-1.52.32-1.22.54-2.46.56-3.72.02-.82-.07-1.65-.18-2.46-.19-1.38-.46-2.74-.65-4.12-.1-.75-.21-1.52-.04-2.28.07-.3.15-.6.24-.97-.42.17-.79.3-1.15.47-3.18,1.51-5.86,3.65-8.03,6.43-1.93,2.48-3.27,5.26-4.03,8.3-.41,1.62-.59,3.27-.49,4.94.09,1.46.38,2.88.98,4.27-.54.39-1.09.78-1.68,1.21-.1-.17-.18-.29-.24-.41-.9-1.89-1.31-3.87-1.27-5.96.04-2.22.58-4.33,1.42-6.36.92-2.24,2.12-4.33,3.61-6.25,1.59-2.05,3.47-3.8,5.57-5.32,1.62-1.17,3.32-2.2,5.16-2.98.49-.21,1-.4,1.52-.53.91-.24,1.31.1,1.25,1.05-.02.4-.09.8-.16,1.2-.2,1.13-.08,2.24.14,3.35.39,1.99,1.08,3.89,1.84,5.77.6,1.47,1.1,2.98,1.47,4.52.02.1.04.2.06.35-2.16-.05-4.24.22-6.32,1.02Z" style="fill:#fd6e0d; stroke-width:0px;"/><path d="m100.48,104.93c.07-.27.14-.55.22-.85.32-.04.63-.05.94-.11,1.21-.22,2.31-.74,3.35-1.37,3.25-1.96,5.79-4.62,7.67-7.91,1.72-2.99,2.85-6.19,3.45-9.58.21-1.19.35-2.4.3-3.62-.03-.7-.29-.88-.92-.57-1.42.7-2.91,1.17-4.4,1.68-1.66.57-3.28,1.23-4.84,2.03-2.16,1.1-3.79,2.7-4.85,4.88-.04.08-.08.16-.15.3-.27-.76-.48-1.48-.77-2.17-.31-.71-.66-1.41-1.05-2.08-.39-.66-.85-1.27-1.31-1.95.09-.08.19-.19.3-.27,1.94-1.42,4.07-2.39,6.47-2.72,1.69-.24,3.38-.47,5.06-.71,1.63-.23,3.27-.44,4.81-1.06.72-.29,1.41-.65,2.12-.97.39-.18.79-.35,1.2-.5.25-.09.52-.17.77.01-.06.37-.12.73-.18,1.1-.21,1.19-.41,2.37-.63,3.56-.29,1.55-.71,3.08-1.18,4.59-.59,1.9-1.27,3.77-2.14,5.56-.5,1.02-1.04,2.02-1.63,2.99-1.22,2.03-2.63,3.91-4.42,5.49-.85.76-1.75,1.44-2.7,2.06-1.35.89-2.82,1.5-4.35,1.97-.37.11-.76.15-1.14.22Z" style="fill:#fd6e0d; stroke-width:0px;"/><path d="m100.48,104.93c.38-.07.77-.11,1.14-.22,1.54-.47,3.01-1.08,4.35-1.97.95-.62,1.85-1.31,2.7-2.06,1.78-1.58,3.2-3.46,4.42-5.49.58-.97,1.13-1.97,1.63-2.99.87-1.79,1.55-3.66,2.14-5.56.47-1.51.88-3.03,1.18-4.59.22-1.18.42-2.37.63-3.56.06-.37.12-.73.18-1.1.24.19.27.46.25.73-.05.64-.08,1.29-.19,1.92-.3,1.68-.61,3.35-.98,5.01-.54,2.43-1.3,4.79-2.28,7.08-.85,1.99-1.94,3.85-3.18,5.62-1.19,1.69-2.51,3.28-4.04,4.68-1.36,1.24-2.86,2.27-4.64,2.83-1,.32-2.01.44-3.06.37-.13,0-.26-.05-.44-.09.07-.23.13-.42.19-.61Z" style="fill:#de4c03; stroke-width:0px;"/><path d="m99.96,143.8c.83.58,1.47,1.35,2.07,2.16.64.86,1.12,1.8,1.47,2.81.03.09.07.18.14.26,0-.41-.13-.78-.27-1.15-.43-1.07-1.04-2.02-1.8-2.88-1.9-2.17-4.33-3.45-7.08-4.18-1.1-.29-2.23-.45-3.37-.44-1.56,0-3.06.3-4.5.89-.17.07-.34.12-.5.19-.17-.03-.35-.06-.52-.1-.68-.17-1.37-.3-2.03-.51-1.01-.33-1.94-.83-2.78-1.5-.1-.08-.24-.1-.37-.14-.22-.29-.43-.6-.68-.87-.16-.18-.38-.32-.57-.48,0-.01,0-.03-.02-.04,0,0-.02,0-.03,0,.02.01.04.02.05.04.08.12.14.25.24.36.37.44.7.9.91,1.43.35.85.39,1.71.15,2.59-.81,2.97-1.61,5.95-2.42,8.92-.82,3.02-1.65,6.03-2.48,9.04-.45,1.65-1.01,3.26-1.92,4.72-.28.45-.63.87-.98,1.28-.61.72-1.42,1.08-2.33,1.23-.8.13-1.61.17-2.41.01-.29-.06-.59-.13-.86-.25-.78-.33-1.06-.95-.76-1.75.14-.36.36-.68.55-1.02.05-.09.11-.17.18-.28-.76.31-1.19,1.48-.98,2.58-.29.2-.64.15-.94.08-.39-.09-.77-.24-1.12-.44-.52-.3-.73-.89-.62-1.47.13-.68.49-1.25.9-1.79.08-.11.15-.22.22-.33.03-.03.06-.06.09-.09,0,0,.02,0,.03-.02,0,0,0-.01,0-.02-.01.01-.02.03-.03.04-.03.03-.06.06-.09.09-.05.02-.12.02-.16.06-.8.79-1.39,1.67-1.16,2.88,0,.03,0,.06,0,.09-.02.02-.03.03-.05.05-.47-.11-.57-.5-.61-.89-.13-1.3.19-2.49.94-3.57.06-.09.13-.16.2-.24.04-.03.08-.06.12-.09,0,0,0,0,0,0,.03-.03.06-.06.09-.09,0,0,0,0,0,0,.14-.04.3-.06.42-.13.47-.28.96-.3,1.47-.16.5.14,1,.29,1.51.41.73.18,1.41.07,1.92-.54.29-.35.57-.73.8-1.13.86-1.51,1.33-3.16,1.62-4.86.15-.88.27-1.77.38-2.65.11-.9.21-1.81.25-2.71.05-1.31,0-2.63-.16-3.94-.1-.81-.14-1.63-.2-2.45-.06-.74-.14-1.49-.16-2.23-.01-.69.02-1.37.08-2.06.07-.74.2-1.47.31-2.21.02-.15.03-.3.04-.44,0,0,0,0,0,0,.03-.08.06-.17.09-.25.15-.35.3-.7.43-1.06.05-.13.07-.27.1-.41,0,0,0,.01,0,.01.06-.09.12-.18.19-.28,0,0,0,.01,0,.01.03-.06.07-.12.1-.19,0,0,0,0,0,0,.01-.03.03-.05.04-.08.24-.61.47-1.23.71-1.84.38-.98.62-2,.78-3.03.17-1.03.3-2.07.43-3.1.05-.37.09-.74.1-1.12.04-1.84.11-3.68.08-5.52-.03-1.35-.15-2.71-.41-4.05-.01-.06,0-.12,0-.21.38-.13.78-.22,1.13-.41.55-.28,1.06-.21,1.63-.03,1.55.5,3.15.82,4.75,1.11.43.08.85.14,1.28.2.22,2.35.68,4.65,1.64,6.82.67,1.52,1.57,2.9,2.56,4.21,1.35,1.79,2.89,3.4,4.54,4.91,1.61,1.48,3.24,2.94,4.85,4.42,1.86,1.72,3.74,3.42,5.46,5.28,1.35,1.45,2.58,3,3.49,4.78.89,1.74,1.41,3.58,1.6,5.53.17,1.72.05,3.41-.47,5.06-.64,2.03-1.81,3.66-3.64,4.79-.58.36-1.21.59-1.86.78-.19.05-.37.11-.55.16,0,.34.04.65,0,.95-.14.88-.68,1.48-1.51,1.74-.8.24-1.62.42-2.45.55-2.04.31-4.1.45-6.17.57-1.23.07-2.45.16-3.67.24-.16.01-.33,0-.53,0,.2-.39.55-.69.61-1.23-.1.15-.15.21-.19.29-.37.62-.89,1.04-1.57,1.26-.99.32-1.99.52-3.03.62-1.06.1-2.09.04-3.12-.2-.12-.03-.23-.06-.34-.1-.71-.24-1.07-.57-.77-1.57.26-.84.88-1.41,1.62-1.85.29-.17.61-.31.92-.46.06,0,.12-.01.18-.02,0-.02-.01-.03-.02-.05-.05.03-.11.05-.16.08-.38-.06-.71.1-1.03.26-.74.38-1.29.96-1.66,1.71-.24.51-.28,1.03-.05,1.58-.45.07-.86.01-1.25-.15-.52-.21-.7-.68-.78-1.18-.16-1.02.19-1.87.98-2.51.37-.3.79-.52,1.18-.79-.87.2-1.57.66-2.04,1.43-.48.78-.51,1.61-.22,2.46-.39-.03-.69-.24-.92-.61-.24-.39-.29-.82-.24-1.26.19-1.62,1.86-3.48,3.45-3.85.65-.15,1.31-.13,1.97-.04.64.09,1.26.24,1.9.31.62.07,1.25.06,1.88.1.22.01.44.04.66.09.51.11,1,.28,1.54.22-.24-.06-.49-.12-.73-.17-.88-.19-1.64-.63-2.32-1.21-1.63-1.39-2.88-3.04-3.51-5.11-.07-.23-.11-.46-.17-.7,0-.54-.01-1.08,0-1.62.01-.43.04-.87.11-1.29.21-1.18.59-2.31,1.15-3.38.83-1.56,1.98-2.84,3.41-3.86,1.72-1.23,3.65-2,5.75-2.19,1.71-.16,3.43-.05,5.11.38,1.41.36,2.78.82,4.04,1.56.11.06.25.07.38.11,0,0,0,0,0,0,.03.03.06.06.1.09,0,0,0,0,0,0,.06.03.12.07.18.1,0,0,0,0,0,0,.04.04.07.07.11.11Zm-32.84,20.13s.06-.06.09-.09c.03-.03.06-.06.09-.09.03-.03.06-.06.09-.09,0,0,.02-.02.03-.03,0,.01-.01.02-.02.03-.03.03-.06.06-.09.09-.03.03-.06.06-.09.09-.03.03-.06.06-.09.09,0,.02-.01.05-.02.07,0-.02.01-.05.02-.07Zm.54-.45h.01s0,0,0,0h-.01s.01,0,.01,0Zm11.24-25.81s.02.01.04.02c-.01,0-.03,0-.04-.01,0,0-.02-.02-.03-.03.01,0,.02.01.03.02Zm-.29,24.41s0,.01,0,.02h.12s0-.01,0-.02c-.04,0-.08,0-.12,0Z" style="fill:#ff6f0d; stroke-width:0px;"/><path d="m79.35,112.6c-.56.05-1.08.22-1.55.54-1.43.97-3.04,1.48-4.72,1.76-1.45.24-2.9.17-4.3-.34-1.5-.55-2.69-1.44-3.33-2.95-.4-.94-.57-1.92-.43-2.94.05-.42.11-.84.1-1.25,0-.29-.11-.58-.17-.87-.09-.34-.25-.64-.52-.89.14.34.28.68.41,1.02,0,.48,0,.96,0,1.44,0,.1-.05.19-.1.36-.38-.29-.73-.53-1.06-.81-2.64-2.27-4.84-4.9-6.37-8.04-1.35-2.77-2.63-5.58-3.94-8.37-.04-.09-.08-.19-.15-.37.75.2,1.44.39,2.13.57-1.57-1.38-2.67-3-2.91-5.14.48.38.95.78,1.45,1.14.49.36.99.71,1.65.93-.15-.53-.29-1.01-.46-1.58.2.11.3.16.4.22.82.55,1.7,1,2.66,1.28,1.57.46,2.95,1.31,4.27,2.25.26.18.51.36.76.56.08.06.13.15.19.23-.65.4-.92,1.02-1.02,1.75-.1.69,0,1.37.14,2.04-.31.86-.31,1.74-.13,2.61.49,2.32,1.76,4.01,4.05,4.81.6.21,1.24.32,1.9.48.02.09.05.22.07.35.13.66.06,1.32-.06,1.96-.16.87-.35,1.73-.52,2.6-.15.75-.36,1.48-.32,2.26.06,1.16.62,1.98,1.69,2.43.57.24,1.19.31,1.8.28,1.1-.06,2.15-.37,3.15-.83,1.59-.73,2.95-1.76,4.2-2.97,1.26-1.22,2.35-2.59,3.31-4.07.09-.14.2-.28.32-.46.1.17.16.28.23.39,0-.26-.03-.52-.14-.74-.34-.67-.79-1.23-1.59-1.38-.14-.03-.28-.05-.42-.08,0,.02,0,.04-.01.07l.33.08c.2.11.4.22.62.35-.09.06-.12.1-.16.11-1.42.55-2.88.89-4.4.99-2.33.15-4.58-.24-6.76-1.06-1.04-.39-1.95-.96-2.69-1.8-.06-.07-.13-.12-.19-.19-.26-.37-.51-.74-.77-1.11.1.48.32.88.65,1.23.33.37.67.74,1.03,1.15-.14,0-.24.02-.33,0-1.05-.23-2.01-.67-2.84-1.37-1.02-.87-1.56-2.02-1.89-3.29-.17-.67-.25-1.35-.1-2.04.02-.11,0-.25.19-.25.27.72.72,1.31,1.33,1.77.69.52,1.43.64,2.24.3.87-.37,1.63-.88,2.28-1.56.3-.31.56-.66.79-1.02.3-.46.29-.96.08-1.46-.23-.55-.57-1.02-1.01-1.42.13-.02.26-.07.38-.06,1.74.17,3.24.9,4.56,2.01.99.84,1.83,1.8,2.54,2.89.06.1.14.19.21.29.27.44.54.88.81,1.32.06.1.11.21.17.32.02.01.04.02.06.03l-.03-.07c-.04-.11-.09-.22-.13-.32-.12-.23-.24-.45-.35-.68-.09-.2-.17-.4-.26-.6.16.06.33.1.47.18,1.68,1.08,3.49,1.84,5.44,2.29,1.32.31,2.65.46,3.99.58,2.38.22,4.72.61,6.95,1.52,1.6.65,3.03,1.55,4.28,2.75,1.66,1.59,3.47,2.99,5.52,4.05.03.01.04.04.1.09-.38.2-.78.29-1.17.38-.41.09-.82.15-1.32.24.19.17.33.31.49.42,1.15.77,2.42,1.25,3.76,1.52.18.04.35.07.53.1.01,0,.02.02.08.07-1.73.75-3.51.86-5.43.76.25.24.45.43.64.63.18.19.34.41.46.69-.15-.02-.31-.05-.46-.06-1.16-.08-2.31-.08-3.43.27-.5.16-.98.38-1.46.57-1.98.78-4.02,1.25-6.15,1.41-1.78.13-3.53-.02-5.28-.27-2.24-.32-4.45-.76-6.63-1.38-.23-.06-.45-.14-.76-.24.77-.55,1.48-1.03,2.34-1.21.34-.04.68-.08,1.03-.12,0,0,0-.01,0-.02h-1.02Zm2.92-7.42v.03s.01-.03.01-.03h-.01Z" style="fill:#f3e8e0; stroke-width:0px;"/><path d="m72.78,134.14c-.18.3-.38.59-.53.9-.81,1.68-1.18,3.47-1.17,5.33,0,.95.1,1.91.15,2.86,0,.15.01.3.02.45-.38-.29-.77-.57-1.12-.89-2.05-1.88-3.46-4.19-4.43-6.78-.44-1.18-.75-2.4-.88-3.65-.03-.33-.02-.66-.03-.99,0-.13,0-.26-.04-.39-.45.69-.79,1.42-1.13,2.27-.08-.2-.14-.31-.17-.42-.6-2.13-.29-4.16.79-6.06.36-.63.83-1.21,1.25-1.81.07-.11.14-.22.21-.33,0,0,.01-.02.02-.02,0,0-.01.02-.02.03-.51.31-1.02.62-1.53.93-.13.08-.27.17-.4.25l-.08-.06c.06-.15.1-.3.17-.44.48-1.02,1.18-1.87,1.91-2.71.58-.67,1.19-1.31,1.76-1.98.94-1.1,1.61-2.38,2.2-3.69.21-.46.4-.94.6-1.41.05-.11.11-.21.17-.33,1.37.2,2.69-.04,4.05-.34.08.46.17.89.21,1.31.08.82.16,1.64.2,2.46.05,1.03.09,2.07.07,3.1-.07,2.74-.27,5.47-.87,8.16-.25,1.1-.67,2.14-1.1,3.18-.1.24-.14.5-.2.76.01,0,.02,0,.03,0,.01,0,.03-.01.04-.02.01.03.03.05.04.08,0,0,0-.01,0-.01-.17,0-.22.07-.19.28h0Z" style="fill:#f3e8e0; stroke-width:0px;"/><path d="m71.25,143.96c.03.16.08.32.08.49.04,1.17.11,2.34.08,3.5-.07,2.78-.3,5.56-.97,8.27-.28,1.13-.63,2.25-1.26,3.25-.15.24-.34.46-.53.66-.39.41-.89.54-1.44.41-.36-.09-.72-.2-1.08-.31-1.17-.36-2.06-.08-2.79.92-.69.95-1.02,2.02-1.08,3.18,0,.15,0,.3,0,.44-.75,0-1.35-.69-1.22-1.4.1-.57.38-1.07.72-1.53.09-.12.17-.23.26-.35,0-.02.02-.05.03-.07-.02.01-.04.02-.07.03-.08.06-.17.13-.25.19-.14.17-.29.34-.42.52-.47.64-.64,1.34-.37,2.1-.84.41-2.28-.1-2.63-.93-.15-.36-.16-.74-.03-1.1.15-.4.36-.78.55-1.17.09-.17.2-.33.3-.5,0-.03.02-.05.02-.08-.01.02-.02.04-.04.06-.03,0-.07,0-.09.02-.73.77-1.25,1.61-.98,2.73.01.04,0,.09,0,.13l-.02.02c-.38,0-.54-.28-.59-.56-.08-.43-.14-.89-.1-1.32.06-.9.36-1.74.84-2.52.05-.07.12-.13.18-.2.08-.06.15-.12.23-.19,0,0,0,0,0,0,.16-.08.31-.17.47-.25.36-.18.73-.34,1.15-.22.59.15,1.19.29,1.78.42.61.14,1.21.1,1.69-.33.3-.28.57-.62.79-.97.24-.38.42-.79.61-1.2.54-1.18.87-2.42,1.07-3.69.11-.72.21-1.45.3-2.17.09-.77.18-1.54.23-2.31.04-.58,0-1.17.02-1.75.04-1.24-.1-2.48-.21-3.71-.06-.74-.17-1.48-.26-2.22-.04-.36-.09-.71-.12-1.07-.04-.56-.08-1.13-.11-1.69,0-.02.03-.05.05-.08.49.97,1.01,1.93,1.63,2.83.91,1.31,1.97,2.48,3.24,3.44.11.08.22.15.34.22Zm-11.95,16.37s.06-.06.09-.09c0-.01.02-.02.03-.03,0,.01-.02.02-.02.04-.03.03-.06.06-.09.09-.01,0-.03.01-.04.02,0,0,0,.02,0,.03.01-.02.02-.04.03-.05Z" style="fill:#fe6f0d; stroke-width:0px;"/><path d="m90.21,87.6c.11,3.96-.87,7.69-2.5,11.27-.24.54-.56,1.03-1.1,1.31-2.47-.09-4.86-.52-7.15-1.49-1.05-.44-2.03-1.01-2.97-1.66-.2-.62-.03-1.21.12-1.8.51-1.95,1.32-3.78,2.24-5.56.88-1.7,1.88-3.34,3.12-4.81.67-.79,1.4-1.52,2.29-2.06.7-.42,1.44-.65,2.27-.5-.01.18.08.26.24.31.47.15.86.42,1.17.79.4.48.78.98,1.11,1.51.52.84.87,1.76,1.16,2.7Zm-7.35-.62c.2-.04.41-.1.61-.12.22-.02.45-.03.67-.01.21.01.42.04.62.1.21.06.42.15.62.26.18.1.35.24.5.37.15.13.29.29.43.43l.08-.07c-.12-.17-.23-.34-.36-.5-.74-.89-2.43-1.04-3.35-.51l-.24.11s.03.07.04.1c.13-.05.25-.1.38-.15Zm-3.97,9.94c.34.52.85.84,1.37,1.14.02.01.08-.05.13-.08.26-.03.44.12.63.27-.12.13-.02.18.08.22.96.4,1.93.71,2.99.69.03,0,.05,0,.08,0,1.17.04,1.7-.29,2.17-1.36.01-.03.03-.05.04-.08.78-2.14,1.05-4.33.62-6.58-.14-.74-.42-1.44-.9-2.04-.87-1.09-2.28-1.43-3.56-.86-.69.31-1.23.79-1.71,1.35-.88,1.04-1.49,2.24-1.92,3.53-.27.81-.46,1.64-.44,2.51.01.47.09.92.44,1.28Zm7.52-8.75s.02-.02.02-.03c0,0-.01-.02-.02-.03,0,0-.02.02-.02.03,0,0,.01.02.02.03Z" style="fill:#f2e7de; stroke-width:0px;"/><path d="m60.83,89.21c-.03-.13-.06-.26-.09-.39-.1-.52-.02-1,.32-1.44,1.22-1.56,2.58-2.99,4.02-4.34,1.44-1.34,2.95-2.58,4.67-3.55.31-.18.62-.35.93-.53.63-.22,1.28-.24,1.94-.25,1.02,0,2.02.09,2.84.81.02.02.06,0,.09,0,.08.56-.05,1.1-.21,1.63-.37,1.23-.98,2.35-1.65,3.43-1.46,2.35-3.14,4.52-5.18,6.4-.24.22-.5.43-.75.64-.28-.16-.55-.31-.83-.47.06-.11.3-.07.24-.28.1-.04.21-.08.31-.13.13-.07.32-.12.14-.33,0,0,0,0,0,0,.01.05.02.09.03.14l.14-.05s.06-.03.08-.05c1.3-1.21,2.12-2.7,2.48-4.43.14-.68.15-1.37-.08-2.04-.31-.89-.99-1.39-1.94-1.38-.37,0-.75.05-1.11.15-1.55.42-2.8,1.33-3.88,2.49-.49.53-.92,1.11-1.23,1.76-.44.95-.44,1.88.1,2.79.04.07.06.16.08.24-.08,0-.17,0-.23-.03-.42-.26-.83-.54-1.25-.81Zm7.54-7.24c1.35-.23,2.24.3,2.66,1.62.03-1.55-1.68-2.26-2.66-1.62Z" style="fill:#f2e7de; stroke-width:0px;"/><path d="m66.04,137.46s-.05.05-.05.08c.03.56.06,1.13.11,1.69.03.36.07.71.12,1.07.09.74.2,1.48.26,2.22.11,1.24.25,2.47.21,3.71-.02.58.02,1.17-.02,1.75-.05.77-.14,1.54-.23,2.31-.09.73-.19,1.45-.3,2.17-.2,1.28-.52,2.51-1.07,3.69-.19.41-.37.82-.61,1.2-.22.35-.48.69-.79.97-.48.44-1.08.47-1.69.33-.6-.13-1.19-.27-1.78-.42-.43-.11-.79.04-1.15.22-.16.08-.31.16-.47.25.04-.07.05-.17.11-.22.52-.46,1.1-.71,1.81-.5.36.11.72.21,1.08.3,1.05.26,1.72.01,2.33-.88.61-.89.94-1.9,1.22-2.93.4-1.48.64-2.98.74-4.51.1-1.48.21-2.96.22-4.44.01-1.81-.1-3.62-.37-5.41-.16-1.1-.16-2.21-.11-3.32,0-.08.05-.17.07-.25.12.3.24.61.36.91Z" style="fill:#f0a062; stroke-width:0px;"/><path d="m62.31,90.05c-.03-.08-.04-.17-.08-.24-.55-.91-.54-1.85-.1-2.79.3-.66.73-1.24,1.23-1.76,1.08-1.16,2.33-2.07,3.88-2.49.36-.1.74-.14,1.11-.15.95,0,1.62.49,1.94,1.38.23.67.22,1.36.08,2.04-.36,1.73-1.19,3.22-2.48,4.43-.02.02-.05.03-.08.05-.01-.03-.03-.06-.04-.08,0-.04,0-.08,0-.11.84-.85,1.5-1.82,1.93-2.94.31-.79.49-1.6.42-2.45-.08-.99-.71-1.76-1.58-1.85-.37-.04-.75-.03-1.11.05-1.55.33-2.79,1.18-3.88,2.29-.48.5-.89,1.05-1.19,1.68-.59,1.25-.3,2.51.78,3.37.27.21.58.36.87.54-.08.04-.17.09-.25.13-.43-.3-.85-.59-1.28-.89,0-.12,0-.23-.17-.19l.03-.02Z" style="fill:#171716; stroke-width:0px;"/><path d="m63.73,91.15c.08-.04.17-.09.25-.13.68-.12,1.36-.16,2.05-.04.2.04.41.06.62.09.09.03.18.07.28.1.28.16.55.31.83.47.15.11.3.22.45.33.08.09.15.18.23.27.44.4.77.87,1,1.42.21.5.22,1-.08,1.46-.24.36-.5.71-.79,1.02-.65.68-1.41,1.19-2.28,1.56-.81.34-1.55.22-2.24-.3-.61-.46-1.06-1.05-1.33-1.77-.07-.17-.15-.34-.22-.51-.14-.67-.24-1.35-.14-2.04.1-.72.38-1.34,1.02-1.75.12-.06.23-.13.35-.19Zm1.43.01c-.18,0-.36-.01-.54,0-1.02.09-1.84.73-2.01,1.78-.09.56-.1,1.1.02,1.64.19.91.57,1.73,1.26,2.38.74.69,1.56.91,2.5.42.2-.1.41-.19.6-.31.81-.47,1.5-1.09,2.04-1.85.38-.54.43-1.11.09-1.68-.89-1.51-2.15-2.42-3.97-2.39Z" style="fill:#b24846; stroke-width:0px;"/><path d="m76.38,97.37c.09.2.17.41.26.6.11.23.23.45.34.68-.02.01-.05.03-.07.04-.27-.44-.54-.88-.81-1.32.1-.03.11-.24.27-.14-.08.05-.12.09,0,.14h0Z" style="fill:#907b70; stroke-width:0px;"/><path d="m64.85,106.68c-.14-.34-.28-.68-.41-1.02.26.25.43.55.52.89-.04.04-.07.09-.11.13Z" style="fill:#907b70; stroke-width:0px;"/><path d="m79.35,112.6h1.02s0,.01,0,.02c-.34.04-.68.08-1.03.12,0-.04,0-.09,0-.13Z" style="fill:#907b70; stroke-width:0px;"/><path d="m62.28,90.07c.17-.03.17.08.17.19-.12,0-.22-.03-.17-.19Z" style="fill:#f2e7de; stroke-width:0px;"/><path d="m72.96,133.89s-.03-.05-.04-.08c.05-.03.1-.07.14-.1-.03.06-.07.12-.1.19Z" style="fill:#662a0f; stroke-width:0px;"/><path d="m76.39,97.37c-.12-.05-.08-.09,0-.14,0,.05,0,.09,0,.14Z" style="fill:#f3e8e0; stroke-width:0px;"/><path d="m73.1,133.63s-.03.05-.04.08c.01-.03.03-.05.04-.08Z" style="fill:#662a0f; stroke-width:0px;"/><path d="m118.12,115.25c.12,1.01.17,2.03.77,2.92.24-2.44,1.28-4.5,2.87-6.3.34-.38.7-.67,1.04-.81-.47,1.66-.58,3.29.15,4.88.15.32.32.63.72.88,0-.29,0-.5,0-.72.02-1.89.58-3.6,1.74-5.09.37-.48.79-.93,1.43-1.27-.28,1.51-.17,2.95.19,4.36.37,1.4.91,2.71,1.89,3.82-.24-.94-.27-1.89-.08-2.83.27-1.32.68-2.2,1.17-2.51.03,2.31.97,4.25,2.44,5.97-.27-1.16-.39-2.31-.11-3.54.07.13.12.21.16.3.6,1.22,1.21,2.44,1.81,3.66.18.38.35.76.51,1.14.77,1.77,1.54,3.54,2.3,5.32.93,2.16,1.74,4.36,2.23,6.68.35,1.67.5,3.35.43,5.04-.13,3.74-.97,7.32-2.51,10.73-1.35,2.99-3.24,5.59-5.68,7.79-1.26,1.14-2.65,2.11-4.13,2.93-2.63,1.46-5.44,2.4-8.39,2.95-2.09.39-4.19.5-6.31.36-1.97-.13-3.89-.5-5.7-1.33-.44-.2-.87-.45-1.34-.69,1-1.25,1.61-2.62,1.97-4.14.22.02.43.04.63.04,3.58.06,6.54-1.24,8.82-4.02,1.62-1.98,2.6-4.25,3.1-6.75.23-1.16.35-2.33.38-3.52.08-2.9-.39-5.72-1.25-8.48-.49-1.56-1.02-3.1-1.49-4.66-.6-2.01-1.03-4.06-1.25-6.15-.05-.45-.12-.89-.14-1.34-.01-.39,0-.78.07-1.16.29-1.49.78-2.92,1.43-4.29.03-.07.07-.13.11-.19Z" style="fill:#ff6f0d; stroke-width:0px;"/><path d="m116.59,118.69c-.18-.06-.12-.22-.12-.34.01-2.05.28-4.06.82-6.03.3-1.08.62-2.16,1.12-3.17.99-1.99,2.45-3.58,4.22-4.89,2.76-2.04,5.84-3.33,9.24-3.85.82-.12,1.64-.19,2.46-.15.16,0,.32.04.5.14-.14.07-.28.14-.42.2-.97.44-1.9.97-2.72,1.64-.49.4-.93.85-1.25,1.4-.07.12-.12.26-.16.41,1.23-.88,2.6-1.35,4.08-1.47.47-.04.95-.07,1.47.12-1.84.93-3.32,2.17-4.16,4.05-.36.8-.54,1.64-.48,2.61.12-.12.2-.18.25-.25.63-.81,1.42-1.42,2.42-1.7.14-.04.28-.05.47-.09-.04.12-.04.18-.07.23-.72,1.26-.95,2.64-1.02,4.06-.09,1.84.12,3.65.58,5.43.03.13.03.26.04.39-.08-.1-.18-.18-.23-.29-.46-.91-.91-1.82-1.17-2.81-.01-.06-.04-.11-.08-.21-.38,1.16-.52,2.3-.35,3.48-1.16-1.64-1.86-3.43-1.74-5.49-.34.05-.51.29-.67.51-.45.6-.72,1.28-.87,2-.11.57-.15,1.15-.2,1.73-.02.19,0,.38-.04.58-.72-1.1-1.14-2.31-1.39-3.58-.25-1.29-.25-2.58.04-3.91-.33.02-.56.16-.77.31-.57.4-1.03.91-1.43,1.48-.95,1.37-1.41,2.89-1.51,4.54,0,.12-.01.23-.09.38-.07-.12-.15-.23-.21-.35-.37-.79-.46-1.63-.46-2.5,0-.89.18-1.75.55-2.67-.24.07-.42.08-.55.17-.26.17-.52.36-.74.58-1.6,1.63-2.68,3.55-3.12,5.81,0,.04-.02.07-.07.22-.36-1.1-.35-2.12-.23-3.19-.51.4-1.36,2.4-1.93,4.47Zm1.87-4.5s.05.02.07.02c.02-.07.05-.15.07-.22-.02,0-.05-.02-.07-.02-.02.07-.05.15-.07.22Z" style="fill:#f3e7df; stroke-width:0px;"/><path d="m79.89,158.45c-.44.75-1.11,1.2-1.94,1.41-.68.17-1.36.32-2.11.5.03-.21.03-.34.06-.46.51-1.86,1.02-3.72,1.53-5.58.04-.16.1-.3.16-.46.45.07.87.13,1.3.2,0-.02,0-.04,0-.05-.41-.11-.82-.22-1.28-.35.27-1.01.53-1.96.82-3.02.32.41.66.69.68,1.21.06,1.56.42,3.05,1.15,4.43.5.95,1.12,1.8,1.87,2.57.1.11.21.22.31.33,0,0,0,.03,0,.11-1,.06-2,.12-3.04.18.21-.35.39-.65.57-.95.04-.14.07-.28.11-.41.02-.06.05-.13.07-.19-.02,0-.04-.01-.06-.02,0,.06-.02.13-.03.19-.06.13-.12.25-.18.38Z" style="fill:#fd6e0d; stroke-width:0px;"/><path d="m99.59,143.51c-.13-.03-.27-.04-.38-.11-1.26-.74-2.63-1.2-4.04-1.56-1.68-.43-3.4-.53-5.11-.38-2.1.19-4.03.96-5.75,2.19-1.43,1.02-2.58,2.3-3.41,3.86-.57,1.07-.94,2.19-1.15,3.38-.08.42-.1.86-.11,1.29-.02.54,0,1.08,0,1.62-.09-.5-.23-.99-.25-1.49-.19-3.45,1.08-6.28,3.67-8.54,1.49-1.3,3.16-2.26,5.08-2.77,2.22-.59,4.44-.5,6.65.12,1.58.45,3.07,1.1,4.42,2.04.14.1.27.23.41.34Z" style="fill:#f0a062; stroke-width:0px;"/><path d="m72.16,135.86c-.01.15-.02.3-.04.44-.1.74-.24,1.47-.31,2.21-.07.68-.1,1.37-.08,2.06.02.74.1,1.49.16,2.23.06.82.11,1.64.2,2.45.15,1.31.21,2.62.16,3.94-.04.91-.14,1.81-.25,2.71-.1.89-.23,1.77-.38,2.65-.29,1.7-.76,3.35-1.62,4.86-.23.4-.5.78-.8,1.13-.51.61-1.18.71-1.92.54-.51-.12-1.01-.27-1.51-.41-.51-.14-1-.12-1.47.16-.12.07-.28.09-.42.13.5-.62,1.15-.76,1.89-.58.38.09.74.24,1.12.33,1.02.27,1.68.02,2.3-.84.51-.71.83-1.52,1.11-2.35.48-1.43.74-2.9.94-4.38.34-2.49.45-4.98.36-7.49-.04-1-.14-2-.24-3-.19-1.91-.12-3.8.39-5.66.11-.38.26-.75.39-1.13Z" style="fill:#f0a062; stroke-width:0px;"/><path d="m79.01,151.09c-.14-.2-.32-.39-.42-.62-.06-.13-.03-.32.01-.47.56-2.09,1.14-4.19,1.7-6.28.19-.71.36-1.42.53-2.13.04-.18.04-.38.06-.58,1.08.54,2.13,1.06,3.23,1.6-.13.1-.25.2-.37.3-1.39,1.07-2.61,2.29-3.43,3.87-.65,1.25-1.05,2.57-1.16,3.98,0,.1-.03.2-.05.3-.03.01-.07.02-.1.03Z" style="fill:#d9c4b7; stroke-width:0px;"/><path d="m80.42,139.2c.12.05.27.06.37.14.84.67,1.77,1.16,2.78,1.5.66.22,1.35.35,2.03.51.17.04.35.07.52.1-.52.29-1.04.58-1.55.89-.18.11-.32.04-.46-.02-.77-.36-1.53-.74-2.3-1.1-.61-.28-1.13-.62-1.17-1.4-.01-.21-.14-.42-.22-.63Z" style="fill:#de4c03; stroke-width:0px;"/><path d="m78.28,160.11s0-.08,0-.12c.51-.24,1.05-.33,1.6-.35.88-.04,1.76-.09,2.64-.13.14,0,.31.02.41.1.35.25.67.54,1.05.86-.65.07-1.23-.01-1.81-.1-.68-.1-1.35-.22-2.03-.34-.63-.1-1.25-.04-1.87.08Z" style="fill:#fcfcfc; stroke-width:0px;"/><path d="m61.73,161.67c.08-.06.17-.13.25-.19.01.01.02.02.04.04-.09.12-.17.23-.26.35,0-.06-.02-.13-.03-.19Z" style="fill:#de4c03; stroke-width:0px;"/><path d="m72.24,135.61c-.03.08-.06.17-.09.25.03-.08.06-.17.09-.25Z" style="fill:#f0a062; stroke-width:0px;"/><path d="m58.58,158.7c-.08.06-.15.12-.23.19.08-.06.15-.12.23-.19Z" style="fill:#f0a062; stroke-width:0px;"/><path d="m99.86,143.69c-.06-.03-.12-.07-.18-.1.06.03.12.07.18.1Z" style="fill:#f0a062; stroke-width:0px;"/><path d="m133.84,117.43c.12.05.13.11.01.18,0-.06,0-.12-.01-.18Z" style="fill:#f3e7df; stroke-width:0px;"/><path d="m99.69,143.6s-.06-.06-.1-.09c.03.03.06.06.1.09Z" style="fill:#f0a062; stroke-width:0px;"/><path d="m99.96,143.8s-.07-.07-.11-.11c.04.04.07.07.11.11Z" style="fill:#f0a062; stroke-width:0px;"/><path d="m63.88,160.95s-.06.06-.09.09c.03-.03.06-.06.09-.09Z" style="fill:#f0a062; stroke-width:0px;"/><path d="m63.8,161.04s-.08.06-.12.09c.04-.03.08-.06.12-.09Z" style="fill:#f0a062; stroke-width:0px;"/><path d="m58.05,163.47s.02.03.03.05c-.02-.01-.03-.02-.05-.03,0,0,.02-.02.02-.02Z" style="fill:#fe6f0d; stroke-width:0px;"/><path d="m63.2,165.79s.01.05.02.07c-.02,0-.04-.02-.07-.02.01-.02.03-.03.05-.05Z" style="fill:#ff6f0d; stroke-width:0px;"/><path d="m131.11,103.26s-.07,0-.11.01c.02-.02.04-.04.06-.06.02.02.03.03.05.05Z" style="fill:#fff; stroke-width:0px;"/><path d="m90.21,87.6c-.29-.94-.64-1.86-1.16-2.7-.33-.53-.71-1.03-1.11-1.51-.31-.37-.7-.64-1.17-.79-.16-.05-.26-.13-.24-.31.24-.81,1.47-1,2.18-.48.25.18.49.41.66.66,1.05,1.51,1.32,3.18.93,4.97-.01.06-.06.1-.09.16Zm-3.22-5.53s-.06.07-.09.1c-.03.21.12.28.28.35.59.27,1.03.72,1.4,1.22.53.72,1.01,1.47,1.32,2.32.04.09.15.16.23.24.02.03.05.05.07.08,0-.01.02-.02.02-.03-.03-.48-.02-.96-.09-1.42-.18-1.1-.6-2.08-1.46-2.85-.39-.35-1.26-.53-1.69,0,0,0,0,0,0,0Z" style="fill:#171716; stroke-width:0px;"/><path d="m75.55,79.53s-.07.01-.09,0c-.82-.72-1.82-.82-2.84-.81-.65,0-1.31.03-1.94.25-.11,0-.22,0-.34.01,0-.05,0-.08.02-.1,1.19-1.1,2.57-1.61,4.19-1.38.48.07.88.28,1.13.72.27.48.23.89-.14,1.31Zm-3.75-1.31c-.19.09-.38.18-.57.27.15.06.28.07.4.06,1.26-.16,2.49-.13,3.63.53.06.03.14.02.22.04q.19-.17.14-.36c-.15-.65-.65-1.03-1.4-1.08-.66-.04-1.31.06-1.93.28-.18.06-.33.18-.5.28Z" style="fill:#171716; stroke-width:0px;"/><path d="m91.35,80.41c0-.07.01-.1.01-.13,0,.02.01.04.01.06,0,.01,0,.02-.03.08Z" style="fill:#662a0f; stroke-width:0px;"/><path d="m72.78,134.15c-.04-.21.01-.28.19-.28-.06.09-.12.18-.19.28Z" style="fill:#662a0f; stroke-width:0px;"/><path d="m78.61,162.07s.08,0,.12,0c0,0,0,.01,0,.02h-.12s0-.01,0-.02Z" style="fill:#662a0f; stroke-width:0px;"/><path d="m80.97,163.21c.05-.03.11-.05.16-.08,0,.02.01.03.02.05-.06,0-.12.01-.18.02,0,0,0,0,0,0Z" style="fill:#662a0f; stroke-width:0px;"/><path d="m78.9,137.66s-.02-.01-.03-.02l.03.03s0,0,0,0Z" style="fill:#662a0f; stroke-width:0px;"/><path d="m78.9,137.67s.03,0,.04.01c-.01,0-.02-.01-.04-.02,0,0,0,0,0,0Z" style="fill:#662a0f; stroke-width:0px;"/><path d="m79.18,137.84s-.04-.02-.05-.04c.01,0,.03,0,.03,0,0,.01.01.03.02.04,0,0,0,0,0,0Z" style="fill:#662a0f; stroke-width:0px;"/><path d="m64.61,162.67s.02-.03.03-.04c0,0,0,.02,0,.02,0,0-.02.01-.03.02,0,0,0,0,0,0Z" style="fill:#662a0f; stroke-width:0px;"/><path d="m64.6,162.66s-.06.06-.09.09c0,0,0,0,0,0,.03-.03.06-.06.09-.09,0,0,0,0,0,0Z" style="fill:#662a0f; stroke-width:0px;"/><polygon points="67.67 163.48 67.67 163.47 67.66 163.47 67.67 163.48" style="fill:#662a0f; stroke-width:0px;"/><polygon points="67.66 163.47 67.65 163.49 67.67 163.48 67.66 163.47" style="fill:#662a0f; stroke-width:0px;"/><path d="m67.39,163.66s.01-.02.02-.03c0,0-.02.02-.03.03,0,0,0,0,0,0Z" style="fill:#662a0f; stroke-width:0px;"/><path d="m67.39,163.65s-.06.06-.09.09h0s.06-.06.09-.09c0,0,0,0,0,0Z" style="fill:#662a0f; stroke-width:0px;"/><path d="m67.3,163.74s-.06.06-.09.09c0,0,0,0,0,0,.03-.03.06-.06.09-.09,0,0,0,0,0,0Z" style="fill:#662a0f; stroke-width:0px;"/><path d="m67.13,163.93s.06-.06.09-.09c0,0,0,0,0,0-.03.03-.06.06-.09.09,0,0,0,0,0,0Z" style="fill:#662a0f; stroke-width:0px;"/><path d="m67.12,163.92s-.01.05-.02.07c0-.02.01-.05.02-.07,0,0,0,0,0,0Z" style="fill:#662a0f; stroke-width:0px;"/><path d="m62.49,95.12c.07.17.15.34.22.51-.18,0-.16.13-.19.25-.15.69-.07,1.37.1,2.04.32,1.27.86,2.42,1.89,3.29.82.7,1.78,1.14,2.84,1.37.09.02.19,0,.33,0-.36-.41-.69-.78-1.03-1.15.04-.04.08-.08.12-.12.06.06.13.12.19.19.74.84,1.65,1.41,2.69,1.8,2.18.82,4.43,1.21,6.76,1.06,1.51-.1,2.98-.44,4.4-.99.04-.02.07-.05.16-.11-.23-.13-.43-.24-.62-.35.03-.02.07-.05.1-.07.8.14,1.26.7,1.59,1.38.11.22.14.47.14.74-.06-.11-.13-.22-.23-.39-.13.18-.23.32-.32.46-.96,1.47-2.05,2.84-3.31,4.07-1.24,1.2-2.61,2.24-4.2,2.97-1,.46-2.05.76-3.15.83-.62.04-1.23-.04-1.8-.28-1.07-.45-1.63-1.27-1.69-2.43-.04-.78.17-1.51.32-2.26.17-.87.37-1.73.52-2.6.12-.65.19-1.3.06-1.96-.03-.13-.05-.26-.07-.35-.66-.16-1.3-.27-1.9-.48-2.29-.8-3.56-2.48-4.05-4.81-.18-.87-.18-1.75.13-2.61Zm5.25,15.11c.02.19.02.39.08.57.28,1,1.01,1.52,1.97,1.75.73.17,1.46.12,2.18-.03,1.31-.26,2.5-.81,3.61-1.54.31-.2.6-.44.89-.66.06-.03.12-.06.18-.09.06-.04.13-.08.18-.13,1.91-1.51,3.44-3.36,4.74-5.4.31-.48.29-.56-.08-.97-.09-.1-.19-.18-.29-.28-.1.03-.19.05-.27.09-2.12.82-4.31,1.18-6.58,1.01-1.36-.1-2.69-.35-3.99-.78-.57-.19-1.12-.4-1.68-.61-.02-.01-.05-.02-.07-.03,0,.03,0,.06,0,.1,0,.21.02.42.03.63.05,1.18-.26,2.3-.49,3.44-.16.82-.3,1.64-.44,2.46-.07.16-.1.32.03.47Zm.07-7.6l-.03-.02v.03s.03,0,.03,0Z" style="fill:#886f64; stroke-width:0px;"/><path d="m66.78,101.32s-.08.08-.12.12c-.33-.34-.55-.75-.65-1.23.26.37.51.74.77,1.11Z" style="fill:#907b70; stroke-width:0px;"/><path d="m80.46,102.84s-.07.05-.1.07c-.11-.03-.22-.06-.33-.08,0-.02,0-.04.01-.07.14.03.28.05.42.08Z" style="fill:#907b70; stroke-width:0px;"/><path d="m77.09,99c-.06-.11-.11-.21-.17-.32.02-.01.04-.03.07-.04.05.11.09.22.14.32-.01.01-.02.02-.03.03Z" style="fill:#d9c4b7; stroke-width:0px;"/><polygon points="82.27 105.18 82.28 105.18 82.27 105.21 82.27 105.18" style="fill:#886f64; stroke-width:0px;"/><path d="m77.13,98.97l.03.07s-.04-.02-.06-.03c.01-.01.02-.02.03-.03Z" style="fill:#d9c4b7; stroke-width:0px;"/><path d="m65.69,124.62s.01-.02.02-.03c0,0-.01.02-.02.02,0,0,0,0,0,0Z" style="fill:#8f776a; stroke-width:0px;"/><path d="m59.39,160.24s.02-.02.02-.04c0,.01-.02.02-.03.03,0,0,0,0,0,0Z" style="fill:#662a0f; stroke-width:0px;"/><path d="m59.39,160.23s-.06.06-.09.09c0,0,0,0,0,0,.03-.03.06-.06.09-.09,0,0,0,0,0,0Z" style="fill:#662a0f; stroke-width:0px;"/><path d="m59.3,160.32s-.02.04-.03.05c0,0,0-.02,0-.03,0,0,.02-.01.04-.02,0,0,0,0,0,0Z" style="fill:#662a0f; stroke-width:0px;"/><path d="m59.11,160.59s.02-.04.04-.06c0,.03-.02.05-.02.08,0,0-.01-.01-.01-.01Z" style="fill:#662a0f; stroke-width:0px;"/><path d="m61.98,161.48s.04-.02.07-.03c0,.02-.02.05-.03.07-.01-.01-.03-.02-.04-.04Z" style="fill:#de4c03; stroke-width:0px;"/><path d="m84.16,99.17s-.05,0-.08,0c.09-.13.03-.18-.1-.19-.35-.04-.71-.05-1.05-.14-.64-.17-1.27-.38-1.91-.57-.18-.15-.37-.3-.63-.27-.04-.05-.06-.12-.11-.15-.48-.28-.89-.64-1.27-1.04-.3-.48-.38-1-.31-1.55.23-2.01,1.01-3.77,2.3-5.32.37-.44.8-.81,1.3-1.09,1.38-.78,2.91-.39,3.75.95.35.55.55,1.16.67,1.8.3,1.56.2,3.1-.14,4.64-.15.67-.35,1.33-.68,1.94-.22.41-.56.66-1.02.74-.22.04-.44.06-.67.09-.13.02-.13.09-.06.19Zm1.04-5.14c0-.1,0-.21,0-.31-.12-1.3-1.23-2.12-2.5-1.85-1.44.31-2.51,1.92-2.25,3.37.23,1.26,1.27,1.96,2.5,1.69,1.26-.27,2.24-1.55,2.24-2.9Z" style="fill:#fcfcfc; stroke-width:0px;"/><path d="m84.16,99.17c-.07-.09-.07-.17.06-.19.22-.03.45-.05.67-.09.46-.08.79-.33,1.02-.74.33-.61.53-1.27.68-1.94.33-1.54.44-3.08.14-4.64-.12-.64-.33-1.24-.67-1.8-.84-1.34-2.37-1.73-3.75-.95-.5.28-.93.65-1.3,1.09-1.29,1.55-2.07,3.31-2.3,5.32-.06.55.01,1.07.31,1.55-.04.04-.08.09-.12.13-.35-.36-.43-.81-.44-1.28-.02-.86.17-1.69.44-2.51.43-1.29,1.03-2.49,1.92-3.53.48-.56,1.03-1.05,1.71-1.35,1.28-.57,2.69-.23,3.56.86.48.6.76,1.3.9,2.04.43,2.25.16,4.44-.62,6.58-.01.03-.02.05-.04.08-.47,1.07-1,1.4-2.17,1.36Z" style="fill:#171716; stroke-width:0px;"/><path d="m82.68,86.93c.93-.53,2.61-.38,3.35.51.13.16.24.33.36.5l-.08.07c-.14-.15-.28-.3-.43-.43-.16-.14-.32-.27-.5-.37-.19-.11-.4-.2-.62-.26-.2-.06-.41-.08-.62-.1-.22-.01-.45,0-.67.01-.21.02-.41.08-.61.12-.06-.02-.12-.04-.18-.05Z" style="fill:#907b70; stroke-width:0px;"/><path d="m81.02,98.26c.63.19,1.26.41,1.91.57.34.09.7.1,1.05.14.13.02.19.06.1.19-1.05.03-2.03-.29-2.99-.69-.1-.04-.2-.1-.08-.22Z" style="fill:#171716; stroke-width:0px;"/><path d="m78.89,96.92s.08-.09.12-.13c.37.41.79.77,1.27,1.04.05.03.08.1.11.15-.04.03-.11.09-.13.08-.52-.31-1.03-.62-1.37-1.14Z" style="fill:#242323; stroke-width:0px;"/><path d="m82.68,86.93c.06.02.12.04.18.05-.13.05-.25.1-.38.15-.01-.03-.03-.07-.04-.1l.24-.11Z" style="fill:#d9c4b7; stroke-width:0px;"/><path d="m86.41,88.17s-.02-.02-.02-.03c0,0,.01-.02.02-.03,0,0,.02.02.02.03,0,0-.01.02-.02.03Z" style="fill:#907b70; stroke-width:0px;"/><path d="m66.65,91.07c-.21-.03-.41-.05-.62-.09-.69-.12-1.37-.08-2.05.04-.29-.18-.61-.33-.87-.54-1.08-.86-1.37-2.12-.78-3.37.29-.63.71-1.18,1.19-1.68,1.09-1.11,2.33-1.97,3.88-2.29.36-.08.75-.08,1.11-.05.87.09,1.5.85,1.58,1.85.07.85-.11,1.66-.42,2.45-.44,1.12-1.1,2.08-1.93,2.94-.03.03-.07.06-.1.09l-.02.02s0,0,0,0c-.07.05-.15.09-.2.15-.08.08-.05.15.07.18-.1.04-.21.08-.31.13-.05-.01-.1-.05-.14-.03-.13.06-.25.14-.38.22Zm-1.73-4.09c-.03.05-.07.1-.1.16-.41.67-.61,1.39-.39,2.17.18.67.72,1.07,1.42,1.05.54-.01,1.01-.22,1.42-.57.89-.71,1.36-1.61,1.3-2.76-.05-.94-.81-1.56-1.7-1.41-.39.07-.75.2-1.06.45-.27.27-.55.55-.82.82l-.06.09Z" style="fill:#fcfcfc; stroke-width:0px;"/><path d="m68.37,81.97c.98-.64,2.7.07,2.66,1.62-.42-1.32-1.31-1.85-2.66-1.62Z" style="fill:#907b70; stroke-width:0px;"/><path d="m66.65,91.07c.12-.07.25-.15.38-.22.03-.02.09.02.14.03.06.21-.17.17-.24.28-.09-.03-.18-.07-.28-.1Z" style="fill:#171716; stroke-width:0px;"/><path d="m67.48,90.76c-.11-.03-.14-.1-.07-.18.05-.06.14-.1.2-.15.18.2,0,.25-.14.33Z" style="fill:#242323; stroke-width:0px;"/><path d="m67.79,90.52l-.14.05s-.02-.09-.03-.14c0,0,.02-.02.02-.02.04,0,.07.02.11.02.01.03.03.06.04.08Z" style="fill:#171716; stroke-width:0px;"/><path d="m67.75,90.44s-.07-.02-.11-.02c.03-.03.07-.06.1-.09,0,.04,0,.08,0,.11Z" style="fill:#242323; stroke-width:0px;"/><path d="m65.16,91.16c1.82-.03,3.08.87,3.97,2.39.34.57.29,1.14-.09,1.68-.55.76-1.23,1.38-2.04,1.85-.19.11-.4.2-.6.31-.94.5-1.76.27-2.5-.42-.69-.65-1.07-1.46-1.26-2.38-.11-.55-.11-1.09-.02-1.64.17-1.06.99-1.69,2.01-1.78.18-.02.36,0,.54,0Zm0,.24c-.2.04-.41.06-.6.12-.08.03-.18.14-.19.21,0,.08.09.19.16.23.53.27,1.09.36,1.68.17.22-.07.25-.27.05-.4-.33-.21-.7-.33-1.1-.33Z" style="fill:#fe857a; stroke-width:0px;"/><path d="m118.46,114.19c.02-.07.05-.15.07-.22.02,0,.05.02.07.02-.02.07-.05.15-.07.22-.02,0-.05-.02-.07-.02Z" style="fill:#886f64; stroke-width:0px;"/><path d="m80.08,158.09c-.04.14-.07.28-.11.41-.03-.02-.06-.03-.09-.05.06-.13.12-.25.18-.38,0,0,.02.02.02.02Z" style="fill:#de4c03; stroke-width:0px;"/><path d="m80.06,158.07c0-.06.02-.13.03-.19.02,0,.04.01.06.02-.02.06-.05.13-.07.19,0,0-.02-.02-.02-.02Z" style="fill:#de4c03; stroke-width:0px;"/><path d="m90.14,86.31c-.08-.08-.2-.14-.23-.24-.31-.85-.79-1.6-1.32-2.32-.37-.5-.82-.95-1.4-1.22-.15-.07-.3-.14-.28-.35.03-.03.06-.07.09-.1,0,0,0,0,0,0,.67-.06,1.18.22,1.63.68.97.99,1.35,2.22,1.51,3.55Z" style="fill:#242323; stroke-width:0px;"/><path d="m90.14,86.31c-.16-1.33-.54-2.56-1.51-3.55-.45-.46-.97-.74-1.63-.68.43-.52,1.29-.34,1.69,0,.86.76,1.28,1.75,1.46,2.85.08.47.07.95.09,1.42,0,0-.02.02-.02.03-.02-.03-.05-.05-.07-.08Z" style="fill:#3c3c3c; stroke-width:0px;"/><path d="m87,82.08s-.06.07-.09.1c.03-.03.06-.07.09-.1Z" style="fill:#3c3c3c; stroke-width:0px;"/><path d="m75.48,79.11c-.07-.01-.16,0-.22-.04-1.14-.66-2.37-.69-3.63-.53-.13.02-.26,0-.4-.06.19-.09.38-.18.57-.27.1-.01.21-.01.31-.04.64-.16,1.27-.27,1.94-.17.42.06.77.21,1.1.45.21.15.36.36.34.65Z" style="fill:#242323; stroke-width:0px;"/><path d="m75.48,79.11c.02-.29-.13-.49-.34-.65-.33-.24-.69-.38-1.1-.45-.67-.1-1.3.01-1.94.17-.1.02-.21.03-.31.04.16-.09.32-.22.5-.28.62-.22,1.27-.32,1.93-.28.75.05,1.25.43,1.4,1.08q.04.19-.14.36Z" style="fill:#3c3c3c; stroke-width:0px;"/><path d="m68.68,103.18c.56.2,1.12.42,1.68.61,1.3.43,2.62.68,3.99.78,2.28.17,4.46-.19,6.58-1.01.08-.03.17-.05.27-.09.1.09.2.18.29.28.38.41.39.49.08.97-1.31,2.04-2.84,3.89-4.74,5.4-.06.05-.12.08-.18.13-.64-1.21-1.76-1.65-3.03-1.8-.27-.03-.53-.05-.76-.22-.1-.07-.21-.11-.33-.15-1.37-.53-2.61-.15-3.79.58-.44.28-.73.7-1.04,1.1.15-.82.28-1.64.44-2.46.22-1.14.54-2.26.49-3.44,0-.21-.02-.42-.03-.63.02-.02.04-.04.06-.06Z" style="fill:#350101; stroke-width:0px;"/><path d="m76.48,110.33c-.3.22-.58.46-.89.66-1.11.72-2.3,1.27-3.61,1.54-.72.15-1.45.2-2.18.03-.97-.23-1.69-.75-1.97-1.75-.05-.18-.05-.38-.08-.57.04-.07.07-.13.11-.2.85-1.49,2.2-2.02,3.84-1.95.34.01.7.1,1.03.35-.25.1-.46.16-.65.26-.51.26-.99.54-1.25,1.09-.01,0-.02,0-.03.01,0,0,0,.02,0,.02.01-.01.02-.03.03-.04.12-.08.25-.15.36-.24.78-.63,1.63-1.01,2.68-.85,1.12.18,2.04.64,2.63,1.64Z" style="fill:#fe968c; stroke-width:0px;"/><path d="m76.48,110.33c-.6-1-1.52-1.46-2.63-1.64-1.04-.17-1.89.22-2.68.85-.11.09-.24.16-.36.24h0c.26-.54.74-.83,1.25-1.08.19-.1.4-.16.65-.26-.33-.26-.68-.34-1.03-.35-1.64-.07-2.98.46-3.84,1.95-.04.06-.07.13-.11.2-.13-.15-.1-.31-.03-.47.31-.4.59-.83,1.04-1.1,1.18-.73,2.42-1.1,3.79-.58.11.04.23.08.33.15.23.16.48.19.76.22,1.27.15,2.38.58,3.03,1.8-.06.03-.12.06-.18.09Z" style="fill:#b24846; stroke-width:0px;"/><path d="m68.62,103.24s0-.06,0-.1c.02.01.05.02.07.03-.02.02-.04.04-.06.06Z" style="fill:#350101; stroke-width:0px;"/><polygon points="67.82 102.63 67.78 102.64 67.78 102.61 67.82 102.63" style="fill:#f3e8e0; stroke-width:0px;"/><path d="m85.2,94.03c0,1.35-.99,2.63-2.24,2.9-1.23.27-2.27-.43-2.5-1.69-.27-1.45.8-3.06,2.25-3.37,1.27-.27,2.38.55,2.5,1.85,0,.1,0,.21,0,.31Zm-.73,1.62c.51-.63.66-1.37.51-2.14-.23-1.19-1.4-1.81-2.44-1.42-.73.28-1.34.7-1.59,1.5-.08.14-.21.27-.24.41-.06.35-.12.71-.1,1.06.09,1.22,1.17,1.93,2.16,1.74.72-.14,1.28-.54,1.69-1.15Z" style="fill:#164999; stroke-width:0px;"/><path d="m65.81,86.07c.31-.26.67-.39,1.06-.45.89-.15,1.65.47,1.7,1.41.06,1.15-.41,2.05-1.3,2.76-.02-.02-.04-.05-.06-.07.18-.21.36-.42.54-.63.51-.63.77-1.34.64-2.16-.14-.88-.9-1.35-1.76-1.08-.26.08-.5.2-.74.31-.03-.03-.05-.05-.08-.08Z" style="fill:#164999; stroke-width:0px;"/><path d="m67.27,89.79c-.41.35-.88.56-1.42.57-.7.02-1.24-.38-1.42-1.05-.21-.78-.02-1.5.39-2.17.02.02.04.05.06.07-.04.11-.08.22-.13.33-.2.45-.28.91-.24,1.39.06.66.58,1.28,1.32,1.25.39-.02.73-.12,1.06-.3.1-.06.21-.11.31-.16.02.02.04.05.06.07Z" style="fill:#164999; stroke-width:0px;"/><path d="m64.98,86.89c.27-.27.55-.55.82-.82.03.03.05.05.08.08-.27.27-.54.53-.81.8-.03-.02-.06-.04-.09-.06Z" style="fill:#164999; stroke-width:0px;"/><path d="m64.82,87.14c.03-.05.07-.1.1-.16.02.02.03.03.05.05-.03.06-.06.12-.09.18-.02-.02-.04-.05-.06-.07Z" style="fill:#164999; stroke-width:0px;"/><path d="m64.92,86.98s.04-.06.06-.09c.03.02.06.04.09.06,0,.03,0,.05-.02.08-.03,0-.06,0-.09,0-.02-.02-.03-.03-.05-.05Z" style="fill:#164999; stroke-width:0px;"/><path d="m65.16,91.4c.41,0,.77.12,1.1.33.19.12.17.32-.05.4-.58.2-1.14.1-1.68-.17-.08-.04-.17-.16-.16-.23,0-.08.11-.19.19-.21.19-.06.4-.08.6-.12Z" style="fill:#d9c4b7; stroke-width:0px;"/><path d="m70.81,109.78s-.02.03-.03.04c0,0,0-.02,0-.02,0,0,.02,0,.03-.01,0,0,0,0,0,0Z" style="fill:#b24846; stroke-width:0px;"/><path d="m80.96,93.59c.25-.8.86-1.22,1.59-1.5,1.04-.39,2.21.23,2.44,1.42.15.77,0,1.51-.51,2.14-.16.02-.32.06-.48.07-.11,0-.22-.03-.32-.05.1-.16.22-.32.31-.49.3-.62.32-1.49-.43-2.02.02-.09.04-.18.04-.26.02-.39-.19-.66-.53-.7-.34-.04-.68.22-.73.58-.02.12,0,.24,0,.36-.49.22-.81.6-1.02,1.08-.06-.07-.14-.13-.18-.21-.07-.13-.12-.28-.18-.42Z" style="fill:#028ff9; stroke-width:0px;"/><path d="m83.67,95.67c.11.02.22.05.32.05.16,0,.32-.04.48-.07-.41.61-.98,1.01-1.69,1.15-.99.19-2.07-.52-2.16-1.74-.03-.35.03-.71.1-1.06.03-.15.15-.28.24-.41.06.14.11.29.18.42.04.08.12.14.18.21-.03.31-.1.62-.07.93.06.65.56,1.07,1.21,1.08.5.01.87-.24,1.23-.56Z" style="fill:#0062cb; stroke-width:0px;"/><path d="m65.06,87.03s.01-.05.02-.08c.27-.27.54-.53.81-.8.25-.1.49-.23.74-.31.86-.27,1.61.2,1.76,1.08.13.82-.13,1.53-.64,2.16-.13.02-.25.06-.38.06-.09,0-.17-.05-.26-.07.15-.26.33-.5.43-.77.19-.53.19-1.05-.31-1.46.03-.1.07-.2.08-.3.03-.22,0-.41-.22-.53-.18-.1-.41-.06-.61.11-.22.19-.28.44-.27.72-.49.19-.77.59-1.03,1.02-.24-.25-.08-.55-.12-.83Z" style="fill:#028ff9; stroke-width:0px;"/><path d="m67.11,89.07c.09.03.17.07.26.07.13,0,.25-.04.38-.06-.18.21-.36.42-.54.63-.1.05-.21.11-.31.16-.33.18-.67.29-1.06.3-.74.03-1.26-.59-1.32-1.25-.04-.49.04-.95.24-1.39.05-.11.09-.22.13-.33.03-.06.06-.12.09-.18.03,0,.06,0,.09,0,.04.28-.12.58.12.83-.05.22-.13.43-.16.65-.11.87.6,1.41,1.4,1.05.25-.11.46-.32.69-.48Z" style="fill:#0062cb; stroke-width:0px;"/><path d="m83.67,95.67c-.35.31-.72.57-1.23.56-.64-.02-1.15-.43-1.21-1.08-.03-.3.05-.62.07-.93.21-.48.53-.87,1.02-1.08.35.43.67.5,1.02.22.07-.05.13-.13.19-.19.76.54.74,1.4.43,2.02-.08.17-.2.33-.31.49Z" style="fill:#010204; stroke-width:0px;"/><path d="m83.55,93.16c-.06.06-.12.14-.19.19-.36.28-.67.21-1.02-.22,0-.12-.02-.24,0-.36.05-.36.39-.62.73-.58.35.04.55.3.53.7,0,.09-.03.18-.04.26Z" style="fill:#fcfcfc; stroke-width:0px;"/><path d="m67.11,89.07c-.23.16-.44.37-.69.48-.8.36-1.51-.18-1.4-1.05.03-.22.11-.43.16-.65.26-.43.54-.82,1.03-1.02.29.41.51.44.9.13.05-.04.09-.08.13-.12.49.4.49.92.31,1.46-.1.27-.28.52-.43.77Z" style="fill:#010204; stroke-width:0px;"/><path d="m67.23,86.84s-.08.08-.13.12c-.38.32-.61.29-.9-.13,0-.28.05-.53.27-.72.2-.17.43-.21.61-.11.21.12.25.32.22.53-.01.1-.05.2-.08.3Z" style="fill:#fcfcfc; stroke-width:0px;"/></g></g></svg>