<?xml version="1.0" encoding="UTF-8"?><svg id="_Слой_2" xmlns="http://www.w3.org/2000/svg" width="82.28" height="107.44" viewBox="0 0 82.28 107.44"><g id="_Слой_1-2"><path d="m6.45,23.24C.97,50.93,2.89,103.58,2.94,104.33c24.78-.09,50.54-.19,75.32-.28.7-23.8,1.41-47.59,2.11-71.39C75.32,15.13,59.84,2.93,42.57,2.45c-14.64-.41-28.53,7.66-36.12,20.8Z" style="fill:#96cfe7; stroke-width:0px;"/><path d="m82.28,107.44H.27l-.27-75.35.11-.39C5.27,12.77,22.49-.29,42,0c19.79.27,35.87,14.6,40,34.08l.28,73.36Zm-76.03-6h70.11l-.17-66.44c-3.68-16.59-17.37-28.77-34.28-29-.17,0-.34,0-.51,0-16.42,0-30.88,10.97-35.4,26.89l.25,68.55Z" style="fill:#ba661a; stroke-width:0px;"/><line x1="3.73" y1="58.09" x2="79.08" y2="58.09" style="fill:none; stroke:#ba661a; stroke-miterlimit:10; stroke-width:6px;"/><line x1="41.4" y1="59.2" x2="41.4" y2="104.9" style="fill:none; stroke:#ba661a; stroke-miterlimit:10; stroke-width:6px;"/></g></svg>