<?xml version="1.0" encoding="UTF-8"?>
<svg id="_Слой_2" data-name="Слой_2" xmlns="http://www.w3.org/2000/svg" viewBox="0 0 282.83 311.76">
  <defs>
    <style>
      .cls-1 {
        fill: #ca9464;
      }

      .cls-2 {
        fill: #d35c34;
      }

      .cls-3 {
        fill: #7f5f40;
      }

      .cls-4 {
        fill: #a26d3f;
      }

      .cls-5 {
        fill: #b9532f;
      }

      .cls-6 {
        fill: #926137;
      }

      .cls-7 {
        fill: #54381a;
      }

      .cls-8 {
        fill: #b4855a;
      }
    </style>
  </defs>
  <g id="_Слой_1-2" data-name="Слой_1">
    <g>
      <path class="cls-1" d="M76.6,308.89c-3.41-.9-6.81-1.81-10.22-2.71.22-1.02.86-2.15.62-3.04-6.24-23.03-9.69-46.36-7.47-70.26.96-10.37,1.79-20.81,3.68-31.04,5.08-27.57,15.08-53.4,30.13-77.04,6.64-10.43,14.79-19.91,22.25-29.82,6.55,5.07,12.64,5.24,17.39.49,4.77-4.77,4.57-10.94-.57-17.36,5.72-5.07,11.44-10.14,17.15-15.2,2.18,3.39,4.35,6.77,6.54,10.16.17,2.62.33,5.24.49,7.85-.69,2.34-1.38,4.69-2.07,7.03-3.74,3.28-7.8,6.27-11.17,9.9-7.67,8.27-15.42,16.52-22.37,25.38-16.46,20.99-28.83,44.37-36.25,69.95-4.73,16.31-8.19,33.1-10.71,49.9-1.63,10.86-.99,22.15-.51,33.21.47,10.9,2.01,21.74,3.09,32.61Z"/>
      <path class="cls-1" d="M94.61,311.76c-3.71-.38-7.42-.76-11.13-1.14-.04-.83-.02-1.67-.12-2.49-1.59-13.3-3.81-26.57-4.57-39.92-.51-9.03.94-18.18,1.69-27.26,2.25-26.98,10.29-52.34,21.95-76.61,8.32-17.31,18.7-33.37,31.34-47.81,6.08-6.95,13.14-13.06,19.76-19.55-.67,5.2-1.96,10.42-1.81,15.6.14,4.84,1.81,9.63,2.81,14.44-2.46,2.69-5.08,5.26-7.36,8.1-14.11,17.54-25.99,36.42-34.83,57.22-12.2,28.7-18.86,58.61-19.61,89.72-.24,9.88,1.2,19.81,1.88,29.71Z"/>
      <path class="cls-1" d="M26.48,145.75c2.68-2.71,5.25-5.52,8.05-8.11,10.56-9.76,14.16-21.66,11.24-35.66-.23-1.13-.22-2.3-.32-3.46.96-1.91,1.71-3.97,2.92-5.72,9-13,18.09-25.93,27.15-38.88,1.41,0,2.82,0,4.23,0,2.37.04,4.73.08,7.1.12,4.23-.01,8.47-.03,12.7-.04,2.34.07,4.67.13,7.01.2-7.68,8.6-15.35,17.2-23.03,25.79-.9-.71-1.78-1.45-2.7-2.12-7.1-5.14-16.07-2.04-18.47,6.37-1.61,5.66.79,10.25,7.56,14.44-22.85,36.1-34.9,75.65-37.24,118.15-.95,17.25.98,34.42,4.48,51.34,1.81,8.73,4.18,17.34,6.29,26.01-2.66-1.92-5.32-3.84-7.99-5.76-2.98-8.78-6.81-17.38-8.75-26.39-3.08-14.35-5.84-28.9-6.98-43.51-1.01-12.94-.31-26.12.89-39.08,1.04-11.31,3.83-22.46,5.84-33.69Z"/>
      <path class="cls-1" d="M60.21,303.48c-2.57-1.2-5.15-2.39-7.72-3.59-9.64-25.23-13.99-51.45-13.77-78.35.08-9.88,1.51-19.79,2.82-29.63,4.02-30.2,14.43-58.18,29.92-84.34,1.58-2.67,2.8-5.56,4.19-8.34,2.65-2.07,5.3-4.15,7.96-6.22,8.32,0,16.65,0,24.97.01-1.27,1.74-2.44,3.56-3.82,5.21-13.45,16.06-23.84,34-32.11,53.14-9.59,22.19-15.6,45.31-18.44,69.41-2.48,20.98-1.32,41.65,1.95,62.34,1.08,6.83,2.69,13.57,4.06,20.35Z"/>
      <path class="cls-1" d="M112.63,310.78c-4.05.33-8.11.65-12.16.98,0-.83.13-1.68.01-2.49-2.57-17.83-1.98-35.72.28-53.45,3.24-25.33,10.8-49.5,22.13-72.43,9.24-18.7,21.07-35.66,34.64-51.45,3.34,3.01,6.68,6.02,10.02,9.02,1.99,2.68,3.98,5.35,5.97,8.03-1.59,1.45-3.36,2.74-4.73,4.37-14.26,17.03-25.99,35.6-35.04,55.95-14.37,32.34-21.13,66.17-21.13,101.46Z"/>
      <path class="cls-1" d="M134.67,305.15c-5.39,1.58-10.78,3.15-16.17,4.73.34-5.96.47-11.94,1.06-17.88.97-9.88,1.62-19.85,3.49-29.57,5.16-26.81,14.38-52.25,29.12-75.29,7.65-11.95,16.9-22.87,25.43-34.26,3,4.37,6.01,8.74,9.01,13.11.99,2.35,1.98,4.7,2.97,7.05-2.11,2.31-4.4,4.48-6.31,6.94-25.23,32.5-40.71,69.26-47.58,109.7-.86,5.07-.71,10.3-1.03,15.46Z"/>
      <path class="cls-1" d="M159.56,291.06c-6.37,3.89-12.74,7.79-19.11,11.68,3.18-15.84,5.41-31.94,9.77-47.45,5.81-20.67,15.72-39.73,27.65-57.6,4.38-6.56,9.74-12.45,14.66-18.65,0,0,.03-.03.03-.03.29.42.58.84.87,1.25,1.64,9.53,3.28,19.06,4.93,28.58-1.41,1.3-3.11,2.4-4.18,3.94-16.51,23.88-27.67,50.15-34.62,78.28Z"/>
      <path class="cls-8" d="M271.47,241c-4.48,6.38-8.96,12.76-13.43,19.13-2.2-8.38-4.39-16.77-6.59-25.15,2.95-9.25,7.24-18.32,8.54-27.8,2.36-17.2-1.56-33.56-11.44-48.17.21-2.13.26-4.3.67-6.4,1.75-8.92,3.6-17.83,5.41-26.74,5.91,8.42,11.82,16.83,17.74,25.25-.28.58-.73,1.13-.81,1.74-1.39,10.32-2.73,20.64-4.07,30.96-2.24,17.27-.61,34.4,1.98,51.47.3,1.96,1.32,3.81,2.01,5.71Z"/>
      <path class="cls-4" d="M153.54,96.97c-6.62,6.49-13.67,12.59-19.76,19.55-12.64,14.45-23.02,30.5-31.34,47.81-11.66,24.28-19.71,49.63-21.95,76.61-.76,9.08-2.2,18.23-1.69,27.26.76,13.35,2.98,26.62,4.57,39.92.1.82.08,1.66.12,2.49-2.29-.57-4.59-1.15-6.88-1.72-1.07-10.87-2.62-21.72-3.09-32.61-.48-11.06-1.12-22.35.51-33.21,2.52-16.8,5.98-33.59,10.71-49.9,7.42-25.58,19.79-48.95,36.25-69.95,6.95-8.86,14.71-17.11,22.37-25.38,3.37-3.63,7.42-6.62,11.17-9.9-.33,3.01-.66,6.02-.99,9.02Z"/>
      <path class="cls-2" d="M79.76,53.93c-1.41,0-2.82,0-4.23,0-2.41-.27-4.81-.54-7.22-.82l-.34-.07c.08-7.47-.4-15,.37-22.4,1.63-15.71,12.63-26.14,28.35-27.81,1.31-.14,2.6-.43,3.89-.65.42.25.82.69,1.26.73,13.5,1.39,22.19,9.11,27.71,21.01.29,6.22.54,12.45.91,18.67.05.87.66,1.71,1.02,2.56-.3,2.64-.6,5.28-.89,7.92-2.53.29-5.06.6-7.59.88-3.09.34-4.62-1.04-4.56-4.16.04-4.65.1-9.29.1-13.94.01-12.79-4.69-18.8-17.07-21.84-11.52.04-17.87,4.4-21.13,14.5-.19,8.47-.38,16.95-.57,25.42Z"/>
      <path class="cls-4" d="M60.21,303.48c-1.37-6.78-2.98-13.53-4.06-20.35-3.27-20.68-4.42-41.36-1.95-62.34,2.85-24.11,8.86-47.23,18.44-69.41,8.27-19.14,18.67-37.08,32.11-53.14,1.38-1.65,2.55-3.47,3.82-5.21,2.01,0,4.01.02,6.02.02.33.64.66,1.28.99,1.92-7.46,9.91-15.61,19.39-22.25,29.82-15.05,23.64-25.05,49.47-30.13,77.04-1.88,10.23-2.72,20.67-3.68,31.04-2.22,23.9,1.23,47.23,7.47,70.26.24.89-.39,2.02-.62,3.04-2.06-.9-4.12-1.8-6.18-2.7Z"/>
      <path class="cls-8" d="M153.54,96.97c.33-3.01.66-6.01.99-9.02.69-2.34,1.38-4.69,2.07-7.03,5.71.1,9.11-2.15,10.89-7.21,2.34-6.67-.37-11.86-8.09-15.51,3.4-7.08,6.79-14.17,10.19-21.25,9.63,4.25,14.24,12.1,15.82,22.11-.99.93-2.34,1.68-2.9,2.81-9.42,19.2-15.29,39.56-18.64,60.59-.71,4.48-2.56,5.96-6.29,6.64-1.01-.7-2.02-1.39-3.03-2.09-1-4.81-2.67-9.61-2.81-14.44-.15-5.18,1.15-10.4,1.81-15.6Z"/>
      <path class="cls-4" d="M75.65,99.23c-1.39,2.79-2.61,5.67-4.19,8.34-15.49,26.16-25.9,54.14-29.92,84.34-1.31,9.83-2.73,19.74-2.82,29.63-.22,26.9,4.13,53.12,13.77,78.35-3.01-1.9-6.01-3.81-9.02-5.71-2.12-8.66-4.49-17.28-6.29-26.01-3.5-16.92-5.43-34.08-4.48-51.34,2.34-42.5,14.39-82.06,37.24-118.15,1.91.18,3.81.36,5.72.54Z"/>
      <path class="cls-4" d="M154.54,127.01c1.01.7,2.02,1.39,3.03,2.09-.01.95-.03,1.9-.04,2.85-13.57,15.79-25.39,32.75-34.64,51.45-11.34,22.93-18.9,47.1-22.13,72.43-2.27,17.72-2.85,35.62-.28,53.45.12.81,0,1.66-.01,2.49-1.95,0-3.9,0-5.85,0-.67-9.9-2.12-19.83-1.88-29.71.75-31.11,7.41-61.02,19.61-89.72,8.84-20.79,20.72-39.68,34.83-57.22,2.28-2.84,4.9-5.4,7.36-8.1Z"/>
      <path class="cls-1" d="M24.45,277.18c-12.14-12.8-19.24-28.26-22.52-45.31-4.97-25.86-.34-50.17,13.79-72.53.52-.83,1.21-1.55,1.83-2.32-.15,1.31-.31,2.62-.46,3.94-1.5,12.98-3.87,25.93-4.3,38.95-.74,21.97,1.99,43.67,8.47,64.8,1.26,4.1,2.14,8.31,3.2,12.47Z"/>
      <path class="cls-4" d="M177.6,152.88c-8.53,11.39-17.79,22.31-25.44,34.26-14.74,23.04-23.97,48.49-29.12,75.29-1.87,9.72-2.52,19.69-3.49,29.57-.58,5.94-.72,11.92-1.06,17.88-1.96.3-3.91.6-5.87.9,0-35.29,6.76-69.12,21.13-101.46,9.04-20.35,20.78-38.92,35.04-55.95,1.37-1.63,3.14-2.92,4.73-4.37,1.36,1.29,2.72,2.59,4.08,3.88Z"/>
      <path class="cls-6" d="M226.66,105.91c1.31.67,2.62,1.34,3.94,2.01-.41,1.77-.83,3.54-1.23,5.31-1.62,7.26-3.22,14.52-4.83,21.78-.22.24-.6.46-.64.73-3.18,18.95-5.13,37.85-3.69,57.25,1.26,17.12,4,33.8,8.44,50.27,1.19,4.41,3.3,8.56,4.99,12.84.35,1.75.47,3.59,1.09,5.24,1.84,4.94,3.88,9.81,5.84,14.71-1.67,1.02-3.34,2.05-5.01,3.07-2.67-6.04-5.34-12.07-8.01-18.11-1.16-4.31-2.22-8.65-3.49-12.92-5.64-18.96-9.17-38.23-9.55-58.07-.39-19.76.27-39.43,4.06-58.89.34-1.1.66-2.21,1.01-3.3,2.36-7.31,4.73-14.62,7.09-21.93Z"/>
      <path class="cls-8" d="M186.67,67.98c2.05,10.06,5.8,19.2,13.99,25.95-.69,1.46-1.61,2.86-2.04,4.4-2.42,8.56-4.72,17.16-7.07,25.74-7.34.34-14.68.67-22.02,1.01,2.55-11.44,4.59-23.03,7.82-34.27,2.26-7.85,6.15-15.24,9.32-22.83Z"/>
      <path class="cls-5" d="M129.54,23.92c-5.52-11.9-14.21-19.61-27.71-21.01-.44-.05-.84-.48-1.26-.73,15.02-5.93,31.76.58,39.04,15.3,3.07,6.21,5.91,12.53,8.85,18.8,2.36,5.24,4.71,10.48,7.07,15.71.96,2.35,1.92,4.69,2.89,7.04.56,1.37,1.09,2.76,1.7,4.11,2.44,5.39,1.64,7.39-4.01,9.92-2.18-3.39-4.36-6.77-6.53-10.15-1.31-1.3-2.61-2.6-3.92-3.9-.37-.66-.74-1.32-1.12-1.98-2.33-5.34-4.67-10.68-7-16.02-2.66-5.7-5.33-11.39-7.99-17.09Z"/>
      <path class="cls-4" d="M192.52,179.05c-4.91,6.2-10.28,12.09-14.65,18.65-11.93,17.87-21.83,36.93-27.65,57.6-4.36,15.51-6.59,31.61-9.77,47.45-1.93.8-3.85,1.6-5.78,2.4.32-5.16.17-10.4,1.03-15.46,6.87-40.44,22.35-77.21,47.58-109.7,1.91-2.46,4.2-4.63,6.31-6.94.99,1.33,1.98,2.66,2.97,3.99,0,.67-.02,1.35-.03,2.02Z"/>
      <path class="cls-4" d="M24.45,277.18c-1.06-4.16-1.94-8.37-3.2-12.47-6.48-21.13-9.21-42.83-8.47-64.8.44-13.02,2.8-25.97,4.3-38.95.15-1.31.31-2.62.46-3.94,2.98-3.76,5.96-7.52,8.94-11.27-2.02,11.22-4.8,22.37-5.84,33.69-1.2,12.96-1.9,26.15-.89,39.08,1.14,14.6,3.9,29.15,6.98,43.51,1.94,9.01,5.77,17.61,8.75,26.39-3.68-3.75-7.35-7.49-11.03-11.24Z"/>
      <path class="cls-6" d="M251.45,234.98c2.2,8.38,4.39,16.77,6.59,25.15-1.45,1.67-2.9,3.35-4.35,5.02-.75-1-1.87-1.91-2.18-3.03-1.77-6.29-3.36-12.64-5-18.97-1.99-12.88-4.95-25.71-5.72-38.67-1.06-17.86-.72-35.83,2.73-53.54,1.73-7.99,3.36-16.01,5.27-23.95.36-1.49,1.88-2.7,2.86-4.05,1,.97,1.99,1.95,2.99,2.92-1.81,8.91-3.67,17.81-5.41,26.74-.41,2.1-.46,4.26-.67,6.4-.26.61-.73,1.21-.76,1.84-.46,11.19-1.26,22.4-1.15,33.59.09,9.75,1.04,19.51,2,29.23.38,3.83,1.84,7.55,2.81,11.32Z"/>
      <path class="cls-8" d="M251.65,122.95c-.98,1.34-2.5,2.55-2.86,4.05-1.92,7.94-3.54,15.96-5.27,23.95-6.33-5.31-12.65-10.61-18.98-15.92,1.61-7.26,3.22-14.52,4.83-21.78.4-1.77.82-3.54,1.23-5.31,7.02,5.01,14.03,10.01,21.05,15.02Z"/>
      <path class="cls-8" d="M226.66,105.91c-2.36,7.31-4.73,14.62-7.09,21.93-.35,1.1-.68,2.2-1.01,3.3-7-2.06-14-4.12-20.99-6.18,2.39-9.41,4.77-18.81,7.16-28.22,7.31,3.06,14.63,6.11,21.94,9.17Z"/>
      <path class="cls-4" d="M159.56,291.06c6.95-28.12,18.11-54.39,34.62-78.28,1.06-1.54,2.77-2.63,4.18-3.93.01,3.45.02,6.89.03,10.34-1.24,1.19-2.88,2.17-3.67,3.62-5.7,10.47-11.81,20.78-16.63,31.66-4.06,9.15-6.55,19-9.74,28.54.54,1.31.87,2.78,1.67,3.91,1.69,2.39,3.63,4.6,5.47,6.88-3.8-.88-7.58-1.85-11.41-2.6-1.46-.29-3.02-.1-4.53-.13Z"/>
      <path class="cls-8" d="M276.42,161.05c7.98,19.97,8.1,40.3,2.6,60.83-.84,3.13-2.33,6.09-3.53,9.12-.33-.72-.86-1.41-.97-2.17-2.7-18.25-2.6-36.53-.45-54.81.51-4.36,1.55-8.66,2.35-12.98Z"/>
      <path class="cls-6" d="M276.42,161.05c-.8,4.33-1.83,8.62-2.35,12.98-2.15,18.28-2.25,36.56.45,54.81.11.75.64,1.44.97,2.17-1.34,3.33-2.68,6.66-4.02,9.98-.69-1.9-1.71-3.75-2.01-5.71-2.59-17.08-4.22-34.21-1.98-51.47,1.34-10.32,2.69-20.64,4.07-30.96.08-.61.53-1.16.81-1.74,1.35,3.32,2.7,6.63,4.05,9.95Z"/>
      <path class="cls-6" d="M186.67,67.98c-3.16,7.59-7.06,14.98-9.32,22.83-3.23,11.24-5.27,22.83-7.82,34.27-.66,5.3-1.32,10.59-1.98,15.89-3.34-3.01-6.68-6.01-10.02-9.02.01-.95.03-1.9.04-2.85,3.73-.67,5.58-2.16,6.29-6.64,3.35-21.03,9.22-41.39,18.64-60.59.56-1.14,1.92-1.89,2.9-2.81.42,2.98.84,5.95,1.26,8.93Z"/>
      <path class="cls-6" d="M204.72,96.75c-2.39,9.41-4.77,18.81-7.16,28.22-3.17,15.13-4.34,30.44-4.08,45.88.04,2.05-.61,4.12-.94,6.18-.99-1.33-1.98-2.66-2.97-3.99-.99-2.35-1.98-4.7-2.97-7.05.43-3.53.88-7.07,1.3-10.61,1.22-10.44,2.43-20.87,3.64-31.31,2.34-8.59,4.65-17.18,7.07-25.74.43-1.54,1.35-2.94,2.04-4.4,1.35.94,2.71,1.88,4.06,2.82Z"/>
      <path class="cls-6" d="M224.61,285.12c-2.02.84-4.04,1.68-6.06,2.52-3-5.87-6-11.73-9-17.6-3.35-8.71-6.64-17.44-10.09-26.12-1.08-2.71-2.56-5.27-3.86-7.89.89-4.36,1.78-8.71,2.67-13.07.72,1.07,1.72,2.04,2.11,3.22,3.12,9.43,5.84,19,9.28,28.3,1.64,4.44,4.57,8.4,6.91,12.57.43,1.87.55,3.89,1.36,5.57,2.06,4.25,4.43,8.34,6.67,12.5Z"/>
      <path class="cls-8" d="M246.51,243.15c1.65,6.33,3.23,12.68,5,18.97.32,1.13,1.44,2.03,2.18,3.03-4.38,3.64-8.75,7.27-13.13,10.91-1.96-4.9-4-9.77-5.84-14.71-.62-1.65-.74-3.49-1.09-5.24,4.29-4.32,8.58-8.64,12.87-12.96Z"/>
      <path class="cls-1" d="M43,88.15c-5.03-15.77,4.32-31.35,20.58-34.28,1.46-.26,2.92-.55,4.38-.83,0,0,.34.07.33.07-7.04,9.95-14.05,19.91-21.11,29.84-1.29,1.81-2.78,3.47-4.18,5.2Z"/>
      <path class="cls-6" d="M208.5,290.87c-2.32.38-4.64.76-6.95,1.15-1.4-2.57-3.07-5.03-4.14-7.74-3.46-8.77-9.76-12.02-18.87-10.26,0,0-.09-.09-.09-.08,3.32-5.66,6.63-11.33,9.94-17,3.07,5.38,6.13,10.75,9.2,16.13,3.64,5.93,7.27,11.87,10.91,17.8Z"/>
      <path class="cls-4" d="M43,88.15c1.4-1.73,2.9-3.39,4.18-5.2,7.06-9.93,14.08-19.89,21.11-29.84,2.41.27,4.82.55,7.23.82-9.06,12.95-18.15,25.89-27.15,38.88-1.21,1.74-1.96,3.8-2.92,5.72-.82-3.46-1.63-6.92-2.45-10.38Z"/>
      <path class="cls-8" d="M224.61,285.12c-2.24-4.16-4.61-8.25-6.67-12.5-.81-1.68-.93-3.7-1.36-5.57,3.66-2.01,7.31-4.02,10.97-6.03,2.67,6.04,5.34,12.07,8.01,18.11-3.65,2-7.3,3.99-10.95,5.99Z"/>
      <path class="cls-8" d="M208.5,290.87c-3.64-5.93-7.27-11.87-10.91-17.8,3.99-1.01,7.97-2.02,11.96-3.03,3,5.87,6,11.73,9,17.6-3.35,1.08-6.7,2.16-10.05,3.23Z"/>
      <path class="cls-8" d="M178.54,274.02c9.11-1.76,15.41,1.5,18.87,10.26,1.07,2.7,2.74,5.16,4.14,7.74-3.02.58-6.05,1.15-9.07,1.73-.88-1.32-1.74-2.66-2.66-3.95-3.75-5.27-7.52-10.52-11.28-15.78Z"/>
      <path class="cls-8" d="M155.53,52c-2.36-5.24-4.71-10.48-7.07-15.71,5.05-.35,10.09-.71,15.14-1.06-2.69,5.59-5.38,11.18-8.07,16.78Z"/>
      <path class="cls-6" d="M178.54,274.02c3.76,5.26,7.53,10.51,11.28,15.78.92,1.29,1.77,2.63,2.66,3.95-2.62.02-5.25.04-7.87.06-3.45-4.96-6.89-9.92-10.34-14.88,1.39-1.67,2.79-3.34,4.18-5l.09.09Z"/>
      <path class="cls-6" d="M155.53,52c2.69-5.59,5.38-11.18,8.07-16.78,1.99.57,3.99,1.15,5.98,1.72-3.4,7.08-6.79,14.17-10.19,21.25-.33.28-.65.56-.98.84-.96-2.35-1.92-4.69-2.89-7.04Z"/>
      <path class="cls-8" d="M174.26,278.93c3.45,4.96,6.89,9.92,10.34,14.88-3.03,0-6.07-.01-9.1-.02-1.84-2.28-3.78-4.49-5.47-6.88-.8-1.13-1.13-2.59-1.66-3.91,1.97-1.36,3.93-2.72,5.9-4.07Z"/>
      <path class="cls-7" d="M115.59,94.98c-.33-.64-.66-1.28-.99-1.92,3.49-.07,6.99.05,10.46-.25,3.3-.29,5.2-2.62,5.08-5.73-.12-3.1-2.02-5.2-5.51-5.2-3.32,0-6.65-.02-9.97-.03,1.8-5.92,7-5.75,11.68-6.52,2.03.93,4.05,1.86,6.08,2.79,5.14,6.42,5.34,12.59.57,17.36-4.75,4.75-10.84,4.58-17.39-.49Z"/>
      <path class="cls-7" d="M158.42,59.04c.33-.28.65-.56.98-.84,7.73,3.65,10.44,8.85,8.09,15.51-1.78,5.06-5.18,7.31-10.89,7.21-.16-2.62-.33-5.24-.49-7.86,5.65-2.53,6.45-4.53,4.01-9.92-.61-1.35-1.13-2.74-1.7-4.11Z"/>
      <path class="cls-4" d="M132.42,78.11c-2.03-.93-4.05-1.86-6.08-2.78,6.44-5.44,12.88-10.88,19.31-16.32,1.31,1.3,2.61,2.6,3.92,3.9-5.72,5.07-11.44,10.13-17.15,15.2Z"/>
      <path class="cls-5" d="M101.46,14.01c-10.12,8-12.02,15.8-6.86,27.6,1.78,4.08,3.31,8.26,4.96,12.4-4.23.01-8.47.03-12.71.04-.47-1.72-.96-3.43-1.4-5.16-1.72-6.79-3.42-13.59-5.12-20.38,3.25-10.1,9.61-14.46,21.13-14.5Z"/>
      <path class="cls-7" d="M75.65,99.23c-1.91-.18-3.82-.36-5.72-.54-6.76-4.19-9.17-8.79-7.56-14.44,2.39-8.41,11.36-11.51,18.47-6.37.93.67,1.8,1.41,2.7,2.12-.06.6-.12,1.2-.18,1.8-2.98.02-5.96.1-8.93.05-3.45-.06-5.85,1.07-6.02,4.94-.18,4.01,2.3,5.7,5.78,6.04,3.12.31,6.28.14,9.42.19-2.65,2.07-5.3,4.15-7.96,6.22Z"/>
      <path class="cls-4" d="M83.36,81.8c.06-.6.12-1.2.18-1.8,7.68-8.6,15.35-17.2,23.03-25.79,2.33-.71,4.66-1.42,6.99-2.13,2.44,1.68,1.52,2.94-.28,4.56-4.8,4.33-9.67,8.63-14.03,13.39-3.29,3.59-5.83,7.87-8.7,11.84-2.4-.02-4.8-.05-7.19-.07Z"/>
      <path class="cls-2" d="M83.36,81.8c2.4.02,4.8.05,7.19.08,8.03,0,16.07-.02,24.1-.03,3.32,0,6.65.03,9.97.03,3.48,0,5.39,2.1,5.51,5.2.12,3.11-1.77,5.44-5.08,5.73-3.47.31-6.97.19-10.46.25-2.01,0-4.01-.02-6.02-.02-8.32,0-16.65,0-24.97-.01-3.14-.04-6.31.12-9.42-.19-3.48-.34-5.96-2.04-5.78-6.04.17-3.87,2.57-4.99,6.02-4.94,2.98.05,5.96-.03,8.93-.05Z"/>
      <path class="cls-3" d="M191.55,124.07c-1.21,10.44-2.42,20.87-3.64,31.31-.41,3.54-.86,7.07-1.3,10.61-3-4.37-6.01-8.74-9.01-13.11-1.36-1.29-2.72-2.59-4.08-3.88-1.99-2.68-3.98-5.35-5.97-8.03.66-5.3,1.32-10.59,1.98-15.89,7.34-.34,14.68-.67,22.02-1.01Z"/>
      <path class="cls-3" d="M227.54,261.02c-3.66,2.01-7.31,4.02-10.97,6.03-2.34-4.18-5.27-8.14-6.91-12.57-3.44-9.31-6.16-18.88-9.28-28.3-.39-1.18-1.39-2.15-2.11-3.22.04-1.26.08-2.51.12-3.77-.01-3.45-.02-6.89-.03-10.34-1.64-9.53-3.29-19.06-4.93-28.59-.29-.42-.58-.83-.87-1.25,0,0-.03.03-.03.03,0-.67.02-1.35.03-2.02.33-2.06.97-4.13.94-6.18-.26-15.44.9-30.75,4.08-45.88,7,2.06,14,4.12,20.99,6.18-3.78,19.46-4.44,39.13-4.06,58.89.39,19.84,3.92,39.11,9.55,58.07,1.27,4.27,2.33,8.61,3.49,12.92Z"/>
      <path class="cls-6" d="M192.56,179.01c.29.42.58.83.87,1.25-.29-.42-.58-.83-.87-1.25Z"/>
      <path class="cls-3" d="M251.45,234.98c-.97-3.77-2.43-7.49-2.81-11.32-.97-9.72-1.91-19.48-2-29.23-.11-11.19.7-22.39,1.15-33.59.03-.62.49-1.22.76-1.84,9.88,14.62,13.8,30.97,11.44,48.17-1.3,9.48-5.6,18.55-8.54,27.8Z"/>
      <path class="cls-1" d="M114.66,81.84c-8.03.01-16.07.02-24.1.03,2.87-3.97,5.41-8.25,8.7-11.84,4.36-4.76,9.23-9.06,14.03-13.39,1.8-1.62,2.72-2.87.28-4.56,1.62-.76,3.24-1.53,4.86-2.29-.06,3.12,1.47,4.5,4.56,4.16,2.53-.28,5.06-.59,7.59-.88,4.65,1.32,9.31,2.64,13.96,3.96.37.66.74,1.32,1.12,1.98-6.44,5.44-12.88,10.88-19.31,16.32-4.68.77-9.88.6-11.68,6.52Z"/>
      <path class="cls-8" d="M144.54,57.03c-4.65-1.32-9.31-2.64-13.96-3.96.3-2.64.6-5.28.9-7.92,2.02-1.38,4.04-2.76,6.06-4.13,2.33,5.34,4.67,10.68,7,16.02Z"/>
      <path class="cls-3" d="M246.51,243.15c-4.29,4.32-8.58,8.64-12.87,12.96-1.69-4.27-3.8-8.43-4.99-12.84-4.44-16.47-7.17-33.15-8.44-50.27-1.43-19.4.52-38.3,3.69-57.25.05-.27.42-.49.64-.73,6.33,5.31,12.65,10.62,18.98,15.92-3.46,17.71-3.8,35.68-2.73,53.54.77,12.96,3.74,25.78,5.72,38.67Z"/>
      <path class="cls-1" d="M198.39,219.19c-.04,1.26-.08,2.51-.12,3.77-.89,4.36-1.78,8.71-2.67,13.07-2.4,6.97-4.81,13.94-7.21,20.91-3.31,5.67-6.63,11.33-9.94,17-1.39,1.67-2.79,3.33-4.18,5-1.97,1.36-3.93,2.72-5.9,4.07,3.18-9.54,5.68-19.39,9.73-28.54,4.82-10.88,10.93-21.18,16.63-31.66.79-1.44,2.42-2.42,3.67-3.62Z"/>
      <path class="cls-3" d="M188.39,256.94c2.4-6.97,4.81-13.94,7.21-20.91,1.3,2.63,2.78,5.18,3.86,7.89,3.44,8.67,6.74,17.41,10.09,26.12-3.99,1.01-7.97,2.02-11.96,3.03-3.07-5.38-6.13-10.75-9.2-16.13Z"/>
    </g>
  </g>
</svg>