<?xml version="1.0" encoding="UTF-8"?>
<svg xmlns="http://www.w3.org/2000/svg" viewBox="0 0 109.4 182.32">
  <defs>
    <style>
      .cls-1, .cls-2 {
        fill: #fbf2b4;
      }

      .cls-3 {
        fill: #fff;
      }

      .cls-4, .cls-5 {
        fill: #587acb;
      }

      .cls-6, .cls-7 {
        fill: #e8b84e;
      }

      .cls-6, .cls-8, .cls-5 {
        opacity: .5;
      }

      .cls-6, .cls-8, .cls-5, .cls-2 {
        mix-blend-mode: multiply;
      }

      .cls-8, .cls-9 {
        fill: #e79ccb;
      }

      .cls-10 {
        isolation: isolate;
      }
    </style>
  </defs>
  <g class="cls-10">
    <g id="_Слой_2" data-name="Слой_2">
      <g id="_Слой_1-2" data-name="Слой_1">
        <g>
          <g>
            <path class="cls-3" d="M109.12,52.93c-.63-2.92-2.31-5.62-4.96-7.1-1.67-.93-3.54-1.27-5.43-1.32,4.21-3.83,5.86-10.15,2.57-15.41-3.17-5.07-9.33-6.43-14.57-4.62,2.35-5.66,1.15-12.5-4.48-16.07-4.35-2.76-9.74-1.98-13.13,1.23-.67-4.85-4.44-9.05-9.79-9.59-5.64-.57-10.36,3.15-11.78,8.14-2.81-3.7-7.85-5.72-12.43-4.07-4.16,1.5-6.01,5.15-5.82,8.94-3.65-2.02-8.68-1.49-11.96,1.47-3.45,3.12-3.68,7.74-1.58,11.31-5.16-.58-10.62,1.96-12.88,6.91-2.46,5.4-.03,12.02,4.72,15.22C3.26,49.49-.15,53.63,0,58.47c.15,4.55,3.51,8.29,7.66,9.65-4.19,2.82-6.15,8.45-3.59,13.42,2.27,4.41,6.93,6.21,11.26,5.36-2,4.14-1.34,9.35,2.62,12.7,4.43,3.75,10.68,2.96,14.38-.79.45,5.03,4.18,9.51,9.68,10.12,7.28.81,13.28-5.62,11.95-12.82-.15-.83-1.39-.67-1.3.18.63,6-4.21,11.52-10.39,10.74-5.78-.73-9.18-6.46-7.59-11.84.11-.29.22-.59.31-.89.36-1.23-1.39-2.03-1.88-.78-.1.26-.2.53-.28.8-2.06,5.19-8.44,7.54-13.15,3.98-4.17-3.15-4.34-9.03-1.07-12.6.95-.54,1.84-1.23,2.64-2.07.71-.76-.35-2.12-1.26-1.62-1.01.56-1.89,1.25-2.64,2.03-4.09,2.17-9.46.67-11.54-3.87-2.32-5.07,1.08-10.51,6.22-11.53.34-.03.67-.08,1-.14,1.37-.27,1.1-2.27-.29-2.15-.31.03-.61.07-.92.12-4.52.35-9.21-3.01-9.58-7.73-.38-4.85,4.11-9.28,8.88-9.17,1.13.02,1.87-1.72.57-2.11-5.46-1.61-9.06-8.16-6.72-13.57,2.34-5.41,9.48-7.25,14.42-4.43,1.18.68,2.33-1.33,1.19-2.07-3.79-2.46-5.3-7.6-1.72-10.99,3.25-3.07,8.94-3.01,11.46.67.25.56.54,1.11.88,1.64.75,1.17,2.5,0,2.03-1.2-.26-.66-.58-1.25-.95-1.79-1.47-3.67-.36-7.97,3.82-9.42,4.87-1.69,10.35,2.05,11.23,6.94.25,1.5,2.59,1.19,2.34-.32-1.05-5.74,3.44-11.14,9.4-10.55,5.56.55,8.85,5.98,7.53,11.13-.13.33-.23.67-.33,1.02,0,0,0,0,0,0,0,0,0,0,0,0-.03.1-.06.2-.08.3-.32,1.32,1.77,1.82,2.26.61.23-.56.4-1.13.53-1.7,2.09-4.89,8.68-6.06,12.86-2.77,5.15,4.06,4.56,11.32.63,15.99-.88,1.05.64,2.53,1.7,1.67,4.55-3.68,11.78-3.61,15.13,1.69,3.61,5.72-.12,12.61-6.02,14.69-1.3.46-.69,2.51.64,2.31,5.19-.78,11-.59,12.73,5.38.8,2.77.53,5.95-1.64,8.03-2.89,2.77-6.91,3-10.61,2.04-1.34-.35-1.82,1.77-.61,2.28,3.12,1.34,6.76,3.43,8.13,6.73,1.13,2.73.44,5.91-1.92,7.73-3.7,2.85-8.76,1.05-12.57-.73-1.26-.59-2.18,1.21-1.17,2.04,3.1,2.55,6.05,7.26,2.73,10.79-3.57,3.8-8.58,1.53-11.47-1.89-.82-.97-2.67-.04-2.01,1.19.87,1.65,1.48,3.52,1.65,5.38.37,3.92-2.28,6.55-6.16,6.88-4.46.38-7.7-3.92-9.02-7.72-.49-1.42-2.65-.5-2.16.92,1.78,5.12,6.49,10.14,12.35,9.01,4.13-.8,7.28-3.6,7.38-7.95.02-1.05-.1-2.12-.33-3.18,3.64,2.23,8.08,2.58,11.47-.99,3.08-3.25,2.45-7.28.33-10.6,4.18,1.15,8.6,1.06,11.74-2.5,2.2-2.49,2.64-6.29,1.35-9.32-.91-2.14-2.55-3.87-4.45-5.25,2.5-.26,4.89-1.19,6.84-2.98,2.7-2.49,3.44-6.18,2.68-9.69Z"/>
            <path class="cls-3" d="M42.09,100.36c-3.23.44-2.55,5.46.69,5.02,3.23-.44,2.55-5.46-.69-5.02Z"/>
            <path class="cls-3" d="M23.69,96.61c2.74-.37,2.16-4.63-.58-4.26-2.74.37-2.16,4.63.58,4.26Z"/>
            <path class="cls-3" d="M10.54,80.8c3.45-.47,2.73-5.84-.73-5.37-3.45.47-2.73,5.84.73,5.37Z"/>
            <path class="cls-3" d="M5.77,60.32c2.74-.37,2.16-4.63-.58-4.26-2.74.37-2.16,4.63.58,4.26Z"/>
            <path class="cls-3" d="M9.81,37.32c3.04-.42,2.4-5.14-.65-4.73-3.04.42-2.4,5.14.65,4.73Z"/>
            <path class="cls-3" d="M21.85,17.16c-.55.07-1.09.39-1.42.83-.32.42-.51,1.06-.42,1.59.1.55.36,1.09.83,1.42.47.33,1.01.5,1.59.42.55-.07,1.09-.39,1.42-.83.32-.42.51-1.06.42-1.59-.1-.55-.36-1.09-.83-1.42-.47-.33-1.01-.5-1.59-.42Z"/>
            <path class="cls-3" d="M38.39,12.43c3.04-.42,2.4-5.14-.65-4.73-3.04.42-2.4,5.14.65,4.73Z"/>
            <path class="cls-3" d="M57.5,4.9c-.7.1-1.4.5-1.83,1.07-.41.54-.66,1.37-.54,2.05.13.7.46,1.41,1.07,1.83.6.42,1.31.64,2.05.54.7-.1,1.4-.5,1.83-1.07.41-.54.66-1.37.54-2.05-.13-.7-.46-1.41-1.07-1.83-.6-.42-1.31-.64-2.05-.54Z"/>
            <path class="cls-3" d="M77.68,12.31c-2.97.41-2.34,5.02.63,4.61,2.97-.41,2.34-5.01-.63-4.61Z"/>
            <path class="cls-3" d="M94.94,30.38c-3.13.43-2.47,5.3.67,4.87,3.13-.43,2.47-5.3-.67-4.87Z"/>
            <path class="cls-3" d="M96.02,72.29c-3.75.51-2.96,6.35.8,5.83,3.75-.51,2.96-6.35-.8-5.83Z"/>
            <path class="cls-3" d="M83.82,87.7c-.37.48-.59,1.22-.48,1.83.11.63.41,1.26.95,1.63.54.37,1.17.57,1.83.48.63-.09,1.25-.45,1.63-.95.37-.48.59-1.22.48-1.83-.12-.63-.41-1.26-.95-1.63-.54-.37-1.17-.57-1.83-.48-.63.09-1.25.45-1.63.95Z"/>
            <path class="cls-3" d="M71.79,101.16c2.55-.35,2.01-4.32-.54-3.97-2.55.35-2.01,4.32.54,3.97Z"/>
            <path class="cls-3" d="M101.36,57.76c.64-.09,1.27-.46,1.66-.97.37-.49.6-1.24.49-1.86-.24-1.34-1.43-2.34-2.83-2.15-.64.09-1.27.46-1.66.97-.37.49-.6,1.24-.49,1.86.24,1.34,1.43,2.34,2.83,2.15h0Z"/>
          </g>
          <g>
            <path class="cls-1" d="M53.76,97.16s0-.07,0-.11c.11-.8-.17,1.23,0,.11Z"/>
            <path class="cls-1" d="M54.98,94.16s-.06.11-.09.2c0,0,0,0,.01-.01.03-.06.05-.13.08-.19Z"/>
            <path class="cls-1" d="M74.94,179.2c.49-.74.84-1.57.99-2.47.64-3.11-.43-6.68-.92-9.69-.96-5.87-1.92-11.75-2.89-17.62-2.29-13.98-4.9-27.87-7.89-41.72-.65-3.03-1.43-6.15-2.41-9.09-.3-.9-.64-1.8-1-2.67-.15-.36.17.67.14.57-.22-.62-.31-1.2-.74-1.74-.32-.41-.65-.63-1.02-.86,0,0,0,0,0,0-.03.02-.08,0-.13-.05,0,0,.01.01.02.02,0-.01-.02-.02-.03-.03-.04-.03-.08-.07-.12-.11-.06-.03-.12-.07-.18-.1.05.03.1.06.16.08-.04-.05-.08-.09-.11-.13-1.1-1.02-3.11-.78-3.83.57.09-.15.1-.03-.08.19,0,0,0,.01,0,.02,0,0,0,0,0,.01,0,0,0-.01,0-.02-.01.01-.02.02-.03.04-.03.03-.07.09-.1.14-.21.27-.44.57-.49.66-.34.62-.38,1.12-.47,1.79,0,.07-.02.12-.02.17-.01.16-.01.32-.03.48-.03.45-.05.89-.07,1.34-.13,2.62.05,5.3.17,7.92.29,6.49,1.16,12.99,1.89,19.44,1.54,13.6,3.49,27.14,5.41,40.69.6,4.25.42,11.12,4.23,13.87,0,0,0-.01,0-.02,1.36,1.1,3.12,1.68,4.92,1.35,1.76-.32,3.33-1.29,4.38-2.63,0,.01,0,.02,0,.03.11-.14.2-.29.3-.43Z"/>
            <path class="cls-2" d="M75.01,167.04c-.96-5.87-1.92-11.75-2.89-17.62-2.29-13.98-4.9-27.87-7.89-41.72-.65-3.03-1.43-6.15-2.41-9.09-.3-.9-.64-1.8-1-2.67-.15-.36.17.67.14.57-.22-.62-.31-1.2-.74-1.74-.32-.41-.65-.63-1.02-.86,0,0,0,0,0,0-.03.02-.08,0-.13-.05,0,0,.01.01.02.02,0-.01-.02-.02-.03-.03-.04-.03-.08-.07-.12-.11-.06-.03-.12-.07-.18-.1.05.03.1.06.16.08-.04-.05-.08-.09-.11-.13-1.1-1.02-3.11-.78-3.83.57.09-.15.1-.03-.08.19,0,0,0,.01,0,.02,0,0,0,0,0,.01,0,0,0-.01,0-.02-.01.01-.02.02-.03.04-.03.03-.07.09-.1.14-.21.27-.44.57-.49.66-.34.62-.38,1.12-.47,1.79,0,.07-.02.12-.02.17-.01.16-.01.32-.03.48-.03.45-.05.89-.07,1.34-.13,2.62.05,5.3.17,7.92.03.68.07,1.35.11,2.03.84,0,1.67-.02,2.5.07,2.52.26,4.22,1.55,5.15,3.91,1,2.52,1.25,5.31,1.5,7.98.3,3.18.9,6.28,1.51,9.42,1.4,7.25,2.57,14.51,3.45,21.85,1.19,9.97,2.03,20.09,1.66,30.15.19-.02.37-.03.56-.07,1.76-.32,3.33-1.29,4.38-2.63,0,.01,0,.02,0,.03.11-.14.2-.29.3-.43.49-.74.84-1.57.99-2.47.64-3.11-.43-6.68-.92-9.69Z"/>
            <path class="cls-1" d="M58.92,93.72s.01.01.02.02c.01,0,.03.02.04.02.02.03.05.06.07.09,0,0,0,0,0,0-.02-.03-.04-.05-.06-.08.07.04.13.08.2.12.03-.03-.08-.08-.22-.14-.32-.42-.3-.33-.17-.16.05.05.1.1.15.15-.01,0-.02-.01-.04-.02Z"/>
          </g>
          <path class="cls-1" d="M94.91,43.61c-2.15-8.28-6.5-15.68-13.04-21.25-7.63-6.5-17.56-9.6-27.41-10.49-.13-.02-.25-.03-.38-.04-.22-.02-.43-.02-.64,0-19.21-.21-37.65,13-43.38,31.47-5.76,18.58,2.83,39.17,18.95,49.64,8.07,5.24,17.54,7.71,27.13,6.64,9.25-1.03,18.22-5.19,25.17-11.35,12.56-11.14,17.82-28.36,13.6-44.62ZM88.71,57.77c-.52,7.13-2.92,13.76-7.31,19.44-9.67,12.5-27.14,18.8-42.12,12.68-14.59-5.96-25.17-22-23.41-37.89,1.98-17.91,19.1-33.17,37.21-32.7,7.8.66,15.59,2.66,22.01,7.31,5.05,3.65,8.71,8.46,11.01,14.12,2.15,5.29,3.02,11.47,2.61,17.03Z"/>
          <path class="cls-2" d="M39.27,89.89c-14.59-5.96-25.17-22-23.41-37.89.85-7.71,4.51-14.92,9.84-20.6-3.26,2.93-6.23,6.16-8.42,10.01-3.37,5.9-4.82,12.71-4.56,19.47.27,6.9,2.5,13.2,6.79,18.65,4.22,5.36,9.9,9.59,16.15,12.3,6.43,2.79,13.5,3.74,20.46,3.11,12.55-1.13,33.67-16.84,31.69-31.29-1.14,4.9-3.26,9.48-6.42,13.57-9.67,12.5-27.14,18.8-42.12,12.68Z"/>
          <g>
            <path class="cls-7" d="M50.69,19.57c-8.54-.29-16.67,6.85-17.46,15.36-.8,8.51,5.86,17.04,14.3,18.34,8.44,1.3,17.36-4.84,19.15-13.19,1.8-8.35-2.04-19.4-15.99-20.51Z"/>
            <path class="cls-3" d="M58.59,34.18c-3.31,1.34-7.13,2.24-10.7,1.58-3.95-.73-10.44-2.77-12.88-6.7-.96,1.82-1.59,3.8-1.78,5.86-.15,1.63-.03,3.26.32,4.84,1.75,1.61,4.4,2.68,6.21,3.36,6.04,2.28,12.46,2.02,18.5-.17,3.16-1.15,6.31-2.9,8.77-5.26.21-2.57-.11-5.26-1.05-7.77-2.26,1.74-4.76,3.19-7.39,4.25Z"/>
            <path class="cls-9" d="M37.36,50.83c-8.54-.29-16.67,6.86-17.46,15.36-.8,8.51,5.86,17.04,14.3,18.34,8.44,1.3,17.36-4.84,19.15-13.19s-2.04-19.4-15.99-20.51Z"/>
            <path class="cls-3" d="M32.68,79.98c6.9-.96,13.71-5.09,17.73-10.77,1.25-1.76,2.22-3.66,2.94-5.63-.69-3.2-2.29-6.27-5.02-8.61-2.13,7.3-7.32,13.09-14.79,15.16-3.65,1.01-7.46,1.1-11.11.02-.86-.25-1.71-.59-2.52-1,.39,3.86,2.22,7.54,4.92,10.36,2.58.53,5.18.85,7.85.48Z"/>
            <path class="cls-4" d="M71.01,46.23c-8.54-.29-16.67,6.86-17.46,15.36-.8,8.51,5.86,17.04,14.3,18.34,8.44,1.3,17.36-4.84,19.15-13.19s-2.04-19.4-15.99-20.51Z"/>
            <path class="cls-3" d="M58.75,63.32c5.62,6.84,15.98,10.9,25.19,9.86,1.48-1.89,2.56-4.08,3.07-6.44.11-.51.2-1.04.27-1.57-6.23.74-12.88-1.54-17.73-5.32-2.73-2.12-5.07-4.91-6.21-8.21-.38-1.1-.6-2.22-.67-3.34-3.45,1.9-6.3,4.95-7.87,8.55.9,2.4,2.48,4.66,3.96,6.47Z"/>
            <path class="cls-8" d="M38.98,51.02c2.4,2.18,10.33,12.82,3.61,22.22-6.72,9.4-15.62,7.2-16.78,7.21,2.36,2.12,5.25,3.61,8.4,4.09,8.44,1.3,17.36-4.84,19.15-13.19,1.72-8.02-1.75-18.52-14.38-20.32Z"/>
            <path class="cls-6" d="M56.86,20.91c4.07,5.88,6.62,14.19,2.4,20.44-2.73,4.03-7.71,5.85-12.4,6.12-4.09.23-8.18-.77-11.5-2.98,2.54,4.52,7.01,8,12.16,8.8,8.44,1.3,17.36-4.84,19.15-13.19,1.49-6.95-.92-15.77-9.82-19.17Z"/>
            <path class="cls-5" d="M64.08,73.48c-4.52-1.41-7.82-5.33-10.54-11.89-.8,8.51,5.86,17.04,14.3,18.34,8.44,1.3,17.36-4.84,19.15-13.19.43-2,.53-4.16.25-6.29-1.26,4.28-7.89,17.79-23.17,13.03Z"/>
          </g>
          <path class="cls-3" d="M45.28,15.32c-3.42-.11-6.86.94-9.97,2.32-3.1,1.37-6.44,3.15-8.76,5.67-.72.78.46,1.66,1.22,1.2,2.91-1.76,5.5-3.82,8.62-5.25,2.92-1.34,5.99-2.18,8.97-3.34.28-.11.23-.59-.08-.6h0Z"/>
          <path class="cls-3" d="M48.08,15.68c.78.21,1.51.28,2.32.28.94,0,1.98.11,2.9-.11.71-.17.81-1.24,0-1.35-.88-.13-1.81.05-2.69.13-.89.08-1.7.2-2.53.51-.22.08-.25.47,0,.54h0Z"/>
          <path class="cls-3" d="M94.06,57.53c.28-1.36.27-2.75.25-4.13-.02-1.53.08-3.14-.21-4.64-.15-.8-1.38-.87-1.48,0-.31,2.72,0,6.23.75,8.86.11.37.62.21.68-.09h0Z"/>
          <path class="cls-3" d="M93.18,46.56c-.1-.58-.1-1.3-.36-1.84-.42-.86-1.63-.31-1.34.58.18.56.67,1.08,1,1.56.22.33.77.08.71-.3h0Z"/>
          <path class="cls-3" d="M61.6,148.29c.04,4.78.94,9.63,1.54,14.37.17,1.34,2.29,1.05,2.08-.28-.74-4.78-1.24-9.72-2.54-14.38-.19-.67-1.08-.27-1.08.3h0Z"/>
          <path class="cls-3" d="M63.73,165.43c-.15.94-.1,1.89-.03,2.84.06.92-.07,1.9.51,2.66.34.46,1.11.36,1.32-.18.35-.9-.04-1.79-.24-2.7-.2-.93-.41-1.86-.81-2.73-.16-.35-.69-.28-.75.1h0Z"/>
          <path class="cls-3" d="M23.78,67.3c.43-1.62.96-3.18,1.98-4.54.77-1.03,2.35-1.72,2.45-3.05.02-.28-.22-.58-.49-.64-1.55-.39-2.86,1.74-3.56,2.88-.96,1.56-1.55,3.37-1.46,5.21.03.61.92.77,1.09.15h0Z"/>
          <path class="cls-3" d="M30.2,58.55c.93-.22,1.92-.6,2.71-1.13,1-.67.07-2.29-.95-1.63-.86.56-1.63,1.32-2.24,2.14-.24.31.15.7.48.62h0Z"/>
          <path class="cls-3" d="M39.17,28.41c1.69-1.05,3.17-2.35,5.01-3.18,2.14-.96,4.43-1.35,6.76-1.3,1.44.03,1.44-2.25,0-2.24-4.47.03-10.21,1.78-12.52,5.96-.26.47.27,1.05.75.75h0Z"/>
          <path class="cls-3" d="M58.06,24.1c-.26-.52-.75-.78-1.23-1.07-.55-.33-1.11-.63-1.69-.89-1.33-.58-2.15,1.33-.78,1.84.6.22,1.22.39,1.84.54.56.13,1.09.29,1.65.09.22-.08.31-.3.21-.51h0Z"/>
          <path class="cls-3" d="M69.07,51.02c1.66.36,3.29.63,4.85,1.34,1.59.73,2.8,1.8,4.14,2.88,1.03.83,2.28-.42,1.44-1.44-2.3-2.83-6.85-4.54-10.43-3.91-.57.1-.55,1.02,0,1.14h0Z"/>
          <path class="cls-3" d="M80.97,57.11c.09,1.01.46,2.06.79,3.02.48,1.38,2.56.44,1.81-.76-.53-.87-1.12-1.85-1.85-2.56-.26-.25-.79-.09-.75.31h0Z"/>
          <path class="cls-3" d="M61.86,72.6c.26.93,1.12,1.7,1.85,2.29.82.66,1.73,1.28,2.74,1.6,1.15.36,1.92-1.4.83-1.96-.83-.43-1.7-.75-2.5-1.24-.73-.45-1.4-1.08-2.21-1.39-.42-.16-.82.31-.71.71h0Z"/>
          <path class="cls-3" d="M40.91,80.43c.55-.07,1.06-.28,1.57-.5.54-.23,1.12-.42,1.63-.71,1.04-.6.11-2.19-.94-1.6-.48.27-.92.64-1.37.97-.43.31-.89.63-1.22,1.05-.21.27-.12.85.33.8h0Z"/>
          <path class="cls-3" d="M48.73,47.67c.62.61,1.48.92,2.35.97.76.04,1.95-.05,2.14-.95.06-.29-.05-.54-.29-.7-.54-.37-1.15-.02-1.74,0-.66.03-1.25-.14-1.88-.32-.58-.17-1.01.58-.58,1h0Z"/>
        </g>
      </g>
    </g>
  </g>
</svg>