<?xml version="1.0" encoding="UTF-8"?>
<svg id="_Слой_2" data-name="Слой_2" xmlns="http://www.w3.org/2000/svg" viewBox="0 0 160.31 123.49">
  <defs>
    <style>
      .cls-1 {
        fill: #ffd04d;
      }

      .cls-2 {
        fill: #d66bad;
      }

      .cls-3 {
        fill: #fcd6a4;
      }

      .cls-4 {
        fill: #910631;
      }

      .cls-5 {
        fill: #d845a7;
      }

      .cls-6 {
        fill: #af2c90;
      }

      .cls-7 {
        fill: #ddab62;
      }

      .cls-8 {
        fill: #ff4a7a;
      }

      .cls-9 {
        fill: #f6cb81;
      }

      .cls-10 {
        fill: #f467d3;
      }

      .cls-11 {
        fill: #ffdd92;
      }

      .cls-12 {
        fill: #edba3a;
      }

      .cls-13 {
        fill: #b80831;
      }
    </style>
  </defs>
  <g id="_Слой_1-2" data-name="Слой_1">
    <g>
      <g>
        <ellipse class="cls-13" cx="80.16" cy="104.29" rx="80.16" ry="19.2"/>
        <path class="cls-2" d="M6.64,18.72v80.32c0,8.26,32.91,14.95,73.52,14.95s73.52-6.69,73.52-14.95V18.72H6.64Z"/>
        <path class="cls-4" d="M110.35,86.49c-4.85,14.06-12.38,26.62-21.9,36.89,40.37-.99,71.86-9.17,71.86-19.1,0-8.05-20.66-14.94-49.96-17.79Z"/>
        <path class="cls-5" d="M6.64,18.72v80.32c0,8.26,32.91,14.95,73.52,14.95s73.52-6.69,73.52-14.95V18.72H6.64Z"/>
        <rect class="cls-10" x="13.18" y="35.88" width="10.69" height="64.45" rx="4.05" ry="4.05"/>
        <path class="cls-6" d="M112.3,18.72c2.72,9.71,4.19,20.05,4.19,30.77,0,24.27-7.52,46.56-20.09,64.13,32.78-1.5,57.27-7.46,57.27-14.58V18.72h-41.37Z"/>
        <g>
          <path class="cls-1" d="M54.23,113.03L27.97,35.88,7.13,100.77c3.2,5.64,21.84,10.32,47.1,12.26Z"/>
          <path class="cls-1" d="M54.25,113.03c8.06.62,16.79.96,25.91.96s18.12-.35,26.28-.98l-25.92-72.99-26.26,73.01Z"/>
          <path class="cls-1" d="M106.43,113c25.08-1.95,43.56-6.62,46.75-12.23l-20.84-64.88-25.91,77.12Z"/>
        </g>
        <g>
          <path class="cls-12" d="M106.43,113c-3.24.25-6.58.46-10.01.61,2.36-3.31,4.55-6.78,6.54-10.4l3.48,9.79Z"/>
          <path class="cls-12" d="M106.43,113c25.08-1.95,43.56-6.62,46.75-12.23l-20.84-64.88-25.91,77.12Z"/>
        </g>
        <path class="cls-13" d="M160.31,19.21C160.31,7.01,124.42,0,80.16,0S0,7.01,0,19.21s28.58,20.8,80.16,20.8,80.16-8.59,80.16-20.8Z"/>
        <path class="cls-4" d="M157.68,13.78c.45.91.68,1.86.68,2.84,0,12.2-28.25,20.8-80.16,20.8C36.24,37.42,9.49,31.73.99,23.03c5.44,10.14,33.15,16.98,79.16,16.98,51.91,0,80.16-8.59,80.16-20.8,0-1.95-.92-3.76-2.63-5.43Z"/>
        <ellipse class="cls-9" cx="80.16" cy="18.72" rx="73.52" ry="14.95"/>
        <path class="cls-7" d="M112.64,5.31c8.17,2.41,12.59,5.35,12.96,8.48,1.58,13.12-33.28,17.63-73.72,15.98-11.65-.47-22.48-1.59-32.28-2.57,13.26,3.91,35.43,6.47,60.55,6.47,40.6,0,73.52-6.69,73.52-14.95,0-5.88-16.72-10.97-41.03-13.41Z"/>
        <ellipse class="cls-3" cx="40.87" cy="15.73" rx="24.45" ry="5.83"/>
        <path class="cls-11" d="M18.52,100.33h0c2.95,0,5.34-2.39,5.34-5.34v-46.33l-10.69,33.28v13.05c0,2.95,2.39,5.34,5.34,5.34Z"/>
      </g>
      <g>
        <g>
          <g>
            <path class="cls-9" d="M58.47,15.43c-23.04-4.88-24.07-6.6-23.69-8.37.37-1.77,2.01-2.92,25.05,1.97,23.04,4.88,58.77,13.95,58.39,15.72-.37,1.77-36.71-4.44-59.75-9.32Z"/>
            <path class="cls-3" d="M56.6,11.35c-13.85-2.94-14.55-3.53-14.44-4.07s1-.79,14.85,2.14c13.85,2.94,50.88,11.49,50.77,12.02s-37.33-7.16-51.18-10.09Z"/>
            <path class="cls-7" d="M118.22,24.75c.03-.16-.23-.38-.74-.64-9.63-.69-37.42-5.66-56.28-9.72-23.03-4.95-24.05-6.67-23.67-8.44.03-.14.07-.27.12-.4-2.3.09-2.71.74-2.87,1.51-.37,1.77.65,3.48,23.69,8.37,23.04,4.88,59.37,11.09,59.75,9.32Z"/>
          </g>
          <g>
            <circle class="cls-13" cx="120.67" cy="25.04" r="6.86" transform="translate(21.58 98.31) rotate(-48.21)"/>
            <path class="cls-4" d="M127.37,26.46c.04-.2.07-.41.1-.61-.88,2.72-3.69,4.39-6.54,3.78-3.05-.65-5-3.64-4.35-6.69.61-2.86,3.27-4.74,6.11-4.44-.2-.06-.39-.12-.6-.16-3.7-.79-7.34,1.58-8.13,5.28-.79,3.7,1.58,7.34,5.28,8.13,3.7.79,7.34-1.58,8.13-5.29Z"/>
            <path class="cls-8" d="M123.4,25.37c-1.36-.29-2.23-1.63-1.94-2.99.29-1.36,1.63-2.23,2.99-1.94,1.36.29,2.23,1.63,1.94,2.99-.29,1.36-1.63,2.23-2.99,1.94Z"/>
          </g>
        </g>
        <g>
          <g>
            <path class="cls-9" d="M106.27,16.99c23.51-1.37,24.78-2.91,24.68-4.71-.1-1.8-1.55-3.19-25.06-1.82-23.51,1.37-60.19,4.97-60.09,6.77.1,1.8,36.96,1.13,60.47-.24Z"/>
            <path class="cls-3" d="M108.73,13.25c14.13-.82,14.92-1.31,14.89-1.85-.03-.54-.87-.93-15-.11-14.13.82-52.03,3.71-52,4.25.03.54,37.98-1.47,52.11-2.29Z"/>
            <path class="cls-7" d="M45.8,17.23c0-.16.28-.34.83-.53,9.62.76,37.84.03,57.11-1.15,23.51-1.44,24.78-2.98,24.66-4.78,0-.14-.03-.28-.06-.42,2.26.43,2.56,1.14,2.61,1.92.1,1.8-1.17,3.34-24.68,4.71-23.51,1.37-60.36,2.04-60.47.24Z"/>
          </g>
          <g>
            <circle class="cls-13" cx="43.33" cy="17.15" r="6.86" transform="translate(-3.2 19.72) rotate(-24.76)"/>
            <path class="cls-4" d="M36.49,17.55c-.01-.21-.01-.41,0-.62.46,2.82,2.99,4.89,5.9,4.72,3.11-.18,5.49-2.85,5.31-5.96-.17-2.91-2.52-5.18-5.37-5.31.2-.03.41-.05.62-.07,3.78-.22,7.02,2.67,7.24,6.45.22,3.78-2.67,7.02-6.45,7.24-3.78.22-7.02-2.67-7.24-6.45Z"/>
            <path class="cls-8" d="M40.58,17.07c1.39-.08,2.45-1.27,2.37-2.66s-1.27-2.45-2.66-2.37c-1.39.08-2.45,1.27-2.37,2.66.08,1.39,1.27,2.45,2.66,2.37Z"/>
          </g>
        </g>
      </g>
    </g>
  </g>
</svg>