<?xml version="1.0" encoding="UTF-8"?>
<svg id="_Слой_2" data-name="Слой_2" xmlns="http://www.w3.org/2000/svg" viewBox="0 0 107.81 114.28">
  <defs>
    <style>
      .cls-1 {
        fill: #674e22;
      }

      .cls-2 {
        fill: #755c2f;
      }
    </style>
  </defs>
  <g id="_Слой_1-2" data-name="Слой_1">
    <g>
      <path class="cls-1" d="M106.92,84.12l-.76-.86-23.01,20.33c-1.32,1.17-3.33,1.04-4.5-.28l-.1-.11,24.27-21.44c.62-.55.68-1.5.13-2.12h-.01c-.55-.64-1.5-.69-2.12-.15l-24.27,21.44-1.25-1.42,24.27-21.44c.62-.55.68-1.5.13-2.12h-.01c-.55-.63-1.5-.69-2.12-.15l-24.27,21.44-1.25-1.42,24.27-21.44c.62-.55.68-1.5.13-2.12h-.01c-.55-.64-1.5-.69-2.12-.15l-24.27,21.44-1.25-1.42,24.27-21.44c.62-.55.68-1.5.13-2.12h-.01c-.55-.64-1.5-.69-2.12-.15l-24.27,21.44-1.25-1.42,24.27-21.44c.62-.55.68-1.5.13-2.12h-.01c-.55-.64-1.5-.69-2.12-.15l-24.27,21.44-1.25-1.42,24.27-21.44c.62-.55.68-1.5.13-2.12h-.01c-.55-.64-1.5-.69-2.12-.15l-24.27,21.44-1.25-1.42,24.27-21.44c.62-.55.68-1.5.13-2.12h-.01c-.55-.64-1.5-.69-2.12-.15l-24.27,21.44-1.25-1.42,24.27-21.44c.62-.55.68-1.5.13-2.12h-.01c-.55-.64-1.5-.69-2.12-.15l-24.27,21.44-1.25-1.42,24.27-21.44c.62-.55.68-1.5.13-2.12h-.01c-.55-.63-1.5-.69-2.12-.15l-24.27,21.44-1.25-1.42,24.27-21.44c.62-.55.68-1.5.13-2.12h-.01c-.55-.64-1.5-.69-2.12-.15l-24.27,21.44-1.25-1.42,24.27-21.44c.62-.55.68-1.5.13-2.12h-.01c-.55-.64-1.5-.69-2.12-.15l-24.27,21.44-1.25-1.42,24.27-21.44c.62-.55.68-1.5.13-2.12h-.01c-.55-.64-1.5-.69-2.12-.15l-24.27,21.44-1.25-1.42,24.27-21.44c.62-.55.68-1.5.13-2.12h-.01c-.55-.63-1.5-.69-2.12-.15l-24.27,21.44-1.25-1.42,24.27-21.44c.62-.55.68-1.5.13-2.12h-.01c-.55-.64-1.5-.69-2.12-.15l-24.27,21.44-1.25-1.42,24.27-21.44c.62-.55.68-1.5.13-2.12h-.01c-.55-.63-1.5-.69-2.12-.15l-24.27,21.44-1.25-1.42,24.27-21.44c.62-.55.68-1.5.13-2.12h-.01c-.55-.64-1.5-.69-2.12-.15l-24.27,21.44-1.25-1.42,24.27-21.44c.62-.55.68-1.5.13-2.12h-.01c-.55-.64-1.5-.69-2.12-.15l-24.27,21.44-1.25-1.42,24.27-21.44c.62-.55.68-1.5.13-2.12h-.01c-.55-.64-1.5-.69-2.12-.15l-24.27,21.44-1.25-1.42,24.27-21.44c.62-.55.68-1.5.13-2.12h-.01c-.55-.64-1.5-.69-2.12-.15l-24.27,21.44-1.25-1.42,24.27-21.44c.62-.55.68-1.5.13-2.12h-.01c-.55-.63-1.5-.69-2.12-.15L14.62,30.83l-1.25-1.42L37.64,7.97c.62-.55.68-1.5.13-2.12h-.01c-.55-.64-1.5-.69-2.12-.15L11.36,27.14l-.22-.25c-1.17-1.32-1.04-3.33.28-4.5L34.42,2.06l-.76-.86c-1.3-1.47-3.54-1.61-5.01-.31L1.2,25.14c-1.47,1.3-1.61,3.54-.31,5.01l73.25,82.92c1.3,1.47,3.54,1.61,5.01.31l27.45-24.25c1.47-1.3,1.61-3.54.31-5.01Z"/>
      <path class="cls-2" d="M75.51,108.88L6.09,30.3c-.82-.92-.73-2.35.2-3.17h0c.92-.82,2.35-.73,3.17.2l69.42,78.58c.82.92.73,2.35-.2,3.17-.92.82-2.35.73-3.17-.2Z"/>
      <path class="cls-2" d="M12.65,26.91h0c-.14-.15-.12-.39.03-.53L35.85,5.93c.15-.14.39-.12.53.03.14.15.12.39-.03.53L13.18,26.94c-.15.14-.39.12-.53-.03Z"/>
      <rect class="cls-2" x="-3.19" y="13.1" width="38.19" height="1.18" rx=".52" ry=".52" transform="translate(-5.08 13.96) rotate(-41.45)"/>
      <path class="cls-2" d="M15.95,30.65h0c-.14-.15-.12-.39.03-.53l23.16-20.46c.15-.14.39-.12.53.03.14.15.12.39-.03.53l-23.16,20.46c-.15.14-.39.12-.53-.03Z"/>
      <path class="cls-2" d="M19.25,34.38h0c-.14-.15-.12-.39.03-.53l23.16-20.46c.15-.14.39-.12.53.03.14.15.12.39-.03.53l-23.16,20.46c-.15.14-.39.12-.53-.03Z"/>
      <path class="cls-2" d="M22.47,38.02h0c-.14-.15-.12-.39.03-.53l23.16-20.46c.15-.14.39-.12.53.03.14.15.12.39-.03.53l-23.16,20.46c-.15.14-.39.12-.53-.03Z"/>
      <path class="cls-2" d="M25.77,41.76h0c-.14-.15-.12-.39.03-.53l23.16-20.46c.15-.14.39-.12.53.03.14.15.12.39-.03.53l-23.16,20.46c-.15.14-.39.12-.53-.03Z"/>
      <path class="cls-2" d="M28.95,45.35h0c-.14-.15-.12-.39.03-.53l23.16-20.46c.15-.14.39-.12.53.03.14.15.12.39-.03.53l-23.16,20.46c-.15.14-.39.12-.53-.03Z"/>
      <path class="cls-2" d="M32.25,49.09h0c-.14-.15-.12-.39.03-.53l23.16-20.46c.15-.14.39-.12.53.03.14.15.12.39-.03.53l-23.16,20.46c-.15.14-.39.12-.53-.03Z"/>
      <path class="cls-2" d="M35.55,52.82h0c-.14-.15-.12-.39.03-.53l23.16-20.46c.15-.14.39-.12.53.03.14.15.12.39-.03.53l-23.16,20.46c-.15.14-.39.12-.53-.03Z"/>
      <path class="cls-2" d="M38.76,56.47h0c-.14-.15-.12-.39.03-.53l23.16-20.46c.15-.14.39-.12.53.03.14.15.12.39-.03.53l-23.16,20.46c-.15.14-.39.12-.53-.03Z"/>
      <path class="cls-2" d="M42.06,60.2h0c-.14-.15-.12-.39.03-.53l23.16-20.46c.15-.14.39-.12.53.03.14.15.12.39-.03.53l-23.16,20.46c-.15.14-.39.12-.53-.03Z"/>
      <path class="cls-2" d="M45.28,63.84h0c-.14-.15-.12-.39.03-.53l23.16-20.46c.15-.14.39-.12.53.03.14.15.12.39-.03.53l-23.16,20.46c-.15.14-.39.12-.53-.03Z"/>
      <path class="cls-2" d="M48.58,67.58h0c-.14-.15-.12-.39.03-.53l23.16-20.46c.15-.14.39-.12.53.03.14.15.12.39-.03.53l-23.16,20.46c-.15.14-.39.12-.53-.03Z"/>
      <path class="cls-2" d="M51.88,71.31h0c-.14-.15-.12-.39.03-.53l23.16-20.46c.15-.14.39-.12.53.03.14.15.12.39-.03.53l-23.16,20.46c-.15.14-.39.12-.53-.03Z"/>
      <path class="cls-2" d="M55.1,74.96h0c-.14-.15-.12-.39.03-.53l23.16-20.46c.15-.14.39-.12.53.03h0c.14.15.12.39-.03.53l-23.16,20.46c-.15.14-.39.12-.53-.03Z"/>
      <path class="cls-2" d="M58.4,78.69h0c-.14-.15-.12-.39.03-.53l23.16-20.46c.15-.14.39-.12.53.03h0c.14.15.12.39-.03.53l-23.16,20.46c-.15.14-.39.12-.53-.03Z"/>
      <path class="cls-2" d="M61.57,82.29h0c-.14-.15-.12-.39.03-.53l23.16-20.46c.15-.14.39-.12.53.03.14.15.12.39-.03.53l-23.16,20.46c-.15.14-.39.12-.53-.03Z"/>
      <path class="cls-2" d="M64.87,86.02h0c-.14-.15-.12-.39.03-.53l23.16-20.46c.15-.14.39-.12.53.03.14.15.12.39-.03.53l-23.16,20.46c-.15.14-.39.12-.53-.03Z"/>
      <path class="cls-2" d="M68.17,89.76h0c-.14-.15-.12-.39.03-.53l23.16-20.46c.15-.14.39-.12.53.03.14.15.12.39-.03.53l-23.16,20.46c-.15.14-.39.12-.53-.03Z"/>
      <path class="cls-2" d="M71.39,93.4h0c-.14-.15-.12-.39.03-.53l23.16-20.46c.15-.14.39-.12.53.03.14.15.12.39-.03.53l-23.16,20.46c-.15.14-.39.12-.53-.03Z"/>
      <path class="cls-2" d="M74.69,97.13h0c-.14-.15-.12-.39.03-.53l23.16-20.46c.15-.14.39-.12.53.03.14.15.12.39-.03.53l-23.16,20.46c-.15.14-.39.12-.53-.03Z"/>
      <path class="cls-2" d="M77.86,100.73h0c-.14-.15-.12-.39.03-.53l23.16-20.46c.15-.14.39-.12.53.03.14.15.12.39-.03.53l-23.16,20.46c-.15.14-.39.12-.53-.03Z"/>
      <path class="cls-2" d="M82.36,105.82h0c-.14-.15-.12-.39.03-.53l23.16-20.46c.15-.14.39-.12.53.03.14.15.12.39-.03.53l-23.16,20.46c-.15.14-.39.12-.53-.03Z"/>
    </g>
  </g>
</svg>