<?xml version="1.0" encoding="UTF-8"?>
<svg id="_Слой_2" data-name="Слой_2" xmlns="http://www.w3.org/2000/svg" viewBox="0 0 415.82 304.9">
  <defs>
    <style>
      .cls-1 {
        fill: #625b5b;
      }

      .cls-2 {
        opacity: .1;
      }

      .cls-2, .cls-3 {
        fill: #a94423;
      }

      .cls-3 {
        opacity: .3;
      }

      .cls-4 {
        fill: #f9d82f;
      }
    </style>
  </defs>
  <g id="_Слой_1-2" data-name="Слой_1">
    <g>
      <g>
        <ellipse class="cls-1" cx="186.91" cy="187.2" rx="74.54" ry="195.2" transform="translate(-59.97 282.22) rotate(-66.09)"/>
        <ellipse class="cls-4" cx="181.02" cy="200.49" rx="74.54" ry="195.2" transform="translate(-75.62 284.74) rotate(-66.09)"/>
        <ellipse class="cls-3" cx="181.02" cy="200.49" rx="74.54" ry="195.2" transform="translate(-75.62 284.74) rotate(-66.09)"/>
        <path class="cls-2" d="M39.26,145.5c34.11-5.62,69.78-16.71,102.28-4.91,43.24,15.7,64.62,66.11,105.55,87.08,9.31,4.77,19.39,7.87,28.88,12.28,17.03,7.91,33.58,20.51,44.02,36.32,4.68,7.08,7.62,15.97,11.15,24.37,13.97-4.06,23.89-11.03,28.33-21.05,16.68-37.64-49.69-103.56-148.25-147.25C112.67,88.65,19.25,83.75,2.57,121.39c-3.22,7.26-3.32,15.58-.72,24.58,12.19,2.8,25.03,1.57,37.41-.47Z"/>
        <path class="cls-1" d="M153.86,181.09c2.69-6.07,17.76-5.28,33.65,1.77,15.89,7.04,26.6,17.68,23.91,23.75-2.69,6.07-17.76,5.28-33.65-1.77s-26.6-17.68-23.91-23.75Z"/>
      </g>
      <g>
        <ellipse class="cls-1" cx="228.9" cy="117.7" rx="74.54" ry="195.2" transform="translate(28.54 279.27) rotate(-66.09)"/>
        <ellipse class="cls-4" cx="234.8" cy="104.41" rx="74.54" ry="195.2" transform="translate(44.2 276.75) rotate(-66.09)"/>
        <ellipse class="cls-3" cx="234.8" cy="104.41" rx="74.54" ry="195.2" transform="translate(44.2 276.75) rotate(-66.09)"/>
        <path class="cls-2" d="M376.55,159.4c-34.11,5.62-69.78,16.71-102.28,4.91-43.24-15.7-64.62-66.11-105.55-87.08-9.31-4.77-19.39-7.87-28.88-12.28-17.03-7.91-33.58-20.51-44.02-36.32-4.68-7.08-7.62-15.97-11.15-24.37-13.97,4.06-23.89,11.03-28.33,21.05-16.68,37.64,49.69,103.56,148.25,147.25,98.56,43.68,191.98,48.59,208.66,10.95,3.22-7.26,3.32-15.58.72-24.58-12.19-2.8-25.03-1.57-37.41.47Z"/>
        <path class="cls-1" d="M264.71,108.83c-2.69,6.07-17.76,5.28-33.65-1.77-15.89-7.04-26.6-17.68-23.91-23.75,2.69-6.07,17.76-5.28,33.65,1.77,15.89,7.04,26.6,17.68,23.91,23.75Z"/>
      </g>
    </g>
  </g>
</svg>