<?xml version="1.0" encoding="UTF-8"?>
<svg id="_Слой_2" data-name="Слой_2" xmlns="http://www.w3.org/2000/svg" viewBox="0 0 461.77 652.13">
  <defs>
    <style>
      .cls-1 {
        fill: #5f3720;
      }

      .cls-2 {
        fill: #845d2e;
      }

      .cls-3 {
        fill: #503019;
      }

      .cls-4 {
        fill: #fbf5ee;
      }

      .cls-5 {
        fill: #6a4521;
      }

      .cls-6 {
        fill: #f8ebda;
      }

      .cls-7 {
        fill: #dcc7b5;
      }

      .cls-8 {
        fill: #cdb4a2;
      }

      .cls-9 {
        fill: #c57f29;
      }

      .cls-10 {
        fill: #724621;
      }
    </style>
  </defs>
  <g id="_Слой_1-2" data-name="Слой_1">
    <g>
      <path class="cls-2" d="M370.84,469.86c1.54-.65,3.08-1.33,4.61-2.03.64-2.24,1.25-4.48,1.88-6.72-2.2-9.75-5.09-19.42-8.07-28.98-2.23,13.3-4.46,26.6-6.68,39.91,2.76-.72,5.51-1.45,8.26-2.18Z"/>
      <path class="cls-2" d="M267.24,340.38c-4.71-3.68-10.49-5.71-16.21-7.42-7.4-2.22-9.94-5.48-17.65-5.91-31.53-1.72-63.29-3.48-94.11-10.06,7.44,24.22,16.81,47.82,28.57,70.46,7.04,13.56,14.7,26.87,22.96,39.77,0-3.55.08-7.08.21-10.6-.79-10.87-.9-16.68-.9-16.68h0c-1.4-5.69,1.23-11.28,9.68-12.49,6.97-1,14.04-1.25,21.07-.81,2.55,0,5.12.25,7.65.77,7.05.97,13.99,2.66,20.69,5.06,1.28.46,2.58.96,3.6,1.85,2.01,1.73,2.42,4.42,1.82,7.05h0l-.54,8.03c.78,2.9,1.2,5.93,1.55,8.91,2.09,17.5,3.24,35.1,3.48,52.72,1.39-7.77,2.61-15.57,3.94-23.34,3.61-21.09,7.09-42.2,10.46-63.33,1.54-9.68,3.03-19.36,4.52-29.04-2.53-5.79-5.85-11.09-10.79-14.93Z"/>
      <path class="cls-2" d="M299.14,454.77c-2.32-24.77-6.68-49.34-12.98-73.4-.68,4.23-1.37,8.45-2.06,12.68-3.8,23.28-7.74,46.53-11.84,69.76-1.65,9.34-2.88,19.8-6.52,28.87,11.44-1.6,22.84-3.6,34.19-5.86.46-10.43.23-21.05-.79-32.04Z"/>
      <path class="cls-2" d="M56.33,341.54c.01,1.78.04,3.56.05,5.33.06.01.12.03.17.04,13.14,3.47,13.36,16.84,13.36,16.84,0,0,.04.09.11.23.68-3.35,1.35-6.7,2.01-10.07,3.63-18.57,6.59-37.27,10.49-55.79-9.02-4.17-17.8-8.85-26.29-14-.04,19.14-.03,38.28.1,57.42Z"/>
      <path class="cls-2" d="M159.81,638.36c25.22,9.61,54.97,8.11,77.88-6.14,25.25-15.73,39.55-44.32,48.46-72.7,6.86-21.89,11.52-42.74,13.26-64.22-12.79,2.58-25.7,4.8-38.69,6.53-.71.95-1.46,1.87-2.27,2.74-1,19.01-3.05,37.97-6.19,56.75-1.43,8.58-3.56,17.91-10.47,23.19-10.26,7.84-26.2,2.02-33.54-8.6-7.34-10.63-8.41-24.23-9.24-37.12-.7-10.89-1.73-21.96-2.82-33.11-8.12-.19-16.24-.66-24.34-1.45-21.46-2.11-42.87-6.34-63.34-13.19-1.34-.45-2.67-.94-4.01-1.41,2.95,9.84,5.91,19.68,8.86,29.52,1.88,6.28,2.94,14.75-2.84,17.84-5.26,2.81-11.46-1.65-15.15-6.33-7.23-9.15-11.69-20.15-15.77-31.08-.08-.2-.15-.41-.22-.62-1.56-1.88-3.05-3.81-4.47-5.8,8.52,32.26,18.85,63.8,31.42,92.93.5,4.55,1.76,8.96,3.72,13.22,12.64,17.35,29.75,31.46,49.76,39.06Z"/>
      <path class="cls-2" d="M410.2,354.26c1.37-.81,2.93-1.5,4.76-1.98.39-.1.79-.2,1.19-.29,3.88-29.95,6.58-58.34,8.46-83.64-4.14,3.77-8.32,7.52-12.3,11.42-.02,24.84-.84,49.69-2.11,74.5Z"/>
      <path class="cls-2" d="M39.98,273.44c1.19,15.45,2.7,31.99,4.58,49.27.25-15.04.74-30.06,1.5-45.08-2.04-1.37-4.07-2.76-6.08-4.19Z"/>
      <path class="cls-2" d="M372.83,476.72c-3.37.88-6.79,1.66-10.25,2.34-.41.13-.82.25-1.23.37-3.58,21.36-7.15,42.71-10.73,64.07,8.13-22.01,15.53-44.28,22.21-66.78Z"/>
      <path class="cls-2" d="M89.69,301.31c-.02.05-.03.1-.05.15-5.85,19.35-11.62,39.15-14.05,59.27-.86,7.18-1.69,14.41-2.43,21.65.47,2.29.94,4.58,1.41,6.86.43,1.79.82,3.35,1.16,4.49,8.31,27.66,16.61,55.33,24.92,83,10.43,4.49,21.19,8.21,32.15,11.2,20.34,5.55,41.43,8.18,62.52,8.86-1.56-15.73-3.09-31.58-3.92-47.29-11.4-16.47-21.63-33.74-30.33-51.81-12.75-26.46-23.17-54.22-30.49-82.73-1.7-.42-3.4-.84-5.09-1.29-12.22-3.26-24.18-7.41-35.8-12.38Z"/>
      <path class="cls-2" d="M385.05,337.89c-3.99,23.84-7.99,47.68-11.98,71.51.68,2.24,1.37,4.48,2.03,6.73,2.61,8.86,4.84,17.88,7.14,26.87.75-2.86,1.52-5.71,2.24-8.57,2.6-10.26,4.54-40.28,12.24-52.31,1.2-14.07,2.29-28.15,3.15-42.25.99-16.29,1.7-32.59,2.27-48.91-2.66,3.39-5.06,6.97-7.07,10.82-5.81,11.12-7.96,23.73-10.02,36.1Z"/>
      <path class="cls-5" d="M378.44,466.44c-.35-1.78-.7-3.55-1.1-5.33-.63,2.24-1.24,4.48-1.88,6.72,1-.45,1.99-.92,2.98-1.39Z"/>
      <path class="cls-5" d="M378.21,514.3c-4.27-1.26-4.28-7.26-3.39-11.62,1.76-8.61,3.53-17.22,5.29-25.82-.45-.54-.76-1.21-.95-1.93-2.1.65-4.21,1.24-6.34,1.8-6.68,22.49-14.08,44.77-22.21,66.78,3.58-21.36,7.15-42.71,10.73-64.07-18.49,5.63-37.13,10.68-56.07,14.67-1.95.41-3.91.8-5.87,1.2-1.74,21.47-6.4,42.33-13.26,64.22-8.91,28.39-23.21,56.98-48.46,72.7-22.91,14.25-52.66,15.75-77.88,6.14-20.01-7.6-37.12-21.7-49.76-39.06,2.09,4.55,4.98,8.93,8.58,13.06v.02h.02c20.41,23.53,63.55,39.75,113.45,39.75,1.98,0,3.95-.03,5.91-.08.64-.02,1.28-.05,1.92-.07,1.31-.04,2.62-.09,3.92-.16.75-.04,1.5-.09,2.24-.14,1.18-.07,2.36-.15,3.54-.24.78-.06,1.55-.13,2.33-.2,1.13-.1,2.27-.21,3.39-.33.77-.08,1.55-.16,2.32-.25,1.13-.13,2.25-.27,3.36-.42.74-.1,1.48-.19,2.21-.3,1.16-.17,2.32-.35,3.47-.53.67-.11,1.34-.21,2-.32,1.33-.23,2.65-.47,3.96-.72.46-.09.93-.17,1.39-.26,1.77-.35,3.52-.72,5.25-1.11.37-.08.73-.18,1.1-.26,1.35-.31,2.7-.64,4.03-.98.6-.15,1.19-.32,1.79-.48,1.08-.29,2.16-.58,3.22-.88.65-.19,1.3-.38,1.94-.57,1-.3,1.99-.6,2.97-.91.65-.21,1.3-.42,1.95-.63.96-.32,1.91-.64,2.86-.98.63-.22,1.26-.44,1.88-.67.95-.35,1.89-.71,2.83-1.07.58-.23,1.17-.45,1.75-.68.99-.4,1.97-.81,2.94-1.23.49-.21.99-.41,1.47-.63,1.29-.57,2.55-1.15,3.8-1.74.15-.07.31-.14.46-.21,1.4-.67,2.76-1.36,4.1-2.07.39-.21.77-.42,1.15-.63.94-.5,1.87-1.01,2.77-1.53.48-.27.94-.56,1.41-.83.79-.47,1.58-.94,2.35-1.42.49-.31.97-.62,1.45-.93.73-.47,1.45-.95,2.15-1.43.47-.32.94-.65,1.4-.98.69-.49,1.37-.99,2.03-1.49.44-.33.88-.66,1.31-.99.68-.53,1.33-1.06,1.98-1.6.39-.32.78-.63,1.16-.95.72-.61,1.4-1.23,2.09-1.86.28-.26.58-.51.85-.77.94-.89,1.86-1.79,2.73-2.7.13-.13.24-.27.37-.4.74-.78,1.46-1.57,2.14-2.37.28-.32.53-.65.8-.97.51-.62,1.02-1.24,1.5-1.87.29-.38.56-.76.83-1.13.43-.59.85-1.18,1.25-1.78.27-.4.53-.8.78-1.21.37-.59.74-1.19,1.08-1.79.24-.41.47-.82.69-1.23.33-.61.64-1.23.95-1.85.2-.4.4-.81.58-1.21.07-.16.13-.33.21-.49.01,0,.02,0,.03,0,.21-.48.39-.97.58-1.46.16-.4.33-.79.47-1.19.29-.79.54-1.58.78-2.37.08-.28.18-.55.26-.83.27-.94.49-1.9.69-2.85.03-.15.07-.29.1-.44.22-1.12.4-2.25.52-3.39.88-2.04,1.74-4.08,2.59-6.14,8.89-21.37,16.6-43.94,23.34-67.06-1.71,1.22-3.64,2.01-5.59,1.44Z"/>
      <path class="cls-5" d="M382.25,443c.88,3.43,1.77,6.84,2.7,10.25,2.3-11.21,4.59-22.42,6.89-33.64.91-4.42,1.81-8.84,2.72-13.26.76-8.08,1.48-16.15,2.18-24.23-7.7,12.03-9.64,42.05-12.24,52.31-.72,2.86-1.49,5.71-2.24,8.57Z"/>
      <path class="cls-5" d="M74.57,389.26c1.71,8.33,3.41,16.66,5.12,24.99,3.99,19.46,7.97,38.92,11.96,58.38.77.37,1.54.75,2.31,1.11,2.21,1.04,4.44,2.03,6.69,3-8.31-27.67-16.61-55.33-24.92-83-.34-1.15-.73-2.7-1.16-4.49Z"/>
      <path class="cls-5" d="M93.31,508.93c-2.9.86-5.77-1.3-7.93-3.42-2.12-2.09-4.11-4.29-6-6.57.08.2.15.41.22.62,4.08,10.93,8.54,21.92,15.77,31.08,3.7,4.68,9.9,9.14,15.15,6.33,5.78-3.09,4.73-11.56,2.84-17.84-2.95-9.84-5.91-19.68-8.86-29.52-3.41-1.2-6.81-2.47-10.17-3.82.79,3.84,1.57,7.68,2.36,11.52.89,4.37.89,10.36-3.38,11.62Z"/>
      <path class="cls-5" d="M208.25,575.9c7.34,10.63,23.28,16.45,33.54,8.6,6.91-5.28,9.03-14.61,10.47-23.19,3.14-18.78,5.2-37.73,6.19-56.75-1.52,1.63-3.23,3.14-5.19,4.47-1.62,1.1-3.32,1.01-4.73.28-.41-.01-.82-.04-1.21-.08l-2.13,31.46c.13,1.01.06,2.09-.21,3.14v.02h0c-.3,1.18-.81,2.3-1.47,3.17-3.54,4.74-9.3,4.87-14.41,4.67-2.97-.12-5.94-.23-8.91-.35-2.06-.08-4.21-.19-5.98-1.53-2.05-1.55-3.54-3.83-4.32-6.21-.28-.86-.46-1.72-.53-2.57-2.6-12.48-4.85-24.24-6.8-35.28-2.12-.01-4.25-.03-6.37-.08,1.09,11.15,2.12,22.22,2.82,33.11.83,12.89,1.9,26.49,9.24,37.12Z"/>
      <path class="cls-5" d="M201.04,496.95c-2.69-16.01-4.73-30.28-6.26-42.64-1.13-1.59-2.27-3.18-3.39-4.79.82,15.71,2.36,31.55,3.92,47.29,1.91.06,3.82.11,5.73.14Z"/>
      <path class="cls-5" d="M190.8,427.22c.41.64.83,1.28,1.25,1.92-.44-4.73-.77-8.9-1.04-12.52-.13,3.52-.21,7.05-.21,10.6Z"/>
      <path class="cls-5" d="M220.86,386.64c2.56.16,5.11.42,7.65.77-2.53-.52-5.1-.77-7.65-.77Z"/>
      <path class="cls-5" d="M254.08,409.39l-5.77,85.4c1.3-.13,2.59-.28,3.89-.42,2.9-4.78,4.41-10.21,5.55-16,.48-2.44.93-4.89,1.37-7.35-.24-17.62-1.4-35.22-3.48-52.72-.36-2.99-.77-6.02-1.55-8.91Z"/>
      <path class="cls-5" d="M50.3,220.9c.02-.18.06-.34.1-.5-1.67.64-3.21,1.63-4.52,2.9-2.7,2.63-5.59,5.06-8.64,7.28.66,13,1.54,27.37,2.74,42.86,2,1.43,4.04,2.82,6.08,4.19.96-18.94,2.33-37.86,4.24-56.73Z"/>
      <path class="cls-5" d="M412.31,279.77c3.97-3.9,8.16-7.65,12.3-11.42,1.38-18.7,2.31-35.7,2.94-50.42-5.66.68-11.34,1.17-17.02,1.3,1.26,20.15,1.79,40.34,1.78,60.54Z"/>
      <path class="cls-5" d="M373.08,409.4c3.99-23.84,7.98-47.67,11.98-71.51,2.06-12.38,4.21-24.99,10.02-36.1,2.01-3.86,4.41-7.43,7.07-10.82.84-23.92,1.38-47.85,2.02-71.76-4.83-.15-9.64-.61-14.4-1.51,5.88.75,9.15,9,5.37,13.57-2.91,3.52-8,4.05-12.55,4.52-7.91.81-15.76,2.24-23.45,4.26-1.88.5-3.82,1.06-5.32,2.3-2.65,2.2-3.32,6.04-2.96,9.47.49,4.62,2.48,9.01,1.87,13.79-.31,2.46-1.5,4.73-3.52,6.16-2.61,1.85-5.83,2.18-6.69-.94-6.53-2.65-12.48-6.7-17.33-11.82-2.19-2.31-4.66-5.08-8.2-3.78-1.74.64-3.04,2.12-3.67,3.86,16.92,32.73,31.31,66.64,43.68,101.35,5.77,16.18,11.11,32.52,16.07,48.97Z"/>
      <path class="cls-5" d="M299.14,454.77c1.03,11,1.25,21.61.79,32.04,21.05-4.2,41.94-9.35,62.65-14.78,2.23-13.3,4.46-26.6,6.68-39.91-1.38-4.44-2.78-8.87-4.13-13.26-5.45-17.69-11.39-35.23-17.79-52.59-10.5-28.46-22.23-56.45-34.64-84.13.05,3.91-.34,7.74-1.98,11.37-.86,1.9-2.12,3.66-3.89,4.77-2.81,1.76-5.69,1.52-8.42.36-3.53,27.65-7.8,55.19-12.26,82.72,6.31,24.07,10.67,48.63,12.98,73.4Z"/>
      <path class="cls-5" d="M139.27,316.99c30.82,6.59,62.57,8.35,94.11,10.06,7.72.43,10.25,3.68,17.65,5.91,5.72,1.71,11.5,3.73,16.21,7.42,4.94,3.84,8.27,9.14,10.79,14.93,3.31-21.62,6.56-43.24,10.06-64.83-4.69-5.04-8.84-10.74-14.87-13.95-2.62-1.4-5.54,1.47-6.62,4.23-1.19,3.05-1.94,6.83-5.36,7.74-1.5.4-3.12.04-4.44-.76-4.21-2.55-5.21-7.69-9.03-10.6-1.43-1.09-3.22-1.54-5.02-1.43-2.26.14-3.98.77-2.9,2.86-4.09,6.83-8.8,13.29-14.05,19.27-2.07,2.36-4.42,4.76-7.47,5.48-2.68.63-5.48-.14-8.01-1.22-9.77-4.16-19.39-14.74-26.36-23.71-1.75-2.25-4.72-3.16-7.43-2.25-4.99,1.67-9.27,6.05-12.77,10.27-5.67,6.85-12.15,14.7-22.16,12.37-3.42-.8-6.39-2.66-8.7-5.16.11.66.21,1.32.32,1.98,1.85,7.18,3.86,14.32,6.04,21.4Z"/>
      <path class="cls-5" d="M89.69,301.31c11.62,4.97,23.59,9.13,35.8,12.38,1.69.45,3.39.87,5.09,1.29-1.87-7.27-3.51-14.59-4.96-21.95-1.53-4.97-3.04-9.94-4.57-14.91-2.47-8.03-4.47-16.74-8.33-24.34-3.91,2.52-6.87,6.51-10.3,9.63-1.41,3.72-2.89,7.39-4.05,10.94-2.93,8.98-5.95,17.92-8.68,26.96Z"/>
      <path class="cls-5" d="M56.23,284.12c8.49,5.15,17.28,9.83,26.29,14,.13-.6.24-1.2.37-1.8,1.99-9.29,4.08-18.54,6.57-27.71.07-.25.13-.51.19-.76-3.99-.61-7.56-2.82-10.28-5.85-6.91-7.72-8.04-17.99-11.56-27.26-2.47-6.51-3.98-13.88-11.34-15.04-.09-.01-.17-.01-.26-.02.13.35.22.76.22,1.22-.07,21.07-.16,42.15-.2,63.22Z"/>
      <path class="cls-3" d="M44.49,371.53c-17.89-3.68-19.3-11-19.3-11,.49,11.92,3.69,23.54,7.23,34.93,4.08,13.13,8.65,26.1,13.67,38.9-.02-1.64-.03-2.89-.06-3.57-.87-19.74-1.3-39.5-1.53-59.26Z"/>
      <path class="cls-3" d="M85.38,505.51c2.16,2.12,5.03,4.27,7.93,3.42,4.27-1.26,4.28-7.26,3.38-11.62-.79-3.84-1.57-7.68-2.36-11.52-5.8-2.33-11.52-4.88-17.08-7.71-4.74-2.42-10.62-4.98-15.81-8.21,3.93,8.1,8.26,16.02,13.45,23.28,1.42,1.99,2.91,3.92,4.47,5.8,1.89,2.28,3.88,4.48,6,6.57Z"/>
      <path class="cls-3" d="M74.57,389.26c-.47-2.29-.94-4.58-1.41-6.86-1.29,12.63-2.34,25.31-2.89,37.91-.57,12.85-.57,25.8-4.24,37.98,2.88,1.79,5.67,3.81,8.47,5.41,5.6,3.19,11.33,6.16,17.14,8.95-3.99-19.46-7.97-38.92-11.96-58.38-1.71-8.33-3.41-16.66-5.12-24.99Z"/>
      <path class="cls-3" d="M56.77,373.09c.21,9.87.48,19.74.83,29.61.35,9.92.83,19.83,1.24,29.74.07,1.7.13,3.39.19,5.09,1.26-9.77,1.69-19.78,2.9-28.85,1.71-12.8,4.17-25.31,6.71-37.86-1.89,1.49-5.44,2.54-11.87,2.28Z"/>
      <path class="cls-1" d="M56.56,346.92c-.06-.02-.12-.03-.17-.04.08,8.74.2,17.48.39,26.22,6.43.26,9.98-.79,11.87-2.28.46-2.28.92-4.55,1.38-6.83-.06-.14-.11-.23-.11-.23,0,0-.21-13.37-13.36-16.84Z"/>
      <path class="cls-1" d="M44.49,371.53c-.04-3.38-.08-6.77-.11-10.15-.04-5.2-.05-10.4-.04-15.59-10.48.63-20.27,5.29-19.16,14.74,0,0,1.42,7.32,19.3,11Z"/>
      <path class="cls-3" d="M398.74,467.14c-1.74,4.07-4.33,7.53-8.21,9.56-1.65,2.78-6.28,3.56-9.08,1.32-.28-.22-.56-.45-.84-.67-.18-.15-.35-.31-.5-.49-1.76,8.61-3.53,17.22-5.29,25.82-.89,4.37-.89,10.36,3.39,11.62,1.95.58,3.88-.22,5.59-1.44.84-.6,1.63-1.28,2.33-1.98,12.48-12.28,20.67-28.2,27.9-44.15,1.76-3.88,3.46-7.78,5.13-11.7-5.28,3.89-11.09,7.17-16.56,10.14-1.28.7-2.57,1.33-3.87,1.98Z"/>
      <path class="cls-3" d="M419.96,378.03c-4.82.58-8.44.59-11.17.23-1.12,17.17-2.51,34.31-4.3,51.43-.81,7.76-1.15,15.95-2.34,23.84,6.85-4.19,13.7-9.07,18.4-15.35.03-.63.19-1.25.49-1.81,1.38-2.48,2.28-3.62,4.17-5.77,1.37-1.55,2.93-2.06,4.41-1.89,3.4-9.22,6.57-18.51,9.48-27.89,3.54-11.39,6.73-23.02,7.23-34.93,0,0-1.76,9.17-26.37,12.14Z"/>
      <path class="cls-3" d="M384.94,453.26c.79,2.91,1.61,5.8,2.47,8.67.35-.19.7-.38,1.06-.56,2.57-6.74,2.16-16.41,2.76-21.9,1.19-10.86,2.24-21.73,3.27-32.6.02-.17.03-.34.05-.51-.91,4.42-1.81,8.84-2.72,13.26-2.3,11.21-4.59,22.42-6.89,33.64Z"/>
      <path class="cls-1" d="M410.2,354.26c0,.11-.01.22-.02.32-.4,7.9-.88,15.79-1.4,23.68,2.73.36,6.35.35,11.17-.23,24.62-2.97,26.37-12.14,26.37-12.14,1.52-12.83-17.07-16.84-30.18-13.9-.4.09-.8.19-1.19.29-1.84.48-3.4,1.18-4.76,1.98Z"/>
      <path class="cls-8" d="M11.32,198.6c-2.16,6.99-2.96,15.73-4.06,22.95-.6,3.91-1.03,7.99.13,11.77,1.16,3.78,4.32,7.22,8.26,7.53,2.29.18,4.53-.68,6.63-1.61,5.28-2.34,10.3-5.26,14.96-8.66,3.04-2.22,5.94-4.65,8.64-7.28,1.31-1.27,2.85-2.25,4.52-2.9,1.84-.71,3.83-.99,5.82-.72.09.01.17.01.26.02,7.36,1.16,8.87,8.54,11.34,15.04,3.52,9.27,4.66,19.54,11.56,27.26,2.71,3.03,6.29,5.24,10.28,5.85.34.05.68.11,1.02.14,5.05.41,8.6-1.73,11.75-4.59,3.44-3.12,6.4-7.11,10.3-9.63-1.04-2.04-2.2-4.01-3.56-5.86-4.45-6.07,5.55-11.63,9.99-5.84,1.5,1.95,2.73,3.96,3.78,6.03.22.21.4.47.46.84,0,.04.01.07.02.11,3.48,7.29,4.69,15.24,6.03,23.52,1.13,7.02,2.32,14.02,3.46,21.04,2.31,2.51,5.28,4.37,8.7,5.16,10.01,2.33,16.49-5.52,22.16-12.37,3.5-4.22,7.77-8.6,12.77-10.27,2.71-.91,5.68,0,7.43,2.25,6.97,8.97,16.59,19.55,26.36,23.71,2.53,1.08,5.34,1.85,8.01,1.22,3.06-.72,5.4-3.12,7.47-5.48,5.25-5.98,9.96-12.44,14.05-19.27-1.08-2.09.64-2.72,2.9-2.86,1.79-.11,3.59.33,5.02,1.43,3.81,2.92,4.82,8.05,9.03,10.6,1.33.8,2.94,1.16,4.44.76,3.42-.91,4.17-4.69,5.36-7.74,1.08-2.77,4-5.63,6.62-4.23,6.03,3.21,10.18,8.91,14.87,13.95,1.08,1.16,2.17,2.29,3.34,3.34,2.06,1.86,4.45,3.75,6.99,4.84,2.72,1.17,5.6,1.41,8.42-.36,1.77-1.11,3.02-2.87,3.89-4.77,1.65-3.63,2.03-7.46,1.98-11.37-2.41-5.37-4.84-10.73-7.3-16.08,2.14,6.33,1.72,14.81,1.63,19.94-.08,4.36-5.8,4.72-7.21.98-1.53-4.07-3.15-8.17-5.14-12.04-1.79-3.48-4.7-6.6-5.76-10.36-.53-1.85.62-3.51,2.19-4.08.61-1.5,1.92-2.73,3.74-2.74,4.35-.03,7.17,1.94,9,4.92-.47-1.03-.94-2.06-1.42-3.09-2.65-5.72,5.57-10.75,8.58-5.02.79,1.49,1.54,3,2.31,4.5.63-1.74,1.93-3.23,3.67-3.86,3.54-1.29,6.01,1.47,8.2,3.78,4.85,5.11,10.8,9.17,17.33,11.82.86,3.12,4.08,2.79,6.69.94,2.02-1.43,3.21-3.7,3.52-6.16.61-4.78-1.39-9.17-1.87-13.79-.36-3.43.31-7.27,2.96-9.47,1.5-1.24,3.43-1.81,5.32-2.3,7.69-2.02,15.54-3.45,23.45-4.26,4.55-.47,9.64-.99,12.55-4.52,3.77-4.57.51-12.82-5.37-13.57,4.76.9,9.57,1.36,14.4,1.51,2.12.07,4.24.07,6.37.03,5.68-.13,11.36-.61,17.02-1.3,4.38-.53,8.74-1.17,13.07-1.84,4.47-.69,8.37-3.71,9.75-8.02,3.62-11.29-13.33-14.37-11.45-24.91.33-1.83,1.26-3.51,2.51-4.9,4.44-4.92,11.08-5.93,16.3-9.52,1.71-1.18,3.15-2.79,3.74-4.78,1.38-4.64-2.33-7.87-5.66-10.42-5.93-4.53-11.86-9.06-17.8-13.6,6.49-3.16,16.45.46,19.98-5.94,1.52-2.75.97-6.16-.93-8.67-3.92-5.16-10.23-6.19-15.43-9.21-4.45-2.58-7.83-6.42-10.98-10.54,1.15,5.29,1.76,10.68,1.76,16.15,0,2.23-.11,4.44-.3,6.64.19,2.2.3,4.41.3,6.64,0,67.23-89.68,121.73-200.32,121.73S31.78,202.24,31.78,135.01c0-2.23.11-4.44.3-6.64-.19-2.2-.3-4.41-.3-6.64,0-.21.01-.42.01-.63-6.33,5.63-12.65,11.26-18.98,16.89-2.89,2.57-5.84,5.22-7.71,8.61-1.86,3.4-2.46,7.75-.52,11.1.75,1.3,1.84,2.39,2.56,3.71,2.14,3.94.5,8.85-1.72,12.75-2.22,3.9-5.08,7.7-5.4,12.18-.45,6.21,5.06,12.21,11.29,12.27ZM437.86,122.44c4.81-1.25,13.62,2.33,13.9,7.99.07,1.45-1.41,2.34-2.69,2.05-1.83-.4-3.65-1.99-5.35-2.85-1.92-.96-3.84-.96-5.85-1.51-2.78-.76-2.83-4.95,0-5.68ZM438.12,152.06c2.93.5,5.86,2.26,8.51,3.6,2.34,1.19,5.45,2.45,6.01,5.3.18.94-.1,2.1-1.04,2.56-2.84,1.37-5.5-.16-8.11-1.45-2.84-1.39-6.01-2.73-8.33-4.91-2.4-2.27.18-5.57,2.97-5.09ZM413.76,200.22c.54-2.85,2.7-5.23,5.35-5.9.8-1.03,2.1-1.63,3.76-1.15,8.27,2.42,13.79,6.42,20.03,12.16,1.81,1.67-.08,5.28-2.51,4.32-6.95-2.75-14.79-3.19-22.21-3.63-3.14-.18-5-2.77-4.42-5.8ZM376.6,224.15c3.87-.8,7.88.24,10.16,3.61,1.16,1.71-.81,4.51-2.83,3.68-2.14-.88-4.25-1.83-6.6-1.9-3-.09-3.84-4.74-.73-5.39ZM330.41,247.04c.94-1.56,3.23-2.33,4.82-1.26,4.69,3.14,11.64,8.95,11.33,15.25-.09,1.87-2.22,3.46-3.97,2.28-2.18-1.47-3.55-3.88-5.21-5.87-1.69-2.02-3.6-3.98-5.71-5.57-1.51-1.14-2.34-3.03-1.26-4.82ZM256.99,263.93c1.43,1.44,2.17,3.17,3.04,4.98.93,1.93,1.87,3.92,1.36,6.09-.47,2.02-2.8,2.67-4.48,1.82-1.82-.92-2.69-2.99-3.5-4.77-.39-.86-.79-1.72-1.17-2.59-.47-1.07-.64-2.1-.75-3.26-.27-2.87,3.66-4.12,5.49-2.28ZM192.88,265.96c.32-4.49,4.76-7.74,9.14-7.84,13.78-.32,14.96,23.17,15.26,32.44.13,4.04-4.55,5.06-7.22,2.99-1.37-1.06-2.66-2.18-3.92-3.32-1.12-.39-2.08-1.26-2.67-2.58-5.09-5.24-9.11-11.27-12-18.23-.67-1.61.16-2.87,1.42-3.46ZM132.01,256.66c.06-.07.14-.13.21-.19,1.91-4.33,6.66-7.12,11.28-3.35,3.45,2.81,3.26,7.49,3,11.5-.44,6.56-.83,13.11-1.26,19.67-.29,4.4-6.53,6.84-8.85,2.4-3.92-7.48-10.53-22.46-4.38-30.02ZM81.44,227.83c1.03.41,1.84.79,2.62,1.59.69.72,1.1,1.67,1.1,2.65,1.09,3.26,1.67,6.86,2.7,10.09,1.39,4.38,3.9,8.56,4.17,13.19.11,1.95-2.12,2.89-3.66,2.1-7.73-3.97-12.37-16.67-13.29-24.79-.35-3.05,3.52-5.97,6.36-4.84ZM34.78,192.75c-3.73,5.23-7.4,9.24-9.78,15.41-2.44,6.32-3.27,13.38-6.42,19.36-1.14,2.16-4.54,1.6-5.14-.67-2.17-8.23.99-18.18,4.04-25.86,2.38-6.01,5.71-12.84,12.5-14.46,3.32-.79,7.06,3.04,4.79,6.23ZM9.32,152.89c.89-2.18,2.03-3.95,3.59-5.72.72-.82,1.55-1.52,2.4-2.19.89-.7,2.01-.99,3.06-1.4.96-.38,2.19.25,2.67,1.09.57.98.3,2.04-.37,2.87-.6.74-.98,1.51-1.66,2.2-.53.53-1.03,1.09-1.53,1.65-1.04,1.17-1.97,2.46-2.91,3.71-.88,1.18-2.17,1.75-3.59,1.18-1.19-.48-2.2-2.09-1.67-3.39ZM7.95,180.55c.87-3.51,3.42-6.9,5.56-9.79,2.14-2.88,4.45-5.74,7.6-7.56,1.71-.99,4.16.67,3.48,2.67-1.12,3.31-3.13,6.18-5.05,9.07-1.81,2.72-3.44,5.95-5.72,8.32-1.67,2.71-6.77.95-5.86-2.73Z"/>
      <path class="cls-10" d="M232.1,243.45c-106.96,0-194.34-50.95-200.02-115.09-.19,2.2-.3,4.41-.3,6.64,0,67.23,89.68,121.73,200.32,121.73s200.32-54.5,200.32-121.73c0-2.23-.11-4.44-.3-6.64-5.68,64.14-93.05,115.09-200.02,115.09Z"/>
      <path class="cls-7" d="M32.08,128.37c5.68,64.14,93.05,115.09,200.02,115.09s194.34-50.95,200.02-115.09c.19-2.2.3-4.41.3-6.64,0-5.48-.61-10.87-1.76-16.15-1.13-5.16-2.78-10.21-4.94-15.14,2.03,6.34,3.1,12.86,3.1,19.52,0,60.74-88.08,109.97-196.73,109.97-89.3,0-164.69-33.25-188.7-78.83-5.07-9.57-7.82-19.68-7.98-30.15,0-.22-.03-.45-.03-.67v-.32c0-6.66,1.06-13.18,3.09-19.51-4.27,9.79-6.59,20.06-6.68,30.66,0,.21-.01.42-.01.63,0,2.23.11,4.44.3,6.64Z"/>
      <path class="cls-6" d="M383.18,56.68v.2c0,59.86-93.36,108.38-208.52,108.38-40.65,0-78.59-6.04-110.66-16.5-16.53-5.39-28.2-20.48-28.58-37.81.17,10.46,2.92,20.58,7.98,30.15,24.01,45.58,99.4,78.83,188.7,78.83,108.64,0,196.73-49.23,196.73-109.97,0-6.66-1.07-13.18-3.1-19.52-6.45-20.14-22.7-38.37-45.93-53.1-4.11-2.61-8.45-5.11-12.98-7.49,9.9,5.31,16.33,15.59,16.37,26.83Z"/>
      <path class="cls-7" d="M17.49,200.98c-3.05,7.69-6.21,17.64-4.04,25.86.6,2.27,4,2.83,5.14.67,3.15-5.97,3.98-13.04,6.42-19.36,2.38-6.17,6.05-10.18,9.78-15.41,2.27-3.19-1.47-7.02-4.79-6.23-6.8,1.62-10.12,8.45-12.5,14.46Z"/>
      <path class="cls-7" d="M13.81,183.27c2.28-2.37,3.92-5.61,5.72-8.32,1.92-2.89,3.93-5.77,5.05-9.07.68-2.01-1.77-3.66-3.48-2.67-3.14,1.82-5.46,4.68-7.6,7.56-2.14,2.88-4.69,6.27-5.56,9.79-.91,3.68,4.18,5.44,5.86,2.73Z"/>
      <path class="cls-7" d="M10.99,156.28c1.42.57,2.71,0,3.59-1.18.94-1.26,1.86-2.54,2.91-3.71.5-.56,1-1.12,1.53-1.65.69-.69,1.06-1.46,1.66-2.2.67-.83.94-1.89.37-2.87-.49-.84-1.71-1.47-2.67-1.09-1.05.42-2.17.71-3.06,1.4-.86.67-1.68,1.37-2.4,2.19-1.57,1.77-2.7,3.54-3.59,5.72-.54,1.31.47,2.92,1.67,3.39Z"/>
      <path class="cls-7" d="M88.37,257.46c1.54.79,3.78-.15,3.66-2.1-.27-4.63-2.78-8.82-4.17-13.19-1.03-3.22-1.61-6.83-2.7-10.09,0-.98-.41-1.94-1.1-2.65-.78-.81-1.59-1.19-2.62-1.59-2.84-1.12-6.71,1.79-6.36,4.84.92,8.12,5.56,20.82,13.29,24.79Z"/>
      <path class="cls-7" d="M145.25,284.29c.43-6.56.83-13.11,1.26-19.67.27-4,.45-8.69-3-11.5-4.63-3.77-9.38-.98-11.28,3.35-.07.07-.15.12-.21.19-6.15,7.57.46,22.54,4.38,30.02,2.33,4.44,8.56,2.01,8.85-2.4Z"/>
      <path class="cls-7" d="M203.47,287.65c.59,1.32,1.55,2.19,2.67,2.58,1.26,1.14,2.55,2.26,3.92,3.32,2.67,2.07,7.35,1.04,7.22-2.99-.3-9.27-1.47-32.76-15.26-32.44-4.38.1-8.82,3.35-9.14,7.84-1.25.59-2.09,1.84-1.42,3.46,2.89,6.96,6.91,12.99,12,18.23Z"/>
      <path class="cls-7" d="M252.24,269.47c.38.87.78,1.72,1.17,2.59.8,1.78,1.68,3.85,3.5,4.77,1.68.85,4.01.2,4.48-1.82.5-2.17-.43-4.16-1.36-6.09-.87-1.81-1.6-3.54-3.04-4.98-1.83-1.84-5.77-.59-5.49,2.28.11,1.16.27,2.19.75,3.26Z"/>
      <path class="cls-7" d="M294.85,257.76c-1.82.01-3.13,1.24-3.74,2.74-1.57.58-2.71,2.23-2.19,4.08,1.07,3.76,3.97,6.87,5.76,10.36,1.99,3.87,3.6,7.97,5.14,12.04,1.41,3.74,7.14,3.38,7.21-.98.09-5.13.52-13.61-1.63-19.94-.52-1.13-1.03-2.26-1.55-3.39-1.83-2.98-4.65-4.96-9-4.92Z"/>
      <path class="cls-7" d="M331.67,251.86c2.11,1.59,4.02,3.55,5.71,5.57,1.66,2,3.03,4.4,5.21,5.87,1.75,1.18,3.88-.41,3.97-2.28.3-6.3-6.64-12.11-11.33-15.25-1.59-1.07-3.89-.3-4.82,1.26-1.07,1.79-.25,3.68,1.26,4.82Z"/>
      <path class="cls-7" d="M377.33,229.54c2.35.07,4.46,1.02,6.6,1.9,2.02.83,3.98-1.96,2.83-3.68-2.28-3.37-6.29-4.41-10.16-3.61-3.11.65-2.27,5.29.73,5.39Z"/>
      <path class="cls-7" d="M418.18,206.02c7.42.44,15.26.88,22.21,3.63,2.44.96,4.33-2.65,2.51-4.32-6.24-5.74-11.76-9.75-20.03-12.16-1.66-.48-2.96.12-3.76,1.15-2.65.68-4.81,3.05-5.35,5.9-.58,3.03,1.28,5.62,4.42,5.8Z"/>
      <path class="cls-7" d="M443.49,162.07c2.61,1.28,5.28,2.82,8.11,1.45.94-.46,1.22-1.62,1.04-2.56-.56-2.85-3.67-4.11-6.01-5.3-2.64-1.34-5.57-3.09-8.51-3.6-2.79-.48-5.37,2.83-2.97,5.09,2.32,2.19,5.5,3.52,8.33,4.91Z"/>
      <path class="cls-7" d="M437.86,128.12c2.01.55,3.93.55,5.85,1.51,1.7.85,3.52,2.44,5.35,2.85,1.28.28,2.76-.6,2.69-2.05-.27-5.66-9.09-9.24-13.9-7.99-2.83.74-2.78,4.92,0,5.68Z"/>
      <path class="cls-3" d="M254.62,401.36h0c-.46,2.01-1.53,3.99-2.94,5.45-6.41,6.66-16.84,6.84-26.08,6.56-5.38-.16-10.75-.32-16.13-.49-3.72-.11-7.62-.27-10.83-2.15-4.47-2.62-7.52-6.73-8.52-10.8h0s.11,5.81.9,16.68c.26,3.63.6,7.79,1.04,12.52,4.13,6.37,8.38,12.65,12.81,18.8,7.42,10.3,15.39,20.15,23.63,29.79,4.32,5.06,9.28,12.69,15.23,17.51,1.53-.14,3.06-.29,4.59-.45l5.77-85.4.54-8.03Z"/>
      <path class="cls-3" d="M209.89,543.6c.77,2.38,2.27,4.67,4.32,6.21,1.77,1.34,3.93,1.45,5.98,1.53,2.97.12,5.94.23,8.91.35,5.11.2,10.87.07,14.41-4.67.65-.87,1.16-1.99,1.47-3.17h0v-.02c.27-1.05.35-2.13.21-3.14l2.13-31.46c-4.13-.41-7.54-2.28-10.59-4.82-11.37.92-22.77,1.4-34.17,1.33,1.95,11.04,4.19,22.8,6.8,35.28.08.85.26,1.72.53,2.57Z"/>
      <path class="cls-3" d="M214.34,496.93c4.87-.09,9.72-.31,14.57-.59-.87-.99-1.74-1.98-2.63-2.93-8.4-9.06-16.21-18.61-23.69-28.45-2.67-3.51-5.26-7.07-7.82-10.66,1.53,12.35,3.56,26.62,6.26,42.64,4.44.07,8.87.07,13.3-.01Z"/>
      <path class="cls-1" d="M198.63,410.74c3.21,1.88,7.11,2.04,10.83,2.15,5.38.16,10.75.32,16.13.49,9.24.28,19.67.1,26.08-6.56,1.41-1.47,2.48-3.44,2.94-5.45.6-2.62.19-5.31-1.82-7.05-1.03-.89-2.33-1.39-3.6-1.85-6.7-2.4-13.64-4.09-20.69-5.06-2.54-.35-5.09-.61-7.65-.77-7.03-.45-14.1-.19-21.07.81-8.45,1.21-11.08,6.79-9.68,12.49,1,4.06,4.05,8.18,8.52,10.8Z"/>
      <path class="cls-9" d="M425.21,430.61c-1.89,2.15-2.78,3.29-4.17,5.77-.31.56-.46,1.17-.49,1.81-4.7,6.28-11.55,11.16-18.4,15.35,1.19-7.89,1.53-16.08,2.34-23.84,1.78-17.12,3.17-34.26,4.3-51.43.52-7.89,1-15.78,1.4-23.68,0-.11.01-.22.02-.32,1.26-24.8,2.09-49.66,2.11-74.5.01-20.2-.52-40.39-1.78-60.54-2.13.05-4.25.04-6.37-.03-.63,23.91-1.17,47.84-2.02,71.76-.57,16.31-1.29,32.62-2.27,48.91-.86,14.1-1.94,28.18-3.15,42.25-.69,8.08-1.41,16.16-2.18,24.23-.02.17-.03.34-.05.51-1.03,10.87-2.08,21.74-3.27,32.6-.6,5.49-.19,15.16-2.76,21.9-.35.19-.7.38-1.06.56-.86-2.88-1.68-5.77-2.47-8.67-.92-3.41-1.82-6.83-2.7-10.25-2.3-8.99-4.53-18.01-7.14-26.87-.66-2.25-1.36-4.49-2.03-6.73-4.96-16.45-10.3-32.78-16.07-48.97-12.37-34.71-26.76-68.63-43.68-101.35-.77-1.5-1.52-3.01-2.31-4.5-3.02-5.74-11.23-.7-8.58,5.02.48,1.03.94,2.06,1.42,3.09.52,1.13,1.04,2.26,1.55,3.39,2.45,5.35,4.89,10.71,7.3,16.08,12.41,27.68,24.14,55.67,34.64,84.13,6.41,17.37,12.34,34.9,17.79,52.59,1.35,4.39,2.75,8.81,4.13,13.26,2.97,9.56,5.86,19.24,8.07,28.98.4,1.77.75,3.55,1.1,5.33-.99.47-1.98.94-2.98,1.39-1.53.7-3.07,1.37-4.61,2.03-2.75.73-5.5,1.45-8.26,2.18-20.71,5.43-41.6,10.57-62.65,14.78-11.35,2.27-22.75,4.26-34.19,5.86,3.64-9.07,4.87-19.53,6.52-28.87,4.1-23.23,8.04-46.48,11.84-69.76.69-4.23,1.37-8.45,2.06-12.68,4.45-27.53,8.73-55.07,12.26-82.72-2.53-1.09-4.93-2.98-6.99-4.84-1.16-1.05-2.26-2.19-3.34-3.34-3.5,21.59-6.75,43.21-10.06,64.83-1.48,9.68-2.98,19.37-4.52,29.04-3.36,21.13-6.85,42.24-10.46,63.33-1.33,7.77-2.55,15.58-3.94,23.34-.44,2.45-.89,4.9-1.37,7.35-1.14,5.79-2.65,11.22-5.55,16-1.3.14-2.59.29-3.89.42-1.53.16-3.06.31-4.59.45-5.94-4.82-10.91-12.46-15.23-17.51-8.24-9.65-16.21-19.49-23.63-29.79-4.43-6.14-8.69-12.43-12.81-18.8-.42-.64-.84-1.28-1.25-1.92-8.26-12.9-15.92-26.21-22.96-39.77-11.76-22.64-21.13-46.24-28.57-70.46-2.17-7.08-4.19-14.22-6.04-21.4-.11-.66-.21-1.32-.32-1.98-1.15-7.01-2.33-14.02-3.46-21.04-1.34-8.28-2.54-16.23-6.03-23.52,0-.04-.01-.07-.02-.11-.06-.37-.24-.63-.46-.84-1.05-2.07-2.29-4.08-3.78-6.03-4.44-5.78-14.45-.23-9.99,5.84,1.35,1.85,2.52,3.82,3.56,5.86,3.86,7.6,5.86,16.3,8.33,24.34,1.53,4.97,3.04,9.94,4.57,14.91,1.45,7.36,3.09,14.68,4.96,21.95,7.32,28.51,17.75,56.27,30.49,82.73,8.7,18.06,18.92,35.33,30.33,51.81,1.11,1.61,2.25,3.2,3.39,4.79,2.56,3.59,5.15,7.15,7.82,10.66,7.47,9.84,15.29,19.38,23.69,28.45.88.95,1.76,1.94,2.63,2.93-4.85.28-9.71.5-14.57.59-4.42.08-8.86.08-13.3.01-1.91-.03-3.82-.08-5.73-.14-21.09-.69-42.19-3.31-62.52-8.86-10.95-2.99-21.72-6.71-32.15-11.2-2.24-.97-4.48-1.96-6.69-3-.77-.36-1.54-.74-2.31-1.11-5.81-2.79-11.55-5.76-17.14-8.95-2.8-1.6-5.59-3.61-8.47-5.41,3.67-12.18,3.67-25.12,4.24-37.98.56-12.6,1.6-25.28,2.89-37.91.74-7.25,1.57-14.47,2.43-21.65,2.42-20.13,8.2-39.92,14.05-59.27.02-.05.03-.1.05-.15,2.73-9.04,5.75-17.98,8.68-26.96,1.16-3.55,2.65-7.22,4.05-10.94-3.15,2.86-6.69,5-11.75,4.59-.34-.03-.68-.09-1.02-.14-.07.25-.13.51-.19.76-2.49,9.17-4.58,18.42-6.57,27.71-.13.6-.25,1.2-.37,1.8-3.9,18.52-6.87,37.22-10.49,55.79-.66,3.37-1.33,6.72-2.01,10.07-.46,2.28-.92,4.56-1.38,6.83-2.54,12.55-5,25.07-6.71,37.86-1.21,9.07-1.64,19.09-2.9,28.85-.06-1.7-.12-3.39-.19-5.09-.41-9.91-.89-19.82-1.24-29.74-.34-9.87-.62-19.74-.83-29.61-.18-8.74-.31-17.48-.39-26.22-.02-1.78-.04-3.56-.05-5.33-.13-19.14-.14-38.28-.1-57.42.04-21.07.13-42.14.2-63.22,0-.46-.08-.87-.22-1.22-1.99-.27-3.98.01-5.82.72-.04.16-.08.32-.1.5-1.91,18.87-3.28,37.79-4.24,56.73-.76,15.02-1.25,30.05-1.5,45.08-.13,7.69-.2,15.38-.22,23.08,0,5.2,0,10.4.04,15.59.03,3.38.07,6.76.11,10.15.22,19.76.66,39.52,1.53,59.26.03.67.04,1.93.06,3.57.12,8.78.64,28.95,6.63,34.67,2.02,2.59,6.07,3.56,8.43.64.1.06.21.12.31.19,5.19,3.23,11.06,5.79,15.81,8.21,5.55,2.83,11.27,5.38,17.08,7.71,3.36,1.35,6.76,2.62,10.17,3.82,1.34.47,2.66.96,4.01,1.41,20.46,6.86,41.87,11.09,63.34,13.19,8.1.79,16.21,1.26,24.34,1.45,2.12.05,4.25.07,6.37.08,11.39.06,22.79-.41,34.17-1.33,3.05,2.55,6.46,4.41,10.59,4.82.4.04.8.06,1.21.08,1.41.74,3.11.83,4.73-.28,1.96-1.33,3.66-2.83,5.19-4.47.81-.87,1.56-1.79,2.27-2.74,12.98-1.73,25.9-3.95,38.69-6.53,1.96-.4,3.91-.79,5.87-1.2,18.94-3.99,37.58-9.03,56.07-14.67.41-.12.82-.25,1.23-.37,3.46-.68,6.88-1.46,10.25-2.34,2.13-.56,4.24-1.15,6.34-1.8.19.72.5,1.39.95,1.93.15.18.32.35.5.49.28.22.56.45.84.67,2.81,2.25,7.44,1.46,9.08-1.32,3.88-2.03,6.47-5.49,8.21-9.56,1.29-.64,2.59-1.28,3.87-1.98,5.47-2.97,11.28-6.25,16.56-10.14,6.36-4.69,11.96-10.26,15.26-17.3,1.87-3.99-1.19-8.59-4.81-9.01-1.48-.17-3.04.34-4.41,1.89Z"/>
      <path class="cls-4" d="M35.39,110.28c0,.23.03.45.03.67.38,17.33,12.05,32.42,28.58,37.81,32.07,10.46,70.01,16.5,110.66,16.5,115.16,0,208.52-48.51,208.52-108.38v-.2c-.04-11.24-6.47-21.53-16.37-26.83-.09-.05-.18-.1-.27-.15-.11-.06-.23-.11-.34-.17-1.92-1-3.88-1.98-5.86-2.93-.36-.17-.73-.35-1.09-.52-2-.95-4.04-1.88-6.11-2.79-.31-.14-.63-.27-.94-.41-2.18-.94-4.38-1.86-6.63-2.75-.05-.02-.11-.04-.16-.06-2.23-.88-4.51-1.73-6.81-2.56-.3-.11-.59-.22-.89-.32-2.24-.8-4.51-1.56-6.8-2.31-.42-.14-.83-.27-1.25-.4-2.28-.73-4.59-1.44-6.93-2.12-.39-.11-.79-.23-1.19-.34-2.42-.69-4.87-1.36-7.34-2-.19-.05-.38-.09-.57-.14-2.46-.63-4.94-1.22-7.45-1.79-.26-.06-.52-.12-.78-.18-2.52-.56-5.06-1.1-7.63-1.6-.44-.09-.88-.18-1.33-.26-2.52-.49-5.06-.95-7.62-1.38-.46-.08-.92-.15-1.38-.23-2.62-.43-5.25-.83-7.91-1.2-.31-.04-.63-.08-.94-.12-2.69-.36-5.39-.7-8.12-1-.17-.02-.33-.04-.5-.06-2.76-.3-5.55-.56-8.36-.8-.44-.04-.88-.08-1.32-.11-2.71-.22-5.45-.4-8.19-.56-.51-.03-1.01-.06-1.52-.08-2.77-.14-5.55-.26-8.35-.34-.4-.01-.81-.02-1.22-.03-2.95-.07-5.91-.12-8.9-.12-1.3,0-2.59.01-3.88.03-.42,0-.83,0-1.25,0-.1,0-.19,0-.29,0C132.38,1.47,54.64,39.99,38.48,90.44c-2.03,6.33-3.09,12.85-3.09,19.51v.32Z"/>
    </g>
  </g>
</svg>