<?xml version="1.0" encoding="utf-8"?>
<!-- Generator: Adobe Illustrator 27.5.0, SVG Export Plug-In . SVG Version: 6.00 Build 0)  -->
<svg version="1.1" id="Layer_1" xmlns="http://www.w3.org/2000/svg" xmlns:xlink="http://www.w3.org/1999/xlink" x="0px" y="0px"
	 viewBox="0 0 201.198 266.347" style="enable-background:new 0 0 201.198 266.347;" xml:space="preserve">
<g>
	<g>
		<path style="fill:#FFFFFF;" d="M81.452,21.549c0.104-0.035,0.197-0.065,0.284-0.093c2.243,5.176,2.168,26.902,2.142,34.313
			c-0.016,4.603-0.171,9.658-0.421,14.899L81.55,54.647C79.422,39.218,79.753,24.867,81.452,21.549z M194.943,240.871
			l-49.042-32.595l-44.083-78.561c-0.025-0.047-0.052-0.091-0.078-0.136c-0.453-0.749-3.973-6.313-10.191-9.126
			c1.567-14.944,4.33-44.122,4.399-64.64c0.101-29.341-1.195-38.703-6.035-43.555c-1.985-1.992-4.535-3.045-7.374-3.045
			c-1.893,0-3.933,0.452-6.238,1.384c-8.192,3.319-10.449,18.688-6.721,45.588l7.634,64.122c-3.674,1.58-7.075,4.428-10.154,8.508
			c-11.254,14.873-53.144,94.414-54.752,97.471c-1.614,2.813-8.63,16.161-2.96,26.552c2.166,3.971,6.854,8.804,16.883,9.282
			c3.246,0.154,8.913,0.232,16.845,0.232h0.872c28.752-0.022,78.419-0.988,98.45-1.402c2.476-0.059,4.784-1.072,6.502-2.861
			c1.717-1.787,2.634-4.141,2.582-6.631c-0.105-4.915-4.09-8.892-9.086-9.09c-0.226-0.015-0.483-0.009-0.721,0.002
			c-11.071,0.232-67.028,1.369-97.945,1.395h-0.863c-7.543,0-12.844-0.071-15.763-0.212c-0.604-0.029-1.057-0.089-1.384-0.15
			c0.126-1.761,1.267-5.346,2.827-8.076c0.028-0.051,0.057-0.104,0.084-0.155c6.564-12.522,44.265-83.267,53.249-95.146
			c1.072-1.42,1.913-2.131,2.385-2.436c0.51,0.352,1.19,1.036,1.509,1.502l26.145,46.598l-32.226-21.419
			c-1.173-0.77-2.545-1.177-3.969-1.177c-2.475,0-4.752,1.208-6.103,3.246c-1.06,1.613-1.435,3.544-1.052,5.447
			c0.391,1.915,1.5,3.556,3.099,4.604l55.869,37.136l14.047,25.037c1.633,2.903,4.77,4.707,8.186,4.707
			c1.588,0,3.142-0.408,4.447-1.152c2.178-1.213,3.745-3.204,4.408-5.587c0.198-0.697,0.313-1.405,0.346-2.111l27.923,18.561
			c1.195,0.793,2.586,1.213,4.02,1.213c2.44,0,4.704-1.21,6.062-3.245C199.18,247.624,198.276,243.109,194.943,240.871z"/>
		<path style="fill:#F1F1F1;" d="M81.074,21.074c0.104-0.035,0.197-0.065,0.284-0.093c2.243,5.176,2.168,26.902,2.143,34.313
			c-0.017,4.603-0.172,9.658-0.422,14.899l-1.907-16.02C79.044,38.743,79.375,24.393,81.074,21.074z M194.566,240.396
			l-49.043-32.595L101.44,129.24c-0.025-0.047-0.052-0.091-0.078-0.136c-0.451-0.75-3.972-6.314-10.192-9.126
			c1.568-14.944,4.331-44.122,4.4-64.64c0.102-29.34-1.195-38.703-6.035-43.555C87.55,9.792,85,8.739,82.161,8.739
			c-1.893,0-3.933,0.452-6.238,1.384c-8.192,3.319-10.448,18.688-6.721,45.588l7.634,64.122c-3.674,1.58-7.075,4.428-10.154,8.508
			c-11.254,14.873-53.144,94.414-54.752,97.471c-1.614,2.813-8.63,16.161-2.96,26.553c2.166,3.97,6.854,8.803,16.883,9.281
			c3.246,0.154,8.914,0.232,16.845,0.232h0.872c28.752-0.023,78.418-0.988,98.45-1.402c2.476-0.059,4.784-1.072,6.502-2.861
			c1.717-1.787,2.634-4.141,2.582-6.631c-0.106-4.915-4.093-8.823-9.086-9.09c-0.226-0.012-0.483-0.006-0.721,0.002
			c-11.068,0.358-67.027,1.369-97.944,1.395h-0.864c-7.543,0-12.844-0.071-15.763-0.212c-0.604-0.028-1.057-0.089-1.384-0.15
			c0.126-1.761,1.283-5.337,2.827-8.076c0.028-0.051,0.057-0.104,0.084-0.155c6.563-12.522,44.266-83.267,53.249-95.146
			c1.072-1.42,1.913-2.131,2.385-2.436c0.511,0.352,1.19,1.036,1.509,1.502l26.146,46.598l-32.227-21.419
			c-1.173-0.77-2.544-1.177-3.969-1.177c-2.475,0-4.757,1.205-6.103,3.246c-1.063,1.611-1.435,3.544-1.052,5.447
			c0.391,1.915,1.5,3.556,3.099,4.604l55.869,37.136l14.048,25.037c1.632,2.903,4.768,4.707,8.184,4.707
			c1.589,0,3.138-0.414,4.447-1.152c2.171-1.224,3.738-3.206,4.408-5.587c0.196-0.698,0.313-1.405,0.346-2.111l27.923,18.561
			c1.195,0.793,2.586,1.213,4.02,1.213c2.44,0,4.704-1.21,6.062-3.245C198.802,247.149,197.898,242.635,194.566,240.396z"/>
		<path style="fill:#E2E2E2;" d="M80.697,20.6c0.102-0.035,0.197-0.064,0.283-0.093c2.244,5.177,2.168,26.903,2.142,34.313
			c-0.016,4.603-0.171,9.659-0.421,14.9l-1.907-16.021C78.666,38.27,78.998,23.918,80.697,20.6z M194.189,239.923l-49.042-32.595
			l-44.083-78.563c-0.025-0.046-0.052-0.091-0.078-0.135c-0.453-0.75-3.974-6.315-10.192-9.127
			c1.567-14.943,4.331-44.121,4.4-64.639c0.102-29.341-1.195-38.704-6.035-43.556c-1.985-1.991-4.535-3.044-7.375-3.044
			c-1.892,0-3.932,0.451-6.237,1.383c-8.193,3.319-10.45,18.688-6.721,45.588l7.633,64.122c-3.673,1.58-7.075,4.428-10.153,8.509
			c-11.254,14.872-53.144,94.413-54.752,97.47c-1.615,2.813-8.63,16.161-2.96,26.553c2.166,3.97,6.853,8.804,16.882,9.281
			c3.246,0.155,8.914,0.232,16.846,0.232h0.872c28.752-0.022,78.418-0.987,98.45-1.401c2.476-0.059,4.784-1.073,6.502-2.862
			c1.717-1.787,2.634-4.141,2.582-6.631c-0.105-4.915-4.093-8.823-9.086-9.09c-0.227-0.012-0.484-0.006-0.721,0.002
			c-11.068,0.36-67.029,1.369-97.945,1.395h-0.863c-7.543,0-12.845-0.071-15.763-0.212c-0.604-0.028-1.057-0.089-1.385-0.149
			c0.127-1.761,1.293-5.333,2.828-8.077c0.027-0.05,0.057-0.103,0.084-0.154c6.563-12.523,44.264-83.268,53.249-95.147
			c1.071-1.42,1.913-2.131,2.384-2.435c0.51,0.351,1.191,1.036,1.51,1.502l26.144,46.598l-32.225-21.42
			c-1.173-0.769-2.546-1.177-3.969-1.177c-2.475,0-4.752,1.208-6.103,3.246c-1.062,1.614-1.435,3.544-1.052,5.448
			c0.391,1.914,1.5,3.555,3.099,4.604l55.869,37.136l14.046,25.037c1.634,2.903,4.77,4.707,8.186,4.707
			c1.588,0,3.138-0.414,4.448-1.152c2.172-1.224,3.738-3.205,4.407-5.587c0.196-0.698,0.313-1.404,0.347-2.111l27.923,18.562
			c1.194,0.792,2.585,1.212,4.02,1.212c2.439,0,4.704-1.21,6.062-3.245C198.424,246.676,197.521,242.16,194.189,239.923z"/>
		<path style="fill:#D4D4D4;" d="M80.319,20.126c0.104-0.036,0.197-0.066,0.283-0.094c2.244,5.177,2.168,26.902,2.143,34.313
			c-0.017,4.603-0.171,9.658-0.421,14.9l-1.907-16.02C78.288,37.794,78.62,23.444,80.319,20.126z M193.811,239.448l-49.042-32.596
			l-44.083-78.56c-0.025-0.048-0.052-0.092-0.078-0.137c-0.451-0.75-3.974-6.314-10.192-9.126c1.568-14.944,4.331-44.121,4.4-64.64
			c0.102-29.34-1.195-38.703-6.035-43.555c-1.986-1.992-4.535-3.045-7.374-3.045c-1.893,0-3.933,0.452-6.238,1.384
			c-8.192,3.319-10.449,18.688-6.721,45.588l7.633,64.122c-3.673,1.58-7.075,4.428-10.153,8.508
			c-11.254,14.873-53.144,94.414-54.752,97.472c-1.615,2.812-8.63,16.16-2.96,26.553c2.166,3.969,6.854,8.802,16.883,9.28
			c3.246,0.154,8.913,0.231,16.845,0.231h0.872c28.752-0.022,78.418-0.988,98.45-1.402c2.476-0.058,4.783-1.071,6.502-2.86
			c1.717-1.788,2.634-4.142,2.582-6.631c-0.105-4.916-4.093-8.835-9.086-9.091c-0.227-0.011-0.483-0.006-0.721,0.002
			c-11.068,0.358-67.028,1.369-97.945,1.395h-0.863c-7.543,0-12.844-0.071-15.763-0.212c-0.604-0.027-1.057-0.089-1.384-0.15
			c0.125-1.761,1.283-5.337,2.827-8.076c0.028-0.051,0.057-0.104,0.084-0.155c6.563-12.522,44.265-83.267,53.249-95.146
			c1.072-1.42,1.913-2.131,2.385-2.434c0.51,0.35,1.19,1.034,1.509,1.5l26.145,46.598L78.56,162.845
			c-1.173-0.77-2.546-1.177-3.969-1.177c-2.475,0-4.752,1.208-6.103,3.246c-1.06,1.613-1.434,3.544-1.052,5.448
			c0.391,1.914,1.5,3.555,3.099,4.604l55.869,37.136l14.047,25.037c1.633,2.903,4.77,4.708,8.186,4.708
			c1.588,0,3.138-0.415,4.447-1.153c2.171-1.224,3.74-3.206,4.408-5.587c0.195-0.696,0.313-1.404,0.345-2.111l27.924,18.561
			c1.195,0.794,2.586,1.213,4.02,1.213c2.44,0,4.705-1.209,6.063-3.245C198.047,246.2,197.144,241.686,193.811,239.448z"/>
		<path style="fill:#C5C5C5;" d="M79.941,19.652c0.104-0.036,0.197-0.066,0.284-0.094c2.243,5.177,2.167,26.902,2.143,34.313
			c-0.017,4.602-0.172,9.658-0.422,14.898l-1.907-16.02C77.91,37.32,78.242,22.97,79.941,19.652z M193.434,238.975l-49.042-32.596
			l-44.084-78.562c-0.024-0.047-0.051-0.092-0.078-0.136c-0.46-0.744-3.973-6.313-10.192-9.126
			c1.568-14.944,4.331-44.121,4.401-64.64c0.101-29.34-1.195-38.703-6.036-43.555c-1.985-1.993-4.534-3.045-7.374-3.045
			c-1.893,0-3.933,0.451-6.238,1.384c-8.192,3.318-10.448,18.688-6.721,45.588l7.634,64.122c-3.674,1.58-7.076,4.428-10.153,8.508
			c-11.254,14.873-53.144,94.414-54.753,97.471c-1.614,2.813-8.63,16.16-2.959,26.553c2.165,3.97,6.854,8.803,16.882,9.28
			c3.247,0.155,8.914,0.232,16.845,0.232h0.872c28.752-0.022,78.419-0.988,98.45-1.402c2.477-0.058,4.783-1.073,6.502-2.861
			c1.717-1.787,2.634-4.141,2.583-6.632c-0.106-4.914-4.094-8.834-9.086-9.09c-0.228-0.011-0.484-0.005-0.721,0.003
			c-11.069,0.359-67.028,1.369-97.945,1.394h-0.864c-7.543,0-12.844-0.07-15.763-0.212c-0.604-0.027-1.056-0.088-1.384-0.149
			c0.126-1.761,1.283-5.337,2.827-8.076c0.028-0.051,0.058-0.104,0.085-0.155c6.563-12.523,44.265-83.267,53.248-95.146
			c1.073-1.42,1.913-2.131,2.386-2.436c0.51,0.352,1.189,1.036,1.509,1.502l26.144,46.598l-32.226-21.419
			c-1.173-0.77-2.545-1.177-3.969-1.177c-2.474,0-4.757,1.205-6.103,3.246c-1.063,1.611-1.435,3.544-1.052,5.448
			c0.391,1.913,1.501,3.555,3.099,4.604l55.87,37.135l14.047,25.038c1.633,2.903,4.769,4.707,8.185,4.707
			c1.589,0,3.139-0.414,4.448-1.153c2.17-1.224,3.737-3.205,4.407-5.586c0.196-0.698,0.313-1.404,0.346-2.111l27.924,18.561
			c1.195,0.793,2.585,1.213,4.019,1.213c2.441,0,4.705-1.21,6.063-3.245C197.669,245.727,196.766,241.212,193.434,238.975z"/>
		<path style="fill:#B7B7B7;" d="M79.564,19.178c0.104-0.036,0.197-0.065,0.284-0.094c2.243,5.177,2.167,26.902,2.143,34.313
			c-0.017,4.603-0.172,9.658-0.422,14.899l-1.907-16.021C77.533,36.847,77.865,22.495,79.564,19.178z M193.056,238.5l-49.042-32.596
			l-44.083-78.562c-0.025-0.047-0.051-0.091-0.077-0.136c-0.445-0.754-3.975-6.313-10.193-9.126
			c1.568-14.943,4.331-44.121,4.4-64.64c0.102-29.34-1.195-38.703-6.035-43.555c-1.985-1.992-4.535-3.045-7.374-3.045
			c-1.893,0-3.933,0.452-6.238,1.384c-8.192,3.319-10.448,18.689-6.721,45.588l7.634,64.122c-3.674,1.58-7.076,4.429-10.154,8.508
			c-11.254,14.873-53.143,94.414-54.752,97.471c-1.614,2.813-8.63,16.161-2.96,26.553c2.166,3.97,6.856,8.803,16.883,9.281
			c3.247,0.154,8.913,0.231,16.844,0.231h0.873c28.752-0.022,78.418-0.988,98.45-1.402c2.476-0.058,4.783-1.072,6.502-2.861
			c1.717-1.787,2.634-4.141,2.582-6.631c-0.105-4.915-4.093-8.822-9.086-9.09c-0.226-0.012-0.483-0.006-0.721,0.002
			c-11.067,0.358-67.027,1.369-97.945,1.395h-0.863c-7.542,0-12.844-0.071-15.763-0.212c-0.606-0.028-1.057-0.088-1.384-0.15
			c0.126-1.761,1.282-5.337,2.827-8.076c0.028-0.051,0.057-0.102,0.084-0.155c6.564-12.522,44.266-83.267,53.249-95.146
			c1.073-1.42,1.913-2.131,2.386-2.435c0.51,0.351,1.189,1.035,1.508,1.501l26.144,46.598l-32.226-21.418
			c-1.173-0.771-2.545-1.178-3.97-1.178c-2.474,0-4.756,1.205-6.102,3.246c-1.063,1.611-1.435,3.544-1.052,5.448
			c0.391,1.914,1.5,3.555,3.1,4.604l55.868,37.136l14.048,25.038c1.632,2.902,4.769,4.706,8.184,4.706
			c1.59,0,3.14-0.414,4.448-1.152c2.171-1.224,3.738-3.206,4.408-5.587c0.196-0.698,0.313-1.404,0.346-2.111l27.923,18.561
			c1.196,0.793,2.586,1.214,4.02,1.214c2.44,0,4.703-1.211,6.061-3.246C197.292,245.252,196.389,240.737,193.056,238.5z"/>
		<path style="fill:#A8A8A8;" d="M79.188,18.703c0.103-0.036,0.197-0.066,0.283-0.093c2.243,5.176,2.167,26.902,2.142,34.312
			c-0.016,4.602-0.171,9.658-0.421,14.899l-1.907-16.02C77.156,36.371,77.488,22.021,79.188,18.703z M192.678,238.025
			l-49.042-32.596l-44.083-78.562c-0.025-0.047-0.052-0.091-0.078-0.136c-0.451-0.75-3.974-6.313-10.191-9.126
			c1.567-14.943,4.33-44.121,4.399-64.64c0.103-29.34-1.195-38.703-6.034-43.555c-1.986-1.992-4.536-3.045-7.375-3.045
			c-1.893,0-3.932,0.452-6.238,1.384c-8.192,3.319-10.449,18.689-6.721,45.588l7.634,64.122c-3.674,1.58-7.075,4.428-10.154,8.508
			C53.54,140.842,11.65,220.383,10.043,223.44c-1.615,2.812-8.63,16.16-2.961,26.552c2.167,3.97,6.854,8.803,16.883,9.281
			c3.246,0.154,8.913,0.232,16.845,0.232h0.872c28.753-0.023,78.418-0.988,98.451-1.402c2.474-0.058,4.783-1.072,6.502-2.861
			c1.716-1.787,2.633-4.141,2.581-6.631c-0.105-4.915-4.092-8.823-9.086-9.09c-0.227-0.012-0.483-0.006-0.721,0.002
			c-11.068,0.358-67.028,1.369-97.945,1.395h-0.862c-7.544,0-12.845-0.071-15.763-0.212c-0.606-0.028-1.058-0.088-1.385-0.15
			c0.126-1.761,1.283-5.336,2.827-8.076c0.028-0.051,0.057-0.102,0.084-0.155c6.563-12.523,44.265-83.267,53.248-95.146
			c1.073-1.42,1.914-2.131,2.386-2.435c0.51,0.351,1.191,1.035,1.509,1.501l26.145,46.598l-32.225-21.419
			c-1.174-0.77-2.547-1.177-3.97-1.177c-2.475,0-4.756,1.205-6.103,3.246c-1.064,1.611-1.434,3.544-1.052,5.448
			c0.392,1.914,1.5,3.555,3.099,4.604l55.869,37.136l14.047,25.037c1.633,2.903,4.77,4.707,8.185,4.707
			c1.589,0,3.139-0.414,4.448-1.152c2.172-1.224,3.738-3.206,4.408-5.587c0.196-0.698,0.313-1.404,0.346-2.111l27.923,18.561
			c1.195,0.793,2.586,1.213,4.02,1.213c2.441,0,4.704-1.21,6.061-3.244C196.914,244.777,196.011,240.263,192.678,238.025z"/>
		<path style="fill:#9A9A9A;" d="M78.809,18.229c0.104-0.036,0.198-0.066,0.284-0.092c2.244,5.176,2.167,26.901,2.143,34.311
			c-0.017,4.603-0.172,9.658-0.422,14.899l-1.906-16.021C76.777,35.896,77.11,21.547,78.809,18.229z M192.301,237.551
			l-49.042-32.596l-44.083-78.561c-0.025-0.047-0.052-0.091-0.079-0.136c-0.45-0.75-3.973-6.313-10.191-9.125
			c1.568-14.944,4.331-44.121,4.4-64.641c0.102-29.34-1.196-38.703-6.036-43.555c-1.985-1.992-4.535-3.045-7.373-3.045
			c-1.894,0-3.933,0.452-6.239,1.384c-8.191,3.319-10.449,18.689-6.72,45.588l7.633,64.123c-3.673,1.58-7.075,4.428-10.154,8.507
			c-11.254,14.873-53.143,94.414-54.751,97.472c-1.615,2.812-8.631,16.16-2.96,26.552c2.165,3.971,6.854,8.803,16.882,9.281
			c3.247,0.154,8.914,0.233,16.845,0.233h0.873c28.751-0.023,78.417-0.989,98.45-1.403c2.474-0.058,4.782-1.072,6.502-2.861
			c1.716-1.786,2.633-4.14,2.581-6.631c-0.105-4.915-4.092-8.822-9.086-9.09c-0.226-0.012-0.483-0.006-0.72,0.002
			c-11.069,0.338-67.029,1.37-97.945,1.395h-0.863c-7.543,0-12.844-0.07-15.763-0.212c-0.606-0.028-1.058-0.087-1.384-0.149
			c0.125-1.762,1.282-5.337,2.826-8.077c0.029-0.051,0.058-0.103,0.084-0.155c6.489-12.562,44.265-83.267,53.249-95.146
			c1.072-1.421,1.914-2.131,2.386-2.436c0.51,0.352,1.19,1.035,1.508,1.501l26.146,46.598l-32.227-21.418
			c-1.172-0.771-2.546-1.177-3.969-1.177c-2.475,0-4.751,1.207-6.102,3.245c-1.062,1.613-1.435,3.545-1.053,5.448
			c0.391,1.914,1.5,3.555,3.1,4.604l55.867,37.136l14.049,25.038c1.633,2.902,4.77,4.706,8.184,4.706c1.59,0,3.14-0.414,4.449-1.152
			c2.171-1.224,3.745-3.204,4.408-5.587c0.197-0.697,0.313-1.404,0.345-2.11l27.924,18.56c1.195,0.793,2.586,1.214,4.019,1.214
			c2.441,0,4.703-1.211,6.061-3.245C196.537,244.303,195.633,239.789,192.301,237.551z"/>
		<path style="fill:#8B8B8B;" d="M78.432,17.754c0.104-0.036,0.197-0.065,0.284-0.093c2.243,5.177,2.167,26.902,2.142,34.312
			c-0.016,4.604-0.171,9.658-0.422,14.9l-1.906-16.021C76.4,35.423,76.732,21.073,78.432,17.754z M191.923,237.076l-49.042-32.596
			L98.798,125.92c-0.025-0.048-0.052-0.091-0.079-0.137c-0.446-0.752-3.973-6.313-10.191-9.125
			c1.568-14.944,4.331-44.122,4.4-64.641c0.101-29.34-1.195-38.703-6.035-43.555c-1.985-1.992-4.535-3.045-7.374-3.045
			c-1.894,0-3.933,0.452-6.238,1.384c-8.192,3.319-10.449,18.689-6.721,45.588l7.634,64.123c-3.674,1.579-7.076,4.427-10.154,8.507
			c-11.254,14.874-53.144,94.414-54.752,97.473c-1.614,2.811-8.63,16.159-2.961,26.552c2.167,3.97,6.855,8.802,16.884,9.28
			c3.246,0.154,8.913,0.233,16.844,0.233h0.873c28.752-0.023,78.418-0.989,98.45-1.403c2.475-0.058,4.783-1.071,6.502-2.86
			c1.717-1.788,2.633-4.141,2.582-6.631c-0.106-4.916-4.093-8.824-9.086-9.09c-0.227-0.012-0.483-0.007-0.721,0.002
			c-11.068,0.38-67.029,1.368-97.945,1.395h-0.863c-7.543,0-12.844-0.072-15.763-0.213c-0.605-0.027-1.057-0.088-1.384-0.149
			c0.126-1.762,1.294-5.331,2.826-8.076c0.03-0.052,0.058-0.104,0.085-0.156c6.564-12.522,44.265-83.266,53.248-95.145
			c1.072-1.42,1.914-2.132,2.386-2.434c0.51,0.35,1.19,1.034,1.509,1.5l26.145,46.598l-32.226-21.419
			c-1.173-0.77-2.546-1.176-3.97-1.176c-2.474,0-4.755,1.205-6.102,3.245c-1.063,1.611-1.435,3.544-1.052,5.448
			c0.391,1.915,1.499,3.555,3.099,4.604l55.868,37.137l14.048,25.036c1.633,2.903,4.769,4.708,8.185,4.708
			c1.589,0,3.139-0.415,4.447-1.152c2.173-1.224,3.74-3.207,4.409-5.587c0.196-0.698,0.313-1.405,0.346-2.112l27.923,18.561
			c1.195,0.794,2.586,1.213,4.02,1.213c2.441,0,4.704-1.209,6.062-3.244C196.159,243.828,195.256,239.314,191.923,237.076z"/>
		<path style="fill:#7D7D7D;" d="M78.054,17.28c0.104-0.037,0.197-0.066,0.284-0.093c2.243,5.176,2.167,26.902,2.142,34.312
			c-0.016,4.603-0.172,9.658-0.422,14.899l-1.906-16.021C76.023,34.948,76.354,20.599,78.054,17.28z M191.545,236.602
			l-49.041-32.596L98.42,125.445c-0.025-0.047-0.052-0.091-0.079-0.136c-0.45-0.75-3.973-6.313-10.191-9.126
			c1.568-14.943,4.331-44.121,4.401-64.64c0.101-29.341-1.196-38.703-6.036-43.555c-1.985-1.992-4.535-3.045-7.375-3.045
			c-1.892,0-3.932,0.451-6.236,1.384c-8.193,3.318-10.45,18.688-6.721,45.588l7.633,64.122c-3.674,1.58-7.075,4.428-10.154,8.508
			C52.407,139.419,10.518,218.96,8.91,222.018c-1.615,2.812-8.631,16.159-2.962,26.551c2.167,3.971,6.855,8.804,16.884,9.281
			c3.246,0.155,8.913,0.232,16.844,0.232h0.874c28.751-0.022,78.417-0.988,98.449-1.402c2.475-0.058,4.783-1.072,6.502-2.861
			c1.717-1.787,2.634-4.14,2.582-6.631c-0.106-4.916-4.092-8.823-9.086-9.09c-0.227-0.012-0.483-0.006-0.721,0.001
			c-11.069,0.338-67.029,1.37-97.945,1.396h-0.863c-7.543,0-12.844-0.071-15.762-0.213c-0.606-0.028-1.058-0.087-1.385-0.148
			c0.126-1.762,1.292-5.334,2.827-8.078c0.028-0.05,0.057-0.102,0.084-0.154c6.564-12.523,44.265-83.268,53.248-95.146
			c1.072-1.42,1.915-2.132,2.386-2.436c0.51,0.352,1.191,1.035,1.509,1.501l26.145,46.598l-32.225-21.419
			c-1.174-0.769-2.547-1.177-3.97-1.177c-2.475,0-4.756,1.205-6.103,3.245c-1.064,1.611-1.435,3.545-1.051,5.449
			c0.391,1.914,1.498,3.554,3.098,4.604l55.868,37.136l14.048,25.037c1.633,2.902,4.769,4.707,8.185,4.707
			c1.589,0,3.139-0.414,4.448-1.152c2.173-1.224,3.739-3.206,4.408-5.587c0.196-0.699,0.313-1.404,0.346-2.111l27.924,18.561
			c1.194,0.793,2.585,1.213,4.019,1.213c2.441,0,4.704-1.21,6.062-3.245C195.78,243.355,194.879,238.84,191.545,236.602z"/>
		<path style="fill:#6E6E6E;" d="M77.677,16.806c0.103-0.036,0.197-0.066,0.283-0.093c2.243,5.176,2.167,26.902,2.143,34.312
			c-0.017,4.603-0.173,9.658-0.423,14.899l-1.906-16.02C75.646,34.474,75.978,20.124,77.677,16.806z M191.168,236.128
			l-49.043-32.596l-44.082-78.561c-0.025-0.046-0.053-0.091-0.079-0.136c-0.45-0.75-3.973-6.313-10.191-9.126
			c1.566-14.943,4.33-44.121,4.399-64.639c0.103-29.341-1.195-38.704-6.034-43.556c-1.986-1.992-4.535-3.045-7.376-3.045
			c-1.892,0-3.931,0.452-6.236,1.384c-8.194,3.319-10.449,18.689-6.721,45.588l7.633,64.122c-3.674,1.58-7.076,4.428-10.153,8.509
			C52.03,138.944,10.14,218.485,8.531,221.543c-1.614,2.813-8.629,16.16-2.96,26.552c2.167,3.97,6.855,8.803,16.883,9.281
			c3.247,0.154,8.913,0.231,16.845,0.231h0.873c28.752-0.022,78.417-0.988,98.45-1.402c2.474-0.058,4.783-1.072,6.502-2.861
			c1.716-1.787,2.633-4.14,2.582-6.631c-0.106-4.915-4.094-8.823-9.086-9.09c-0.227-0.012-0.484-0.005-0.721,0.002
			c-11.068,0.359-67.029,1.369-97.945,1.395h-0.863c-7.543,0-12.845-0.071-15.764-0.212c-0.604-0.028-1.056-0.088-1.384-0.149
			c0.126-1.762,1.304-5.327,2.827-8.077c0.028-0.051,0.058-0.103,0.085-0.155c6.564-12.522,44.265-83.267,53.248-95.145
			c1.072-1.42,1.914-2.132,2.386-2.436c0.51,0.352,1.189,1.035,1.509,1.501l26.145,46.598l-32.226-21.419
			c-1.174-0.77-2.546-1.177-3.971-1.177c-2.473,0-4.756,1.205-6.101,3.246c-1.063,1.611-1.434,3.544-1.051,5.448
			c0.39,1.914,1.499,3.555,3.099,4.603l55.868,37.136l14.047,25.037c1.634,2.903,4.77,4.707,8.185,4.707
			c1.59,0,3.14-0.414,4.447-1.152c2.172-1.224,3.74-3.206,4.409-5.587c0.196-0.698,0.313-1.404,0.346-2.111l27.923,18.561
			c1.196,0.793,2.586,1.213,4.02,1.213c2.441,0,4.703-1.21,6.062-3.244C195.402,242.88,194.501,238.365,191.168,236.128z"/>
		<path style="fill:#606060;" d="M77.299,16.331c0.104-0.036,0.197-0.066,0.284-0.093c2.243,5.176,2.167,26.902,2.142,34.312
			c-0.017,4.603-0.172,9.658-0.422,14.899l-1.906-16.021C75.268,33.999,75.6,19.649,77.299,16.331z M190.79,235.653l-49.042-32.596
			l-44.083-78.562c-0.025-0.046-0.053-0.091-0.079-0.136c-0.452-0.749-3.973-6.313-10.191-9.126
			c1.567-14.943,4.331-44.121,4.4-64.639C91.896,21.255,90.6,11.892,85.76,7.04c-1.985-1.992-4.536-3.045-7.375-3.045
			c-1.893,0-3.932,0.452-6.237,1.385c-8.193,3.318-10.449,18.688-6.721,45.587l7.634,64.122c-3.675,1.58-7.076,4.428-10.154,8.509
			c-11.254,14.873-53.144,94.413-54.752,97.471c-1.614,2.813-8.63,16.16-2.961,26.552c2.167,3.97,6.855,8.803,16.884,9.281
			c3.246,0.154,8.912,0.231,16.844,0.231h0.873c28.752-0.022,78.418-0.988,98.45-1.402c2.475-0.058,4.783-1.072,6.502-2.861
			c1.716-1.787,2.633-4.14,2.582-6.631c-0.107-4.915-4.09-8.892-9.086-9.09c-0.227-0.015-0.483-0.008-0.721,0.002
			c-11.072,0.232-67.029,1.369-97.946,1.395h-0.862c-7.543,0-12.844-0.071-15.763-0.212c-0.605-0.028-1.057-0.088-1.384-0.149
			c0.126-1.762,1.267-5.347,2.826-8.077c0.028-0.051,0.058-0.103,0.085-0.155c6.563-12.523,44.265-83.267,53.248-95.146
			c1.072-1.42,1.914-2.132,2.386-2.436c0.51,0.352,1.19,1.035,1.509,1.501l26.145,46.598L75.539,159.05
			c-1.173-0.77-2.546-1.177-3.97-1.177c-2.474,0-4.751,1.208-6.102,3.246c-1.06,1.613-1.435,3.544-1.052,5.448
			c0.39,1.914,1.499,3.555,3.099,4.604l55.868,37.136l14.047,25.037c1.634,2.903,4.77,4.707,8.186,4.707
			c1.589,0,3.143-0.407,4.447-1.152c2.178-1.212,3.746-3.204,4.409-5.587c0.197-0.697,0.313-1.404,0.346-2.111l27.922,18.561
			c1.196,0.793,2.587,1.213,4.02,1.213c2.441,0,4.704-1.21,6.062-3.244C195.025,242.405,194.123,237.891,190.79,235.653z"/>
	</g>
	<path style="fill:#FFFFFF;" d="M190.79,235.653l-49.042-32.596l-44.083-78.562c-0.025-0.046-0.053-0.091-0.079-0.136
		c-0.452-0.749-3.973-6.313-10.191-9.126c1.567-14.943,4.331-44.121,4.4-64.639C91.896,21.255,90.6,11.892,85.76,7.04
		c-1.985-1.992-4.536-3.045-7.375-3.045c-1.893,0-3.932,0.452-6.237,1.385c-8.193,3.318-10.449,18.688-6.721,45.587l7.634,64.122
		c-3.675,1.58-7.076,4.428-10.154,8.509c-11.254,14.873-53.144,94.413-54.752,97.471c-1.614,2.813-8.63,16.16-2.961,26.552
		c2.167,3.97,6.855,8.803,16.884,9.281c3.246,0.154,8.912,0.231,16.844,0.231h0.873c28.752-0.022,78.418-0.988,98.45-1.402
		c2.475-0.058,4.783-1.072,6.502-2.861c1.716-1.787,2.633-4.14,2.582-6.631c-0.107-4.915-4.09-8.892-9.086-9.09
		c-0.227-0.015-0.483-0.008-0.721,0.002c-11.072,0.232-67.029,1.369-97.946,1.395h-0.862c-7.543,0-12.844-0.071-15.763-0.212
		c-0.605-0.028-1.057-0.088-1.384-0.149c0.126-1.762,1.267-5.347,2.826-8.077c0.028-0.051,0.058-0.103,0.085-0.155
		c6.563-12.523,44.265-83.267,53.248-95.146c1.072-1.42,1.914-2.132,2.386-2.436c0.51,0.352,1.19,1.035,1.509,1.501l26.145,46.598
		L75.539,159.05c-1.173-0.77-2.546-1.177-3.97-1.177c-2.474,0-4.751,1.208-6.102,3.246c-1.06,1.613-1.435,3.544-1.052,5.448
		c0.39,1.914,1.499,3.555,3.099,4.604l55.868,37.136l14.047,25.037c1.634,2.903,4.77,4.707,8.186,4.707
		c1.589,0,3.143-0.407,4.447-1.152c2.178-1.212,3.746-3.204,4.409-5.587c0.197-0.697,0.313-1.404,0.346-2.111l27.922,18.561
		c1.196,0.793,2.587,1.213,4.02,1.213c2.441,0,4.704-1.21,6.062-3.244C195.025,242.405,194.123,237.891,190.79,235.653z
		 M77.299,16.331c0.104-0.036,0.197-0.066,0.284-0.093c2.243,5.176,2.167,26.902,2.142,34.312
		c-0.017,4.603-0.172,9.658-0.422,14.899l-1.906-16.021C75.268,33.999,75.6,19.649,77.299,16.331z"/>
	<g>
		<path style="fill:#5E2C00;" d="M80.281,125.889L80.281,125.889c-0.597,0-1.107-0.446-1.174-1.044l-8.865-74.451
			c-0.853-6.151-4.68-37.113,3.727-40.52c3.867-1.563,6.443-1.329,8.355,0.59c3.59,3.6,4.713,13.351,4.62,40.114
			c-0.097,28.464-5.432,73.811-5.486,74.264C81.392,125.442,80.886,125.889,80.281,125.889z M78.338,11.218
			c-0.929,0.003-2.069,0.279-3.479,0.851c-5.191,2.106-4.142,24.438-2.268,38.022l7.641,64.188
			c1.582-15.096,4.272-43.644,4.342-63.714c0.076-21.768-0.541-35.031-3.925-38.43C80.019,11.507,79.281,11.218,78.338,11.218z"/>
		<g>
			<g>
				<path style="fill:#8E8E8D;" d="M39.79,251.097c-7.766,0.008-13.948-0.059-17.432-0.221c-5.8-0.281-9.797-2.349-11.871-6.149
					c-4.265-7.821,2.193-19.424,2.943-20.723c1.711-3.262,43.56-82.592,54.284-96.764c3.966-5.244,8.317-7.788,12.906-7.57
					c7.155,0.353,11.621,7.512,11.809,7.813l55.945,99.718c0.881,1.559,0.324,3.547-1.249,4.429c-1.57,0.886-3.56,0.321-4.433-1.242
					l-55.883-99.612c-0.726-1.142-3.446-4.46-6.52-4.596c-2.889-0.112-5.604,2.642-7.381,4.987
					c-10.409,13.756-53.347,95.157-53.778,95.984c-1.482,2.588-5.065,10.538-2.92,14.456c0.913,1.67,3.085,2.595,6.459,2.754
					c18.145,0.871,114.323-1.162,115.297-1.182c1.739,0.048,3.289,1.388,3.327,3.186c0.036,1.798-1.389,3.289-3.188,3.326
					C134.89,249.762,72.948,251.069,39.79,251.097z"/>
				<path style="fill:#5E2C00;" d="M39.79,252.283c-8.289,0.006-14.17-0.069-17.483-0.227c-6.252-0.298-10.571-2.574-12.856-6.761
					c-4.572-8.379,2.167-20.532,2.951-21.887c0.409-0.779,43.316-82.276,54.371-96.886c4.03-5.34,8.511-8.045,13.3-8.051
					l0.608,0.013c7.776,0.383,12.555,8.054,12.754,8.384l55.972,99.748c0.578,1.03,0.722,2.229,0.398,3.371
					c-0.318,1.145-1.063,2.095-2.102,2.673c-2.046,1.167-4.886,0.368-6.047-1.696l-55.884-99.603
					c-0.772-1.229-3.19-3.896-5.541-3.999H80.23c-1.951,0-4.178,1.608-6.375,4.519c-10.234,13.535-53.25,95.009-53.674,95.819
					c-1.719,3.007-4.67,10.159-2.933,13.337c0.877,1.601,3.461,2.044,5.473,2.139c3.111,0.151,8.783,0.224,16.857,0.219
					c30.844-0.026,87.134-1.167,98.102-1.396c0.023,0,0.287-0.017,0.325-0.006c2.457,0.076,4.422,1.985,4.474,4.351
					c0.024,1.189-0.411,2.313-1.231,3.167c-0.824,0.857-1.931,1.343-3.117,1.37C127.054,251.11,70.966,252.259,39.79,252.283z
					 M80.073,120.843c-4.009,0.004-7.849,2.397-11.413,7.11c-10.763,14.228-53.749,95.782-54.184,96.601
					c-0.73,1.279-6.895,12.363-2.951,19.604c1.864,3.412,5.528,5.275,10.892,5.532c3.274,0.153,9.118,0.229,17.373,0.223
					c31.151-0.024,87.22-1.17,98.143-1.4c1.294-0.029,2.195-0.976,2.173-2.117c-0.021-1.215-1.143-2-2.173-2.033
					c-11.171,0.239-67.483,1.379-98.35,1.404c-8.114,0.006-13.828-0.069-16.969-0.218c-3.815-0.182-6.314-1.315-7.444-3.37
					c-2.906-5.313,2.874-15.513,2.938-15.613c0.399-0.768,43.332-82.2,53.858-96.11c1.879-2.49,4.821-5.462,8.145-5.465
					c3.8,0.168,6.831,3.779,7.697,5.158l55.917,99.656c0.534,0.961,1.853,1.332,2.819,0.793c0.484-0.276,0.835-0.717,0.987-1.248
					c0.14-0.533,0.075-1.092-0.189-1.569l-55.95-99.712c-0.147-0.243-4.291-6.89-10.825-7.211L80.073,120.843z"/>
			</g>
			<path style="fill:#8E8E8D;" d="M137.968,243.18c-0.974,0.02-97.151,2.053-115.297,1.182c-3.374-0.159-5.546-1.084-6.459-2.754
				c-2.145-3.918,1.438-11.868,2.92-14.456c0.432-0.827,43.369-82.229,53.778-95.984c1.777-2.346,4.492-5.1,7.381-4.987
				c0.417,0.017,0.834,0.108,1.237,0.234c9.554-0.506,21.483,25.272,23.936,30.051c2.425,4.716,4.89,9.41,7.36,14.096
				c3.721,6.591,7.365,13.226,10.973,19.875c7.506,13.803,15.562,27.438,22.886,41.351c0.148-0.056,0.3-0.08,0.443-0.156
				c1.573-0.882,2.13-2.87,1.249-4.429L92.43,127.483c-0.188-0.302-4.653-7.461-11.809-7.813
				c-1.576-0.076-18.271,18.931-23.691,28.968c-5.863,10.87-11.104,22.046-17.155,32.831c-6.142,10.943-12.544,21.793-17.896,33.155
				c-2.872,6.102-6.413,12.426-8.421,18.871c-0.434,1.394-1.449,9.71-0.004,14.631c2.205,1.639,5.178,2.571,8.904,2.75
				c3.483,0.162,9.666,0.229,17.432,0.221c33.158-0.027,95.1-1.335,98.316-1.404c1.8-0.037,3.225-1.528,3.188-3.326
				C141.257,244.567,139.707,243.227,137.968,243.18z"/>
		</g>
		<g>
			<path style="fill:#C5C4CB;" d="M186.76,243.336c-0.309,0-0.621-0.086-0.895-0.273l-115.228-76.59
				c-0.749-0.492-0.951-1.5-0.451-2.251c0.489-0.757,1.504-0.955,2.255-0.458l115.227,76.588c0.751,0.502,0.951,1.51,0.453,2.261
				C187.808,243.08,187.296,243.333,186.76,243.336z"/>
			<path style="fill:#5E2C00;" d="M186.76,244.123c-0.481,0-0.939-0.139-1.339-0.404L70.199,167.132
				c-0.54-0.354-0.902-0.902-1.031-1.534c-0.127-0.631,0-1.278,0.353-1.814c0.711-1.072,2.271-1.391,3.357-0.679l115.228,76.588
				c1.107,0.742,1.409,2.248,0.674,3.356C188.33,243.722,187.576,244.123,186.76,244.123z M71.538,164.28
				c-0.28,0-0.54,0.143-0.691,0.374c-0.129,0.19-0.172,0.413-0.129,0.631c0.044,0.221,0.173,0.411,0.357,0.53l115.228,76.591
				c0.593,0.394,0.945,0.093,1.161-0.234c0.26-0.386,0.151-0.907-0.233-1.168L72.006,164.423
				C71.862,164.328,71.703,164.28,71.538,164.28z"/>
		</g>
	</g>
</g>
</svg>
