<?xml version="1.0" encoding="UTF-8"?>
<svg xmlns="http://www.w3.org/2000/svg" viewBox="0 0 262.09 100">
  <defs>
    <style>
      .cls-1 {
        fill: #ddcca6;
      }

      .cls-2, .cls-3 {
        fill: #fff;
      }

      .cls-4, .cls-5, .cls-6 {
        fill: #fdfeff;
      }

      .cls-4, .cls-7 {
        opacity: .1;
      }

      .cls-8 {
        fill: #6b4f29;
      }

      .cls-9 {
        fill: #b9a36b;
      }

      .cls-3 {
        mix-blend-mode: screen;
        opacity: .2;
      }

      .cls-10 {
        fill: #886c48;
      }

      .cls-11 {
        isolation: isolate;
      }

      .cls-12, .cls-6, .cls-13 {
        mix-blend-mode: multiply;
      }

      .cls-7, .cls-14 {
        fill: #feffff;
      }

      .cls-15 {
        fill: #b48f52;
      }

      .cls-6 {
        opacity: .4;
      }

      .cls-16 {
        fill: #d7c192;
      }

      .cls-13 {
        fill: #b3915d;
      }

      .cls-17 {
        fill: #c6a771;
      }
    </style>
  </defs>
  <g class="cls-11">
    <g id="_Слой_2" data-name="Слой_2">
      <g id="_Слой_1-2" data-name="Слой_1">
        <g>
          <g>
            <path class="cls-6" d="M93.96,23.58c-.09-.09-.08-.26.05-.13,4.48,4.37,8.37,8.82,10.74,14.71,1.09,2.72,1.51,5.57,1.67,8.47.2,3.53-1.27,6.68-2.87,9.74-.09.17-.4-.2-.36-.34,1.8-5.3,2.33-10.73,1.03-16.2-1.5-6.35-5.78-11.72-10.26-16.24Z"/>
            <g>
              <polygon class="cls-17" points="248.9 13.67 55.58 69.27 55.6 99.55 250.13 41.57 248.9 13.67"/>
              <path class="cls-9" d="M55.6,100c-.1,0-.19-.03-.27-.09-.11-.08-.18-.22-.18-.36l-.03-30.29c0-.2.13-.37.32-.43L248.78,13.24c.13-.04.27-.01.39.07.11.08.18.21.19.34l1.23,27.9c0,.2-.12.39-.32.45L55.73,99.98s-.08.02-.13.02ZM56.02,69.61l.02,29.35,193.62-57.71-1.19-26.98L56.02,69.61Z"/>
            </g>
            <path class="cls-13" d="M74.35,81.67c8.79-2.6,17.65-4.81,26.53-7.08,18.36-4.7,36.61-9.8,54.95-14.56,31.26-8.13,62.78-15.15,94.11-22.99l-1.03-23.38L55.58,69.27v17.65c6.32-1.56,12.54-3.4,18.77-5.25Z"/>
            <g>
              <polygon class="cls-14" points="55.58 69.27 11.46 66.38 11.48 83.7 55.6 99.55 55.6 95.52 55.58 69.27"/>
              <path class="cls-9" d="M55.6,100c-.05,0-.1,0-.15-.03l-44.12-15.86c-.18-.06-.3-.23-.3-.42v-17.32c-.01-.12.04-.24.13-.33.09-.09.21-.13.34-.12l44.12,2.89c.24.01.42.21.42.44l.02,30.29c0,.14-.07.28-.19.37-.08.05-.17.08-.26.08ZM11.92,83.38l43.23,15.53-.02-29.23-43.22-2.83v16.53Z"/>
            </g>
            <path class="cls-13" d="M30.65,77.26c5.82,1.83,11.52,4.02,17.3,5.95,2.6.87,5.12,1.96,7.64,3.04v-16.98s-44.13-2.89-44.13-2.89v5.46c5.95,2.8,13.03,3.48,19.19,5.41Z"/>
            <g>
              <g>
                <g>
                  <g>
                    <path class="cls-14" d="M77.69,46.46l-33.14,7.81.03,30.28,73.25-21.43c-14.01-4.14-27.73-9.3-40.14-16.67Z"/>
                    <path class="cls-10" d="M77.58,47.19c10.48,6.2,22.56,11.29,37.85,15.93l-70.16,20.52-.02-28.83,32.34-7.62M77.69,46.46l-33.14,7.81.03,30.28,73.25-21.43c-14.01-4.14-27.73-9.3-40.14-16.67h0Z"/>
                  </g>
                  <g>
                    <path class="cls-14" d="M44.58,85.01c-.1,0-.19-.03-.27-.09-.11-.08-.18-.22-.18-.36l-.02-30.29c0-.21.14-.39.35-.44l33.13-7.81c.11-.03.23,0,.33.05,10.95,6.51,23.68,11.79,40.04,16.63.19.06.32.23.32.43s-.13.37-.32.43l-73.25,21.42s-.08.02-.13.02ZM45,54.63l.02,29.33,71.22-20.83c-15.67-4.72-27.98-9.88-38.63-16.19l-32.61,7.69Z"/>
                    <path class="cls-10" d="M116.93,63.12s.04.01.06.02l-.06.02s0-.01,0-.02c0,0,0-.01,0-.02M77.69,46.02s-.07,0-.1.01l-33.13,7.81c-.2.05-.35.23-.35.44l.02,30.29c0,.14.07.27.18.36.08.06.17.09.27.09.04,0,.08,0,.13-.02l73.25-21.42c.19-.05.32-.23.32-.43s-.13-.37-.32-.43c-16.36-4.84-29.09-10.12-40.04-16.63-.07-.04-.15-.06-.23-.06h0ZM45.02,83.96l-.02-29.33,32.61-7.69c10.65,6.31,22.97,11.47,38.63,16.19l-71.22,20.83h0Z"/>
                  </g>
                </g>
                <g>
                  <g>
                    <path class="cls-14" d="M207.47,5.8l-50.87,11.99c12.57,7.29,26.43,12.37,40.56,16.45l56.42-16.5v-4.03s-46.11-7.91-46.11-7.91Z"/>
                    <path class="cls-10" d="M207.5,6.49l45.4,7.79v2.95s-55.74,16.3-55.74,16.3c-15.69-4.55-28.05-9.49-38.71-15.48l49.05-11.56M207.47,5.8l-50.87,11.99c12.57,7.29,26.43,12.37,40.56,16.45l56.42-16.5v-4.03s-46.11-7.91-46.11-7.91h0Z"/>
                  </g>
                  <g>
                    <path class="cls-14" d="M197.16,34.69s-.08,0-.13-.02c-16.61-4.8-29.53-10.04-40.66-16.5-.16-.09-.24-.27-.22-.45.03-.18.16-.33.34-.37l50.87-11.99c.06-.01.12-.01.18,0l46.1,7.91c.22.04.37.22.37.44v4.03c0,.2-.13.37-.32.43l-56.42,16.5s-.08.02-.13.02ZM157.81,17.96c10.81,6.14,23.36,11.18,39.35,15.81l55.97-16.37v-3.32s-45.65-7.83-45.65-7.83l-49.68,11.71Z"/>
                    <path class="cls-10" d="M207.47,5.35s-.07,0-.1.01l-50.87,11.99c-.18.04-.31.19-.34.37-.03.18.06.36.22.45,11.13,6.45,24.05,11.69,40.66,16.5.04.01.08.02.13.02s.08,0,.13-.02l56.42-16.5c.19-.06.32-.23.32-.43v-4.03c0-.22-.16-.4-.38-.44l-46.1-7.91s-.05,0-.08,0h0ZM197.16,33.77c-15.99-4.63-28.54-9.67-39.35-15.81l49.68-11.71,45.64,7.83v3.32s-55.97,16.37-55.97,16.37h0Z"/>
                  </g>
                </g>
                <g>
                  <g>
                    <polygon class="cls-14" points="44.55 54.28 .45 64.67 .45 68.71 44.58 84.56 44.57 80.53 44.55 54.28"/>
                    <path class="cls-10" d="M43.87,55.14l.02,25.39v3.06S1.13,68.23,1.13,68.23v-3.01s42.74-10.07,42.74-10.07M44.55,54.28L.45,64.67v4.03s44.13,15.85,44.13,15.85v-4.03s-.03-26.25-.03-26.25h0Z"/>
                  </g>
                  <g>
                    <path class="cls-14" d="M44.58,85.01c-.05,0-.1,0-.15-.03L.3,69.13c-.18-.06-.3-.23-.3-.42v-4.04c0-.21.14-.39.34-.44l44.11-10.4c.13-.03.27,0,.38.09.11.09.17.21.17.35l.02,30.28c0,.15-.07.28-.19.37-.08.05-.17.08-.26.08ZM.9,68.39l43.23,15.53-.02-29.08L.9,65.03v3.37Z"/>
                    <path class="cls-10" d="M44.55,53.83s-.07,0-.1.01L.35,64.24c-.2.05-.34.23-.34.44v4.04c0,.19.12.36.3.42l44.13,15.85s.1.03.15.03c.09,0,.18-.03.26-.08.12-.08.19-.22.19-.37l-.02-30.28c0-.14-.06-.26-.17-.35-.08-.06-.18-.1-.28-.1h0ZM44.13,83.92L.9,68.39v-3.37s43.21-10.19,43.21-10.19l.02,29.08h0Z"/>
                  </g>
                </g>
              </g>
              <g>
                <g>
                  <path class="cls-14" d="M190.37,32.19l63.21-18.49L207.47,1.76l-53.7,14.32c11.32,6.99,23.78,12.05,36.6,16.1Z"/>
                  <path class="cls-10" d="M207.47,2.47l43.54,11.27-60.63,17.73c-13.71-4.35-25.14-9.31-34.89-15.14l51.98-13.87M207.47,1.76l-53.7,14.32c11.32,6.99,23.78,12.05,36.6,16.1l63.21-18.49L207.47,1.76h0Z"/>
                </g>
                <g>
                  <path class="cls-14" d="M190.37,32.64s-.09,0-.13-.02c-14.53-4.6-26.54-9.88-36.7-16.15-.15-.09-.23-.27-.21-.45.03-.18.15-.32.33-.37L207.35,1.33c.08-.02.15-.02.23,0l46.11,11.94c.2.05.33.23.34.43,0,.2-.13.38-.32.44l-63.21,18.49s-.08.02-.13.02ZM154.89,16.25c9.88,5.98,21.5,11.04,35.48,15.47l61.52-17.99-44.42-11.51-52.58,14.03Z"/>
                  <path class="cls-10" d="M252.57,13.69l.12.03-.11.03s0-.02,0-.03c0-.01,0-.02,0-.03M207.47,1.31s-.08,0-.12.01l-53.7,14.33c-.17.05-.3.19-.33.37-.03.18.06.35.21.45,10.16,6.27,22.17,11.55,36.7,16.15.04.01.08.02.12.02,0,0,0,0,.01,0,.04,0,.08,0,.13-.02l63.21-18.49c.19-.05.33-.23.32-.44,0-.2-.14-.38-.34-.43L207.58,1.33s-.07-.01-.11-.01h0ZM190.38,31.72c-13.98-4.43-25.6-9.5-35.48-15.47l52.58-14.03,44.42,11.51-61.52,17.99h0Z"/>
                </g>
              </g>
              <g>
                <g>
                  <path class="cls-14" d="M74.99,44.78L.45,64.67l44.13,15.85,66.56-19.47c-12.69-4.11-24.99-9.24-36.15-16.28Z"/>
                  <path class="cls-10" d="M74.88,45.52c9.52,5.97,20.65,11.06,33.96,15.5l-64.24,18.79L2.73,64.77l72.14-19.25M74.99,44.78L.45,64.67l44.13,15.85,66.56-19.47c-12.69-4.11-24.99-9.24-36.15-16.28h0Z"/>
                </g>
                <g>
                  <path class="cls-14" d="M44.57,80.97c-.05,0-.1,0-.15-.03L.3,65.09c-.18-.07-.3-.24-.3-.44,0-.2.14-.36.33-.41l74.54-19.89c.12-.03.25-.01.36.06,9.99,6.3,21.78,11.61,36.05,16.23.19.06.31.24.31.43,0,.2-.13.37-.32.42l-66.56,19.47s-.08.02-.13.02ZM1.95,64.73l42.64,15.32,65.04-19.02c-13.65-4.51-25.02-9.68-34.71-15.77L1.95,64.73Z"/>
                  <path class="cls-10" d="M110.31,61.04s.02,0,.03.01h-.03s0,0,0,0c0,0,0,0,0-.01M1.26,64.7s0,0,0,0c0,0,0,0,0,.01h-.03s.03-.02.03-.02M74.99,44.34s-.08,0-.12.01L.33,64.24c-.19.05-.32.22-.33.41,0,.2.11.37.3.44l44.13,15.85s.1.03.15.03c.04,0,.08,0,.13-.02l66.56-19.47c.19-.06.32-.23.32-.42,0-.2-.12-.37-.31-.43-14.27-4.62-26.06-9.92-36.05-16.23-.07-.05-.16-.07-.24-.07h0ZM44.59,80.06L1.95,64.73l72.97-19.47c9.69,6.09,21.06,11.26,34.71,15.77l-65.04,19.02h0Z"/>
                </g>
              </g>
              <g class="cls-12">
                <path class="cls-14" d="M54.32,77.68l56.81-16.62c-12.69-4.11-24.99-9.24-36.15-16.28L9.56,62.24c7.4,3.46,37.64,12.76,44.76,15.44Z"/>
                <path class="cls-10" d="M74.88,45.52c9.52,5.97,20.65,11.06,33.96,15.5l-54.49,15.94c-2.7-1-8.24-2.81-14.63-4.91-10.04-3.28-22.27-7.29-28.08-9.66l63.24-16.88M74.99,44.78L9.56,62.24c7.4,3.46,37.64,12.76,44.76,15.44l56.81-16.62c-12.69-4.11-24.99-9.24-36.15-16.28h0Z"/>
              </g>
            </g>
            <g>
              <g>
                <g>
                  <g>
                    <polygon class="cls-10" points="111.1 24.45 96.27 28.64 96.3 68.17 96.3 71.56 111.14 67.76 111.13 66.19 111.1 24.45"/>
                    <path class="cls-2" d="M110.42,25.35l.03,40.84v1.04s-13.47,3.45-13.47,3.45v-2.51s-.03-39.01-.03-39.01l13.47-3.81M111.1,24.45l-14.83,4.2.03,39.52v3.39s14.84-3.8,14.84-3.8v-1.57s-.04-41.75-.04-41.75h0Z"/>
                  </g>
                  <g>
                    <path class="cls-10" d="M96.3,72c-.1,0-.2-.03-.28-.09-.11-.08-.17-.21-.17-.35l-.04-42.91c0-.2.13-.38.33-.43l14.83-4.2c.13-.04.28-.01.39.07.11.08.18.22.18.36l.03,43.31c0,.21-.14.38-.34.43l-14.83,3.79s-.07.01-.11.01ZM96.72,28.98l.03,42,13.94-3.57-.03-42.37-13.94,3.94Z"/>
                    <path class="cls-2" d="M111.1,24s-.08,0-.12.02l-14.83,4.2c-.19.05-.33.23-.33.43l.04,42.91c0,.14.06.27.17.35.08.06.18.09.28.09.04,0,.07,0,.11-.01l14.83-3.79c.2-.05.34-.23.34-.43l-.03-43.31c0-.14-.07-.27-.18-.36-.08-.06-.17-.09-.27-.09h0ZM96.75,70.98l-.03-42,13.94-3.94.03,42.37-13.94,3.57h0Z"/>
                  </g>
                </g>
                <g>
                  <g>
                    <polygon class="cls-10" points="125.98 20.24 111.1 24.45 111.13 66.19 111.14 67.76 126.01 63.96 126.01 63.1 125.98 20.24"/>
                    <path class="cls-2" d="M125.3,21.14l.03,41.96v.33s-13.51,3.46-13.51,3.46v-.69s-.03-41.23-.03-41.23l13.51-3.82M125.98,20.24l-14.88,4.21.03,41.75v1.57s14.88-3.8,14.88-3.8v-.86s-.03-42.86-.03-42.86h0Z"/>
                  </g>
                  <g>
                    <path class="cls-10" d="M111.14,68.21c-.1,0-.2-.03-.28-.09-.11-.09-.17-.22-.17-.36l-.03-43.31c0-.2.13-.38.32-.43l14.88-4.21c.13-.04.28-.01.39.07.11.08.18.22.18.36l.03,43.72c0,.21-.14.38-.34.43l-14.88,3.8s-.07.01-.11.01ZM111.55,24.79l.03,42.4,13.98-3.58-.03-42.78-13.98,3.96Z"/>
                    <path class="cls-2" d="M125.98,19.79s-.08,0-.12.02l-14.88,4.21c-.19.05-.33.23-.32.43l.03,43.31c0,.14.07.27.17.36.08.06.18.09.28.09.04,0,.07,0,.11-.01l14.88-3.8c.2-.05.34-.23.34-.43l-.03-43.72c0-.14-.07-.27-.18-.36-.08-.06-.17-.09-.27-.09h0ZM111.58,67.19l-.03-42.4,13.98-3.96.03,42.78-13.98,3.58h0Z"/>
                  </g>
                </g>
                <g>
                  <g>
                    <polygon class="cls-10" points="125.98 20.24 126.01 63.1 126.01 63.96 140.91 60.15 140.88 16.02 125.98 20.24"/>
                    <path class="cls-2" d="M140.2,16.92l.03,42.69-13.54,3.46-.03-42.32,13.54-3.83M140.88,16.02l-14.9,4.22.03,42.86v.86s14.9-3.81,14.9-3.81l-.04-44.13h0Z"/>
                  </g>
                  <g>
                    <path class="cls-10" d="M126.01,64.41c-.1,0-.19-.03-.27-.09-.11-.08-.17-.21-.17-.35l-.03-43.72c0-.2.13-.38.32-.43l14.9-4.22c.13-.04.28-.01.39.07.11.08.18.22.18.36l.04,44.13c0,.2-.14.38-.34.43l-14.9,3.81s-.07.01-.11.01ZM126.43,20.58l.03,42.8,14.01-3.58-.03-43.19-14.01,3.96Z"/>
                    <path class="cls-2" d="M140.88,15.57s-.08,0-.12.02l-14.9,4.22c-.19.05-.33.23-.32.43l.03,43.72c0,.14.07.27.17.35.08.06.18.09.27.09.04,0,.08,0,.11-.01l14.9-3.81c.2-.05.34-.23.34-.43l-.04-44.13c0-.14-.07-.27-.18-.36-.08-.06-.18-.09-.27-.09h0ZM126.46,63.38l-.03-42.8,14.01-3.96.03,43.19-14.01,3.58h0Z"/>
                  </g>
                </g>
                <g>
                  <g>
                    <polygon class="cls-10" points="96.27 28.64 81.17 32.91 81.2 71.06 81.21 75.42 96.3 71.56 96.3 68.17 96.27 28.64"/>
                    <path class="cls-2" d="M95.59,29.55l.03,38.62v2.86s-13.73,3.51-13.73,3.51v-3.48s-.03-37.63-.03-37.63l13.73-3.89M96.27,28.64l-15.1,4.27.03,38.15v4.36s15.1-3.86,15.1-3.86v-3.39s-.04-39.52-.04-39.52h0Z"/>
                  </g>
                  <g>
                    <path class="cls-10" d="M81.21,75.86c-.1,0-.2-.03-.28-.09-.11-.08-.17-.21-.17-.35l-.04-42.5c0-.2.13-.37.33-.43l15.1-4.27c.13-.04.28-.01.39.07.11.08.18.22.18.36l.04,42.91c0,.2-.14.38-.34.43l-15.1,3.86s-.07.01-.11.01ZM81.62,33.25l.03,41.59,14.2-3.63-.03-41.97-14.2,4.02Z"/>
                    <path class="cls-2" d="M96.27,28.2s-.08,0-.13.02l-15.1,4.27c-.19.06-.33.23-.33.43l.04,42.5c0,.14.06.27.17.35.08.06.18.09.28.09.04,0,.07,0,.11-.01l15.1-3.86c.2-.05.34-.23.34-.43l-.04-42.91c0-.14-.07-.27-.18-.36-.08-.06-.17-.09-.27-.09h0ZM81.65,74.84l-.03-41.59,14.2-4.02.03,41.97-14.2,3.63h0Z"/>
                  </g>
                </g>
                <g>
                  <g>
                    <polygon class="cls-10" points="140.88 16.02 140.91 60.15 155.83 56.33 155.8 11.8 140.88 16.02"/>
                    <path class="cls-2" d="M155.11,12.7l.03,43.1-13.55,3.46-.03-42.73,13.55-3.83M155.8,11.8l-14.92,4.22.04,44.13,14.92-3.81-.04-44.53h0Z"/>
                  </g>
                  <g>
                    <path class="cls-10" d="M140.92,60.59c-.1,0-.2-.03-.27-.1-.11-.08-.17-.22-.17-.35l-.03-44.12c0-.2.13-.38.33-.43l14.91-4.22c.13-.04.28-.01.39.07.11.08.18.22.18.36l.04,44.53c0,.2-.14.38-.34.43l-14.91,3.82s-.07.02-.11.02ZM141.33,16.36l.04,43.21,14.02-3.59-.04-43.59-14.02,3.97Z"/>
                    <path class="cls-2" d="M155.79,11.35s-.08,0-.12.02l-14.91,4.22c-.19.05-.33.23-.33.43l.03,44.12c0,.14.07.27.17.35.08.06.18.1.27.1.04,0,.07,0,.11-.02l14.91-3.82c.2-.05.34-.23.34-.43l-.04-44.53c0-.14-.07-.27-.18-.36-.08-.06-.17-.09-.27-.09h0ZM141.36,59.57l-.04-43.21,14.02-3.97.04,43.59-14.02,3.59h0Z"/>
                  </g>
                </g>
                <g>
                  <g>
                    <polygon class="cls-10" points="81.17 32.91 66.13 37.17 66.16 72.47 66.17 79.26 81.21 75.42 81.2 71.06 81.17 32.91"/>
                    <path class="cls-2" d="M80.49,33.82l.03,37.25v3.83s-13.67,3.49-13.67,3.49v-5.92s-.03-34.78-.03-34.78l13.67-3.87M81.17,32.91l-15.04,4.26.03,35.3v6.79s15.04-3.84,15.04-3.84v-4.36s-.04-38.15-.04-38.15h0Z"/>
                  </g>
                  <g>
                    <path class="cls-10" d="M66.17,79.71c-.1,0-.2-.03-.28-.1-.11-.08-.17-.21-.17-.35l-.04-42.09c0-.2.13-.38.33-.43l15.03-4.26c.13-.04.28,0,.39.08.11.08.18.22.18.36l.04,42.5c0,.2-.14.38-.34.43l-15.04,3.85s-.08.01-.11.01ZM66.58,37.51l.03,41.18,14.14-3.62-.03-41.56-14.14,4Z"/>
                    <path class="cls-2" d="M81.17,32.47s-.08,0-.12.02l-15.03,4.26c-.2.05-.33.23-.33.43l.04,42.09c0,.14.06.27.17.35.08.06.18.1.28.1.04,0,.07,0,.11-.01l15.04-3.85c.2-.05.34-.23.34-.43l-.04-42.5c0-.14-.06-.27-.18-.36-.08-.06-.18-.09-.27-.09h0ZM66.62,78.69l-.03-41.18,14.14-4,.03,41.56-14.14,3.62h0Z"/>
                  </g>
                </g>
                <g>
                  <g>
                    <polygon class="cls-10" points="66.13 37.17 12.13 52.45 12.13 59.24 66.17 79.26 66.16 72.47 66.13 37.17"/>
                    <path class="cls-2" d="M65.45,38.07l.03,34.4v5.81S12.81,58.77,12.81,58.77v-5.8s52.64-14.89,52.64-14.89M66.13,37.17l-54.01,15.28v6.79s54.04,20.02,54.04,20.02v-6.79s-.04-35.3-.04-35.3h0Z"/>
                  </g>
                  <g>
                    <path class="cls-10" d="M66.17,79.71c-.05,0-.1,0-.16-.03L11.98,59.66c-.17-.07-.29-.23-.29-.42v-6.79c0-.2.13-.38.32-.43l54.01-15.28c.13-.04.28-.01.39.07.11.09.18.22.18.36l.04,42.09c0,.15-.07.28-.19.37-.08.05-.17.08-.26.08ZM12.58,58.93l53.14,19.69-.03-40.86-53.11,15.03v6.14Z"/>
                    <path class="cls-2" d="M66.14,36.72s-.08,0-.12.02l-54.01,15.28c-.19.05-.33.23-.33.43v6.79c0,.19.12.35.3.42l54.04,20.02c.05.02.1.03.16.03.09,0,.18-.03.26-.08.12-.08.19-.22.19-.37l-.04-42.09c0-.14-.06-.27-.18-.36-.08-.06-.17-.09-.27-.09h0ZM65.72,78.62L12.58,58.93v-6.14s53.11-15.03,53.11-15.03l.03,40.86h0Z"/>
                  </g>
                </g>
                <g>
                  <g>
                    <polygon class="cls-10" points="230.75 17.23 230.77 37.16 245.81 33.32 245.8 19.79 230.75 17.23"/>
                    <path class="cls-2" d="M231.44,18.04l13.68,2.32v12.42s-13.66,3.5-13.66,3.5l-.02-18.25M230.75,17.23l.02,19.93,15.04-3.85v-13.53s-15.06-2.56-15.06-2.56h0Z"/>
                  </g>
                  <g>
                    <path class="cls-10" d="M230.77,37.61c-.1,0-.2-.03-.27-.09-.11-.09-.17-.22-.17-.35l-.02-19.93c0-.13.06-.26.16-.34.1-.09.23-.12.36-.1l15.04,2.55c.22.04.37.22.37.44v13.53c.01.21-.13.38-.33.43l-15.04,3.85s-.07.02-.11.02ZM231.2,17.76l.02,18.83,14.14-3.62v-12.81s-14.16-2.4-14.16-2.4Z"/>
                    <path class="cls-2" d="M230.75,16.78c-.11,0-.21.04-.29.11-.1.09-.16.21-.16.34l.02,19.93c0,.14.06.27.17.35.08.06.18.09.27.09.04,0,.08,0,.11-.02l15.04-3.85c.2-.05.34-.23.34-.43v-13.53c-.01-.22-.17-.41-.39-.44l-15.04-2.55s-.05,0-.08,0h0ZM231.22,36.59l-.02-18.83,14.15,2.4v12.81s-14.13,3.62-14.13,3.62h0Z"/>
                  </g>
                </g>
                <g>
                  <g>
                    <polygon class="cls-10" points="215.73 14.68 215.75 41.01 230.77 37.16 230.75 17.23 215.73 14.68"/>
                    <path class="cls-2" d="M216.41,15.49l13.66,2.32.02,18.83-13.66,3.49-.02-24.64M215.73,14.68l.02,26.33,15.02-3.84-.02-19.93-15.02-2.55h0Z"/>
                  </g>
                  <g>
                    <path class="cls-10" d="M215.75,41.45c-.1,0-.2-.03-.28-.1-.11-.08-.17-.21-.17-.35l-.02-26.33c0-.13.06-.26.16-.34.1-.08.23-.12.36-.1l15.03,2.55c.21.04.37.22.37.44l.02,19.93c0,.2-.14.38-.34.43l-15.02,3.84s-.07.01-.11.01ZM216.18,15.21l.02,25.22,14.13-3.61-.02-19.21-14.13-2.4Z"/>
                    <path class="cls-2" d="M215.73,14.23c-.11,0-.21.04-.29.1-.1.09-.16.21-.16.34l.02,26.33c0,.14.07.27.17.35.08.06.18.1.28.1.04,0,.07,0,.11-.01l15.02-3.84c.2-.05.34-.23.34-.43l-.02-19.93c0-.22-.16-.4-.37-.44l-15.03-2.55s-.05,0-.07,0h0ZM216.2,40.43l-.02-25.22,14.13,2.4.02,19.21-14.13,3.61h0Z"/>
                  </g>
                </g>
                <g>
                  <g>
                    <polygon class="cls-10" points="155.8 11.8 155.83 56.33 170.79 52.51 170.76 7.57 155.8 11.8"/>
                    <path class="cls-2" d="M170.07,8.47l.03,43.5-13.59,3.48-.03-43.14,13.6-3.84M170.76,7.57l-14.96,4.23.04,44.53,14.96-3.83-.04-44.93h0Z"/>
                  </g>
                  <g>
                    <path class="cls-10" d="M155.83,56.78c-.1,0-.2-.03-.28-.1-.11-.08-.17-.21-.17-.35l-.04-44.53c0-.2.13-.37.33-.43l14.96-4.23c.13-.04.28-.01.39.07.11.08.18.22.18.36l.04,44.93c0,.2-.14.38-.34.43l-14.96,3.83s-.07.01-.11.02ZM156.24,12.14l.03,43.62,14.07-3.6-.04-43.99-14.07,3.98Z"/>
                    <path class="cls-2" d="M170.76,7.12s-.08,0-.12.02l-14.96,4.23c-.19.06-.33.23-.33.43l.04,44.53c0,.14.06.27.17.35.08.06.18.1.28.1.04,0,.07,0,.11-.02l14.96-3.83c.2-.05.34-.23.34-.43l-.04-44.93c0-.14-.07-.27-.18-.36-.08-.06-.17-.09-.27-.09h0ZM156.28,55.76l-.03-43.62,14.07-3.98.04,43.99-14.07,3.6h0Z"/>
                  </g>
                </g>
                <g>
                  <g>
                    <polygon class="cls-10" points="200.72 12.13 200.75 44.84 215.75 41.01 215.73 14.68 200.72 12.13"/>
                    <path class="cls-2" d="M201.4,12.94l13.64,2.32.02,25.22-13.64,3.49-.03-31.02M200.72,12.13l.03,32.71,15-3.84-.02-26.33-15.01-2.55h0Z"/>
                  </g>
                  <g>
                    <path class="cls-10" d="M200.75,45.29c-.1,0-.2-.03-.27-.09-.11-.08-.17-.21-.17-.35l-.03-32.71c0-.13.06-.26.16-.34.1-.08.23-.12.36-.1l15.01,2.55c.22.04.37.22.37.44l.02,26.33c0,.2-.14.38-.34.43l-15,3.84s-.07.01-.11.01ZM201.17,12.66l.03,31.6,14.11-3.61-.02-25.6-14.11-2.4Z"/>
                    <path class="cls-2" d="M200.72,11.68c-.11,0-.21.04-.29.11-.1.08-.16.21-.16.34l.03,32.71c0,.14.06.27.17.35.08.06.18.09.27.09.04,0,.07,0,.11-.01l15-3.84c.2-.05.34-.23.34-.43l-.02-26.33c0-.22-.16-.41-.37-.44l-15.01-2.55s-.05,0-.07,0h0ZM201.19,44.27l-.03-31.6,14.11,2.4.02,25.6-14.11,3.61h0Z"/>
                  </g>
                </g>
                <g>
                  <g>
                    <polygon class="cls-10" points="261.64 22.47 245.8 19.79 245.81 33.32 261.65 29.27 261.64 22.47"/>
                    <path class="cls-2" d="M246.48,20.59l14.48,2.46v5.69s-14.46,3.7-14.46,3.7v-11.84M245.8,19.79v13.53s15.85-4.05,15.85-4.05v-6.79s-15.85-2.69-15.85-2.69h0Z"/>
                  </g>
                  <g>
                    <path class="cls-10" d="M245.81,33.76c-.1,0-.2-.03-.28-.09-.11-.08-.17-.21-.17-.35v-13.53c-.01-.13.05-.26.15-.34.1-.08.23-.12.36-.1l15.84,2.69c.21.04.37.22.37.44v6.79c0,.2-.13.38-.33.43l-15.84,4.05s-.07.01-.11.01ZM246.25,20.31v12.43s14.95-3.82,14.95-3.82v-6.07s-14.95-2.54-14.95-2.54Z"/>
                    <path class="cls-2" d="M245.81,19.34c-.11,0-.21.03-.3.1-.1.09-.16.21-.16.34v13.53c.01.14.07.27.18.35.08.06.17.09.27.09,0,0,0,0,0,0,.04,0,.07,0,.11-.01l15.84-4.05c.2-.05.34-.23.34-.43v-6.79c0-.22-.16-.41-.38-.44l-15.84-2.69s-.04,0-.07,0h0ZM246.26,32.74v-12.43s14.94,2.54,14.94,2.54v6.07s-14.94,3.82-14.94,3.82h0Z"/>
                  </g>
                </g>
                <g>
                  <g>
                    <polygon class="cls-10" points="171.92 7.24 170.76 7.57 170.79 52.51 185.77 48.67 185.74 9.59 171.92 7.24"/>
                    <path class="cls-2" d="M171.96,7.94l13.1,2.22.03,37.98-13.62,3.48-.03-43.54.52-.15M171.92,7.24l-1.16.33.04,44.93,14.98-3.83-.03-39.09-13.82-2.35h0Z"/>
                  </g>
                  <g>
                    <path class="cls-10" d="M170.79,52.95c-.1,0-.2-.03-.27-.1-.11-.08-.17-.21-.17-.35l-.04-44.93c0-.2.13-.38.33-.43l1.16-.33c.06-.02.13-.02.2,0l13.83,2.35c.21.04.37.22.37.44l.03,39.09c0,.2-.14.38-.33.43l-14.98,3.83s-.07.01-.11.01ZM171.2,7.91l.04,44.02,14.08-3.6-.03-38.36-13.35-2.27-.74.21Z"/>
                    <path class="cls-2" d="M171.91,6.79s-.08,0-.12.02l-1.16.33c-.19.05-.33.23-.33.43l.04,44.93c0,.14.07.27.17.35.08.06.18.1.27.1.04,0,.08,0,.11-.01l14.98-3.83c.2-.05.33-.23.33-.43l-.03-39.09c0-.22-.16-.4-.37-.44l-13.83-2.35s-.05,0-.08,0h0ZM171.24,51.93l-.04-44.02.74-.21,13.35,2.27.03,38.36-14.08,3.6h0Z"/>
                  </g>
                </g>
                <g>
                  <g>
                    <polygon class="cls-10" points="185.74 9.59 185.77 48.67 200.75 44.84 200.72 12.13 185.74 9.59"/>
                    <path class="cls-2" d="M186.42,10.4l13.61,2.31.03,31.6-13.61,3.48-.03-37.4M185.74,9.59l.03,39.09,14.97-3.83-.03-32.71-14.98-2.54h0Z"/>
                  </g>
                  <g>
                    <path class="cls-10" d="M185.77,49.12c-.1,0-.19-.03-.27-.09-.11-.09-.17-.22-.17-.35l-.03-39.09c0-.13.06-.26.16-.34.1-.09.23-.12.37-.1l14.98,2.54c.21.04.37.22.37.44l.03,32.71c0,.21-.14.38-.34.43l-14.97,3.83s-.07.01-.11.01ZM186.19,10.12l.03,37.98,14.08-3.6-.03-31.99-14.08-2.39Z"/>
                    <path class="cls-2" d="M185.74,9.14c-.11,0-.21.03-.29.1-.1.08-.16.21-.16.34l.03,39.09c0,.14.07.27.17.35.08.06.18.09.27.09.04,0,.07,0,.11-.01l14.97-3.83c.2-.05.34-.23.34-.43l-.03-32.71c0-.22-.16-.4-.37-.44l-14.98-2.54s-.05,0-.07,0h0ZM186.22,48.1l-.03-37.98,14.08,2.39.03,31.99-14.08,3.6h0Z"/>
                  </g>
                </g>
              </g>
              <g>
                <g>
                  <g>
                    <polygon class="cls-10" points="49.07 40.43 111.11 60.97 126 57.17 61.52 36.38 49.07 40.43"/>
                    <path class="cls-2" d="M61.52,37.09l62.02,20-12.4,3.17-59.88-19.83,10.26-3.34M61.52,36.38l-12.44,4.05,62.04,20.55,14.89-3.81-64.48-20.79h0Z"/>
                  </g>
                  <g>
                    <path class="cls-10" d="M111.11,61.42s-.09,0-.14-.02l-62.04-20.54c-.18-.06-.31-.23-.31-.43,0-.19.13-.37.31-.43l12.44-4.05c.09-.03.19-.03.28,0l64.49,20.79c.19.06.32.24.31.44,0,.2-.14.37-.33.42l-14.89,3.81s-.07.02-.11.02ZM50.51,40.43l60.62,20.08,13.26-3.39-62.87-20.27-11.01,3.59Z"/>
                    <path class="cls-2" d="M125.07,57.11l.08.03-.08.02s0-.01,0-.02c0,0,0-.02,0-.03M61.52,35.93s-.1,0-.14.02l-12.44,4.05c-.18.06-.31.23-.31.43,0,.19.12.37.31.43l62.04,20.54s.09.02.14.02c.04,0,.07,0,.11-.02l14.89-3.81c.19-.05.33-.22.33-.42,0-.2-.12-.38-.31-.44l-64.49-20.79s-.09-.02-.13-.02h0ZM111.13,60.51l-60.62-20.08,11.01-3.59,62.87,20.27-13.26,3.39h0Z"/>
                  </g>
                </g>
                <g>
                  <g>
                    <polygon class="cls-10" points="36.62 44.48 96.25 64.77 111.11 60.97 49.07 40.43 36.62 44.48"/>
                    <path class="cls-2" d="M49.07,41.15l59.62,19.74-12.41,3.17-57.49-19.57,10.28-3.34M49.07,40.43l-12.45,4.05,59.63,20.3,14.86-3.8-62.04-20.55h0Z"/>
                  </g>
                  <g>
                    <path class="cls-10" d="M96.25,65.22s-.1,0-.14-.02l-59.62-20.3c-.18-.06-.31-.23-.3-.43,0-.19.13-.36.31-.42l12.45-4.05c.09-.03.19-.03.28,0l62.04,20.54c.19.06.31.24.31.44,0,.2-.14.37-.34.42l-14.86,3.8s-.07.01-.11.01ZM38.04,44.49l58.23,19.82,13.26-3.39-60.45-20.02-11.03,3.59Z"/>
                    <path class="cls-2" d="M110.21,60.92l.07.02-.07.02s0-.01,0-.02c0,0,0-.01,0-.02M49.07,39.98s-.09,0-.14.02l-12.45,4.05c-.18.06-.31.23-.31.42,0,.19.12.37.3.43l59.62,20.3s.09.02.14.02c.04,0,.07,0,.11-.01l14.86-3.8c.19-.05.33-.22.34-.42,0-.2-.12-.38-.31-.44l-62.04-20.54s-.09-.02-.14-.02h0ZM96.27,64.31l-58.23-19.82,11.03-3.59,60.45,20.02-13.26,3.39h0Z"/>
                  </g>
                </g>
                <g>
                  <g>
                    <polygon class="cls-10" points="61.52 36.38 126 57.17 140.91 53.35 73.97 32.32 61.52 36.38"/>
                    <path class="cls-2" d="M73.97,33.04l64.45,20.24-12.4,3.17-62.29-20.08,10.24-3.33M73.97,32.32l-12.45,4.05,64.48,20.79,14.91-3.81-66.94-21.03h0Z"/>
                  </g>
                  <g>
                    <path class="cls-10" d="M126,57.61s-.09,0-.14-.02l-64.48-20.79c-.18-.06-.31-.23-.31-.43s.13-.37.31-.43l12.45-4.05c.09-.03.19-.03.27,0l66.94,21.03c.19.06.32.24.31.44,0,.2-.14.37-.34.42l-14.91,3.81s-.08.02-.11.02ZM62.97,36.38l63.05,20.32,13.26-3.39-65.31-20.51-11,3.58Z"/>
                    <path class="cls-2" d="M62.29,36.37h0s0,0,0,0h0M139.96,53.3l.09.03-.09.02s0-.02,0-.03c0,0,0-.02,0-.02M73.96,31.88s-.09,0-.14.02l-12.45,4.05c-.18.06-.31.23-.31.43s.13.37.31.43l64.48,20.79s.09.02.14.02c.04,0,.07,0,.11-.02l14.91-3.81c.19-.05.33-.22.34-.42,0-.2-.12-.38-.31-.44l-66.94-21.03s-.09-.02-.14-.02h0ZM126.01,56.7l-63.05-20.32,11-3.58,65.31,20.51-13.26,3.39h0Z"/>
                  </g>
                </g>
                <g>
                  <g>
                    <polygon class="cls-10" points="73.97 32.32 140.91 53.35 155.84 49.53 86.41 28.27 73.97 32.32"/>
                    <path class="cls-2" d="M86.42,28.99l66.89,20.49-12.38,3.17-64.72-20.33,10.21-3.32M86.41,28.27l-12.45,4.05,66.94,21.03,14.93-3.82-69.42-21.26h0Z"/>
                  </g>
                  <g>
                    <path class="cls-10" d="M140.91,53.8s-.09,0-.13-.02l-66.95-21.03c-.19-.06-.31-.23-.31-.43,0-.2.12-.37.31-.43l12.45-4.05c.09-.03.18-.03.27,0l69.42,21.26c.19.06.32.24.32.44,0,.2-.14.37-.34.42l-14.93,3.82s-.07.01-.11.01ZM75.43,32.32l65.49,20.57,13.26-3.39-67.77-20.75-10.98,3.57Z"/>
                    <path class="cls-2" d="M74.75,32.32h0s0,0,0,.01h-.02s.02-.01.02-.01M154.87,49.48l.1.03-.1.03s0-.02,0-.03c0,0,0-.02,0-.03M86.41,27.83s-.09,0-.14.02l-12.45,4.05c-.18.06-.31.23-.31.43,0,.19.13.37.31.43l66.95,21.03s.09.02.13.02c.04,0,.07,0,.11-.01l14.93-3.82c.19-.05.33-.22.34-.42,0-.2-.12-.38-.32-.44l-69.42-21.26s-.09-.02-.13-.02h0ZM140.92,52.89l-65.49-20.57,10.98-3.57,67.77,20.75-13.26,3.39h0Z"/>
                  </g>
                </g>
                <g>
                  <g>
                    <polygon class="cls-10" points="12.13 52.45 66.16 72.47 81.41 68.57 24.18 48.53 12.13 52.45"/>
                    <path class="cls-2" d="M24.17,49.25l54.88,19.22-12.85,3.29L14.2,52.49l9.97-3.24M24.18,48.53l-12.06,3.92,54.04,20.02,15.24-3.9-57.23-20.04h0Z"/>
                  </g>
                  <g>
                    <path class="cls-10" d="M66.16,72.92c-.05,0-.11,0-.16-.03L11.97,52.87c-.18-.07-.3-.24-.29-.43,0-.19.13-.36.31-.42l12.06-3.92c.09-.03.19-.03.29,0l57.23,20.04c.19.06.31.24.3.44,0,.2-.15.37-.34.42l-15.24,3.9s-.07.01-.11.01ZM13.49,52.48l52.7,19.52,13.68-3.5-55.69-19.5-10.69,3.48Z"/>
                    <path class="cls-2" d="M80.55,68.52l.05.02h-.05s0,0,0,0c0,0,0,0,0-.01M24.18,48.08s-.09,0-.14.02l-12.06,3.92c-.18.06-.31.22-.31.42,0,.19.11.36.29.43l54.04,20.02c.05.02.1.03.16.03.04,0,.08,0,.11-.01l15.24-3.9c.19-.05.33-.22.34-.42,0-.2-.11-.38-.3-.44l-57.23-20.04s-.1-.02-.15-.02h0ZM66.19,72L13.49,52.48l10.69-3.48,55.69,19.5-13.68,3.5h0Z"/>
                  </g>
                </g>
                <g>
                  <g>
                    <polygon class="cls-10" points="24.18 48.53 81.41 68.57 96.25 64.77 36.62 44.48 24.18 48.53"/>
                    <path class="cls-2" d="M36.62,45.2l57.24,19.49-12.42,3.18-55.12-19.31,10.31-3.36M36.62,44.48l-12.44,4.05,57.23,20.04,14.84-3.8-59.63-20.3h0Z"/>
                  </g>
                  <g>
                    <path class="cls-10" d="M81.41,69.02s-.1,0-.15-.03l-57.23-20.04c-.18-.06-.3-.23-.3-.43,0-.19.13-.36.31-.42l12.44-4.05c.09-.03.19-.03.28,0l59.62,20.3c.19.06.31.24.3.44,0,.2-.15.37-.34.42l-14.84,3.8s-.07.01-.11.01ZM25.58,48.54l55.85,19.56,13.25-3.39-58.06-19.77-11.04,3.6Z"/>
                    <path class="cls-2" d="M95.36,64.72l.06.02-.06.02s0-.01,0-.02c0,0,0-.01,0-.02M36.62,44.03s-.09,0-.14.02l-12.44,4.05c-.18.06-.31.23-.31.42,0,.19.12.36.3.43l57.23,20.04s.1.03.15.03c.04,0,.07,0,.11-.01l14.84-3.8c.19-.05.33-.22.34-.42,0-.2-.12-.38-.3-.44l-59.62-20.3s-.1-.02-.15-.02h0ZM81.43,68.1l-55.85-19.56,11.04-3.6,58.06,19.77-13.25,3.39h0Z"/>
                  </g>
                </g>
                <g>
                  <g>
                    <polygon class="cls-10" points="261.64 22.47 171.91 .45 161.14 3.95 245.8 26.52 261.64 22.47"/>
                    <path class="cls-2" d="M171.94,1.16l86.9,21.33-13.03,3.33L163.54,3.89l8.39-2.73M171.91.45l-10.77,3.5,84.67,22.57,15.84-4.05L171.91.45h0Z"/>
                  </g>
                  <g>
                    <path class="cls-10" d="M245.8,26.97s-.08,0-.11-.02L161.02,4.38c-.19-.05-.33-.22-.33-.42,0-.2.12-.37.31-.44L171.77.02c.08-.03.17-.03.24-.01l89.73,22.03c.2.05.34.23.34.43,0,.2-.14.38-.34.43l-15.83,4.05s-.08.01-.11.01ZM162.71,3.91l83.09,22.15,13.99-3.58L171.93.91l-9.21,3Z"/>
                    <path class="cls-2" d="M162.03,3.91s0,.01,0,.02c0,0,0,.01,0,.02l-.07-.02.07-.02M260.48,22.43l.19.05-.19.05s0-.03,0-.05c0-.02,0-.03,0-.05M171.91,0s-.1,0-.14.02l-10.77,3.5c-.19.06-.31.24-.31.44,0,.2.14.37.33.42l84.67,22.57s.08.02.11.02.07,0,.11-.01l15.83-4.05c.2-.05.34-.23.34-.43,0-.21-.14-.38-.34-.43L172.02.01s-.07-.01-.1-.01h0ZM245.81,26.06L162.71,3.91l9.21-3,87.87,21.57-13.99,3.58h0Z"/>
                  </g>
                </g>
                <g>
                  <g>
                    <polygon class="cls-10" points="245.8 26.52 161.14 3.95 148.68 8.01 230.77 30.37 245.8 26.52"/>
                    <path class="cls-2" d="M161.16,4.66l81.95,21.85-12.33,3.15L151.07,7.95l10.09-3.29M161.14,3.95l-12.46,4.06,82.09,22.36,15.04-3.84L161.14,3.95h0Z"/>
                  </g>
                  <g>
                    <path class="cls-10" d="M230.77,30.82s-.08,0-.12-.02l-82.08-22.36c-.19-.05-.33-.22-.33-.42,0-.2.12-.38.31-.44l12.46-4.06c.08-.02.17-.03.25,0l84.67,22.57c.2.05.33.23.33.43,0,.2-.14.38-.33.43l-15.04,3.85s-.07.01-.11.01ZM150.24,7.97l80.52,21.94,13.26-3.39L161.15,4.42l-10.91,3.55Z"/>
                    <path class="cls-2" d="M149.56,7.97s0,.01,0,.02c0,0,0,.01,0,.02l-.06-.02.06-.02M244.71,26.48l.16.04-.16.04s0-.03,0-.04c0-.01,0-.03,0-.04M161.14,3.51s-.09,0-.14.02l-12.46,4.06c-.19.06-.31.24-.31.44,0,.2.14.37.33.42l82.08,22.36s.08.02.12.02c.04,0,.07,0,.11-.01l15.04-3.85c.19-.05.33-.23.33-.43,0-.2-.13-.38-.33-.43L161.25,3.52s-.08-.01-.11-.01h0ZM230.77,29.91L150.24,7.97l10.91-3.55,82.88,22.09-13.26,3.39h0Z"/>
                  </g>
                </g>
                <g>
                  <g>
                    <polygon class="cls-10" points="123.77 16.11 200.74 38.05 215.74 34.21 136.23 12.06 123.77 16.11"/>
                    <path class="cls-2" d="M136.24,12.77l76.86,21.41-12.35,3.16-74.64-21.27,10.13-3.3M136.23,12.06l-12.45,4.05,76.97,21.93,15-3.84-79.52-22.15h0Z"/>
                  </g>
                  <g>
                    <path class="cls-10" d="M200.74,38.5s-.08,0-.12-.02l-76.97-21.94c-.19-.05-.32-.22-.32-.42,0-.2.12-.37.31-.43l12.45-4.05c.09-.03.18-.03.26,0l79.52,22.15c.19.06.33.23.33.44,0,.2-.14.38-.34.43l-15,3.84s-.07.01-.11.01ZM125.3,16.09l75.44,21.5,13.26-3.39-77.77-21.66-10.93,3.56Z"/>
                    <path class="cls-2" d="M124.62,16.08s0,0,0,.01c0,0,0,0,0,.01h-.04s.04-.03.04-.03M214.69,34.16l.14.04-.14.04s0-.02,0-.04c0-.01,0-.03,0-.04M136.23,11.61s-.1,0-.14.02l-12.45,4.05c-.19.06-.31.24-.31.43,0,.2.14.37.32.42l76.97,21.94s.08.02.12.02c.04,0,.08,0,.11-.01l15-3.84c.2-.05.33-.22.34-.43,0-.2-.13-.38-.33-.44l-79.52-22.15s-.08-.02-.12-.02h0ZM200.75,37.58l-75.44-21.5,10.93-3.56,77.77,21.66-13.26,3.39h0Z"/>
                  </g>
                </g>
                <g>
                  <g>
                    <polygon class="cls-10" points="148.68 8.01 136.23 12.06 215.74 34.21 230.77 30.37 148.68 8.01"/>
                    <path class="cls-2" d="M148.7,8.72l79.39,21.63-12.34,3.16-77.16-21.5,10.11-3.29M148.68,8.01l-12.46,4.05,79.52,22.15,15.02-3.84-82.09-22.36h0Z"/>
                  </g>
                  <g>
                    <path class="cls-10" d="M215.74,34.66s-.08,0-.12-.02l-79.52-22.15c-.19-.05-.32-.23-.33-.42,0-.2.12-.38.31-.44l12.46-4.05c.09-.03.17-.03.26,0l82.08,22.36c.2.05.33.23.33.44,0,.2-.14.38-.34.43l-15.02,3.84s-.07.01-.11.01ZM137.77,12.03l77.98,21.72,13.26-3.39-80.32-21.88-10.92,3.55Z"/>
                    <path class="cls-2" d="M137.09,12.03s0,.01,0,.02c0,0,0,.01,0,.02l-.06-.02.06-.02M229.7,30.32l.15.04-.15.04s0-.03,0-.04c0-.01,0-.03,0-.04M148.69,7.56s-.1,0-.14.02l-12.46,4.05c-.19.06-.31.24-.31.44,0,.2.14.37.33.42l79.52,22.15s.08.02.12.02c.04,0,.07,0,.11-.01l15.02-3.84c.2-.05.34-.23.34-.43,0-.2-.13-.38-.33-.44L148.8,7.58s-.08-.02-.11-.02h0ZM215.75,33.75l-77.98-21.72,10.92-3.55,80.32,21.88-13.26,3.39h0Z"/>
                  </g>
                </g>
                <g>
                  <g>
                    <polygon class="cls-10" points="111.32 20.17 185.75 41.88 200.74 38.05 123.77 16.11 111.32 20.17"/>
                    <path class="cls-2" d="M123.78,16.83l74.34,21.18-12.36,3.16-72.13-21.04,10.15-3.3M123.77,16.11l-12.45,4.05,74.44,21.71,14.99-3.83-76.97-21.93h0Z"/>
                  </g>
                  <g>
                    <path class="cls-10" d="M185.75,42.33s-.08,0-.13-.02l-74.44-21.71c-.19-.06-.32-.23-.32-.42,0-.2.12-.37.31-.43l12.45-4.05c.08-.03.18-.03.26,0l76.97,21.94c.19.05.33.23.33.43,0,.2-.14.38-.34.43l-14.99,3.83s-.07.01-.11.01ZM112.83,20.15l72.93,21.27,13.27-3.39-75.25-21.44-10.95,3.56Z"/>
                    <path class="cls-2" d="M112.15,20.14s0,0,0,.01c0,0,0,0,0,.01h-.04s.04-.02.04-.02M199.71,38l.13.04-.13.03s0-.02,0-.04c0-.01,0-.02,0-.03M123.77,15.67s-.1,0-.14.02l-12.45,4.05c-.19.06-.31.23-.31.43,0,.2.13.37.32.42l74.44,21.71s.08.02.13.02c.04,0,.07,0,.11-.01l14.99-3.83c.2-.05.33-.22.34-.43,0-.2-.13-.38-.33-.43L123.89,15.68s-.08-.02-.12-.02h0ZM185.76,41.42l-72.93-21.27,10.95-3.56,75.25,21.44-13.27,3.39h0Z"/>
                  </g>
                </g>
                <g>
                  <g>
                    <polygon class="cls-10" points="86.41 28.27 155.84 49.53 170.79 45.71 98.86 24.22 86.41 28.27"/>
                    <path class="cls-2" d="M98.87,24.94l69.36,20.72-12.38,3.17-67.17-20.57,10.19-3.32M98.86,24.22l-12.45,4.05,69.42,21.26,14.95-3.82-71.92-21.49h0Z"/>
                  </g>
                  <g>
                    <path class="cls-10" d="M155.84,49.98s-.09,0-.13-.02l-69.42-21.26c-.19-.06-.31-.23-.32-.42,0-.19.12-.37.31-.43l12.45-4.05c.09-.03.18-.03.27,0l71.92,21.49c.19.06.32.24.32.44,0,.2-.14.37-.34.42l-14.95,3.82s-.07.01-.11.02ZM87.9,28.26l67.95,20.81,13.26-3.39-70.24-20.99-10.97,3.57Z"/>
                    <path class="cls-2" d="M87.22,28.26s0,0,0,0c0,0,0,0,0,0h-.02s.02-.01.02-.01M169.79,45.66l.11.03-.11.03s0-.02,0-.03c0-.01,0-.02,0-.03M98.87,23.77s-.1,0-.14.02l-12.45,4.05c-.19.06-.31.23-.31.43,0,.19.13.37.32.42l69.42,21.26s.09.02.13.02c.04,0,.07,0,.11-.02l14.95-3.82c.2-.05.33-.22.34-.42,0-.2-.13-.38-.32-.44l-71.92-21.49s-.08-.02-.12-.02h0ZM155.85,49.07l-67.95-20.81,10.97-3.57,70.24,20.99-13.26,3.39h0Z"/>
                  </g>
                </g>
                <g>
                  <g>
                    <polygon class="cls-10" points="98.86 24.22 170.79 45.71 185.75 41.88 111.32 20.17 98.86 24.22"/>
                    <path class="cls-2" d="M111.33,20.88l71.84,20.96-12.37,3.16-69.64-20.81,10.17-3.31M111.32,20.17l-12.45,4.05,71.92,21.49,14.97-3.83-74.44-21.71h0Z"/>
                  </g>
                  <g>
                    <path class="cls-10" d="M170.79,46.16s-.09,0-.13-.02l-71.92-21.49c-.19-.06-.32-.23-.32-.42,0-.2.12-.37.31-.43l12.45-4.05c.09-.03.18-.03.26,0l74.44,21.72c.19.06.33.23.32.44,0,.2-.14.38-.34.43l-14.97,3.83s-.07.01-.11.01ZM100.37,24.2l70.43,21.05,13.26-3.39-72.73-21.22-10.96,3.56Z"/>
                    <path class="cls-2" d="M99.68,24.2s0,0,0,0c0,0,0,0,0,.01h-.03s.03-.02.03-.02M184.74,41.83l.12.03-.12.03s0-.02,0-.03c0-.01,0-.02,0-.03M111.32,19.72s-.1,0-.14.02l-12.45,4.05c-.19.06-.31.24-.31.43,0,.2.13.37.32.42l71.92,21.49s.08.02.13.02c.04,0,.07,0,.11-.01l14.97-3.83c.19-.05.33-.22.34-.43,0-.2-.13-.38-.32-.44l-74.44-21.72s-.08-.02-.12-.02h0ZM170.8,45.25l-70.43-21.05,10.96-3.56,72.73,21.22-13.26,3.39h0Z"/>
                  </g>
                </g>
              </g>
            </g>
            <path class="cls-5" d="M118.14,52.75s.08-.08.05-.08c-.03,0-.08.08-.05.08Z"/>
            <path class="cls-17" d="M78.06,61.38c0,.5-1.08.91-2.42.91-1.34,0-2.43-.4-2.43-.9s1.08-.91,2.42-.91c1.34,0,2.43.4,2.43.9Z"/>
            <path class="cls-17" d="M91.29,57.63c0,.5-1.08.91-2.42.91-1.34,0-2.43-.4-2.43-.9,0-.5,1.09-.91,2.42-.91,1.34,0,2.43.4,2.43.91Z"/>
            <path class="cls-17" d="M119.05,49.56c0,.5-1.08.91-2.42.91-1.34,0-2.43-.41-2.43-.9s1.08-.91,2.43-.91c1.34,0,2.42.4,2.42.91Z"/>
            <path class="cls-17" d="M133.1,45.62c0,.5-1.08.91-2.42.91-1.34,0-2.43-.4-2.43-.9,0-.5,1.09-.91,2.43-.91,1.34,0,2.42.4,2.42.91Z"/>
            <path class="cls-17" d="M104.57,53.94c0,.5-1.08.91-2.42.91s-2.43-.4-2.43-.9,1.08-.91,2.42-.91c1.34,0,2.43.4,2.43.9Z"/>
            <path class="cls-17" d="M146.83,41.38c0,.5-1.08.91-2.42.91s-2.43-.4-2.43-.9c0-.5,1.08-.91,2.43-.91,1.34,0,2.42.4,2.42.91Z"/>
            <path class="cls-17" d="M160.64,37.76c0,.5-1.09.91-2.42.91-1.34,0-2.43-.4-2.43-.9,0-.5,1.08-.91,2.42-.91,1.34,0,2.42.41,2.42.91Z"/>
            <path class="cls-17" d="M173.96,33.63c0,.5-1.09.91-2.43.91-1.34,0-2.42-.4-2.42-.9s1.08-.91,2.42-.91c1.34,0,2.43.4,2.43.91Z"/>
            <path class="cls-17" d="M201.01,25.58c0,.5-1.08.9-2.43.91-1.34,0-2.42-.41-2.42-.9,0-.5,1.08-.91,2.42-.91,1.34,0,2.43.4,2.43.9Z"/>
            <path class="cls-17" d="M187.67,29.68c0,.5-1.08.91-2.42.91-1.34,0-2.42-.41-2.42-.9,0-.5,1.08-.91,2.42-.91,1.34,0,2.43.4,2.43.9Z"/>
            <path class="cls-17" d="M214.34,21.56c0,.5-1.09.91-2.42.91s-2.43-.4-2.43-.9c0-.5,1.08-.91,2.42-.91,1.34,0,2.42.4,2.43.91Z"/>
            <path class="cls-17" d="M63.96,65.51c0,.5-1.08.91-2.42.91-1.34,0-2.43-.41-2.43-.9s1.09-.91,2.42-.91c1.34,0,2.42.4,2.42.9Z"/>
            <g>
              <path class="cls-17" d="M52.11,51.41c0,.5-1.08.9-2.42.91-1.34,0-2.43-.4-2.43-.9,0-.5,1.09-.91,2.43-.91,1.34,0,2.42.4,2.42.91Z"/>
              <path class="cls-17" d="M63.54,48.12c0,.5-1.08.91-2.42.91-1.34,0-2.43-.4-2.43-.9s1.09-.91,2.42-.91c1.34,0,2.43.4,2.43.9Z"/>
              <path class="cls-17" d="M76.81,44.45c0,.5-1.08.91-2.42.91-1.34,0-2.42-.41-2.42-.9,0-.5,1.08-.91,2.42-.91,1.34,0,2.43.4,2.43.9Z"/>
              <path class="cls-17" d="M89.95,40.61c0,.5-1.09.91-2.42.91-1.34,0-2.43-.4-2.43-.9,0-.5,1.08-.91,2.42-.91,1.34,0,2.42.41,2.43.91Z"/>
              <path class="cls-17" d="M103.17,36.34c0,.5-1.09.9-2.42.91-1.34,0-2.43-.41-2.43-.9,0-.5,1.08-.91,2.42-.91,1.34,0,2.42.4,2.43.91Z"/>
              <path class="cls-17" d="M116.18,32.86c0,.5-1.08.91-2.43.91-1.34,0-2.42-.41-2.42-.9,0-.5,1.09-.91,2.42-.91,1.34,0,2.43.4,2.43.91Z"/>
              <path class="cls-17" d="M129.44,29.02c0,.5-1.09.91-2.43.91-1.34,0-2.42-.41-2.42-.9,0-.5,1.08-.91,2.42-.91,1.34,0,2.43.4,2.43.9Z"/>
              <path class="cls-17" d="M143.44,24.64c0,.5-1.08.9-2.43.91-1.34,0-2.42-.41-2.42-.9s1.08-.91,2.42-.91c1.34,0,2.43.4,2.43.9Z"/>
              <path class="cls-17" d="M156.49,20.96c0,.5-1.08.91-2.42.91-1.34,0-2.43-.41-2.43-.91s1.08-.91,2.42-.91c1.34,0,2.42.4,2.42.91Z"/>
              <path class="cls-17" d="M170.01,17c0,.5-1.08.9-2.43.91-1.34,0-2.42-.4-2.42-.9,0-.5,1.08-.91,2.42-.91,1.34,0,2.43.4,2.43.91Z"/>
              <path class="cls-17" d="M196.15,9.17c0,.5-1.08.91-2.42.91-1.34,0-2.43-.4-2.43-.9s1.08-.91,2.42-.91c1.34,0,2.43.4,2.43.9Z"/>
              <path class="cls-17" d="M183.09,13.05c0,.5-1.09.91-2.42.91-1.34,0-2.43-.4-2.43-.9,0-.5,1.08-.91,2.42-.91,1.34,0,2.42.4,2.43.9Z"/>
              <path class="cls-17" d="M38.78,55.68c0,.5-1.08.91-2.42.91-1.34,0-2.43-.4-2.43-.9s1.09-.91,2.43-.91,2.42.4,2.42.9Z"/>
            </g>
            <polygon class="cls-3" points="58.47 37.37 121.52 58.31 126 57.17 61.52 36.38 58.47 37.37"/>
            <polygon class="cls-3" points="46.12 41.39 107.7 61.84 111.11 60.97 49.07 40.43 46.12 41.39"/>
            <polygon class="cls-3" points="71.95 32.98 136.95 54.36 140.91 53.35 73.97 32.32 71.95 32.98"/>
            <polygon class="cls-3" points="83.05 29.37 151.84 50.55 155.84 49.53 86.41 28.27 83.05 29.37"/>
            <polygon class="cls-3" points="21.01 49.56 77.32 69.62 81.41 68.57 24.18 48.53 21.01 49.56"/>
            <polygon class="cls-3" points="33.92 45.36 91.49 65.99 96.25 64.77 36.62 44.48 33.92 45.36"/>
            <polygon class="cls-3" points="261.64 22.47 171.91 .45 168.49 1.56 258.37 23.31 261.64 22.47"/>
            <polygon class="cls-3" points="245.8 26.52 161.14 3.95 158.37 4.85 241.21 27.7 245.8 26.52"/>
            <polygon class="cls-3" points="148.68 8.01 146.2 8.82 227.43 31.22 230.77 30.37 148.68 8.01"/>
            <polygon class="cls-3" points="120.99 17.02 195.85 39.3 200.74 38.05 123.77 16.11 120.99 17.02"/>
            <polygon class="cls-3" points="96.37 25.03 166.8 46.73 170.79 45.71 98.86 24.22 96.37 25.03"/>
            <polygon class="cls-3" points="108.7 21.02 180.67 43.18 185.75 41.88 111.32 20.17 108.7 21.02"/>
            <polygon class="cls-3" points="133.7 12.88 212.01 35.17 215.74 34.21 136.23 12.06 133.7 12.88"/>
          </g>
          <g>
            <g>
              <g>
                <path class="cls-1" d="M98.35,42.69c-29.97,3.01-31.88,1.32-32.12-.98-.23-2.3,1.31-4.34,31.28-7.35,29.97-3.01,77.02-5.85,77.25-3.55.23,2.3-46.44,8.87-76.41,11.88Z"/>
                <path class="cls-4" d="M94.49,38.46c-18.01,1.81-19.1,1.35-19.17.66s.91-1.36,18.92-3.16c18.01-1.81,66.45-5.8,66.52-5.1s-48.26,5.8-66.27,7.61Z"/>
                <path class="cls-16" d="M174.77,30.81c-.02-.21-.42-.37-1.15-.5-12,2.9-47.78,7.66-72.35,10.05-29.98,2.92-31.89,1.23-32.11-1.07-.02-.18-.02-.36,0-.54-2.77,1-3.01,1.96-2.91,2.96.23,2.3,2.15,3.99,32.12.98,29.97-3.01,76.64-9.58,76.41-11.88Z"/>
              </g>
              <g>
                <circle class="cls-15" cx="177.87" cy="30.22" r="8.77" transform="translate(77.68 180.26) rotate(-65.91)"/>
                <path class="cls-8" d="M186.59,29.34c-.03-.27-.07-.53-.12-.78-.01,3.65-2.78,6.78-6.5,7.15-3.97.4-7.51-2.49-7.91-6.46-.37-3.71,2.14-7.05,5.71-7.79-.26,0-.53.01-.79.04-4.82.48-8.33,4.78-7.85,9.6.48,4.82,4.78,8.33,9.6,7.85,4.82-.48,8.33-4.78,7.85-9.6Z"/>
                <path class="cls-7" d="M181.32,29.56c-1.77.18-3.35-1.11-3.53-2.88-.18-1.77,1.11-3.35,2.88-3.53,1.77-.18,3.35,1.11,3.53,2.88.18,1.77-1.11,3.35-2.88,3.53Z"/>
              </g>
            </g>
            <g>
              <g>
                <path class="cls-1" d="M157.19,26.01c28.11-10.81,29.06-13.18,28.23-15.34-.83-2.16-3.12-3.28-31.24,7.53-28.11,10.81-71.4,29.46-70.57,31.62.83,2.16,45.46-13,73.58-23.81Z"/>
                <path class="cls-4" d="M158.73,20.49c16.89-6.5,17.67-7.4,17.42-8.04-.25-.65-1.43-.8-18.32,5.7-16.89,6.5-61.94,24.76-61.69,25.4.25.65,45.7-16.56,62.6-23.06Z"/>
                <path class="cls-16" d="M83.61,49.82c-.07-.19.21-.52.8-.96,12.02-2.81,46.11-14.68,69.12-23.61,28.08-10.89,29.02-13.27,28.19-15.42-.07-.17-.14-.33-.24-.48,2.93-.35,3.57.39,3.93,1.33.83,2.16-.12,4.53-28.23,15.34-28.11,10.81-72.75,25.96-73.58,23.81Z"/>
              </g>
              <g>
                <circle class="cls-15" cx="80.58" cy="50.68" r="8.77" transform="translate(-13.08 67.7) rotate(-42.46)"/>
                <path class="cls-8" d="M72.4,53.83c-.1-.25-.17-.5-.25-.75,1.66,3.25,5.54,4.8,9.02,3.46,3.72-1.43,5.58-5.61,4.15-9.33-1.34-3.48-5.09-5.33-8.61-4.38.24-.12.47-.23.72-.32,4.52-1.74,9.59.52,11.33,5.04,1.74,4.52-.52,9.59-5.04,11.33-4.52,1.74-9.59-.52-11.33-5.04Z"/>
                <path class="cls-7" d="M77.2,51.65c1.66-.64,2.49-2.5,1.85-4.16s-2.5-2.49-4.16-1.85c-1.66.64-2.49,2.5-1.85,4.16.64,1.66,2.5,2.49,4.16,1.85Z"/>
              </g>
            </g>
          </g>
        </g>
      </g>
    </g>
  </g>
</svg>